<svg xmlns="http://www.w3.org/2000/svg" width="58" height="60" viewBox="0 0 58 60">
  <g id="budget_optimise" data-name="budget optimise" transform="translate(-22.333 -8)">
    <path id="Tracé_143" data-name="Tracé 143" d="M51.333,37.25h-1.5A1.252,1.252,0,0,1,48.583,36h-2a3.244,3.244,0,0,0,3,3.225V41h2V39.225a3.243,3.243,0,0,0,3-3.225v-.75A3.254,3.254,0,0,0,51.333,32h-1.5a1.252,1.252,0,0,1-1.25-1.25V30a1.252,1.252,0,0,1,1.25-1.25h1.5A1.252,1.252,0,0,1,52.583,30h2a3.243,3.243,0,0,0-3-3.225V25h-2v1.775a3.244,3.244,0,0,0-3,3.225v.75A3.254,3.254,0,0,0,49.833,34h1.5a1.252,1.252,0,0,1,1.25,1.25V36A1.252,1.252,0,0,1,51.333,37.25Z" transform="translate(0 0)" fill="#025092"/>
    <path id="Tracé_144" data-name="Tracé 144" d="M69.333,8a7,7,0,1,0,7,7A7,7,0,0,0,69.333,8Z" transform="translate(0)" fill="#63b343"/>
    <path id="Tracé_145" data-name="Tracé 145" d="M70.333,12h-2v2h-2v2h2v2h2V16h2V14h-2Z" transform="translate(0)" fill="#fff"/>
    <path id="Tracé_146" data-name="Tracé 146" d="M26.333,35V33h2V31h-2V29h-2v2h-2v2h2v2Z" transform="translate(0 0)" fill="#63b343"/>
    <path id="Tracé_147" data-name="Tracé 147" d="M78.333,38h-2v2h-2v2h2v2h2V42h2V40h-2Z" transform="translate(0 0)" fill="#63b343"/>
    <rect id="Rectangle_36" data-name="Rectangle 36" width="2" height="2" transform="translate(28.333 38)" fill="#63b343"/>
    <rect id="Rectangle_37" data-name="Rectangle 37" width="2" height="2" transform="translate(75.333 30)" fill="#63b343"/>
    <rect id="Rectangle_38" data-name="Rectangle 38" width="2" height="2" transform="translate(68.333 42)" fill="#63b343"/>
    <rect id="Rectangle_39" data-name="Rectangle 39" width="2" height="2" transform="translate(26.333 23)" fill="#63b343"/>
    <path id="Tracé_148" data-name="Tracé 148" d="M74.184,50.584a2.867,2.867,0,0,0-2.537-.471l-2.208.639A2.761,2.761,0,0,0,65.1,47.4l-6.479,6.478-2.432.7H51.568l-2.355-1.174L53.94,49.8a.839.839,0,0,0,.1-.088c.028-.028.046-.058.073-.087a17,17,0,1,0-9.932-.882L40.919,52H36.333V50h-9V68h9V66h4.891l8.892,1.977a1.06,1.06,0,0,0,.217.023,1.017,1.017,0,0,0,.35-.062l26.456-9.863A2.66,2.66,0,0,0,75.6,52.99l-.281.07c0-.057.014-.112.014-.17A2.863,2.863,0,0,0,74.184,50.584Zm-7.667-1.765A.768.768,0,0,1,67.6,49.9l-1.943,1.941-3.055.885ZM56.333,56.587a1.042,1.042,0,0,0,.278-.039L72.2,52.036a.889.889,0,0,1,1.1.611.87.87,0,0,1,.034.243.828.828,0,0,1-.658.831h0L57.449,57.527l-1.881-.94ZM35.583,33a15,15,0,1,1,19.55,14.286,2.934,2.934,0,0,0-.638-1.909c-.884-1.079-2.684-1.56-4.672-.234l-3.644,2.186A15.033,15.033,0,0,1,35.583,33Zm40.5,21.931a.661.661,0,0,1,.369,1.269L50.261,65.96,41.55,64.023A1.052,1.052,0,0,0,41.333,64h-5V54h5a1,1,0,0,0,.707-.293l3.913-3.913,4.935-2.962c.868-.577,1.676-.654,2.055-.186a1.207,1.207,0,0,1-.275,1.6l-5.942,4.543a1,1,0,0,0,.16,1.689l10,5a1,1,0,0,0,.689.076Z" fill="#025092"/>
  </g>
</svg>
