<svg xmlns="http://www.w3.org/2000/svg" width="56.128" height="56.083" viewBox="0 0 56.128 56.083">
  <g id="picto-reparation" transform="translate(-444.461 -51.277)">
    <g id="Groupe_66" data-name="Groupe 66">
      <path id="Tracé_122" data-name="Tracé 122" d="M473.6,84.619l3.012,3.012-2.829,2.829a1,1,0,0,0,0,1.414L475.907,94a1,1,0,0,0,.391.242l1.9.632,10.44,10.44a7,7,0,0,0,9.9-9.9h0L488.1,84.969l-.634-1.9a1,1,0,0,0-.241-.39L485.1,80.56a1,1,0,0,0-1.414,0l-2.829,2.829-3.014-3.013L457.639,60.17l-2.756-5.513c-.017-.033-.051-.052-.071-.084a.892.892,0,0,0-.117-.175l-2.828-2.829a1,1,0,0,0-1.414,0L444.8,57.226a1,1,0,0,0,0,1.414l2.828,2.828a.985.985,0,0,0,.181.121c.029.019.047.051.079.067l5.513,2.756Zm10.791-1.943,1.247,1.247.438,1.311-2.392,2.391a1,1,0,0,0,0,1.414h0l8.485,8.485a1,1,0,0,0,1.414-1.414l-7.778-7.779,1.415-1.414,9.9,9.9a5,5,0,0,1-7.071,7.071l-10.608-10.6a.981.981,0,0,0-.39-.241l-1.9-.633-1.247-1.247,2.828-2.828h0l2.828-2.828ZM451.16,53.693l1.414,1.415-2.121,2.118-2.122,2.121-1.414-1.414Zm.707,4.95,1.847-1.847,1.889,3.768-1.812,1.812-3.771-1.889Zm4.949,3.533,13.232,13.23c.007.008.01.019.017.027a.221.221,0,0,0,.028.018l9.351,9.352-1.414,1.414-9.353-9.353c-.007-.008-.009-.018-.017-.025s-.017-.009-.024-.016L455.4,63.589Z" fill="#025092"/>
      <path id="Tracé_123" data-name="Tracé 123" d="M480.858,90.46a1,1,0,0,0,0,1.414l8.486,8.485a1,1,0,0,0,1.414-1.414l-8.485-8.485a1,1,0,0,0-1.414,0Z" fill="#025092"/>
    </g>
    <g id="Groupe_67" data-name="Groupe 67">
      <path id="Tracé_124" data-name="Tracé 124" d="M452.788,92.938l-1,3.714,2.72,2.719,3.714-.995,1-3.718L456.5,91.94Z" fill="#63b343"/>
      <path id="Tracé_125" data-name="Tracé 125" d="M497.161,65.272a1,1,0,0,0-.408,0l-8.035,1.72-2.093-2.617.837-3.247,8.025-1.721a1,1,0,0,0,.6-1.561,11,11,0,0,0-19.679,8.726c.062.281.134.557.219.833l-5.887,5.887,7.065,7.068,5.724-5.724a10.986,10.986,0,0,0,14.412-8.186A1,1,0,0,0,497.161,65.272Z" fill="#63b343"/>
      <path id="Tracé_126" data-name="Tracé 126" d="M472.177,83.22l.013-.013-4.241-4.242-.013.013-1.442-1.442-7.642,7.642a11,11,0,1,0,7.073,7.074l7.637-7.647ZM461.3,94.618l-1.295,4.83a1,1,0,0,1-.707.707l-4.829,1.294a1,1,0,0,1-.966-.258l-3.541-3.536a1,1,0,0,1-.259-.966l1.3-4.83a1,1,0,0,1,.707-.707l4.829-1.293a1,1,0,0,1,.965.258l3.538,3.535A1,1,0,0,1,461.3,94.618Z" fill="#63b343"/>
    </g>
  </g>
</svg>
