<svg xmlns="http://www.w3.org/2000/svg" width="80.818" height="71.751" viewBox="0 0 80.818 71.751">
  <g>
    <path d="M68.8,33.146l-5.434-2.714L58.655,16.306a9.992,9.992,0,0,0-9.487-6.841H32.108a9.977,9.977,0,0,0-9.486,6.847L17.908,30.439l-5.433,2.713a3.338,3.338,0,0,0-1.84,2.98v10A9.985,9.985,0,0,0,17.3,55.518v3.948a3.333,3.333,0,1,0,6.666,0V56.132H57.3v3.334a3.333,3.333,0,0,0,6.666,0V55.518a9.985,9.985,0,0,0,6.667-9.386v-10A3.361,3.361,0,0,0,68.8,33.146ZM28.935,18.419A3.345,3.345,0,0,1,32.1,16.132h17.06a3.336,3.336,0,0,1,3.166,2.293l3.682,11.04H25.251Zm.314,29.256A4.853,4.853,0,1,1,34.1,42.822,4.852,4.852,0,0,1,29.249,47.675Zm22.509,0a4.853,4.853,0,1,1,4.853-4.853A4.852,4.852,0,0,1,51.758,47.675Z" fill="#65b343"/>
    <g>
      <circle cx="55.979" cy="50.143" r="15.323" fill="none" stroke="#fff" stroke-miterlimit="10" stroke-width="3"/>
      <g>
        <circle cx="55.979" cy="50.143" r="12.656" fill="#fff"/>
        <path d="M55.979,64.3A14.157,14.157,0,1,1,70.135,50.142,14.173,14.173,0,0,1,55.979,64.3Zm0-25.313A11.157,11.157,0,1,0,67.135,50.142,11.169,11.169,0,0,0,55.979,38.986Z" fill="#045092"/>
      </g>
      <path d="M60.3,44.707l-.459,2.16A2.621,2.621,0,0,0,57.9,46.2a2.591,2.591,0,0,0-2.059.912,3.021,3.021,0,0,0-.632,1.287H59.5l-.25,1.209H55.056c-.006.12-.009.273-.009.46s.006.372.016.569h3.969l-.249,1.209H55.226a3.074,3.074,0,0,0,.6,1.31,2.531,2.531,0,0,0,2.028.92,3.161,3.161,0,0,0,2.386-.92v2.387a5.218,5.218,0,0,1-2.363.507,4.907,4.907,0,0,1-3.743-1.56,5.3,5.3,0,0,1-1.319-2.644H51.662l.25-1.209h.765c-.006-.124-.009-.257-.009-.4,0-.24.006-.45.016-.632H51.662l.25-1.209h.928a5.346,5.346,0,0,1,1.3-2.6,5.6,5.6,0,0,1,6.153-1.1Z" fill="#045092"/>
    </g>
  </g>
</svg>
