<svg xmlns="http://www.w3.org/2000/svg" xmlns:xlink="http://www.w3.org/1999/xlink" width="59.261" height="51.248" viewBox="0 0 59.261 51.248"><defs><style>.a{fill:#545151;}.b{fill:#acacac;}.ae,.c,.s,.y{fill:#fff;}.c{opacity:0.55;}.d{fill:#999;}.e{fill:#666;}.f{fill:#242729;}.g{fill:#454646;}.h{fill:#a42424;}.i{fill:#bd2929;}.j{fill:#a5aaab;}.k{fill:#303336;}.l{fill:#767676;}.m{fill:#7f8080;}.n{fill:#e5bbb1;}.o{opacity:0.2;}.p{fill:#464646;}.q{fill:#686868;}.r{fill:#535455;}.s,.t{opacity:0.1;}.u{fill:#fbd6cc;}.v{fill:#96968a;}.w{fill:#7e7e78;}.x{fill:#d6d6d6;}.z{opacity:0.06;}.aa{fill:#2b2e31;}.ab{fill:#b8acac;}.ac{fill:#fdfbcc;opacity:0.47;}.ad,.af{opacity:0.81;}.ad{fill:url(#a);}.ae{opacity:0.3;}.af{fill:url(#b);}</style><radialGradient id="a" cx="-6394.803" cy="-15980.451" r="1.52" gradientTransform="matrix(-0.862, 0.539, -0.539, -0.862, -21006.492, -27399.604)" gradientUnits="userSpaceOnUse"><stop offset="0" stop-color="#fff"/><stop offset="1" stop-color="#fdfbcc"/></radialGradient><radialGradient id="b" cx="-31335.146" cy="-22126.895" r="0.689" gradientTransform="matrix(-0.754, 0.593, -0.593, -0.754, 834.623, -13662.414)" xlink:href="#a"/></defs><g transform="translate(-190.432 -956.862)"><g transform="translate(190.432 956.862)"><path class="a" d="M216.848,965.04c-.025.051-.013.025,0,0Z" transform="translate(-190.937 -957.018)"/><path class="a" d="M216.848,965.039v0C216.859,965.013,216.871,964.989,216.848,965.039Z" transform="translate(-190.938 -957.018)"/><path class="a" d="M216.848,965.04h0Z" transform="translate(-190.938 -957.018)"/><rect class="b" width="0.396" height="3.551" transform="translate(47.115 2.071)"/><path class="b" d="M239.549,960.748c0,.981-.494,1.775-1.1,1.775s-1.1-.795-1.1-1.775.494-1.774,1.1-1.774S239.549,959.768,239.549,960.748Z" transform="translate(-191.33 -956.902)"/><path class="c" d="M239,959.222c-.4.034-.792.062-1.189.077a2.227,2.227,0,0,0-.473,1.455,2.575,2.575,0,0,0,.193,1c.575.038,1.147.122,1.717.212a2.438,2.438,0,0,0,.3-1.214A2.136,2.136,0,0,0,239,959.222Z" transform="translate(-191.33 -956.907)"/><path class="d" d="M239.953,960.748c0,.981-.494,1.775-1.1,1.775s-1.105-.795-1.105-1.775.5-1.774,1.105-1.774S239.953,959.768,239.953,960.748Z" transform="translate(-191.338 -956.902)"/><path class="c" d="M238.86,960.93c.244-.371.689-1.148.523-1.585a1,1,0,0,1-.051-.19.78.78,0,0,0-.484-.18c-.61,0-1.105.794-1.105,1.774a2.561,2.561,0,0,0,.206,1.029A2.147,2.147,0,0,0,238.86,960.93Z" transform="translate(-191.338 -956.902)"/><g transform="translate(46.063 3.693)"><path class="e" d="M237.776,965.47l-.382-.293,1.727-2.246a1.293,1.293,0,0,0,.243-1.146,1.206,1.206,0,0,0-.638-.751.176.176,0,0,1-.083-.214h0a.289.289,0,0,1,.421-.152,1.684,1.684,0,0,1,.773,1.02,1.78,1.78,0,0,1-.338,1.542Z" transform="translate(-237.394 -960.627)"/></g><path class="f" d="M237.118,967.53H219.747a.845.845,0,0,1-.843-.843h0a.846.846,0,0,1,.843-.843h17.371a.845.845,0,0,1,.843.843h0A.844.844,0,0,1,237.118,967.53Z" transform="translate(-190.977 -957.034)"/><path class="g" d="M192.018,997.2h-.343a1.246,1.246,0,0,1-1.243-1.243h0a1.246,1.246,0,0,1,1.243-1.243h.343a1.246,1.246,0,0,1,1.243,1.243h0A1.246,1.246,0,0,1,192.018,997.2Z" transform="translate(-190.432 -957.586)"/><rect class="h" width="6.581" height="3.29" rx="1.542" transform="translate(33.264 7.969)"/><path class="i" d="M227.178,971.392a6.021,6.021,0,0,1,2.748-7.818c4.051-2.308,8.1-.862,8.182,3.049s-5.213,5.116-5.213,5.116Z" transform="translate(-191.125 -956.969)"/><path class="h" d="M233.146,962.507c-2.641,1.652-4.228,5.1-2.176,7.95a4.015,4.015,0,0,0,1.6,1.258l.388.024s5.3-1.2,5.213-5.116C238.112,963.751,235.913,962.211,233.146,962.507Z" transform="translate(-191.19 -956.969)"/><path class="h" d="M204.782,981.325s-5.764,1-7.785,10.022h11.335s1.01,8.015,13.573,7.942l12.562-.073a19.723,19.723,0,0,1,4.4-11.262,18.931,18.931,0,0,1,1.85-1.9,1.6,1.6,0,0,0,.446-1.789c-.96-2.463-3.288-8.2-5.2-11.058a3.693,3.693,0,0,0-3.075-1.636h-5.1s3.835,11.588,2.969,16.5a40.687,40.687,0,0,1-2.809,9.059h-5.191a2.123,2.123,0,0,1-2.1-2.453c.554-3.491,1.35-9.647.373-11.264-.844-1.4-1.444-1.661-1.444-1.661Z" transform="translate(-190.558 -957.143)"/><path class="j" d="M244.291,998.4l-2.971-8.486a9.612,9.612,0,0,1-1.725.145,1.117,1.117,0,0,1-.476-.116l3.2,9.146a1.043,1.043,0,0,0,1.97-.69Z" transform="translate(-191.364 -957.494)"/><g transform="translate(40.686 30.237)"><path class="k" d="M250.424,997.318c-.6-5.781-5.208-10.076-10.3-9.592s-8.741,5.563-8.146,11.344,5.207,10.076,10.3,9.593S251.019,1003.1,250.424,997.318Zm-10.228,6.821c-2.847-.647-4.5-3.835-4.477-6.459A5.413,5.413,0,0,1,240.5,992a1,1,0,0,1,.575-.109,5.573,5.573,0,0,1,4.9,4,.892.892,0,0,1-.058.757,6.877,6.877,0,0,1,.419,2.033C246.465,1001.724,243.531,1004.9,240.2,1004.139Z" transform="translate(-231.912 -987.689)"/></g><g transform="translate(42.063 32.36)"><path class="f" d="M248.125,997.558c-.476-4.625-4.166-8.061-8.241-7.674s-6.994,4.451-6.517,9.076,4.167,8.061,8.242,7.674S248.6,1002.182,248.125,997.558Zm-6.861,5.725c-2.445.232-4.659-1.828-4.945-4.6s1.465-5.213,3.911-5.445,4.659,1.829,4.945,4.6S243.709,1003.051,241.264,1003.283Z" transform="translate(-233.316 -989.854)"/></g><path class="l" d="M237.881,998.744a4.793,4.793,0,0,1,3.543-5.389,3.959,3.959,0,0,0-1.137-.056c-2.445.232-4.2,2.67-3.911,5.445s2.5,4.837,4.945,4.6c.125-.012.246-.032.367-.056A5.033,5.033,0,0,1,237.881,998.744Z" transform="translate(-191.311 -957.559)"/><path class="m" d="M244.061,998.528a1.159,1.159,0,1,1-1.134-1.4A1.288,1.288,0,0,1,244.061,998.528Z" transform="translate(-191.415 -957.633)"/><rect class="m" width="3.705" height="2.799" transform="translate(47.877 39.496)"/><g transform="translate(2.09 31.241)"><path class="k" d="M209.305,997.422c-.539-5.229-4.71-9.113-9.317-8.676s-7.906,5.031-7.367,10.26,4.71,9.113,9.317,8.676S209.844,1002.65,209.305,997.422Zm-9.25,6.168c-2.575-.585-4.068-3.468-4.049-5.841a4.9,4.9,0,0,1,4.329-5.134.908.908,0,0,1,.52-.1,5.04,5.04,0,0,1,4.429,3.618.8.8,0,0,1-.052.685,6.223,6.223,0,0,1,.378,1.84C205.725,1001.406,203.072,1004.275,200.055,1003.59Z" transform="translate(-192.563 -988.713)"/></g><g transform="translate(3.337 33.162)"><path class="f" d="M207.227,997.638c-.431-4.183-3.767-7.29-7.454-6.941s-6.325,4.026-5.893,8.209,3.767,7.29,7.454,6.94S207.658,1001.821,207.227,997.638Zm-6.2,5.178a4.362,4.362,0,0,1-4.473-4.164,4.281,4.281,0,0,1,3.536-4.925,4.364,4.364,0,0,1,4.473,4.165A4.281,4.281,0,0,1,201.022,1002.816Z" transform="translate(-193.834 -990.671)"/></g><path class="l" d="M197.962,998.711a4.334,4.334,0,0,1,3.2-4.874,3.6,3.6,0,0,0-1.029-.051,4.281,4.281,0,0,0-3.536,4.925,4.362,4.362,0,0,0,4.473,4.164c.113-.011.223-.029.332-.05A4.553,4.553,0,0,1,197.962,998.711Z" transform="translate(-190.55 -957.568)"/><path class="m" d="M203.551,998.515a1.048,1.048,0,1,1-1.026-1.265A1.164,1.164,0,0,1,203.551,998.515Z" transform="translate(-190.644 -957.635)"/><rect class="m" width="3.351" height="2.531" transform="translate(8.595 39.615)"/><path class="n" d="M220.921,981a1.622,1.622,0,0,0,.11-.42c.15-1.168-.673-3.738-2.154-3.738H206.4a2.575,2.575,0,0,0,0,5.151h7.324q1.869,0,3.736,0C218.542,981.992,220.418,982.194,220.921,981Z" transform="translate(-190.688 -957.244)"/><path class="j" d="M239.964,998.382l-3.321-9.487a4.868,4.868,0,0,1-1.62,1.685l2.972,8.491a1.043,1.043,0,0,0,1.97-.69Z" transform="translate(-191.286 -957.475)"/><path class="o" d="M238.763,994.954l-2.121-6.059a4.868,4.868,0,0,1-1.62,1.685l1.712,4.891C237.407,995.286,238.084,995.117,238.763,994.954Z" transform="translate(-191.286 -957.475)"/><g transform="translate(45.992 40.027)"><path class="p" d="M239.7,998.538a.719.719,0,1,1-.7-.868A.8.8,0,0,1,239.7,998.538Z" transform="translate(-237.341 -997.67)"/><rect class="p" width="0.954" height="1.735" transform="translate(0.702 0)"/><path class="q" d="M238.728,998.538a.719.719,0,1,1-.7-.868A.8.8,0,0,1,238.728,998.538Z" transform="translate(-237.322 -997.67)"/></g><path class="f" d="M215.728,999.245a5.6,5.6,0,0,1-3.174-.635,2.885,2.885,0,0,1-1.115-2.08h-10.99a2.185,2.185,0,0,0,0,4.37h19.887a2.193,2.193,0,0,0,2.078-1.513C220.187,999.432,217.967,999.362,215.728,999.245Z" transform="translate(-190.582 -957.621)"/><path class="r" d="M208.576,997.607H192.629A1.629,1.629,0,0,1,191,995.982h0a1.629,1.629,0,0,1,1.624-1.624h15.947a1.629,1.629,0,0,1,1.624,1.624h0A1.629,1.629,0,0,1,208.576,997.607Z" transform="translate(-190.443 -957.579)"/><path class="s" d="M206.044,995.853h-13a.483.483,0,0,1-.482-.482h0a.483.483,0,0,1,.482-.482h13a.482.482,0,0,1,.481.482h0A.482.482,0,0,1,206.044,995.853Z" transform="translate(-190.473 -957.59)"/><path class="i" d="M199.4,981.325s-4.49.778-6.935,7.168a2.105,2.105,0,0,0,1.968,2.854h8.517s1.011,8.015,13.573,7.942l12.562-.073a19.72,19.72,0,0,1,4.4-11.262,11.479,11.479,0,0,1,1.992-1.87,1.845,1.845,0,0,0,.612-2.242c-1.247-2.866-3.961-8.84-5.924-11.265a2.763,2.763,0,0,0-2.152-1.011H226.6a1.838,1.838,0,0,0-1.717,2.5c1.426,3.712,3.8,10.623,3.182,14.11a61.62,61.62,0,0,1-2.31,8.952h-8.61a1.973,1.973,0,0,1-1.956-2.247c.476-3.414,1.212-9.7.458-11.47-.707-1.661-1.444-1.661-1.444-1.661Z" transform="translate(-190.468 -957.143)"/><path class="t" d="M216.054,987.163a10.137,10.137,0,0,0-.309-3.566c-.707-1.661-1.444-1.661-1.444-1.661l-14.812-.421a6.942,6.942,0,0,0-2.3,1.025C203.491,984.014,209.765,985.616,216.054,987.163Z" transform="translate(-190.561 -957.334)"/><path class="s" d="M216,985.636a6.2,6.2,0,0,0-.312-2.01,5.977,5.977,0,0,0-.271-.559H196.428a11.2,11.2,0,0,0-2.355,2.569Z" transform="translate(-190.502 -957.363)"/><path class="s" d="M226.234,971.691a1.835,1.835,0,0,0-.821.631c.048.086.094.174.141.26a22.735,22.735,0,0,1,3.572,7.671c1.557,7.13-1.573,16.92-1.573,16.92l-20.062-.038a11.96,11.96,0,0,0,1.373.722h19.962C232.822,983.653,230.636,975.458,226.234,971.691Z" transform="translate(-190.759 -957.146)"/><path class="u" d="M216.128,980.158a3.076,3.076,0,0,0-2.829-3.009c-1.054,0-12.991-.307-12.991-.307a2.575,2.575,0,0,0,0,5.151h7.324c1.245,0,5.166.064,6.411.013C216.027,981.924,216.128,981.242,216.128,980.158Z" transform="translate(-190.572 -957.244)"/><ellipse class="v" cx="2.497" cy="3.33" rx="2.497" ry="3.33" transform="translate(41.259 6.324)"/><path class="s" d="M238.211,966.626c0,2.207-1.813,4-3.226,4-1.656,0-3-1.79-3-4s1.342-4,3-4A3.9,3.9,0,0,1,238.211,966.626Z" transform="translate(-191.227 -956.972)"/><path class="w" d="M235.035,963.309a1.9,1.9,0,0,0-.4.047,3.62,3.62,0,0,1,0,6.567,1.89,1.89,0,0,0,.4.047c1.379,0,2.5-1.492,2.5-3.331S236.414,963.309,235.035,963.309Z" transform="translate(-191.278 -956.985)"/><path class="x" d="M237,966.652c0,1.471-.895,2.664-2,2.664s-2-1.193-2-2.664.895-2.664,2-2.664S237,965.181,237,966.652Z" transform="translate(-191.247 -956.998)"/><path class="y" d="M236.806,966.657c0,1.324-.805,2.4-1.8,2.4s-1.8-1.074-1.8-2.4.805-2.4,1.8-2.4S236.806,965.333,236.806,966.657Z" transform="translate(-191.251 -957.003)"/><path class="z" d="M236.654,967.656a3.083,3.083,0,0,0,.152-.963,3.144,3.144,0,0,0-.06-.592c-1.169.35-2.334.712-3.5,1.075a2.674,2.674,0,0,0,.531,1.263C234.725,968.135,235.686,967.888,236.654,967.656Z" transform="translate(-191.252 -957.038)"/><path class="i" d="M247.71,989.507c.812-.267,2.23-.929,1.1-1.806-2.365-1.828-4.974-3.114-7.88-2.817-4.009.411-7.277,3.356-8.876,7.438a2.362,2.362,0,0,0,2.186,3.238,2.669,2.669,0,0,0,2.125-1.34C240.556,988.2,245.895,990.1,247.71,989.507Z" transform="translate(-191.225 -957.397)"/><path class="s" d="M243.6,988.352a6.043,6.043,0,0,0-10.053,2.773,1.417,1.417,0,0,0,1.311,1.942,1.6,1.6,0,0,0,1.274-.8C238.653,988.651,244.284,988.879,243.6,988.352Z" transform="translate(-191.255 -957.432)"/><path class="h" d="M241.313,985.747a13.805,13.805,0,0,1,6.8,3.651c.8-.316,1.794-.922.792-1.7-2.365-1.828-4.974-3.114-7.88-2.817a9.451,9.451,0,0,0-3.816,1.254A7.753,7.753,0,0,1,241.313,985.747Z" transform="translate(-191.327 -957.397)"/><path class="f" d="M223.6,966.68c0,.665-.35,1.2-.783,1.2s-.783-.539-.783-1.2.351-1.2.783-1.2S223.6,966.015,223.6,966.68Z" transform="translate(-191.037 -957.027)"/><path class="f" d="M224.15,966.68c0,.665-.35,1.2-.783,1.2s-.782-.539-.782-1.2.35-1.2.782-1.2S224.15,966.015,224.15,966.68Z" transform="translate(-191.047 -957.027)"/><rect class="f" width="0.542" height="2.408" transform="translate(31.779 8.45)"/><path class="t" d="M214.35,988.672H192.521c-.02.05-.04.1-.06.148a2.1,2.1,0,0,0,.873,2.545,3.167,3.167,0,0,0,1.095.309h19.854a1.594,1.594,0,0,0,1.489-1.411l0-.028A1.432,1.432,0,0,0,214.35,988.672Zm-2.434,2.26h-4.738a.3.3,0,1,1,0-.6h4.738a.3.3,0,1,1,0,.6Zm0-1.1h-4.738a.3.3,0,1,1,0-.6h4.738a.3.3,0,1,1,0,.6Z" transform="translate(-190.468 -957.471)"/><path class="s" d="M239.137,983.327a1.475,1.475,0,0,1-1.274-.919s-4.58-9.027-4.583-9.034c-.19-.375,0-.962.47-.971.534-.01.981.647,1.2,1.071l4.521,8.91C239.671,982.786,239.741,983.244,239.137,983.327Z" transform="translate(-191.251 -957.159)"/><path class="f" d="M218.128,966.624c0,.564.314,1.022.7,1.022s.7-.458.7-1.022-.313-1.022-.7-1.022S218.128,966.06,218.128,966.624Z" transform="translate(-190.962 -957.029)"/><rect class="f" width="0.79" height="2.044" transform="translate(27.866 10.617) rotate(-180)"/><ellipse class="aa" cx="0.7" cy="1.022" rx="0.7" ry="1.022" transform="translate(26.444 8.573)"/><g transform="translate(23.361)"><rect class="b" width="0.466" height="4.183" transform="translate(1.301)"/><path class="b" d="M216.852,958.953c0,1.155-.583,2.091-1.3,2.091s-1.3-.936-1.3-2.091.583-2.091,1.3-2.091S216.852,957.8,216.852,958.953Z" transform="translate(-214.249 -956.862)"/><path class="c" d="M216.207,957.155c-.467.039-.933.073-1.4.09a2.62,2.62,0,0,0-.557,1.714,3.03,3.03,0,0,0,.228,1.18c.678.046,1.351.143,2.023.25a2.88,2.88,0,0,0,.353-1.43A2.518,2.518,0,0,0,216.207,957.155Z" transform="translate(-214.249 -956.867)"/><path class="d" d="M217.327,958.953c0,1.155-.583,2.091-1.3,2.091s-1.3-.936-1.3-2.091.584-2.091,1.3-2.091S217.327,957.8,217.327,958.953Z" transform="translate(-214.258 -956.862)"/><path class="c" d="M216.04,959.167c.287-.437.811-1.353.616-1.868a1.146,1.146,0,0,1-.061-.225.916.916,0,0,0-.57-.213c-.718,0-1.3.936-1.3,2.091a3.012,3.012,0,0,0,.242,1.212A2.527,2.527,0,0,0,216.04,959.167Z" transform="translate(-214.258 -956.862)"/><g transform="translate(1.768 1.926)"><path class="e" d="M224,966.649h0a.24.24,0,0,1-.24-.24v-.515a3.453,3.453,0,0,0-1.367-2.743l-4.767-3.6a1.228,1.228,0,0,0-.736-.247h-.593a.241.241,0,0,1-.241-.24h0a.241.241,0,0,1,.241-.241h.513a1.947,1.947,0,0,1,1.171.392l4.607,3.476a4.163,4.163,0,0,1,1.654,3.32v.4A.24.24,0,0,1,224,966.649Z" transform="translate(-216.051 -958.825)"/></g></g><path class="ab" d="M215.821,962.017h1.586v-.241l-1.584-.014Z" transform="translate(-190.918 -956.956)"/></g><g transform="translate(225.177 958.207)"><path class="ac" d="M234.445,964.806l2.989-1.192,2.527,1.992-.462,3.184-2.989,1.192-2.527-1.992Z" transform="translate(-226.011 -958.336)"/><path class="ad" d="M235.3,966.58l1.167-1.1,1.535.462.367,1.56-1.167,1.1-1.535-.462Z" transform="translate(-226.036 -958.372)"/><path class="ae" d="M229.418,963.506l7.193,3.058.436-8.332.151,8.309,8.457-2.561-8.352,3.211,3.242,5.969-3.788-5.673-6.355,4.856,5.889-5.293Z" transform="translate(-225.923 -958.233)"/><path class="y" d="M229.914,963.713l6.813,3.037.369-7.645.028,7.633,7.6-2.467-7.577,2.824,2.869,5.211-3.246-5.058-5.224,4.9,5-5.112Z" transform="translate(-225.933 -958.249)"/><path class="ac" d="M228.052,966.512l1.216-.644,1.166.731-.05,1.375-1.216.644L228,967.887Z" transform="translate(-225.896 -958.379)"/><path class="af" d="M228.493,967.229l.446-.521.674.126.228.646-.446.521-.674-.126Z" transform="translate(-225.906 -958.395)"/><path class="ae" d="M225.855,966.186l3.2.971-.2-3.563.445,3.526,3.479-1.477-3.4,1.749,1.652,2.389-1.871-2.239-2.48,2.356,2.262-2.521Z" transform="translate(-225.855 -958.336)"/><path class="y" d="M226.075,966.252l3.036.979-.194-3.268.362,3.244,3.118-1.4-3.092,1.548,1.459,2.084-1.612-2-2,2.323,1.892-2.4Z" transform="translate(-225.859 -958.343)"/></g></g></svg>