<?xml version="1.0" encoding="utf-8"?>
<!-- Generator: Adobe Illustrator 22.1.0, SVG Export Plug-In . SVG Version: 6.00 Build 0)  -->
<svg version="1.1" id="Calque_1" xmlns="http://www.w3.org/2000/svg" xmlns:xlink="http://www.w3.org/1999/xlink" x="0px" y="0px"
	 viewBox="0 0 322.1 321.1" style="enable-background:new 0 0 322.1 321.1;" xml:space="preserve">
<style type="text/css">
	.st0{fill:#FFFFFF;}
	.st1{fill:url(#XMLID_2_);}
	.st2{fill:url(#XMLID_3_);}
</style>
<g id="XMLID_113_">
	
		<image style="overflow:visible;opacity:0.2;enable-background:new    ;" width="1346" height="1342" xlink:href="7DA1225.png"  transform="matrix(0.2393 0 0 0.2393 0 0)">
	</image>
	<g>
		<path class="st0" d="M279.9,21.1H21.1c3.5,38.7,5.5,82.1,5.5,128c0,14.1-0.2,27.9-0.6,41.5h0.3c-0.5,31.6-2,65.8-4.4,94.1h258.5
			c2.9-29.2,4.4-82.5,5-110.7l0,0C286.5,114,283.4,59.4,279.9,21.1z"/>
	</g>
</g>
<g id="XMLID_110_">
	
		<linearGradient id="XMLID_2_" gradientUnits="userSpaceOnUse" x1="37.4109" y1="273.8659" x2="263.7203" y2="418.287" gradientTransform="matrix(1 0 0 -1 0 452.3816)">
		<stop  offset="4.926110e-03" style="stop-color:#0B2659"/>
		<stop  offset="3.543602e-02" style="stop-color:#032D63"/>
		<stop  offset="9.793785e-02" style="stop-color:#003A75"/>
		<stop  offset="0.1658" style="stop-color:#004382"/>
		<stop  offset="0.2409" style="stop-color:#004B8C"/>
		<stop  offset="0.3286" style="stop-color:#004F92"/>
		<stop  offset="0.4599" style="stop-color:#005094"/>
		<stop  offset="1" style="stop-color:#0B2659"/>
	</linearGradient>
	<path id="XMLID_111_" class="st1" d="M41.4,186.4l229.9-14.7c0.8-53-2.1-101.3-5.2-135.3H37c3.1,34.3,4.9,72.7,4.9,113.3
		C41.9,162.2,41.7,174.4,41.4,186.4z"/>
</g>
<linearGradient id="XMLID_3_" gradientUnits="userSpaceOnUse" x1="38.137" y1="209.9666" x2="270.3998" y2="231.8666" gradientTransform="matrix(1 0 0 -1 0 452.3816)">
	<stop  offset="1.970440e-02" style="stop-color:#13A538"/>
	<stop  offset="0.37" style="stop-color:#4DAD33"/>
	<stop  offset="0.7195" style="stop-color:#65B32E"/>
	<stop  offset="1" style="stop-color:#6CB52D"/>
</linearGradient>
<path id="XMLID_109_" class="st2" d="M41,193.2c-0.5,28-1.8,51.6-3.9,76.7H266c2.6-25.9,3.9-51.7,4.4-76.7H41z"/>
<g id="XMLID_63_">
	<g>
		<path id="XMLID_165_" class="st0" d="M107.4,235.3l-6.9,8.2h9.1v4.9h-19c0.8-1,1.7-2.2,2.8-3.6s2.3-2.9,3.5-4.4s2.4-3,3.6-4.5
			c1.2-1.5,2.3-2.8,3.2-3.9c0.6-0.7,1-1.4,1.3-2.2c0.3-0.8,0.5-1.6,0.5-2.4s-0.1-1.5-0.4-2.2c-0.3-0.7-0.7-1.3-1.2-1.7
			c-0.5-0.5-1.1-0.9-1.8-1.2c-0.7-0.3-1.4-0.4-2.2-0.4c-1.2,0-2.3,0.3-3.2,1c-1,0.7-1.7,1.5-2.1,2.6l-4.6-1.8c0.4-1,0.9-1.9,1.6-2.8
			c0.7-0.8,1.4-1.5,2.3-2.1c0.9-0.6,1.8-1.1,2.8-1.4s2.1-0.5,3.2-0.5c1.5,0,2.8,0.3,4.1,0.8s2.4,1.3,3.3,2.2
			c0.9,0.9,1.7,2.1,2.3,3.3c0.6,1.3,0.8,2.6,0.8,4.1C110.3,230.3,109.3,232.9,107.4,235.3z"/>
		<path id="XMLID_161_" class="st0" d="M147.2,239.2c-0.8,1.9-2,3.6-3.4,5.1c-1.4,1.4-3.1,2.6-5.1,3.4c-1.9,0.8-4,1.2-6.2,1.2
			s-4.2-0.4-6.2-1.2c-1.9-0.8-3.6-2-5.1-3.4c-1.4-1.4-2.6-3.1-3.4-5.1c-0.8-1.9-1.3-4-1.3-6.2s0.4-4.3,1.3-6.2
			c0.8-1.9,2-3.6,3.4-5.1c1.4-1.4,3.1-2.6,5.1-3.4c1.9-0.8,4-1.3,6.2-1.3s4.3,0.4,6.2,1.3c1.9,0.8,3.6,2,5.1,3.4
			c1.4,1.4,2.6,3.1,3.4,5.1c0.8,1.9,1.3,4,1.3,6.2C148.4,235.2,148,237.2,147.2,239.2z M142.6,228.7c-0.6-1.3-1.4-2.5-2.4-3.5
			s-2.2-1.8-3.5-2.4s-2.8-0.9-4.3-0.9s-2.9,0.3-4.3,0.9c-1.3,0.6-2.5,1.4-3.5,2.4s-1.8,2.2-2.4,3.5s-0.9,2.8-0.9,4.3
			s0.3,2.9,0.9,4.3c0.6,1.3,1.4,2.5,2.4,3.5s2.2,1.8,3.5,2.4c1.3,0.6,2.8,0.9,4.3,0.9s2.9-0.3,4.3-0.9c1.3-0.6,2.5-1.4,3.5-2.4
			s1.8-2.2,2.4-3.5s0.9-2.8,0.9-4.3C143.4,231.4,143.2,230,142.6,228.7z"/>
		<path id="XMLID_158_" class="st0" d="M184.2,239.2c-0.8,1.9-2,3.6-3.4,5.1c-1.4,1.4-3.1,2.6-5.1,3.4c-1.9,0.8-4,1.2-6.2,1.2
			s-4.2-0.4-6.2-1.2c-1.9-0.8-3.6-2-5.1-3.4c-1.4-1.4-2.6-3.1-3.4-5.1c-0.8-1.9-1.3-4-1.3-6.2s0.4-4.3,1.3-6.2
			c0.8-1.9,2-3.6,3.4-5.1c1.4-1.4,3.1-2.6,5.1-3.4c1.9-0.8,4-1.3,6.2-1.3s4.3,0.4,6.2,1.3c1.9,0.8,3.6,2,5.1,3.4
			c1.4,1.4,2.6,3.1,3.4,5.1c0.8,1.9,1.3,4,1.3,6.2C185.5,235.2,185,237.2,184.2,239.2z M179.6,228.7c-0.6-1.3-1.4-2.5-2.4-3.5
			s-2.2-1.8-3.5-2.4s-2.8-0.9-4.3-0.9s-2.9,0.3-4.3,0.9c-1.3,0.6-2.5,1.4-3.5,2.4s-1.8,2.2-2.4,3.5s-0.9,2.8-0.9,4.3
			s0.3,2.9,0.9,4.3c0.6,1.3,1.4,2.5,2.4,3.5s2.2,1.8,3.5,2.4s2.8,0.9,4.3,0.9s2.9-0.3,4.3-0.9c1.3-0.6,2.5-1.4,3.5-2.4
			s1.8-2.2,2.4-3.5s0.9-2.8,0.9-4.3C180.5,231.4,180.2,230,179.6,228.7z"/>
		<path id="XMLID_155_" class="st0" d="M221.2,239.2c-0.8,1.9-2,3.6-3.4,5.1c-1.4,1.4-3.1,2.6-5.1,3.4c-1.9,0.8-4,1.2-6.2,1.2
			s-4.2-0.4-6.2-1.2c-1.9-0.8-3.6-2-5.1-3.4c-1.4-1.4-2.6-3.1-3.4-5.1c-0.8-1.9-1.3-4-1.3-6.2s0.4-4.3,1.3-6.2
			c0.8-1.9,2-3.6,3.4-5.1c1.4-1.4,3.1-2.6,5.1-3.4c1.9-0.8,4-1.3,6.2-1.3s4.3,0.4,6.2,1.3c1.9,0.8,3.6,2,5.1,3.4
			c1.4,1.4,2.6,3.1,3.4,5.1c0.8,1.9,1.3,4,1.3,6.2C222.5,235.2,222.1,237.2,221.2,239.2z M216.7,228.7c-0.6-1.3-1.4-2.5-2.4-3.5
			s-2.2-1.8-3.5-2.4s-2.8-0.9-4.3-0.9s-2.9,0.3-4.3,0.9c-1.3,0.6-2.5,1.4-3.5,2.4s-1.8,2.2-2.4,3.5s-0.9,2.8-0.9,4.3
			s0.3,2.9,0.9,4.3c0.6,1.3,1.4,2.5,2.4,3.5s2.2,1.8,3.5,2.4s2.8,0.9,4.3,0.9s2.9-0.3,4.3-0.9c1.3-0.6,2.5-1.4,3.5-2.4
			s1.8-2.2,2.4-3.5s0.9-2.8,0.9-4.3C217.5,231.4,217.2,230,216.7,228.7z"/>
	</g>
</g>
<g id="XMLID_43_">
	<g>
		<path id="XMLID_150_" class="st0" d="M119.1,157.8c0.2,0.7,0.4,1.2,0.4,1.5c0.1,0.4,0,0.7-0.2,0.9c-0.2,0.2-0.6,0.3-1.1,0.4
			c-0.5,0-1.2,0.1-2.1,0.1c-0.9,0-1.6,0-2.2,0c-0.5,0-0.9-0.1-1.2-0.2s-0.5-0.2-0.6-0.3c-0.1-0.1-0.2-0.3-0.3-0.6l-2.4-7.1H96.2
			l-2.2,6.9c-0.1,0.3-0.2,0.5-0.3,0.6c-0.1,0.2-0.3,0.3-0.6,0.4s-0.6,0.2-1.1,0.2s-1.1,0.1-1.9,0.1c-0.8,0-1.5,0-2-0.1
			s-0.8-0.2-1-0.4c-0.2-0.2-0.2-0.5-0.2-0.9c0.1-0.4,0.2-0.9,0.4-1.5l10.8-31.2c0.1-0.3,0.2-0.6,0.4-0.7c0.1-0.2,0.4-0.3,0.7-0.4
			s0.8-0.2,1.3-0.2c0.6,0,1.3,0,2.2,0c1.1,0,1.9,0,2.6,0c0.6,0,1.1,0.1,1.5,0.2s0.6,0.2,0.8,0.4c0.2,0.2,0.3,0.5,0.4,0.8
			L119.1,157.8z M103,132.1L103,132.1L98,147h10L103,132.1z"/>
		<path id="XMLID_148_" class="st0" d="M150.4,150c0,1.8-0.3,3.5-1,4.9s-1.6,2.6-2.8,3.5c-1.2,0.9-2.6,1.6-4.1,2.1
			c-1.6,0.5-3.3,0.7-5.1,0.7c-1.2,0-2.3-0.1-3.4-0.3c-1-0.2-2-0.4-2.8-0.7c-0.8-0.3-1.5-0.6-2-0.9s-0.9-0.6-1.2-0.8
			c-0.2-0.2-0.4-0.6-0.5-1s-0.1-1.1-0.1-1.9c0-0.6,0-1,0.1-1.4c0-0.4,0.1-0.7,0.2-0.9c0.1-0.2,0.2-0.4,0.3-0.5
			c0.1-0.1,0.3-0.2,0.5-0.2c0.3,0,0.6,0.2,1.1,0.4c0.5,0.3,1.1,0.6,1.8,1c0.7,0.4,1.6,0.7,2.6,1s2.2,0.4,3.5,0.4
			c0.9,0,1.6-0.1,2.3-0.3c0.7-0.2,1.3-0.5,1.8-0.9s0.8-0.9,1.1-1.4c0.3-0.6,0.4-1.2,0.4-1.9c0-0.8-0.2-1.5-0.7-2.1
			c-0.4-0.6-1-1.1-1.7-1.5s-1.5-0.9-2.4-1.2c-0.9-0.4-1.8-0.8-2.7-1.2c-0.9-0.4-1.9-0.9-2.7-1.5c-0.9-0.6-1.7-1.2-2.4-2
			c-0.7-0.8-1.3-1.7-1.7-2.7c-0.4-1.1-0.7-2.3-0.7-3.8c0-1.7,0.3-3.2,0.9-4.4c0.6-1.3,1.5-2.3,2.5-3.2c1.1-0.8,2.3-1.5,3.8-1.9
			c1.4-0.4,3-0.6,4.6-0.6c0.8,0,1.7,0.1,2.5,0.2s1.6,0.3,2.3,0.5c0.7,0.2,1.4,0.5,1.9,0.7c0.6,0.3,0.9,0.5,1.1,0.7s0.3,0.3,0.4,0.5
			c0.1,0.1,0.1,0.3,0.2,0.5c0,0.2,0.1,0.5,0.1,0.8s0,0.7,0,1.2s0,1,0,1.3c0,0.4-0.1,0.7-0.1,0.9c-0.1,0.2-0.2,0.4-0.3,0.5
			c-0.1,0.1-0.3,0.2-0.5,0.2s-0.5-0.1-1-0.4c-0.4-0.3-1-0.5-1.6-0.8s-1.4-0.6-2.2-0.8c-0.8-0.2-1.7-0.4-2.7-0.4
			c-0.8,0-1.5,0.1-2,0.3c-0.6,0.2-1.1,0.5-1.5,0.8s-0.7,0.7-0.9,1.2c-0.2,0.5-0.3,1-0.3,1.5c0,0.8,0.2,1.5,0.6,2
			c0.4,0.6,1,1.1,1.7,1.5s1.5,0.9,2.4,1.3s1.8,0.8,2.8,1.2c0.9,0.4,1.9,0.9,2.8,1.5s1.7,1.2,2.4,2c0.7,0.8,1.3,1.7,1.7,2.7
			C150.2,147.3,150.4,148.5,150.4,150z"/>
		<path id="XMLID_146_" class="st0" d="M182.3,150c0,1.8-0.3,3.5-1,4.9s-1.6,2.6-2.8,3.5c-1.2,0.9-2.6,1.6-4.1,2.1
			c-1.6,0.5-3.3,0.7-5.1,0.7c-1.2,0-2.3-0.1-3.4-0.3c-1-0.2-2-0.4-2.8-0.7c-0.8-0.3-1.5-0.6-2-0.9s-0.9-0.6-1.2-0.8
			c-0.2-0.2-0.4-0.6-0.5-1s-0.1-1.1-0.1-1.9c0-0.6,0-1,0.1-1.4c0-0.4,0.1-0.7,0.2-0.9c0.1-0.2,0.2-0.4,0.3-0.5
			c0.1-0.1,0.3-0.2,0.5-0.2c0.3,0,0.6,0.2,1.1,0.4c0.5,0.3,1.1,0.6,1.8,1c0.7,0.4,1.6,0.7,2.6,1s2.2,0.4,3.5,0.4
			c0.9,0,1.6-0.1,2.3-0.3c0.7-0.2,1.3-0.5,1.8-0.9s0.8-0.9,1.1-1.4c0.3-0.6,0.4-1.2,0.4-1.9c0-0.8-0.2-1.5-0.7-2.1
			c-0.4-0.6-1-1.1-1.7-1.5s-1.5-0.9-2.4-1.2c-0.9-0.4-1.8-0.8-2.7-1.2c-0.9-0.4-1.9-0.9-2.7-1.5c-0.9-0.6-1.7-1.2-2.4-2
			c-0.7-0.8-1.3-1.7-1.7-2.7c-0.4-1.1-0.7-2.3-0.7-3.8c0-1.7,0.3-3.2,0.9-4.4c0.6-1.3,1.5-2.3,2.5-3.2c1.1-0.8,2.3-1.5,3.8-1.9
			c1.4-0.4,3-0.6,4.6-0.6c0.8,0,1.7,0.1,2.5,0.2s1.6,0.3,2.3,0.5c0.7,0.2,1.4,0.5,1.9,0.7c0.6,0.3,0.9,0.5,1.1,0.7s0.3,0.3,0.4,0.5
			c0.1,0.1,0.1,0.3,0.2,0.5c0,0.2,0.1,0.5,0.1,0.8s0,0.7,0,1.2s0,1,0,1.3c0,0.4-0.1,0.7-0.1,0.9c-0.1,0.2-0.2,0.4-0.3,0.5
			c-0.1,0.1-0.3,0.2-0.5,0.2s-0.5-0.1-1-0.4c-0.4-0.3-1-0.5-1.6-0.8s-1.4-0.6-2.2-0.8c-0.8-0.2-1.7-0.4-2.7-0.4
			c-0.8,0-1.5,0.1-2,0.3c-0.6,0.2-1.1,0.5-1.5,0.8s-0.7,0.7-0.9,1.2c-0.2,0.5-0.3,1-0.3,1.5c0,0.8,0.2,1.5,0.6,2
			c0.4,0.6,1,1.1,1.7,1.5s1.5,0.9,2.4,1.3s1.8,0.8,2.8,1.2c0.9,0.4,1.9,0.9,2.8,1.5s1.7,1.2,2.4,2c0.7,0.8,1.3,1.7,1.7,2.7
			C182.1,147.3,182.3,148.5,182.3,150z"/>
		<path id="XMLID_144_" class="st0" d="M222,147.4c0,2.2-0.3,4.1-1,5.8c-0.6,1.7-1.6,3.1-2.8,4.3c-1.2,1.2-2.8,2.1-4.6,2.7
			c-1.8,0.6-3.9,0.9-6.3,0.9c-2.2,0-4.2-0.3-6-0.8c-1.8-0.6-3.2-1.4-4.5-2.5c-1.2-1.1-2.1-2.5-2.8-4.2c-0.6-1.7-1-3.6-1-5.9v-21.4
			c0-0.2,0.1-0.3,0.2-0.5c0.1-0.1,0.3-0.3,0.6-0.4c0.3-0.1,0.6-0.2,1.1-0.2c0.5-0.1,1-0.1,1.7-0.1s1.3,0,1.7,0.1
			c0.5,0.1,0.8,0.1,1.1,0.2c0.3,0.1,0.5,0.2,0.6,0.4c0.1,0.1,0.2,0.3,0.2,0.5v20.8c0,1.4,0.2,2.6,0.5,3.6s0.8,1.9,1.5,2.5
			c0.6,0.7,1.4,1.2,2.3,1.5s1.9,0.5,3,0.5s2.1-0.2,3-0.5s1.6-0.8,2.3-1.5c0.6-0.7,1.1-1.5,1.4-2.4c0.3-1,0.5-2.1,0.5-3.3v-21.2
			c0-0.2,0.1-0.3,0.2-0.5c0.1-0.1,0.3-0.3,0.6-0.4c0.3-0.1,0.6-0.2,1.1-0.2c0.5-0.1,1-0.1,1.7-0.1s1.3,0,1.7,0.1
			c0.4,0.1,0.8,0.1,1.1,0.2s0.5,0.2,0.6,0.4c0.1,0.1,0.2,0.3,0.2,0.5L222,147.4L222,147.4z"/>
	</g>
</g>
</svg>
