<?xml version="1.0" encoding="utf-8"?>
<!-- Generator: Adobe Illustrator 22.1.0, SVG Export Plug-In . SVG Version: 6.00 Build 0)  -->
<svg version="1.1" id="Capa_1" xmlns="http://www.w3.org/2000/svg" xmlns:xlink="http://www.w3.org/1999/xlink" x="0px" y="0px"
	 viewBox="0 0 512 512" style="enable-background:new 0 0 512 512;" xml:space="preserve">
<style type="text/css">
	.st0{fill:#FFFFFF;}
</style>
<g>
	<path class="st0" d="M256.4,274.7L256.4,274.7c2.2,0,4.3-0.6,5.9-1.7l0.5-0.3c0.1-0.1,0.2-0.1,0.3-0.2l5.3-4.4L395.7,163
		c-0.3-0.4-0.7-0.6-1.2-0.6h-277c-0.3,0-0.7,0.1-0.9,0.3l133.2,109.8C251.4,273.9,253.8,274.7,256.4,274.7z M116,177.3V333
		l95.4-77.1L116,177.3z M300.7,256.4L396,333V177.8L300.7,256.4z M270.4,281.4c-3.8,3.1-8.8,4.8-14,4.8c-5.2,0-10.2-1.7-14-4.8
		l-21.9-18L116,347.9v0.3c0,0.8,0.7,1.5,1.5,1.5h277c0.8,0,1.5-0.7,1.5-1.5v-0.2L291.5,264L270.4,281.4z"/>
</g>
<path class="st0" d="M512,257C512,115.6,397.4,1,256,1C114.6,1,0,115.6,0,257c0,141.4,114.6,256,256,256
	C397.4,513,512,398.4,512,257z M23.3,257C23.3,128.5,127.5,24.3,256,24.3S488.7,128.5,488.7,257S384.5,489.7,256,489.7
	S23.3,385.5,23.3,257z"/>
</svg>
