<svg id="infographie" xmlns="http://www.w3.org/2000/svg" viewBox="0 0 30.52 44.04"><defs><style>.cls-1{fill:#fff;}.cls-2{fill:#e84e1b;}</style></defs><title>puce_trouvez-lagence</title><path class="cls-1" d="M795.95,1175.16a3.68,3.68,0,0,1-2.95-1.45,96.44,96.44,0,0,1-9.84-17.38c-2.4-6.22-2.51-11.34-.33-15.24,2.92-5.23,9.25-6.92,11.83-7.4a6.71,6.71,0,0,1,1.23-.12,7.35,7.35,0,0,1,1.4.12c2.58,0.49,8.89,2.19,11.79,7.41,2.17,3.9,2.06,9-.33,15.21a96.6,96.6,0,0,1-9.85,17.4A3.68,3.68,0,0,1,795.95,1175.16Z" transform="translate(-780.69 -1131.61)"/><path class="cls-1" d="M796,1134.07a6.6,6.6,0,0,1,1.22.11c2.51,0.47,8.65,2.12,11.45,7.16,2.09,3.76,2,8.74-.38,14.83a95.83,95.83,0,0,1-9.77,17.23,3.22,3.22,0,0,1-5.1,0,95.61,95.61,0,0,1-9.78-17.28c-2.34-6.05-2.46-11-.36-14.79,2.81-5,9-6.69,11.49-7.16a6.2,6.2,0,0,1,1.14-.11H796m0-1h-0.09a7.16,7.16,0,0,0-1.32.12c-4.64.87-18.91,5.07-11.88,23.29A96,96,0,0,0,792.6,1174a4.22,4.22,0,0,0,6.69,0,96,96,0,0,0,9.92-17.52c7-18.17-7.15-22.4-11.84-23.28a7.56,7.56,0,0,0-1.41-.13h0Z" transform="translate(-780.69 -1131.61)"/><path class="cls-1" d="M795.95,1161.63a14.76,14.76,0,1,1,14.76-14.76A14.78,14.78,0,0,1,795.95,1161.63Z" transform="translate(-780.69 -1131.61)"/><path class="cls-1" d="M795.95,1132.61a14.26,14.26,0,1,1-14.26,14.26,14.28,14.28,0,0,1,14.26-14.26m0-1a15.26,15.26,0,1,0,15.26,15.26,15.26,15.26,0,0,0-15.26-15.26h0Z" transform="translate(-780.69 -1131.61)"/><path class="cls-2" d="M795.95,1159.21a11.79,11.79,0,1,1,11.79-11.79A11.81,11.81,0,0,1,795.95,1159.21Z" transform="translate(-780.69 -1131.61)"/><path class="cls-1" d="M795.95,1136.12a11.29,11.29,0,1,1-11.29,11.29,11.31,11.31,0,0,1,11.29-11.29m0-1a12.29,12.29,0,1,0,12.29,12.29,12.29,12.29,0,0,0-12.29-12.29h0Z" transform="translate(-780.69 -1131.61)"/><circle class="cls-1" cx="15.26" cy="15.81" r="6.52"/><path class="cls-1" d="M795.95,1141.39a6,6,0,1,1-6,6,6,6,0,0,1,6-6m0-1a7,7,0,1,0,7,7,7,7,0,0,0-7-7h0Z" transform="translate(-780.69 -1131.61)"/></svg>