<?xml version="1.0" encoding="utf-8"?>
<!-- Generator: Adobe Illustrator 19.0.0, SVG Export Plug-In . SVG Version: 6.00 Build 0)  -->
<!DOCTYPE svg PUBLIC "-//W3C//DTD SVG 1.1//EN" "http://www.w3.org/Graphics/SVG/1.1/DTD/svg11.dtd">
<svg version="1.1" id="Calque_1" xmlns="http://www.w3.org/2000/svg" xmlns:xlink="http://www.w3.org/1999/xlink" x="0px" y="0px"
	 viewBox="499 609.8 31 32.5" enable-background="new 499 609.8 31 32.5" xml:space="preserve">
<g>
	<path fill="#282828" d="M505,612.7c-2.2,0-4,1.8-4,4c0,2.2,1.8,4,4,4s4-1.8,4-4C509,614.5,507.2,612.7,505,612.7z"/>
	<path fill="#282828" d="M524.5,612.7c-2.2,0-4,1.8-4,4c0,2.2,1.8,4,4,4c2.2,0,4-1.8,4-4C528.4,614.5,526.7,612.7,524.5,612.7z"/>
	<path fill="#282828" d="M514.7,612.7c-2.2,0-4,1.8-4,4c0,2.2,1.8,4,4,4c2.2,0,4-1.8,4-4C518.7,614.5,516.9,612.7,514.7,612.7z"/>
	<path fill="#282828" d="M505,632.2c-2.2,0-4,1.8-4,4c0,2.2,1.8,4,4,4s4-1.8,4-4C509,634,507.2,632.2,505,632.2z"/>
	<path fill="#282828" d="M524.5,632.2c-2.2,0-4,1.8-4,4c0,2.2,1.8,4,4,4c2.2,0,4-1.8,4-4C528.4,634,526.7,632.2,524.5,632.2z"/>
	<path fill="#282828" d="M514.7,632.2c-2.2,0-4,1.8-4,4c0,2.2,1.8,4,4,4c2.2,0,4-1.8,4-4C518.7,634,516.9,632.2,514.7,632.2z"/>
	<path fill="#282828" d="M505,622.5c-2.2,0-4,1.8-4,4s1.8,4,4,4s4-1.8,4-4C509,624.3,507.2,622.5,505,622.5z"/>
	<path fill="#282828" d="M524.5,622.5c-2.2,0-4,1.8-4,4s1.8,4,4,4c2.2,0,4-1.8,4-4C528.4,624.3,526.7,622.5,524.5,622.5z"/>
	<path fill="#282828" d="M514.7,622.5c-2.2,0-4,1.8-4,4s1.8,4,4,4c2.2,0,4-1.8,4-4C518.7,624.3,516.9,622.5,514.7,622.5z"/>
</g>
</svg>
