<svg xmlns="http://www.w3.org/2000/svg" width="56.788" height="56.789" viewBox="0 0 56.788 56.789">
  <g id="garantie_co_voiturage" data-name="garantie co voiturage" transform="translate(-190.545 -14.857)">
    <path id="Tracé_152" data-name="Tracé 152" d="M246.683,61.121l-1.929-.963-1.673-5.014a3.546,3.546,0,0,0-3.367-2.428h-6.055a3.541,3.541,0,0,0-3.367,2.43l-1.673,5.014-1.928.963a1.185,1.185,0,0,0-.653,1.058V65.73a3.546,3.546,0,0,0,2.366,3.332v1.4a1.183,1.183,0,1,0,2.366,0V69.28H242.6v1.183a1.183,1.183,0,1,0,2.366,0v-1.4a3.546,3.546,0,0,0,2.366-3.332V62.181A1.193,1.193,0,0,0,246.683,61.121Zm-14.15-5.227a1.187,1.187,0,0,1,1.124-.812h6.055a1.185,1.185,0,0,1,1.124.814l1.307,3.919H231.225Z" fill="#63b343"/>
    <path id="Tracé_153" data-name="Tracé 153" d="M229.36,49.848a1.18,1.18,0,0,0-.225-1.656,10.117,10.117,0,0,0-3.679-1.767L218.937,44.8l-.483-1.931a12.384,12.384,0,0,0,3.317-6.573,2.94,2.94,0,0,0,1.926-2.4l.438-3.5a2.921,2.921,0,0,0-1.661-3.014l.147-2.961.575-.575c1.062-1.131,1.945-3.057.128-5.83-1.373-2.1-3.687-3.159-6.884-3.159a11.851,11.851,0,0,0-6.724,1.754c-7.681.191-8.677,3.991-8.677,7.3,0,.755.163,2.331.289,3.417a2.917,2.917,0,0,0-1.785,3.069l.441,3.5a2.938,2.938,0,0,0,2.136,2.464,12.465,12.465,0,0,0,3.147,6.348l-.523,2.092-6.519,1.628a10.117,10.117,0,0,0-7.68,9.836,1.183,1.183,0,0,0,2.366,0A7.76,7.76,0,0,1,198.8,48.72l7.208-1.8a1.181,1.181,0,0,0,.861-.862l.856-3.428a1.184,1.184,0,0,0-.338-1.148,9.951,9.951,0,0,1-3.031-6.3,1.185,1.185,0,0,0-1.181-1.089h-.284a.567.567,0,0,1-.561-.5l-.437-3.5a.549.549,0,0,1,.137-.442c.064-.071.2-.192.606-.192a1.186,1.186,0,0,0,1.176-1.332c-.112-.89-.4-3.386-.4-4.226,0-2.17,0-4.872,6.7-4.938a1.185,1.185,0,0,0,.676-.22,9.377,9.377,0,0,1,5.66-1.527c2.348,0,4,.7,4.9,2.087,1.039,1.583.646,2.36.154,2.887l-.874.873a1.182,1.182,0,0,0-.345.779l-.213,4.377a1.179,1.179,0,0,0,1.164,1.24.564.564,0,0,1,.426.2.545.545,0,0,1,.135.435l-.438,3.5a.594.594,0,0,1-.646.5,1.184,1.184,0,0,0-1.18,1.091,9.875,9.875,0,0,1-3.176,6.42,1.178,1.178,0,0,0-.357,1.166l.821,3.287a1.186,1.186,0,0,0,.861.861l7.208,1.8a7.7,7.7,0,0,1,2.82,1.351A1.182,1.182,0,0,0,229.36,49.848Z" fill="#025092"/>
    <path id="Tracé_154" data-name="Tracé 154" d="M226.982,17.739a11.234,11.234,0,0,1,3.656-.516c2.347,0,4,.7,4.9,2.087,1.038,1.583.646,2.36.153,2.887l-.873.873a1.182,1.182,0,0,0-.345.779l-.213,4.377a1.179,1.179,0,0,0,1.164,1.24.57.57,0,0,1,.426.2.553.553,0,0,1,.132.435l-.437,3.5a.6.6,0,0,1-.646.5,1.185,1.185,0,0,0-1.181,1.091,9.873,9.873,0,0,1-3.175,6.42,1.178,1.178,0,0,0-.358,1.166l.821,3.287a1.188,1.188,0,0,0,.862.861l7.207,1.8a7.674,7.674,0,0,1,2.866,1.389,1.184,1.184,0,0,0,.724.246,1.183,1.183,0,0,0,.724-2.118,10.057,10.057,0,0,0-3.741-1.814L233.134,44.8l-.483-1.931a12.392,12.392,0,0,0,3.318-6.573,2.943,2.943,0,0,0,1.926-2.4l.437-3.5a2.921,2.921,0,0,0-1.661-3.014l.147-2.961.575-.575c1.062-1.131,1.945-3.057.128-5.83-1.373-2.1-3.687-3.159-6.883-3.159a13.449,13.449,0,0,0-4.416.642,1.183,1.183,0,1,0,.76,2.24Z" fill="#025092"/>
    <circle id="Ellipse_1" data-name="Ellipse 1" cx="1.722" cy="1.722" r="1.722" transform="translate(230.922 62.833)" fill="#fff"/>
    <circle id="Ellipse_2" data-name="Ellipse 2" cx="1.722" cy="1.722" r="1.722" transform="translate(238.911 62.833)" fill="#fff"/>
  </g>
</svg>
