<?xml version="1.0" encoding="UTF-8"?>
<svg xmlns="http://www.w3.org/2000/svg" xmlns:xlink="http://www.w3.org/1999/xlink" version="1.2" >
<font id="Asap Bold Italic">
<font-face  font-family="Asap" units-per-em="1000" ascent="934" descent="-212" font-style="italic" font-weight="700" font-stretch="normal" slope="-6" cap-height="700" x-height="523" underline-position="-58" underline-thickness="70" />
<missing-glyph  horiz-adv-x="1000" d="" />
<glyph glyph-name="space" unicode="&#x20;" horiz-adv-x="240" d="" />
<glyph glyph-name="exclam" unicode="&#x21;" horiz-adv-x="294" d="M142 222 L131 222 Q101 222 92 229 Q83 236 83 254 L127 670 Q130 702 190 702 L233 702 Q291 702 291 673 Q291 653 196 254 Q192 237 181.5 229.5 Q171 222 142 222 Z M113 154 L145 154 Q202 154 202 122 L192 30 Q189 -2 129 -2 L97 -2 Q40 -2 40 30 L50 122 Q53 154 113 154 Z " />
<glyph glyph-name="quotedbl" unicode="&#x22;" horiz-adv-x="319" d="M177 494 L177 670 Q177 702 240 702 L247 702 Q304 702 304 670 L263 494 Q256 464 226 464 L211 464 Q177 464 177 494 Z M31 494 L31 670 Q31 702 94 702 L101 702 Q158 702 158 670 L117 494 Q110 464 80 464 L65 464 Q31 464 31 494 Z " />
<glyph glyph-name="numbersign" unicode="&#x23;" horiz-adv-x="534" d="M21 183 Q-4 183 -4 216 Q-4 293 32 293 L95 293 L128 403 L80 403 Q54 403 54 437 Q54 513 91 513 L159 513 L200 655 Q209 686 260 686 L273 686 Q315 686 315 664 Q315 658 272 513 L366 513 L407 655 Q416 686 467 686 L480 686 Q522 686 522 664 Q522 658 479 513 L512 513 Q538 513 538 479 Q538 403 501 403 L448 403 L415 293 L457 293 Q483 293 483 259 Q483 183 446 183 L384 183 L339 29 Q330 -2 280 -2 L267 -2 Q225 -2 225 21 Q225 28 271 183 L177 183 L132 29 Q123 -2 73 -2 L60 -2 Q17 -2 17 21 Q17 26 64 183 L21 183 Z M208 293 L302 293 L335 403 L241 403 L208 293 Z " />
<glyph glyph-name="dollar" unicode="&#x24;" horiz-adv-x="496" d="M480 640 Q480 619 456.5 585 Q433 551 416 551 Q415 551 383 563 Q351 575 314 576 L298 420 Q401 373 430 336 Q466 291 466 233 Q466 118 404.5 61 Q343 4 253 -6 L248 -55 Q245 -75 226 -75 L209 -75 Q198 -75 194.5 -70.5 Q191 -66 191 -55 L196 -7 Q132 -4 78 15 Q24 34 24 70 Q24 181 50 181 Q55 181 76 166 Q137 123 204 123 L209 123 L227 289 Q132 328 106 354 Q65 393 56 423.5 Q47 454 47 483 Q47 587 111 642 Q175 697 271 706 L275 745 Q276 765 297 765 L314 765 Q332 765 332 745 L328 707 Q394 704 437 684 Q480 664 480 640 Z M196 510 Q196 474 243 447 L256 571 Q196 557 196 510 Z M317 203 Q317 234 281 260 L267 133 Q317 151 317 203 Z " />
<glyph glyph-name="percent" unicode="&#x25;" horiz-adv-x="765" d="M197 372 Q62 372 62 508 Q62 567 78 609 Q94 651 121 671 Q171 708 232 708 Q366 708 366 573 Q366 454 308 410 Q259 372 197 372 Z M595 702 L639 702 Q659 702 659 690 Q659 684 653 675 L227 25 Q210 -2 181 -2 L137 -2 Q117 -2 117 10 Q117 16 123 25 L549 675 Q566 702 595 702 Z M205 454 Q236 454 249.5 489.5 Q263 525 263 565 Q263 622 223 622 Q192 622 178.5 590 Q165 558 165 517 Q165 454 205 454 Z M544 -8 Q410 -8 410 127 Q410 246 468 290 Q516 328 579 328 Q714 328 714 191 Q714 132 698 90.5 Q682 49 655 29 Q605 -8 544 -8 Z M552 74 Q582 74 596 108.5 Q610 143 610 182 Q610 242 570 242 Q548 242 534 223 Q512 191 512 132.5 Q512 74 552 74 Z " />
<glyph glyph-name="ampersand" unicode="&#x26;" horiz-adv-x="624" d="M302 591 Q260 591 235.5 566 Q211 541 211 503 Q211 465 236 445.5 Q261 426 306 426 L400 426 L409 501 Q412 533 472 533 L499 533 Q527 533 541.5 524 Q556 515 556 502 L548 426 L607 426 Q617 426 620 421.5 Q623 417 623 395 Q623 373 607.5 341 Q592 309 565 309 L536 309 Q519 145 519 142 Q519 109 549 109 Q560 109 573 112 Q586 115 587 115 Q595 115 595 100 Q595 85 588 44 Q584 19 557 5.5 Q530 -8 500 -8 Q430 -8 397 32 Q311 -8 214 -8 Q117 -8 61.5 41 Q6 90 6 169.5 Q6 249 41 304 Q76 359 142 383 L142 387 Q106 403 85 435.5 Q64 468 64 512 Q64 601 126 654.5 Q188 708 291 708 Q394 708 394 669 Q394 636 378 610 Q362 584 350 584 L333 588 Q316 591 302 591 Z M156 193 Q156 109 255 109 Q306 109 370 135 L388 309 L285 309 Q156 309 156 193 Z " />
<glyph glyph-name="quotesingle" unicode="&#x27;" horiz-adv-x="183" d="M41 494 L41 670 Q41 702 104 702 L111 702 Q168 702 168 670 L127 494 Q120 464 90 464 L75 464 Q41 464 41 494 Z " />
<glyph glyph-name="parenleft" unicode="&#x28;" horiz-adv-x="301" d="M46 200 Q46 350 99 497 Q152 644 251 767 Q264 783 279.5 783 Q295 783 313.5 769 Q332 755 332 742 Q332 729 325 717 Q162 463 162 190 Q162 31 233 -142 Q236 -150 236 -156 Q236 -174 215 -191 Q194 -208 176.5 -208 Q159 -208 149 -192 Q46 -19 46 200 Z " />
<glyph glyph-name="parenright" unicode="&#x29;" horiz-adv-x="301" d="M46 -192 Q33 -208 17.5 -208 Q2 -208 -16 -194 Q-34 -180 -34 -167 Q-34 -154 -27 -143 Q58 -6 96 119.5 Q134 245 134 396 Q134 547 63 717 Q59 727 59 731 Q59 749 80.5 766 Q102 783 119.5 783 Q137 783 147 767 Q251 591 251 378 Q251 62 46 -192 Z " />
<glyph glyph-name="asterisk" unicode="&#x2a;" horiz-adv-x="373" d="M67 623 Q71 623 81 621 L155 596 L164 678 Q167 708 197 708 Q213 708 218.5 701 Q224 694 224 678 L215 596 L293 621 Q303 623 309.5 623 Q316 623 323.5 614.5 Q331 606 331 588 Q331 570 307 563 L228 539 L277 460 Q283 451 283 442.5 Q283 434 271 422.5 Q259 411 246.5 411 Q234 411 225 426 L175 509 L107 426 Q95 411 84 411 Q73 411 62.5 420.5 Q52 430 52 439.5 Q52 449 63 460 L127 539 L55 563 Q36 569 36 585 Q36 594 40 602 Q50 623 67 623 Z " />
<glyph glyph-name="plus" unicode="&#x2b;" horiz-adv-x="560" d="M39 216 Q39 289 76 289 L227 289 L243 443 Q246 473 296 473 L310 473 Q337 473 347 466 Q357 459 357 443 L341 289 L494 289 Q520 289 520 253 Q520 182 483 182 L330 182 L314 30 Q311 0 261 0 L247 0 Q220 0 210 7 Q200 14 200 30 L216 182 L65 182 Q39 182 39 216 Z " />
<glyph glyph-name="comma" unicode="&#x2c;" horiz-adv-x="198" d="M109 154 L128 154 Q184 154 184 114 Q184 74 153 16 Q122 -42 83 -83.5 Q44 -125 21 -125 Q-21 -125 -21 -105 Q-21 -94 -8 -70 Q33 8 45 110 Q48 154 109 154 Z " />
<glyph glyph-name="hyphen" unicode="&#x2d;" horiz-adv-x="320" d="M26 246 Q26 319 63 319 L267 319 Q293 319 293 285 Q293 212 256 212 L52 212 Q26 212 26 246 Z " />
<glyph glyph-name="period" unicode="&#x2e;" horiz-adv-x="198" d="M90 154 L122 154 Q178 154 178 122 L169 30 Q166 -2 105 -2 L73 -2 Q40 -2 28.5 5.5 Q17 13 17 30 L26 122 Q29 154 90 154 Z " />
<glyph glyph-name="slash" unicode="&#x2f;" horiz-adv-x="370" d="M367 702 L391 702 Q431 702 431 687 Q431 682 426 672 L60 -49 Q45 -79 -4 -79 L-28 -79 Q-69 -79 -69 -64 Q-69 -60 -63 -49 L302 672 Q317 702 367 702 Z " />
<glyph glyph-name="zero" unicode="0" horiz-adv-x="535" d="M229 -8 Q132 -8 78.5 65 Q25 138 25 271 Q25 472 103 590 Q181 708 304 708 Q401 708 454.5 634 Q508 560 508 426 Q508 227 429.5 109.5 Q351 -8 229 -8 Z M241 109 Q289 109 324 197.5 Q359 286 359 438.5 Q359 591 292 591 Q243 591 208.5 502 Q174 413 174 261 Q174 109 241 109 Z " />
<glyph glyph-name="one" unicode="1" horiz-adv-x="535" d="M446 0 L58 0 Q32 0 32 36 Q32 117 70 117 L203 117 L250 566 L112 546 Q88 546 88 605 Q88 636 96 646 Q104 656 118 658 L371 704 Q384 704 397 696.5 Q410 689 410 680 L351 117 L458 117 Q484 117 484 81 Q484 0 446 0 Z " />
<glyph glyph-name="two" unicode="2" horiz-adv-x="535" d="M434 117 Q460 117 460 81 Q460 0 421 0 L34 0 Q23 0 14.5 29.5 Q6 59 6 78 Q6 97 9 103 L295 413 Q343 465 343 518 Q343 553 320 571.5 Q297 590 256.5 590 Q216 590 178 568.5 Q140 547 137 547 Q117 547 102 568.5 Q87 590 87 616 Q87 642 122 666 Q185 708 283 708 Q381 708 437.5 658.5 Q494 609 494 535.5 Q494 462 442 391.5 Q390 321 196 117 L434 117 Z " />
<glyph glyph-name="three" unicode="3" horiz-adv-x="535" d="M60 22 Q41 35 41 55 Q41 149 65 149 Q68 149 86 139 Q140 109 197 109 Q254 109 284 139.5 Q314 170 314 224 Q314 309 207 309 L178 309 Q152 309 152 345 Q152 426 191 426 L210 426 Q263 426 293 452.5 Q323 479 323 516 Q323 590 250 590 Q205 590 167.5 574.5 Q130 559 128 559 Q114 559 100 584.5 Q86 610 86 632 Q86 669 146 688.5 Q206 708 291 708 Q376 708 426 666.5 Q476 625 476 560.5 Q476 496 446 451.5 Q416 407 366 387 L366 383 Q464 344 464 233 Q464 122 393.5 57 Q323 -8 212.5 -8 Q102 -8 60 22 Z " />
<glyph glyph-name="four" unicode="4" horiz-adv-x="535" d="M474 142 L436 142 L424 30 Q421 -2 361 -2 L333 -2 Q276 -2 276 30 L288 142 L26 142 Q15 142 7 172 Q-1 202 -1 222.5 Q-1 243 2 246 L344 683 Q359 702 407 702 L434 702 Q491 702 491 670 L448 259 L487 259 Q513 259 513 223 Q513 142 474 142 Z M150 259 L300 259 L324 488 L320 489 L150 259 Z " />
<glyph glyph-name="five" unicode="5" horiz-adv-x="535" d="M80.5 139 Q98 129 131.5 119 Q165 109 214 109 Q263 109 294.5 142 Q326 175 326 233 Q326 323 212 323 L103 323 Q84 323 76.5 329 Q69 335 69 346 Q69 357 120 660 Q124 681 134.5 690.5 Q145 700 167 700 L462 700 Q488 700 488 664 Q488 583 449 583 L247 583 L222 440 L248 440 Q360 440 419 398 Q478 356 478 255 Q478 183 453 130 Q428 77 386 48 Q303 -8 196 -8 Q35 -8 35 55 Q35 149 59 149 Q63 149 80.5 139 Z " />
<glyph glyph-name="six" unicode="6" horiz-adv-x="535" d="M429 389 Q457 369 474.5 332 Q492 295 492 237.5 Q492 180 468 129 Q444 78 405 50 Q326 -8 234.5 -8 Q143 -8 81.5 45 Q20 98 20 207.5 Q20 317 59 407.5 Q98 498 152 550.5 Q206 603 267 640 Q328 677 368.5 690.5 Q409 704 427 704 Q445 704 455 678 Q465 652 465 632.5 Q465 613 462 607.5 Q459 602 450 600 Q328 563 255 473 Q228 440 212 403 Q261 428 317.5 428 Q374 428 429 389 Z M341 222.5 Q341 268 320 289.5 Q299 311 261.5 311 Q224 311 178 287 Q170 235 170 209 Q170 109 244 109 Q284 109 312.5 143 Q341 177 341 222.5 Z " />
<glyph glyph-name="seven" unicode="7" horiz-adv-x="535" d="M92 583 Q65 583 65 619 Q65 700 104 700 L500 700 Q507 700 514 672.5 Q521 645 521 624.5 Q521 604 518 597 L199 18 Q188 -2 139 -2 L97 -2 Q41 -2 41 17 Q41 25 48 36 L353 583 L92 583 Z " />
<glyph glyph-name="eight" unicode="8" horiz-adv-x="535" d="M233 -8 Q121 -8 66 43 Q11 94 11 166.5 Q11 239 42.5 295.5 Q74 352 132 375 Q72 418 72 500 Q72 582 135.5 645 Q199 708 313 708 Q402 708 452.5 663.5 Q503 619 503 552 Q503 438 399 385 Q491 342 491 226 Q491 144 436 73 Q408 37 355.5 14.5 Q303 -8 233 -8 Z M357 532 Q357 559 339.5 575 Q322 591 293.5 591 Q265 591 242 570.5 Q219 550 219 516.5 Q219 483 238 465 Q257 447 293 432 Q357 471 357 532 Z M162 193 Q162 154 183.5 131.5 Q205 109 242.5 109 Q280 109 310 138 Q340 167 340 211.5 Q340 256 315 279 Q290 302 230 326 Q162 281 162 193 Z " />
<glyph glyph-name="nine" unicode="9" horiz-adv-x="535" d="M103 311 Q75 331 57.5 368 Q40 405 40 462.5 Q40 520 64 571 Q88 622 127 650 Q206 708 297.5 708 Q389 708 450.5 655 Q512 602 512 492.5 Q512 383 473 292.5 Q434 202 380 149.5 Q326 97 265 60 Q204 23 163.5 9.5 Q123 -4 105 -4 Q87 -4 77 22 Q67 48 67 67.5 Q67 87 70 92.5 Q73 98 82 100 Q204 137 277 227 Q304 260 320 297 Q271 272 214.5 272 Q158 272 103 311 Z M191 477.5 Q191 432 212 410.5 Q233 389 270.5 389 Q308 389 354 413 Q362 465 362 491 Q362 591 288 591 Q248 591 219.5 557 Q191 523 191 477.5 Z " />
<glyph glyph-name="colon" unicode="&#x3a;" horiz-adv-x="198" d="M109 525 L141 525 Q198 525 198 493 L188 401 Q185 369 125 369 L93 369 Q36 369 36 401 L46 493 Q49 525 109 525 Z M70 154 L102 154 Q159 154 159 122 L149 30 Q146 -2 86 -2 L54 -2 Q-2 -2 -2 30 L7 122 Q10 154 70 154 Z " />
<glyph glyph-name="semicolon" unicode="&#x3b;" horiz-adv-x="198" d="M115 525 L147 525 Q204 525 204 493 L194 401 Q191 369 131 369 L99 369 Q42 369 42 401 L52 493 Q54 525 115 525 Z M89 154 L108 154 Q164 154 164 114 Q164 74 133 16 Q102 -42 63 -83.5 Q24 -125 1 -125 Q-41 -125 -41 -105 Q-41 -94 -28 -70 Q13 8 25 110 Q28 154 89 154 Z " />
<glyph glyph-name="less" unicode="&#x3c;" horiz-adv-x="560" d="M36 227 Q36 283 71 297 L509 476 Q517 478 520 478 Q536 478 536 453 Q536 376 497 361 L193 245 L473 129 Q498 118 498 82 Q498 11 471 11 Q467 11 461 14 L60 194 Q36 204 36 227 Z " />
<glyph glyph-name="equal" unicode="&#x3d;" horiz-adv-x="560" d="M47 301 Q47 374 84 374 L504 374 Q530 374 530 340 Q530 267 493 267 L73 267 Q47 267 47 301 Z M28 120 Q28 193 65 193 L485 193 Q511 193 511 159 Q511 86 474 86 L54 86 Q28 86 28 120 Z " />
<glyph glyph-name="greater" unicode="&#x3e;" horiz-adv-x="560" d="M517 263 Q517 207 482 193 L44 14 Q36 12 33 12 Q17 12 17 37 Q17 114 56 129 L360 245 L80 361 Q55 371 55 408 Q55 479 82 479 Q86 479 92 476 L493 296 Q517 285 517 263 Z " />
<glyph glyph-name="question" unicode="&#x3f;" horiz-adv-x="445" d="M184 222 L161 222 Q134 222 124.5 228.5 Q115 235 115 260.5 Q115 286 134 320.5 Q153 355 179.5 381.5 Q206 408 233 432 Q298 491 298 528 Q298 576 230 576 Q196 576 156 560.5 Q116 545 115 545 Q96 545 78 575 Q60 605 60 629 Q60 653 94 673 Q155 708 253 708 Q351 708 403.5 666.5 Q456 625 456 552 Q456 504 436.5 465 Q417 426 388 399.5 Q359 373 329 350 Q253 294 240 249 Q233 233 221 227.5 Q209 222 184 222 Z M149 154 L181 154 Q237 154 237 122 L228 30 Q225 -2 164 -2 L132 -2 Q99 -2 87.5 5.5 Q76 13 76 30 L85 122 Q88 154 149 154 Z " />
<glyph glyph-name="at" unicode="&#x40;" horiz-adv-x="974" d="M670 477 L639 177 Q639 141 674 141 Q726 141 764.5 213 Q803 285 803 383 Q803 505 729 579.5 Q655 654 534 654 Q372 654 260 534 Q148 414 148 240 Q148 102 220.5 16.5 Q293 -69 410 -69 Q488 -69 538 -46 Q556 -38 560.5 -38 Q565 -38 565 -49.5 Q565 -61 562 -76 Q557 -102 506 -112.5 Q455 -123 410 -123 Q265 -123 174.5 -22.5 Q84 78 84 240 Q84 437 214 572.5 Q344 708 534 708 Q685 708 776 619 Q867 530 867 388.5 Q867 247 799.5 152.5 Q732 58 638.5 58 Q545 58 520 122 Q482 58 407 58 Q345 58 308.5 105 Q272 152 272 239 Q272 359 323.5 433.5 Q375 508 457 508 Q514 508 559 463 Q565 486 575 494.5 Q585 503 611 503 L623 503 Q670 503 670 477 Z M454 159 Q488 159 519 207 L532 338 L540 387 Q515 410 486 410 Q444 410 420.5 368 Q397 326 397 242.5 Q397 159 454 159 Z " />
<glyph glyph-name="A" unicode="A" horiz-adv-x="613" d="M319 702 L371 702 Q421 702 426 681 L584 38 Q587 29 587 21 Q587 -2 533 -2 L489 -2 Q440 -2 435 19 L406 141 L164 141 L109 19 Q99 -2 61 -2 L21 -2 Q-37 -2 -37 18 Q-37 26 -31 38 L260 681 Q269 702 319 702 Z M301 451 L221 273 L375 273 L335 451 L327 515 L323 515 Q309 468 301 451 Z " />
<glyph glyph-name="B" unicode="B" horiz-adv-x="593" d="M149 700 L347 700 Q460 700 513 659 Q566 618 566 553 Q566 488 531 440.5 Q496 393 441 371 L441 367 Q495 356 527.5 314.5 Q560 273 560 220 Q560 115 488 57.5 Q416 0 288 0 L76 0 Q56 0 48 7 Q40 14 40 25 Q40 36 56.5 192.5 Q73 349 105 660 Q109 700 149 700 Z M303 421 Q350 421 377 445.5 Q404 470 404 507 Q404 570 321 570 L250 570 L234 421 L303 421 Z M301 131 Q347 131 374.5 154.5 Q402 178 402 221 Q402 290 302 290 L220 290 L203 131 L301 131 Z " />
<glyph glyph-name="C" unicode="C" horiz-adv-x="619" d="M122 578 Q164 639 239 673.5 Q314 708 401 708 Q488 708 553.5 688.5 Q619 669 619 640 Q619 619 590.5 581.5 Q562 544 544 544 Q541 544 524 552 Q475 576 400 576 Q303 576 252 506 Q201 436 201 298 Q201 123 351 123 Q401 123 447.5 136.5 Q494 150 521.5 164 Q549 178 552 178 Q564 178 564 163 Q564 121 554 68 Q546 28 472 10 Q398 -8 337 -8 Q187 -8 114.5 61.5 Q42 131 42 276 Q42 458 122 578 Z " />
<glyph glyph-name="D" unicode="D" horiz-adv-x="695" d="M149 700 L373 700 Q513 700 586.5 625.5 Q660 551 660 411 Q660 215 563.5 107.5 Q467 0 300 0 L76 0 Q56 0 48 7.5 Q40 15 40 33 L105 660 Q109 700 149 700 Z M313 131 Q400 131 450.5 200.5 Q501 270 501 397 Q501 569 360 569 L251 569 L204 131 L313 131 Z " />
<glyph glyph-name="E" unicode="E" horiz-adv-x="546" d="M149 700 L515 700 Q541 700 541 660 Q541 569 503 569 L251 569 L235 424 L459 424 Q485 424 485 384 Q485 293 447 293 L222 293 L204 131 L456 131 Q482 131 482 91 Q482 0 444 0 L76 0 Q56 0 48 7 Q40 14 40 32 L105 660 Q109 700 149 700 Z " />
<glyph glyph-name="F" unicode="F" horiz-adv-x="503" d="M134 -2 L99 -2 Q42 -2 42 29 L108 660 Q112 700 152 700 L487 700 Q513 700 513 660 Q513 569 475 569 L254 569 L238 423 L451 423 Q477 423 477 383 Q477 292 439 292 L225 292 L197 30 Q194 -2 134 -2 Z " />
<glyph glyph-name="G" unicode="G" horiz-adv-x="672" d="M355 258 Q329 258 329 298 Q329 389 367 389 L571 389 Q591 389 599.5 382 Q608 375 608 358 L577 71 Q574 47 547 30 Q520 13 478 6 Q404 -8 336 -8 Q186 -8 113.5 61.5 Q41 131 41 276 Q41 491 137 599.5 Q233 708 416 708 Q487 708 553 688.5 Q619 669 619 640 Q619 619 590.5 581.5 Q562 544 544 544 Q541 544 524 552 Q475 576 399 576 Q302 576 251 506 Q200 436 200 298 Q200 123 350 123 Q390 123 428 130 L442 258 L355 258 Z " />
<glyph glyph-name="H" unicode="H" horiz-adv-x="733" d="M559 -2 L524 -2 Q467 -2 467 29 L494 291 L224 291 L197 30 Q194 -2 134 -2 L99 -2 Q42 -2 42 29 L109 670 Q112 702 172 702 L207 702 Q264 702 264 671 L238 423 L508 423 L534 670 Q537 702 597 702 L632 702 Q689 702 689 671 L622 30 Q619 -2 559 -2 Z " />
<glyph glyph-name="I" unicode="I" horiz-adv-x="282" d="M122 -2 L87 -2 Q30 -2 30 29 L97 670 Q100 702 160 702 L195 702 Q252 702 252 671 L185 30 Q182 -2 122 -2 Z " />
<glyph glyph-name="J" unicode="J" horiz-adv-x="402" d="M271 702 L306 702 Q363 702 363 671 L313 202 Q302 103 244.5 47.5 Q187 -8 85 -8 Q-17 -8 -17 35 Q-17 132 3 132 Q5 132 12 130 Q30 123 70.5 123 Q111 123 133 147.5 Q155 172 161 227 L208 670 Q211 702 271 702 Z " />
<glyph glyph-name="K" unicode="K" horiz-adv-x="576" d="M165 702 L200 702 Q257 702 257 670 L229 402 L233 401 L436 683 Q450 702 498 702 L545 702 Q600 702 600 688 Q600 679 590 666 L366 370 L549 34 Q555 22 555 16 Q555 -2 498 -2 L440 -2 Q390 -2 381 17 L224 321 L220 320 L190 30 Q187 -2 127 -2 L92 -2 Q35 -2 35 30 L102 670 Q105 702 165 702 Z " />
<glyph glyph-name="L" unicode="L" horiz-adv-x="484" d="M166 702 L201 702 Q258 702 258 671 L201 131 L424 131 Q450 131 450 91 Q450 0 412 0 L72 0 Q52 0 44 7 Q36 14 36 32 L103 670 Q106 702 166 702 Z " />
<glyph glyph-name="M" unicode="M" horiz-adv-x="843" d="M171 702 L224 702 Q273 702 285 675 L428 362 L639 675 Q657 702 704 702 L756 702 Q813 702 813 670 L746 30 Q743 -2 683 -2 L654 -2 Q597 -2 597 30 L640 444 L636 445 L464 186 Q448 167 422 167 L393 167 Q368 167 355 186 L237 445 L233 444 L190 30 Q187 -2 127 -2 L98 -2 Q41 -2 41 30 L108 670 Q111 702 171 702 Z " />
<glyph glyph-name="N" unicode="N" horiz-adv-x="719" d="M165 702 L208 702 Q257 702 272 675 L492 270 L534 670 Q537 702 597 702 L626 702 Q683 702 683 670 L616 30 Q613 -2 553 -2 L515 -2 Q466 -2 451 25 L226 435 L184 30 Q181 -2 121 -2 L92 -2 Q35 -2 35 30 L102 670 Q105 702 165 702 Z " />
<glyph glyph-name="O" unicode="O" horiz-adv-x="731" d="M41 284 Q41 455 122 575 Q164 636 236 672 Q308 708 403 708 Q542 708 615.5 632.5 Q689 557 689 414 Q689 210 596 101 Q503 -8 328 -8 Q189 -8 115 67 Q41 142 41 284 Z M342 123 Q429 123 480 195.5 Q531 268 531 400 Q531 576 389 576 Q301 576 250.5 503.5 Q200 431 200 298 Q200 123 342 123 Z " />
<glyph glyph-name="P" unicode="P" horiz-adv-x="570" d="M144 700 L361 700 Q469 700 526 651 Q548 632 563 597.5 Q578 563 578 508 Q578 453 557.5 404 Q537 355 509 329 Q481 303 443 287 Q384 262 325 262 L212 262 L188 30 Q185 -2 125 -2 L91 -2 Q34 -2 34 30 L100 660 Q104 700 144 700 Z M322 394 Q361 394 390 416.5 Q419 439 419 487.5 Q419 536 396 552.5 Q373 569 341 569 L245 569 L226 394 L322 394 Z " />
<glyph glyph-name="Q" unicode="Q" horiz-adv-x="731" d="M404 708 Q543 708 616 632.5 Q689 557 689 415 Q689 273 637.5 174 Q586 75 496 31 L495 27 L637 -27 Q654 -34 654 -54 Q654 -162 625 -162 Q619 -162 442 -88 Q265 -14 192 16 Q43 78 41 286 Q41 457 124 576 Q166 637 238 672.5 Q310 708 404 708 Z M342 119 Q430 119 480.5 193 Q531 267 531 403 Q531 576 390 576 Q302 576 251 503 Q200 430 200 297 Q200 119 342 119 Z " />
<glyph glyph-name="R" unicode="R" horiz-adv-x="610" d="M145 700 L340 700 Q571 700 571 537 Q571 471 534.5 423 Q498 375 436 353 L436 349 Q453 342 470.5 315.5 Q488 289 498 257 L563 37 Q566 25 566 18 Q563 -2 504 -2 L463 -2 Q414 -2 407 19 L348 214 Q336 247 318 260.5 Q300 274 254 274 L215 274 L189 30 Q186 -2 126 -2 L92 -2 Q35 -2 35 30 L101 660 Q105 700 145 700 Z M324 407 Q357 407 383.5 435 Q410 463 410 498 Q410 533 390 551 Q370 569 334 569 L246 569 L229 407 L324 407 Z " />
<glyph glyph-name="S" unicode="S" horiz-adv-x="500" d="M133.5 659.5 Q172 685 216 696.5 Q260 708 321.5 708 Q383 708 432.5 687 Q482 666 482 640 Q482 619 458.5 585 Q435 551 418 551 Q414 551 400 558 Q362 576 320 576 Q278 576 257 569 Q236 562 226 551 Q210 532 210 507.5 Q210 483 236.5 463.5 Q263 444 301 428.5 Q339 413 377 393.5 Q415 374 441.5 335 Q468 296 468 239.5 Q468 183 452.5 138.5 Q437 94 412.5 67 Q388 40 354 22 Q295 -8 218 -8 Q125 -8 62 24 Q26 43 26 70 Q26 181 52 181 Q57 181 78 166 Q139 123 206 123 Q247 123 277 141 Q307 159 307 203 Q307 227 288 246 Q269 265 240 276 Q211 287 178 304 Q145 321 116 339.5 Q87 358 68 393 Q49 428 49 483.5 Q49 539 72 586.5 Q95 634 133.5 659.5 Z " />
<glyph glyph-name="T" unicode="T" horiz-adv-x="549" d="M72 700 L546 700 Q572 700 572 660 Q572 569 534 569 L374 569 L317 30 Q314 -2 254 -2 L219 -2 Q162 -2 162 29 L219 569 L60 569 Q34 569 34 609 Q34 700 72 700 Z " />
<glyph glyph-name="U" unicode="U" horiz-adv-x="712" d="M162 702 L196 702 Q252 702 252 670 Q207 239 207 229 Q207 182 241 152.5 Q275 123 333 123 Q391 123 433.5 157 Q476 191 481 244 L525 670 Q528 702 589 702 L622 702 Q678 702 678 670 L633 234 Q621 119 537.5 55.5 Q454 -8 322 -8 Q190 -8 120.5 46.5 Q51 101 51 201 Q51 212 98 670 Q101 702 162 702 Z " />
<glyph glyph-name="V" unicode="V" horiz-adv-x="617" d="M39 673 Q39 702 102 702 L135 702 Q184 702 191 673 L288 205 L292 205 L491 673 Q503 702 553 702 L584 702 Q641 702 641 678 Q641 670 637 662 L354 19 Q345 -2 296 -2 L244 -2 Q195 -2 190 19 L41 662 Q39 670 39 673 Z " />
<glyph glyph-name="W" unicode="W" horiz-adv-x="882" d="M29 669 Q29 702 94 702 L120 702 Q180 702 184 671 L225 349 L241 205 L290 349 L407 681 Q415 702 464 702 L502 702 Q552 702 555 681 L618 198 Q624 217 642 272 Q660 327 667 349 L779 671 Q789 702 849 702 L860 702 Q920 702 920 677 Q920 673 916 661 L686 19 Q678 -2 629 -2 L556 -2 Q506 -2 503 19 L448 433 L303 19 Q294 -2 246 -2 L174 -2 Q122 -2 121 19 Q29 664 29 669 Z " />
<glyph glyph-name="X" unicode="X" horiz-adv-x="611" d="M67 658 Q61 670 61 679.5 Q61 689 72 694 Q86 702 125 702 L166 702 Q214 702 224 683 L319 497 L458 683 Q473 702 521 702 L560 702 Q619 702 619 682 Q619 672 609 658 L389 363 L555 42 Q560 30 560 23 Q560 -2 497 -2 L458 -2 Q409 -2 400 17 L289 232 L129 17 Q114 -2 66 -2 L28 -2 Q-31 -2 -31 18 Q-31 28 -20 42 L219 365 L67 658 Z " />
<glyph glyph-name="Y" unicode="Y" horiz-adv-x="559" d="M38 657 Q32 669 32 679 Q32 689 42 694 Q57 702 96 702 L139 702 Q188 702 197 683 L297 469 L442 683 Q455 702 504 702 L540 702 Q601 702 601 682 Q601 673 590 657 L357 333 L325 30 Q322 -2 262 -2 L228 -2 Q171 -2 171 30 L203 336 L38 657 Z " />
<glyph glyph-name="Z" unicode="Z" horiz-adv-x="616" d="M524 131 Q550 131 550 91 Q550 0 512 0 L33 0 Q20 0 10.5 31 Q1 62 1 80.5 Q1 99 4 102 L385 569 L107 569 Q81 569 81 609 Q81 700 119 700 L572 700 Q585 700 594.5 669 Q604 638 604 619.5 Q604 601 601 598 L219 131 L524 131 Z " />
<glyph glyph-name="bracketleft" unicode="&#x5b;" horiz-adv-x="291" d="M269 673 L218 673 L143 -43 L195 -43 Q221 -43 221 -73 Q221 -138 184 -138 L58 -138 Q38 -138 30 -131 Q22 -124 22 -106 L109 728 Q113 768 153 768 L280 768 Q306 768 306 738 Q306 673 269 673 Z " />
<glyph glyph-name="backslash" unicode="&#x5c;" horiz-adv-x="361" d="M37 681 Q37 702 83 702 L106 702 Q157 702 162 672 L324 8 Q325 5 325 0 Q325 -22 280 -22 L256 -22 Q206 -22 200 8 L39 672 Q37 678 37 681 Z " />
<glyph glyph-name="bracketright" unicode="&#x5d;" horiz-adv-x="291" d="M23 -43 L74 -43 L149 673 L97 673 Q71 673 71 703 Q71 768 108 768 L234 768 Q254 768 262 761 Q270 754 270 736 L183 -98 Q179 -138 139 -138 L12 -138 Q-14 -138 -14 -108 Q-14 -43 23 -43 Z " />
<glyph glyph-name="asciicircum" unicode="&#x5e;" horiz-adv-x="450" d="M229 686 L260 686 Q290 686 299 656 L395 348 Q398 342 398 333 Q396 318 364 318 L343 318 Q303 318 294 348 L230 555 L122 348 Q106 318 68 318 L47 318 Q17 318 17 332 Q17 339 22 348 L184 656 Q199 686 229 686 Z " />
<glyph glyph-name="underscore" unicode="&#x5f;" horiz-adv-x="534" d="M-21 -109 Q-21 -36 16 -36 L531 -36 Q557 -36 557 -70 Q557 -143 520 -143 L5 -143 Q-21 -143 -21 -109 Z " />
<glyph glyph-name="grave" unicode="&#x60;" horiz-adv-x="320" d="M257 611 Q257 595 215 595 Q173 595 151 622 Q129 649 94.5 690 Q60 731 60 738 Q60 754 125.5 754 Q191 754 204 727 Q214 706 223.5 686 Q233 666 238.5 655 Q244 644 248 634 Q257 615 257 611 Z " />
<glyph glyph-name="a" unicode="a" horiz-adv-x="545" d="M437 -8 Q342 -8 322 67 Q299 33 263.5 12 Q228 -9 186 -9 Q112 -9 68 47.5 Q24 104 24 208 Q24 352 86 441 Q148 530 246 530 Q311 530 367 477 Q376 507 386 515 Q396 523 432 524 L444 524 Q502 524 502 499 L484 325 Q465 151 465 141 Q465 109 495 109 Q503 109 513 112 Q523 115 524 115 Q532 115 532 100 Q532 85 525 44 Q521 19 494 5.5 Q467 -8 437 -8 Z M242 112 Q283 112 320 170 Q332 306 334 320.5 Q336 335 346 386 Q315 413 280 413 Q229 413 201.5 362.5 Q174 312 174 212 Q174 112 242 112 Z " />
<glyph glyph-name="b" unicode="b" horiz-adv-x="569" d="M84 -2 Q26 -2 26 23 L100 722 Q103 754 163 754 L191 754 Q219 754 233.5 745 Q248 736 248 723 L221 474 Q270 531 347.5 531 Q425 531 474.5 474.5 Q524 418 524 314 Q524 170 456.5 81 Q389 -8 282 -8 Q215 -8 161 44 Q152 15 141.5 7 Q131 -1 96 -2 L84 -2 Z M248 109 Q308 109 341 159.5 Q374 210 374 305 Q374 359 353 384.5 Q332 410 289 410 Q246 410 209 354 L195 223 L183 135 Q213 109 248 109 Z " />
<glyph glyph-name="c" unicode="c" horiz-adv-x="485" d="M431 135 Q431 85 423 58 Q411 24 360.5 8 Q310 -8 260 -8 Q33 -8 33 204 Q33 343 94 432 Q125 479 181 505 Q237 531 302 531 Q367 531 418.5 515.5 Q470 500 471 462 Q471 446 451 416 Q431 386 416 386 Q412 386 400 393 Q361 414 318 414 Q186 414 186 219 Q186 163 208.5 136 Q231 109 285 109 Q339 109 403 141 Q419 149 425 149 Q431 149 431 135 Z " />
<glyph glyph-name="d" unicode="d" horiz-adv-x="565" d="M449 -8 Q354 -8 334 69 Q286 -8 202.5 -8 Q119 -8 72.5 48.5 Q26 105 26 209 Q26 353 90.5 442 Q155 531 258 531 Q315 531 365 490 L390 722 Q393 754 453 754 L481 754 Q509 754 523.5 745 Q538 736 538 723 Q477 152 477 142 Q477 109 507 109 Q515 109 525 112 Q535 115 536 115 Q544 115 544 100 Q544 85 537 44 Q533 19 506 5.5 Q479 -8 449 -8 Z M292 414 Q237 414 206.5 363.5 Q176 313 176 213 Q176 113 254 113 Q296 113 333 172 Q334 182 342 260.5 Q350 339 355 390 Q325 414 292 414 Z " />
<glyph glyph-name="e" unicode="e" horiz-adv-x="539" d="M183 210 Q186 152 212.5 130.5 Q239 109 281 109 Q323 109 359 120 Q395 131 417.5 142 Q440 153 443 153 Q451 153 451 139 Q451 124 448 96.5 Q445 69 443 62 Q432 25 378 8.5 Q324 -8 269 -8 Q150 -8 91.5 50 Q33 108 33 212 Q33 375 110 453 Q187 531 308 531 Q365 531 406 516 Q447 501 466 477 Q502 433 502 386 Q502 294 437 248.5 Q372 203 287 203 Q232 203 183 210 Z M298 414 Q215 414 190 302 L238 302 Q302 302 330 321.5 Q358 341 358 367 Q358 414 298 414 Z " />
<glyph glyph-name="f" unicode="f" horiz-adv-x="325" d="M300 523 Q310 523 313 518.5 Q316 514 316 492 Q316 470 300.5 438 Q285 406 258 406 L228 406 L189 30 Q186 -2 126 -2 L98 -2 Q70 -2 55.5 7 Q41 16 41 29 L80 406 L60 406 Q34 406 34 442 Q34 523 72 523 L93 523 L100 598 Q107 675 149.5 717.5 Q192 760 263 760 Q359 760 359 714 Q359 698 346.5 668 Q334 638 322 638 Q320 638 310 640.5 Q300 643 289 643 Q253 643 249 600 L240 523 L300 523 Z " />
<glyph glyph-name="g" unicode="g" horiz-adv-x="546" d="M223 -212 Q145 -212 91.5 -192 Q38 -172 38 -141 Q38 -54 58 -54 Q61 -54 79 -64 Q135 -95 192.5 -95 Q250 -95 283.5 -62 Q317 -29 323 33 L326 63 Q276 4 200.5 4 Q125 4 78.5 58.5 Q32 113 32 213 Q32 355 96.5 443 Q161 531 264 531 Q329 531 384 479 Q393 508 403.5 516 Q414 524 449 525 L461 525 Q519 525 519 500 L478 93 Q462 -61 400.5 -136.5 Q339 -212 223 -212 Z M260 125 Q301 125 338 183 L351 300 Q360 376 363 388 Q331 414 298 414 Q243 414 212.5 364.5 Q182 315 182 220 Q182 125 260 125 Z " />
<glyph glyph-name="h" unicode="h" horiz-adv-x="565" d="M321 119 L344 359 Q344 409 290 409 Q244 409 204 352 L170 30 Q167 -2 107 -2 L79 -2 Q51 -2 36.5 7 Q22 16 22 29 L95 722 Q98 754 158 754 L186 754 Q214 754 228.5 745 Q243 736 243 723 L216 463 Q243 492 283 511.5 Q323 531 363 531 Q495 531 495 404 L470 142 Q470 109 500 109 Q508 109 518 112 Q528 115 529 115 Q537 115 537 100 Q537 85 530 44 Q526 19 499 5.5 Q472 -8 442 -8 Q321 -8 321 119 Z " />
<glyph glyph-name="i" unicode="i" horiz-adv-x="265" d="M167 609 L139 609 Q111 609 96.5 618 Q82 627 82 640 L91 722 Q94 754 154 754 L182 754 Q210 754 224.5 745 Q239 736 239 723 L230 641 Q227 609 167 609 Z M130 525 L158 525 Q186 525 200.5 516 Q215 507 215 494 Q178 152 178 142 Q178 109 208 109 Q216 109 226 112 Q236 115 237 115 Q245 115 245 100 Q245 85 238 44 Q234 19 207 5.5 Q180 -8 150 -8 Q29 -8 29 119 L67 493 Q70 525 130 525 Z " />
<glyph glyph-name="j" unicode="j" horiz-adv-x="276" d="M181 609 L153 609 Q125 609 110.5 618 Q96 627 96 640 L105 722 Q108 754 168 754 L196 754 Q224 754 238.5 745 Q253 736 253 723 L244 641 Q241 609 181 609 Z M172 -50 Q164 -127 122 -169.5 Q80 -212 5.5 -212 Q-69 -212 -69 -173 Q-69 -90 -51 -90 Q-50 -90 -39 -92.5 Q-28 -95 -16 -95 Q20 -95 24 -52 L81 493 Q84 525 144 525 L172 525 Q200 525 214.5 516 Q229 507 229 494 L172 -50 Z " />
<glyph glyph-name="k" unicode="k" horiz-adv-x="521" d="M161 754 L189 754 Q246 754 246 722 L204 326 L208 325 L348 506 Q363 525 411 525 L448 525 Q503 525 503 511 Q503 504 491 490 L332 292 L468 34 Q473 24 473 16 Q473 -2 415 -2 L373 -2 Q324 -2 315 17 L200 247 L196 246 L173 30 Q170 -2 110 -2 L82 -2 Q25 -2 25 30 L98 722 Q101 754 161 754 Z " />
<glyph glyph-name="l" unicode="l" horiz-adv-x="297" d="M148 755 L196 755 Q243 755 243 728 Q182 146 182 142 Q182 109 212 109 Q220 109 230 112 Q240 115 241 115 Q249 115 249 100 Q249 85 242 44 Q238 19 211 5.5 Q184 -8 154 -8 Q33 -8 33 119 L96 725 Q100 755 148 755 Z " />
<glyph glyph-name="m" unicode="m" horiz-adv-x="848" d="M66 428 L64 484 Q64 500 97 510 Q130 520 180 520 Q203 520 209 488 Q211 476 212 454 Q238 486 281 508.5 Q324 531 367 531 Q471 531 493 454 Q518 485 563 508 Q608 531 653 531 Q785 531 785 404 L760 142 Q760 109 790 109 Q798 109 808 112 Q818 115 819 115 Q827 115 827 100 Q827 85 820 44 Q816 19 789 5.5 Q762 -8 732 -8 Q611 -8 611 119 L634 359 Q634 409 583.5 409 Q533 409 494 352 L463 30 Q460 -2 400 -2 L372 -2 Q344 -2 329.5 7 Q315 16 315 29 Q348 349 348 359 Q348 409 297.5 409 Q247 409 208 351 L176 30 Q173 -2 113 -2 L85 -2 Q57 -2 42.5 7 Q28 16 28 29 L62 357 Q66 396 66 428 Z " />
<glyph glyph-name="n" unicode="n" horiz-adv-x="557" d="M495 404 L470 142 Q470 109 500 109 Q508 109 518 112 Q528 115 529 115 Q537 115 537 100 Q537 85 530 44 Q526 19 499 5.5 Q472 -8 442 -8 Q321 -8 321 119 Q321 119 344 359 Q344 409 292.5 409 Q241 409 202 348 L170 30 Q167 -2 107 -2 L79 -2 Q51 -2 36.5 7 Q22 16 22 29 L56 357 Q60 396 60 428 L58 484 Q58 500 91 510 Q124 520 174 520 Q193 520 198.5 503.5 Q204 487 206 452 Q232 484 275.5 507.5 Q319 531 363 531 Q495 531 495 404 Z " />
<glyph glyph-name="o" unicode="o" horiz-adv-x="569" d="M33 211 Q33 342 91 432 Q121 478 176.5 504.5 Q232 531 307 531 Q414 531 469 475 Q524 419 524 311 Q524 159 451 75.5 Q378 -8 250 -8 Q143 -8 88 48 Q33 104 33 211 Z M262 109 Q314 109 343.5 159.5 Q373 210 373 304 Q373 414 295 414 Q242 414 212.5 363.5 Q183 313 183 218 Q183 109 262 109 Z " />
<glyph glyph-name="p" unicode="p" horiz-adv-x="573" d="M71 428 L69 484 Q69 500 102 510 Q135 520 185 520 Q213 520 217 460 Q267 531 348 531 Q429 531 477 474.5 Q525 418 525 314 Q525 170 459 81 Q393 -8 288 -8 Q232 -8 181 32 L159 -174 Q156 -206 96 -206 L68 -206 Q40 -206 25.5 -197 Q11 -188 11 -175 L67 357 Q71 396 71 428 Z M254 109 Q312 109 343.5 159.5 Q375 210 375 305 Q375 410 292 410 Q249 410 212 349 Q209 315 191 132 Q219 109 254 109 Z " />
<glyph glyph-name="q" unicode="q" horiz-adv-x="566" d="M466 525 Q524 525 524 500 L453 -174 Q450 -206 390 -206 L362 -206 Q334 -206 319.5 -197 Q305 -188 305 -175 L328 49 Q279 -8 203 -8 Q127 -8 79 48.5 Q31 105 31 209 Q31 353 97 442 Q163 531 268 531 Q335 531 389 479 Q398 508 408.5 516 Q419 524 454 525 L466 525 Z M302 414 Q244 414 212.5 363.5 Q181 313 181 218 Q181 113 264 113 Q304 113 341 169 L355 300 L367 388 Q337 414 302 414 Z " />
<glyph glyph-name="r" unicode="r" horiz-adv-x="366" d="M65 428 L63 484 Q63 500 96 510 Q129 520 179 520 Q192 520 199 510 Q206 500 207.5 489.5 Q209 479 211 455 Q262 531 328 531 Q375 531 375 485 Q375 460 360.5 426 Q346 392 335 392 Q332 392 320 396.5 Q308 401 294 401 Q245 401 207 350 L175 30 Q172 -2 112 -2 L84 -2 Q56 -2 41.5 7 Q27 16 27 29 L61 357 Q65 396 65 428 Z " />
<glyph glyph-name="s" unicode="s" horiz-adv-x="413" d="M251 415 Q194 415 194 375 Q194 354 222 339 Q250 324 283 313.5 Q316 303 344 271 Q372 239 372 188 Q372 96 315 44 Q258 -8 166 -8 Q128 -8 92 0 Q22 16 22 53 Q22 143 44 143 Q46 143 62 134 Q108 109 154 109 Q220 109 220 159 Q220 180 201.5 193.5 Q183 207 157 216 Q131 225 105 237.5 Q79 250 60.5 277.5 Q42 305 42 346 Q42 435 97 483 Q152 531 240 531 Q294 531 340 516.5 Q386 502 386 470 Q386 454 366.5 424.5 Q347 395 333 395 Q331 395 306 405 Q281 415 251 415 Z " />
<glyph glyph-name="t" unicode="t" horiz-adv-x="342" d="M65 406 Q39 406 39 442 Q39 523 77 523 L97 523 L107 618 Q110 650 170 650 L198 650 Q226 650 240.5 641 Q255 632 255 619 L245 523 L304 523 Q314 523 317 518.5 Q320 514 320 492 Q320 470 304.5 438 Q289 406 262 406 L233 406 Q205 145 205 142 Q205 109 235 109 Q246 109 259 112 Q272 115 273 115 Q281 115 281 100 Q281 85 274 44 Q270 19 243 5.5 Q216 -8 186 -8 Q56 -8 56 125 L85 406 L65 406 Z " />
<glyph glyph-name="u" unicode="u" horiz-adv-x="557" d="M436 -8 Q339 -8 320 72 Q291 38 248 15 Q205 -8 160 -8 Q92 -8 60 23 Q28 54 28 119 Q28 160 56 408 L65 493 Q68 525 128 525 L156 525 Q184 525 198.5 516 Q213 507 213 494 Q179 176 179 163 Q179 114 229.5 114 Q280 114 319 168 L353 493 Q356 525 416 525 L444 525 Q472 525 486.5 516 Q501 507 501 494 Q464 152 464 142 Q464 109 494 109 Q502 109 512 112 Q522 115 523 115 Q531 115 531 100 Q531 85 524 44 Q520 19 493 5.5 Q466 -8 436 -8 Z " />
<glyph glyph-name="v" unicode="v" horiz-adv-x="485" d="M25 500 Q25 525 88 525 L121 525 Q170 525 175 504 L215 319 Q218 306 223 260.5 Q228 215 230 198 L234 198 Q259 281 275 319 L353 504 Q362 525 411 525 L436 525 Q493 525 493 502 Q493 494 489 485 L281 19 Q272 -2 223 -2 L191 -2 Q142 -2 137 19 L27 485 Q25 497 25 500 Z " />
<glyph glyph-name="w" unicode="w" horiz-adv-x="747" d="M103 525 L127 525 Q177 525 180 504 L227 196 L335 504 Q342 525 392 525 L416 525 Q466 525 469 504 L511 196 L624 504 Q632 525 681 525 L685 525 Q744 525 744 501 Q744 494 741 484 L574 19 Q566 -2 517 -2 L468 -2 Q420 -2 415 19 L373 300 L275 19 Q268 -2 218 -2 L169 -2 Q119 -2 116 19 L39 484 Q38 490 38 499 Q41 525 103 525 Z " />
<glyph glyph-name="x" unicode="x" horiz-adv-x="485" d="M32 505 Q32 525 96 525 L128 525 Q178 525 187 506 L250 383 L342 506 Q356 525 405 525 L434 525 Q494 525 494 506 Q494 497 482 482 L313 266 L437 42 Q444 29 444 17.5 Q444 6 428.5 2 Q413 -2 381 -2 L349 -2 Q300 -2 290 17 L222 148 L125 17 Q111 -2 62 -2 L32 -2 Q-28 -2 -28 18 Q-28 26 -16 41 L159 265 L40 481 Q32 494 32 505 Z " />
<glyph glyph-name="y" unicode="y" horiz-adv-x="481" d="M27 499 Q27 525 91 525 L123 525 Q172 525 177 504 L216 319 Q220 300 232 198 L236 198 Q263 287 276 319 L355 504 Q364 525 413 525 L437 525 Q495 525 495 504 Q495 502 490 485 L190 -185 Q181 -206 132 -206 L115 -206 Q57 -206 57 -186 Q57 -178 63 -167 L144 0 Q27 494 27 499 Z " />
<glyph glyph-name="z" unicode="z" horiz-adv-x="489" d="M414 117 Q440 117 440 81 Q440 0 402 0 L31 0 Q22 0 14.5 25.5 Q7 51 7 69.5 Q7 88 11 92 L272 406 L84 406 Q58 406 58 442 Q58 523 96 523 L448 523 Q457 523 464.5 497.5 Q472 472 472 453.5 Q472 435 468 431 L207 117 L414 117 Z " />
<glyph glyph-name="braceleft" unicode="&#x7b;" horiz-adv-x="274" d="M194 -44 Q220 -44 220 -73 Q220 -138 184 -138 L145 -138 Q105 -138 81 -110.5 Q57 -83 57 -39 Q57 -22 67.5 62 Q78 146 78 179.5 Q78 213 68.5 232.5 Q59 252 47 258 Q16 275 16 303 Q16 331 23.5 345.5 Q31 360 55 372.5 Q79 385 92.5 409.5 Q106 434 111 484 L129 652 Q134 704 164 736 Q194 768 240 768 L279 768 Q306 768 306 739 Q306 674 269 674 Q245 674 242 638 L225 468 Q213 358 141 315 Q194 283 194 195 Q194 173 184 86 Q174 -1 174 -22.5 Q174 -44 194 -44 Z " />
<glyph glyph-name="bar" unicode="&#x7c;" horiz-adv-x="250" d="M68 -108 L68 738 Q68 768 118 768 L133 768 Q183 768 183 738 L183 -108 Q183 -138 133 -138 L118 -138 Q68 -138 68 -108 Z " />
<glyph glyph-name="braceright" unicode="&#x7d;" horiz-adv-x="274" d="M85 674 Q59 674 59 703 Q59 768 95 768 L134 768 Q174 768 198 740.5 Q222 713 222 669 Q222 652 211.5 568 Q201 484 201 450.5 Q201 417 210.5 397.5 Q220 378 232 372 Q263 355 263 326.5 Q263 298 255.5 283.5 Q248 269 224 257 Q200 245 186.5 219.5 Q173 194 168 146 L150 -22 Q145 -74 115 -106 Q85 -138 39 -138 L0 -138 Q-27 -138 -27 -109 Q-27 -44 10 -44 Q33 -44 37 -8 L54 162 Q65 273 138 315 Q85 347 85 435 Q85 457 95 544 Q105 631 105 652.5 Q105 674 85 674 Z " />
<glyph glyph-name="asciitilde" unicode="&#x7e;" horiz-adv-x="547" d="M171.5 225 Q150 225 130.5 219.5 Q111 214 100.5 214 Q90 214 77 231 Q64 248 64 265 Q64 291 115 318.5 Q166 346 206 346 Q246 346 300 325 Q354 304 373 304 Q392 304 413 311.5 Q434 319 446.5 319 Q459 319 471.5 299 Q484 279 484 261 Q484 233 431 208 Q378 183 339 183 Q300 183 246.5 204 Q193 225 171.5 225 Z " />
<glyph glyph-name="nbspace" unicode="&#xa0;" horiz-adv-x="480" d="" />
<glyph glyph-name="exclamdown" unicode="&#xa1;" horiz-adv-x="294" d="M190 369 L158 369 Q101 369 101 401 L111 493 Q114 525 174 525 L206 525 Q263 525 263 493 L253 401 Q250 369 190 369 Z M161 301 L172 301 Q202 301 211 294 Q220 287 220 269 L176 -147 Q173 -179 113 -179 L70 -179 Q12 -179 12 -150 Q12 -131 107 269 Q111 286 121.5 293.5 Q132 301 161 301 Z " />
<glyph glyph-name="cent" unicode="&#xa2;" horiz-adv-x="486" d="M468 462 Q468 446 448 416 Q428 386 413 386 Q410 386 387 398 Q364 410 336 413 L304 110 Q350 115 400 141 Q416 149 420 149 Q428 149 428 135 Q428 84 420 58 Q404 5 292 -6 L287 -55 Q284 -75 265 -75 L248 -75 Q237 -75 233.5 -70.5 Q230 -66 230 -55 L235 -7 Q38 3 38 204 Q38 343 98 433 Q158 523 291 530 L296 571 Q299 591 318 591 L335 591 Q353 591 353 571 L348 529 Q468 517 468 462 Z M189 219 Q189 129 247 113 L279 408 Q189 381 189 219 Z " />
<glyph glyph-name="sterling" unicode="&#xa3;" horiz-adv-x="491" d="M338 311 L248 311 L242 251 Q233 160 187 117 L410 117 Q435 117 435 84 Q435 73 434 67 L433 50 Q430 0 397 0 L34 0 Q13 0 6 9 Q-1 18 -1 40 L1 59 Q3 82 44 107 Q59 116 73 134 Q87 152 89 175 L103 311 L68 311 Q42 311 42 347 Q42 428 80 428 L115 428 L123 502 Q145 708 375 708 Q480 708 480 667 Q480 641 462.5 614.5 Q445 588 432 588 Q431 588 422 590 Q395 596 359 596 Q323 596 298.5 575 Q274 554 269 507 L260 428 L380 428 Q390 428 393 423.5 Q396 419 396 397 Q396 375 380.5 343 Q365 311 338 311 Z " />
<glyph glyph-name="currency" unicode="&#xa4;" horiz-adv-x="534" d="M35 114 Q25 126 25 138 Q25 150 40 164 L64 186 Q47 223 47 266 Q47 339 88 395 L64 422 Q55 433 55 446 Q55 459 69 472 L102 502 Q115 514 128.5 514 Q142 514 152 502 L178 474 Q228 500 281.5 500 Q335 500 381 473 L413 502 Q426 514 439 514 Q452 514 463 502 L490 472 Q500 460 500 448 Q500 436 485 422 L453 393 Q471 356 471 312 Q471 245 433 188 L455 164 Q464 154 464 140.5 Q464 127 450 114 L417 84 Q404 72 391 72 Q378 72 367 84 L346 107 Q296 78 238.5 78 Q181 78 135 105 L112 84 Q98 72 85 72 Q72 72 62 84 L35 114 Z M161 281.5 Q161 241 186 216.5 Q211 192 251.5 192 Q292 192 324 224 Q356 256 356 296.5 Q356 337 331 361.5 Q306 386 265.5 386 Q225 386 193 354 Q161 322 161 281.5 Z " />
<glyph glyph-name="yen" unicode="&#xa5;" horiz-adv-x="559" d="M41 357 Q41 408 78 408 L166 408 L38 657 Q32 669 32 679 Q32 689 42 694 Q57 702 96 702 L139 702 Q188 702 197 683 L297 469 L442 683 Q455 702 504 702 L540 702 Q601 702 601 682 Q601 673 590 657 L411 408 L494 408 Q520 408 520 384 Q520 333 483 333 L357 333 L350 270 L479 270 Q505 270 505 246 Q505 195 468 195 L342 195 L325 30 Q322 -2 262 -2 L228 -2 Q171 -2 171 30 L188 195 L52 195 Q26 195 26 219 Q26 270 63 270 L196 270 L202 333 L67 333 Q41 333 41 357 Z " />
<glyph glyph-name="brokenbar" unicode="&#xa6;" horiz-adv-x="250" d="M77 407 Q78 411 78 412 L112 738 Q115 770 165 770 L180 770 Q227 770 227 738 L193 412 Q190 380 139 380 L124 380 Q77 380 77 407 Z M111 250 L126 250 Q152 250 162 242.5 Q172 235 172 218 L138 -108 Q135 -140 85 -140 L70 -140 Q43 -140 33 -132.5 Q23 -125 23 -108 L57 218 Q60 250 111 250 Z " />
<glyph glyph-name="section" unicode="&#xa7;" horiz-adv-x="429" d="M56 18 Q40 30 40 47 Q40 137 62 137 Q64 137 78 130 Q120 109 162 109 Q219 109 219 143 Q219 159 200.5 170.5 Q182 182 156 192 Q130 202 103.5 216 Q77 230 58.5 259 Q40 288 40 329 Q40 406 90 459 Q61 486 61 534 Q61 614 116 661 Q171 708 262 708 Q315 708 359.5 693.5 Q404 679 404 647 Q404 631 384.5 601.5 Q365 572 351 572 Q349 572 324.5 582 Q300 592 270 592 Q213 592 213 558 Q213 542 231.5 530.5 Q250 519 276 509 Q302 499 328.5 485 Q355 471 373.5 442 Q392 413 392 372 Q392 296 342 242 Q371 211 371 166 Q371 87 315.5 40 Q260 -7 174 -7 Q88 -7 56 18 Z M245 292 Q259 316 259 341.5 Q259 367 241 381.5 Q223 396 187 409 Q173 388 173 360.5 Q173 333 191 319 Q209 305 245 292 Z " />
<glyph glyph-name="dieresis" unicode="&#xa8;" horiz-adv-x="320" d="M194 670 Q197 702 255.5 702 Q314 702 314 670 L307 610 Q302 578 244.5 578 Q187 578 187 610 L194 670 Z M14 670 Q17 702 75.5 702 Q134 702 134 670 L127 610 Q122 578 64.5 578 Q7 578 7 610 L14 670 Z " />
<glyph glyph-name="copyright" unicode="&#xa9;" horiz-adv-x="739" d="M115 97 Q10 202 10 350 Q10 498 115 603 Q220 708 368 708 Q516 708 621 603 Q726 498 726 350 Q726 202 621 97 Q516 -8 368 -8 Q220 -8 115 97 Z M160 558 Q74 472 74 350 Q74 228 160 142 Q246 56 368 56 Q490 56 576 142 Q662 228 662 350 Q662 472 576 558 Q490 644 368 644 Q246 644 160 558 Z M197 353 Q197 552 383 552 Q424 552 462 540.5 Q500 529 500 513 Q500 500 487 480 Q474 460 464 460 Q462 460 452 464 Q424 478 382 478 Q285 478 285 351.5 Q285 225 381 225 Q424 225 458 242 Q470 248 472 248 Q484 248 494.5 228.5 Q505 209 505 199 Q505 176 464 164 Q423 152 381 152 Q287 152 242 201 Q197 250 197 353 Z " />
<glyph glyph-name="ordfeminine" unicode="&#xaa;" horiz-adv-x="319" d="M257 499 Q261 499 272 502 Q275 502 275 496 Q275 441 228 441 Q181 441 172 478 Q146 440 106.5 440 Q67 440 45.5 468 Q24 496 24 557.5 Q24 619 54.5 663 Q85 707 134 707 Q165 707 194 681 Q198 696 203 700 Q208 704 226 704 L232 704 Q261 704 261 692 L252 606 Q242 519 242 514 Q242 499 257 499 Z M132 500 Q153 500 171 529 Q177 599 183 636 Q168 649 151 649 Q98 649 98 552 Q98 500 132 500 Z " />
<glyph glyph-name="guillemotleft" unicode="&#xab;" horiz-adv-x="471" d="M237 214 Q225 230 225 255 Q225 280 246 302 L389 455 Q403 469 418 469 Q433 469 452.5 453.5 Q472 438 472 425 Q472 412 460 398 L336 258 L431 118 Q437 108 437 96 Q437 84 414.5 65 Q392 46 375 46 Q358 46 348 61 L237 214 Z M38 214 Q26 229 26 254.5 Q26 280 47 302 L190 455 Q204 469 219 469 Q234 469 253.5 453.5 Q273 438 273 425 Q273 412 261 398 L137 258 L232 118 Q238 108 238 96 Q238 84 215.5 65 Q193 46 176.5 46 Q160 46 149 61 L38 214 Z " />
<glyph glyph-name="logicalnot" unicode="&#xac;" horiz-adv-x="560" d="M37 276 Q37 349 74 349 L504 349 Q525 349 532.5 339.5 Q540 330 540 309 L518 104 Q515 72 475 72 L455 72 Q434 72 426 79.5 Q418 87 418 104 L433 242 L63 242 Q37 242 37 276 Z " />
<glyph glyph-name="uni00AD" unicode="&#xad;" horiz-adv-x="320" d="M26 246 Q26 319 63 319 L267 319 Q293 319 293 285 Q293 212 256 212 L52 212 Q26 212 26 246 Z " />
<glyph glyph-name="registered" unicode="&#xae;" horiz-adv-x="739" d="M115 97 Q10 202 10 350 Q10 498 115 603 Q220 708 368 708 Q516 708 621 603 Q726 498 726 350 Q726 202 621 97 Q516 -8 368 -8 Q220 -8 115 97 Z M160 558 Q74 472 74 350 Q74 228 160 142 Q246 56 368 56 Q490 56 576 142 Q662 228 662 350 Q662 472 576 558 Q490 644 368 644 Q246 644 160 558 Z M241 174 L241 526 Q241 548 263 548 L372 548 Q511 548 511 443 Q511 380 445 354 L445 350 Q470 339 486 301 L535 178 Q538 171 538 167 Q538 156 505 156 L482 156 Q454 156 449 168 L405 277 Q396 295 385 302.5 Q374 310 349 310 L327 310 L327 174 Q327 156 293 156 L275 156 Q241 156 241 174 Z M327 384 L380 384 Q397 384 410 398.5 Q423 413 423 432.5 Q423 452 410.5 463.5 Q398 475 376 475 L327 475 L327 384 Z " />
<glyph glyph-name="overscore" unicode="&#xaf;" horiz-adv-x="320" d="M18 627 Q18 692 55 692 L271 692 Q297 692 297 662 Q297 597 260 597 L44 597 Q18 597 18 627 Z " />
<glyph glyph-name="degree" unicode="&#xb0;" horiz-adv-x="345" d="M162.5 443 Q104 443 70 477.5 Q36 512 36 566 Q36 620 77 664 Q118 708 176 708 Q234 708 268.5 673.5 Q303 639 303 583.5 Q303 528 262 485.5 Q221 443 162.5 443 Z M237 580.5 Q237 610 219.5 628 Q202 646 172 646 Q142 646 121.5 622.5 Q101 599 101 570 Q101 541 118.5 523 Q136 505 166 505 Q196 505 216.5 528 Q237 551 237 580.5 Z " />
<glyph glyph-name="plusminus" unicode="&#xb1;" horiz-adv-x="560" d="M46 347 Q46 420 83 420 L234 420 L250 574 Q253 604 303 604 L317 604 Q344 604 354 597 Q364 590 364 574 L348 420 L501 420 Q527 420 527 384 Q527 313 490 313 L337 313 L321 161 Q318 131 268 131 L254 131 Q227 131 217 138 Q207 145 207 161 L223 313 L72 313 Q46 313 46 347 Z M14 34 Q14 107 51 107 L468 107 Q494 107 494 73 Q494 0 457 0 L40 0 Q14 0 14 34 Z " />
<glyph glyph-name="twosuperior" unicode="&#xb2;" horiz-adv-x="320" d="M260 362 Q276 362 276 341 Q276 294 253 294 L26 294 Q20 294 15 311.5 Q10 329 10 339.5 Q10 350 12 354 L179 536 Q207 566 207 597 Q207 639 157 639 Q133 639 110.5 626.5 Q88 614 87 614 Q75 614 66 626.5 Q57 639 57 651 Q57 678 95 693 Q133 708 181.5 708 Q230 708 262.5 679 Q295 650 295 607 Q295 564 264.5 523 Q234 482 121 362 L260 362 Z " />
<glyph glyph-name="threesuperior" unicode="&#xb3;" horiz-adv-x="320" d="M126 290 Q24 290 24 326 Q24 381 38 381 Q40 381 50 375 Q80 358 114.5 358 Q149 358 166.5 376 Q184 394 184 425 Q184 475 121 475 L104 475 Q89 475 89 496 Q89 543 112 543 L123 543 Q154 543 171.5 558.5 Q189 574 189 600 Q189 639 147 639 Q120 639 98 630 Q76 621 75 621 Q67 621 59 636 Q51 651 51 664 Q51 685 86 696.5 Q121 708 170.5 708 Q220 708 249.5 684 Q279 660 279 622 Q279 584 261 558.5 Q243 533 214 521 L214 516 Q272 494 272 429.5 Q272 365 230.5 327.5 Q189 290 126 290 Z " />
<glyph glyph-name="acute" unicode="&#xb4;" horiz-adv-x="320" d="M76 595 Q47 595 47 608 Q47 614 55.5 626.5 Q64 639 71.5 650 Q79 661 94 682.5 Q109 704 125.5 729 Q142 754 206 754 Q270 754 270 741 Q270 734 265.5 728.5 Q261 723 225 688.5 Q189 654 159 624.5 Q129 595 76 595 Z " />
<glyph glyph-name="mu" unicode="&#xb5;" horiz-adv-x="566" d="M151 525 L179 525 Q207 525 221.5 516 Q236 507 236 494 Q202 176 202 163 Q202 114 252.5 114 Q303 114 342 168 L376 493 Q379 525 439 525 L467 525 Q495 525 509.5 516 Q524 507 524 494 Q487 152 487 142 Q487 109 517 109 Q525 109 535 112 Q545 115 546 115 Q554 115 554 100 Q554 85 547 44 Q543 19 516 5.5 Q489 -8 459 -8 Q362 -8 343 72 Q314 38 271 15 Q228 -8 183 -8 L165 -174 Q162 -206 102 -206 L74 -206 Q46 -206 31.5 -197 Q17 -188 17 -175 L88 493 Q91 525 151 525 Z " />
<glyph glyph-name="paragraph" unicode="&#xb6;" horiz-adv-x="515" d="M61 450 Q61 564 135 632 Q209 700 313 700 L526 700 Q545 700 544 680 L542 658 Q541 638 520 638 L484 638 L401 -151 Q398 -173 379 -173 L357 -173 Q339 -173 339 -151 L422 638 L344 638 L261 -151 Q258 -173 239 -173 L217 -173 Q199 -173 199 -151 L241 247 Q162 256 111.5 313 Q61 370 61 450 Z " />
<glyph glyph-name="middot" unicode="&#xb7;" horiz-adv-x="267" d="M136.5 289 Q106 289 88 306.5 Q70 324 70 352.5 Q70 381 91 405 Q112 429 143.5 429 Q175 429 193 411 Q211 393 211 363.5 Q211 334 189 311.5 Q167 289 136.5 289 Z " />
<glyph glyph-name="cedilla" unicode="&#xb8;" horiz-adv-x="320" d="M56 -188 Q45 -176 45 -160 Q45 -112 59 -112 Q61 -112 91 -125.5 Q121 -139 146 -139 Q171 -139 173 -122 Q173 -110 149 -98 Q125 -86 125 -74 Q125 -66 159 10 L225 10 L207 -36 Q277 -53 277 -106.5 Q277 -160 243 -186 Q209 -212 145 -212 Q81 -212 56 -188 Z " />
<glyph glyph-name="onesuperior" unicode="&#xb9;" horiz-adv-x="217" d="M129 293 L113 293 Q80 293 80 312 L113 624 L33 611 Q18 611 18 643 Q18 675 36 678 L184 704 Q191 704 198.5 699.5 Q206 695 206 690 L166 312 Q164 293 129 293 Z " />
<glyph glyph-name="ordmasculine" unicode="&#xba;" horiz-adv-x="337" d="M45 548 Q45 615 78.5 661.5 Q112 708 182 708 Q289 708 289 600 Q289 524 253 482.5 Q217 441 153 441 Q45 441 45 548 Z M160 499 Q214 499 214 596 Q214 650 175 650 Q120 650 120 552 Q120 499 160 499 Z " />
<glyph glyph-name="guillemotright" unicode="&#xbb;" horiz-adv-x="471" d="M460 301 Q472 286 472 260.5 Q472 235 451 213 L308 60 Q294 46 279 46 Q264 46 244.5 61.5 Q225 77 225 90 Q225 103 237 117 L361 257 L266 397 Q260 408 260 419.5 Q260 431 282.5 450 Q305 469 321.5 469 Q338 469 349 454 L460 301 Z M273 268 Q273 235 252 213 L109 60 Q95 46 80 46 Q65 46 45.5 61.5 Q26 77 26 90 Q26 103 38 117 L162 257 L67 397 Q61 408 61 419.5 Q61 431 83.5 450 Q106 469 123 469 Q140 469 150 454 L261 301 Q273 284 273 268 Z " />
<glyph glyph-name="onequarter" unicode="&#xbc;" horiz-adv-x="671" d="M157 293 L141 293 Q108 293 108 312 L141 624 L61 611 Q46 611 46 643 Q46 675 64 678 L212 704 Q219 704 226.5 699.5 Q234 695 234 690 L194 312 Q192 293 157 293 Z M558 700 L575 700 Q595 700 595 690 Q595 684 587 674 L160 26 Q142 0 113 0 L96 0 Q76 0 76 8 Q76 16 83 26 L510 674 Q527 700 558 700 Z M604 82 L581 82 L574 17 Q572 -2 537 -2 L521 -2 Q488 -2 488 17 L495 82 L341 82 Q335 82 330.5 100 Q326 118 326 130 Q326 142 327 143 L527 399 Q536 410 564 410 L580 410 Q613 410 613 391 L588 151 L611 151 Q626 151 626 130 Q626 82 604 82 Z M414 151 L502 151 L511 236 L523 291 L519 291 L414 151 Z " />
<glyph glyph-name="onehalf" unicode="&#xbd;" horiz-adv-x="746" d="M157 293 L141 293 Q108 293 108 312 L141 624 L61 611 Q46 611 46 643 Q46 675 64 678 L212 704 Q219 704 226.5 699.5 Q234 695 234 690 L194 312 Q192 293 157 293 Z M558 700 L575 700 Q595 700 595 690 Q595 684 587 674 L160 26 Q142 0 113 0 L96 0 Q76 0 76 8 Q76 16 83 26 L510 674 Q527 700 558 700 Z M654 68 Q670 68 670 47 Q670 0 647 0 L420 0 Q414 0 409 17.5 Q404 35 404 45.5 Q404 56 406 60 L573 242 Q601 272 601 303 Q601 345 551 345 Q527 345 504.5 332.5 Q482 320 481 320 Q469 320 460 332.5 Q451 345 451 357 Q451 384 489 399 Q527 414 575.5 414 Q624 414 656.5 385 Q689 356 689 313 Q689 270 658.5 229 Q628 188 515 68 L654 68 Z " />
<glyph glyph-name="threequarters" unicode="&#xbe;" horiz-adv-x="738" d="M147 290 Q45 290 45 326 Q45 381 59 381 Q61 381 72 375 Q101 358 135.5 358 Q170 358 187.5 376 Q205 394 205 425 Q205 475 142 475 L125 475 Q110 475 110 496 Q110 543 133 543 L144 543 Q175 543 192.5 558.5 Q210 574 210 600 Q210 639 168 639 Q141 639 119 630 Q97 621 96 621 Q88 621 80 636 Q72 651 72 664 Q72 685 107 696.5 Q142 708 191.5 708 Q241 708 270.5 684 Q300 660 300 622 Q300 584 282 558.5 Q264 533 235 521 L235 516 Q293 494 293 429.5 Q293 365 251.5 327.5 Q210 290 147 290 Z M598 700 L615 700 Q635 700 635 690 Q635 684 627 674 L200 26 Q182 0 153 0 L136 0 Q116 0 116 8 Q116 16 123 26 L550 674 Q567 700 598 700 Z M644 82 L621 82 L614 17 Q612 -2 577 -2 L561 -2 Q528 -2 528 17 L535 82 L381 82 Q375 82 370.5 100 Q366 118 366 130 Q366 142 367 143 L567 399 Q576 410 604 410 L620 410 Q653 410 653 391 L628 151 L651 151 Q666 151 666 130 Q666 82 644 82 Z M454 151 L542 151 L551 236 L563 291 L559 291 L454 151 Z " />
<glyph glyph-name="questiondown" unicode="&#xbf;" horiz-adv-x="425" d="M306 369 L274 369 Q218 369 218 401 L227 493 Q230 525 291 525 L323 525 Q356 525 367.5 517.5 Q379 510 379 493 L370 401 Q367 369 306 369 Z M197 -185 Q104 -185 51.5 -143.5 Q-1 -102 -1 -29 Q-1 17 18.5 56 Q38 95 67 121.5 Q96 148 126 171 Q202 229 215 274 Q222 290 234 295.5 Q246 301 271 301 L294 301 Q321 301 330.5 294.5 Q340 288 340 272 Q340 228 311 184.5 Q282 141 248 113 Q156 37 156 -5 Q156 -53 225 -53 Q261 -53 302 -36 L344 -20 Q356 -20 356 -34 Q356 -91 345 -130 Q329 -185 197 -185 Z " />
<glyph glyph-name="Agrave" unicode="&#xc0;" horiz-adv-x="613" d="M319 702 L371 702 Q421 702 426 681 L584 38 Q587 29 587 21 Q587 -2 533 -2 L489 -2 Q440 -2 435 19 L406 141 L164 141 L109 19 Q99 -2 61 -2 L21 -2 Q-37 -2 -37 18 Q-37 26 -31 38 L260 681 Q269 702 319 702 Z M301 451 L221 273 L375 273 L335 451 L327 515 L323 515 Q309 468 301 451 Z M437 791 Q437 775 395 775 Q353 775 331 802 Q309 829 280.5 862.5 Q252 896 246 904.5 Q240 913 240 918 Q240 934 305.5 934 Q371 934 384 907 Q394 886 403.5 866 Q413 846 418.5 835 Q424 824 428 814 Q437 795 437 791 Z " />
<glyph glyph-name="Aacute" unicode="&#xc1;" horiz-adv-x="613" d="M319 702 L371 702 Q421 702 426 681 L584 38 Q587 29 587 21 Q587 -2 533 -2 L489 -2 Q440 -2 435 19 L406 141 L164 141 L109 19 Q99 -2 61 -2 L21 -2 Q-37 -2 -37 18 Q-37 26 -31 38 L260 681 Q269 702 319 702 Z M301 451 L221 273 L375 273 L335 451 L327 515 L323 515 Q309 468 301 451 Z M298 775 Q269 775 269 788 Q269 794 277.5 806.5 Q286 819 293.5 830 Q301 841 316 862.5 Q331 884 347.5 909 Q364 934 428 934 Q492 934 492 921 Q492 914 487.5 908.5 Q483 903 447 868.5 Q411 834 381 804.5 Q351 775 298 775 Z " />
<glyph glyph-name="Acircumflex" unicode="&#xc2;" horiz-adv-x="613" d="M319 702 L371 702 Q421 702 426 681 L584 38 Q587 29 587 21 Q587 -2 533 -2 L489 -2 Q440 -2 435 19 L406 141 L164 141 L109 19 Q99 -2 61 -2 L21 -2 Q-37 -2 -37 18 Q-37 26 -31 38 L260 681 Q269 702 319 702 Z M301 451 L221 273 L375 273 L335 451 L327 515 L323 515 Q309 468 301 451 Z M353 908 L364 908 Q412 908 423 889 L477 787 Q480 779 480 775 Q480 762 461 762 L439 762 Q390 762 375 786 L350 826 L319 787 Q300 762 250 762 L226 762 Q207 762 207 772 Q207 779 214 787 L290 889 Q304 908 353 908 Z " />
<glyph glyph-name="Atilde" unicode="&#xc3;" horiz-adv-x="613" d="M319 702 L371 702 Q421 702 426 681 L584 38 Q587 29 587 21 Q587 -2 533 -2 L489 -2 Q440 -2 435 19 L406 141 L164 141 L109 19 Q99 -2 61 -2 L21 -2 Q-37 -2 -37 18 Q-37 26 -31 38 L260 681 Q269 702 319 702 Z M301 451 L221 273 L375 273 L335 451 L327 515 L323 515 Q309 468 301 451 Z M284.5 794 Q271 794 255 788.5 Q239 783 229 783 Q219 783 205.5 797 Q192 811 192 830 Q192 849 226 868 Q260 887 294 887 Q328 887 366 878.5 Q404 870 417.5 870 Q431 870 448 875.5 Q465 881 475.5 881 Q486 881 499 866.5 Q512 852 512 833 Q512 814 478 794.5 Q444 775 409.5 775 Q375 775 336.5 784.5 Q298 794 284.5 794 Z " />
<glyph glyph-name="Adieresis" unicode="&#xc4;" horiz-adv-x="613" d="M319 702 L371 702 Q421 702 426 681 L584 38 Q587 29 587 21 Q587 -2 533 -2 L489 -2 Q440 -2 435 19 L406 141 L164 141 L109 19 Q99 -2 61 -2 L21 -2 Q-37 -2 -37 18 Q-37 26 -31 38 L260 681 Q269 702 319 702 Z M301 451 L221 273 L375 273 L335 451 L327 515 L323 515 Q309 468 301 451 Z M385 850 Q388 882 446.5 882 Q505 882 505 850 L498 790 Q493 758 435.5 758 Q378 758 378 790 L385 850 Z M205 850 Q208 882 266.5 882 Q325 882 325 850 L318 790 Q313 758 255.5 758 Q198 758 198 790 L205 850 Z " />
<glyph glyph-name="Aring" unicode="&#xc5;" horiz-adv-x="613" d="M319 702 L371 702 Q421 702 426 681 L584 38 Q587 29 587 21 Q587 -2 533 -2 L489 -2 Q440 -2 435 19 L406 141 L164 141 L109 19 Q99 -2 61 -2 L21 -2 Q-37 -2 -37 18 Q-37 26 -31 38 L260 681 Q269 702 319 702 Z M301 451 L221 273 L375 273 L335 451 L327 515 L323 515 Q309 468 301 451 Z M451 835.5 Q451 793 421.5 761.5 Q392 730 347 730 Q302 730 276.5 755 Q251 780 251 823 Q251 866 281.5 897.5 Q312 929 356.5 929 Q401 929 426 903.5 Q451 878 451 835.5 Z M315 825 Q315 810 324.5 801 Q334 792 349 792 Q364 792 376 803.5 Q388 815 388 830 Q388 845 378.5 855 Q369 865 354 865 Q339 865 327 852.5 Q315 840 315 825 Z " />
<glyph glyph-name="AE" unicode="&#xc6;" horiz-adv-x="915" d="M406 700 L872 700 Q898 700 898 660 Q898 569 860 569 L540 569 L552 424 L816 424 Q842 424 842 384 Q842 293 804 293 L565 293 L579 131 L813 131 Q839 131 839 91 Q839 0 801 0 L467 0 Q451 0 444 7 Q437 14 435 30 L426 141 L183 141 L110 19 Q96 -2 62 -2 L25 -2 Q-35 -2 -35 20 Q-35 27 -27 38 L360 673 Q377 700 406 700 Z M370 455 L262 273 L416 273 L402 454 L410 537 L406 537 L370 455 Z " />
<glyph glyph-name="Ccedilla" unicode="&#xc7;" horiz-adv-x="619" d="M222 -186 Q211 -175 211 -159 Q211 -111 225 -111 Q227 -111 257 -124.5 Q287 -138 312 -138 Q337 -138 339 -121 Q339 -109 315 -97 Q291 -85 291 -73 Q291 -65 316 -8 Q176 -3 109 66.5 Q42 136 42 276 Q42 458 122 578 Q164 639 239 673.5 Q314 708 401 708 Q488 708 553.5 688.5 Q619 669 619 640 Q619 619 590.5 581.5 Q562 544 544 544 Q541 544 524 552 Q475 576 400 576 Q303 576 252 506 Q201 436 201 298 Q201 123 351 123 Q401 123 447.5 136.5 Q494 150 521.5 164 Q549 178 552 178 Q564 178 564 163 Q564 121 554 68 Q547 36 497 18.5 Q447 1 384 -5 L373 -35 Q443 -52 443 -105.5 Q443 -159 409 -185 Q375 -211 311 -211 Q247 -211 222 -186 Z " />
<glyph glyph-name="Egrave" unicode="&#xc8;" horiz-adv-x="546" d="M149 700 L515 700 Q541 700 541 660 Q541 569 503 569 L251 569 L235 424 L459 424 Q485 424 485 384 Q485 293 447 293 L222 293 L204 131 L456 131 Q482 131 482 91 Q482 0 444 0 L76 0 Q56 0 48 7 Q40 14 40 32 L105 660 Q109 700 149 700 Z M431 791 Q431 775 389 775 Q347 775 325 802 Q303 829 268.5 870 Q234 911 234 918 Q234 934 299.5 934 Q365 934 378 907 Q388 886 397.5 866 Q407 846 412.5 835 Q418 824 422 814 Q431 795 431 791 Z " />
<glyph glyph-name="Eacute" unicode="&#xc9;" horiz-adv-x="546" d="M149 700 L515 700 Q541 700 541 660 Q541 569 503 569 L251 569 L235 424 L459 424 Q485 424 485 384 Q485 293 447 293 L222 293 L204 131 L456 131 Q482 131 482 91 Q482 0 444 0 L76 0 Q56 0 48 7 Q40 14 40 32 L105 660 Q109 700 149 700 Z M292 775 Q263 775 263 788 Q263 794 271.5 806.5 Q280 819 287.5 830 Q295 841 310 862.5 Q325 884 341.5 909 Q358 934 422 934 Q486 934 486 921 Q486 914 481.5 908.5 Q477 903 441 868.5 Q405 834 375 804.5 Q345 775 292 775 Z " />
<glyph glyph-name="Ecircumflex" unicode="&#xca;" horiz-adv-x="546" d="M149 700 L515 700 Q541 700 541 660 Q541 569 503 569 L251 569 L235 424 L459 424 Q485 424 485 384 Q485 293 447 293 L222 293 L204 131 L456 131 Q482 131 482 91 Q482 0 444 0 L76 0 Q56 0 48 7 Q40 14 40 32 L105 660 Q109 700 149 700 Z M347 908 L358 908 Q406 908 417 889 L471 787 Q474 779 474 775 Q474 762 455 762 L433 762 Q384 762 369 786 L344 826 L313 787 Q294 762 244 762 L220 762 Q201 762 201 772 Q201 779 208 787 L284 889 Q298 908 347 908 Z " />
<glyph glyph-name="Edieresis" unicode="&#xcb;" horiz-adv-x="546" d="M149 700 L515 700 Q541 700 541 660 Q541 569 503 569 L251 569 L235 424 L459 424 Q485 424 485 384 Q485 293 447 293 L222 293 L204 131 L456 131 Q482 131 482 91 Q482 0 444 0 L76 0 Q56 0 48 7 Q40 14 40 32 L105 660 Q109 700 149 700 Z M379 850 Q382 882 440.5 882 Q499 882 499 850 L492 790 Q487 758 429.5 758 Q372 758 372 790 L379 850 Z M199 850 Q202 882 260.5 882 Q319 882 319 850 L312 790 Q307 758 249.5 758 Q192 758 192 790 L199 850 Z " />
<glyph glyph-name="Igrave" unicode="&#xcc;" horiz-adv-x="282" d="M122 -2 L87 -2 Q30 -2 30 29 L97 670 Q100 702 160 702 L195 702 Q252 702 252 671 L185 30 Q182 -2 122 -2 Z M291 791 Q291 775 249 775 Q207 775 185 802 Q163 829 128.5 870 Q94 911 94 918 Q94 934 159.5 934 Q225 934 238 907 Q248 886 257.5 866 Q267 846 272.5 835 Q278 824 282 814 Q291 795 291 791 Z " />
<glyph glyph-name="Iacute" unicode="&#xcd;" horiz-adv-x="282" d="M122 -2 L87 -2 Q30 -2 30 29 L97 670 Q100 702 160 702 L195 702 Q252 702 252 671 L185 30 Q182 -2 122 -2 Z M152 775 Q123 775 123 788 Q123 794 131.5 806.5 Q140 819 147.5 830 Q155 841 170 862.5 Q185 884 201.5 909 Q218 934 282 934 Q346 934 346 921 Q346 914 341.5 908.5 Q337 903 301 868.5 Q265 834 235 804.5 Q205 775 152 775 Z " />
<glyph glyph-name="Icircumflex" unicode="&#xce;" horiz-adv-x="282" d="M122 -2 L87 -2 Q30 -2 30 29 L97 670 Q100 702 160 702 L195 702 Q252 702 252 671 L185 30 Q182 -2 122 -2 Z M207 908 L218 908 Q266 908 277 889 L331 787 Q334 779 334 775 Q334 762 315 762 L293 762 Q244 762 229 786 L204 826 L173 787 Q154 762 104 762 L80 762 Q61 762 61 772 Q61 779 68 787 L144 889 Q158 908 207 908 Z " />
<glyph glyph-name="Idieresis" unicode="&#xcf;" horiz-adv-x="282" d="M122 -2 L87 -2 Q30 -2 30 29 L97 670 Q100 702 160 702 L195 702 Q252 702 252 671 L185 30 Q182 -2 122 -2 Z M239 850 Q242 882 300.5 882 Q359 882 359 850 L352 790 Q347 758 289.5 758 Q232 758 232 790 L239 850 Z M59 850 Q62 882 120.5 882 Q179 882 179 850 L172 790 Q167 758 109.5 758 Q52 758 52 790 L59 850 Z " />
<glyph glyph-name="Eth" unicode="&#xd0;" horiz-adv-x="696" d="M35 290 Q9 290 9 330 Q9 421 47 421 L78 421 L103 660 Q107 700 147 700 L371 700 Q511 700 584.5 625.5 Q658 551 658 411 Q658 215 561.5 107.5 Q465 0 298 0 L74 0 Q54 0 46 7.5 Q38 15 38 33 L64 290 L35 290 Z M311 131 Q398 131 448.5 200.5 Q499 270 499 397 Q499 569 358 569 L249 569 L233 421 L292 421 Q318 421 318 381 Q318 290 280 290 L219 290 L202 131 L311 131 Z " />
<glyph glyph-name="Ntilde" unicode="&#xd1;" horiz-adv-x="719" d="M165 702 L208 702 Q257 702 272 675 L492 270 L534 670 Q537 702 597 702 L626 702 Q683 702 683 670 L616 30 Q613 -2 553 -2 L515 -2 Q466 -2 451 25 L226 435 L184 30 Q181 -2 121 -2 L92 -2 Q35 -2 35 30 L102 670 Q105 702 165 702 Z M352.5 794 Q339 794 323 788.5 Q307 783 297 783 Q287 783 273.5 797 Q260 811 260 830 Q260 849 294 868 Q328 887 362 887 Q396 887 434 878.5 Q472 870 485.5 870 Q499 870 516 875.5 Q533 881 543.5 881 Q554 881 567 866.5 Q580 852 580 833 Q580 814 546 794.5 Q512 775 477.5 775 Q443 775 404.5 784.5 Q366 794 352.5 794 Z " />
<glyph glyph-name="Ograve" unicode="&#xd2;" horiz-adv-x="731" d="M41 284 Q41 455 122 575 Q164 636 236 672 Q308 708 403 708 Q542 708 615.5 632.5 Q689 557 689 414 Q689 210 596 101 Q503 -8 328 -8 Q189 -8 115 67 Q41 142 41 284 Z M342 123 Q429 123 480 195.5 Q531 268 531 400 Q531 576 389 576 Q301 576 250.5 503.5 Q200 431 200 298 Q200 123 342 123 Z M510 791 Q510 775 468 775 Q426 775 404 802 Q382 829 353.5 862.5 Q325 896 319 904.5 Q313 913 313 918 Q313 934 378.5 934 Q444 934 457 907 Q467 886 476.5 866 Q486 846 491.5 835 Q497 824 502 814 Q510 795 510 791 Z " />
<glyph glyph-name="Oacute" unicode="&#xd3;" horiz-adv-x="731" d="M41 284 Q41 455 122 575 Q164 636 236 672 Q308 708 403 708 Q542 708 615.5 632.5 Q689 557 689 414 Q689 210 596 101 Q503 -8 328 -8 Q189 -8 115 67 Q41 142 41 284 Z M342 123 Q429 123 480 195.5 Q531 268 531 400 Q531 576 389 576 Q301 576 250.5 503.5 Q200 431 200 298 Q200 123 342 123 Z M371 775 Q342 775 342 788 Q342 794 350.5 806.5 Q359 819 366.5 830 Q374 841 389 862.5 Q404 884 420.5 909 Q437 934 501 934 Q565 934 565 921 Q565 914 560.5 908.5 Q556 903 520 868.5 Q484 834 454 804.5 Q424 775 371 775 Z " />
<glyph glyph-name="Ocircumflex" unicode="&#xd4;" horiz-adv-x="731" d="M41 284 Q41 455 122 575 Q164 636 236 672 Q308 708 403 708 Q542 708 615.5 632.5 Q689 557 689 414 Q689 210 596 101 Q503 -8 328 -8 Q189 -8 115 67 Q41 142 41 284 Z M342 123 Q429 123 480 195.5 Q531 268 531 400 Q531 576 389 576 Q301 576 250.5 503.5 Q200 431 200 298 Q200 123 342 123 Z M426 908 L437 908 Q485 908 496 889 L550 787 Q553 779 553 775 Q553 762 534 762 L512 762 Q463 762 448 786 L423 826 L392 787 Q373 762 323 762 L299 762 Q280 762 280 772 Q280 779 287 787 L363 889 Q377 908 426 908 Z " />
<glyph glyph-name="Otilde" unicode="&#xd5;" horiz-adv-x="731" d="M41 284 Q41 455 122 575 Q164 636 236 672 Q308 708 403 708 Q542 708 615.5 632.5 Q689 557 689 414 Q689 210 596 101 Q503 -8 328 -8 Q189 -8 115 67 Q41 142 41 284 Z M342 123 Q429 123 480 195.5 Q531 268 531 400 Q531 576 389 576 Q301 576 250.5 503.5 Q200 431 200 298 Q200 123 342 123 Z M357.5 794 Q344 794 328 788.5 Q312 783 302 783 Q292 783 278.5 797 Q265 811 265 830 Q265 849 299 868 Q333 887 367 887 Q401 887 439 878.5 Q477 870 490.5 870 Q504 870 521 875.5 Q538 881 548.5 881 Q559 881 572 866.5 Q585 852 585 833 Q585 814 551 794.5 Q517 775 482.5 775 Q448 775 409.5 784.5 Q371 794 357.5 794 Z " />
<glyph glyph-name="Odieresis" unicode="&#xd6;" horiz-adv-x="731" d="M41 284 Q41 455 122 575 Q164 636 236 672 Q308 708 403 708 Q542 708 615.5 632.5 Q689 557 689 414 Q689 210 596 101 Q503 -8 328 -8 Q189 -8 115 67 Q41 142 41 284 Z M342 123 Q429 123 480 195.5 Q531 268 531 400 Q531 576 389 576 Q301 576 250.5 503.5 Q200 431 200 298 Q200 123 342 123 Z M458 850 Q461 882 519.5 882 Q578 882 578 850 L571 790 Q566 758 508.5 758 Q451 758 451 790 L458 850 Z M278 850 Q281 882 339.5 882 Q398 882 398 850 L391 790 Q386 758 328.5 758 Q271 758 271 790 L278 850 Z " />
<glyph glyph-name="multiply" unicode="&#xd7;" horiz-adv-x="560" d="M486 79 Q486 63 459 39 Q431 11 416.5 11 Q402 11 396 20 L264 167 L101 20 Q90 11 78.5 11 Q67 11 47 34 Q23 58 23 71.5 Q23 85 34 95 L196 242 L65 390 Q58 397 58 405 Q58 422 85 446 Q113 474 126.5 474 Q140 474 148 465 L279 318 L443 465 Q452 474 464.5 474 Q477 474 497 451 Q521 427 521 412.5 Q521 398 510 390 L347 242 L479 95 Q486 86 486 79 Z " />
<glyph glyph-name="Oslash" unicode="&#xd8;" horiz-adv-x="731" d="M80 112 Q41 180 41 273.5 Q41 367 61 440.5 Q81 514 122.5 575 Q164 636 236 672 Q308 708 407 708 Q506 708 572 666 L612 712 Q622 724 633 724 Q644 724 654 714 L670 700 Q682 690 682 679 Q682 668 672 658 L632 613 Q689 539 689 414 Q689 210 596 101 Q503 -8 328 -8 Q205 -8 133 50 L89 0 Q78 -12 67.5 -12 Q57 -12 47 -2 L31 12 Q19 23 19 33.5 Q19 44 29 54 L80 112 Z M200 298 Q200 272 203 250 L471 553 Q439 576 389 576 Q301 576 250.5 503.5 Q200 431 200 298 Z M342 123 Q429 123 480 195.5 Q531 268 531 400 Q531 449 519 485 L236 167 Q272 123 342 123 Z " />
<glyph glyph-name="Ugrave" unicode="&#xd9;" horiz-adv-x="712" d="M162 702 L196 702 Q252 702 252 670 Q207 239 207 229 Q207 182 241 152.5 Q275 123 333 123 Q391 123 433.5 157 Q476 191 481 244 L525 670 Q528 702 589 702 L622 702 Q678 702 678 670 L633 234 Q621 119 537.5 55.5 Q454 -8 322 -8 Q190 -8 120.5 46.5 Q51 101 51 201 Q51 212 98 670 Q101 702 162 702 Z M490 791 Q490 775 448 775 Q406 775 384 802 Q362 829 333.5 862.5 Q305 896 299 904.5 Q293 913 293 918 Q293 934 358.5 934 Q424 934 437 907 Q447 886 456.5 866 Q466 846 471.5 835 Q477 824 482 814 Q490 795 490 791 Z " />
<glyph glyph-name="Uacute" unicode="&#xda;" horiz-adv-x="712" d="M162 702 L196 702 Q252 702 252 670 Q207 239 207 229 Q207 182 241 152.5 Q275 123 333 123 Q391 123 433.5 157 Q476 191 481 244 L525 670 Q528 702 589 702 L622 702 Q678 702 678 670 L633 234 Q621 119 537.5 55.5 Q454 -8 322 -8 Q190 -8 120.5 46.5 Q51 101 51 201 Q51 212 98 670 Q101 702 162 702 Z M351 775 Q322 775 322 788 Q322 794 330.5 806.5 Q339 819 346.5 830 Q354 841 369 862.5 Q384 884 400.5 909 Q417 934 481 934 Q545 934 545 921 Q545 914 540.5 908.5 Q536 903 500 868.5 Q464 834 434 804.5 Q404 775 351 775 Z " />
<glyph glyph-name="Ucircumflex" unicode="&#xdb;" horiz-adv-x="712" d="M162 702 L196 702 Q252 702 252 670 Q207 239 207 229 Q207 182 241 152.5 Q275 123 333 123 Q391 123 433.5 157 Q476 191 481 244 L525 670 Q528 702 589 702 L622 702 Q678 702 678 670 L633 234 Q621 119 537.5 55.5 Q454 -8 322 -8 Q190 -8 120.5 46.5 Q51 101 51 201 Q51 212 98 670 Q101 702 162 702 Z M406 908 L417 908 Q465 908 476 889 L530 787 Q533 779 533 775 Q533 762 514 762 L492 762 Q443 762 428 786 L403 826 L372 787 Q353 762 303 762 L279 762 Q260 762 260 772 Q260 779 267 787 L343 889 Q357 908 406 908 Z " />
<glyph glyph-name="Udieresis" unicode="&#xdc;" horiz-adv-x="712" d="M162 702 L196 702 Q252 702 252 670 Q207 239 207 229 Q207 182 241 152.5 Q275 123 333 123 Q391 123 433.5 157 Q476 191 481 244 L525 670 Q528 702 589 702 L622 702 Q678 702 678 670 L633 234 Q621 119 537.5 55.5 Q454 -8 322 -8 Q190 -8 120.5 46.5 Q51 101 51 201 Q51 212 98 670 Q101 702 162 702 Z M438 850 Q441 882 499.5 882 Q558 882 558 850 L551 790 Q546 758 488.5 758 Q431 758 431 790 L438 850 Z M258 850 Q261 882 319.5 882 Q378 882 378 850 L371 790 Q366 758 308.5 758 Q251 758 251 790 L258 850 Z " />
<glyph glyph-name="Yacute" unicode="&#xdd;" horiz-adv-x="559" d="M38 657 Q32 669 32 679 Q32 689 42 694 Q57 702 96 702 L139 702 Q188 702 197 683 L297 469 L442 683 Q455 702 504 702 L540 702 Q601 702 601 682 Q601 673 590 657 L357 333 L325 30 Q322 -2 262 -2 L228 -2 Q171 -2 171 30 L203 336 L38 657 Z M285 775 Q256 775 256 788 Q256 794 264.5 806.5 Q273 819 280.5 830 Q288 841 303 862.5 Q318 884 334.5 909 Q351 934 415 934 Q479 934 479 921 Q479 914 474.5 908.5 Q470 903 434 868.5 Q398 834 368 804.5 Q338 775 285 775 Z " />
<glyph glyph-name="Thorn" unicode="&#xde;" horiz-adv-x="567" d="M164 702 L198 702 Q255 702 255 670 L247 593 L350 593 Q459 593 515 544 Q537 524 552 489 Q567 454 567 399.5 Q567 345 545.5 296.5 Q524 248 494.5 222 Q465 196 427 180 Q368 155 314 155 L201 155 L188 30 Q185 -2 125 -2 L91 -2 Q34 -2 34 30 L101 670 Q104 702 164 702 Z M311 287 Q349 287 378.5 309.5 Q408 332 408 380.5 Q408 429 384.5 445.5 Q361 462 329 462 L233 462 L215 287 L311 287 Z " />
<glyph glyph-name="germandbls" unicode="&#xdf;" horiz-adv-x="554" d="M261 0 L238 0 Q212 0 212 36 Q212 117 250 117 L265 117 Q311 117 339.5 147 Q368 177 368 221 Q368 311 270 311 Q244 311 244 347 Q244 428 282 428 Q320 428 347 454 Q374 480 374 512 Q374 583 309 583 Q273 583 249 560.5 Q225 538 221 502 L171 30 Q168 -2 108 -2 L80 -2 Q23 -2 23 30 L72 490 Q82 589 152.5 648.5 Q223 708 318.5 708 Q414 708 470.5 665.5 Q527 623 527 550 Q527 494 498.5 450.5 Q470 407 418 387 L418 383 Q518 343 518 239.5 Q518 136 447.5 68 Q377 0 261 0 Z " />
<glyph glyph-name="agrave" unicode="&#xe0;" horiz-adv-x="545" d="M437 -8 Q342 -8 322 67 Q299 33 263.5 12 Q228 -9 186 -9 Q112 -9 68 47.5 Q24 104 24 208 Q24 352 86 441 Q148 530 246 530 Q311 530 367 477 Q376 507 386 515 Q396 523 432 524 L444 524 Q502 524 502 499 L484 325 Q465 151 465 141 Q465 109 495 109 Q503 109 513 112 Q523 115 524 115 Q532 115 532 100 Q532 85 525 44 Q521 19 494 5.5 Q467 -8 437 -8 Z M242 112 Q283 112 320 170 Q332 306 334 320.5 Q336 335 346 386 Q315 413 280 413 Q229 413 201.5 362.5 Q174 312 174 212 Q174 112 242 112 Z M392 611 Q392 595 350 595 Q308 595 286 622 Q264 649 229.5 690 Q195 731 195 738 Q195 754 260.5 754 Q326 754 339 727 Q349 706 358.5 686 Q368 666 373.5 655 Q379 644 384 634 Q392 615 392 611 Z " />
<glyph glyph-name="aacute" unicode="&#xe1;" horiz-adv-x="545" d="M437 -8 Q342 -8 322 67 Q299 33 263.5 12 Q228 -9 186 -9 Q112 -9 68 47.5 Q24 104 24 208 Q24 352 86 441 Q148 530 246 530 Q311 530 367 477 Q376 507 386 515 Q396 523 432 524 L444 524 Q502 524 502 499 L484 325 Q465 151 465 141 Q465 109 495 109 Q503 109 513 112 Q523 115 524 115 Q532 115 532 100 Q532 85 525 44 Q521 19 494 5.5 Q467 -8 437 -8 Z M242 112 Q283 112 320 170 Q332 306 334 320.5 Q336 335 346 386 Q315 413 280 413 Q229 413 201.5 362.5 Q174 312 174 212 Q174 112 242 112 Z M253 595 Q224 595 224 608 Q224 614 232.5 626.5 Q241 639 248.5 650 Q256 661 271 682.5 Q286 704 302.5 729 Q319 754 383 754 Q447 754 447 741 Q447 734 442.5 728.5 Q438 723 402 688.5 Q366 654 336 624.5 Q306 595 253 595 Z " />
<glyph glyph-name="acircumflex" unicode="&#xe2;" horiz-adv-x="545" d="M437 -8 Q342 -8 322 67 Q299 33 263.5 12 Q228 -9 186 -9 Q112 -9 68 47.5 Q24 104 24 208 Q24 352 86 441 Q148 530 246 530 Q311 530 367 477 Q376 507 386 515 Q396 523 432 524 L444 524 Q502 524 502 499 L484 325 Q465 151 465 141 Q465 109 495 109 Q503 109 513 112 Q523 115 524 115 Q532 115 532 100 Q532 85 525 44 Q521 19 494 5.5 Q467 -8 437 -8 Z M242 112 Q283 112 320 170 Q332 306 334 320.5 Q336 335 346 386 Q315 413 280 413 Q229 413 201.5 362.5 Q174 312 174 212 Q174 112 242 112 Z M308 728 L319 728 Q367 728 378 709 L432 607 Q435 599 435 595 Q435 582 416 582 L394 582 Q345 582 330 606 L305 646 L274 607 Q255 582 205 582 L181 582 Q162 582 162 592 Q162 599 169 607 L245 709 Q259 728 308 728 Z " />
<glyph glyph-name="atilde" unicode="&#xe3;" horiz-adv-x="545" d="M437 -8 Q342 -8 322 67 Q299 33 263.5 12 Q228 -9 186 -9 Q112 -9 68 47.5 Q24 104 24 208 Q24 352 86 441 Q148 530 246 530 Q311 530 367 477 Q376 507 386 515 Q396 523 432 524 L444 524 Q502 524 502 499 L484 325 Q465 151 465 141 Q465 109 495 109 Q503 109 513 112 Q523 115 524 115 Q532 115 532 100 Q532 85 525 44 Q521 19 494 5.5 Q467 -8 437 -8 Z M242 112 Q283 112 320 170 Q332 306 334 320.5 Q336 335 346 386 Q315 413 280 413 Q229 413 201.5 362.5 Q174 312 174 212 Q174 112 242 112 Z M239.5 614 Q226 614 210 608.5 Q194 603 184 603 Q174 603 160.5 617 Q147 631 147 650 Q147 669 181 688 Q215 707 249 707 Q283 707 321 698.5 Q359 690 372.5 690 Q386 690 403 695.5 Q420 701 430.5 701 Q441 701 454 686.5 Q467 672 467 653 Q467 634 433 614.5 Q399 595 364.5 595 Q330 595 291.5 604.5 Q253 614 239.5 614 Z " />
<glyph glyph-name="adieresis" unicode="&#xe4;" horiz-adv-x="545" d="M437 -8 Q342 -8 322 67 Q299 33 263.5 12 Q228 -9 186 -9 Q112 -9 68 47.5 Q24 104 24 208 Q24 352 86 441 Q148 530 246 530 Q311 530 367 477 Q376 507 386 515 Q396 523 432 524 L444 524 Q502 524 502 499 L484 325 Q465 151 465 141 Q465 109 495 109 Q503 109 513 112 Q523 115 524 115 Q532 115 532 100 Q532 85 525 44 Q521 19 494 5.5 Q467 -8 437 -8 Z M242 112 Q283 112 320 170 Q332 306 334 320.5 Q336 335 346 386 Q315 413 280 413 Q229 413 201.5 362.5 Q174 312 174 212 Q174 112 242 112 Z M340 670 Q343 702 401.5 702 Q460 702 460 670 L453 610 Q448 578 390.5 578 Q333 578 333 610 L340 670 Z M160 670 Q163 702 221.5 702 Q280 702 280 670 L273 610 Q268 578 210.5 578 Q153 578 153 610 L160 670 Z " />
<glyph glyph-name="aring" unicode="&#xe5;" horiz-adv-x="545" d="M437 -8 Q342 -8 322 67 Q299 33 263.5 12 Q228 -9 186 -9 Q112 -9 68 47.5 Q24 104 24 208 Q24 352 86 441 Q148 530 246 530 Q311 530 367 477 Q376 507 386 515 Q396 523 432 524 L444 524 Q502 524 502 499 L484 325 Q465 151 465 141 Q465 109 495 109 Q503 109 513 112 Q523 115 524 115 Q532 115 532 100 Q532 85 525 44 Q521 19 494 5.5 Q467 -8 437 -8 Z M242 112 Q283 112 320 170 Q332 306 334 320.5 Q336 335 346 386 Q315 413 280 413 Q229 413 201.5 362.5 Q174 312 174 212 Q174 112 242 112 Z M406 655.5 Q406 613 376.5 581.5 Q347 550 301.5 550 Q256 550 231 575 Q206 600 206 643 Q206 686 236.5 717.5 Q267 749 311.5 749 Q356 749 381 723.5 Q406 698 406 655.5 Z M270 645 Q270 630 279.5 621 Q289 612 304 612 Q319 612 331 623.5 Q343 635 343 650 Q343 665 333.5 675 Q324 685 309 685 Q294 685 282 672.5 Q270 660 270 645 Z " />
<glyph glyph-name="ae" unicode="&#xe6;" horiz-adv-x="829" d="M468 210 Q471 152 497.5 130.5 Q524 109 566 109 Q608 109 644 120 Q680 131 702.5 142 Q725 153 728 153 Q736 153 736 139 Q736 124 733 96.5 Q730 69 728 62 Q717 25 663 8.5 Q609 -8 554 -8 Q428 -8 368 58 Q337 33 286.5 12.5 Q236 -8 170 -8 Q104 -8 64.5 26.5 Q25 61 25 122 Q25 225 107 272 Q179 314 328 316 Q337 358 352 389 Q332 414 265 414 Q219 414 158 390 Q137 382 133 382 Q119 382 104.5 410.5 Q90 439 90 458 Q90 485 151.5 508 Q213 531 288 531 Q394 531 446 494 Q507 531 593 531 Q650 531 691 516 Q732 501 752 477 Q787 433 787 386 Q787 294 722 248.5 Q657 203 572 203 Q517 203 468 210 Z M583 414 Q500 414 475 302 L523 302 Q587 302 615 321.5 Q643 341 643 367 Q643 414 583 414 Z M174 147 Q174 130 186 119.5 Q198 109 222.5 109 Q247 109 276.5 120.5 Q306 132 323 152 Q318 184 318 212 L318 224 Q174 222 174 147 Z " />
<glyph glyph-name="ccedilla" unicode="&#xe7;" horiz-adv-x="485" d="M150 -182 Q139 -171 139 -155 Q139 -107 153 -107 Q155 -107 185 -120.5 Q215 -134 240 -134 Q265 -134 267 -117 Q267 -105 243 -93 Q219 -81 219 -69 Q219 -60 242 -7 Q33 0 33 204 Q33 343 94 432 Q125 479 181 505 Q237 531 302 531 Q367 531 418.5 515.5 Q470 500 471 462 Q471 446 451 416 Q431 386 416 386 Q412 386 400 393 Q361 414 318 414 Q186 414 186 219 Q186 163 208.5 136 Q231 109 285 109 Q339 109 403 141 Q419 149 425 149 Q431 149 431 135 Q431 85 423 58 Q406 11 311 -3 L301 -31 Q371 -48 371 -101.5 Q371 -155 337 -181 Q303 -207 239 -207 Q175 -207 150 -182 Z " />
<glyph glyph-name="egrave" unicode="&#xe8;" horiz-adv-x="539" d="M183 210 Q186 152 212.5 130.5 Q239 109 281 109 Q323 109 359 120 Q395 131 417.5 142 Q440 153 443 153 Q451 153 451 139 Q451 124 448 96.5 Q445 69 443 62 Q432 25 378 8.5 Q324 -8 269 -8 Q150 -8 91.5 50 Q33 108 33 212 Q33 375 110 453 Q187 531 308 531 Q365 531 406 516 Q447 501 466 477 Q502 433 502 386 Q502 294 437 248.5 Q372 203 287 203 Q232 203 183 210 Z M298 414 Q215 414 190 302 L238 302 Q302 302 330 321.5 Q358 341 358 367 Q358 414 298 414 Z M412 611 Q412 595 370 595 Q328 595 306 622 Q284 649 249.5 690 Q215 731 215 738 Q215 754 280.5 754 Q346 754 359 727 Q369 706 378.5 686 Q388 666 393.5 655 Q399 644 404 634 Q412 615 412 611 Z " />
<glyph glyph-name="eacute" unicode="&#xe9;" horiz-adv-x="539" d="M183 210 Q186 152 212.5 130.5 Q239 109 281 109 Q323 109 359 120 Q395 131 417.5 142 Q440 153 443 153 Q451 153 451 139 Q451 124 448 96.5 Q445 69 443 62 Q432 25 378 8.5 Q324 -8 269 -8 Q150 -8 91.5 50 Q33 108 33 212 Q33 375 110 453 Q187 531 308 531 Q365 531 406 516 Q447 501 466 477 Q502 433 502 386 Q502 294 437 248.5 Q372 203 287 203 Q232 203 183 210 Z M298 414 Q215 414 190 302 L238 302 Q302 302 330 321.5 Q358 341 358 367 Q358 414 298 414 Z M273 595 Q244 595 244 608 Q244 614 252.5 626.5 Q261 639 268.5 650 Q276 661 291 682.5 Q306 704 322.5 729 Q339 754 403 754 Q467 754 467 741 Q467 734 462.5 728.5 Q458 723 422 688.5 Q386 654 356 624.5 Q326 595 273 595 Z " />
<glyph glyph-name="ecircumflex" unicode="&#xea;" horiz-adv-x="539" d="M183 210 Q186 152 212.5 130.5 Q239 109 281 109 Q323 109 359 120 Q395 131 417.5 142 Q440 153 443 153 Q451 153 451 139 Q451 124 448 96.5 Q445 69 443 62 Q432 25 378 8.5 Q324 -8 269 -8 Q150 -8 91.5 50 Q33 108 33 212 Q33 375 110 453 Q187 531 308 531 Q365 531 406 516 Q447 501 466 477 Q502 433 502 386 Q502 294 437 248.5 Q372 203 287 203 Q232 203 183 210 Z M298 414 Q215 414 190 302 L238 302 Q302 302 330 321.5 Q358 341 358 367 Q358 414 298 414 Z M328 728 L339 728 Q387 728 398 709 L452 607 Q455 599 455 595 Q455 582 436 582 L414 582 Q365 582 350 606 L325 646 L294 607 Q275 582 225 582 L201 582 Q182 582 182 592 Q182 599 189 607 L265 709 Q279 728 328 728 Z " />
<glyph glyph-name="edieresis" unicode="&#xeb;" horiz-adv-x="539" d="M183 210 Q186 152 212.5 130.5 Q239 109 281 109 Q323 109 359 120 Q395 131 417.5 142 Q440 153 443 153 Q451 153 451 139 Q451 124 448 96.5 Q445 69 443 62 Q432 25 378 8.5 Q324 -8 269 -8 Q150 -8 91.5 50 Q33 108 33 212 Q33 375 110 453 Q187 531 308 531 Q365 531 406 516 Q447 501 466 477 Q502 433 502 386 Q502 294 437 248.5 Q372 203 287 203 Q232 203 183 210 Z M298 414 Q215 414 190 302 L238 302 Q302 302 330 321.5 Q358 341 358 367 Q358 414 298 414 Z M360 670 Q363 702 421.5 702 Q480 702 480 670 L473 610 Q468 578 410.5 578 Q353 578 353 610 L360 670 Z M180 670 Q183 702 241.5 702 Q300 702 300 670 L293 610 Q288 578 230.5 578 Q173 578 173 610 L180 670 Z " />
<glyph glyph-name="igrave" unicode="&#xec;" horiz-adv-x="265" d="M130 525 L158 525 Q186 525 200.5 516 Q215 507 215 494 Q178 152 178 142 Q178 109 208 109 Q216 109 226 112 Q236 115 237 115 Q245 115 245 100 Q245 85 238 44 Q234 19 207 5.5 Q180 -8 150 -8 Q29 -8 29 119 L67 493 Q70 525 130 525 Z M248 611 Q248 595 206 595 Q164 595 142 622 Q120 649 85.5 690 Q51 731 51 738 Q51 754 116.5 754 Q182 754 195 727 Q205 706 214.5 686 Q224 666 229.5 655 Q235 644 240 634 Q248 615 248 611 Z " />
<glyph glyph-name="iacute" unicode="&#xed;" horiz-adv-x="265" d="M130 525 L158 525 Q186 525 200.5 516 Q215 507 215 494 Q178 152 178 142 Q178 109 208 109 Q216 109 226 112 Q236 115 237 115 Q245 115 245 100 Q245 85 238 44 Q234 19 207 5.5 Q180 -8 150 -8 Q29 -8 29 119 L67 493 Q70 525 130 525 Z M109 595 Q80 595 80 608 Q80 614 88.5 626.5 Q97 639 104.5 650 Q112 661 127 682.5 Q142 704 158.5 729 Q175 754 239 754 Q303 754 303 741 Q303 734 298.5 728.5 Q294 723 258 688.5 Q222 654 192 624.5 Q162 595 109 595 Z " />
<glyph glyph-name="icircumflex" unicode="&#xee;" horiz-adv-x="265" d="M130 525 L158 525 Q186 525 200.5 516 Q215 507 215 494 Q178 152 178 142 Q178 109 208 109 Q216 109 226 112 Q236 115 237 115 Q245 115 245 100 Q245 85 238 44 Q234 19 207 5.5 Q180 -8 150 -8 Q29 -8 29 119 L67 493 Q70 525 130 525 Z M164 728 L175 728 Q223 728 234 709 L288 607 Q291 599 291 595 Q291 582 272 582 L250 582 Q201 582 186 606 L161 646 L130 607 Q111 582 61 582 L37 582 Q18 582 18 592 Q18 599 25 607 L101 709 Q115 728 164 728 Z " />
<glyph glyph-name="idieresis" unicode="&#xef;" horiz-adv-x="265" d="M130 525 L158 525 Q186 525 200.5 516 Q215 507 215 494 Q178 152 178 142 Q178 109 208 109 Q216 109 226 112 Q236 115 237 115 Q245 115 245 100 Q245 85 238 44 Q234 19 207 5.5 Q180 -8 150 -8 Q29 -8 29 119 L67 493 Q70 525 130 525 Z M196 670 Q199 702 257.5 702 Q316 702 316 670 L309 610 Q304 578 246.5 578 Q189 578 189 610 L196 670 Z M16 670 Q19 702 77.5 702 Q136 702 136 670 L129 610 Q124 578 66.5 578 Q9 578 9 610 L16 670 Z " />
<glyph glyph-name="eth" unicode="&#xf0;" horiz-adv-x="569" d="M339 589 Q283 581 273 581 Q263 581 253 592.5 Q243 604 243 619.5 Q243 635 266 639 L309 645 Q307 648 300 659 Q282 685 282 696 Q282 707 297 708 L359 715 Q390 715 411 691 Q420 681 432 661 Q499 670 506 670 Q513 670 523 657.5 Q533 645 533 630 Q533 615 511 612 L464 606 Q531 483 531 323 Q531 163 460 77.5 Q389 -8 258 -8 Q151 -8 95.5 48.5 Q40 105 40 213 Q40 365 112.5 448 Q185 531 314 531 Q333 531 365 527 Q356 554 339 589 Z M270 109 Q322 109 351 159.5 Q380 210 380 304 Q380 414 302 414 Q249 414 219.5 364 Q190 314 190 219 Q190 109 270 109 Z " />
<glyph glyph-name="ntilde" unicode="&#xf1;" horiz-adv-x="557" d="M495 404 L470 142 Q470 109 500 109 Q508 109 518 112 Q528 115 529 115 Q537 115 537 100 Q537 85 530 44 Q526 19 499 5.5 Q472 -8 442 -8 Q321 -8 321 119 Q321 119 344 359 Q344 409 292.5 409 Q241 409 202 348 L170 30 Q167 -2 107 -2 L79 -2 Q51 -2 36.5 7 Q22 16 22 29 L56 357 Q60 396 60 428 L58 484 Q58 500 91 510 Q124 520 174 520 Q193 520 198.5 503.5 Q204 487 206 452 Q232 484 275.5 507.5 Q319 531 363 531 Q495 531 495 404 Z M250.5 614 Q237 614 221 608.5 Q205 603 195 603 Q185 603 171.5 617 Q158 631 158 650 Q158 669 192 688 Q226 707 260 707 Q294 707 332 698.5 Q370 690 383.5 690 Q397 690 414 695.5 Q431 701 441.5 701 Q452 701 465 686.5 Q478 672 478 653 Q478 634 444 614.5 Q410 595 375.5 595 Q341 595 302.5 604.5 Q264 614 250.5 614 Z " />
<glyph glyph-name="ograve" unicode="&#xf2;" horiz-adv-x="569" d="M33 211 Q33 342 91 432 Q121 478 176.5 504.5 Q232 531 307 531 Q414 531 469 475 Q524 419 524 311 Q524 159 451 75.5 Q378 -8 250 -8 Q143 -8 88 48 Q33 104 33 211 Z M262 109 Q314 109 343.5 159.5 Q373 210 373 304 Q373 414 295 414 Q242 414 212.5 363.5 Q183 313 183 218 Q183 109 262 109 Z M408 611 Q408 595 366 595 Q324 595 302 622 Q280 649 245.5 690 Q211 731 211 738 Q211 754 276.5 754 Q342 754 355 727 Q365 706 374.5 686 Q384 666 389.5 655 Q395 644 400 634 Q408 615 408 611 Z " />
<glyph glyph-name="oacute" unicode="&#xf3;" horiz-adv-x="569" d="M33 211 Q33 342 91 432 Q121 478 176.5 504.5 Q232 531 307 531 Q414 531 469 475 Q524 419 524 311 Q524 159 451 75.5 Q378 -8 250 -8 Q143 -8 88 48 Q33 104 33 211 Z M262 109 Q314 109 343.5 159.5 Q373 210 373 304 Q373 414 295 414 Q242 414 212.5 363.5 Q183 313 183 218 Q183 109 262 109 Z M269 595 Q240 595 240 608 Q240 614 248.5 626.5 Q257 639 264.5 650 Q272 661 287 682.5 Q302 704 318.5 729 Q335 754 399 754 Q463 754 463 741 Q463 734 458.5 728.5 Q454 723 418 688.5 Q382 654 352 624.5 Q322 595 269 595 Z " />
<glyph glyph-name="ocircumflex" unicode="&#xf4;" horiz-adv-x="569" d="M33 211 Q33 342 91 432 Q121 478 176.5 504.5 Q232 531 307 531 Q414 531 469 475 Q524 419 524 311 Q524 159 451 75.5 Q378 -8 250 -8 Q143 -8 88 48 Q33 104 33 211 Z M262 109 Q314 109 343.5 159.5 Q373 210 373 304 Q373 414 295 414 Q242 414 212.5 363.5 Q183 313 183 218 Q183 109 262 109 Z M324 728 L335 728 Q383 728 394 709 L448 607 Q451 599 451 595 Q451 582 432 582 L410 582 Q361 582 346 606 L321 646 L290 607 Q271 582 221 582 L197 582 Q178 582 178 592 Q178 599 185 607 L261 709 Q275 728 324 728 Z " />
<glyph glyph-name="otilde" unicode="&#xf5;" horiz-adv-x="569" d="M33 211 Q33 342 91 432 Q121 478 176.5 504.5 Q232 531 307 531 Q414 531 469 475 Q524 419 524 311 Q524 159 451 75.5 Q378 -8 250 -8 Q143 -8 88 48 Q33 104 33 211 Z M262 109 Q314 109 343.5 159.5 Q373 210 373 304 Q373 414 295 414 Q242 414 212.5 363.5 Q183 313 183 218 Q183 109 262 109 Z M255.5 614 Q242 614 226 608.5 Q210 603 200 603 Q190 603 176.5 617 Q163 631 163 650 Q163 669 197 688 Q231 707 265 707 Q299 707 337 698.5 Q375 690 388.5 690 Q402 690 419 695.5 Q436 701 446.5 701 Q457 701 470 686.5 Q483 672 483 653 Q483 634 449 614.5 Q415 595 380.5 595 Q346 595 307.5 604.5 Q269 614 255.5 614 Z " />
<glyph glyph-name="odieresis" unicode="&#xf6;" horiz-adv-x="569" d="M33 211 Q33 342 91 432 Q121 478 176.5 504.5 Q232 531 307 531 Q414 531 469 475 Q524 419 524 311 Q524 159 451 75.5 Q378 -8 250 -8 Q143 -8 88 48 Q33 104 33 211 Z M262 109 Q314 109 343.5 159.5 Q373 210 373 304 Q373 414 295 414 Q242 414 212.5 363.5 Q183 313 183 218 Q183 109 262 109 Z M356 670 Q359 702 417.5 702 Q476 702 476 670 L469 610 Q464 578 406.5 578 Q349 578 349 610 L356 670 Z M176 670 Q179 702 237.5 702 Q296 702 296 670 L289 610 Q284 578 226.5 578 Q169 578 169 610 L176 670 Z " />
<glyph glyph-name="divide" unicode="&#xf7;" horiz-adv-x="560" d="M297 453 L308 453 Q365 453 365 421 L358 350 Q355 318 294 318 L283 318 Q250 318 238.5 325.5 Q227 333 227 350 L234 421 Q237 453 297 453 Z M29 206 Q29 279 66 279 L507 279 Q533 279 533 245 Q533 172 496 172 L55 172 Q29 172 29 206 Z M264 133 L275 133 Q331 133 331 101 L324 30 Q321 -2 261 -2 L250 -2 Q193 -2 193 30 L200 101 Q203 133 264 133 Z " />
<glyph glyph-name="oslash" unicode="&#xf8;" horiz-adv-x="569" d="M530 311 Q530 159 457 75.5 Q384 -8 256 -8 Q175 -8 126 23 L108 2 Q96 -11 85.5 -11 Q75 -11 65 -1 L51 11 Q38 21 38 32 Q38 43 48 54 L70 79 Q39 131 39 203.5 Q39 276 53 330.5 Q67 385 97 431.5 Q127 478 182.5 504.5 Q238 531 311 531 Q384 531 435 504 L459 532 Q470 545 479.5 545 Q489 545 502 535 L516 523 Q529 510 529 501 Q529 492 519 480 L494 451 Q530 397 530 311 Z M301 414 Q248 414 218.5 363.5 Q189 313 189 218 L346 401 Q328 414 301 414 Z M268 109 Q320 109 349.5 159.5 Q379 210 379 304 L379 317 L216 127 Q234 109 268 109 Z " />
<glyph glyph-name="ugrave" unicode="&#xf9;" horiz-adv-x="557" d="M436 -8 Q339 -8 320 72 Q291 38 248 15 Q205 -8 160 -8 Q92 -8 60 23 Q28 54 28 119 Q28 160 56 408 L65 493 Q68 525 128 525 L156 525 Q184 525 198.5 516 Q213 507 213 494 Q179 176 179 163 Q179 114 229.5 114 Q280 114 319 168 L353 493 Q356 525 416 525 L444 525 Q472 525 486.5 516 Q501 507 501 494 Q464 152 464 142 Q464 109 494 109 Q502 109 512 112 Q522 115 523 115 Q531 115 531 100 Q531 85 524 44 Q520 19 493 5.5 Q466 -8 436 -8 Z M383 611 Q383 595 341 595 Q299 595 277 622 Q255 649 220.5 690 Q186 731 186 738 Q186 754 251.5 754 Q317 754 330 727 Q340 706 349.5 686 Q359 666 364.5 655 Q370 644 374 634 Q383 615 383 611 Z " />
<glyph glyph-name="uacute" unicode="&#xfa;" horiz-adv-x="557" d="M436 -8 Q339 -8 320 72 Q291 38 248 15 Q205 -8 160 -8 Q92 -8 60 23 Q28 54 28 119 Q28 160 56 408 L65 493 Q68 525 128 525 L156 525 Q184 525 198.5 516 Q213 507 213 494 Q179 176 179 163 Q179 114 229.5 114 Q280 114 319 168 L353 493 Q356 525 416 525 L444 525 Q472 525 486.5 516 Q501 507 501 494 Q464 152 464 142 Q464 109 494 109 Q502 109 512 112 Q522 115 523 115 Q531 115 531 100 Q531 85 524 44 Q520 19 493 5.5 Q466 -8 436 -8 Z M244 595 Q215 595 215 608 Q215 614 223.5 626.5 Q232 639 239.5 650 Q247 661 262 682.5 Q277 704 293.5 729 Q310 754 374 754 Q438 754 438 741 Q438 734 433.5 728.5 Q429 723 393 688.5 Q357 654 327 624.5 Q297 595 244 595 Z " />
<glyph glyph-name="ucircumflex" unicode="&#xfb;" horiz-adv-x="557" d="M436 -8 Q339 -8 320 72 Q291 38 248 15 Q205 -8 160 -8 Q92 -8 60 23 Q28 54 28 119 Q28 160 56 408 L65 493 Q68 525 128 525 L156 525 Q184 525 198.5 516 Q213 507 213 494 Q179 176 179 163 Q179 114 229.5 114 Q280 114 319 168 L353 493 Q356 525 416 525 L444 525 Q472 525 486.5 516 Q501 507 501 494 Q464 152 464 142 Q464 109 494 109 Q502 109 512 112 Q522 115 523 115 Q531 115 531 100 Q531 85 524 44 Q520 19 493 5.5 Q466 -8 436 -8 Z M299 728 L310 728 Q358 728 369 709 L423 607 Q426 599 426 595 Q426 582 407 582 L385 582 Q336 582 321 606 L296 646 L265 607 Q246 582 196 582 L172 582 Q153 582 153 592 Q153 599 160 607 L236 709 Q250 728 299 728 Z " />
<glyph glyph-name="udieresis" unicode="&#xfc;" horiz-adv-x="557" d="M436 -8 Q339 -8 320 72 Q291 38 248 15 Q205 -8 160 -8 Q92 -8 60 23 Q28 54 28 119 Q28 160 56 408 L65 493 Q68 525 128 525 L156 525 Q184 525 198.5 516 Q213 507 213 494 Q179 176 179 163 Q179 114 229.5 114 Q280 114 319 168 L353 493 Q356 525 416 525 L444 525 Q472 525 486.5 516 Q501 507 501 494 Q464 152 464 142 Q464 109 494 109 Q502 109 512 112 Q522 115 523 115 Q531 115 531 100 Q531 85 524 44 Q520 19 493 5.5 Q466 -8 436 -8 Z M331 670 Q334 702 392.5 702 Q451 702 451 670 L444 610 Q439 578 381.5 578 Q324 578 324 610 L331 670 Z M151 670 Q154 702 212.5 702 Q271 702 271 670 L264 610 Q259 578 201.5 578 Q144 578 144 610 L151 670 Z " />
<glyph glyph-name="yacute" unicode="&#xfd;" horiz-adv-x="481" d="M27 499 Q27 525 91 525 L123 525 Q172 525 177 504 L216 319 Q220 300 232 198 L236 198 Q263 287 276 319 L355 504 Q364 525 413 525 L437 525 Q495 525 495 504 Q495 502 490 485 L190 -185 Q181 -206 132 -206 L115 -206 Q57 -206 57 -186 Q57 -178 63 -167 L144 0 Q27 494 27 499 Z M228 595 Q199 595 199 608 Q199 614 207.5 626.5 Q216 639 223.5 650 Q231 661 246 682.5 Q261 704 277.5 729 Q294 754 358 754 Q422 754 422 741 Q422 734 417.5 728.5 Q413 723 377 688.5 Q341 654 311 624.5 Q281 595 228 595 Z " />
<glyph glyph-name="thorn" unicode="&#xfe;" horiz-adv-x="570" d="M197 754 L225 754 Q253 754 267.5 745 Q282 736 282 723 L256 475 Q305 531 377.5 531 Q450 531 494 474.5 Q538 418 538 314 Q538 170 476 81 Q414 -8 316 -8 Q257 -8 209 32 L187 -174 Q184 -206 124 -206 L96 -206 Q68 -206 53.5 -197 Q39 -188 39 -175 L134 722 Q137 754 197 754 Z M320 410 Q279 410 243 354 L219 132 Q247 109 282 109 Q333 109 360.5 159.5 Q388 210 388 310 Q388 410 320 410 Z " />
<glyph glyph-name="ydieresis" unicode="&#xff;" horiz-adv-x="481" d="M27 499 Q27 525 91 525 L123 525 Q172 525 177 504 L216 319 Q220 300 232 198 L236 198 Q263 287 276 319 L355 504 Q364 525 413 525 L437 525 Q495 525 495 504 Q495 502 490 485 L190 -185 Q181 -206 132 -206 L115 -206 Q57 -206 57 -186 Q57 -178 63 -167 L144 0 Q27 494 27 499 Z M315 670 Q318 702 376.5 702 Q435 702 435 670 L428 610 Q423 578 365.5 578 Q308 578 308 610 L315 670 Z M135 670 Q138 702 196.5 702 Q255 702 255 670 L248 610 Q243 578 185.5 578 Q128 578 128 610 L135 670 Z " />
<glyph glyph-name="dotlessi" unicode="&#x131;" horiz-adv-x="265" d="M130 525 L158 525 Q186 525 200.5 516 Q215 507 215 494 Q178 152 178 142 Q178 109 208 109 Q216 109 226 112 Q236 115 237 115 Q245 115 245 100 Q245 85 238 44 Q234 19 207 5.5 Q180 -8 150 -8 Q29 -8 29 119 L67 493 Q70 525 130 525 Z " />
<glyph glyph-name="Lslash" unicode="&#x141;" horiz-adv-x="486" d="M29 283 Q20 283 20 303 Q20 349 53 369 L73 381 L104 670 Q107 702 167 702 L202 702 Q259 702 259 671 L238 475 L330 528 Q340 534 346 534 Q355 534 355 514 Q355 466 322 448 L230 395 L202 131 L425 131 Q451 131 451 91 Q451 0 413 0 L73 0 Q53 0 45 7 Q37 14 37 32 L65 300 L45 289 Q35 283 29 283 Z " />
<glyph glyph-name="lslash" unicode="&#x142;" horiz-adv-x="293" d="M43 119 Q43 132 63 327 L44 317 Q34 311 28 311 Q19 311 19 331 Q19 377 52 397 L71 409 L106 725 Q110 755 158 755 L206 755 Q253 755 253 728 Q241 620 228 497 L255 512 Q265 518 271 518 Q280 518 280 498 Q280 450 247 432 L220 416 Q192 157 192 142 Q192 109 222 109 Q230 109 240 112 Q250 115 251 115 Q259 115 259 100 Q259 85 252 44 Q248 19 221 5.5 Q194 -8 164 -8 Q43 -8 43 119 Z " />
<glyph glyph-name="OE" unicode="&#x152;" horiz-adv-x="1021" d="M605 700 L971 700 Q997 700 997 660 Q997 569 959 569 L707 569 L691 424 L915 424 Q941 424 941 384 Q941 293 903 293 L678 293 L660 131 L912 131 Q938 131 938 91 Q938 0 900 0 L532 0 Q512 0 504 7 Q496 14 496 32 L496 36 Q418 -8 318 -8 Q183 -8 112 66.5 Q41 141 41 282 Q41 485 135.5 596.5 Q230 708 393 708 Q494 708 561 662 Q565 700 605 700 Z M342 123 Q429 123 480 195.5 Q531 268 531 400 Q531 576 389 576 Q301 576 250.5 503.5 Q200 431 200 298 Q200 123 342 123 Z " />
<glyph glyph-name="oe" unicode="&#x153;" horiz-adv-x="871" d="M39 211 Q39 342 97 432 Q127 478 182.5 504.5 Q238 531 313 531 Q417 531 474 472 Q547 531 649 531 Q706 531 747 516 Q788 501 808 477 Q843 433 843 386 Q843 294 778 248.5 Q713 203 628 203 Q573 203 524 210 Q527 152 553.5 130.5 Q580 109 622 109 Q664 109 700 120 Q736 131 758.5 142 Q781 153 784 153 Q792 153 792 139 Q792 124 789 96.5 Q786 69 784 62 Q773 25 719 8.5 Q665 -8 610 -8 Q496 -8 432 53 Q358 -8 253.5 -8 Q149 -8 94 48 Q39 104 39 211 Z M639 414 Q556 414 531 302 L579 302 Q643 302 671 321.5 Q699 341 699 367 Q699 414 639 414 Z M268 109 Q320 109 349.5 159.5 Q379 210 379 304 Q379 414 301 414 Q248 414 218.5 363.5 Q189 313 189 218 Q189 109 268 109 Z " />
<glyph glyph-name="Scaron" unicode="&#x160;" horiz-adv-x="500" d="M133.5 659.5 Q172 685 216 696.5 Q260 708 321.5 708 Q383 708 432.5 687 Q482 666 482 640 Q482 619 458.5 585 Q435 551 418 551 Q414 551 400 558 Q362 576 320 576 Q278 576 257 569 Q236 562 226 551 Q210 532 210 507.5 Q210 483 236.5 463.5 Q263 444 301 428.5 Q339 413 377 393.5 Q415 374 441.5 335 Q468 296 468 239.5 Q468 183 452.5 138.5 Q437 94 412.5 67 Q388 40 354 22 Q295 -8 218 -8 Q125 -8 62 24 Q26 43 26 70 Q26 181 52 181 Q57 181 78 166 Q139 123 206 123 Q247 123 277 141 Q307 159 307 203 Q307 227 288 246 Q269 265 240 276 Q211 287 178 304 Q145 321 116 339.5 Q87 358 68 393 Q49 428 49 483.5 Q49 539 72 586.5 Q95 634 133.5 659.5 Z M313 785 L302 785 Q254 785 243 804 L189 906 Q186 914 186 918 Q186 931 205 931 L227 931 Q275 931 291 907 L316 867 L347 906 Q365 929 416 931 L440 931 Q459 931 459 921 Q459 914 452 906 L376 804 Q362 785 313 785 Z " />
<glyph glyph-name="scaron" unicode="&#x161;" horiz-adv-x="413" d="M251 415 Q194 415 194 375 Q194 354 222 339 Q250 324 283 313.5 Q316 303 344 271 Q372 239 372 188 Q372 96 315 44 Q258 -8 166 -8 Q128 -8 92 0 Q22 16 22 53 Q22 143 44 143 Q46 143 62 134 Q108 109 154 109 Q220 109 220 159 Q220 180 201.5 193.5 Q183 207 157 216 Q131 225 105 237.5 Q79 250 60.5 277.5 Q42 305 42 346 Q42 435 97 483 Q152 531 240 531 Q294 531 340 516.5 Q386 502 386 470 Q386 454 366.5 424.5 Q347 395 333 395 Q331 395 306 405 Q281 415 251 415 Z M236 582 L225 582 Q177 582 166 601 L112 703 Q109 710 109 715 Q109 728 128 728 L150 728 Q198 728 214 704 L239 664 L270 703 Q288 726 339 728 L363 728 Q382 728 382 718 Q382 711 375 703 L299 601 Q285 582 236 582 Z " />
<glyph glyph-name="Ydieresis" unicode="&#x178;" horiz-adv-x="559" d="M38 657 Q32 669 32 679 Q32 689 42 694 Q57 702 96 702 L139 702 Q188 702 197 683 L297 469 L442 683 Q455 702 504 702 L540 702 Q601 702 601 682 Q601 673 590 657 L357 333 L325 30 Q322 -2 262 -2 L228 -2 Q171 -2 171 30 L203 336 L38 657 Z M372 850 Q375 882 433.5 882 Q492 882 492 850 L485 790 Q480 758 422.5 758 Q365 758 365 790 L372 850 Z M192 850 Q195 882 253.5 882 Q312 882 312 850 L305 790 Q300 758 242.5 758 Q185 758 185 790 L192 850 Z " />
<glyph glyph-name="Zcaron" unicode="&#x17d;" horiz-adv-x="616" d="M524 131 Q550 131 550 91 Q550 0 512 0 L33 0 Q20 0 10.5 31 Q1 62 1 80.5 Q1 99 4 102 L385 569 L107 569 Q81 569 81 609 Q81 700 119 700 L572 700 Q585 700 594.5 669 Q604 638 604 619.5 Q604 601 601 598 L219 131 L524 131 Z M368 762 L357 762 Q309 762 298 781 L244 883 Q241 891 241 895 Q241 908 260 908 L282 908 Q330 908 346 884 L371 844 L402 883 Q420 906 471 908 L495 908 Q514 908 514 898 Q514 891 507 883 L431 781 Q417 762 368 762 Z " />
<glyph glyph-name="zcaron" unicode="&#x17e;" horiz-adv-x="489" d="M414 117 Q440 117 440 81 Q440 0 402 0 L31 0 Q22 0 14.5 25.5 Q7 51 7 69.5 Q7 88 11 92 L272 406 L84 406 Q58 406 58 442 Q58 523 96 523 L448 523 Q457 523 464.5 497.5 Q472 472 472 453.5 Q472 435 468 431 L207 117 L414 117 Z M280 582 L269 582 Q221 582 210 601 L156 703 Q153 710 153 715 Q153 728 172 728 L194 728 Q242 728 258 704 L283 664 L314 703 Q332 726 383 728 L407 728 Q426 728 426 718 Q426 711 419 703 L343 601 Q329 582 280 582 Z " />
<glyph glyph-name="florin" unicode="&#x192;" horiz-adv-x="332" d="M291 523 Q301 523 304 518.5 Q307 514 307 493 Q307 472 289 439 Q271 406 245 406 L215 406 L135 -174 Q130 -206 72 -206 L44 -206 Q16 -206 1.5 -197 Q-13 -188 -13 -175 L67 406 L47 406 Q23 406 23 435 Q23 523 63 523 L84 523 L93 598 Q102 674 146.5 717 Q191 760 262 760 Q356 760 356 716 Q356 702 343 670 Q330 638 317 638 Q314 638 305 640.5 Q296 643 284 643 Q248 643 242 600 L231 523 L291 523 Z " />
<glyph glyph-name="circumflex" unicode="&#x2c6;" horiz-adv-x="320" d="M158 728 L169 728 Q217 728 228 709 L282 607 Q285 599 285 595 Q285 582 266 582 L244 582 Q195 582 180 606 L155 646 L124 607 Q105 582 55 582 L31 582 Q12 582 12 592 Q12 599 19 607 L95 709 Q109 728 158 728 Z " />
<glyph glyph-name="caron" unicode="&#x2c7;" horiz-adv-x="320" d="M154 582 L143 582 Q95 582 84 601 L30 703 Q27 710 27 715 Q27 728 46 728 L68 728 Q116 728 132 704 L157 664 L188 703 Q206 726 257 728 L281 728 Q300 728 300 718 Q300 711 293 703 L217 601 Q203 582 154 582 Z " />
<glyph glyph-name="breve" unicode="&#x2d8;" horiz-adv-x="320" d="M112.5 673.5 Q131 666 160 666 Q189 666 209 673.5 Q229 681 236 690 Q254 715 281.5 715 Q309 715 309 691 Q309 646 261.5 610.5 Q214 575 152 575 Q90 575 52 605.5 Q14 636 14 675.5 Q14 715 53 715 Q76 715 89 690 Q94 681 112.5 673.5 Z " />
<glyph glyph-name="dotaccent" unicode="&#x2d9;" horiz-adv-x="320" d="M107 670 Q110 702 168.5 702 Q227 702 227 670 L220 610 Q215 578 157.5 578 Q100 578 100 610 L107 670 Z " />
<glyph glyph-name="ring" unicode="&#x2da;" horiz-adv-x="320" d="M259 655.5 Q259 613 229.5 581.5 Q200 550 155 550 Q110 550 84.5 575 Q59 600 59 643 Q59 686 89.5 717.5 Q120 749 164.5 749 Q209 749 234 723.5 Q259 698 259 655.5 Z M123 645 Q123 630 132.5 621 Q142 612 157 612 Q172 612 184 623.5 Q196 635 196 650 Q196 665 186.5 675 Q177 685 162 685 Q147 685 135 672.5 Q123 660 123 645 Z " />
<glyph glyph-name="ogonek" unicode="&#x2db;" horiz-adv-x="320" d="M121 14 Q140 14 140 -3 Q140 -9 131 -29.5 Q122 -50 122 -70 Q122 -113 180 -113 Q198 -113 217 -106 Q236 -99 238 -99 Q249 -99 249 -128.5 Q249 -158 223 -170.5 Q197 -183 161 -183 Q99 -183 76 -156 Q53 -129 53 -93.5 Q53 -58 70.5 -22 Q88 14 121 14 Z " />
<glyph glyph-name="tilde" unicode="&#x2dc;" horiz-adv-x="365" d="M115.5 614 Q102 614 86 608.5 Q70 603 60 603 Q50 603 36.5 617 Q23 631 23 650 Q23 669 57 688 Q91 707 125 707 Q159 707 197 698.5 Q235 690 248.5 690 Q262 690 279 695.5 Q296 701 306.5 701 Q317 701 330 686.5 Q343 672 343 653 Q343 634 309 614.5 Q275 595 240.5 595 Q206 595 167.5 604.5 Q129 614 115.5 614 Z " />
<glyph glyph-name="hungarumlaut" unicode="&#x2dd;" horiz-adv-x="384" d="M196 595 Q167 595 167 608 Q167 614 175.5 626.5 Q184 639 191.5 650 Q199 661 214 682.5 Q229 704 245.5 729 Q262 754 326 754 Q390 754 390 741 Q390 734 385.5 728.5 Q381 723 345 688.5 Q309 654 279 624.5 Q249 595 196 595 Z M14 595 Q-15 595 -15 608 Q-15 614 -6.5 626.5 Q2 639 9.5 650 Q17 661 32 682.5 Q47 704 63.5 729 Q80 754 144 754 Q208 754 208 741 Q208 734 203.5 728.5 Q199 723 177.5 702.5 Q156 682 148 674 Q124 652 95.5 623.5 Q67 595 14 595 Z " />
<glyph glyph-name="pi" unicode="&#x3c0;" horiz-adv-x="616" d="M32 20 L35 31 Q69 105 100 210 Q131 315 145 406 Q101 406 79 400 Q57 394 55 394 Q26 394 26 456 Q26 495 65.5 509 Q105 523 189 523 L594 523 Q625 523 625 493 Q625 481 615 439 Q608 406 575 406 L528 406 L501 154 Q496 107 496 81 Q496 55 496 42 L497 30 Q497 -2 433 -2 L406 -2 Q350 -2 350 80 Q350 83 353 119 L383 406 L290 406 Q275 311 243 200.5 Q211 90 179 27 Q164 -2 106 -2 L93 -2 Q65 -2 48.5 4.5 Q32 11 32 20 Z " />
<glyph glyph-name="endash" unicode="&#x2013;" horiz-adv-x="500" d="M-3 246 Q-3 319 34 319 L478 319 Q504 319 504 285 Q504 212 467 212 L23 212 Q-3 212 -3 246 Z " />
<glyph glyph-name="emdash" unicode="&#x2014;" horiz-adv-x="1000" d="M0 246 Q0 319 37 319 L974 319 Q1000 319 1000 285 Q1000 212 963 212 L26 212 Q0 212 0 246 Z " />
<glyph glyph-name="quoteleft" unicode="&#x2018;" horiz-adv-x="212" d="M74 475 L55 475 Q-1 475 -1 515 Q-1 555 30 613 Q61 671 100 712.5 Q139 754 162 754 Q204 754 204 734 Q204 723 191 698 Q150 621 138 519 Q135 475 74 475 Z " />
<glyph glyph-name="quoteright" unicode="&#x2019;" horiz-adv-x="212" d="M138 754 L157 754 Q213 754 213 714 Q213 674 182 616 Q151 558 112 516.5 Q73 475 50 475 Q8 475 8 495 Q8 506 21 530 Q62 608 74 710 Q77 754 138 754 Z " />
<glyph glyph-name="quotesinglbase" unicode="&#x201a;" horiz-adv-x="198" d="M130 154 L149 154 Q205 154 205 114 Q205 74 174 16 Q143 -42 104 -83.5 Q65 -125 42 -125 Q0 -125 0 -105 Q0 -94 13 -70 Q54 8 66 110 Q69 154 130 154 Z " />
<glyph glyph-name="quotedblleft" unicode="&#x201c;" horiz-adv-x="350" d="M231 475 L212 475 Q156 475 156 515 Q156 555 187 613 Q218 671 257 712.5 Q296 754 319 754 Q361 754 361 734 Q361 723 348 698 Q307 621 295 519 Q292 475 231 475 Z M54 475 L35 475 Q-21 475 -21 515 Q-21 555 10 613 Q41 671 80 712.5 Q119 754 142 754 Q184 754 184 734 Q184 723 171 698 Q130 621 118 519 Q115 475 54 475 Z " />
<glyph glyph-name="quotedblright" unicode="&#x201d;" horiz-adv-x="350" d="M295 754 L314 754 Q370 754 370 714 Q370 674 339 616 Q308 558 269 516.5 Q230 475 207 475 Q165 475 165 495 Q165 506 178 530 Q219 608 231 710 Q234 754 295 754 Z M118 754 L137 754 Q193 754 193 714 Q193 674 162 616 Q131 558 92 516.5 Q53 475 30 475 Q-12 475 -12 495 Q-12 506 1 530 Q42 608 54 710 Q57 754 118 754 Z " />
<glyph glyph-name="quotedblbase" unicode="&#x201e;" horiz-adv-x="336" d="M288 154 L307 154 Q363 154 363 114 Q363 74 332 16 Q301 -42 262 -83.5 Q223 -125 200 -125 Q158 -125 158 -105 Q158 -94 171 -70 Q212 8 224 110 Q227 154 288 154 Z M111 154 L130 154 Q186 154 186 114 Q186 74 155 16 Q124 -42 85 -83.5 Q46 -125 23 -125 Q-19 -125 -19 -105 Q-19 -94 -6 -70 Q35 8 47 110 Q50 154 111 154 Z " />
<glyph glyph-name="dagger" unicode="&#x2020;" horiz-adv-x="535" d="M88 410 Q62 410 62 444 Q62 517 99 517 L234 517 L250 670 Q253 702 304 702 L319 702 Q345 702 355 694.5 Q365 687 365 670 L349 517 L484 517 Q510 517 510 483 Q510 410 473 410 L338 410 L284 -108 Q281 -140 230 -140 L215 -140 Q168 -140 168 -113 L223 410 L88 410 Z " />
<glyph glyph-name="daggerdbl" unicode="&#x2021;" horiz-adv-x="535" d="M88 410 Q62 410 62 444 Q62 517 99 517 L234 517 L250 670 Q253 702 304 702 L319 702 Q345 702 355 694.5 Q365 687 365 670 L349 517 L484 517 Q510 517 510 483 Q510 410 473 410 L338 410 L310 150 L446 150 Q472 150 472 116 Q472 43 435 43 L299 43 L284 -108 Q281 -140 230 -140 L215 -140 Q168 -140 168 -113 Q170 -98 174 -58.5 Q178 -19 185 43 L50 43 Q24 43 24 77 Q24 150 61 150 L196 150 L223 410 L88 410 Z " />
<glyph glyph-name="bullet" unicode="&#x2022;" horiz-adv-x="336" d="M159.5 194 Q102 194 68 228 Q34 262 34 316 Q34 370 76 414.5 Q118 459 175 459 Q232 459 266.5 424.5 Q301 390 301 335 Q301 280 259 237 Q217 194 159.5 194 Z " />
<glyph glyph-name="ellipsis" unicode="&#x2026;" horiz-adv-x="617" d="M512 154 L544 154 Q600 154 600 122 L591 30 Q588 -2 527 -2 L495 -2 Q462 -2 450.5 5.5 Q439 13 439 30 L448 122 Q451 154 512 154 Z M302 154 L334 154 Q390 154 390 122 L381 30 Q378 -2 317 -2 L285 -2 Q252 -2 240.5 5.5 Q229 13 229 30 L238 122 Q241 154 302 154 Z M92 154 L124 154 Q180 154 180 122 L171 30 Q168 -2 107 -2 L75 -2 Q42 -2 30.5 5.5 Q19 13 19 30 L28 122 Q31 154 92 154 Z " />
<glyph glyph-name="perthousand" unicode="&#x2030;" horiz-adv-x="1038" d="M182 372 Q47 372 47 508 Q47 567 63 609 Q79 651 106 671 Q156 708 217 708 Q351 708 351 573 Q351 454 293 410 Q244 372 182 372 Z M562 702 L606 702 Q626 702 626 690 Q626 684 620 675 L194 25 Q177 -2 148 -2 L104 -2 Q84 -2 84 10 Q84 16 90 25 L516 675 Q533 702 562 702 Z M190 454 Q221 454 234.5 489.5 Q248 525 248 565 Q248 622 208 622 Q177 622 163.5 590 Q150 558 150 517 Q150 454 190 454 Z M820 -8 Q686 -8 686 127 Q686 246 744 290 Q792 328 855 328 Q990 328 990 191 Q990 132 974 90.5 Q958 49 931 29 Q881 -8 820 -8 Z M493 -8 Q359 -8 359 127 Q359 246 416 290 Q465 328 528 328 Q663 328 663 191 Q663 132 647 90.5 Q631 49 604 29 Q554 -8 493 -8 Z M828 74 Q858 74 872 108.5 Q886 143 886 182 Q886 242 846 242 Q824 242 810 223 Q788 191 788 132.5 Q788 74 828 74 Z M501 74 Q531 74 545 108.5 Q559 143 559 182 Q559 242 519 242 Q497 242 484 223 Q461 191 461 132.5 Q461 74 501 74 Z " />
<glyph glyph-name="guilsinglleft" unicode="&#x2039;" horiz-adv-x="300" d="M191 455 Q205 469 220 469 Q235 469 254.5 453.5 Q274 438 274 425 Q274 412 262 398 L138 258 L233 118 Q239 108 239 96 Q239 84 216.5 65 Q194 46 177.5 46 Q161 46 150 61 L39 214 Q26 232 27 247 Q27 280 48 302 L191 455 Z " />
<glyph glyph-name="guilsinglright" unicode="&#x203a;" horiz-adv-x="300" d="M270 268 Q270 235 249 213 L106 60 Q92 46 77 46 Q62 46 42.5 61.5 Q23 77 23 90 Q23 103 35 117 L159 257 L64 397 Q58 408 58 419.5 Q58 431 80.5 450 Q103 469 119.5 469 Q136 469 147 454 L258 301 Q270 284 270 268 Z " />
<glyph glyph-name="fraction" unicode="&#x2044;" horiz-adv-x="264" d="M357 700 L374 700 Q394 700 394 690 Q394 684 387 674 L-40 26 Q-58 0 -87 0 L-104 0 Q-124 0 -124 8 Q-124 16 -117 26 L310 674 Q327 700 357 700 Z " />
<glyph glyph-name="Euro" unicode="&#x20ac;" horiz-adv-x="600" d="M434 233 L216 233 Q239 123 350 123 Q423 123 488 152 Q511 162 513 162 Q525 162 525 147 Q525 105 515 52 Q509 20 448 6 Q387 -8 336 -8 Q202 -8 132 51 Q62 110 52 233 L12 233 Q-11 233 -11 256 Q-11 308 22 308 L51 308 Q52 334 58 384 L28 384 Q5 384 5 407 Q5 459 38 459 L74 459 Q145 708 416 708 Q476 708 533 689.5 Q590 671 590 644 Q590 623 561.5 585.5 Q533 548 515 548 Q513 548 498 555 Q455 576 399 576 Q278 576 234 459 L486 459 Q495 459 497.5 456 Q500 453 500 439 Q500 425 486.5 404.5 Q473 384 450 384 L215 384 Q210 346 210 308 L470 308 Q479 308 481.5 305 Q484 302 484 288 Q484 274 470.5 253.5 Q457 233 434 233 Z " />
<glyph glyph-name="trademark" unicode="&#x2122;" horiz-adv-x="772" d="M346 323 L346 683 Q346 701 380 701 L410 701 Q437 701 445 686 L544 510 L644 686 Q652 701 680 701 L709 701 Q743 701 743 683 L743 323 Q743 305 709 305 L693 305 Q659 305 659 323 L659 556 L656 559 L575 411 Q570 400 553 400 L536 400 Q520 400 514 411 L432 559 L430 556 L430 323 Q430 305 396 305 L380 305 Q346 305 346 323 Z M129 323 L129 626 L40 626 Q23 626 23 654 L23 672 Q23 700 40 700 L306 700 Q323 700 323 672 L323 654 Q323 626 306 626 L217 626 L217 323 Q217 305 183 305 L163 305 Q129 305 129 323 Z " />
<glyph glyph-name="Omega" unicode="&#x2126;" horiz-adv-x="731" d="M389 576 Q299 576 248.5 501.5 Q198 427 198 283.5 Q198 140 293 110 Q304 106 304 90 Q304 0 265 0 L18 0 Q-6 0 -6 33.5 Q-6 67 3 99 Q12 131 32 131 Q62 131 100 118 L112 113 Q42 192 42 314 Q42 500 141 604 Q240 708 403 708 Q542 708 616 634.5 Q690 561 690 422 Q690 222 568 113 Q619 131 652 131 Q678 131 678 95 Q678 0 638 0 L391 0 Q366 0 366 33 Q366 104 387 110 Q450 128 490.5 203 Q531 278 531 402 Q531 576 389 576 Z " />
<glyph glyph-name="arrowleft" unicode="&#x2190;" horiz-adv-x="750" d="M343 0 L257 0 Q226 0 208 21 L5 247 Q0 252 0 263.5 Q0 275 8 283 L258 508 Q282 529 311 529 L397 529 Q416 529 416 522 Q414 517 404 508 L192 319 L724 319 Q740 319 746 309 Q752 299 752 275 Q752 212 713 212 L180 212 L354 21 Q362 11 362 8 Q362 0 343 0 Z " />
<glyph glyph-name="arrowup" unicode="&#x2191;" horiz-adv-x="529" d="M246 5 Q238 -2 227 -2 Q216 -2 210 5 L9 231 Q-7 248 -7 272 L2 368 Q4 387 11 387 Q14 387 24 377 L193 185 L245 679 Q248 711 292 711 L311 711 Q352 711 352 679 L300 184 L511 378 Q523 388 527 388 Q531 388 531 380 Q531 372 522 283 Q519 254 496 232 L246 5 Z " />
<glyph glyph-name="arrowright" unicode="&#x2192;" horiz-adv-x="750" d="M409 529 L495 529 Q526 529 544 508 L747 282 Q752 277 752 265.5 Q752 254 744 246 L494 21 Q470 0 441 0 L355 0 Q336 0 336 7 Q338 12 348 21 L560 210 L28 210 Q12 210 6 220 Q0 230 0 254 Q0 317 39 317 L572 317 L398 508 Q390 518 390 521 Q390 529 409 529 Z " />
<glyph glyph-name="arrowdown" unicode="&#x2193;" horiz-adv-x="529" d="M282 704 Q290 711 301 711 Q312 711 318 704 L519 478 Q535 461 535 437 L526 341 Q524 322 517 322 Q514 322 504 332 L335 524 L283 30 Q280 -2 236 -2 L217 -2 Q176 -2 176 30 L228 525 L17 331 Q5 321 1 321 Q-3 321 -3 329 Q-3 337 6 426 Q9 455 32 477 L282 704 Z " />
<glyph glyph-name="partialdiff" unicode="&#x2202;" horiz-adv-x="514" d="M2 171 Q2 274 74.5 351.5 Q147 429 256 429 Q310 429 350 403 Q350 514 318 562.5 Q286 611 225 611 Q196 611 167 598 Q138 585 134 585 Q119 585 103 608 Q87 631 87 649 Q87 678 130 706 Q173 734 251 734 Q365 734 429.5 647 Q494 560 494 410 Q494 221 413.5 105.5 Q333 -10 194 -10 Q107 -10 54.5 40 Q2 90 2 171 Z M334 273 Q297 304 251.5 304 Q206 304 175 268 Q144 232 144 192 Q144 114 207 114 Q300 114 334 273 Z " />
<glyph glyph-name="increment" unicode="&#x2206;" horiz-adv-x="708" d="M384 710 L445 710 Q474 710 483 683 L668 130 Q673 113 673 102 Q673 91 667 35 Q664 0 628 0 L51 0 Q20 0 20 27 Q20 28 20.5 31 Q21 34 22 48.5 Q23 63 24.5 84.5 Q26 106 39 130 L340 683 Q354 710 384 710 Z M182 130 L524 130 L398 513 L388 513 L182 130 Z " />
<glyph glyph-name="product" unicode="&#x220f;" horiz-adv-x="750" d="M76 570 Q50 570 50 610 Q50 700 88 700 L745 700 Q771 700 771 660 Q771 570 733 570 L649 570 L582 -72 Q579 -104 518 -104 L494 -104 Q461 -104 449.5 -96.5 Q438 -89 438 -72 L505 570 L299 570 L232 -72 Q229 -104 168 -104 L144 -104 Q111 -104 99.5 -96.5 Q88 -89 88 -72 L155 570 L76 570 Z " />
<glyph glyph-name="summation" unicode="&#x2211;" horiz-adv-x="593" d="M508 -102 L17 -102 Q-18 -102 -18 -71 Q-18 -13 1 13 L252 303 L68 585 Q59 599 59 621 L63 660 Q67 700 108 700 L576 700 Q602 700 602 660 Q602 570 564 570 L251 570 L407 330 Q413 320 413 307.5 Q413 295 402 281 L186 28 L520 28 Q546 28 546 -12 Q546 -102 508 -102 Z " />
<glyph glyph-name="minus" unicode="&#x2212;" horiz-adv-x="560" d="M26 206 Q26 279 63 279 L507 279 Q533 279 533 245 Q533 172 496 172 L52 172 Q26 172 26 206 Z " />
<glyph glyph-name="radical" unicode="&#x221a;" horiz-adv-x="618" d="M608 814 L637 814 Q679 814 679 794 Q679 791 677 783 L363 -125 Q353 -156 303 -156 L273 -156 Q223 -156 216 -126 L116 257 L74 242 Q65 239 58 239 Q39 239 33 263 Q22 304 22 307 Q22 331 50 341 L183 391 Q192 394 199 394 Q220 394 226 371 L281 152 Q293 101 296 56 L298 38 L303 38 Q319 121 330 153 L548 783 Q558 814 608 814 Z " />
<glyph glyph-name="infinity" unicode="&#x221e;" horiz-adv-x="788" d="M384 209 Q326 155 283.5 133 Q241 111 185.5 111 Q130 111 88 153.5 Q46 196 46 261 Q46 344 98 396 Q150 448 238 448 Q326 448 399 352 Q501 448 586 448 Q656 448 699.5 407.5 Q743 367 743 293.5 Q743 220 690.5 165.5 Q638 111 559 111 Q465 111 384 209 Z M553 225 Q578 225 596.5 243.5 Q615 262 615 286.5 Q615 311 603 324 Q591 337 570 337 Q521 337 465 278 Q508 225 553 225 Z M224 225 Q263 225 324 276 Q275 337 231 337 Q206 337 189.5 319.5 Q173 302 173 277 Q173 252 187 238.5 Q201 225 224 225 Z " />
<glyph glyph-name="integral" unicode="&#x222b;" horiz-adv-x="372" d="M355 768 Q319 768 300 730.5 Q281 693 272 607 Q263 521 251.5 349.5 Q240 178 228.5 69 Q217 -40 165.5 -105.5 Q114 -171 33.5 -171 Q-47 -171 -47 -126 Q-47 -44 -28 -44 Q-27 -44 -11.5 -49.5 Q4 -55 20 -55 Q54 -55 71.5 -18 Q89 19 98 102.5 Q107 186 118.5 357 Q130 528 142 640.5 Q154 753 205.5 818.5 Q257 884 343 884 Q388 884 412 869 Q436 854 436 831 Q436 808 422.5 784 Q409 760 396 760 Q394 760 381 764 Q368 768 355 768 Z " />
<glyph glyph-name="approxequal" unicode="&#x2248;" horiz-adv-x="547" d="M177.5 290 Q156 290 136.5 284.5 Q117 279 106.5 279 Q96 279 83 296 Q70 313 70 330 Q70 356 121 383.5 Q172 411 212 411 Q252 411 306 390 Q360 369 379 369 Q398 369 419 376.5 Q440 384 452.5 384 Q465 384 477.5 364 Q490 344 490 326 Q490 298 437 273 Q384 248 345 248 Q306 248 252.5 269 Q199 290 177.5 290 Z M156.5 94 Q135 94 115.5 88.5 Q96 83 85.5 83 Q75 83 62 100 Q49 117 49 134 Q49 160 100 187.5 Q151 215 191 215 Q231 215 285 194 Q339 173 358 173 Q377 173 398 180.5 Q419 188 431.5 188 Q444 188 456.5 168 Q469 148 469 130 Q469 102 416 77 Q363 52 324 52 Q285 52 231.5 73 Q178 94 156.5 94 Z " />
<glyph glyph-name="notequal" unicode="&#x2260;" horiz-adv-x="560" d="M47 301 Q47 374 84 374 L346 374 L386 424 Q406 450 435 450 L480 450 Q499 450 499 440 Q499 435 491 424 L451 374 L504 374 Q530 374 530 340 Q530 267 493 267 L366 267 L308 193 L485 193 Q511 193 511 159 Q511 86 474 86 L223 86 L180 32 Q160 6 131 6 L86 6 Q67 6 67 15 Q67 21 75 32 L118 86 L54 86 Q28 86 28 120 Q28 193 65 193 L203 193 L261 267 L73 267 Q47 267 47 301 Z " />
<glyph glyph-name="lessequal" unicode="&#x2264;" horiz-adv-x="566" d="M43 347 Q43 404 78 417 L516 576 Q524 578 527 578 Q543 578 543 553 Q543 476 504 461 L200 365 L480 249 Q505 238 505 202 Q505 131 478 131 Q474 131 468 134 L67 314 Q43 324 43 347 Z M11 34 Q11 107 48 107 L465 107 Q491 107 491 73 Q491 0 454 0 L37 0 Q11 0 11 34 Z " />
<glyph glyph-name="greaterequal" unicode="&#x2265;" horiz-adv-x="566" d="M538 362 Q538 305 503 292 L65 133 Q57 131 54 131 Q38 131 38 156 Q38 233 77 248 L381 344 L101 460 Q76 470 76 507 Q76 578 103 578 Q107 578 113 575 L514 395 Q538 384 538 362 Z M506 73 Q506 0 469 0 L52 0 Q26 0 26 34 Q26 107 63 107 L480 107 Q506 107 506 73 Z " />
<glyph glyph-name="lozenge" unicode="&#x25ca;" horiz-adv-x="558" d="M44 324 Q40 333 40 345.5 Q40 358 49 372 L246 685 Q262 710 309 710 L325 710 Q373 710 384 685 L515 372 Q518 363 518 349 Q518 335 510 324 L317 17 Q301 -8 254 -8 L230 -8 Q182 -8 171 17 L44 324 Z M256 132 L382 348 L302 561 L176 348 L256 132 Z " />
<glyph glyph-name="fi" unicode="&#xfb01;" horiz-adv-x="563" d="M300 523 Q310 523 313 518.5 Q316 514 316 492 Q316 470 300.5 438 Q285 406 258 406 L228 406 L189 30 Q186 -2 126 -2 L98 -2 Q70 -2 55.5 7 Q41 16 41 29 L80 406 L60 406 Q34 406 34 442 Q34 523 72 523 L93 523 L100 598 Q107 675 149.5 717.5 Q192 760 263 760 Q359 760 359 714 Q359 698 346.5 668 Q334 638 322 638 Q320 638 310 640.5 Q300 643 289 643 Q253 643 249 600 L240 523 L300 523 Z M469 609 L441 609 Q413 609 398.5 618 Q384 627 384 640 L393 722 Q396 754 456 754 L484 754 Q512 754 526.5 745 Q541 736 541 723 L532 641 Q529 609 469 609 Z M432 525 L460 525 Q488 525 502.5 516 Q517 507 517 494 Q480 152 480 142 Q480 109 510 109 Q518 109 528 112 Q538 115 539 115 Q547 115 547 100 Q547 85 540 44 Q536 19 509 5.5 Q482 -8 452 -8 Q331 -8 331 119 L369 493 Q372 525 432 525 Z " />
<glyph glyph-name="fl" unicode="&#xfb02;" horiz-adv-x="591" d="M300 523 Q310 523 313 518.5 Q316 514 316 492 Q316 470 300.5 438 Q285 406 258 406 L228 406 L189 30 Q186 -2 126 -2 L98 -2 Q70 -2 55.5 7 Q41 16 41 29 L80 406 L60 406 Q34 406 34 442 Q34 523 72 523 L93 523 L100 598 Q107 675 149.5 717.5 Q192 760 263 760 Q359 760 359 714 Q359 698 346.5 668 Q334 638 322 638 Q320 638 310 640.5 Q300 643 289 643 Q253 643 249 600 L240 523 L300 523 Z M448 755 L496 755 Q543 755 543 728 Q482 146 482 142 Q482 109 512 109 Q520 109 530 112 Q540 115 541 115 Q549 115 549 100 Q549 85 542 44 Q538 19 511 5.5 Q484 -8 454 -8 Q333 -8 333 119 L396 725 Q400 755 448 755 Z " />
</font>
</svg>
