<svg xmlns="http://www.w3.org/2000/svg" xmlns:xlink="http://www.w3.org/1999/xlink" width="93.5" height="41.41" viewBox="0 0 93.5 41.41"><defs><style>.a{fill:#32302d;}.b{fill:#dbe086;}.c{fill:#80a33a;}.d{fill:#c9d145;}.e{fill:#9ec9d6;}.f{fill:#484b51;}.g{fill:#3c4145;}.h{fill:#bd372d;}.i{fill:#595d64;}.j{fill:#23272a;}.k{fill:#45403e;}.l{fill:#2c2a28;}.m{fill:#685e56;}.n{fill:#20252a;}.o{fill:#b5c82f;}.p{fill:#adc6cc;}.q{fill:#79898d;}.af,.r,.s,.v,.w,.x{fill:#fff;}.r{opacity:0.2;}.s{opacity:0.7;}.t{fill:#313539;}.af,.u{opacity:0.3;}.ab,.w{opacity:0.9;}.x{opacity:0.5;}.y{fill:#d5dce4;}.z{fill:#54585d;}.aa{fill:#8d969e;}.ab{fill:#8a8a8a;}.ac{fill:none;stroke:#dbe086;stroke-linecap:round;stroke-linejoin:round;stroke-width:1.368px;}.ad{fill:#fdfbcc;opacity:0.47;}.ae,.ag{opacity:0.81;}.ae{fill:url(#a);}.ag{fill:url(#b);}</style><radialGradient id="a" cx="3692.409" cy="-11246.769" r="2.051" gradientTransform="matrix(0.862, 0.539, 0.539, -0.862, 6928.747, -24122.109)" gradientUnits="userSpaceOnUse"><stop offset="0" stop-color="#fff"/><stop offset="1" stop-color="#fdfbcc"/></radialGradient><radialGradient id="b" cx="4254.532" cy="-11332.21" r="0.929" gradientTransform="matrix(0.754, 0.593, 0.593, -0.754, 7221.612, -20928.489)" xlink:href="#a"/></defs><g transform="translate(-48.426 -966.956)"><g transform="translate(48.426 966.956)"><path class="a" d="M132.333,1002.842h-14c.036.088.072.177.109.263a6,6,0,0,0,4.744,3.8l4.193.018h.68a5.4,5.4,0,0,0,4.272-2.295,3.692,3.692,0,0,0,.9-1.789Z" transform="translate(-45.621 -965.515)"/><path class="a" d="M83.79,1002.842h-14c.035.088.07.177.109.263a6,6,0,0,0,4.743,3.8l4.192.018h.681a5.4,5.4,0,0,0,4.272-2.295,3.717,3.717,0,0,0,.844-1.606Z" transform="translate(-47.569 -965.515)"/><path class="b" d="M141.245,998.748a6.924,6.924,0,0,1-1.259,3.359l-.107.147a5.99,5.99,0,0,1-1.183,1.164h0a5.186,5.186,0,0,1-3.1,1.048H64.507V986.471l15.271-13.153s-14.2-4.7-11.776-5.1c2.374-.383,33.865-6.193,55.113,10.744q.629.5,1.242,1.027c.768.214,1.638.406,2.572.625a18.359,18.359,0,0,1,7.972,3.5,12.03,12.03,0,0,1,1.992,2.146,13.6,13.6,0,0,1,1.3,2.2c.208.435.4.892.579,1.381v0a20.885,20.885,0,0,1,.886,3.271,3.522,3.522,0,0,1,.718,1.014c.053.107.106.218.154.335a10.845,10.845,0,0,1,.641,2.3A7.352,7.352,0,0,1,141.245,998.748Z" transform="translate(-47.781 -966.956)"/><path class="c" d="M95.39,971.044l.1-.265c-.081-.032-8.114-3.162-12.095-3.2l0,.284C87.326,967.9,95.31,971.013,95.39,971.044Z" transform="translate(-47.023 -966.931)"/><path class="d" d="M124.686,1004.441H51.633a.336.336,0,0,1-.109-.021,1.7,1.7,0,0,1-.653-.579c-1.27-1.637-3.147-6.469-2.174-12.585.742-4.7,3.162-10.149,8.823-15.5.875-.826,1.823-1.65,2.855-2.465a3.614,3.614,0,0,1-.2-.408c-.322-.767-.743-2.411,1.233-2.931a47.809,47.809,0,0,1,47.052,10.013c4.6,1.3,13.139,1.656,15.3,13.118C125.73,994.891,126.1,1001.927,124.686,1004.441Z" transform="translate(-48.426 -966.931)"/><path class="e" d="M108.941,979.836a.828.828,0,0,1-.559-.215l-.52-.463c-.368-.329-.49-.439-.543-.479h0a50.33,50.33,0,0,0-11-7.027c-.935-.458-1.9-.9-2.868-1.329l10.2-.071c7.573,1.433,17.29,8.415,18.787,9.513Z" transform="translate(-46.619 -966.823)"/><path class="f" d="M107.208,978.976s4.243-2.259,12.566-.992c.092.06,2.232,1.639,2.232,1.639l-13.906-.145Z" transform="translate(-46.067 -966.529)"/><path class="f" d="M113.781,979.008c-.176-.979-1.37-1.736-2.82-1.736s-2.643.757-2.819,1.736Z" transform="translate(-46.03 -966.542)"/><path class="g" d="M103.653,970.41c7.093,1.351,16.032,7.541,18.351,9.214l-2.526.012-10.51.054a.7.7,0,0,1-.46-.176l-.192-.172-.328-.292c-.328-.293-.467-.418-.54-.478h0a50.382,50.382,0,0,0-11.031-7.05q-1.1-.537-2.23-1.046l9.465-.065Zm.028-.3-10.92.078c1.146.488,2.329,1.026,3.526,1.61a50.7,50.7,0,0,1,10.964,7.007c.009,0,.257.224.537.476.179.157.369.329.522.465a.987.987,0,0,0,.658.252h.011l10.5-.054,3.1-.016a.118.118,0,0,0,.107-.079.12.12,0,0,0-.04-.125c-1.736-1.284-11.418-8.188-18.972-9.615Z" transform="translate(-46.647 -966.829)"/><path class="c" d="M118.639,999.507v4.064H100.456c-.188,0-.46-.208-.761-.6v-3.464c0-5.653,4.249-10.254,9.473-10.254a9.036,9.036,0,0,1,6.13,2.444A10.6,10.6,0,0,1,118.639,999.507Z" transform="translate(-46.369 -966.061)"/><path class="h" d="M117.424,999.461v4.064h-16.6v-4.064c0-5,3.724-9.076,8.3-9.076a7.836,7.836,0,0,1,5.338,2.134A9.41,9.41,0,0,1,117.424,999.461Z" transform="translate(-46.324 -966.015)"/><path class="g" d="M102.174,980.088a.981.981,0,0,0,.948-.724,1.058,1.058,0,0,0-.436-1.117c-9.874-7.661-18.843-9.347-29.08-8.692-9.576.611-12.679,7.31-13.485,9.7a.645.645,0,0,0,.084.573.628.628,0,0,0,.512.264Z" transform="translate(-47.958 -966.857)"/><path class="i" d="M61.6,979.274a.482.482,0,0,1-.4-.219.489.489,0,0,1-.041-.459,13.834,13.834,0,0,1,1.826-3.1c2.474-3.154,6.052-4.9,10.631-5.192,1.339-.086,2.582-.127,3.8-.127,9.4,0,17.036,2.67,24.755,8.659.092.071.187.187.16.283a.2.2,0,0,1-.2.152Z" transform="translate(-47.917 -966.826)"/><path class="j" d="M117.424,999.461v5.591a5.406,5.406,0,0,1-4.271,2.3,4.4,4.4,0,0,1-.683-.052v.052h-4.192v-.021a5.992,5.992,0,0,1-4.742-3.8H100.82v-4.064c0-5,3.724-9.076,8.3-9.076a7.836,7.836,0,0,1,5.338,2.134A9.41,9.41,0,0,1,117.424,999.461Z" transform="translate(-46.324 -966.015)"/><path class="k" d="M118.079,1003.45a7.834,7.834,0,0,1-.566,1.047c-.08.126-.166.249-.256.368-.025.037-.053.076-.08.111a6.386,6.386,0,0,1-.645.729.108.108,0,0,1-.023.022,5.154,5.154,0,0,1-3.6,1.542,4.383,4.383,0,0,1-.683-.051,4.908,4.908,0,0,1-1.539-.492,6.443,6.443,0,0,1-2.652-2.676,6.6,6.6,0,0,1-.3-.6,8.742,8.742,0,0,1-.565-1.736,9.48,9.48,0,0,1-.2-1.95,9.082,9.082,0,0,1,.122-1.508,8.59,8.59,0,0,1,.941-2.777,6.688,6.688,0,0,1,2.088-2.34,5.006,5.006,0,0,1,.565-.335,5.114,5.114,0,0,1,.484-.215c.043-.018.085-.033.129-.049a4.691,4.691,0,0,1,.927-.229,4.522,4.522,0,0,1,.683-.052,4.7,4.7,0,0,1,1.307.186,9.407,9.407,0,0,1,2.963,6.942v3.49a.574.574,0,0,0,.167.4.558.558,0,0,0,.4.17Z" transform="translate(-46.077 -965.94)"/><path class="k" d="M112.907,992.258v15.012H107.3l-.13-5.557-.078-3.458-.129-5.662-.01-.315Z" transform="translate(-46.077 -965.94)"/><path class="l" d="M107.651,993.027a6.857,6.857,0,0,1,.89-.048,9.233,9.233,0,0,1,8.587,5.437,9.321,9.321,0,0,0-2.914-5.971,4.7,4.7,0,0,0-1.307-.186l-5.955.021.009.315Z" transform="translate(-46.077 -965.94)"/><path class="m" d="M112.24,999.765a10.911,10.911,0,0,1-.615,3.685,7.718,7.718,0,0,1-1.132,2.123,4.949,4.949,0,0,1-1.24,1.155,3.3,3.3,0,0,1-1.786.545,2.912,2.912,0,0,1-.345-.021c-1.639-.183-3.05-1.667-3.811-3.8a10.885,10.885,0,0,1-.617-3.685c0-3.962,1.952-7.207,4.428-7.485a2.913,2.913,0,0,1,.345-.019,3.292,3.292,0,0,1,1.786.542,5.04,5.04,0,0,1,1.24,1.155A9.634,9.634,0,0,1,112.24,999.765Z" transform="translate(-46.248 -965.94)"/><path class="c" d="M69.721,999.507v4.064H51.538c-.187,0-.458-.208-.759-.6v-3.464c0-5.653,4.248-10.254,9.47-10.254A9.037,9.037,0,0,1,66.38,991.7,10.6,10.6,0,0,1,69.721,999.507Z" transform="translate(-48.332 -966.061)"/><path class="n" d="M68.507,999.461v5.591a5.408,5.408,0,0,1-4.272,2.3,4.385,4.385,0,0,1-.682-.052v.052h-3.89l-.3-.021a5.988,5.988,0,0,1-4.742-3.8H51.9v-4.064c0-5,3.724-9.076,8.3-9.076a7.841,7.841,0,0,1,5.339,2.134A9.414,9.414,0,0,1,68.507,999.461Z" transform="translate(-48.287 -966.015)"/><path class="k" d="M69.16,1003.45a7.393,7.393,0,0,1-.9,1.527,5.408,5.408,0,0,1-4.272,2.3,4.362,4.362,0,0,1-.681-.052,4.883,4.883,0,0,1-1.54-.493,6.431,6.431,0,0,1-2.652-2.676,6.1,6.1,0,0,1-.3-.6,8.992,8.992,0,0,1-.768-3.685,8.888,8.888,0,0,1,1.064-4.284,6.419,6.419,0,0,1,2.652-2.676,4.9,4.9,0,0,1,1.54-.493,4.468,4.468,0,0,1,.681-.05,4.705,4.705,0,0,1,1.308.183,9.412,9.412,0,0,1,2.963,6.942v3.506a.554.554,0,0,0,.551.558Z" transform="translate(-48.04 -965.94)"/><path class="k" d="M63.629,992.271l.5,15-4.914,0-.138-15.012Z" transform="translate(-47.999 -965.94)"/><path class="m" d="M65.654,999.765a8.992,8.992,0,0,1-.767,3.685,7.359,7.359,0,0,1-1.41,2.123,5.814,5.814,0,0,1-1.539,1.155,4.845,4.845,0,0,1-2.223.545c-.145,0-.289-.007-.43-.021a5.988,5.988,0,0,1-4.742-3.8,9.009,9.009,0,0,1-.767-3.685c0-3.962,2.428-7.207,5.509-7.485.14-.014.285-.019.43-.019a4.841,4.841,0,0,1,2.223.542,5.921,5.921,0,0,1,1.539,1.155A8.387,8.387,0,0,1,65.654,999.765Z" transform="translate(-48.212 -965.94)"/><path class="o" d="M137.465,992.25v0l-16.975.163a2.59,2.59,0,0,1-.664-4c9.5,5.889,16.445,2.782,16.752.558A20.885,20.885,0,0,1,137.465,992.25Z" transform="translate(-45.587 -966.094)"/><path class="o" d="M137.686,1001.28a5.99,5.99,0,0,1-1.183,1.164h0a5.186,5.186,0,0,1-3.1,1.048H119.841l0,0-.674-12.3,8.713,1.057c-1.318-.092-5.347-.286-5.178,5.876C122.873,1004.485,136.6,1002.258,137.686,1001.28Z" transform="translate(-45.587 -965.983)"/><g transform="translate(71.119 17.37)"><g transform="translate(0.119 0.116)"><path class="p" d="M117.3,983.829a.434.434,0,0,0-.317.2.442.442,0,0,0-.036.378,10.513,10.513,0,0,0,9.468,7.065.3.3,0,0,0,.312-.272C127.018,987.879,122.883,983.17,117.3,983.829Z" transform="translate(-116.916 -983.767)"/></g><path class="q" d="M126.409,991.6a10.671,10.671,0,0,1-9.574-7.144.552.552,0,0,1,.452-.739,8.984,8.984,0,0,1,7.664,2.865,6.42,6.42,0,0,1,1.894,4.636.418.418,0,0,1-.414.383Zm-9.094-7.647a.314.314,0,0,0-.23.148.321.321,0,0,0-.027.276,10.438,10.438,0,0,0,9.363,6.987l.009.12v-.119a.18.18,0,0,0,.178-.165,6.177,6.177,0,0,0-1.834-4.456,8.735,8.735,0,0,0-6.42-2.851A8.953,8.953,0,0,0,117.315,983.951Z" transform="translate(-116.801 -983.655)"/></g><path class="p" d="M136.056,989.179a3.115,3.115,0,0,1-.559,1.012,9.962,9.962,0,0,1-2.386-3.088,8.693,8.693,0,0,1-.928-3.649c.094-.077.368.005.728.208a7.514,7.514,0,0,1,1.5,1.166,6.91,6.91,0,0,1,1.381,1.871A3.276,3.276,0,0,1,136.056,989.179Z" transform="translate(-45.065 -966.295)"/><path class="q" d="M136.093,989.088v.005a1.991,1.991,0,0,1-.471,1.2.15.15,0,0,1-.21.025,9.981,9.981,0,0,1-2.4-3.1.146.146,0,0,1-.021-.04,8.843,8.843,0,0,1-.949-3.713l0-.079.032-.028.122.1a.184.184,0,0,1,.129-.024c.022.058.04.158.027.155a8.506,8.506,0,0,0,.885,3.405c.008.014.014.031.023.046a10.123,10.123,0,0,0,2.067,2.794.221.221,0,0,0,.162.059.214.214,0,0,0,.158-.072,2.476,2.476,0,0,0,.379-.556c.007-.011.012-.033.024-.06a.041.041,0,0,0,.009-.022c.009-.021.021-.045.032-.076Z" transform="translate(-45.071 -966.298)"/><path class="e" d="M98.483,976.34s-10.04-8.87-28.22-5.55c0,0-5.084,5.224-5.068,7.249.015,0,33.287,0,33.287,0Z" transform="translate(-47.753 -966.832)"/><path class="r" d="M61.153,978.543a13.834,13.834,0,0,1,1.826-3.1,12.908,12.908,0,0,1,5.129-3.942q1.8,3.882,3.732,7.717H61.6a.482.482,0,0,1-.4-.219A.489.489,0,0,1,61.153,978.543Z" transform="translate(-47.917 -966.773)"/><path class="o" d="M56.465,985.685a1.044,1.044,0,0,0,1.034,1.048c3.314.024,13.482,1.1,14.11,13.31a1.448,1.448,0,0,0,1.429,1.382c4.97.045,20.684,0,25.908-.019a1.691,1.691,0,0,0,1.68-1.657c.072-3.243.881-10.325,6.4-12.633a1.478,1.478,0,0,0,.906-1.366v-.838a1.142,1.142,0,0,0-1.138-1.145H57.531a1.069,1.069,0,0,0-1.066,1.073Z" transform="translate(-48.104 -966.281)"/><path class="g" d="M97.2,976.1v3.4h3.689l.7-.785Z" transform="translate(-46.469 -966.589)"/><path class="c" d="M72.5,994.713c.009.043.016.087.024.131.714,3.849,3.766,4.165,6.055,4.139l20.085-.279.522-3.991Z" transform="translate(-47.46 -965.842)"/><path class="c" d="M78.384,999.831H78.6l20.249-.291.028-.2a68.862,68.862,0,0,0,.276-20.014l-.455.071a68.165,68.165,0,0,1-.25,19.685l-19.855.285c-2.513.034-5.171-.416-5.825-3.951-1.108-5.971,1.174-15.579,1.2-15.675l-.447-.108c-.023.1-2.328,9.8-1.2,15.867C73.016,999.286,75.886,999.831,78.384,999.831Z" transform="translate(-47.48 -966.459)"/><path class="o" d="M125.059,997.53c0,1.137-.683,2.058-1.523,2.058s-1.524-.922-1.524-2.058.68-2.06,1.524-2.06S125.059,996.391,125.059,997.53Z" transform="translate(-45.473 -965.811)"/><path class="o" d="M121.83,999.564l1.713.024V995.47H121.83Z" transform="translate(-45.48 -965.811)"/><g transform="translate(75.098 29.807)"><g transform="translate(0.104 0.104)"><path class="p" d="M123.4,997.52c0,1-.6,1.8-1.333,1.8s-1.337-.808-1.337-1.8.6-1.807,1.337-1.807S123.4,996.522,123.4,997.52Z" transform="translate(-120.727 -995.713)"/></g><path class="q" d="M120.627,997.524c0-1.054.646-1.911,1.441-1.911s1.437.857,1.437,1.911-.645,1.909-1.437,1.909S120.627,998.576,120.627,997.524Zm.208,0c0,.938.553,1.7,1.233,1.7s1.229-.763,1.229-1.7-.551-1.7-1.229-1.7S120.835,996.585,120.835,997.524Z" transform="translate(-120.627 -995.613)"/></g><path class="r" d="M135.153,984.962a3.547,3.547,0,0,1-.233.772,4.728,4.728,0,0,1-.951,1.389c-.037.039-.073.075-.113.114s-.072.073-.11.109a8.814,8.814,0,0,1-.818.692c-4.55,3.4-19.292-7.262-19.292-7.262s6-.477,11.321-.684a18.547,18.547,0,0,1,7.85,3.4c.043.033.082.067.122.1a.173.173,0,0,1,.129-.026A5.019,5.019,0,0,1,135.153,984.962Z" transform="translate(-45.809 -966.429)"/><path class="p" d="M48.562,988.458c.107-1.834.513-4.075,1.83-4.338a1.059,1.059,0,0,1,.287-.031.981.981,0,0,1,1.012.975c.208,1.776-1.841,5.387-2.962,5.676A9.463,9.463,0,0,1,48.562,988.458Z" transform="translate(-48.422 -966.268)"/><path class="q" d="M51.833,985.051a1.125,1.125,0,0,0-1.057-1.1c-.044.1-.053.047-.1.143,2.32.036-.543,6.212-1.95,6.651-.006.1-.018.032-.019.127,0,.013,0,.026,0,.037l.059-.017C50.056,990.557,52.038,986.791,51.833,985.051Z" transform="translate(-48.415 -966.274)"/><path class="c" d="M51.524,1003.506a1.692,1.692,0,0,1-.65-.579c-1.273-1.637-3.151-6.468-2.177-12.583v0s.294,6.88,2.5,8.529C51.293,999.944,51.452,1002.3,51.524,1003.506Z" transform="translate(-48.426 -966.017)"/><path class="m" d="M64.242,994.29a.456.456,0,0,1-.456.459H62.5a.457.457,0,0,1-.453-.459h0a.457.457,0,0,1,.453-.457h1.282a.456.456,0,0,1,.456.457Z" transform="translate(-47.88 -965.877)"/><path class="m" d="M65.148,995.942a.456.456,0,0,1-.455.458H63.411a.457.457,0,0,1-.456-.458h0a.457.457,0,0,1,.456-.458h1.282a.455.455,0,0,1,.455.458Z" transform="translate(-47.843 -965.811)"/><path class="m" d="M65.646,997.751a.454.454,0,0,1-.453.456H63.908a.455.455,0,0,1-.455-.456h0a.457.457,0,0,1,.455-.459h1.285a.456.456,0,0,1,.453.459Z" transform="translate(-47.823 -965.738)"/><path class="m" d="M112.139,994.423a.455.455,0,0,1-.456.458H110.4a.457.457,0,0,1-.456-.458h0a.457.457,0,0,1,.456-.457h1.282a.456.456,0,0,1,.456.457Z" transform="translate(-45.957 -965.872)"/><path class="m" d="M113.044,996.075a.455.455,0,0,1-.453.458h-1.284a.456.456,0,0,1-.455-.458h0a.455.455,0,0,1,.455-.457h1.284a.453.453,0,0,1,.453.457Z" transform="translate(-45.921 -965.805)"/><path class="m" d="M113.543,997.883a.456.456,0,0,1-.456.457h-1.281a.455.455,0,0,1-.457-.457h0a.457.457,0,0,1,.457-.458h1.281a.457.457,0,0,1,.456.458Z" transform="translate(-45.901 -965.733)"/><path class="r" d="M138.639,997.7a6.924,6.924,0,0,1-1.259,3.359,5.939,5.939,0,0,1-1.29,1.311,4.294,4.294,0,0,0,.13-4.05,4.241,4.241,0,0,0-3.291-2.332l-2.454-.294a1.2,1.2,0,0,1-1.049-1.19v-.352a1.067,1.067,0,0,1,1.063-1.073h7.281c.053.107.106.218.154.335a10.845,10.845,0,0,1,.641,2.3A7.352,7.352,0,0,1,138.639,997.7Z" transform="translate(-45.175 -965.907)"/><path class="s" d="M95.2,972.107a25.053,25.053,0,0,1,8.917,5.849C101.8,976.456,95.2,972.107,95.2,972.107Z" transform="translate(-46.549 -966.749)"/><g transform="translate(64.335 11.691)"><path class="t" d="M110.279,979.455s5.63-1.747,7.827-1.125,1.6,1.086.918,1.09Z" transform="translate(-110.279 -978.195)"/></g><g class="u" transform="translate(46.114 3.276)"><path class="v" d="M122.693,979.845a.118.118,0,0,1-.107.079l-3.1.016c-6.485-3.894-18.5-7.021-23.194-8.146-1.2-.585-2.38-1.122-3.526-1.61l10.92-.078c7.555,1.427,17.236,8.331,18.972,9.615A.12.12,0,0,1,122.693,979.845Z" transform="translate(-92.761 -970.105)"/></g><path class="w" d="M117.916,985.6a.827.827,0,0,1,.058-.894.812.812,0,0,1,.836-.307c1.6.374,4.9,1.442,6.409,4.084a.631.631,0,0,1-.046.695.687.687,0,0,1-.655.225C122.7,989.186,118.871,987.314,117.916,985.6Z" transform="translate(-45.642 -966.256)"/><path class="w" d="M135.763,986.69a2.406,2.406,0,0,1-.494,1.181c-.772.677-2.7-2.924-2.384-4.218a7.514,7.514,0,0,1,1.5,1.166A6.91,6.91,0,0,1,135.763,986.69Z" transform="translate(-45.038 -966.286)"/><path class="x" d="M122.876,997.137c0,.46-.234.834-.523.834s-.523-.375-.523-.834.234-.834.523-.834S122.876,996.676,122.876,997.137Z" transform="translate(-45.48 -965.778)"/><path class="w" d="M48.706,988.288c.1-1.739.482-3.954,1.709-4.2C50.831,984.708,50.961,985.968,48.706,988.288Z" transform="translate(-48.415 -966.268)"/><path class="c" d="M102.155,985.968a.635.635,0,1,1-.634-.641A.639.639,0,0,1,102.155,985.968Z" transform="translate(-46.321 -966.218)"/><path class="s" d="M92.972,977.3c-.326-.05-2.123.241-1.846-.418.4-.953,2.384-.793,2.772.1C94.215,977.709,93.364,977.361,92.972,977.3Z" transform="translate(-46.714 -966.583)"/><path class="y" d="M59.64,1005.233c-.089,0-.171,0-.24-.01a4.074,4.074,0,0,1-3.154-2.651,7.1,7.1,0,0,1-.595-2.882c0-2.862,1.676-5.344,3.735-5.529a2.226,2.226,0,0,1,.254-.011,2.916,2.916,0,0,1,1.34.33,3.934,3.934,0,0,1,1.025.77,6.413,6.413,0,0,1,1.625,4.441,7.042,7.042,0,0,1-.592,2.874A5.374,5.374,0,0,1,62,1004.131a3.938,3.938,0,0,1-1.022.771A2.93,2.93,0,0,1,59.64,1005.233Z" transform="translate(-48.136 -965.864)"/><path class="z" d="M62.967,999.663a6.326,6.326,0,0,1-.489,2.485,1,1,0,0,1-.046.111,4.714,4.714,0,0,1-.727,1.177,2.275,2.275,0,0,1-.182.207,3.149,3.149,0,0,1-.851.641,2.308,2.308,0,0,1-1.057.264,1.575,1.575,0,0,1-.18-.008,2.589,2.589,0,0,1-1.333-.547,3.923,3.923,0,0,1-.976-1.109,5.915,5.915,0,0,1-.322-.615,6.393,6.393,0,0,1-.538-2.607v-.08a6.488,6.488,0,0,1,.2-1.507,4.756,4.756,0,0,1,1.991-2.972,2.345,2.345,0,0,1,.963-.316c.07-.006.131-.008.2-.008l.146,0a2.462,2.462,0,0,1,.911.26,3.255,3.255,0,0,1,.851.645,4.848,4.848,0,0,1,.99,1.554,6.091,6.091,0,0,1,.387,1.468A6.564,6.564,0,0,1,62.967,999.663Z" transform="translate(-48.112 -965.839)"/><path class="y" d="M107.408,1005.233a1.72,1.72,0,0,1-.192-.01c-1.04-.118-1.985-1.107-2.535-2.651a8.54,8.54,0,0,1-.48-2.882c0-2.862,1.348-5.344,3-5.529a1.429,1.429,0,0,1,.2-.011,1.974,1.974,0,0,1,1.074.33,3.337,3.337,0,0,1,.826.77,7.389,7.389,0,0,1,1.305,4.441,8.585,8.585,0,0,1-.475,2.874,5.646,5.646,0,0,1-.83,1.569,3.364,3.364,0,0,1-.822.771A2,2,0,0,1,107.408,1005.233Z" transform="translate(-46.188 -965.864)"/><path class="z" d="M107.384,1004.6a1.03,1.03,0,0,1-.12-.006c-.8-.089-1.576-.953-2.041-2.253a7.974,7.974,0,0,1-.443-2.677c0-2.74,1.3-4.8,2.466-4.926a1.042,1.042,0,0,1,.137-.007,1.4,1.4,0,0,1,.753.234,2.727,2.727,0,0,1,.671.633,6.768,6.768,0,0,1,1.178,4.066,7.887,7.887,0,0,1-.44,2.666,4.99,4.99,0,0,1-.738,1.4,2.664,2.664,0,0,1-.669.631A1.4,1.4,0,0,1,107.384,1004.6Z" transform="translate(-46.165 -965.841)"/><path class="y" d="M61.656,1001.1l.853,1.079c-.014.035-.029.075-.046.111a4.852,4.852,0,0,1-.732,1.19l-1.074-1.35a1.006,1.006,0,0,0-.9-.393,1.078,1.078,0,0,0-.808.605l-.857,1.7a3.984,3.984,0,0,1-.985-1.12l.675-1.343a1.374,1.374,0,0,0,.048-1.1,1.109,1.109,0,0,0-.754-.692l-.838-.2a6.694,6.694,0,0,1,.2-1.523l.916.219a.957.957,0,0,0,.933-.289,1.308,1.308,0,0,0,.343-1.028l-.179-1.906a2.369,2.369,0,0,1,.973-.318c.07-.006.133-.01.2-.01.049,0,.1,0,.148,0l.2,2.062a1.234,1.234,0,0,0,.532.923.941.941,0,0,0,.963.057l1.089-.557a6.119,6.119,0,0,1,.393,1.482l-.928.477a1.178,1.178,0,0,0-.607.858A1.327,1.327,0,0,0,61.656,1001.1Z" transform="translate(-48.113 -965.841)"/><path class="aa" d="M60.114,999.518a.878.878,0,1,1-.849-1.1A1,1,0,0,1,60.114,999.518Z" transform="translate(-48.026 -965.693)"/><path class="y" d="M109.091,1001.019l.731,1.038a.86.86,0,0,1-.041.109,4.719,4.719,0,0,1-.626,1.147l-.915-1.3a.818.818,0,0,0-.773-.377.938.938,0,0,0-.69.581l-.731,1.638a3.706,3.706,0,0,1-.843-1.08l.577-1.292a1.478,1.478,0,0,0,.041-1.062.99.99,0,0,0-.644-.667l-.716-.193a7.137,7.137,0,0,1,.17-1.466l.78.21a.769.769,0,0,0,.8-.278,1.377,1.377,0,0,0,.294-.992l-.155-1.835c.264-.17.43-.577.719-.605.058-.006.274,0,.329,0h0l.248,2.279a1.225,1.225,0,0,0,.453.889.728.728,0,0,0,.824.054l.93-.537a6.642,6.642,0,0,1,.334,1.429l-.793.457a1.144,1.144,0,0,0-.517.83A1.408,1.408,0,0,0,109.091,1001.019Z" transform="translate(-46.177 -965.847)"/><path class="aa" d="M108.1,999.518a.878.878,0,1,1-.849-1.1A1,1,0,0,1,108.1,999.518Z" transform="translate(-46.1 -965.693)"/><path class="v" d="M85.436,972h.01l-.01,0Z" transform="translate(-46.941 -966.753)"/><path class="t" d="M98.757,978.512l-.159-.075L95.382,976.9l-1.524,3.973h3.263C99.024,980.878,98.757,978.512,98.757,978.512Z" transform="translate(-46.603 -966.557)"/><path class="o" d="M96.006,977.936v1.078a1.91,1.91,0,0,1-.254.952,1.827,1.827,0,0,1-.328.426,1.913,1.913,0,0,1-1.385.539l-2.809-.1a1.939,1.939,0,0,1-1.713-1.164,1.97,1.97,0,0,1,.3-2.057l.556-.656v0l.6-.706a1.8,1.8,0,0,1,2.124-.479l2.143.981A1.3,1.3,0,0,1,96.006,977.936Z" transform="translate(-46.784 -966.609)"/><path class="c" d="M95.752,979.913a1.827,1.827,0,0,1-.328.426,1.913,1.913,0,0,1-1.385.539l-2.809-.1a1.939,1.939,0,0,1-1.713-1.164,1.97,1.97,0,0,1,.3-2.057l.556-.656-.094,1.2c-.069.852.9,1.589,2.157,1.651Z" transform="translate(-46.784 -966.556)"/><path class="o" d="M128.9,998.663a.242.242,0,0,0,.069.17.232.232,0,0,0,.166.07H136.8a.273.273,0,0,0,.2-.082.284.284,0,0,0,.082-.2V995.1a.259.259,0,0,0-.073-.18.248.248,0,0,0-.177-.075h-7.669a.256.256,0,0,0-.183.078.266.266,0,0,0-.075.186Z" transform="translate(-45.197 -965.836)"/><path class="ab" d="M129.184,998.34a.22.22,0,0,0,.219.219h7.148a.259.259,0,0,0,.26-.259v-3.222a.235.235,0,0,0-.233-.233h-7.153a.242.242,0,0,0-.241.241Z" transform="translate(-45.185 -965.836)"/><path class="w" d="M129.427,998.34a.218.218,0,0,0,.063.155.221.221,0,0,0,.155.064h7.148a.259.259,0,0,0,.26-.259v-3.222a.235.235,0,0,0-.233-.233h-7.153a.24.24,0,0,0-.24.241Z" transform="translate(-45.175 -965.836)"/><path class="ac" d="M52.54,990.472c1.238-2.063,13-7.221,17.945,4.262.623,1.515.313-1.064-1.956-7.047-3.61-6.912,32.6-4.746,36.105-3.92s5.365.825,3.92,2.476-3.731,2.116-6.589,6.816c4.836-7.951,14.327-6.3,17.73-1.245" transform="translate(-48.261 -966.32)"/></g><g transform="translate(113.768 976.001)"><path class="ad" d="M126.187,984.106l-4.032-1.608-3.409,2.688.623,4.3,4.032,1.608,3.409-2.687Z" transform="translate(-110.946 -975.377)"/><path class="ae" d="M124.986,986.355l-1.575-1.482-2.071.623-.5,2.1,1.575,1.482,2.071-.623Z" transform="translate(-110.861 -975.282)"/><path class="af" d="M133.152,982.766l-9.7,4.126-.589-11.24-.2,11.21-11.409-3.455,11.268,4.331-4.374,8.052,5.11-7.653,8.573,6.551-7.945-7.141Z" transform="translate(-111.247 -975.652)"/><path class="v" d="M132.447,982.978l-9.191,4.1-.5-10.313-.037,10.3-10.25-3.328,10.221,3.81-3.87,7.03,4.379-6.824,7.048,6.609-6.745-6.9Z" transform="translate(-111.198 -975.608)"/><path class="ad" d="M134.168,986.234l-1.641-.869-1.573.986.068,1.855,1.641.869,1.573-.986Z" transform="translate(-110.456 -975.262)"/><path class="ag" d="M133.554,987.137l-.6-.7-.909.17-.307.872.6.7.909-.17Z" transform="translate(-110.424 -975.219)"/><path class="af" d="M137.2,985.97l-4.316,1.309.265-4.806-.6,4.757-4.693-1.993,4.593,2.359-2.229,3.223,2.524-3.02,3.345,3.179-3.051-3.4Z" transform="translate(-110.58 -975.379)"/><path class="v" d="M136.889,986.03l-4.1,1.321.262-4.408-.488,4.377-4.206-1.885,4.172,2.089-1.968,2.812,2.175-2.7,2.694,3.134-2.552-3.242Z" transform="translate(-110.56 -975.36)"/></g></g></svg>