<?xml version="1.0" encoding="utf-8"?>
<!-- Generator: Adobe Illustrator 22.1.0, SVG Export Plug-In . SVG Version: 6.00 Build 0)  -->
<svg version="1.1" id="Calque_1" xmlns="http://www.w3.org/2000/svg" xmlns:xlink="http://www.w3.org/1999/xlink" x="0px" y="0px"
	 viewBox="0 0 128 128" style="enable-background:new 0 0 128 128;" xml:space="preserve">
<style type="text/css">
	.st0{fill:#A4C151;}
	.st1{fill:none;stroke:#333333;stroke-width:4;stroke-miterlimit:10;}
	.st2{fill:none;stroke:#333333;stroke-linecap:round;stroke-linejoin:round;}
	.st3{fill:none;stroke:#333333;stroke-miterlimit:10;}
</style>
<g id="XMLID_5_">
	<g>
		<path class="st0" d="M99.8,32c0.1,0.5-0.2,1-0.7,1h-2.3c-0.3,0-0.5,0.1-0.6,0.3l-1.1-0.8H36.2L34.3,33H32c-0.5,0-0.9-0.5-0.7-1
			c0,0,4.7-17.1,4.7-17.2c0.3-1.6,1.5-2.9,3.1-2.9h33.3c0.4,0,0.8-0.3,0.8-0.8h1.5v13.3h4.9V11.1H81c0,0.4,0.3,0.8,0.8,0.8h10
			c1.7,0,2.8,1.1,3.3,2.6L99.8,32z"/>
		<path class="st0" d="M74.6,11.3h-1.5V3.8c0-0.4,0.3-0.8,0.8-0.8h6.5c0.4,0,0.8,0.3,0.8,0.7L81,11.2h-1.5v13.3h-4.9V11.3z"/>
	</g>
	<g>
		<path class="st1" d="M63.5,125.9H35.7c-0.4,0-0.8-0.3-0.8-0.8L35,33.8c0-0.4-0.3-0.8-0.8-0.8H32c-0.5,0-0.9-0.5-0.7-1
			c0,0,4.7-17.1,4.7-17.2c0.3-1.6,1.5-2.9,3.1-2.9h33.3c0.4,0,0.8-0.3,0.8-0.8V3.8C73.2,3.4,73.5,3,74,3h6.5c0.4,0,0.8,0.3,0.8,0.7
			L81,11.2c0,0.4,0.3,0.8,0.8,0.8h10c1.7,0,2.8,1.1,3.3,2.6L99.8,32c0.1,0.5-0.2,1-0.7,1h-2.3c-0.3,0-0.5,0.1-0.6,0.3
			c-0.1,0.1-0.1,0.3-0.1,0.4L96,125.1c0,0.4-0.3,0.8-0.8,0.8H82.6H63.5z"/>
		<rect x="48.5" y="42.5" class="st2" width="7" height="14.1"/>
		<rect x="61.5" y="42.5" class="st2" width="7" height="14.1"/>
		<rect x="74.5" y="42.5" class="st2" width="7" height="14.1"/>
		<rect x="48.5" y="71.5" class="st2" width="7" height="14.1"/>
		<rect x="61.5" y="71.5" class="st2" width="7" height="14.1"/>
		<rect x="74.5" y="71.5" class="st2" width="7" height="14.1"/>
		<polygon class="st2" points="82.6,125.9 82.6,126 63.5,126 63.5,125.9 63.6,100.6 82.6,100.6 		"/>
		<polyline class="st3" points="79.5,8.1 79.5,11.2 79.5,24.5 74.6,24.5 74.6,11.3 74.6,8 		"/>
		<line class="st3" x1="36.2" y1="32.5" x2="95.1" y2="32.5"/>
		<polygon class="st2" points="77.6,113.5 68.6,113.5 68.6,104.4 77.5,104.5 		"/>
	</g>
</g>
</svg>
