<?xml version="1.0" encoding="utf-8"?>
<!-- Generator: Adobe Illustrator 22.1.0, SVG Export Plug-In . SVG Version: 6.00 Build 0)  -->
<svg version="1.1" id="Calque_1" xmlns="http://www.w3.org/2000/svg" xmlns:xlink="http://www.w3.org/1999/xlink" x="0px" y="0px"
	 viewBox="0 0 175.1 175.1" style="enable-background:new 0 0 175.1 175.1;" xml:space="preserve">
<style type="text/css">
	.st0{fill:#5E5E5E;}
	.st1{fill:#97C246;}
</style>
<g>
	<g>
		<path class="st0" d="M145.9,103.7c-3.7-3.9-8.2-5.9-12.9-5.9c-4.7,0-9.2,2-13.1,5.9l-12.1,12c-1-0.5-2-1-2.9-1.5
			c-1.4-0.7-2.7-1.3-3.8-2c-11.3-7.2-21.6-16.5-31.4-28.6c-4.8-6-8-11.1-10.3-16.3c3.1-2.9,6-5.8,8.9-8.7c1.1-1.1,2.1-2.2,3.2-3.2
			c8-8,8-18.4,0-26.4L61.1,18.4c-1.2-1.2-2.4-2.4-3.6-3.6c-2.3-2.4-4.7-4.8-7.2-7.1c-3.7-3.7-8.1-5.6-12.8-5.6s-9.2,1.9-13,5.6
			c0,0,0,0-0.1,0.1l-13,13.1c-4.9,4.9-7.7,10.8-8.3,17.8C2.3,49.8,5.6,60.2,8.1,67c6.2,16.7,15.4,32.1,29.2,48.7
			c16.7,20,36.8,35.7,59.8,46.8c8.8,4.2,20.5,9.1,33.6,9.9c0.8,0,1.6,0.1,2.4,0.1c8.8,0,16.2-3.2,22-9.5c0-0.1,0.1-0.1,0.2-0.2
			c2-2.4,4.3-4.6,6.7-6.9c1.6-1.6,3.3-3.2,5-4.9c3.8-3.9,5.8-8.5,5.8-13.2c0-4.7-2-9.3-5.9-13.1L145.9,103.7z M159.6,143.9
			C159.5,143.9,159.5,143.9,159.6,143.9c-1.5,1.6-3,3.1-4.7,4.7c-2.5,2.4-5,4.8-7.4,7.6c-3.9,4.1-8.4,6.1-14.4,6.1
			c-0.6,0-1.2,0-1.8,0c-11.3-0.7-21.9-5.2-29.8-8.9c-21.6-10.5-40.6-25.3-56.3-44.1C32.3,93.5,23.6,79,17.8,63.4
			c-3.6-9.5-4.8-16.9-4.3-23.9c0.4-4.5,2.1-8.2,5.3-11.3l13-13c1.9-1.8,3.9-2.7,5.8-2.7c2.4,0,4.4,1.5,5.6,2.7c0,0,0.1,0.1,0.1,0.1
			c2.3,2.2,4.5,4.4,6.9,6.8c1.2,1.2,2.4,2.4,3.6,3.7l10.4,10.4c4,4,4,7.8,0,11.8c-1.1,1.1-2.2,2.2-3.3,3.3c-3.2,3.3-6.3,6.3-9.6,9.3
			c-0.1,0.1-0.2,0.1-0.2,0.2c-3.3,3.3-2.7,6.5-2,8.7c0,0.1,0.1,0.2,0.1,0.3c2.7,6.6,6.5,12.8,12.3,20.1l0,0
			c10.5,13,21.6,23.1,33.9,30.8c1.6,1,3.2,1.8,4.7,2.6c1.4,0.7,2.7,1.3,3.8,2c0.2,0.1,0.3,0.2,0.5,0.3c1.3,0.6,2.5,1,3.8,1
			c3.2,0,5.2-2,5.8-2.6l13.1-13.1c1.3-1.3,3.4-2.9,5.8-2.9c2.4,0,4.3,1.5,5.5,2.8c0,0,0,0,0.1,0.1l21,21
			C163.5,135.8,163.5,139.8,159.6,143.9z"/>
	</g>
</g>
<g>
	<g>
		<path class="st1" d="M147.5,17L147.5,17l-37.2,39.9l-0.7-19.4c0-0.9-0.4-1.8-1.1-2.5c-0.7-0.6-1.6-1-2.6-1l-3,0.1
			c-0.9,0-1.8,0.4-2.5,1.1c-0.6,0.7-1,1.6-1,2.5l1.1,33.2c0,1,0.4,1.8,1.1,2.5c0.7,0.7,1.6,1,2.6,1l33.2-1.1c0.9,0,1.8-0.4,2.5-1.1
			c0.6-0.7,1-1.6,1-2.5l-0.1-3c0-0.9-0.4-1.8-1.1-2.5c-0.7-0.6-1.6-1-2.5-0.9l-19.5,0.7l37.3-40c1.3-1.4,1.2-3.8-0.2-5.1l-2.2-2.1
			C151.2,15.4,148.9,15.5,147.5,17z"/>
	</g>
</g>
</svg>
