<?xml version="1.0" encoding="utf-8"?>
<!-- Generator: Adobe Illustrator 22.1.0, SVG Export Plug-In . SVG Version: 6.00 Build 0)  -->
<svg version="1.1" id="Calque_1" xmlns="http://www.w3.org/2000/svg" xmlns:xlink="http://www.w3.org/1999/xlink" x="0px" y="0px"
	 viewBox="0 0 128 128" style="enable-background:new 0 0 128 128;" xml:space="preserve">
<style type="text/css">
	.st0{fill:none;stroke:#333333;stroke-width:0.9505;stroke-linecap:round;stroke-miterlimit:10;}
	.st1{fill:none;stroke:#333333;stroke-width:0.9694;stroke-linecap:round;stroke-miterlimit:10;}
	.st2{fill:none;stroke:#333333;stroke-width:0.9694;stroke-miterlimit:10;}
	.st3{fill:none;stroke:#333333;stroke-width:3.9453;stroke-linejoin:round;stroke-miterlimit:10;}
	.st4{fill:none;stroke:#333333;stroke-width:3.8776;stroke-miterlimit:10;}
</style>
<line class="st0" x1="104.5" y1="72.5" x2="66.1" y2="72.5"/>
<polyline class="st1" points="21.5,72.5 65.5,72.5 65.5,42.5 "/>
<path class="st1" d="M14.1,54.3C20.4,54.9,21,60,21,60c0.3,6.2,1.9,30,1.9,30"/>
<path class="st2" d="M102.7,91.3c0,0,2.6-21.3,3.8-31.2c0,0,0.1-5.3,7.6-5.9"/>
<path class="st3" d="M101.1,91H24.2c-1.5,0-1.8,1.2-1.8,1.2L19,104h-7V90.8c-4-0.3-5.2-5.4-5.2-5.4C6,82.3,3.6,58.5,3.6,58.5
	c0-5.9,9.4-4.7,9.4-4.7c1,0,1.1-1,1.1-1L14,41c0-2.3,1.5-4,3.8-4h42c2.3,0,4.2,2.1,4.2,4.4h1.9c0-2.3,1.9-4.4,4.2-4.4h40
	c2.3,0,3.8,1.7,3.8,4v12c0,0.8,0.9,0.9,0.9,0.9s8.9-1.2,8.9,4.7c0,0-2.4,23.8-3.3,26.9c0,0-0.7,5.2-4.7,5.4
	c-1.5,0.1-1.8,1.4-1.8,1.4V104h-6.2c-0.8-1.5-4.9-11.6-4.9-11.6S102.5,91,101.1,91z"/>
<path class="st4" d="M63,34"/>
</svg>
