<?xml version="1.0" encoding="utf-8"?>
<!-- Generator: Adobe Illustrator 22.1.0, SVG Export Plug-In . SVG Version: 6.00 Build 0)  -->
<svg version="1.1" id="Calque_1" xmlns="http://www.w3.org/2000/svg" xmlns:xlink="http://www.w3.org/1999/xlink" x="0px" y="0px"
	 viewBox="0 0 128 128" style="enable-background:new 0 0 128 128;" xml:space="preserve">
<style type="text/css">
	.st0{fill:none;stroke:#333333;stroke-width:0.9529;stroke-miterlimit:10;}
	.st1{fill:none;stroke:#333333;stroke-miterlimit:10;}
	.st2{fill:none;stroke:#333333;stroke-width:0.9667;stroke-miterlimit:10;}
	.st3{fill:none;stroke:#333333;stroke-width:4;stroke-miterlimit:10;}
	.st4{fill:none;stroke:#333333;stroke-width:0.9529;stroke-linecap:round;stroke-miterlimit:10;}
</style>
<g id="XMLID_2_">
	<g>
		<path class="st0" d="M64.4,113V83.5c0-0.5,0.5-1,1-1h21c0.5,0,1,0.4,1,1V113"/>
		<rect x="70.6" y="88.6" class="st0" width="10.9" height="10.9"/>
		<path class="st0" d="M76.7,104.1c0-0.9,0.7-1.7,1.6-1.7s1.7,0.7,1.7,1.7c0,0.9-0.7,1.6-1.7,1.6C77.4,105.8,76.7,105,76.7,104.1z"
			/>
		<polygon class="st0" points="19.6,96.5 19.6,77.5 30.5,77.5 30.5,96.5 		"/>
		<polygon class="st0" points="100.6,96.5 100.6,77.5 111.5,77.5 111.5,96.5 		"/>
		<path class="st1" d="M120.5,62.5h-0.4H93.5l0,0c-1,0-1.9-0.4-2.6-1.1L68.2,39.9c-1.4-1.4-3.8-1.4-5.2,0L39.7,61.4
			c-0.7,0.7-1.6,1.1-2.6,1.1H11.5"/>
		<circle class="st2" cx="66" cy="64.5" r="8"/>
		<path class="st3" d="M11,64H5.2c-0.6,0-1.5-0.4-1.2-1.6l23.5-42.3c0.6-0.9,1.5-1.1,2.1-1.1H103c0.6,0,1.3,0,2.1,1.1l21,42.7
			c0,0.6-0.5,1.1-1.1,1.1h-4.8V115H93.6h-6h-23H37.8H11.1L11,64z"/>
		<line class="st4" x1="37.6" y1="63.8" x2="37.6" y2="113.8"/>
		<polyline class="st4" points="93.4,62.4 93.4,62.5 93.5,112.7 		"/>
	</g>
</g>
</svg>
