<svg xmlns="http://www.w3.org/2000/svg" width="30" height="30" viewBox="0 0 30 30"><defs><style>.a{fill:#fff;}</style></defs><path class="a" d="M16,1A15,15,0,1,0,31,16,14.985,14.985,0,0,0,16,1ZM10.367,16A5.633,5.633,0,1,1,16,21.633,5.637,5.637,0,0,1,10.367,16Zm17.755,5.02h0l-5.2-2.143a7.409,7.409,0,0,0,0-5.755L26.5,11.653l1.622-.673a12.98,12.98,0,0,1,0,10.041ZM21.02,3.878h0l-2.143,5.2a7.409,7.409,0,0,0-5.755,0l-1.01-2.449L10.98,3.878a12.98,12.98,0,0,1,10.041,0ZM3.878,10.98l2.755,1.133,2.449,1.01a7.409,7.409,0,0,0,0,5.755l-5.2,2.143a12.98,12.98,0,0,1,0-10.041Zm7.1,17.143.673-1.622,1.469-3.582a7.409,7.409,0,0,0,5.755,0l2.143,5.2h0a12.98,12.98,0,0,1-10.041,0Z" transform="translate(-1 -1)"/></svg>