<?xml version="1.0" encoding="utf-8"?>
<!-- Generator: Adobe Illustrator 22.1.0, SVG Export Plug-In . SVG Version: 6.00 Build 0)  -->
<svg version="1.1" id="Capa_1" xmlns="http://www.w3.org/2000/svg" xmlns:xlink="http://www.w3.org/1999/xlink" x="0px" y="0px"
	 viewBox="0 0 113 46" style="enable-background:new 0 0 113 46;" xml:space="preserve">
<style type="text/css">
	.st0{fill:#1D3263;}
</style>
<g>
	<g>
		<path class="st0" d="M14.8,46c-1.4,0-2.8-0.5-3.9-1.6c-2.3-2.2-2.4-5.8-0.2-8.1L23.4,23L10.6,9.6c-2.2-2.3-2.1-5.9,0.2-8.1
			c2.3-2.2,5.9-2.1,8.1,0.2L35.4,19c2.1,2.2,2.1,5.7,0,7.9L18.9,44.2C17.8,45.4,16.3,46,14.8,46z"/>
	</g>
</g>
<g>
	<g>
		<path class="st0" d="M100.9,18.9L83.6,35.4c-2.2,2.1-5.7,2.1-7.9,0L58.5,18.9c-2.3-2.2-2.4-5.8-0.2-8.1c2.2-2.3,5.8-2.4,8.1-0.2
			l13.3,12.7l13.4-12.8c2.3-2.2,5.9-2.1,8.1,0.2c1,1.1,1.6,2.5,1.6,3.9C102.7,16.3,102.1,17.8,100.9,18.9z"/>
	</g>
</g>
</svg>
