<?xml version="1.0" encoding="utf-8"?>
<!-- Generator: Adobe Illustrator 22.1.0, SVG Export Plug-In . SVG Version: 6.00 Build 0)  -->
<svg version="1.1" id="Mode_Isolation" xmlns="http://www.w3.org/2000/svg" xmlns:xlink="http://www.w3.org/1999/xlink" x="0px"
	 y="0px" viewBox="0 0 430.1 509.9" style="enable-background:new 0 0 430.1 509.9;" xml:space="preserve">
<style type="text/css">
	.st0{fill:#28396C;}
</style>
<g>
	<path class="st0" d="M281.4,234.3l-17.5-6.3l15.2-10.7c28.5-20.3,47-53.2,47-90.7c0-24-7.6-46.1-20.6-64.2l0,0c0,0,0,0,0,0
		c-2.5-3.3-5-6.5-7.7-9.6c-0.3-0.2-0.5-0.5-0.9-0.9c-2.6-2.8-5.4-5.5-8.3-8c-0.3-0.4-0.5-0.5-0.8-0.7c-6.4-5.6-13.4-10.5-20.9-14.4
		c-0.3-0.1-0.5-0.2-0.8-0.5c-3.3-1.6-6.6-3.2-10.1-4.5c-1.1-0.5-2.2-0.9-3.2-1.3c-2.8-0.9-5.6-1.9-8.4-2.6c-1.3-0.3-2.6-0.6-3.9-1
		c-2.8-0.6-5.8-1.2-8.6-1.5c-1.2-0.3-2.5-0.5-3.9-0.7c-4.3-0.4-8.4-0.8-12.7-0.8c-3.5,0.1-6.9,0.3-10.2,0.6c-1.1,0.2-2,0.2-3,0.4
		c-2.5,0.2-4.9,0.7-7.4,1.1c-0.9,0.2-1.8,0.3-2.8,0.5c-6.5,1.4-12.8,3.3-18.8,5.8c-0.9,0.4-1.8,0.8-2.6,1.2c-2.2,0.9-4.3,2-6.5,3.1
		c-0.8,0.4-1.6,0.9-2.5,1.2c-2.8,1.7-5.5,3.4-8.2,5.1c-0.1,0.1-0.2,0.2-0.2,0.3c-2.5,1.7-5.1,3.4-7.4,5.4c-0.8,0.7-1.5,1.3-2.3,1.9
		c-1.7,1.5-3.4,3.1-5.1,4.6c-0.8,0.7-1.4,1.5-2.1,2.2c-2.3,2.2-4.3,4.5-6.4,6.9c-0.1,0.2-0.4,0.5-0.5,0.7c-1.8,2.3-3.5,4.6-5.2,6.9
		c-0.6,0.9-1.1,1.8-1.7,2.6c-1.2,2-2.5,3.9-3.6,5.8c-0.5,0.9-1,1.8-1.5,2.8c-1.4,2.8-2.8,5.6-4.1,8.5l0,0
		c-5.6,13.3-8.9,27.9-8.9,43.3c0,13,2.2,25.3,6.3,36.8c7.8,21.9,22.2,40.6,40.8,53.8l15.2,10.8l-17.6,6.4
		C74.3,261.5,21,333.1,21,417c-0.1,7.9,4,17,13.2,26.3c6.1,6.2,14.6,12.4,24.8,18.3c5,2.7,10.3,5.4,16,7.9
		c35.3,15.8,85.1,26.3,140.2,26.2c82.4,0.3,153.5-25.2,181-53.3c9.3-9.3,13.2-17.9,13.1-25.3C409.4,333,356.1,261.4,281.4,234.3z"/>
</g>
</svg>
