<?xml version="1.0" encoding="utf-8"?>
<!-- Generator: Adobe Illustrator 22.1.0, SVG Export Plug-In . SVG Version: 6.00 Build 0)  -->
<svg version="1.1" id="Calque_1" xmlns="http://www.w3.org/2000/svg" xmlns:xlink="http://www.w3.org/1999/xlink" x="0px" y="0px"
	 viewBox="0 0 53.6 33.9" style="enable-background:new 0 0 53.6 33.9;" xml:space="preserve">
<style type="text/css">
	.st0{fill:#2CABCE;}
</style>
<g>
	<g>
		<path class="st0" d="M33.3,8.2l-3.4-2.5c-0.9,0.7-0.6,0.5-1.5,1.2L31.3,9h-0.1l0,0c-6.2-0.6-6.1,0.9-9,4l-6.4-1.7L15.1,10
			c-0.1-0.2-0.3-0.3-0.6-0.4L8,9.1l0.4,3.2c3.3,1,6.7,2.7,9.1,6.1l-1.6,0.9c-1.2-1.6-3.1-2.6-5.2-2.6c-3.7,0-6.7,3-6.7,6.7
			s3,6.7,6.7,6.7s6.7-3,6.7-6.7c0-0.3,0-0.6-0.1-1l2-0.7c0.4,1.2,0.8,2.5,1,3.9c8.8,0,0.2,0,14.4,0c-0.6-2.5,0.2-5.2,1-6.7l1.7,1.2
			c-0.9,1.7-1.1,3.9-0.2,5.8c1.5,3.4,5.4,4.9,8.8,3.4c3.4-1.5,4.9-5.4,3.4-8.8s-5.4-4.9-8.8-3.4c-0.3,0.1-0.6,0.3-0.8,0.4l-1.2-1.3
			c1.4-1.4,2.9-2.5,4.4-3.4c0.2-0.1,0.3-0.3,0.2-0.5c-1.2-3.6-4.9-5.5-8.5-6.7L33.3,8.2z M10.6,26.6c-1.8,0-3.3-1.5-3.3-3.3
			S8.8,20,10.6,20c0.8,0,1.6,0.3,2.2,0.8L10,22.4l0.9,2.1l3-1C13.8,25.2,12.3,26.6,10.6,26.6z M44.4,26.3c-1.7,0.7-3.6,0-4.3-1.7
			c-0.3-0.8-0.4-1.6-0.1-2.3l2.5,1.9l1.5-1.6l-2.1-2.3c1.6-0.6,3.5,0.1,4.2,1.7C46.8,23.7,46,25.6,44.4,26.3z"/>
	</g>
</g>
</svg>
