<?xml version="1.0" encoding="utf-8"?>
<!-- Generator: Adobe Illustrator 22.1.0, SVG Export Plug-In . SVG Version: 6.00 Build 0)  -->
<svg version="1.1" id="menu" xmlns="http://www.w3.org/2000/svg" xmlns:xlink="http://www.w3.org/1999/xlink" x="0px" y="0px"
	 viewBox="0 0 70.5 37.5" style="enable-background:new 0 0 70.5 37.5;" xml:space="preserve">
<style type="text/css">
	.st0{fill:#2CABCE;}
</style>
<path class="st0" d="M64.3,25.1c0-11.8-10.5-13.4-10.5-13.4l-4.9-1.2c-0.1,0.1-9.2-6.8-9.2-6.8h-19c0,0-8,4.2-9.9,5.9
	c-6.1,8.2-2.6,16.8-2.6,16.8h2.3c0.8,3.5,3.9,6.2,7.7,6.2c3.4,0,6.4-2.2,7.4-5.3h20.8c1.1,3.5,4.4,5.9,8.2,5.5
	c3.4-0.3,6.2-2.9,7-5.9c0.3-1.3,0.3-1.6,0.3-1.6S62,25.3,64.3,25.1z M18.3,28.6c-2.3,0-4.1-1.8-4.1-4.1c0-2.3,1.8-4.1,4.1-4.1
	c2.3,0,4.1,1.8,4.1,4.1C22.4,26.8,20.6,28.6,18.3,28.6z M16.3,11l6.6-3.3c0,0,13.3,0,15,0c0-0.1,10.8,8.2,10.8,8.2L16.3,11z M54,29
	c-2.3,0-4.1-1.8-4.1-4.1c0-2.3,1.8-4.1,4.1-4.1c2.3,0,4.1,1.9,4.1,4.1C58.1,27.2,56.3,29,54,29z"/>
</svg>
