<?xml version="1.0" encoding="utf-8"?>
<!-- Generator: Adobe Illustrator 22.1.0, SVG Export Plug-In . SVG Version: 6.00 Build 0)  -->
<svg version="1.1" id="Capa_1" xmlns="http://www.w3.org/2000/svg" xmlns:xlink="http://www.w3.org/1999/xlink" x="0px" y="0px"
	 viewBox="0 0 512 512" style="enable-background:new 0 0 512 512;" xml:space="preserve">
<style type="text/css">
	.st0{fill:#FFFFFF;}
</style>
<g>
	<path id="YouTube__x28_alt_x29_" class="st0" d="M393,201.1c0-22.6-18.3-41-40.9-41H159.9c-22.6,0-40.9,18.3-40.9,41v109.9
		c0,22.6,18.3,41,40.9,41h192.1c22.6,0,40.9-18.3,40.9-41V201.1z M228.6,302.4V199.2l78.2,51.6L228.6,302.4z"/>
</g>
<path class="st0" d="M512,257C512,115.6,397.4,1,256,1C114.6,1,0,115.6,0,257c0,141.4,114.6,256,256,256
	C397.4,513,512,398.4,512,257z M23.3,257C23.3,128.5,127.5,24.3,256,24.3S488.7,128.5,488.7,257S384.5,489.7,256,489.7
	S23.3,385.5,23.3,257z"/>
</svg>
