<?xml version="1.0" encoding="utf-8"?>
<!-- Generator: Adobe Illustrator 22.1.0, SVG Export Plug-In . SVG Version: 6.00 Build 0)  -->
<svg version="1.1" id="menu" xmlns="http://www.w3.org/2000/svg" xmlns:xlink="http://www.w3.org/1999/xlink" x="0px" y="0px"
	 viewBox="0 0 312.8 263.9" style="enable-background:new 0 0 312.8 263.9;" xml:space="preserve">
<style type="text/css">
	.st0{fill:#1D3263;}
</style>
<path class="st0" d="M272.4,59.6H41.7c-10.2,0-18.5-8.3-18.5-18.5v0c0-10.2,8.3-18.5,18.5-18.5h230.7c10.2,0,18.5,8.3,18.5,18.5v0
	C291,51.3,282.7,59.6,272.4,59.6z"/>
<path class="st0" d="M272.4,151.5H41.7c-10.2,0-18.5-8.3-18.5-18.5v0c0-10.2,8.3-18.5,18.5-18.5h230.7c10.2,0,18.5,8.3,18.5,18.5v0
	C291,143.2,282.7,151.5,272.4,151.5z"/>
<path class="st0" d="M272.4,243.5H41.7c-10.2,0-18.5-8.3-18.5-18.5v0c0-10.2,8.3-18.5,18.5-18.5h230.7c10.2,0,18.5,8.3,18.5,18.5v0
	C291,235.2,282.7,243.5,272.4,243.5z"/>
</svg>
