<?xml version="1.0" encoding="utf-8"?>
<!-- Generator: Adobe Illustrator 22.1.0, SVG Export Plug-In . SVG Version: 6.00 Build 0)  -->
<svg version="1.1" id="Capa_1" xmlns="http://www.w3.org/2000/svg" xmlns:xlink="http://www.w3.org/1999/xlink" x="0px" y="0px"
	 viewBox="0 0 512 512" style="enable-background:new 0 0 512 512;" xml:space="preserve">
<style type="text/css">
	.st0{fill:#FFFFFF;}
</style>
<g>
	<g>
		<path class="st0" d="M389.5,87.4c0-12-4.7-23.3-13.2-31.8l-42.4-42.4C325.5,4.8,313.6,0,301.8,0h-2.6v90h90.3L389.5,87.4
			L389.5,87.4z"/>
	</g>
</g>
<g>
	<g>
		<path class="st0" d="M273.9,309.5c2.9-8.7,7.9-16.8,14.4-23.4L389.9,185v-65H284.5c-8.3,0-14.5-6.7-14.5-15V0H45
			C20.2,0,0,20.2,0,45v422c0,24.8,20.2,45,45,45h299.5c24.8,0,45.4-20.2,45.4-45V355l-16.5,16.1c-6.7,6.6-14.5,11.4-23.3,14.4
			l-47.7,15.9l-7.3,0.4c-12,0-23.4-5.8-30.4-15.6c-7-9.7-8.9-22.4-5.1-33.8L273.9,309.5z M75,270h149.5c8.3,0,15,6.7,15,15
			c0,8.3-6.7,15-15,15H75c-8.3,0-15-6.7-15-15S66.7,270,75,270z M60,225c0-8.3,6.7-15,15-15h149.5c8.3,0,15,6.7,15,15s-6.7,15-15,15
			H75C66.7,240,60,233.3,60,225z M60,345c0-8.3,6.7-15,15-15h149.5c8.3,0,15,6.7,15,15c0,8.3-6.7,15-15,15H75
			C66.7,360,60,353.3,60,345z M284.5,420c8.3,0,15,6.7,15,15c0,8.3-6.7,15-15,15h-90c-8.3,0-15-6.7-15-15c0-8.3,6.7-15,15-15H284.5z
			 M75,180c-8.3,0-15-6.7-15-15s6.7-15,15-15h209.5c8.3,0,15,6.7,15,15s-6.7,15-15,15H75z"/>
	</g>
</g>
<g>
	<g>
		<path class="st0" d="M301.1,322.8l-13,39.2c-2,5.9,3.6,11.4,9.5,9.5l39.1-13.1L301.1,322.8z"/>
	</g>
</g>
<g>
	<g>
		<path class="st0" d="M417.6,199.3l-98.8,98.8l42.6,42.6c22.3-22.3,65.8-65.8,98.8-98.8L417.6,199.3z"/>
	</g>
</g>
<g>
	<g>
		<path class="st0" d="M503.2,156.3c-5.3-5.3-13-8.3-21.3-8.3s-16,3-21.3,8.4l-21.8,21.8l42.6,42.6c11.9-11.9,20.2-20.2,21.8-21.8
			C514.9,187.2,514.9,168,503.2,156.3z"/>
	</g>
</g>
<g>
	<g>
		<g>
			<path class="st0" d="M503.2,198.9C503.2,198.9,503.2,198.9,503.2,198.9C503.3,198.9,503.3,198.8,503.2,198.9
				C503.3,198.8,503.3,198.9,503.2,198.9z"/>
			<path class="st0" d="M503.3,198.8c0,0,0.1-0.1,0.1-0.1C503.4,198.7,503.4,198.8,503.3,198.8z"/>
			<path class="st0" d="M503.4,198.7C503.5,198.6,503.5,198.6,503.4,198.7L503.4,198.7z"/>
		</g>
	</g>
</g>
</svg>
