<?xml version="1.0" encoding="utf-8"?>
<!-- Generator: Adobe Illustrator 22.1.0, SVG Export Plug-In . SVG Version: 6.00 Build 0)  -->
<svg version="1.1" id="Capa_1" xmlns="http://www.w3.org/2000/svg" xmlns:xlink="http://www.w3.org/1999/xlink" x="0px" y="0px"
	 viewBox="0 0 512 512" style="enable-background:new 0 0 512 512;" xml:space="preserve">
<style type="text/css">
	.st0{fill:#FFFFFF;}
</style>
<g>
	<path class="st0" d="M256,0C114.6,0,0,114.6,0,256s114.6,256,256,256s256-114.6,256-256S397.4,0,256,0z M256,487
		C128.4,487,25,383.6,25,256S128.4,25,256,25s231,103.4,231,231S383.6,487,256,487z"/>
	<path class="st0" d="M316.8,216.8h-44.5v-32.5c0-10,10.3-12.3,15.1-12.3c4.8,0,28.8,0,28.8,0v-43.9l-33-0.2
		c-45,0-55.3,32.7-55.3,53.7v35.1h-32.6V262h32.6c0,58,0,122,0,122h44.3c0,0,0-64.6,0-122h37.7L316.8,216.8z"/>
</g>
</svg>
