<?xml version="1.0" encoding="utf-8"?>
<!-- Generator: Adobe Illustrator 22.1.0, SVG Export Plug-In . SVG Version: 6.00 Build 0)  -->
<svg version="1.1" id="Capa_1" xmlns="http://www.w3.org/2000/svg" xmlns:xlink="http://www.w3.org/1999/xlink" x="0px" y="0px"
	 viewBox="0 0 360.5 360.5" style="enable-background:new 0 0 360.5 360.5;" xml:space="preserve">
<style type="text/css">
	.st0{fill:#2CABCE;}
</style>
<g>
	<g>
		<g>
			<path class="st0" d="M96.7,0H13.1C7.3,0,2.6,4.7,2.6,10.4V94c0,5.8,4.7,10.4,10.4,10.4h83.6c5.8,0,10.4-4.7,10.4-10.4V10.4
				C107.1,4.7,102.4,0,96.7,0z"/>
			<path class="st0" d="M222,0h-83.6C132.7,0,128,4.7,128,10.4V94c0,5.8,4.7,10.4,10.4,10.4H222c5.8,0,10.4-4.7,10.4-10.4V10.4
				C232.5,4.7,227.8,0,222,0z"/>
			<path class="st0" d="M96.7,125.4H13.1c-5.8,0-10.4,4.7-10.4,10.4v83.6c0,5.8,4.7,10.4,10.4,10.4h83.6c5.8,0,10.4-4.7,10.4-10.4
				v-83.6C107.1,130.1,102.4,125.4,96.7,125.4z"/>
			<path class="st0" d="M222,125.4h-83.6c-5.8,0-10.4,4.7-10.4,10.4v83.6c0,5.8,4.7,10.4,10.4,10.4H222c5.8,0,10.4-4.7,10.4-10.4
				v-83.6C232.5,130.1,227.8,125.4,222,125.4z"/>
			<path class="st0" d="M347.4,0h-83.6c-5.8,0-10.4,4.7-10.4,10.4V94c0,5.8,4.7,10.4,10.4,10.4h83.6c5.8,0,10.4-4.7,10.4-10.4V10.4
				C357.9,4.7,353.2,0,347.4,0z"/>
			<path class="st0" d="M347.4,125.4h-83.6c-5.8,0-10.4,4.7-10.4,10.4v83.6c0,5.8,4.7,10.4,10.4,10.4h83.6c5.8,0,10.4-4.7,10.4-10.4
				v-83.6C357.9,130.1,353.2,125.4,347.4,125.4z"/>
			<path class="st0" d="M96.7,256H13.1c-5.8,0-10.4,4.7-10.4,10.4V350c0,5.8,4.7,10.4,10.4,10.4h83.6c5.8,0,10.4-4.7,10.4-10.4
				v-83.6C107.1,260.7,102.4,256,96.7,256z"/>
			<path class="st0" d="M222,256h-83.6c-5.8,0-10.4,4.7-10.4,10.4V350c0,5.8,4.7,10.4,10.4,10.4H222c5.8,0,10.4-4.7,10.4-10.4v-83.6
				C232.5,260.7,227.8,256,222,256z"/>
			<path class="st0" d="M347.4,256h-83.6c-5.8,0-10.4,4.7-10.4,10.4V350c0,5.8,4.7,10.4,10.4,10.4h83.6c5.8,0,10.4-4.7,10.4-10.4
				v-83.6C357.9,260.7,353.2,256,347.4,256z"/>
		</g>
	</g>
</g>
</svg>
