<svg xmlns="http://www.w3.org/2000/svg" xmlns:xlink="http://www.w3.org/1999/xlink" width="18.334" height="16" viewBox="0 0 18.334 16"><defs><style>.a{fill:none;}.b{clip-path:url(#a);}.c{fill:#101010;}</style><clipPath id="a"><rect class="a" width="18.334" height="16"/></clipPath></defs><g transform="translate(5)"><g class="b" transform="translate(-5)"><path class="c" d="M18.273,15.125,9.759.379A.638.638,0,0,0,8.594.374L.066,15.132A.6.6,0,0,0,.584,16l17.21,0a.608.608,0,0,0,.479-.871M9.163,13.8a.8.8,0,1,1,.8-.8.8.8,0,0,1-.8.8m.969-7.773L9.6,11.194c-.076.247-.2.358-.424.358a.4.4,0,0,1-.41-.348L8.192,5.99a1,1,0,0,1,.977-1.154,1.036,1.036,0,0,1,.963,1.189" transform="translate(0 0.001)"/></g></g></svg>