<svg xmlns="http://www.w3.org/2000/svg" width="26.008" height="26" viewBox="0 0 26.008 26"><defs><style>.a{fill:#b3cb37;}</style></defs><g transform="translate(-571.557 -11.258)"><path class="a" d="M597.159,25.191,584.2,12.222a3.835,3.835,0,0,0-2.351-.964h-8.917a1.39,1.39,0,0,0-1.376,1.365l.011,8.917a3.841,3.841,0,0,0,.964,2.351L585.5,36.86a1.38,1.38,0,0,0,1.94,0l9.718-9.73A1.359,1.359,0,0,0,597.159,25.191Zm-21.82-8.213a1.95,1.95,0,1,1,1.95-1.95A1.949,1.949,0,0,1,575.339,16.978Zm3.77,6.144a2.937,2.937,0,0,1,.639-2.1,2.49,2.49,0,0,1,1.647-.878,2.674,2.674,0,0,1,2.774,2.535,2.928,2.928,0,0,1-.65,2.113,2.387,2.387,0,0,1-1.636.867,2.413,2.413,0,0,1-1.9-.672A2.93,2.93,0,0,1,579.109,23.122Zm5.287,7.66a1.557,1.557,0,0,1-1.322.725,1.485,1.485,0,0,1-.606-.13.525.525,0,0,1-.293-.1.614.614,0,0,1-.238-.26.034.034,0,0,1-.011-.022,1.579,1.579,0,0,1-.163-1.885l5.743-9.079.075-.109a1.587,1.587,0,0,1,1.214-.574,1.563,1.563,0,0,1,1.311,2.4Zm7.454-.7a2.383,2.383,0,0,1-1.636.867,2.652,2.652,0,0,1-2.773-2.535,2.889,2.889,0,0,1,.639-2.1,2.43,2.43,0,0,1,1.647-.867,2.658,2.658,0,0,1,2.773,2.535A2.9,2.9,0,0,1,591.85,30.077Z"/></g></svg>