<svg xmlns="http://www.w3.org/2000/svg" width="14.827" height="16" viewBox="0 0 14.827 16"><path d="M109.31,101.963l-2.463-1.343a1.435,1.435,0,0,0-1.833.4l-.991,1.342a12.785,12.785,0,0,1-3.11-2.728,8.842,8.842,0,0,1-2.086-3.344l1.64-.962a1.369,1.369,0,0,0,.568-1.753l-1.155-2.512a1.159,1.159,0,0,0-1.614-.511c-1.183.651-2.908,1.8-3.146,3.087a11.493,11.493,0,0,0,2.754,8.617,12,12,0,0,0,8.2,4.148c1.4.034,2.826-1.678,3.628-2.838A1.107,1.107,0,0,0,109.31,101.963Z" transform="translate(-95.07 -90.409)"/></svg>