<?xml version="1.0" encoding="utf-8"?>
<!-- Generator: Adobe Illustrator 22.1.0, SVG Export Plug-In . SVG Version: 6.00 Build 0)  -->
<svg version="1.1" id="Calque_1" xmlns="http://www.w3.org/2000/svg" xmlns:xlink="http://www.w3.org/1999/xlink" x="0px" y="0px"
	 viewBox="0 0 128 128" style="enable-background:new 0 0 128 128;" xml:space="preserve">
<style type="text/css">
	.st0{fill:#A4C151;}
	.st1{fill:none;stroke:#333333;stroke-width:0.9529;stroke-miterlimit:10;}
	.st2{fill:none;stroke:#333333;stroke-miterlimit:10;}
	.st3{fill:none;stroke:#333333;stroke-width:0.9667;stroke-miterlimit:10;}
	.st4{fill:none;stroke:#333333;stroke-width:4;stroke-miterlimit:10;}
	.st5{fill:none;stroke:#333333;stroke-width:0.9529;stroke-linecap:round;stroke-miterlimit:10;}
</style>
<g id="XMLID_1_">
	<g>
		<path class="st0" d="M119.1,60H92.5l0,0c-1,0-1.9-0.4-2.6-1.1L67.2,37.4c-1.4-1.4-3.8-1.4-5.2,0L38.7,58.9
			C38,59.7,37.1,60,36.1,60H10.5L10,61.5H4.2c-0.6,0-1.5-0.4-1.2-1.6l23.5-42.3c0.6-0.9,1.5-1.1,2.1-1.1H102c0.6,0,1.3,0,2.1,1.1
			l21,42.7c0,0.6-0.5,1.1-1.1,1.1h-4.8L119.1,60L119.1,60z"/>
	</g>
	<g>
		<path class="st1" d="M63.4,110.5V81c0-0.5,0.5-1,1-1h21c0.5,0,1,0.4,1,1v29.5"/>
		<rect x="69.6" y="86.1" class="st1" width="10.9" height="10.9"/>
		<path class="st1" d="M75.7,101.6c0-0.9,0.7-1.7,1.6-1.7s1.7,0.7,1.7,1.7c0,0.9-0.7,1.6-1.7,1.6C76.4,103.3,75.7,102.5,75.7,101.6z
			"/>
		<polygon class="st1" points="18.6,94 18.6,75 29.5,75 29.5,94 		"/>
		<polygon class="st1" points="99.6,94 99.6,75 110.5,75 110.5,94 		"/>
		<path class="st2" d="M119.5,60h-0.4H92.5l0,0c-1,0-1.9-0.4-2.6-1.1L67.2,37.4c-1.4-1.4-3.8-1.4-5.2,0L38.7,58.9
			C38,59.7,37.1,60,36.1,60H10.5"/>
		<circle class="st3" cx="65" cy="62" r="8"/>
		<path class="st4" d="M10,61.5H4.2c-0.6,0-1.5-0.4-1.2-1.6l23.5-42.3c0.6-0.9,1.5-1.1,2.1-1.1H102c0.6,0,1.3,0,2.1,1.1l21,42.7
			c0,0.6-0.5,1.1-1.1,1.1h-4.8v51.1H92.6h-6h-23H36.8H10.1L10,61.5z"/>
		<line class="st5" x1="36.6" y1="61.3" x2="36.6" y2="111.3"/>
		<polyline class="st5" points="92.4,59.9 92.4,60 92.5,110.2 		"/>
	</g>
</g>
</svg>
