<?xml version="1.0" encoding="utf-8"?>
<!-- Generator: Adobe Illustrator 22.1.0, SVG Export Plug-In . SVG Version: 6.00 Build 0)  -->
<svg version="1.1" id="Calque_1" xmlns="http://www.w3.org/2000/svg" xmlns:xlink="http://www.w3.org/1999/xlink" x="0px" y="0px"
	 viewBox="0 0 128 128" style="enable-background:new 0 0 128 128;" xml:space="preserve">
<style type="text/css">
	.st0{fill:#A4C151;}
	.st1{fill:none;stroke:#333333;stroke-width:0.9729;stroke-miterlimit:10;}
	.st2{fill:none;stroke:#333333;stroke-width:3.8915;stroke-miterlimit:10;}
	.st3{fill:none;stroke:#333333;stroke-miterlimit:10;}
	.st4{fill:none;stroke:#333333;stroke-width:3.8915;stroke-linecap:round;stroke-miterlimit:10;}
</style>
<g id="XMLID_4_">
	<g>
		<polygon class="st0" points="113.5,64.5 113.5,79.5 52.5,79.6 52.5,79 52.5,64 54,64 112,64 		"/>
		<path class="st0" d="M54,59v5h-1.5v15v0.6h-9V79V63.6v-0.1v-4c0-0.5,0.5-1,1-1V58H53C53.6,58,54,58.6,54,59z"/>
	</g>
	<g>
		<polyline class="st1" points="113.5,79.5 52.5,79.6 43.5,79.6 16.7,79.6 		"/>
		<path class="st1" d="M44.5,58.5c-0.6,0-1,0.5-1,1v4H16.6V53"/>
		<path class="st2" d="M18,54v-1V40.2c0-1.2-1-2.2-2.1-2.2H9.1C8,38,7,39,7,40.2v51.6c0,1.2,1,2.1,2.1,2.1h6.8
			c1.2,0,2.1-0.9,2.1-2.1v-5.7l93.9-0.1v5.8c0,1.2,1,2.2,2.2,2.2h5.6c1.2,0,2.2-1,2.2-2.2V58.3c0-1.2-1-2.2-2.2-2.2H114
			c-1.2,0-2.1,1-2.1,2.2L112,64H54v-5c0-0.4-0.4-0.9-1-0.9h-8.5H44"/>
		<line class="st1" x1="52.5" y1="64" x2="52.5" y2="79"/>
		<line class="st1" x1="43.5" y1="79" x2="43.5" y2="63.6"/>
		<polyline class="st3" points="16.5,63.5 16.5,79.6 16.5,86.1 16.5,86.5 		"/>
		<polyline class="st3" points="113.5,64.5 113.5,79.5 113.5,86 113.5,86.5 		"/>
	</g>
</g>
<path class="st4" d="M18,56c0,0,3.8-4,12.8-4c4.5,0,9.6,1,13.7,5.6"/>
</svg>
