<?xml version="1.0" encoding="utf-8"?>
<!-- Generator: Adobe Illustrator 22.1.0, SVG Export Plug-In . SVG Version: 6.00 Build 0)  -->
<svg version="1.1" id="Calque_1" xmlns="http://www.w3.org/2000/svg" xmlns:xlink="http://www.w3.org/1999/xlink" x="0px" y="0px"
	 viewBox="0 0 128 128" style="enable-background:new 0 0 128 128;" xml:space="preserve">
<style type="text/css">
	.st0{fill:#A4C151;}
	.st1{fill:none;stroke:#333333;stroke-width:0.9505;stroke-linecap:round;stroke-miterlimit:10;}
	.st2{fill:none;stroke:#333333;stroke-width:0.9694;stroke-linecap:round;stroke-miterlimit:10;}
	.st3{fill:none;stroke:#333333;stroke-width:0.9694;stroke-miterlimit:10;}
	.st4{fill:none;stroke:#333333;stroke-width:3.9453;stroke-linejoin:round;stroke-miterlimit:10;}
</style>
<g id="XMLID_6_">
	<g>
		<path class="st0" d="M114.3,53.6l-0.3,0.5c-7.4,0.6-7.6,6-7.6,6c-0.4,3.3-0.9,7.9-1.5,12.5l-0.4-0.1H66h-0.5v-30v-1.1h0.4
			c0-2.3,1.9-4.4,4.2-4.4h40c2.3,0,3.8,1.7,3.8,4v12C114,53.3,114.2,53.5,114.3,53.6z"/>
		<path class="st0" d="M65.5,41.4v1.1v30v0.1H21.7C21.4,67.3,21.1,62.3,21,60c0,0-0.6-5-6.9-5.6L13,53.8c1,0,1.1-1,1.1-1L14,41
			c0-2.3,1.5-4,3.8-4h42c2.3,0,4.2,2.1,4.2,4.4H65.5z"/>
	</g>
	<g>
		<line class="st1" x1="104.5" y1="72.5" x2="66.1" y2="72.5"/>
		<polyline class="st2" points="21.5,72.5 21.8,72.5 65.5,72.5 65.5,72.5 65.5,42.5 		"/>
		<path class="st2" d="M14.1,54.3C20.4,54.9,21,60,21,60c0.1,2.4,0.4,7.3,0.8,12.5c0.5,8.4,1.1,17.5,1.1,17.5"/>
		<path class="st3" d="M102.7,91.3c0,0,1.2-9.5,2.3-18.7c0.6-4.6,1.1-9.2,1.5-12.5c0,0,0.1-5.3,7.6-6"/>
		<path class="st4" d="M102.2,91.3c-0.3-0.2-0.6-0.3-1-0.3H24.3c-0.4,0-0.7,0.1-0.9,0.2c-0.7,0.3-0.9,1-0.9,1L19,104h-7V90.8
			c-4-0.3-5.2-5.4-5.2-5.4C6,82.3,3.6,58.5,3.6,58.5c0-5.9,9.4-4.7,9.4-4.7c1,0,1.1-1,1.1-1L14,41c0-2.3,1.5-4,3.8-4h42
			c2.3,0,4.2,2.1,4.2,4.4h1.5h0.4c0-2.3,1.9-4.4,4.2-4.4h40c2.3,0,3.8,1.7,3.8,4v12c0,0.3,0.1,0.5,0.3,0.6c0.3,0.2,0.6,0.3,0.6,0.3
			s8.9-1.2,8.9,4.7c0,0-2.4,23.8-3.3,26.9c0,0-0.7,5.2-4.7,5.4c-1.5,0.1-1.8,1.4-1.8,1.4V104h-6.2c-0.8-1.5-4.9-11.6-4.9-11.6
			S102.7,91.8,102.2,91.3z"/>
	</g>
</g>
</svg>
