<?xml version="1.0" encoding="utf-8"?>
<!-- Generator: Adobe Illustrator 22.1.0, SVG Export Plug-In . SVG Version: 6.00 Build 0)  -->
<svg version="1.1" id="Calque_1" xmlns="http://www.w3.org/2000/svg" xmlns:xlink="http://www.w3.org/1999/xlink" x="0px" y="0px"
	 viewBox="0 0 128 128" style="enable-background:new 0 0 128 128;" xml:space="preserve">
<style type="text/css">
	.st0{fill:none;stroke:#333333;stroke-width:4;stroke-miterlimit:10;}
	.st1{fill:none;stroke:#333333;stroke-linecap:round;stroke-linejoin:round;}
	.st2{fill:none;stroke:#333333;stroke-miterlimit:10;}
</style>
<path class="st0" d="M34.9,125.2L35,33.8c0-0.4-0.3-0.8-0.8-0.8h-2.3c-0.5,0-0.9-0.5-0.7-1l4.7-17.1c0.3-1.6,1.5-2.9,3.1-2.9h33.2
	c0.4,0,0.8-0.3,0.8-0.8V3.7c0-0.4,0.3-0.8,0.8-0.8h6.5c0.4,0,0.7,0.3,0.7,0.7v7.6c0,0.4,0.3,0.7,0.8,0.7h10c1.7,0,2.8,1.1,3.3,2.6
	L99.8,32c0.1,0.5-0.2,1-0.7,1h-2.2c-0.4,0-0.8,0.3-0.8,0.8L96,125.2c0,0.4-0.3,0.8-0.8,0.8H35.7C35.3,125.9,34.9,125.6,34.9,125.2z"
	/>
<rect x="48.5" y="42.5" class="st1" width="7" height="14.1"/>
<rect x="61.5" y="42.5" class="st1" width="7" height="14.1"/>
<rect x="74.5" y="42.5" class="st1" width="7" height="14.1"/>
<rect x="48.5" y="71.5" class="st1" width="7" height="14.1"/>
<rect x="61.5" y="71.5" class="st1" width="7" height="14.1"/>
<rect x="74.5" y="71.5" class="st1" width="7" height="14.1"/>
<polygon class="st1" points="82.6,126 63.5,126 63.6,100.6 82.6,100.6 "/>
<polyline class="st2" points="79.5,8.1 79.5,24.5 74.6,24.5 74.6,8 "/>
<line class="st2" x1="36.2" y1="32.5" x2="95.1" y2="32.5"/>
<polygon class="st1" points="77.6,113.5 68.6,113.5 68.6,104.4 77.5,104.5 "/>
</svg>
