<?xml version="1.0" encoding="utf-8"?>
<!-- Generator: Adobe Illustrator 18.1.1, SVG Export Plug-In . SVG Version: 6.00 Build 0)  -->
<svg version="1.1" id="CMJN" xmlns="http://www.w3.org/2000/svg" xmlns:xlink="http://www.w3.org/1999/xlink" x="0px" y="0px"
	 viewBox="0 0 62.3 64.3" enable-background="new 0 0 62.3 64.3" xml:space="preserve">
<g>
	<path fill="#FFFFFF" d="M58.1,4.2H2.4c0.8,8.3,1.2,17.7,1.2,27.6c0,3,0,6-0.1,8.9l0.1,0C3.4,47.5,3.1,54.9,2.6,61h55.7
		c0.6-6.3,0.9-17.8,1.1-23.8l0,0C59.5,24.2,58.9,12.5,58.1,4.2z"/>
	<g>
		<linearGradient id="SVGID_1_" gradientUnits="userSpaceOnUse" x1="5.8854" y1="38.1422" x2="54.6409" y2="7.0285">
			<stop  offset="0" style="stop-color:#00275B"/>
			<stop  offset="3.017955e-002" style="stop-color:#002E65"/>
			<stop  offset="9.200462e-002" style="stop-color:#003B75"/>
			<stop  offset="0.1592" style="stop-color:#004482"/>
			<stop  offset="0.2334" style="stop-color:#004C8C"/>
			<stop  offset="0.3202" style="stop-color:#005092"/>
			<stop  offset="0.45" style="stop-color:#005193"/>
			<stop  offset="1" style="stop-color:#00275B"/>
		</linearGradient>
		<path fill="url(#SVGID_1_)" d="M6.7,39.8l49.5-3.2c0.2-11.4-0.4-21.8-1.1-29.1H5.8c0.7,7.4,1.1,15.7,1.1,24.4
			C6.8,34.6,6.8,37.3,6.7,39.8z"/>
	</g>
	<linearGradient id="SVGID_2_" gradientUnits="userSpaceOnUse" x1="6.0421" y1="51.9064" x2="56.0802" y2="47.1884">
		<stop  offset="0" style="stop-color:#1FA22E"/>
		<stop  offset="0.3573" style="stop-color:#53AA28"/>
		<stop  offset="0.7138" style="stop-color:#6AB023"/>
		<stop  offset="1" style="stop-color:#70B221"/>
	</linearGradient>
	<path fill="url(#SVGID_2_)" d="M6.7,41.3c-0.1,6-0.4,11.1-0.8,16.5h49.3c0.6-5.6,0.8-11.1,0.9-16.5H6.7z"/>
	<g>
		<g>
			<path fill="#FFFFFF" d="M20.9,50.4l-1.5,1.8h2v1.1h-4.1c0.2-0.2,0.4-0.5,0.6-0.8c0.2-0.3,0.5-0.6,0.7-1c0.3-0.3,0.5-0.7,0.8-1
				c0.3-0.3,0.5-0.6,0.7-0.8c0.1-0.1,0.2-0.3,0.3-0.5c0.1-0.2,0.1-0.3,0.1-0.5c0-0.2,0-0.3-0.1-0.5c-0.1-0.1-0.1-0.3-0.3-0.4
				c-0.1-0.1-0.2-0.2-0.4-0.2c-0.1-0.1-0.3-0.1-0.5-0.1c-0.3,0-0.5,0.1-0.7,0.2c-0.2,0.1-0.4,0.3-0.5,0.6l-1-0.4
				c0.1-0.2,0.2-0.4,0.3-0.6c0.1-0.2,0.3-0.3,0.5-0.5c0.2-0.1,0.4-0.2,0.6-0.3c0.2-0.1,0.4-0.1,0.7-0.1c0.3,0,0.6,0.1,0.9,0.2
				c0.3,0.1,0.5,0.3,0.7,0.5c0.2,0.2,0.4,0.4,0.5,0.7c0.1,0.3,0.2,0.6,0.2,0.9C21.6,49.3,21.4,49.9,20.9,50.4z"/>
			<path fill="#FFFFFF" d="M29.5,51.2c-0.2,0.4-0.4,0.8-0.7,1.1c-0.3,0.3-0.7,0.6-1.1,0.7c-0.4,0.2-0.9,0.3-1.3,0.3
				c-0.5,0-0.9-0.1-1.3-0.3c-0.4-0.2-0.8-0.4-1.1-0.7c-0.3-0.3-0.6-0.7-0.7-1.1c-0.2-0.4-0.3-0.9-0.3-1.3c0-0.5,0.1-0.9,0.3-1.3
				c0.2-0.4,0.4-0.8,0.7-1.1c0.3-0.3,0.7-0.6,1.1-0.7c0.4-0.2,0.9-0.3,1.3-0.3c0.5,0,0.9,0.1,1.3,0.3c0.4,0.2,0.8,0.4,1.1,0.7
				c0.3,0.3,0.6,0.7,0.7,1.1c0.2,0.4,0.3,0.9,0.3,1.3C29.8,50.3,29.7,50.8,29.5,51.2z M28.5,48.9c-0.1-0.3-0.3-0.5-0.5-0.8
				c-0.2-0.2-0.5-0.4-0.8-0.5c-0.3-0.1-0.6-0.2-0.9-0.2c-0.3,0-0.6,0.1-0.9,0.2c-0.3,0.1-0.5,0.3-0.8,0.5c-0.2,0.2-0.4,0.5-0.5,0.8
				C24,49.2,24,49.5,24,49.9c0,0.3,0.1,0.6,0.2,0.9c0.1,0.3,0.3,0.5,0.5,0.8c0.2,0.2,0.5,0.4,0.8,0.5c0.3,0.1,0.6,0.2,0.9,0.2
				c0.3,0,0.6-0.1,0.9-0.2c0.3-0.1,0.5-0.3,0.8-0.5c0.2-0.2,0.4-0.5,0.5-0.8c0.1-0.3,0.2-0.6,0.2-0.9C28.7,49.5,28.7,49.2,28.5,48.9
				z"/>
			<path fill="#FFFFFF" d="M37.5,51.2c-0.2,0.4-0.4,0.8-0.7,1.1c-0.3,0.3-0.7,0.6-1.1,0.7c-0.4,0.2-0.9,0.3-1.3,0.3
				c-0.5,0-0.9-0.1-1.3-0.3c-0.4-0.2-0.8-0.4-1.1-0.7c-0.3-0.3-0.6-0.7-0.7-1.1c-0.2-0.4-0.3-0.9-0.3-1.3c0-0.5,0.1-0.9,0.3-1.3
				c0.2-0.4,0.4-0.8,0.7-1.1c0.3-0.3,0.7-0.6,1.1-0.7c0.4-0.2,0.9-0.3,1.3-0.3c0.5,0,0.9,0.1,1.3,0.3c0.4,0.2,0.8,0.4,1.1,0.7
				c0.3,0.3,0.6,0.7,0.7,1.1c0.2,0.4,0.3,0.9,0.3,1.3C37.8,50.3,37.7,50.8,37.5,51.2z M36.5,48.9c-0.1-0.3-0.3-0.5-0.5-0.8
				c-0.2-0.2-0.5-0.4-0.8-0.5c-0.3-0.1-0.6-0.2-0.9-0.2c-0.3,0-0.6,0.1-0.9,0.2c-0.3,0.1-0.5,0.3-0.8,0.5c-0.2,0.2-0.4,0.5-0.5,0.8
				C32,49.2,32,49.5,32,49.9c0,0.3,0.1,0.6,0.2,0.9c0.1,0.3,0.3,0.5,0.5,0.8c0.2,0.2,0.5,0.4,0.8,0.5c0.3,0.1,0.6,0.2,0.9,0.2
				c0.3,0,0.6-0.1,0.9-0.2c0.3-0.1,0.5-0.3,0.8-0.5c0.2-0.2,0.4-0.5,0.5-0.8c0.1-0.3,0.2-0.6,0.2-0.9C36.7,49.5,36.6,49.2,36.5,48.9
				z"/>
			<path fill="#FFFFFF" d="M45.5,51.2c-0.2,0.4-0.4,0.8-0.7,1.1c-0.3,0.3-0.7,0.6-1.1,0.7c-0.4,0.2-0.9,0.3-1.3,0.3
				c-0.5,0-0.9-0.1-1.3-0.3c-0.4-0.2-0.8-0.4-1.1-0.7c-0.3-0.3-0.6-0.7-0.7-1.1c-0.2-0.4-0.3-0.9-0.3-1.3c0-0.5,0.1-0.9,0.3-1.3
				c0.2-0.4,0.4-0.8,0.7-1.1c0.3-0.3,0.7-0.6,1.1-0.7c0.4-0.2,0.9-0.3,1.3-0.3c0.5,0,0.9,0.1,1.3,0.3c0.4,0.2,0.8,0.4,1.1,0.7
				c0.3,0.3,0.6,0.7,0.7,1.1c0.2,0.4,0.3,0.9,0.3,1.3C45.8,50.3,45.7,50.8,45.5,51.2z M44.5,48.9c-0.1-0.3-0.3-0.5-0.5-0.8
				c-0.2-0.2-0.5-0.4-0.8-0.5c-0.3-0.1-0.6-0.2-0.9-0.2c-0.3,0-0.6,0.1-0.9,0.2c-0.3,0.1-0.5,0.3-0.8,0.5c-0.2,0.2-0.4,0.5-0.5,0.8
				c-0.1,0.3-0.2,0.6-0.2,0.9c0,0.3,0.1,0.6,0.2,0.9c0.1,0.3,0.3,0.5,0.5,0.8c0.2,0.2,0.5,0.4,0.8,0.5c0.3,0.1,0.6,0.2,0.9,0.2
				c0.3,0,0.6-0.1,0.9-0.2c0.3-0.1,0.5-0.3,0.8-0.5c0.2-0.2,0.4-0.5,0.5-0.8c0.1-0.3,0.2-0.6,0.2-0.9C44.7,49.5,44.6,49.2,44.5,48.9
				z"/>
		</g>
	</g>
	<g>
		<g>
			<path fill="#FFFFFF" d="M23.5,33.7c0,0.1,0.1,0.3,0.1,0.3c0,0.1,0,0.1,0,0.2c0,0-0.1,0.1-0.2,0.1c-0.1,0-0.3,0-0.5,0
				c-0.2,0-0.4,0-0.5,0c-0.1,0-0.2,0-0.3,0c-0.1,0-0.1,0-0.1-0.1c0,0,0-0.1-0.1-0.1l-0.5-1.5h-2.8L18.1,34c0,0.1,0,0.1-0.1,0.1
				c0,0-0.1,0.1-0.1,0.1c-0.1,0-0.1,0-0.2,0c-0.1,0-0.2,0-0.4,0c-0.2,0-0.3,0-0.4,0c-0.1,0-0.2,0-0.2-0.1c0,0-0.1-0.1,0-0.2
				c0-0.1,0-0.2,0.1-0.3L19,27c0-0.1,0.1-0.1,0.1-0.2c0,0,0.1-0.1,0.1-0.1c0.1,0,0.2,0,0.3,0c0.1,0,0.3,0,0.5,0c0.2,0,0.4,0,0.6,0
				c0.1,0,0.2,0,0.3,0c0.1,0,0.1,0.1,0.2,0.1c0,0,0.1,0.1,0.1,0.2L23.5,33.7z M20,28.1L20,28.1l-1.1,3.2h2.1L20,28.1z"/>
			<path fill="#FFFFFF" d="M30.2,32c0,0.4-0.1,0.7-0.2,1c-0.1,0.3-0.3,0.6-0.6,0.8c-0.3,0.2-0.6,0.4-0.9,0.5
				c-0.3,0.1-0.7,0.2-1.1,0.2c-0.3,0-0.5,0-0.7-0.1c-0.2,0-0.4-0.1-0.6-0.2c-0.2-0.1-0.3-0.1-0.4-0.2c-0.1-0.1-0.2-0.1-0.2-0.2
				c-0.1-0.1-0.1-0.1-0.1-0.2c0-0.1,0-0.2,0-0.4c0-0.1,0-0.2,0-0.3c0-0.1,0-0.1,0-0.2c0-0.1,0-0.1,0.1-0.1c0,0,0.1,0,0.1,0
				c0.1,0,0.1,0,0.2,0.1c0.1,0.1,0.2,0.1,0.4,0.2c0.2,0.1,0.3,0.1,0.6,0.2c0.2,0.1,0.5,0.1,0.8,0.1c0.2,0,0.4,0,0.5-0.1
				c0.1,0,0.3-0.1,0.4-0.2c0.1-0.1,0.2-0.2,0.2-0.3c0.1-0.1,0.1-0.3,0.1-0.4c0-0.2,0-0.3-0.1-0.4c-0.1-0.1-0.2-0.2-0.4-0.3
				c-0.2-0.1-0.3-0.2-0.5-0.3c-0.2-0.1-0.4-0.2-0.6-0.3c-0.2-0.1-0.4-0.2-0.6-0.3c-0.2-0.1-0.4-0.3-0.5-0.4
				c-0.2-0.2-0.3-0.4-0.4-0.6c-0.1-0.2-0.1-0.5-0.1-0.8c0-0.4,0.1-0.7,0.2-1c0.1-0.3,0.3-0.5,0.5-0.7c0.2-0.2,0.5-0.3,0.8-0.4
				c0.3-0.1,0.6-0.1,1-0.1c0.2,0,0.4,0,0.5,0c0.2,0,0.3,0.1,0.5,0.1c0.2,0,0.3,0.1,0.4,0.2c0.1,0.1,0.2,0.1,0.2,0.1
				c0,0,0.1,0.1,0.1,0.1c0,0,0,0.1,0,0.1c0,0,0,0.1,0,0.2c0,0.1,0,0.2,0,0.3c0,0.1,0,0.2,0,0.3c0,0.1,0,0.1,0,0.2
				c0,0.1,0,0.1-0.1,0.1c0,0-0.1,0-0.1,0c0,0-0.1,0-0.2-0.1c-0.1-0.1-0.2-0.1-0.3-0.2c-0.1-0.1-0.3-0.1-0.5-0.2
				c-0.2-0.1-0.4-0.1-0.6-0.1c-0.2,0-0.3,0-0.4,0.1c-0.1,0-0.2,0.1-0.3,0.2c-0.1,0.1-0.1,0.2-0.2,0.3c0,0.1-0.1,0.2-0.1,0.3
				c0,0.2,0,0.3,0.1,0.4c0.1,0.1,0.2,0.2,0.4,0.3c0.2,0.1,0.3,0.2,0.5,0.3c0.2,0.1,0.4,0.2,0.6,0.3c0.2,0.1,0.4,0.2,0.6,0.3
				c0.2,0.1,0.4,0.3,0.5,0.4s0.3,0.4,0.4,0.6C30.2,31.4,30.2,31.7,30.2,32z"/>
			<path fill="#FFFFFF" d="M37.1,32c0,0.4-0.1,0.7-0.2,1c-0.1,0.3-0.3,0.6-0.6,0.8c-0.3,0.2-0.6,0.4-0.9,0.5
				c-0.3,0.1-0.7,0.2-1.1,0.2c-0.3,0-0.5,0-0.7-0.1c-0.2,0-0.4-0.1-0.6-0.2c-0.2-0.1-0.3-0.1-0.4-0.2c-0.1-0.1-0.2-0.1-0.2-0.2
				c-0.1-0.1-0.1-0.1-0.1-0.2c0-0.1,0-0.2,0-0.4c0-0.1,0-0.2,0-0.3c0-0.1,0-0.1,0-0.2c0-0.1,0-0.1,0.1-0.1c0,0,0.1,0,0.1,0
				c0.1,0,0.1,0,0.2,0.1c0.1,0.1,0.2,0.1,0.4,0.2c0.2,0.1,0.3,0.1,0.6,0.2c0.2,0.1,0.5,0.1,0.8,0.1c0.2,0,0.4,0,0.5-0.1
				c0.1,0,0.3-0.1,0.4-0.2c0.1-0.1,0.2-0.2,0.2-0.3c0.1-0.1,0.1-0.3,0.1-0.4c0-0.2,0-0.3-0.1-0.4c-0.1-0.1-0.2-0.2-0.4-0.3
				c-0.2-0.1-0.3-0.2-0.5-0.3c-0.2-0.1-0.4-0.2-0.6-0.3c-0.2-0.1-0.4-0.2-0.6-0.3c-0.2-0.1-0.4-0.3-0.5-0.4
				c-0.2-0.2-0.3-0.4-0.4-0.6c-0.1-0.2-0.1-0.5-0.1-0.8c0-0.4,0.1-0.7,0.2-1c0.1-0.3,0.3-0.5,0.5-0.7c0.2-0.2,0.5-0.3,0.8-0.4
				c0.3-0.1,0.6-0.1,1-0.1c0.2,0,0.4,0,0.5,0c0.2,0,0.3,0.1,0.5,0.1c0.2,0,0.3,0.1,0.4,0.2c0.1,0.1,0.2,0.1,0.2,0.1
				c0,0,0.1,0.1,0.1,0.1c0,0,0,0.1,0,0.1c0,0,0,0.1,0,0.2c0,0.1,0,0.2,0,0.3c0,0.1,0,0.2,0,0.3c0,0.1,0,0.1,0,0.2
				c0,0.1,0,0.1-0.1,0.1c0,0-0.1,0-0.1,0c0,0-0.1,0-0.2-0.1c-0.1-0.1-0.2-0.1-0.3-0.2c-0.1-0.1-0.3-0.1-0.5-0.2
				c-0.2-0.1-0.4-0.1-0.6-0.1c-0.2,0-0.3,0-0.4,0.1c-0.1,0-0.2,0.1-0.3,0.2c-0.1,0.1-0.1,0.2-0.2,0.3c0,0.1-0.1,0.2-0.1,0.3
				c0,0.2,0,0.3,0.1,0.4c0.1,0.1,0.2,0.2,0.4,0.3c0.2,0.1,0.3,0.2,0.5,0.3c0.2,0.1,0.4,0.2,0.6,0.3s0.4,0.2,0.6,0.3
				c0.2,0.1,0.4,0.3,0.5,0.4s0.3,0.4,0.4,0.6C37,31.4,37.1,31.7,37.1,32z"/>
			<path fill="#FFFFFF" d="M45.6,31.4c0,0.5-0.1,0.9-0.2,1.2c-0.1,0.4-0.3,0.7-0.6,0.9c-0.3,0.3-0.6,0.4-1,0.6
				c-0.4,0.1-0.8,0.2-1.3,0.2c-0.5,0-0.9-0.1-1.3-0.2c-0.4-0.1-0.7-0.3-1-0.5c-0.3-0.2-0.5-0.5-0.6-0.9c-0.1-0.4-0.2-0.8-0.2-1.3
				v-4.6c0,0,0-0.1,0-0.1c0,0,0.1-0.1,0.1-0.1c0.1,0,0.1,0,0.2,0c0.1,0,0.2,0,0.4,0c0.1,0,0.3,0,0.4,0c0.1,0,0.2,0,0.2,0
				s0.1,0,0.1,0.1c0,0,0,0.1,0,0.1v4.5c0,0.3,0,0.6,0.1,0.8c0.1,0.2,0.2,0.4,0.3,0.5c0.1,0.1,0.3,0.3,0.5,0.3
				c0.2,0.1,0.4,0.1,0.6,0.1c0.2,0,0.5,0,0.6-0.1c0.2-0.1,0.4-0.2,0.5-0.3c0.1-0.1,0.2-0.3,0.3-0.5c0.1-0.2,0.1-0.4,0.1-0.7v-4.6
				c0,0,0-0.1,0-0.1c0,0,0.1-0.1,0.1-0.1c0.1,0,0.1,0,0.2,0c0.1,0,0.2,0,0.4,0c0.1,0,0.3,0,0.4,0c0.1,0,0.2,0,0.2,0
				c0.1,0,0.1,0,0.1,0.1c0,0,0,0.1,0,0.1V31.4z"/>
		</g>
	</g>
</g>
</svg>
