<?xml version="1.0" encoding="utf-8"?>
<!-- Generator: Adobe Illustrator 19.0.0, SVG Export Plug-In . SVG Version: 6.00 Build 0)  -->
<!DOCTYPE svg PUBLIC "-//W3C//DTD SVG 1.1//EN" "http://www.w3.org/Graphics/SVG/1.1/DTD/svg11.dtd">
<svg version="1.1" id="Calque_1" xmlns="http://www.w3.org/2000/svg" xmlns:xlink="http://www.w3.org/1999/xlink" x="0px" y="0px"
	 viewBox="549 317.4 24.7 36" enable-background="new 549 317.4 24.7 36" xml:space="preserve">
<g>
	<g>
		<path fill="#595959" d="M558.7,322.2l-1.1,0.4l2.7,7l1.2-0.6c0.4-0.2,0.4-0.6,0.3-0.9l-2.1-5.4
			C559.5,322.4,559.1,322.2,558.7,322.2z"/>
		<path fill="#595959" d="M560.1,336.6L560.1,336.6c-1-2-1.6-3.8-1.8-4.4c-0.3-1-0.2-1.1,0.3-1.6c0.3-0.3,0.5-0.4,0.7-0.6l-2.7-7
			c-0.6,0.3-1.4,0.9-2.1,1.5c-0.8,0.7-1.5,1.6-1.7,2.2c0.2,2.7,1.1,7.7,3.2,11.9l0,0c2.1,4.1,5.6,7.9,7.7,9.6
			c0.7,0.2,1.8,0.1,2.8-0.1c1-0.2,1.9-0.5,2.5-0.8l-4.1-6.3c-0.3,0.1-0.5,0.2-0.9,0.3c-0.6,0.1-0.8,0.1-1.4-0.7
			C562.2,340.2,561.1,338.6,560.1,336.6L560.1,336.6L560.1,336.6L560.1,336.6z"/>
	</g>
	<path fill="#595959" d="M567.9,340.4c-0.2-0.3-0.5-0.5-0.9-0.3l-1.2,0.6l4,6.3l1-0.6c0.3-0.3,0.3-0.7,0.2-1L567.9,340.4z"/>
</g>
</svg>
