<?xml version="1.0" encoding="UTF-8"?>
<svg xmlns="http://www.w3.org/2000/svg" version="1.2">
    <font id="Oxygen Bold">
        <font-face font-family="Oxygen" units-per-em="2048" ascent="2103" descent="-483" font-style="normal"
                   font-weight="700" font-stretch="normal" cap-height="1536" x-height="1024" underline-position="0"
                   underline-thickness="0"/>
        <missing-glyph horiz-adv-x="748"
                       d="M136 68 L544 68 L544 1297 L136 1297 L136 68 Z M68 0 L68 1365 L612 1365 L612 0 L68 0 Z "/>
        <glyph glyph-name="space" unicode="&#x20;" horiz-adv-x="541" d=""/>
        <glyph glyph-name="exclam" unicode="&#x21;" horiz-adv-x="446"
               d="M193 449 L108 1162 L108 1458 L349 1458 L349 1162 L259 449 L193 449 Z M224 -18 Q159 -18 114 27 Q69 72 69 134 Q69 197 114 243 Q159 289 224 289 Q288 289 332.5 243 Q377 197 377 134 Q377 72 332.5 27 Q288 -18 224 -18 Z "/>
        <glyph glyph-name="quotedbl" unicode="&#x22;" horiz-adv-x="784"
               d="M143 955 L108 1470 L332 1470 L302 955 L143 955 Z M487 955 L454 1470 L677 1470 L646 955 L487 955 Z "/>
        <glyph glyph-name="numbersign" unicode="&#x23;" horiz-adv-x="1192"
               d="M178 -15 L255 404 L53 404 L61 583 L288 583 L343 898 L131 898 L139 1077 L375 1077 L455 1458 L650 1458 L574 1077 L767 1077 L841 1458 L1031 1458 L956 1077 L1137 1077 L1125 899 L923 899 L863 583 L1058 583 L1048 404 L833 404 L753 -15 L557 -15 L636 404 L446 404 L367 -15 L178 -15 Z M478 583 L672 583 L733 899 L540 899 L478 583 Z "/>
        <glyph glyph-name="dollar" unicode="&#x24;" horiz-adv-x="1194"
               d="M558 -212 L556 -20 Q301 -17 94 102 L160 317 Q358 208 558 202 L558 636 Q438 671 396 688 Q101 792 101 1076 Q101 1261 225 1368 Q349 1475 558 1489 L558 1643 L656 1643 L656 1491 Q896 1484 1075 1382 L993 1184 Q813 1265 656 1271 L656 878 Q664 875 680 870 Q696 865 715.5 859 Q735 853 742 851 Q943 785 1029.5 687 Q1116 589 1116 414 Q1116 225 993 114 Q870 3 656 -16 L656 -212 L558 -212 Z M558 911 L558 1267 Q473 1256 429 1213 Q385 1170 381 1088 Q381 966 502 929 Q516 924 558 911 Z M656 208 Q841 238 841 416 Q841 544 686 596 Q683 598 670.5 601.5 Q658 605 656 606 L656 208 Z "/>
        <glyph glyph-name="percent" unicode="&#x25;" horiz-adv-x="1790"
               d="M407 836 Q494 836 538.5 901 Q583 966 583 1069 Q583 1174 538.5 1239 Q494 1304 408 1304 Q322 1304 278 1238 Q234 1172 234 1067 Q234 962 277.5 899 Q321 836 407 836 Z M404 677 Q241 677 147.5 787 Q54 897 54 1067 Q54 1237 150.5 1349 Q247 1461 409 1461 Q578 1461 675 1351 Q772 1241 772 1070 Q772 901 671 789 Q570 677 404 677 Z M307 -32 L1208 1450 L1428 1449 L520 -32 L307 -32 Z M1382 142 Q1472 142 1517.5 207.5 Q1563 273 1563 377 Q1563 481 1514.5 544.5 Q1466 608 1370 608 Q1274 608 1236 545 Q1198 482 1198 372 Q1198 268 1244.5 205 Q1291 142 1382 142 Z M1379 -17 Q1207 -17 1107.5 93.5 Q1008 204 1008 372 Q1008 766 1371 766 Q1550 766 1645.5 657.5 Q1741 549 1741 376 Q1741 207 1643.5 95 Q1546 -17 1379 -17 Z "/>
        <glyph glyph-name="ampersand" unicode="&#x26;" horiz-adv-x="1436"
               d="M580 -23 Q474 -23 382.5 2 Q291 27 217 76.5 Q143 126 100.5 210 Q58 294 58 404 Q58 468 77 524 Q96 580 125.5 621.5 Q155 663 201.5 703 Q248 743 292 771 Q336 799 395 831 Q354 877 332 904.5 Q310 932 282.5 975 Q255 1018 242.5 1060.5 Q230 1103 230 1150 Q230 1260 284 1337.5 Q338 1415 422.5 1450 Q507 1485 612 1485 Q686 1485 754.5 1466.5 Q823 1448 881 1411 Q939 1374 974 1311.5 Q1009 1249 1009 1168 Q1009 1100 982 1040.5 Q955 981 905.5 934 Q856 887 804.5 853 Q753 819 687 786 L1037 404 Q1118 492 1191 634 L1361 521 Q1283 370 1181 256 L1388 37 Q1381 35 1282.5 10.5 Q1184 -14 1178 -16 L1036 133 Q831 -23 580 -23 Z M587 168 Q673 168 755 196.5 Q837 225 899 276 Q880 296 703 488.5 Q526 681 508 701 Q466 677 439.5 660.5 Q413 644 381 617.5 Q349 591 331.5 565.5 Q314 540 301.5 504 Q289 468 289 426 Q289 299 372 233.5 Q455 168 587 168 Z M571 924 Q618 949 648.5 969 Q679 989 713 1019 Q747 1049 764 1086 Q781 1123 781 1166 Q781 1239 736 1277 Q691 1315 619 1315 Q542 1315 496.5 1276 Q451 1237 451 1160 Q451 1048 571 924 Z "/>
        <glyph glyph-name="quotesingle" unicode="&#x27;" horiz-adv-x="440"
               d="M140 929 L105 1464 L319 1464 L292 929 L140 929 Z "/>
        <glyph glyph-name="parenleft" unicode="&#x28;" horiz-adv-x="650"
               d="M376 -276 Q93 111 93 597 Q93 1093 375 1488 L611 1488 Q511 1345 426 1094.5 Q341 844 341 599 Q341 359 426.5 111 Q512 -137 610 -276 L376 -276 Z "/>
        <glyph glyph-name="parenright" unicode="&#x29;" horiz-adv-x="650"
               d="M41 -276 Q101 -190 159 -60.5 Q217 69 263 251.5 Q309 434 309 599 Q309 843 224.5 1093.5 Q140 1344 40 1488 L275 1488 Q558 1089 558 597 Q558 113 274 -276 L41 -276 Z "/>
        <glyph glyph-name="asterisk" unicode="&#x2a;" horiz-adv-x="1104"
               d="M375 562 L171 676 L413 982 L71 1059 L135 1266 L472 1133 L437 1504 L665 1504 L630 1133 L971 1262 L1032 1054 L688 982 Q693 975 807.5 833 Q922 691 933 676 Q927 672 832.5 619 Q738 566 731 562 L549 885 L375 562 Z "/>
        <glyph glyph-name="plus" unicode="&#x2b;" horiz-adv-x="1180"
               d="M492 146 L492 554 L83 554 L83 745 L493 745 L493 1153 L691 1153 L691 745 L1098 745 L1098 554 L690 554 L690 146 L492 146 Z "/>
        <glyph glyph-name="comma" unicode="&#x2c;" horiz-adv-x="508"
               d="M64 -283 Q121 -6 158 232 L402 232 L399 183 Q334 -43 241 -283 L64 -283 Z "/>
        <glyph glyph-name="hyphen" unicode="&#x2d;" horiz-adv-x="677" d="M70 445 L70 649 L606 649 L606 445 L70 445 Z "/>
        <glyph glyph-name="period" unicode="&#x2e;" horiz-adv-x="473"
               d="M245 -18 Q180 -18 135 27 Q90 72 90 134 Q90 197 134.5 243 Q179 289 245 289 Q309 289 353 243 Q397 197 397 134 Q397 72 353 27 Q309 -18 245 -18 Z "/>
        <glyph glyph-name="slash" unicode="&#x2f;" horiz-adv-x="949"
               d="M52 -189 L674 1489 L892 1489 L265 -189 L52 -189 Z "/>
        <glyph glyph-name="zero" unicode="0" horiz-adv-x="1296"
               d="M512 233 Q569 187 649 187 Q729 187 785.5 233 Q842 279 871.5 360.5 Q901 442 914 534.5 Q927 627 927 740 Q927 1282 649 1282 Q373 1282 369 744 Q369 630 382 537 Q395 444 425 361.5 Q455 279 512 233 Z M862.5 19.5 Q768 -21 649 -21 Q530 -21 435 19.5 Q340 60 278 129.5 Q216 199 174.5 296 Q133 393 115.5 501 Q98 609 98 732 Q98 857 116 966.5 Q134 1076 176 1173.5 Q218 1271 280.5 1340 Q343 1409 437 1449.5 Q531 1490 649 1490 Q767 1490 861 1449.5 Q955 1409 1017 1339.5 Q1079 1270 1120.5 1172.5 Q1162 1075 1180 966 Q1198 857 1198 732 Q1198 609 1180.5 501 Q1163 393 1122 295.5 Q1081 198 1019 129 Q957 60 862.5 19.5 Z "/>
        <glyph glyph-name="one" unicode="1" horiz-adv-x="686"
               d="M303 1 L303 1220 Q289 1211 173.5 1162.5 Q58 1114 43 1110 L43 1310 Q67 1321 195 1385.5 Q323 1450 336 1459 L556 1459 L556 1 L303 1 Z "/>
        <glyph glyph-name="two" unicode="2" horiz-adv-x="1054"
               d="M85 0 L79 216 L542 740 Q628 832 667.5 909.5 Q707 987 707 1073 Q707 1168 645 1224.5 Q583 1281 482 1281 Q389 1281 298.5 1246.5 Q208 1212 150 1160 L75 1358 Q225 1490 497 1490 Q713 1490 844.5 1381.5 Q976 1273 976 1075 Q976 935 901.5 808 Q827 681 698 547 L368 197 L959 197 L941 0 L85 0 Z "/>
        <glyph glyph-name="three" unicode="3" horiz-adv-x="1078"
               d="M485 -21 Q356 -21 242.5 12.5 Q129 46 63 103 L135 292 Q190 246 287 216.5 Q384 187 486 187 Q601 187 671.5 249 Q742 311 742 411 Q742 473 722.5 518 Q703 563 671 590 Q639 617 585.5 633.5 Q532 650 476 656 Q420 662 341 663 Q338 663 312 663.5 Q286 664 283 664 L283 866 L339 866 Q426 866 488.5 875 Q551 884 604.5 906 Q658 928 685.5 971 Q713 1014 713 1077 Q713 1162 649 1222 Q585 1282 469 1282 Q281 1282 134 1188 L62 1378 Q244 1490 494 1490 Q703 1490 835.5 1380 Q968 1270 968 1098 Q968 978 906.5 893.5 Q845 809 728 770 Q862 744 935.5 641 Q1009 538 1009 398 Q1009 265 938 168.5 Q867 72 750 25.5 Q633 -21 485 -21 Z "/>
        <glyph glyph-name="four" unicode="4" horiz-adv-x="1253"
               d="M753 0 L753 325 L92 325 L92 503 L685 1458 L1018 1458 L1018 523 L1198 523 L1185 325 L1018 325 L1018 0 L753 0 Z M352 522 L753 522 L753 1202 L352 522 Z "/>
        <glyph glyph-name="five" unicode="5" horiz-adv-x="1138"
               d="M542 -21 Q443 -21 338 11.5 Q233 44 178 73.5 Q123 103 105 119 L185 307 Q204 292 240.5 269.5 Q277 247 358.5 218 Q440 189 515 189 Q655 189 727 267 Q799 345 799 471 Q799 590 733.5 662 Q668 734 564 734 Q440 734 342 626 L167 660 L205 1458 L1001 1458 L986 1252 L437 1252 Q437 1234 430.5 1071.5 Q424 909 423 890 Q511 937 608 937 Q810 937 933.5 807 Q1057 677 1057 468 Q1057 246 921.5 112.5 Q786 -21 542 -21 Z "/>
        <glyph glyph-name="six" unicode="6" horiz-adv-x="1205"
               d="M615 -21 Q371 -21 218 112 Q65 245 65 463 Q65 533 80 597 Q95 661 126 722 Q157 783 188 830 Q219 877 268 942 L684 1467 L994 1467 L540 894 Q613 919 662 919 Q877 919 1014 790.5 Q1151 662 1151 456 Q1151 242 1001 110.5 Q851 -21 615 -21 Z M603 179 Q735 179 809.5 254.5 Q884 330 884 453 Q884 582 814 656.5 Q744 731 606 731 Q466 731 400 656 Q334 581 334 451 Q334 328 404 253.5 Q474 179 603 179 Z "/>
        <glyph glyph-name="seven" unicode="7" horiz-adv-x="1036"
               d="M237 0 L679 1258 L75 1258 L77 1459 L977 1459 L977 1302 L505 0 L237 0 Z "/>
        <glyph glyph-name="eight" unicode="8" horiz-adv-x="1151"
               d="M578 -21 Q435 -21 320.5 24.5 Q206 70 135 164.5 Q64 259 64 389 Q64 652 323 767 Q92 877 92 1111 Q92 1203 130 1276 Q168 1349 234.5 1395.5 Q301 1442 388.5 1466 Q476 1490 578 1490 Q790 1490 926.5 1391 Q1063 1292 1063 1111 Q1063 880 849 767 Q1090 650 1090 388 Q1090 258 1019.5 163.5 Q949 69 834.5 24 Q720 -21 578 -21 Z M380 222 Q452 161 578 161 Q704 161 775 222 Q846 283 846 394 Q846 504 772 576 Q698 648 578 679 Q455 648 381.5 576 Q308 504 308 393 Q308 283 380 222 Z M578 835 Q701 863 767 932.5 Q833 1002 833 1110 Q833 1200 761 1255 Q689 1310 578 1310 Q468 1310 395 1255 Q322 1200 322 1110 Q322 1002 390 932 Q458 862 578 835 Z "/>
        <glyph glyph-name="nine" unicode="9" horiz-adv-x="1215"
               d="M243 0 L687 578 Q620 555 568 555 Q353 555 217.5 684.5 Q82 814 82 1020 Q82 1234 230.5 1362 Q379 1490 616 1490 Q861 1490 1013 1358.5 Q1165 1227 1165 1009 Q1165 883 1117 780 Q1069 677 976 550 L562 0 L243 0 Z M624 739 Q763 739 829.5 816 Q896 893 896 1024 Q896 1147 827 1219 Q758 1291 629 1291 Q496 1291 420.5 1216 Q345 1141 345 1019 Q345 889 415.5 814 Q486 739 624 739 Z "/>
        <glyph glyph-name="colon" unicode="&#x3a;" horiz-adv-x="460"
               d="M100 -6 L100 259 L365 259 L365 -6 L100 -6 Z M100 841 L100 1106 L365 1106 L365 841 L100 841 Z "/>
        <glyph glyph-name="semicolon" unicode="&#x3b;" horiz-adv-x="448"
               d="M107 -322 L163 246 L389 246 L265 -322 L107 -322 Z M125 841 L125 1105 L389 1105 L389 841 L125 841 Z "/>
        <glyph glyph-name="less" unicode="&#x3c;" horiz-adv-x="1196"
               d="M1081 196 L115 645 L115 769 L1082 1251 L1082 1045 L377 712 L1081 401 L1081 196 Z "/>
        <glyph glyph-name="equal" unicode="&#x3d;" horiz-adv-x="1202"
               d="M93 357 L93 548 L1111 548 L1111 357 L93 357 Z M93 754 L93 947 L1111 947 L1111 754 L93 754 Z "/>
        <glyph glyph-name="greater" unicode="&#x3e;" horiz-adv-x="1196"
               d="M119 197 L119 403 L823 712 L119 1047 L119 1253 L1086 769 L1086 645 L119 197 Z "/>
        <glyph glyph-name="question" unicode="&#x3f;" horiz-adv-x="887"
               d="M323 448 Q333 527 366 608 Q399 689 438.5 754 Q478 819 516.5 880 Q555 941 580.5 1001.5 Q606 1062 606 1113 Q605 1201 550.5 1252 Q496 1303 399 1303 Q337 1303 279 1287.5 Q221 1272 190.5 1257 Q160 1242 121 1218 L51 1384 Q133 1437 221 1463.5 Q309 1490 427 1490 Q498 1490 565.5 1468.5 Q633 1447 689.5 1406.5 Q746 1366 780.5 1299 Q815 1232 815 1148 Q815 1080 791 1014 Q767 948 725 884 Q683 820 636.5 759 Q590 698 532.5 613.5 Q475 529 434 448 L323 448 Z M376 -18 Q311 -18 266 27 Q221 72 221 134 Q221 197 266 243 Q311 289 376 289 Q440 289 484 243 Q528 197 528 134 Q528 72 484 27 Q440 -18 376 -18 Z "/>
        <glyph glyph-name="at" unicode="&#x40;" horiz-adv-x="1699"
               d="M891 -205 Q650 -205 463.5 -108 Q277 -11 172.5 170.5 Q68 352 68 590 Q68 761 130.5 911.5 Q193 1062 302 1169.5 Q411 1277 564.5 1338.5 Q718 1400 893 1400 Q1101 1400 1269.5 1313 Q1438 1226 1535.5 1066 Q1633 906 1633 702 Q1633 585 1596 482 Q1559 379 1498 308.5 Q1437 238 1357 197 Q1277 156 1193 156 Q1110 156 1060 209 Q1010 262 1008 375 Q970 285 900.5 228 Q831 171 749 171 Q611 171 533 259 Q455 347 455 492 Q455 635 514 758.5 Q573 882 682 957 Q791 1032 926 1032 Q1064 1032 1242 968 Q1229 900 1199.5 761.5 Q1170 623 1153.5 531 Q1137 439 1137 388 Q1137 337 1155.5 318 Q1174 299 1215 299 Q1284 299 1345.5 360 Q1407 421 1442 514.5 Q1477 608 1477 705 Q1477 869 1401.5 995 Q1326 1121 1193 1188 Q1060 1255 892 1255 Q757 1255 643.5 1210 Q530 1165 456 1094 Q382 1023 330 932 Q278 841 255 751.5 Q232 662 232 578 Q232 426 284 303 Q336 180 426.5 101 Q517 22 635.5 -20 Q754 -62 889 -62 Q1182 -62 1391 92 L1446 -16 Q1215 -205 891 -205 Z M752 312 Q944 312 1029 748 Q1041 812 1054 899 Q999 910 941 910 Q857 910 784.5 849 Q712 788 672 695 Q632 602 632 506 Q632 422 661.5 367 Q691 312 752 312 Z "/>
        <glyph glyph-name="A" unicode="A" horiz-adv-x="1359"
               d="M-3 0 L536 1466 L831 1466 L1362 0 L1084 0 L939 414 L426 414 L280 0 L-3 0 Z M494 616 L870 616 Q690 1193 685 1212 L494 616 Z "/>
        <glyph glyph-name="B" unicode="B" horiz-adv-x="1333"
               d="M158 0 L158 1465 L615 1465 Q906 1465 1049 1380 Q1192 1295 1192 1097 Q1192 1065 1188 1034 Q1184 1003 1170 963.5 Q1156 924 1133 892 Q1110 860 1069 829.5 Q1028 799 973 782 Q1109 749 1181 655.5 Q1253 562 1253 425 Q1253 218 1106.5 109 Q960 0 701 0 L158 0 Z M429 196 L664 196 Q976 196 976 440 Q976 563 898 617 Q820 671 657 671 L429 671 L429 196 Z M429 860 L661 860 Q930 860 930 1065 Q930 1180 852.5 1223 Q775 1266 606 1266 L429 1266 L429 860 Z "/>
        <glyph glyph-name="C" unicode="C" horiz-adv-x="1301"
               d="M797 -21 Q476 -21 288 181 Q100 383 100 739 Q100 1077 296.5 1281.5 Q493 1486 811 1486 Q1068 1486 1246 1367 L1161 1162 Q990 1267 817 1267 Q615 1267 497.5 1121.5 Q380 976 380 731 Q380 477 493.5 338 Q607 199 817 199 Q1001 199 1182 291 L1218 79 Q1050 -21 797 -21 Z "/>
        <glyph glyph-name="D" unicode="D" horiz-adv-x="1514"
               d="M430 217 L624 217 Q875 217 1006 348.5 Q1137 480 1137 732 Q1137 1002 1002 1124.5 Q867 1247 595 1247 L430 1247 L430 217 Z M159 0 L159 1465 L583 1465 Q775 1465 927 1421 Q1079 1377 1188.5 1288.5 Q1298 1200 1356.5 1060.5 Q1415 921 1415 738 Q1415 383 1201 191.5 Q987 0 608 0 L159 0 Z "/>
        <glyph glyph-name="E" unicode="E" horiz-adv-x="1152"
               d="M158 0 L158 1465 L1046 1465 L1035 1250 L429 1250 L429 872 L1005 872 L1005 657 L429 657 L429 216 L1057 216 L1048 0 L158 0 Z "/>
        <glyph glyph-name="F" unicode="F" horiz-adv-x="1103"
               d="M158 0 L158 1465 L1025 1465 L1015 1250 L427 1250 L427 834 L986 834 L986 621 L427 621 L427 0 L158 0 Z "/>
        <glyph glyph-name="G" unicode="G" horiz-adv-x="1466"
               d="M812 -21 Q477 -21 288.5 181 Q100 383 100 734 Q100 957 188 1126.5 Q276 1296 447 1391 Q618 1486 851 1486 Q1118 1486 1309 1371 L1221 1169 Q1039 1267 856 1267 Q634 1267 507 1123 Q380 979 380 731 Q380 485 493 342 Q606 199 824 199 Q964 199 1078 243 L1078 583 L771 583 L773 796 L1333 796 L1333 89 Q1197 33 1075.5 6 Q954 -21 812 -21 Z "/>
        <glyph glyph-name="H" unicode="H" horiz-adv-x="1520"
               d="M158 0 L158 1465 L429 1465 L429 866 L1091 866 L1091 1465 L1362 1465 L1362 0 L1091 0 L1091 652 L429 652 L429 0 L158 0 Z "/>
        <glyph glyph-name="I" unicode="I" horiz-adv-x="602" d="M165 0 L165 1465 L436 1465 L436 0 L165 0 Z "/>
        <glyph glyph-name="J" unicode="J" horiz-adv-x="633"
               d="M-73 -321 L-84 -108 Q-36 -116 21 -116 Q132 -116 171 -59 Q210 -2 210 129 L210 1469 L482 1469 L482 147 Q482 21 459.5 -65.5 Q437 -152 383.5 -212.5 Q330 -273 241.5 -301 Q153 -329 22 -329 Q-33 -329 -73 -321 Z "/>
        <glyph glyph-name="K" unicode="K" horiz-adv-x="1348"
               d="M157 0 L157 1465 L429 1465 L429 805 Q500 899 719.5 1156 Q939 1413 981 1465 L1302 1465 L748 806 L1337 0 L1019 0 L541 657 L429 563 L429 0 L157 0 Z "/>
        <glyph glyph-name="L" unicode="L" horiz-adv-x="1071"
               d="M158 0 L158 1465 L429 1465 L429 216 L1042 216 L1034 0 L158 0 Z "/>
        <glyph glyph-name="M" unicode="M" horiz-adv-x="1841"
               d="M158 0 L158 1465 L478 1465 L921 407 L1367 1465 L1683 1465 L1683 0 L1433 0 L1433 724 L1441 1139 L1404 1029 L1029 100 L797 100 L430 1034 L393 1144 L402 720 L402 0 L158 0 Z "/>
        <glyph glyph-name="N" unicode="N" horiz-adv-x="1554"
               d="M158 0 L158 1465 L446 1465 Q524 1343 763 973 Q1002 603 1054 523 Q1069 500 1105.5 445.5 Q1142 391 1157 368 Q1150 711 1150 724 L1150 1465 L1397 1465 L1397 0 L1105 0 L444 1030 L396 1109 Q404 845 404 738 L404 0 L158 0 Z "/>
        <glyph glyph-name="O" unicode="O" horiz-adv-x="1626"
               d="M492 339 Q601 200 814 200 Q1027 200 1135.5 338.5 Q1244 477 1244 730 Q1244 986 1135.5 1127 Q1027 1268 815 1268 Q602 1268 492.5 1126.5 Q383 985 383 730 Q383 478 492 339 Z M813 -21 Q482 -21 290.5 179.5 Q99 380 99 733 Q99 1088 291 1287 Q483 1486 814 1486 Q1145 1486 1336 1286.5 Q1527 1087 1527 732 Q1527 381 1335 180 Q1143 -21 813 -21 Z "/>
        <glyph glyph-name="P" unicode="P" horiz-adv-x="1245"
               d="M151 0 L151 1469 L639 1469 Q812 1469 935 1424.5 Q1058 1380 1129.5 1280 Q1201 1180 1201 1029 Q1201 924 1174 842.5 Q1147 761 1085 694.5 Q1023 628 910.5 592 Q798 556 639 556 Q503 556 418 564 L418 0 L151 0 Z M610 752 Q693 752 754.5 768 Q816 784 850.5 809 Q885 834 905.5 871 Q926 908 932.5 942.5 Q939 977 939 1020 Q939 1141 861 1204 Q783 1267 641 1267 L418 1267 L418 754 Q430 752 610 752 Z "/>
        <glyph glyph-name="Q" unicode="Q" horiz-adv-x="1626"
               d="M1252 -478 Q1169 -418 1064.5 -280 Q960 -142 894 -17 Q842 -21 813 -21 Q482 -21 290.5 179.5 Q99 380 99 733 Q99 1088 291 1287 Q483 1486 814 1486 Q1145 1486 1336 1286.5 Q1527 1087 1527 732 Q1527 480 1426 302.5 Q1325 125 1140 43 Q1293 -205 1426 -327 L1252 -478 Z M492 339 Q601 200 814 200 Q1027 200 1135.5 338.5 Q1244 477 1244 730 Q1244 986 1135.5 1127 Q1027 1268 815 1268 Q602 1268 492.5 1126.5 Q383 985 383 730 Q383 478 492 339 Z "/>
        <glyph glyph-name="R" unicode="R" horiz-adv-x="1394"
               d="M151 0 L151 1469 L694 1469 Q805 1469 886.5 1459 Q968 1449 1041.5 1422.5 Q1115 1396 1160.5 1351 Q1206 1306 1232.5 1233.5 Q1259 1161 1259 1062 Q1259 770 994 678 Q1048 617 1128 452 L1346 0 L1050 0 L879 383 Q782 589 759 627 Q742 628 646 628 L419 630 L419 0 L151 0 Z M718 824 Q874 824 942 879.5 Q1010 935 1010 1058 Q1010 1166 941 1217 Q872 1268 730 1268 L419 1268 L419 825 Q434 825 568 824.5 Q702 824 718 824 Z "/>
        <glyph glyph-name="S" unicode="S" horiz-adv-x="1189"
               d="M569 -20 Q304 -20 94 102 L160 317 Q254 265 364.5 233 Q475 201 580 201 Q709 201 775 256.5 Q841 312 841 416 Q841 554 657 607 Q644 611 584 628.5 Q524 646 471.5 662.5 Q419 679 396 688 Q101 792 101 1076 Q101 1275 242.5 1383 Q384 1491 618 1491 Q883 1491 1075 1382 L993 1184 Q797 1272 629 1272 Q508 1272 446.5 1229.5 Q385 1187 381 1088 Q381 966 502 929 Q526 920 620 890 Q714 860 742 851 Q943 785 1029.5 687 Q1116 589 1116 414 Q1116 205 968 92.5 Q820 -20 569 -20 Z "/>
        <glyph glyph-name="T" unicode="T" horiz-adv-x="1152"
               d="M441 0 L441 1248 L14 1248 L14 1465 L1138 1465 L1138 1248 L713 1248 L713 0 L441 0 Z "/>
        <glyph glyph-name="U" unicode="U" horiz-adv-x="1468"
               d="M730 -21 Q442 -21 293 122.5 Q144 266 144 527 L144 1465 L416 1465 L416 550 Q416 367 490.5 283 Q565 199 735 199 Q902 199 977 283.5 Q1052 368 1052 551 L1052 1465 L1323 1465 L1323 525 Q1323 266 1171 122.5 Q1019 -21 730 -21 Z "/>
        <glyph glyph-name="V" unicode="V" horiz-adv-x="1321"
               d="M527 0 L-6 1465 L273 1465 L583 560 Q601 513 666 285 Q670 301 703 416.5 Q736 532 746 558 Q758 592 898 1009.5 Q1038 1427 1051 1465 L1327 1465 L801 0 L527 0 Z "/>
        <glyph glyph-name="W" unicode="W" horiz-adv-x="2051"
               d="M408 0 L10 1465 L280 1465 L564 325 L898 1458 L1157 1458 L1474 321 L1764 1465 L2034 1465 L1624 0 L1343 0 L1030 1073 L687 0 L408 0 Z "/>
        <glyph glyph-name="X" unicode="X" horiz-adv-x="1337"
               d="M-11 0 L502 750 L27 1465 L332 1465 L677 919 L1032 1465 L1321 1465 L836 746 L1347 0 L1034 0 L664 570 L286 0 L-11 0 Z "/>
        <glyph glyph-name="Y" unicode="Y" horiz-adv-x="1256"
               d="M492 0 L492 581 L-15 1465 L279 1465 L628 831 L979 1465 L1269 1465 L764 586 L764 0 L492 0 Z "/>
        <glyph glyph-name="Z" unicode="Z" horiz-adv-x="1209"
               d="M62 0 L62 174 L835 1249 L89 1249 L89 1465 L1155 1465 L1155 1268 L396 216 L1160 216 L1159 0 L62 0 Z "/>
        <glyph glyph-name="bracketleft" unicode="&#x5b;" horiz-adv-x="651"
               d="M135 -266 L135 1507 L599 1507 L599 1327 L387 1327 L387 -85 L599 -85 L599 -266 L135 -266 Z "/>
        <glyph glyph-name="backslash" unicode="&#x5c;" horiz-adv-x="903"
               d="M649 -60 L30 1462 L261 1462 L878 -60 L649 -60 Z "/>
        <glyph glyph-name="bracketright" unicode="&#x5d;" horiz-adv-x="651"
               d="M52 -266 L52 -85 L263 -85 L263 1327 L52 1327 L52 1507 L516 1507 L516 -266 L52 -266 Z "/>
        <glyph glyph-name="asciicircum" unicode="&#x5e;" horiz-adv-x="1154"
               d="M36 549 L498 1471 L627 1471 L1120 549 L911 549 L564 1217 L245 549 L36 549 Z "/>
        <glyph glyph-name="underscore" unicode="&#x5f;" horiz-adv-x="1155"
               d="M72 -318 L72 -144 L1086 -144 L1086 -318 L72 -318 Z "/>
        <glyph glyph-name="grave" unicode="&#x60;" horiz-adv-x="514"
               d="M323 1195 L-8 1578 L298 1578 L486 1195 L323 1195 Z "/>
        <glyph glyph-name="a" unicode="a" horiz-adv-x="1142"
               d="M423 -21 Q270 -21 175.5 63.5 Q81 148 81 307 Q81 478 193 560.5 Q305 643 531 665 Q562 669 598 673 Q634 677 679 681 Q724 685 750 688 L750 746 Q750 846 704 891.5 Q658 937 564 937 Q430 937 233 862 Q232 865 200 953 Q168 1041 167 1043 Q361 1126 587 1126 Q809 1126 910 1029.5 Q1011 933 1011 717 L1011 0 L817 0 Q816 4 795 67 Q774 130 774 134 Q692 54 613.5 16.5 Q535 -21 423 -21 Z M494 165 Q585 165 652.5 208.5 Q720 252 749 314 L749 526 Q746 526 696.5 522 Q647 518 643 518 Q484 504 410 458 Q336 412 336 310 Q336 240 377 202.5 Q418 165 494 165 Z "/>
        <glyph glyph-name="b" unicode="b" horiz-adv-x="1258"
               d="M722 -21 Q610 -21 518.5 28.5 Q427 78 386 141 L360 1 L133 1 L133 1504 L395 1521 L395 1181 Q395 1082 389 956 Q519 1126 728 1126 Q938 1126 1057.5 970 Q1177 814 1177 562 Q1177 300 1053.5 139.5 Q930 -21 722 -21 Z M659 178 Q776 178 846 277 Q916 376 916 558 Q916 741 847.5 835 Q779 929 662 929 Q396 929 393 570 Q393 368 460 273 Q527 178 659 178 Z "/>
        <glyph glyph-name="c" unicode="c" horiz-adv-x="1008"
               d="M614 -21 Q362 -21 221.5 129 Q81 279 81 558 Q81 828 228.5 977 Q376 1126 617 1126 Q810 1126 943 1043 L881 856 Q745 927 628 927 Q495 927 418.5 832 Q342 737 342 555 Q342 371 417.5 275 Q493 179 631 179 Q775 179 908 264 L933 65 Q864 19 790 -1 Q716 -21 614 -21 Z "/>
        <glyph glyph-name="d" unicode="d" horiz-adv-x="1259"
               d="M542 -21 Q327 -21 204 137 Q81 295 81 559 Q81 815 203.5 970.5 Q326 1126 541 1126 Q775 1126 872 960 Q862 1058 862 1149 L862 1504 L1124 1521 L1124 0 L897 0 L868 150 Q851 123 836.5 103.5 Q822 84 794 58.5 Q766 33 733.5 17.5 Q701 2 651.5 -9.5 Q602 -21 542 -21 Z M604 178 Q868 178 872 537 Q872 740 804 833 Q736 926 601 926 Q483 926 412.5 831.5 Q342 737 342 553 Q342 370 412.5 274 Q483 178 604 178 Z "/>
        <glyph glyph-name="e" unicode="e" horiz-adv-x="1157"
               d="M641 -21 Q376 -21 228.5 131.5 Q81 284 81 553 Q81 815 220 970 Q359 1125 599 1126 Q826 1126 951.5 984 Q1077 842 1077 607 Q1077 590 1076.5 552 Q1076 514 1076 496 L345 496 Q349 342 429.5 257.5 Q510 173 651 173 Q831 173 997 267 L1034 81 Q869 -21 641 -21 Z M350 661 L830 661 Q830 795 769 867 Q708 939 600 939 Q499 939 429.5 869 Q360 799 350 661 Z "/>
        <glyph glyph-name="f" unicode="f" horiz-adv-x="760"
               d="M203 0 L203 925 L29 925 L46 1079 L203 1099 L203 1160 Q203 1260 221.5 1331 Q240 1402 282 1452.5 Q324 1503 394.5 1527.5 Q465 1552 568 1552 Q668 1552 772 1533 L749 1338 Q667 1349 620 1349 Q536 1349 500.5 1308.5 Q465 1268 465 1174 L465 1099 L723 1099 L723 925 L465 925 L465 0 L203 0 Z "/>
        <glyph glyph-name="g" unicode="g" horiz-adv-x="1267"
               d="M353 -492 L338 -280 L471 -280 Q702 -280 794 -218.5 Q886 -157 886 7 Q886 74 880 152 Q854 116 830.5 92.5 Q807 69 771.5 46 Q736 23 686.5 11.5 Q637 0 574 0 Q356 0 215.5 157 Q75 314 75 562 Q75 694 114 802.5 Q153 911 220 981 Q287 1051 374.5 1088.5 Q462 1126 561 1126 Q782 1126 890 965 L908 1099 L1142 1099 L1142 78 Q1142 -4 1134 -69.5 Q1126 -135 1106 -195.5 Q1086 -256 1053.5 -301 Q1021 -346 972 -383 Q923 -420 856.5 -443.5 Q790 -467 702 -479.5 Q614 -492 504 -492 L353 -492 Z M616 183 Q887 183 890 546 L890 584 Q888 747 822 836 Q756 925 629 926 Q485 926 411 827.5 Q337 729 337 562 Q337 401 411.5 292 Q486 183 616 183 Z "/>
        <glyph glyph-name="h" unicode="h" horiz-adv-x="1253"
               d="M133 0 L133 1504 L395 1521 L395 1204 Q395 1181 392 1076.5 Q389 972 389 970 Q520 1126 741 1126 Q925 1126 1026.5 1020.5 Q1128 915 1128 696 L1128 0 L866 0 L866 667 Q866 802 823 865 Q780 928 677 928 Q589 928 521 883.5 Q453 839 419 769 Q395 677 395 529 L395 0 L133 0 Z "/>
        <glyph glyph-name="i" unicode="i" horiz-adv-x="541"
               d="M139 0 L139 1099 L401 1099 L401 0 L139 0 Z M139 1259 L139 1483 L402 1483 L402 1259 L139 1259 Z "/>
        <glyph glyph-name="j" unicode="j" horiz-adv-x="527"
               d="M-48 -427 L-77 -233 L-19 -233 Q31 -233 63 -225.5 Q95 -218 116 -204.5 Q137 -191 147 -163 Q157 -135 160.5 -102.5 Q164 -70 164 -16 L164 1099 L426 1099 L426 26 Q426 -56 419.5 -115 Q413 -174 396 -227.5 Q379 -281 349.5 -316 Q320 -351 274 -377.5 Q228 -404 163 -415.5 Q98 -427 11 -427 L-48 -427 Z M164 1259 L164 1483 L426 1483 L426 1259 L164 1259 Z "/>
        <glyph glyph-name="k" unicode="k" horiz-adv-x="1173"
               d="M133 0 L133 1504 L395 1521 L395 846 L389 624 Q390 625 409.5 644 Q429 663 431 665 Q486 730 550.5 799 Q615 868 713.5 968 Q812 1068 842 1099 L1154 1099 L702 631 L1183 0 L866 0 L504 499 L395 413 L395 0 L133 0 Z "/>
        <glyph glyph-name="l" unicode="l" horiz-adv-x="700"
               d="M518 -15 Q405 -15 330.5 11.5 Q256 38 213 96 Q170 154 153 234 Q136 314 136 433 L136 1504 L398 1521 L398 438 Q398 290 433 237.5 Q468 185 569 185 Q619 185 696 196 L703 9 Q702 9 678.5 4 Q655 -1 633.5 -4.5 Q612 -8 579 -11.5 Q546 -15 518 -15 Z "/>
        <glyph glyph-name="m" unicode="m" horiz-adv-x="1911"
               d="M133 0 L133 1099 L345 1099 L375 959 Q395 984 413.5 1003.5 Q432 1023 464.5 1047.5 Q497 1072 533.5 1088 Q570 1104 623.5 1115 Q677 1126 738 1126 Q869 1126 947.5 1073 Q1026 1020 1058 949 Q1117 1034 1211 1080 Q1305 1126 1420 1126 Q1609 1126 1697.5 1019 Q1786 912 1786 702 L1786 0 L1523 0 L1523 624 Q1523 785 1487.5 856.5 Q1452 928 1352 928 Q1199 928 1132 790 Q1104 729 1094 643 L1094 0 L832 0 L832 636 Q832 783 793 855 Q754 927 652 927 Q569 927 509 885 Q449 843 418 775 Q395 674 395 533 L395 0 L133 0 Z "/>
        <glyph glyph-name="n" unicode="n" horiz-adv-x="1254"
               d="M133 0 L133 1099 L344 1099 L373 960 Q541 1126 746 1126 Q938 1126 1033.5 1015.5 Q1129 905 1129 695 L1129 0 L866 0 L866 663 Q865 796 823 862 Q781 928 672 928 Q587 928 516.5 884.5 Q446 841 414 775 Q395 697 395 535 L395 0 L133 0 Z "/>
        <glyph glyph-name="o" unicode="o" horiz-adv-x="1222"
               d="M612 178 Q745 178 812 275 Q879 372 879 553 Q879 736 812 832 Q745 928 610 928 Q477 928 409.5 831.5 Q342 735 342 552 Q342 372 410 275 Q478 178 612 178 Z M605 -21 Q361 -21 221 137 Q81 295 81 553 Q81 819 221 972.5 Q361 1126 616 1126 Q862 1126 1001.5 969.5 Q1141 813 1141 553 Q1141 290 1000 134.5 Q859 -21 605 -21 Z "/>
        <glyph glyph-name="p" unicode="p" horiz-adv-x="1256"
               d="M133 -457 L133 1099 L358 1099 L386 945 Q440 1032 529.5 1079.5 Q619 1127 729 1127 Q864 1127 966.5 1052 Q1069 977 1122 847.5 Q1175 718 1175 555 Q1175 300 1051.5 139.5 Q928 -21 717 -21 Q613 -21 528.5 20.5 Q444 62 387 133 Q395 -11 395 -29 L395 -444 L133 -457 Z M661 179 Q778 179 845.5 277 Q913 375 913 557 Q913 742 845 835 Q777 928 656 928 Q396 928 393 574 Q393 370 460.5 274.5 Q528 179 661 179 Z "/>
        <glyph glyph-name="q" unicode="q" horiz-adv-x="1259"
               d="M862 -457 L862 8 Q862 77 869 150 Q765 -22 555 -22 Q342 -22 212 138 Q82 298 82 555 Q82 810 205 968 Q328 1126 549 1126 Q766 1126 874 959 L895 1099 L1125 1099 L1125 -444 L862 -457 Z M606 177 Q734 177 802 263 Q870 349 872 535 Q872 739 804.5 832.5 Q737 926 603 926 Q482 926 412.5 832 Q343 738 343 552 Q343 368 413 272.5 Q483 177 606 177 Z "/>
        <glyph glyph-name="r" unicode="r" horiz-adv-x="798"
               d="M134 0 L134 1099 L354 1099 L388 931 Q496 1104 701 1104 Q744 1104 771 1100 L767 881 Q727 887 684 887 Q539 887 467.5 810 Q396 733 396 596 L396 0 L134 0 Z "/>
        <glyph glyph-name="s" unicode="s" horiz-adv-x="985"
               d="M484 -20 Q241 -20 95 63 L122 260 Q188 224 290 195.5 Q392 167 476 167 Q563 167 611.5 199.5 Q660 232 661 295 Q661 352 615.5 385 Q570 418 442 467 Q398 483 385 488 Q233 547 166 619.5 Q99 692 99 816 Q99 966 207.5 1046 Q316 1126 510 1126 Q720 1126 879 1047 L814 866 Q657 939 515 939 Q436 939 391.5 912.5 Q347 886 347 832 Q347 781 390 752.5 Q433 724 558 678 Q562 677 584 669 Q606 661 618 656 Q769 601 840 524.5 Q911 448 911 325 Q910 160 799 70 Q688 -20 484 -20 Z "/>
        <glyph glyph-name="t" unicode="t" horiz-adv-x="803"
               d="M572 -15 Q460 -15 385.5 11.5 Q311 38 269 95 Q227 152 209.5 229.5 Q192 307 192 421 L192 940 L12 940 L22 1082 L210 1099 L294 1397 L454 1398 L454 1099 L727 1099 L727 940 L454 940 L454 416 Q454 291 490 238 Q526 185 623 185 Q680 185 745 195 L752 7 Q750 7 727.5 2.5 Q705 -2 684.5 -5.5 Q664 -9 632 -12 Q600 -15 572 -15 Z "/>
        <glyph glyph-name="u" unicode="u" horiz-adv-x="1163"
               d="M926 86.5 Q795 -21 581 -21 Q367 -21 236.5 86 Q106 193 106 400 L106 1099 L369 1099 L369 410 Q369 287 420.5 232 Q472 177 584 177 Q694 177 744.5 231.5 Q795 286 795 410 L795 1099 L1057 1099 L1057 400 Q1057 194 926 86.5 Z "/>
        <glyph glyph-name="v" unicode="v" horiz-adv-x="1125"
               d="M441 0 L3 1099 L281 1099 Q297 1054 382.5 819.5 Q468 585 496 500 Q553 334 578 249 Q578 250 595 314 Q612 378 627.5 434.5 Q643 491 647 503 Q648 505 738.5 779 Q829 1053 846 1099 L1122 1099 L706 0 L441 0 Z "/>
        <glyph glyph-name="w" unicode="w" horiz-adv-x="1713"
               d="M346 0 L13 1099 L280 1099 L491 293 Q498 316 605 686 Q712 1056 726 1099 L995 1099 Q1008 1057 1110 690 Q1212 323 1220 296 L1437 1099 L1700 1099 L1356 0 L1095 0 Q1082 43 973.5 435 Q865 827 856 858 Q836 785 728.5 418 Q621 51 604 0 L346 0 Z "/>
        <glyph glyph-name="x" unicode="x" horiz-adv-x="1158"
               d="M21 0 L412 563 L40 1099 L337 1099 L581 725 L832 1099 L1124 1099 L749 564 L1137 0 L837 0 L581 399 L317 0 L21 0 Z "/>
        <glyph glyph-name="y" unicode="y" horiz-adv-x="1116"
               d="M191 -463 Q127 -463 55 -455 L42 -252 Q88 -257 159 -257 Q250 -257 305 -221 Q360 -185 396 -93 Q400 -83 436 20 L-6 1099 L274 1099 L563 302 Q595 421 706.5 744 Q818 1067 829 1099 L1109 1099 Q652 -109 648 -119 Q577 -304 469 -383.5 Q361 -463 191 -463 Z "/>
        <glyph glyph-name="z" unicode="z" horiz-adv-x="977"
               d="M65 0 L65 159 L609 917 L91 917 L91 1099 L899 1099 L899 920 L384 191 L917 191 L917 0 L65 0 Z "/>
        <glyph glyph-name="braceleft" unicode="&#x7b;" horiz-adv-x="786"
               d="M703 -287 Q477 -287 377 -222.5 Q277 -158 277 13 L277 290 Q277 410 230 457.5 Q183 505 52 505 L52 719 Q145 720 193 740.5 Q241 761 259 804.5 Q277 848 277 930 L277 1221 Q277 1306 303 1362.5 Q329 1419 385 1451.5 Q441 1484 517 1497.5 Q593 1511 703 1511 L703 1311 Q596 1310 562.5 1274 Q529 1238 529 1137 L529 868 Q528 767 479 709.5 Q430 652 317 610 Q529 566 529 360 L529 88 Q529 -13 562.5 -49 Q596 -85 703 -86 L703 -287 Z "/>
        <glyph glyph-name="bar" unicode="&#x7c;" horiz-adv-x="759"
               d="M278 -380 L278 1538 L481 1538 L481 -380 L278 -380 Z "/>
        <glyph glyph-name="braceright" unicode="&#x7d;" horiz-adv-x="787"
               d="M85 -287 L85 -86 Q192 -85 225.5 -49.5 Q259 -14 259 88 L259 360 Q259 464 310.5 521.5 Q362 579 471 611 Q362 645 311 705.5 Q260 766 259 868 L259 1137 Q259 1238 225.5 1274 Q192 1310 85 1311 L85 1511 Q198 1511 273.5 1498 Q349 1485 404.5 1451.5 Q460 1418 485.5 1359.5 Q511 1301 511 1212 L511 929 Q511 809 556.5 764.5 Q602 720 737 719 L737 505 Q605 505 558 458.5 Q511 412 511 290 L511 4 Q511 -162 411 -224.5 Q311 -287 85 -287 Z "/>
        <glyph glyph-name="asciitilde" unicode="&#x7e;" horiz-adv-x="1297"
               d="M207 471 L130 616 Q226 811 417 811 Q526 811 681 745 Q827 681 900 681 Q960 681 1015 713.5 Q1070 746 1134 817 L1205 682 Q1162 602 1073.5 544 Q985 486 883 486 Q818 486 761 503.5 Q704 521 618 560 Q551 591 505.5 605.5 Q460 620 408 620 Q286 620 207 471 Z "/>
        <glyph glyph-name="uni00A0" unicode="&#xa0;" horiz-adv-x="541" d=""/>
        <glyph glyph-name="exclamdown" unicode="&#xa1;" horiz-adv-x="446"
               d="M253 655 L338 -58 L338 -354 L97 -354 L97 -58 L187 655 L253 655 Z M222 1122 Q287 1122 332 1077 Q377 1032 377 970 Q377 907 332 861 Q287 815 222 815 Q158 815 113.5 861 Q69 907 69 970 Q69 1032 113.5 1077 Q158 1122 222 1122 Z "/>
        <glyph glyph-name="cent" unicode="&#xa2;" horiz-adv-x="1082"
               d="M573 -202 L573 54 Q349 71 215.5 223.5 Q82 376 82 636 Q82 761 121 863.5 Q160 966 227.5 1033 Q295 1100 383 1139 Q471 1178 573 1184 L573 1402 L674 1402 L674 1181 Q832 1168 934 1090 L889 916 Q851 942 791.5 964 Q732 986 674 992 L674 242 Q790 251 892 323 L944 148 Q825 64 674 54 L674 -202 L573 -202 Z M573 247 L573 989 Q462 969 395.5 878 Q329 787 329 628 Q329 462 393.5 365.5 Q458 269 573 247 Z "/>
        <glyph glyph-name="sterling" unicode="&#xa3;" horiz-adv-x="1149"
               d="M85 0 L69 190 Q170 233 211 293.5 Q252 354 252 469 L252 659 L67 659 L67 838 L252 838 L252 943 Q252 1066 276.5 1163 Q301 1260 353.5 1334 Q406 1408 494.5 1447.5 Q583 1487 703 1487 Q921 1487 1088 1347 L985 1178 Q911 1227 847.5 1252.5 Q784 1278 713 1278 Q501 1278 501 1017 L501 838 L892 838 L892 659 L501 659 L501 509 Q501 309 389 213 Q397 214 536 214 L1105 214 L1097 0 L85 0 Z "/>
        <glyph glyph-name="currency" unicode="&#xa4;" horiz-adv-x="1162"
               d="M1020 229 L834 402 Q721 317 581 317 Q434 317 327 401 L146 230 L52 322 L237 495 Q161 602 161 732 Q161 860 237 969 L51 1144 L146 1236 L329 1063 Q440 1149 581 1149 Q722 1149 834 1061 L1020 1236 L1111 1142 L927 969 Q1002 861 1002 732 Q1002 601 928 495 L1109 323 L1020 229 Z M581 455 Q699 455 781.5 536 Q864 617 864 732 Q864 847 781 928.5 Q698 1010 581 1010 Q465 1010 382 928 Q299 846 299 732 Q299 617 381.5 536 Q464 455 581 455 Z "/>
        <glyph glyph-name="yen" unicode="&#xa5;" horiz-adv-x="1194"
               d="M471 0 L471 289 L124 289 L124 442 L471 442 L471 583 L125 583 L125 735 L392 735 L-44 1459 L240 1459 L599 838 L958 1459 L1237 1459 L809 735 L1085 735 L1085 583 L734 583 L734 442 L1085 442 L1085 289 L734 289 L734 0 L471 0 Z "/>
        <glyph glyph-name="brokenbar" unicode="&#xa6;" horiz-adv-x="817"
               d="M306 -379 L306 340 L509 340 L509 -379 L306 -379 Z M306 820 L306 1538 L509 1538 L509 820 L306 820 Z "/>
        <glyph glyph-name="section" unicode="&#xa7;" horiz-adv-x="1034"
               d="M783.5 50.5 Q664 -31 472 -31 Q280 -31 138 37 L138 228 Q208 195 299.5 172.5 Q391 150 463 150 Q549 150 602 175.5 Q655 201 663 250 Q677 302 634 342 Q591 382 470 435 Q386 469 329 500 Q272 531 225 571 Q178 611 155.5 662 Q133 713 133 776 Q133 857 172.5 921 Q212 985 276 1026 Q150 1114 150 1261 Q150 1401 253.5 1475 Q357 1549 532 1551 Q707 1556 872 1493 Q871 1486 854 1400.5 Q837 1315 836 1309 Q697 1370 556 1370 Q380 1370 380 1264 Q380 1214 427 1177.5 Q474 1141 584 1096 Q661 1065 716.5 1034.5 Q772 1004 819 964.5 Q866 925 890 875.5 Q914 826 914 767 Q914 603 776 509 Q903 424 903 284 Q903 132 783.5 50.5 Z M607 589 Q703 654 703 731 Q703 797 636.5 844.5 Q570 892 444 940 Q399 917 372.5 880.5 Q346 844 346 802 Q346 746 397.5 701 Q449 656 546 614 Q551 612 574.5 602 Q598 592 607 589 Z "/>
        <glyph glyph-name="dieresis" unicode="&#xa8;" horiz-adv-x="772"
               d="M78 1236 L78 1490 L273 1490 L273 1236 L78 1236 Z M499 1236 L499 1490 L695 1490 L695 1236 L499 1236 Z "/>
        <glyph glyph-name="copyright" unicode="&#xa9;" horiz-adv-x="1743"
               d="M854 254 Q654 254 523 392.5 Q392 531 392 743 Q392 880 449.5 993 Q507 1106 613 1172 Q719 1238 853 1238 Q1038 1238 1160 1156 L1111 1052 Q998 1118 864 1118 Q715 1118 626 1014.5 Q537 911 537 743 Q537 576 627 475 Q717 374 869 374 Q1002 374 1117 440 L1161 336 Q1037 254 854 254 Z M867 78 Q1056 78 1209.5 167 Q1363 256 1448 407.5 Q1533 559 1533 741 Q1533 922 1448 1073.5 Q1363 1225 1209 1314.5 Q1055 1404 866 1404 Q679 1404 526.5 1314.5 Q374 1225 289.5 1074 Q205 923 205 742 Q205 560 289.5 408.5 Q374 257 526.5 167.5 Q679 78 867 78 Z M867 -22 Q711 -22 568.5 35 Q426 92 320 191 Q214 290 151.5 433.5 Q89 577 89 741 Q89 905 151.5 1048.5 Q214 1192 319.5 1291.5 Q425 1391 567.5 1448 Q710 1505 866 1505 Q1023 1505 1166.5 1448 Q1310 1391 1416.5 1291.5 Q1523 1192 1586 1048.5 Q1649 905 1649 741 Q1649 577 1586 433.5 Q1523 290 1417 191 Q1311 92 1167.5 35 Q1024 -22 867 -22 Z "/>
        <glyph glyph-name="ordfeminine" unicode="&#xaa;" horiz-adv-x="757"
               d="M299 750 Q203 750 139 806 Q75 862 75 963 Q75 1011 91.5 1049 Q108 1087 140 1111.5 Q172 1136 208 1153 Q244 1170 294 1180.5 Q344 1191 384 1196.5 Q424 1202 477 1208 Q497 1210 506 1211 L506 1243 Q505 1319 476 1351.5 Q447 1384 382 1384 Q274 1384 133 1326 L91 1436 Q235 1514 399 1514 Q520 1514 594.5 1455.5 Q669 1397 669 1268 L669 889 Q669 787 670 764 L535 764 L518 849 Q486 806 423.5 778 Q361 750 299 750 Z M112 536 L112 656 L673 656 L673 536 L112 536 Z M317 878 Q368 878 418.5 909 Q469 940 506 995 L506 1106 Q456 1099 427.5 1094.5 Q399 1090 362.5 1082.5 Q326 1075 306 1065.5 Q286 1056 266.5 1042.5 Q247 1029 239 1010.5 Q231 992 231 968 Q231 925 255 901.5 Q279 878 317 878 Z "/>
        <glyph glyph-name="guillemotleft" unicode="&#xab;" horiz-adv-x="1083"
               d="M388 136 L74 546 L84 589 L391 987 L598 934 L318 562 L593 190 L388 136 Z M812 136 L489 558 L814 987 L1015 934 L741 562 L1011 190 L812 136 Z "/>
        <glyph glyph-name="logicalnot" unicode="&#xac;" horiz-adv-x="1287"
               d="M961 247 L961 641 L132 641 L132 834 L1152 834 L1152 247 L961 247 Z "/>
        <glyph glyph-name="uni00AD" unicode="&#xad;" horiz-adv-x="745"
               d="M76 380 L76 584 L671 584 L671 380 L76 380 Z "/>
        <glyph glyph-name="registered" unicode="&#xae;" horiz-adv-x="1735"
               d="M556 271 L556 1226 L856 1226 Q1214 1226 1214 964 Q1214 854 1164.5 792 Q1115 730 1000 705 Q1012 690 1027 668 Q1042 646 1061.5 614 Q1081 582 1096 556.5 Q1111 531 1136.5 485.5 Q1162 440 1174.5 417 Q1187 394 1216 341 Q1245 288 1254 271 L1089 271 Q1063 317 968 499 Q870 679 856 688 L704 688 L704 271 L556 271 Z M703 813 L823 813 Q872 813 906 816 Q940 819 972 828.5 Q1004 838 1023 854.5 Q1042 871 1053 897.5 Q1064 924 1064 962 Q1064 995 1057.5 1018 Q1051 1041 1035 1056.5 Q1019 1072 1001.5 1080.5 Q984 1089 951.5 1093.5 Q919 1098 890.5 1099 Q862 1100 814 1100 L703 1100 L703 813 Z M865 78 Q1054 78 1207 167 Q1360 256 1444.5 407.5 Q1529 559 1529 741 Q1529 922 1444.5 1073.5 Q1360 1225 1206.5 1314.5 Q1053 1404 864 1404 Q677 1404 525 1314.5 Q373 1225 289 1074 Q205 923 205 742 Q205 560 289.5 408.5 Q374 257 526 167.5 Q678 78 865 78 Z M865 -22 Q709 -22 567 35 Q425 92 319.5 191 Q214 290 151.5 433.5 Q89 577 89 741 Q89 905 151.5 1048.5 Q214 1192 319 1291.5 Q424 1391 566 1448 Q708 1505 864 1505 Q1021 1505 1164 1448 Q1307 1391 1413 1291.5 Q1519 1192 1582 1048.5 Q1645 905 1645 741 Q1645 577 1582.5 433.5 Q1520 290 1414 191 Q1308 92 1165 35 Q1022 -22 865 -22 Z "/>
        <glyph glyph-name="macron" unicode="&#xaf;" horiz-adv-x="912"
               d="M118 1377 L118 1530 L804 1530 L804 1377 L118 1377 Z "/>
        <glyph glyph-name="degree" unicode="&#xb0;" horiz-adv-x="850"
               d="M428 999 Q494 999 542.5 1044.5 Q591 1090 591 1165 Q591 1238 542.5 1282 Q494 1326 428 1326 Q361 1326 312 1282 Q263 1238 263 1165 Q263 1090 312 1044.5 Q361 999 428 999 Z M427 870 Q282 870 196.5 958 Q111 1046 111 1167 Q111 1287 196.5 1371 Q282 1455 427 1455 Q570 1455 656 1371 Q742 1287 742 1167 Q742 1047 656.5 958.5 Q571 870 427 870 Z "/>
        <glyph glyph-name="plusminus" unicode="&#xb1;" horiz-adv-x="1288"
               d="M544 261 L544 636 L180 636 L180 828 L544 828 L544 1196 L743 1196 L743 828 L1109 828 L1109 636 L744 636 L744 261 L544 261 Z M180 0 L180 177 L1109 177 L1109 0 L180 0 Z "/>
        <glyph glyph-name="twosuperior" unicode="&#xb2;" horiz-adv-x="834"
               d="M146 574 L146 716 Q305 822 420.5 948.5 Q536 1075 536 1159 Q536 1216 495 1249.5 Q454 1283 399 1283 Q344 1283 289 1251 Q234 1219 201 1169 L135 1289 Q190 1361 258 1400 Q326 1439 422 1439 Q537 1439 618.5 1362.5 Q700 1286 700 1163 Q700 1099 682.5 1045.5 Q665 992 617.5 935.5 Q570 879 534.5 845.5 Q499 812 416 741 Q396 724 386 715 L701 715 L686 574 L146 574 Z "/>
        <glyph glyph-name="threesuperior" unicode="&#xb3;" horiz-adv-x="800"
               d="M380 603 Q235 603 125 685 L174 811 Q208 779 268 759 Q328 739 378 739 Q447 739 486 774 Q525 809 525 877 Q525 941 475.5 973 Q426 1005 337 1005 L260 1004 L260 1140 L339 1140 Q495 1140 495 1238 Q495 1281 467 1307 Q439 1333 382 1333 Q329 1333 270.5 1314 Q212 1295 179 1270 L131 1381 Q241 1470 391 1470 Q507 1470 585.5 1412.5 Q664 1355 664 1242 Q661 1121 538 1081 Q598 1058 640.5 1001.5 Q683 945 683 876 Q683 747 595.5 675 Q508 603 380 603 Z "/>
        <glyph glyph-name="acute" unicode="&#xb4;" horiz-adv-x="619"
               d="M191 1195 L362 1578 L661 1578 L346 1195 L191 1195 Z "/>
        <glyph glyph-name="paragraph" unicode="&#xb6;" horiz-adv-x="1201"
               d="M419 -150 L419 782 Q266 795 172 896.5 Q78 998 78 1144 Q78 1236 118 1303.5 Q158 1371 231 1410 Q304 1449 397.5 1467.5 Q491 1486 607 1486 L1026 1486 L1026 1315 L944 1315 L944 -151 L778 -151 L778 1315 L613 1315 L613 -151 L419 -150 Z "/>
        <glyph glyph-name="periodcentered" unicode="&#xb7;" horiz-adv-x="422"
               d="M90 488 L90 740 L332 740 L332 488 L90 488 Z "/>
        <glyph glyph-name="cedilla" unicode="&#xb8;" horiz-adv-x="589"
               d="M62 -357 L185 24 L329 24 L271 -357 L62 -357 Z "/>
        <glyph glyph-name="onesuperior" unicode="&#xb9;" horiz-adv-x="743"
               d="M151 601 L151 749 L293 749 L293 1304 Q288 1301 212.5 1266 Q137 1231 132 1228 L132 1376 Q134 1377 187 1403.5 Q240 1430 288 1455 Q336 1480 340 1484 L484 1484 L484 749 L624 749 L624 601 L151 601 Z "/>
        <glyph glyph-name="ordmasculine" unicode="&#xba;" horiz-adv-x="865"
               d="M439 899 Q533 899 581 961 Q629 1023 629 1125 Q629 1232 580.5 1295 Q532 1358 435 1358 Q341 1358 293 1295 Q245 1232 245 1129 Q245 1022 293 960.5 Q341 899 439 899 Z M439 744 Q265 744 167 850.5 Q69 957 69 1131 Q69 1301 169 1406.5 Q269 1512 438 1512 Q608 1512 705.5 1405.5 Q803 1299 803 1127 Q803 958 704.5 851 Q606 744 439 744 Z "/>
        <glyph glyph-name="guillemotright" unicode="&#xbb;" horiz-adv-x="1168"
               d="M314 136 L113 190 L387 562 L116 934 L316 987 L640 565 L314 136 Z M749 136 L545 190 L822 562 L550 934 L753 987 L1071 565 L749 136 Z "/>
        <glyph glyph-name="onequarter" unicode="&#xbc;" horiz-adv-x="1731"
               d="M104 601 L104 749 L246 749 L246 1304 Q241 1301 165 1265.5 Q89 1230 85 1228 L85 1376 Q287 1477 294 1484 L437 1484 L437 749 L578 749 L578 601 L104 601 Z M1388 10 L1388 182 L985 182 L985 324 L1372 865 L1547 865 L1547 318 L1662 318 L1664 182 L1546 182 L1545 10 L1388 10 Z M305 0 L1327 1471 L1521 1471 L506 0 L305 0 Z M1176 318 L1386 318 Q1386 639 1387 646 L1176 318 Z "/>
        <glyph glyph-name="onehalf" unicode="&#xbd;" horiz-adv-x="1805"
               d="M125 601 L125 733 L267 733 L267 1321 Q224 1293 106 1228 L106 1376 Q122 1384 201.5 1430.5 Q281 1477 288 1484 L458 1484 L458 733 L599 733 L599 601 L125 601 Z M1136 -29 L1137 107 Q1173 138 1234.5 188 Q1296 238 1331.5 267.5 Q1367 297 1412.5 339.5 Q1458 382 1482.5 413.5 Q1507 445 1524.5 482.5 Q1542 520 1542 555 Q1542 614 1499.5 649 Q1457 684 1402 684 Q1343 684 1285.5 659 Q1228 634 1192 587 L1126 704 Q1169 769 1247 802 Q1325 835 1424 835 Q1541 835 1625.5 760.5 Q1710 686 1710 561 Q1710 517 1701.5 478.5 Q1693 440 1670.5 402 Q1648 364 1628 336.5 Q1608 309 1566 270 Q1524 231 1497 207.5 Q1470 184 1414 138 Q1388 116 1374 105 L1709 105 L1693 -29 L1136 -29 Z M310 0 L1331 1471 L1529 1471 L510 0 L310 0 Z "/>
        <glyph glyph-name="threequarters" unicode="&#xbe;" horiz-adv-x="1683"
               d="M343 621 Q200 621 88 703 L137 825 Q170 795 226.5 778 Q283 761 335 761 Q403 761 443 793.5 Q483 826 483 889 Q483 1005 301 1005 L224 1004 L224 1140 L302 1140 Q458 1140 458 1239 Q458 1281 428.5 1305.5 Q399 1330 341 1330 Q288 1330 230.5 1312.5 Q173 1295 141 1270 L79 1377 Q131 1420 205 1445.5 Q279 1471 356 1471 Q472 1471 553 1412.5 Q634 1354 634 1244 Q634 1233 629 1214 Q624 1195 612.5 1168.5 Q601 1142 574 1117.5 Q547 1093 510 1081 Q571 1059 611.5 1005 Q652 951 652 883 Q652 800 607.5 739 Q563 678 494.5 649.5 Q426 621 343 621 Z M1339 11 L1339 190 L935 190 L935 332 L1322 889 L1498 889 L1498 325 L1612 325 L1614 190 L1497 190 L1496 11 L1339 11 Z M279 0 L1299 1471 L1495 1471 L482 0 L279 0 Z M1126 325 L1336 325 Q1336 651 1337 665 L1126 325 Z "/>
        <glyph glyph-name="questiondown" unicode="&#xbf;" horiz-adv-x="887"
               d="M541 751 Q531 672 498 591 Q465 510 425.5 445 Q386 380 347.5 319 Q309 258 283.5 197.5 Q258 137 258 86 Q259 -2 313.5 -53 Q368 -104 465 -104 Q527 -104 585 -88.5 Q643 -73 673.5 -58 Q704 -43 743 -19 L813 -185 Q731 -238 643 -264.5 Q555 -291 437 -291 Q366 -291 298.5 -269.5 Q231 -248 174.5 -207.5 Q118 -167 83.5 -100 Q49 -33 49 51 Q49 119 73 185 Q97 251 139 315 Q181 379 227.5 440 Q274 501 331.5 585.5 Q389 670 430 751 L541 751 Z M488 1217 Q553 1217 598 1172 Q643 1127 643 1065 Q643 1002 598 956 Q553 910 488 910 Q424 910 380 956 Q336 1002 336 1065 Q336 1127 380 1172 Q424 1217 488 1217 Z "/>
        <glyph glyph-name="Agrave" unicode="&#xc0;" horiz-adv-x="1359"
               d="M598 1608 L267 1991 L573 1991 L761 1608 L598 1608 Z M-3 0 L536 1466 L831 1466 L1362 0 L1084 0 L939 414 L426 414 L280 0 L-3 0 Z M494 616 L870 616 Q690 1193 685 1212 L494 616 Z "/>
        <glyph glyph-name="Aacute" unicode="&#xc1;" horiz-adv-x="1359"
               d="M602 1608 L773 1991 L1072 1991 L757 1608 L602 1608 Z M-3 0 L536 1466 L831 1466 L1362 0 L1084 0 L939 414 L426 414 L280 0 L-3 0 Z M494 616 L870 616 Q690 1193 685 1212 L494 616 Z "/>
        <glyph glyph-name="Acircumflex" unicode="&#xc2;" horiz-adv-x="1359"
               d="M325 1608 L575 1991 L783 1991 L1034 1608 L850 1608 L676 1826 L504 1608 L325 1608 Z M-3 0 L536 1466 L831 1466 L1362 0 L1084 0 L939 414 L426 414 L280 0 L-3 0 Z M494 616 L870 616 Q690 1193 685 1212 L494 616 Z "/>
        <glyph glyph-name="Atilde" unicode="&#xc3;" horiz-adv-x="1359"
               d="M336 1608 Q336 1644 338.5 1673 Q341 1702 351.5 1736 Q362 1770 380 1793 Q398 1816 430.5 1831.5 Q463 1847 508 1847 Q566 1847 637 1826 Q708 1805 761 1784 Q814 1763 829 1763 Q876 1763 876 1847 L1023 1847 Q1023 1812 1021 1785 Q1019 1758 1009 1722.5 Q999 1687 982.5 1664 Q966 1641 933.5 1624.5 Q901 1608 857 1608 Q798 1608 679 1653 Q560 1698 530 1698 Q481 1698 480 1608 L336 1608 Z M-3 0 L536 1466 L831 1466 L1362 0 L1084 0 L939 414 L426 414 L280 0 L-3 0 Z M494 616 L870 616 Q690 1193 685 1212 L494 616 Z "/>
        <glyph glyph-name="Adieresis" unicode="&#xc4;" horiz-adv-x="1359"
               d="M371 1608 L371 1862 L566 1862 L566 1608 L371 1608 Z M792 1608 L792 1862 L988 1862 L988 1608 L792 1608 Z M-3 0 L536 1466 L831 1466 L1362 0 L1084 0 L939 414 L426 414 L280 0 L-3 0 Z M494 616 L870 616 Q690 1193 685 1212 L494 616 Z "/>
        <glyph glyph-name="Aring" unicode="&#xc5;" horiz-adv-x="1359"
               d="M601 1598 Q629 1566 680 1566 Q731 1566 758.5 1598 Q786 1630 786 1676 Q786 1721 758 1754.5 Q730 1788 680 1788 Q629 1788 601 1755.5 Q573 1723 573 1676 Q573 1630 601 1598 Z M840 1533 Q780 1473 680 1473 Q580 1473 519.5 1533 Q459 1593 459 1677 Q459 1760 518.5 1818.5 Q578 1877 680 1877 Q781 1877 840.5 1818.5 Q900 1760 900 1677 Q900 1593 840 1533 Z M-3 0 L536 1466 L831 1466 L1362 0 L1084 0 L939 414 L426 414 L280 0 L-3 0 Z M494 616 L870 616 Q690 1193 685 1212 L494 616 Z "/>
        <glyph glyph-name="AE" unicode="&#xc6;" horiz-adv-x="2021"
               d="M38 0 L882 1481 L1891 1481 L1876 1285 L1269 1285 L1302 851 L1851 851 L1851 655 L1322 655 L1361 196 L1926 196 L1912 0 L1099 0 L1069 375 L545 375 L340 0 L38 0 Z M638 572 L1053 572 L1003 1235 L638 572 Z "/>
        <glyph glyph-name="Ccedilla" unicode="&#xc7;" horiz-adv-x="1301"
               d="M595 -389 L718 -8 L862 -8 L804 -389 L595 -389 Z M797 -21 Q476 -21 288 181 Q100 383 100 739 Q100 1077 296.5 1281.5 Q493 1486 811 1486 Q1068 1486 1246 1367 L1161 1162 Q990 1267 817 1267 Q615 1267 497.5 1121.5 Q380 976 380 731 Q380 477 493.5 338 Q607 199 817 199 Q1001 199 1182 291 L1218 79 Q1050 -21 797 -21 Z "/>
        <glyph glyph-name="Egrave" unicode="&#xc8;" horiz-adv-x="1152"
               d="M526 1608 L195 1991 L501 1991 L689 1608 L526 1608 Z M158 0 L158 1465 L1046 1465 L1035 1250 L429 1250 L429 872 L1005 872 L1005 657 L429 657 L429 216 L1057 216 L1048 0 L158 0 Z "/>
        <glyph glyph-name="Eacute" unicode="&#xc9;" horiz-adv-x="1152"
               d="M530 1608 L701 1991 L1000 1991 L685 1608 L530 1608 Z M158 0 L158 1465 L1046 1465 L1035 1250 L429 1250 L429 872 L1005 872 L1005 657 L429 657 L429 216 L1057 216 L1048 0 L158 0 Z "/>
        <glyph glyph-name="Ecircumflex" unicode="&#xca;" horiz-adv-x="1152"
               d="M253 1608 L503 1991 L711 1991 L962 1608 L778 1608 L604 1826 L432 1608 L253 1608 Z M158 0 L158 1465 L1046 1465 L1035 1250 L429 1250 L429 872 L1005 872 L1005 657 L429 657 L429 216 L1057 216 L1048 0 L158 0 Z "/>
        <glyph glyph-name="Edieresis" unicode="&#xcb;" horiz-adv-x="1152"
               d="M299 1608 L299 1862 L494 1862 L494 1608 L299 1608 Z M720 1608 L720 1862 L916 1862 L916 1608 L720 1608 Z M158 0 L158 1465 L1046 1465 L1035 1250 L429 1250 L429 872 L1005 872 L1005 657 L429 657 L429 216 L1057 216 L1048 0 L158 0 Z "/>
        <glyph glyph-name="Igrave" unicode="&#xcc;" horiz-adv-x="602"
               d="M219 1608 L-112 1991 L194 1991 L382 1608 L219 1608 Z M165 0 L165 1465 L436 1465 L436 0 L165 0 Z "/>
        <glyph glyph-name="Iacute" unicode="&#xcd;" horiz-adv-x="602"
               d="M223 1608 L394 1991 L693 1991 L378 1608 L223 1608 Z M165 0 L165 1465 L436 1465 L436 0 L165 0 Z "/>
        <glyph glyph-name="Icircumflex" unicode="&#xce;" horiz-adv-x="602"
               d="M-54 1608 L196 1991 L404 1991 L655 1608 L471 1608 L297 1826 L125 1608 L-54 1608 Z M165 0 L165 1465 L436 1465 L436 0 L165 0 Z "/>
        <glyph glyph-name="Idieresis" unicode="&#xcf;" horiz-adv-x="602"
               d="M-8 1608 L-8 1862 L187 1862 L187 1608 L-8 1608 Z M413 1608 L413 1862 L609 1862 L609 1608 L413 1608 Z M165 0 L165 1465 L436 1465 L436 0 L165 0 Z "/>
        <glyph glyph-name="Eth" unicode="&#xd0;" horiz-adv-x="1524"
               d="M398 206 L633 206 Q892 206 1031.5 340 Q1171 474 1171 725 Q1171 874 1131 977.5 Q1091 1081 1009 1142 Q927 1203 814 1229.5 Q701 1256 542 1256 L398 1256 L398 829 L597 829 L597 650 L398 650 L398 206 Z M131 1 L131 650 L6 650 L6 829 L131 829 L131 1463 L522 1463 Q1441 1463 1441 729 Q1441 553 1381 414 Q1321 275 1212 185 Q1103 95 952 48 Q801 1 617 1 L131 1 Z "/>
        <glyph glyph-name="Ntilde" unicode="&#xd1;" horiz-adv-x="1554"
               d="M434 1608 Q434 1644 436.5 1673 Q439 1702 449.5 1736 Q460 1770 478 1793 Q496 1816 528.5 1831.5 Q561 1847 606 1847 Q664 1847 735 1826 Q806 1805 859 1784 Q912 1763 927 1763 Q974 1763 974 1847 L1121 1847 Q1121 1812 1119 1785 Q1117 1758 1107 1722.5 Q1097 1687 1080.5 1664 Q1064 1641 1031.5 1624.5 Q999 1608 955 1608 Q896 1608 777 1653 Q658 1698 628 1698 Q579 1698 578 1608 L434 1608 Z M158 0 L158 1465 L446 1465 Q524 1343 763 973 Q1002 603 1054 523 Q1069 500 1105.5 445.5 Q1142 391 1157 368 Q1150 711 1150 724 L1150 1465 L1397 1465 L1397 0 L1105 0 L444 1030 L396 1109 Q404 845 404 738 L404 0 L158 0 Z "/>
        <glyph glyph-name="Ograve" unicode="&#xd2;" horiz-adv-x="1626"
               d="M731 1608 L400 1991 L706 1991 L894 1608 L731 1608 Z M492 339 Q601 200 814 200 Q1027 200 1135.5 338.5 Q1244 477 1244 730 Q1244 986 1135.5 1127 Q1027 1268 815 1268 Q602 1268 492.5 1126.5 Q383 985 383 730 Q383 478 492 339 Z M813 -21 Q482 -21 290.5 179.5 Q99 380 99 733 Q99 1088 291 1287 Q483 1486 814 1486 Q1145 1486 1336 1286.5 Q1527 1087 1527 732 Q1527 381 1335 180 Q1143 -21 813 -21 Z "/>
        <glyph glyph-name="Oacute" unicode="&#xd3;" horiz-adv-x="1626"
               d="M735 1608 L906 1991 L1205 1991 L890 1608 L735 1608 Z M492 339 Q601 200 814 200 Q1027 200 1135.5 338.5 Q1244 477 1244 730 Q1244 986 1135.5 1127 Q1027 1268 815 1268 Q602 1268 492.5 1126.5 Q383 985 383 730 Q383 478 492 339 Z M813 -21 Q482 -21 290.5 179.5 Q99 380 99 733 Q99 1088 291 1287 Q483 1486 814 1486 Q1145 1486 1336 1286.5 Q1527 1087 1527 732 Q1527 381 1335 180 Q1143 -21 813 -21 Z "/>
        <glyph glyph-name="Ocircumflex" unicode="&#xd4;" horiz-adv-x="1626"
               d="M459 1608 L709 1991 L917 1991 L1168 1608 L984 1608 L810 1826 L638 1608 L459 1608 Z M492 339 Q601 200 814 200 Q1027 200 1135.5 338.5 Q1244 477 1244 730 Q1244 986 1135.5 1127 Q1027 1268 815 1268 Q602 1268 492.5 1126.5 Q383 985 383 730 Q383 478 492 339 Z M813 -21 Q482 -21 290.5 179.5 Q99 380 99 733 Q99 1088 291 1287 Q483 1486 814 1486 Q1145 1486 1336 1286.5 Q1527 1087 1527 732 Q1527 381 1335 180 Q1143 -21 813 -21 Z "/>
        <glyph glyph-name="Otilde" unicode="&#xd5;" horiz-adv-x="1626"
               d="M470 1608 Q470 1644 472.5 1673 Q475 1702 485.5 1736 Q496 1770 514 1793 Q532 1816 564.5 1831.5 Q597 1847 642 1847 Q700 1847 771 1826 Q842 1805 895 1784 Q948 1763 963 1763 Q1010 1763 1010 1847 L1157 1847 Q1157 1812 1155 1785 Q1153 1758 1143 1722.5 Q1133 1687 1116.5 1664 Q1100 1641 1067.5 1624.5 Q1035 1608 991 1608 Q932 1608 813 1653 Q694 1698 664 1698 Q615 1698 614 1608 L470 1608 Z M492 339 Q601 200 814 200 Q1027 200 1135.5 338.5 Q1244 477 1244 730 Q1244 986 1135.5 1127 Q1027 1268 815 1268 Q602 1268 492.5 1126.5 Q383 985 383 730 Q383 478 492 339 Z M813 -21 Q482 -21 290.5 179.5 Q99 380 99 733 Q99 1088 291 1287 Q483 1486 814 1486 Q1145 1486 1336 1286.5 Q1527 1087 1527 732 Q1527 381 1335 180 Q1143 -21 813 -21 Z "/>
        <glyph glyph-name="Odieresis" unicode="&#xd6;" horiz-adv-x="1626"
               d="M504 1608 L504 1862 L699 1862 L699 1608 L504 1608 Z M925 1608 L925 1862 L1121 1862 L1121 1608 L925 1608 Z M492 339 Q601 200 814 200 Q1027 200 1135.5 338.5 Q1244 477 1244 730 Q1244 986 1135.5 1127 Q1027 1268 815 1268 Q602 1268 492.5 1126.5 Q383 985 383 730 Q383 478 492 339 Z M813 -21 Q482 -21 290.5 179.5 Q99 380 99 733 Q99 1088 291 1287 Q483 1486 814 1486 Q1145 1486 1336 1286.5 Q1527 1087 1527 732 Q1527 381 1335 180 Q1143 -21 813 -21 Z "/>
        <glyph glyph-name="multiply" unicode="&#xd7;" horiz-adv-x="1395"
               d="M412 147 L278 283 L569 583 L278 882 L412 1020 L713 725 L1013 1020 L1149 881 L857 583 Q898 543 1008.5 428.5 Q1119 314 1149 284 L1013 147 L713 441 L412 147 Z "/>
        <glyph glyph-name="Oslash" unicode="&#xd8;" horiz-adv-x="1624"
               d="M470 -211 L370 -169 L466 52 Q286 138 185 312.5 Q84 487 84 730 Q84 905 138 1047.5 Q192 1190 289 1285.5 Q386 1381 521 1433 Q656 1485 816 1485 Q953 1485 1073 1447 L1166 1660 L1272 1619 L1179 1404 Q1351 1315 1447 1142 Q1543 969 1543 730 Q1543 558 1489 416.5 Q1435 275 1339 179.5 Q1243 84 1107.5 31.5 Q972 -21 812 -21 Q684 -21 568 13 L470 -211 Z M557 260 L984 1244 Q905 1271 815 1271 Q591 1271 473.5 1124 Q356 977 356 726 Q356 565 407 445 Q458 325 557 260 Z M815 191 Q1040 191 1157 334.5 Q1274 478 1274 726 Q1274 885 1226 1005 Q1178 1125 1085 1192 L657 213 Q726 191 815 191 Z "/>
        <glyph glyph-name="Ugrave" unicode="&#xd9;" horiz-adv-x="1468"
               d="M652 1608 L321 1991 L627 1991 L815 1608 L652 1608 Z M730 -21 Q442 -21 293 122.5 Q144 266 144 527 L144 1465 L416 1465 L416 550 Q416 367 490.5 283 Q565 199 735 199 Q902 199 977 283.5 Q1052 368 1052 551 L1052 1465 L1323 1465 L1323 525 Q1323 266 1171 122.5 Q1019 -21 730 -21 Z "/>
        <glyph glyph-name="Uacute" unicode="&#xda;" horiz-adv-x="1468"
               d="M656 1608 L827 1991 L1126 1991 L811 1608 L656 1608 Z M730 -21 Q442 -21 293 122.5 Q144 266 144 527 L144 1465 L416 1465 L416 550 Q416 367 490.5 283 Q565 199 735 199 Q902 199 977 283.5 Q1052 368 1052 551 L1052 1465 L1323 1465 L1323 525 Q1323 266 1171 122.5 Q1019 -21 730 -21 Z "/>
        <glyph glyph-name="Ucircumflex" unicode="&#xdb;" horiz-adv-x="1468"
               d="M379 1608 L629 1991 L837 1991 L1088 1608 L904 1608 L730 1826 L558 1608 L379 1608 Z M730 -21 Q442 -21 293 122.5 Q144 266 144 527 L144 1465 L416 1465 L416 550 Q416 367 490.5 283 Q565 199 735 199 Q902 199 977 283.5 Q1052 368 1052 551 L1052 1465 L1323 1465 L1323 525 Q1323 266 1171 122.5 Q1019 -21 730 -21 Z "/>
        <glyph glyph-name="Udieresis" unicode="&#xdc;" horiz-adv-x="1468"
               d="M425 1608 L425 1862 L620 1862 L620 1608 L425 1608 Z M846 1608 L846 1862 L1042 1862 L1042 1608 L846 1608 Z M730 -21 Q442 -21 293 122.5 Q144 266 144 527 L144 1465 L416 1465 L416 550 Q416 367 490.5 283 Q565 199 735 199 Q902 199 977 283.5 Q1052 368 1052 551 L1052 1465 L1323 1465 L1323 525 Q1323 266 1171 122.5 Q1019 -21 730 -21 Z "/>
        <glyph glyph-name="Yacute" unicode="&#xdd;" horiz-adv-x="1256"
               d="M549 1608 L720 1991 L1019 1991 L704 1608 L549 1608 Z M492 0 L492 581 L-15 1465 L279 1465 L628 831 L979 1465 L1269 1465 L764 586 L764 0 L492 0 Z "/>
        <glyph glyph-name="Thorn" unicode="&#xde;" horiz-adv-x="1327"
               d="M178 11 L178 1454 L400 1454 L400 1229 L687 1229 Q817 1229 921 1204.5 Q1025 1180 1105.5 1128.5 Q1186 1077 1230 990 Q1274 903 1274 785 Q1274 573 1121.5 455 Q969 337 724 337 L400 339 L400 11 L178 11 Z M401 534 L737 534 Q886 534 968 602 Q1050 670 1050 793 Q1050 928 965 990 Q880 1052 710 1052 L400 1052 L401 534 Z "/>
        <glyph glyph-name="germandbls" unicode="&#xdf;" horiz-adv-x="1259"
               d="M108 0 L108 1024 Q108 1246 230.5 1368 Q353 1490 583 1490 Q676 1490 756.5 1468.5 Q837 1447 900 1405 Q963 1363 999 1296 Q1035 1229 1035 1144 Q1035 1083 1014 1032.5 Q993 982 944.5 937 Q896 892 866 870.5 Q836 849 769 808 Q760 802 755 799 Q777 786 824 761.5 Q871 737 900 721 Q929 705 973 677.5 Q1017 650 1045.5 627 Q1074 604 1106.5 571 Q1139 538 1158 505.5 Q1177 473 1189.5 431 Q1202 389 1202 344 Q1202 229 1147.5 150 Q1093 71 1003 35.5 Q913 0 794 0 L502 0 L527 179 L767 179 Q851 179 897 223.5 Q943 268 943 345 Q943 391 921.5 430.5 Q900 470 858 503 Q816 536 777.5 558.5 Q739 581 679 612.5 Q619 644 589 663 Q502 716 502 786 Q502 849 573 903 Q591 916 629.5 942.5 Q668 969 689 985.5 Q710 1002 735.5 1027.5 Q761 1053 773 1081.5 Q785 1110 785 1144 Q785 1217 728.5 1258 Q672 1299 582 1299 Q516 1299 472 1279.5 Q428 1260 404.5 1221 Q381 1182 372 1133.5 Q363 1085 363 1016 L363 0 L108 0 Z "/>
        <glyph glyph-name="agrave" unicode="&#xe0;" horiz-adv-x="1142"
               d="M465 1248 L134 1631 L440 1631 L628 1248 L465 1248 Z M423 -21 Q270 -21 175.5 63.5 Q81 148 81 307 Q81 478 193 560.5 Q305 643 531 665 Q562 669 598 673 Q634 677 679 681 Q724 685 750 688 L750 746 Q750 846 704 891.5 Q658 937 564 937 Q430 937 233 862 Q232 865 200 953 Q168 1041 167 1043 Q361 1126 587 1126 Q809 1126 910 1029.5 Q1011 933 1011 717 L1011 0 L817 0 Q816 4 795 67 Q774 130 774 134 Q692 54 613.5 16.5 Q535 -21 423 -21 Z M494 165 Q585 165 652.5 208.5 Q720 252 749 314 L749 526 Q746 526 696.5 522 Q647 518 643 518 Q484 504 410 458 Q336 412 336 310 Q336 240 377 202.5 Q418 165 494 165 Z "/>
        <glyph glyph-name="aacute" unicode="&#xe1;" horiz-adv-x="1142"
               d="M469 1248 L640 1631 L939 1631 L624 1248 L469 1248 Z M423 -21 Q270 -21 175.5 63.5 Q81 148 81 307 Q81 478 193 560.5 Q305 643 531 665 Q562 669 598 673 Q634 677 679 681 Q724 685 750 688 L750 746 Q750 846 704 891.5 Q658 937 564 937 Q430 937 233 862 Q232 865 200 953 Q168 1041 167 1043 Q361 1126 587 1126 Q809 1126 910 1029.5 Q1011 933 1011 717 L1011 0 L817 0 Q816 4 795 67 Q774 130 774 134 Q692 54 613.5 16.5 Q535 -21 423 -21 Z M494 165 Q585 165 652.5 208.5 Q720 252 749 314 L749 526 Q746 526 696.5 522 Q647 518 643 518 Q484 504 410 458 Q336 412 336 310 Q336 240 377 202.5 Q418 165 494 165 Z "/>
        <glyph glyph-name="acircumflex" unicode="&#xe2;" horiz-adv-x="1142"
               d="M191 1248 L441 1631 L649 1631 L900 1248 L716 1248 L542 1466 L370 1248 L191 1248 Z M423 -21 Q270 -21 175.5 63.5 Q81 148 81 307 Q81 478 193 560.5 Q305 643 531 665 Q562 669 598 673 Q634 677 679 681 Q724 685 750 688 L750 746 Q750 846 704 891.5 Q658 937 564 937 Q430 937 233 862 Q232 865 200 953 Q168 1041 167 1043 Q361 1126 587 1126 Q809 1126 910 1029.5 Q1011 933 1011 717 L1011 0 L817 0 Q816 4 795 67 Q774 130 774 134 Q692 54 613.5 16.5 Q535 -21 423 -21 Z M494 165 Q585 165 652.5 208.5 Q720 252 749 314 L749 526 Q746 526 696.5 522 Q647 518 643 518 Q484 504 410 458 Q336 412 336 310 Q336 240 377 202.5 Q418 165 494 165 Z "/>
        <glyph glyph-name="atilde" unicode="&#xe3;" horiz-adv-x="1142"
               d="M202 1248 Q202 1284 204.5 1313 Q207 1342 217.5 1376 Q228 1410 246 1433 Q264 1456 296.5 1471.5 Q329 1487 374 1487 Q432 1487 503 1466 Q574 1445 627 1424 Q680 1403 695 1403 Q742 1403 742 1487 L889 1487 Q889 1452 887 1425 Q885 1398 875 1362.5 Q865 1327 848.5 1304 Q832 1281 799.5 1264.5 Q767 1248 723 1248 Q664 1248 545 1293 Q426 1338 396 1338 Q347 1338 346 1248 L202 1248 Z M423 -21 Q270 -21 175.5 63.5 Q81 148 81 307 Q81 478 193 560.5 Q305 643 531 665 Q562 669 598 673 Q634 677 679 681 Q724 685 750 688 L750 746 Q750 846 704 891.5 Q658 937 564 937 Q430 937 233 862 Q232 865 200 953 Q168 1041 167 1043 Q361 1126 587 1126 Q809 1126 910 1029.5 Q1011 933 1011 717 L1011 0 L817 0 Q816 4 795 67 Q774 130 774 134 Q692 54 613.5 16.5 Q535 -21 423 -21 Z M494 165 Q585 165 652.5 208.5 Q720 252 749 314 L749 526 Q746 526 696.5 522 Q647 518 643 518 Q484 504 410 458 Q336 412 336 310 Q336 240 377 202.5 Q418 165 494 165 Z "/>
        <glyph glyph-name="adieresis" unicode="&#xe4;" horiz-adv-x="1142"
               d="M238 1248 L238 1502 L433 1502 L433 1248 L238 1248 Z M659 1248 L659 1502 L855 1502 L855 1248 L659 1248 Z M423 -21 Q270 -21 175.5 63.5 Q81 148 81 307 Q81 478 193 560.5 Q305 643 531 665 Q562 669 598 673 Q634 677 679 681 Q724 685 750 688 L750 746 Q750 846 704 891.5 Q658 937 564 937 Q430 937 233 862 Q232 865 200 953 Q168 1041 167 1043 Q361 1126 587 1126 Q809 1126 910 1029.5 Q1011 933 1011 717 L1011 0 L817 0 Q816 4 795 67 Q774 130 774 134 Q692 54 613.5 16.5 Q535 -21 423 -21 Z M494 165 Q585 165 652.5 208.5 Q720 252 749 314 L749 526 Q746 526 696.5 522 Q647 518 643 518 Q484 504 410 458 Q336 412 336 310 Q336 240 377 202.5 Q418 165 494 165 Z "/>
        <glyph glyph-name="aring" unicode="&#xe5;" horiz-adv-x="1142"
               d="M467 1373 Q495 1341 546 1341 Q597 1341 624.5 1373 Q652 1405 652 1451 Q652 1496 624 1529.5 Q596 1563 546 1563 Q495 1563 467 1530.5 Q439 1498 439 1451 Q439 1405 467 1373 Z M706 1308 Q646 1248 546 1248 Q446 1248 385.5 1308 Q325 1368 325 1452 Q325 1535 384.5 1593.5 Q444 1652 546 1652 Q647 1652 706.5 1593.5 Q766 1535 766 1452 Q766 1368 706 1308 Z M423 -21 Q270 -21 175.5 63.5 Q81 148 81 307 Q81 478 193 560.5 Q305 643 531 665 Q562 669 598 673 Q634 677 679 681 Q724 685 750 688 L750 746 Q750 846 704 891.5 Q658 937 564 937 Q430 937 233 862 Q232 865 200 953 Q168 1041 167 1043 Q361 1126 587 1126 Q809 1126 910 1029.5 Q1011 933 1011 717 L1011 0 L817 0 Q816 4 795 67 Q774 130 774 134 Q692 54 613.5 16.5 Q535 -21 423 -21 Z M494 165 Q585 165 652.5 208.5 Q720 252 749 314 L749 526 Q746 526 696.5 522 Q647 518 643 518 Q484 504 410 458 Q336 412 336 310 Q336 240 377 202.5 Q418 165 494 165 Z "/>
        <glyph glyph-name="ae" unicode="&#xe6;" horiz-adv-x="1679"
               d="M411 -22 Q258 -22 165 74 Q72 170 72 317 Q72 362 80.5 398 Q89 434 110.5 462 Q132 490 154 510.5 Q176 531 217.5 547.5 Q259 564 292.5 574.5 Q326 585 386 594.5 Q446 604 489.5 609.5 Q533 615 608 623 L693 630 L693 747 Q693 850 653.5 897.5 Q614 945 507 949 Q366 949 183 872 L134 1052 Q309 1135 523 1135 Q649 1135 734 1089.5 Q819 1044 848 959 Q905 1038 999.5 1086.5 Q1094 1135 1209 1135 Q1314 1135 1394 1094 Q1474 1053 1520.5 980.5 Q1567 908 1590 819 Q1613 730 1613 625 Q1613 581 1574 560.5 Q1535 540 1456 537 Q1263 526 941 500 Q948 339 1021.5 254 Q1095 169 1232 168 Q1322 168 1399 192 Q1476 216 1519 249 L1591 87 Q1442 -21 1216 -21 Q966 -21 837 138 Q662 -22 411 -22 Z M449 150 Q584 150 744 273 Q732 297 715.5 360.5 Q699 424 698 475 Q695 475 652 469.5 Q609 464 607 464 Q541 456 498.5 448.5 Q456 441 416 429 Q376 417 354 401 Q332 385 319 361 Q306 337 306 305 Q306 230 342.5 190 Q379 150 449 150 Z M944 644 L1380 683 Q1382 697 1382 714 Q1380 944 1207 944 Q1160 944 1118 929 Q1076 914 1038 881 Q1000 848 975 787.5 Q950 727 944 644 Z "/>
        <glyph glyph-name="ccedilla" unicode="&#xe7;" horiz-adv-x="1008"
               d="M437 -389 L560 -8 L704 -8 L646 -389 L437 -389 Z M614 -21 Q362 -21 221.5 129 Q81 279 81 558 Q81 828 228.5 977 Q376 1126 617 1126 Q810 1126 943 1043 L881 856 Q745 927 628 927 Q495 927 418.5 832 Q342 737 342 555 Q342 371 417.5 275 Q493 179 631 179 Q775 179 908 264 L933 65 Q864 19 790 -1 Q716 -21 614 -21 Z "/>
        <glyph glyph-name="egrave" unicode="&#xe8;" horiz-adv-x="1157"
               d="M497 1248 L166 1631 L472 1631 L660 1248 L497 1248 Z M641 -21 Q376 -21 228.5 131.5 Q81 284 81 553 Q81 815 220 970 Q359 1125 599 1126 Q826 1126 951.5 984 Q1077 842 1077 607 Q1077 590 1076.5 552 Q1076 514 1076 496 L345 496 Q349 342 429.5 257.5 Q510 173 651 173 Q831 173 997 267 L1034 81 Q869 -21 641 -21 Z M350 661 L830 661 Q830 795 769 867 Q708 939 600 939 Q499 939 429.5 869 Q360 799 350 661 Z "/>
        <glyph glyph-name="eacute" unicode="&#xe9;" horiz-adv-x="1157"
               d="M501 1248 L672 1631 L971 1631 L656 1248 L501 1248 Z M641 -21 Q376 -21 228.5 131.5 Q81 284 81 553 Q81 815 220 970 Q359 1125 599 1126 Q826 1126 951.5 984 Q1077 842 1077 607 Q1077 590 1076.5 552 Q1076 514 1076 496 L345 496 Q349 342 429.5 257.5 Q510 173 651 173 Q831 173 997 267 L1034 81 Q869 -21 641 -21 Z M350 661 L830 661 Q830 795 769 867 Q708 939 600 939 Q499 939 429.5 869 Q360 799 350 661 Z "/>
        <glyph glyph-name="ecircumflex" unicode="&#xea;" horiz-adv-x="1157"
               d="M225 1248 L475 1631 L683 1631 L934 1248 L750 1248 L576 1466 L404 1248 L225 1248 Z M641 -21 Q376 -21 228.5 131.5 Q81 284 81 553 Q81 815 220 970 Q359 1125 599 1126 Q826 1126 951.5 984 Q1077 842 1077 607 Q1077 590 1076.5 552 Q1076 514 1076 496 L345 496 Q349 342 429.5 257.5 Q510 173 651 173 Q831 173 997 267 L1034 81 Q869 -21 641 -21 Z M350 661 L830 661 Q830 795 769 867 Q708 939 600 939 Q499 939 429.5 869 Q360 799 350 661 Z "/>
        <glyph glyph-name="edieresis" unicode="&#xeb;" horiz-adv-x="1157"
               d="M270 1248 L270 1502 L465 1502 L465 1248 L270 1248 Z M691 1248 L691 1502 L887 1502 L887 1248 L691 1248 Z M641 -21 Q376 -21 228.5 131.5 Q81 284 81 553 Q81 815 220 970 Q359 1125 599 1126 Q826 1126 951.5 984 Q1077 842 1077 607 Q1077 590 1076.5 552 Q1076 514 1076 496 L345 496 Q349 342 429.5 257.5 Q510 173 651 173 Q831 173 997 267 L1034 81 Q869 -21 641 -21 Z M350 661 L830 661 Q830 795 769 867 Q708 939 600 939 Q499 939 429.5 869 Q360 799 350 661 Z "/>
        <glyph glyph-name="igrave" unicode="&#xec;" horiz-adv-x="548"
               d="M175 1248 L-156 1631 L150 1631 L338 1248 L175 1248 Z M129 0 L129 1098 L384 1098 L384 0 L129 0 Z "/>
        <glyph glyph-name="iacute" unicode="&#xed;" horiz-adv-x="548"
               d="M179 1248 L350 1631 L649 1631 L334 1248 L179 1248 Z M129 0 L129 1098 L384 1098 L384 0 L129 0 Z "/>
        <glyph glyph-name="icircumflex" unicode="&#xee;" horiz-adv-x="548"
               d="M-98 1248 L152 1631 L360 1631 L611 1248 L427 1248 L253 1466 L81 1248 L-98 1248 Z M129 0 L129 1098 L384 1098 L384 0 L129 0 Z "/>
        <glyph glyph-name="idieresis" unicode="&#xef;" horiz-adv-x="548"
               d="M-52 1248 L-52 1502 L143 1502 L143 1248 L-52 1248 Z M369 1248 L369 1502 L565 1502 L565 1248 L369 1248 Z M129 0 L129 1098 L384 1098 L384 0 L129 0 Z "/>
        <glyph glyph-name="eth" unicode="&#xf0;" horiz-adv-x="1226"
               d="M626 -21 Q383 -21 233.5 114.5 Q84 250 84 467 Q84 695 218.5 824 Q353 953 581 953 Q636 953 730 924 Q722 939 629 1050 Q536 1161 505 1193 L256 1092 L189 1226 L394 1309 L191 1509 L489 1509 L608 1396 L858 1496 L927 1364 L716 1280 Q940 1032 1047 858 Q1159 674 1159 481 Q1159 376 1126.5 286.5 Q1094 197 1030 127.5 Q966 58 862.5 18.5 Q759 -21 626 -21 Z M625 178 Q766 178 842.5 257.5 Q919 337 919 472 Q919 608 840.5 691 Q762 774 619 774 Q476 774 399.5 694.5 Q323 615 323 478 Q323 344 403 261 Q483 178 625 178 Z "/>
        <glyph glyph-name="ntilde" unicode="&#xf1;" horiz-adv-x="1254"
               d="M288 1248 Q288 1284 290.5 1313 Q293 1342 303.5 1376 Q314 1410 332 1433 Q350 1456 382.5 1471.5 Q415 1487 460 1487 Q518 1487 589 1466 Q660 1445 713 1424 Q766 1403 781 1403 Q828 1403 828 1487 L975 1487 Q975 1452 973 1425 Q971 1398 961 1362.5 Q951 1327 934.5 1304 Q918 1281 885.5 1264.5 Q853 1248 809 1248 Q750 1248 631 1293 Q512 1338 482 1338 Q433 1338 432 1248 L288 1248 Z M133 0 L133 1099 L344 1099 L373 960 Q541 1126 746 1126 Q938 1126 1033.5 1015.5 Q1129 905 1129 695 L1129 0 L866 0 L866 663 Q865 796 823 862 Q781 928 672 928 Q587 928 516.5 884.5 Q446 841 414 775 Q395 697 395 535 L395 0 L133 0 Z "/>
        <glyph glyph-name="ograve" unicode="&#xf2;" horiz-adv-x="1222"
               d="M529 1248 L198 1631 L504 1631 L692 1248 L529 1248 Z M612 178 Q745 178 812 275 Q879 372 879 553 Q879 736 812 832 Q745 928 610 928 Q477 928 409.5 831.5 Q342 735 342 552 Q342 372 410 275 Q478 178 612 178 Z M605 -21 Q361 -21 221 137 Q81 295 81 553 Q81 819 221 972.5 Q361 1126 616 1126 Q862 1126 1001.5 969.5 Q1141 813 1141 553 Q1141 290 1000 134.5 Q859 -21 605 -21 Z "/>
        <glyph glyph-name="oacute" unicode="&#xf3;" horiz-adv-x="1222"
               d="M533 1248 L704 1631 L1003 1631 L688 1248 L533 1248 Z M612 178 Q745 178 812 275 Q879 372 879 553 Q879 736 812 832 Q745 928 610 928 Q477 928 409.5 831.5 Q342 735 342 552 Q342 372 410 275 Q478 178 612 178 Z M605 -21 Q361 -21 221 137 Q81 295 81 553 Q81 819 221 972.5 Q361 1126 616 1126 Q862 1126 1001.5 969.5 Q1141 813 1141 553 Q1141 290 1000 134.5 Q859 -21 605 -21 Z "/>
        <glyph glyph-name="ocircumflex" unicode="&#xf4;" horiz-adv-x="1222"
               d="M257 1248 L507 1631 L715 1631 L966 1248 L782 1248 L608 1466 L436 1248 L257 1248 Z M612 178 Q745 178 812 275 Q879 372 879 553 Q879 736 812 832 Q745 928 610 928 Q477 928 409.5 831.5 Q342 735 342 552 Q342 372 410 275 Q478 178 612 178 Z M605 -21 Q361 -21 221 137 Q81 295 81 553 Q81 819 221 972.5 Q361 1126 616 1126 Q862 1126 1001.5 969.5 Q1141 813 1141 553 Q1141 290 1000 134.5 Q859 -21 605 -21 Z "/>
        <glyph glyph-name="otilde" unicode="&#xf5;" horiz-adv-x="1222"
               d="M268 1248 Q268 1284 270.5 1313 Q273 1342 283.5 1376 Q294 1410 312 1433 Q330 1456 362.5 1471.5 Q395 1487 440 1487 Q498 1487 569 1466 Q640 1445 693 1424 Q746 1403 761 1403 Q808 1403 808 1487 L955 1487 Q955 1452 953 1425 Q951 1398 941 1362.5 Q931 1327 914.5 1304 Q898 1281 865.5 1264.5 Q833 1248 789 1248 Q730 1248 611 1293 Q492 1338 462 1338 Q413 1338 412 1248 L268 1248 Z M612 178 Q745 178 812 275 Q879 372 879 553 Q879 736 812 832 Q745 928 610 928 Q477 928 409.5 831.5 Q342 735 342 552 Q342 372 410 275 Q478 178 612 178 Z M605 -21 Q361 -21 221 137 Q81 295 81 553 Q81 819 221 972.5 Q361 1126 616 1126 Q862 1126 1001.5 969.5 Q1141 813 1141 553 Q1141 290 1000 134.5 Q859 -21 605 -21 Z "/>
        <glyph glyph-name="odieresis" unicode="&#xf6;" horiz-adv-x="1222"
               d="M302 1248 L302 1502 L497 1502 L497 1248 L302 1248 Z M723 1248 L723 1502 L919 1502 L919 1248 L723 1248 Z M612 178 Q745 178 812 275 Q879 372 879 553 Q879 736 812 832 Q745 928 610 928 Q477 928 409.5 831.5 Q342 735 342 552 Q342 372 410 275 Q478 178 612 178 Z M605 -21 Q361 -21 221 137 Q81 295 81 553 Q81 819 221 972.5 Q361 1126 616 1126 Q862 1126 1001.5 969.5 Q1141 813 1141 553 Q1141 290 1000 134.5 Q859 -21 605 -21 Z "/>
        <glyph glyph-name="divide" unicode="&#xf7;" horiz-adv-x="1456"
               d="M590 21 L590 281 L865 281 L865 21 L590 21 Z M178 489 L178 676 L1274 676 L1274 489 L178 489 Z M590 875 L590 1134 L874 1134 L874 875 L590 875 Z "/>
        <glyph glyph-name="oslash" unicode="&#xf8;" horiz-adv-x="1193"
               d="M302 -215 L240 -181 L336 41 Q207 107 139 240 Q71 373 71 550 Q71 810 209.5 964.5 Q348 1119 601 1119 Q707 1119 800 1089 L894 1269 L963 1246 L870 1059 Q995 993 1060 861.5 Q1125 730 1125 552 Q1125 296 987 140 Q849 -16 595 -16 Q488 -16 403 14 L302 -215 Z M420 231 L721 913 Q668 940 598 940 Q464 940 391 838.5 Q318 737 318 551 Q318 330 420 231 Z M599 163 Q734 163 806 265 Q878 367 878 551 Q878 769 783 867 L482 188 Q532 163 599 163 Z "/>
        <glyph glyph-name="ugrave" unicode="&#xf9;" horiz-adv-x="1163"
               d="M500 1248 L169 1631 L475 1631 L663 1248 L500 1248 Z M926 86.5 Q795 -21 581 -21 Q367 -21 236.5 86 Q106 193 106 400 L106 1099 L369 1099 L369 410 Q369 287 420.5 232 Q472 177 584 177 Q694 177 744.5 231.5 Q795 286 795 410 L795 1099 L1057 1099 L1057 400 Q1057 194 926 86.5 Z "/>
        <glyph glyph-name="uacute" unicode="&#xfa;" horiz-adv-x="1163"
               d="M504 1248 L675 1631 L974 1631 L659 1248 L504 1248 Z M926 86.5 Q795 -21 581 -21 Q367 -21 236.5 86 Q106 193 106 400 L106 1099 L369 1099 L369 410 Q369 287 420.5 232 Q472 177 584 177 Q694 177 744.5 231.5 Q795 286 795 410 L795 1099 L1057 1099 L1057 400 Q1057 194 926 86.5 Z "/>
        <glyph glyph-name="ucircumflex" unicode="&#xfb;" horiz-adv-x="1163"
               d="M227 1248 L477 1631 L685 1631 L936 1248 L752 1248 L578 1466 L406 1248 L227 1248 Z M926 86.5 Q795 -21 581 -21 Q367 -21 236.5 86 Q106 193 106 400 L106 1099 L369 1099 L369 410 Q369 287 420.5 232 Q472 177 584 177 Q694 177 744.5 231.5 Q795 286 795 410 L795 1099 L1057 1099 L1057 400 Q1057 194 926 86.5 Z "/>
        <glyph glyph-name="udieresis" unicode="&#xfc;" horiz-adv-x="1163"
               d="M273 1248 L273 1502 L468 1502 L468 1248 L273 1248 Z M694 1248 L694 1502 L890 1502 L890 1248 L694 1248 Z M926 86.5 Q795 -21 581 -21 Q367 -21 236.5 86 Q106 193 106 400 L106 1099 L369 1099 L369 410 Q369 287 420.5 232 Q472 177 584 177 Q694 177 744.5 231.5 Q795 286 795 410 L795 1099 L1057 1099 L1057 400 Q1057 194 926 86.5 Z "/>
        <glyph glyph-name="yacute" unicode="&#xfd;" horiz-adv-x="1116"
               d="M474 1248 L645 1631 L944 1631 L629 1248 L474 1248 Z M191 -463 Q127 -463 55 -455 L42 -252 Q88 -257 159 -257 Q250 -257 305 -221 Q360 -185 396 -93 Q400 -83 436 20 L-6 1099 L274 1099 L563 302 Q595 421 706.5 744 Q818 1067 829 1099 L1109 1099 Q652 -109 648 -119 Q577 -304 469 -383.5 Q361 -463 191 -463 Z "/>
        <glyph glyph-name="thorn" unicode="&#xfe;" horiz-adv-x="1288"
               d="M160 -431 L160 1205 L155 1498 L385 1498 L385 938 Q412 977 501.5 1024.5 Q591 1072 711 1072 Q832 1072 927.5 1029 Q1023 986 1083 910.5 Q1143 835 1174.5 736 Q1206 637 1206 521 Q1206 432 1188 353 Q1170 274 1131.5 205.5 Q1093 137 1037.5 87.5 Q982 38 902 9.5 Q822 -19 726 -19 Q654 -19 589.5 -2.5 Q525 14 484 38 Q443 62 418.5 82.5 Q394 103 385 118 L385 -431 L160 -431 Z M694 176 Q769 176 824.5 204.5 Q880 233 912 283.5 Q944 334 959.5 396 Q975 458 975 531 Q975 604 959.5 665.5 Q944 727 912.5 777.5 Q881 828 825.5 856.5 Q770 885 696 885 Q540 885 462 788.5 Q384 692 384 531 Q384 368 460 272 Q536 176 694 176 Z "/>
        <glyph glyph-name="ydieresis" unicode="&#xff;" horiz-adv-x="1116"
               d="M243 1248 L243 1502 L438 1502 L438 1248 L243 1248 Z M664 1248 L664 1502 L860 1502 L860 1248 L664 1248 Z M191 -463 Q127 -463 55 -455 L42 -252 Q88 -257 159 -257 Q250 -257 305 -221 Q360 -185 396 -93 Q400 -83 436 20 L-6 1099 L274 1099 L563 302 Q595 421 706.5 744 Q818 1067 829 1099 L1109 1099 Q652 -109 648 -119 Q577 -304 469 -383.5 Q361 -463 191 -463 Z "/>
        <glyph glyph-name="Amacron" unicode="&#x100;" horiz-adv-x="1359"
               d="M336 1608 L336 1761 L1022 1761 L1022 1608 L336 1608 Z M-3 0 L536 1466 L831 1466 L1362 0 L1084 0 L939 414 L426 414 L280 0 L-3 0 Z M494 616 L870 616 Q690 1193 685 1212 L494 616 Z "/>
        <glyph glyph-name="amacron" unicode="&#x101;" horiz-adv-x="1142"
               d="M203 1248 L203 1401 L889 1401 L889 1248 L203 1248 Z M423 -21 Q270 -21 175.5 63.5 Q81 148 81 307 Q81 478 193 560.5 Q305 643 531 665 Q562 669 598 673 Q634 677 679 681 Q724 685 750 688 L750 746 Q750 846 704 891.5 Q658 937 564 937 Q430 937 233 862 Q232 865 200 953 Q168 1041 167 1043 Q361 1126 587 1126 Q809 1126 910 1029.5 Q1011 933 1011 717 L1011 0 L817 0 Q816 4 795 67 Q774 130 774 134 Q692 54 613.5 16.5 Q535 -21 423 -21 Z M494 165 Q585 165 652.5 208.5 Q720 252 749 314 L749 526 Q746 526 696.5 522 Q647 518 643 518 Q484 504 410 458 Q336 412 336 310 Q336 240 377 202.5 Q418 165 494 165 Z "/>
        <glyph glyph-name="Abreve" unicode="&#x102;" horiz-adv-x="1359"
               d="M891.5 1672 Q812 1608 680 1608 Q548 1608 468.5 1672 Q389 1736 389 1860 L556 1860 Q556 1809 585.5 1786.5 Q615 1764 680 1764 Q745 1764 774.5 1786.5 Q804 1809 804 1860 L971 1860 Q971 1736 891.5 1672 Z M-3 0 L536 1466 L831 1466 L1362 0 L1084 0 L939 414 L426 414 L280 0 L-3 0 Z M494 616 L870 616 Q690 1193 685 1212 L494 616 Z "/>
        <glyph glyph-name="abreve" unicode="&#x103;" horiz-adv-x="1142"
               d="M757.5 1312 Q678 1248 546 1248 Q414 1248 334.5 1312 Q255 1376 255 1500 L422 1500 Q422 1449 451.5 1426.5 Q481 1404 546 1404 Q611 1404 640.5 1426.5 Q670 1449 670 1500 L837 1500 Q837 1376 757.5 1312 Z M423 -21 Q270 -21 175.5 63.5 Q81 148 81 307 Q81 478 193 560.5 Q305 643 531 665 Q562 669 598 673 Q634 677 679 681 Q724 685 750 688 L750 746 Q750 846 704 891.5 Q658 937 564 937 Q430 937 233 862 Q232 865 200 953 Q168 1041 167 1043 Q361 1126 587 1126 Q809 1126 910 1029.5 Q1011 933 1011 717 L1011 0 L817 0 Q816 4 795 67 Q774 130 774 134 Q692 54 613.5 16.5 Q535 -21 423 -21 Z M494 165 Q585 165 652.5 208.5 Q720 252 749 314 L749 526 Q746 526 696.5 522 Q647 518 643 518 Q484 504 410 458 Q336 412 336 310 Q336 240 377 202.5 Q418 165 494 165 Z "/>
        <glyph glyph-name="Aogonek" unicode="&#x104;" horiz-adv-x="1359"
               d="M1172 -412 Q1082 -412 1023.5 -368 Q965 -324 965 -240 Q965 -94 1156 14 L1264 14 Q1140 -78 1140 -185 Q1140 -219 1162.5 -245.5 Q1185 -272 1222 -272 Q1236 -272 1252.5 -269.5 Q1269 -267 1282.5 -263.5 Q1296 -260 1311 -255 Q1326 -250 1335 -246.5 Q1344 -243 1353.5 -239 Q1363 -235 1364 -235 L1364 -375 Q1269 -412 1172 -412 Z M-3 0 L536 1466 L831 1466 L1362 0 L1084 0 L939 414 L426 414 L280 0 L-3 0 Z M494 616 L870 616 Q690 1193 685 1212 L494 616 Z "/>
        <glyph glyph-name="aogonek" unicode="&#x105;" horiz-adv-x="1142"
               d="M862 -423 Q772 -423 713.5 -379 Q655 -335 655 -251 Q655 -105 846 3 L954 3 Q830 -89 830 -196 Q830 -230 852.5 -256.5 Q875 -283 912 -283 Q926 -283 942.5 -280.5 Q959 -278 972.5 -274.5 Q986 -271 1001 -266 Q1016 -261 1025 -257.5 Q1034 -254 1043.5 -250 Q1053 -246 1054 -246 L1054 -386 Q959 -423 862 -423 Z M423 -21 Q270 -21 175.5 63.5 Q81 148 81 307 Q81 478 193 560.5 Q305 643 531 665 Q562 669 598 673 Q634 677 679 681 Q724 685 750 688 L750 746 Q750 846 704 891.5 Q658 937 564 937 Q430 937 233 862 Q232 865 200 953 Q168 1041 167 1043 Q361 1126 587 1126 Q809 1126 910 1029.5 Q1011 933 1011 717 L1011 0 L817 0 Q816 4 795 67 Q774 130 774 134 Q692 54 613.5 16.5 Q535 -21 423 -21 Z M494 165 Q585 165 652.5 208.5 Q720 252 749 314 L749 526 Q746 526 696.5 522 Q647 518 643 518 Q484 504 410 458 Q336 412 336 310 Q336 240 377 202.5 Q418 165 494 165 Z "/>
        <glyph glyph-name="Cacute" unicode="&#x106;" horiz-adv-x="1301"
               d="M595 1608 L766 1991 L1065 1991 L750 1608 L595 1608 Z M797 -21 Q476 -21 288 181 Q100 383 100 739 Q100 1077 296.5 1281.5 Q493 1486 811 1486 Q1068 1486 1246 1367 L1161 1162 Q990 1267 817 1267 Q615 1267 497.5 1121.5 Q380 976 380 731 Q380 477 493.5 338 Q607 199 817 199 Q1001 199 1182 291 L1218 79 Q1050 -21 797 -21 Z "/>
        <glyph glyph-name="cacute" unicode="&#x107;" horiz-adv-x="1008"
               d="M435 1248 L606 1631 L905 1631 L590 1248 L435 1248 Z M614 -21 Q362 -21 221.5 129 Q81 279 81 558 Q81 828 228.5 977 Q376 1126 617 1126 Q810 1126 943 1043 L881 856 Q745 927 628 927 Q495 927 418.5 832 Q342 737 342 555 Q342 371 417.5 275 Q493 179 631 179 Q775 179 908 264 L933 65 Q864 19 790 -1 Q716 -21 614 -21 Z "/>
        <glyph glyph-name="Ccircumflex" unicode="&#x108;" horiz-adv-x="1301"
               d="M319 1608 L569 1991 L777 1991 L1028 1608 L844 1608 L670 1826 L498 1608 L319 1608 Z M797 -21 Q476 -21 288 181 Q100 383 100 739 Q100 1077 296.5 1281.5 Q493 1486 811 1486 Q1068 1486 1246 1367 L1161 1162 Q990 1267 817 1267 Q615 1267 497.5 1121.5 Q380 976 380 731 Q380 477 493.5 338 Q607 199 817 199 Q1001 199 1182 291 L1218 79 Q1050 -21 797 -21 Z "/>
        <glyph glyph-name="ccircumflex" unicode="&#x109;" horiz-adv-x="1008"
               d="M157 1248 L407 1631 L615 1631 L866 1248 L682 1248 L508 1466 L336 1248 L157 1248 Z M614 -21 Q362 -21 221.5 129 Q81 279 81 558 Q81 828 228.5 977 Q376 1126 617 1126 Q810 1126 943 1043 L881 856 Q745 927 628 927 Q495 927 418.5 832 Q342 737 342 555 Q342 371 417.5 275 Q493 179 631 179 Q775 179 908 264 L933 65 Q864 19 790 -1 Q716 -21 614 -21 Z "/>
        <glyph glyph-name="Cdotaccent" unicode="&#x10a;" horiz-adv-x="1301"
               d="M573 1608 L573 1824 L774 1824 L774 1608 L573 1608 Z M797 -21 Q476 -21 288 181 Q100 383 100 739 Q100 1077 296.5 1281.5 Q493 1486 811 1486 Q1068 1486 1246 1367 L1161 1162 Q990 1267 817 1267 Q615 1267 497.5 1121.5 Q380 976 380 731 Q380 477 493.5 338 Q607 199 817 199 Q1001 199 1182 291 L1218 79 Q1050 -21 797 -21 Z "/>
        <glyph glyph-name="cdotaccent" unicode="&#x10b;" horiz-adv-x="1008"
               d="M411 1248 L411 1464 L612 1464 L612 1248 L411 1248 Z M614 -21 Q362 -21 221.5 129 Q81 279 81 558 Q81 828 228.5 977 Q376 1126 617 1126 Q810 1126 943 1043 L881 856 Q745 927 628 927 Q495 927 418.5 832 Q342 737 342 555 Q342 371 417.5 275 Q493 179 631 179 Q775 179 908 264 L933 65 Q864 19 790 -1 Q716 -21 614 -21 Z "/>
        <glyph glyph-name="Ccaron" unicode="&#x10c;" horiz-adv-x="1301"
               d="M572 1608 L310 1961 L508 1961 L669 1765 L833 1961 L1036 1961 L774 1608 L572 1608 Z M797 -21 Q476 -21 288 181 Q100 383 100 739 Q100 1077 296.5 1281.5 Q493 1486 811 1486 Q1068 1486 1246 1367 L1161 1162 Q990 1267 817 1267 Q615 1267 497.5 1121.5 Q380 976 380 731 Q380 477 493.5 338 Q607 199 817 199 Q1001 199 1182 291 L1218 79 Q1050 -21 797 -21 Z "/>
        <glyph glyph-name="ccaron" unicode="&#x10d;" horiz-adv-x="1008"
               d="M411 1248 L149 1601 L347 1601 L508 1405 L672 1601 L875 1601 L613 1248 L411 1248 Z M614 -21 Q362 -21 221.5 129 Q81 279 81 558 Q81 828 228.5 977 Q376 1126 617 1126 Q810 1126 943 1043 L881 856 Q745 927 628 927 Q495 927 418.5 832 Q342 737 342 555 Q342 371 417.5 275 Q493 179 631 179 Q775 179 908 264 L933 65 Q864 19 790 -1 Q716 -21 614 -21 Z "/>
        <glyph glyph-name="Dcaron" unicode="&#x10e;" horiz-adv-x="1514"
               d="M686 1608 L424 1961 L622 1961 L783 1765 L947 1961 L1150 1961 L888 1608 L686 1608 Z M430 217 L624 217 Q875 217 1006 348.5 Q1137 480 1137 732 Q1137 1002 1002 1124.5 Q867 1247 595 1247 L430 1247 L430 217 Z M159 0 L159 1465 L583 1465 Q775 1465 927 1421 Q1079 1377 1188.5 1288.5 Q1298 1200 1356.5 1060.5 Q1415 921 1415 738 Q1415 383 1201 191.5 Q987 0 608 0 L159 0 Z "/>
        <glyph glyph-name="dcroat" unicode="&#x111;" horiz-adv-x="1235"
               d="M554 -21 Q404 -19 292 58.5 Q180 136 123 266.5 Q66 397 66 564 Q66 680 99 783 Q132 886 192 964.5 Q252 1043 345 1089 Q438 1135 550 1135 Q673 1135 755 1087 Q837 1039 874 967 L874 1209 L589 1209 L589 1351 L874 1351 L874 1497 L1129 1515 L1129 1351 L1235 1351 L1235 1209 L1129 1209 L1129 0 L884 0 L874 155 Q829 75 748 27 Q667 -21 554 -21 Z M596 173 Q724 173 801 265.5 Q878 358 878 554 Q878 748 800 844.5 Q722 941 596 941 Q473 941 393 845 Q313 749 313 555 Q313 365 392.5 269 Q472 173 596 173 Z "/>
        <glyph glyph-name="Emacron" unicode="&#x112;" horiz-adv-x="1152"
               d="M264 1608 L264 1761 L950 1761 L950 1608 L264 1608 Z M158 0 L158 1465 L1046 1465 L1035 1250 L429 1250 L429 872 L1005 872 L1005 657 L429 657 L429 216 L1057 216 L1048 0 L158 0 Z "/>
        <glyph glyph-name="emacron" unicode="&#x113;" horiz-adv-x="1157"
               d="M236 1248 L236 1401 L922 1401 L922 1248 L236 1248 Z M641 -21 Q376 -21 228.5 131.5 Q81 284 81 553 Q81 815 220 970 Q359 1125 599 1126 Q826 1126 951.5 984 Q1077 842 1077 607 Q1077 590 1076.5 552 Q1076 514 1076 496 L345 496 Q349 342 429.5 257.5 Q510 173 651 173 Q831 173 997 267 L1034 81 Q869 -21 641 -21 Z M350 661 L830 661 Q830 795 769 867 Q708 939 600 939 Q499 939 429.5 869 Q360 799 350 661 Z "/>
        <glyph glyph-name="Edotaccent" unicode="&#x116;" horiz-adv-x="1152"
               d="M507 1608 L507 1824 L708 1824 L708 1608 L507 1608 Z M158 0 L158 1465 L1046 1465 L1035 1250 L429 1250 L429 872 L1005 872 L1005 657 L429 657 L429 216 L1057 216 L1048 0 L158 0 Z "/>
        <glyph glyph-name="edotaccent" unicode="&#x117;" horiz-adv-x="1157"
               d="M479 1248 L479 1464 L680 1464 L680 1248 L479 1248 Z M641 -21 Q376 -21 228.5 131.5 Q81 284 81 553 Q81 815 220 970 Q359 1125 599 1126 Q826 1126 951.5 984 Q1077 842 1077 607 Q1077 590 1076.5 552 Q1076 514 1076 496 L345 496 Q349 342 429.5 257.5 Q510 173 651 173 Q831 173 997 267 L1034 81 Q869 -21 641 -21 Z M350 661 L830 661 Q830 795 769 867 Q708 939 600 939 Q499 939 429.5 869 Q360 799 350 661 Z "/>
        <glyph glyph-name="Eogonek" unicode="&#x118;" horiz-adv-x="1152"
               d="M623 -412 Q533 -412 474.5 -368 Q416 -324 416 -240 Q416 -94 607 14 L715 14 Q591 -78 591 -185 Q591 -219 613.5 -245.5 Q636 -272 673 -272 Q687 -272 703.5 -269.5 Q720 -267 733.5 -263.5 Q747 -260 762 -255 Q777 -250 786 -246.5 Q795 -243 804.5 -239 Q814 -235 815 -235 L815 -375 Q720 -412 623 -412 Z M158 0 L158 1465 L1046 1465 L1035 1250 L429 1250 L429 872 L1005 872 L1005 657 L429 657 L429 216 L1057 216 L1048 0 L158 0 Z "/>
        <glyph glyph-name="eogonek" unicode="&#x119;" horiz-adv-x="1157"
               d="M703 -433 Q613 -433 554.5 -389 Q496 -345 496 -261 Q496 -115 687 -7 L795 -7 Q671 -99 671 -206 Q671 -240 693.5 -266.5 Q716 -293 753 -293 Q767 -293 783.5 -290.5 Q800 -288 813.5 -284.5 Q827 -281 842 -276 Q857 -271 866 -267.5 Q875 -264 884.5 -260 Q894 -256 895 -256 L895 -396 Q800 -433 703 -433 Z M641 -21 Q376 -21 228.5 131.5 Q81 284 81 553 Q81 815 220 970 Q359 1125 599 1126 Q826 1126 951.5 984 Q1077 842 1077 607 Q1077 590 1076.5 552 Q1076 514 1076 496 L345 496 Q349 342 429.5 257.5 Q510 173 651 173 Q831 173 997 267 L1034 81 Q869 -21 641 -21 Z M350 661 L830 661 Q830 795 769 867 Q708 939 600 939 Q499 939 429.5 869 Q360 799 350 661 Z "/>
        <glyph glyph-name="Ecaron" unicode="&#x11a;" horiz-adv-x="1152"
               d="M506 1608 L244 1961 L442 1961 L603 1765 L767 1961 L970 1961 L708 1608 L506 1608 Z M158 0 L158 1465 L1046 1465 L1035 1250 L429 1250 L429 872 L1005 872 L1005 657 L429 657 L429 216 L1057 216 L1048 0 L158 0 Z "/>
        <glyph glyph-name="ecaron" unicode="&#x11b;" horiz-adv-x="1157"
               d="M478 1248 L216 1601 L414 1601 L575 1405 L739 1601 L942 1601 L680 1248 L478 1248 Z M641 -21 Q376 -21 228.5 131.5 Q81 284 81 553 Q81 815 220 970 Q359 1125 599 1126 Q826 1126 951.5 984 Q1077 842 1077 607 Q1077 590 1076.5 552 Q1076 514 1076 496 L345 496 Q349 342 429.5 257.5 Q510 173 651 173 Q831 173 997 267 L1034 81 Q869 -21 641 -21 Z M350 661 L830 661 Q830 795 769 867 Q708 939 600 939 Q499 939 429.5 869 Q360 799 350 661 Z "/>
        <glyph glyph-name="Gcircumflex" unicode="&#x11c;" horiz-adv-x="1466"
               d="M362 1608 L612 1991 L820 1991 L1071 1608 L887 1608 L713 1826 L541 1608 L362 1608 Z M812 -21 Q477 -21 288.5 181 Q100 383 100 734 Q100 957 188 1126.5 Q276 1296 447 1391 Q618 1486 851 1486 Q1118 1486 1309 1371 L1221 1169 Q1039 1267 856 1267 Q634 1267 507 1123 Q380 979 380 731 Q380 485 493 342 Q606 199 824 199 Q964 199 1078 243 L1078 583 L771 583 L773 796 L1333 796 L1333 89 Q1197 33 1075.5 6 Q954 -21 812 -21 Z "/>
        <glyph glyph-name="gcircumflex" unicode="&#x11d;" horiz-adv-x="1267"
               d="M254 1248 L504 1631 L712 1631 L963 1248 L779 1248 L605 1466 L433 1248 L254 1248 Z M353 -492 L338 -280 L471 -280 Q702 -280 794 -218.5 Q886 -157 886 7 Q886 74 880 152 Q854 116 830.5 92.5 Q807 69 771.5 46 Q736 23 686.5 11.5 Q637 0 574 0 Q356 0 215.5 157 Q75 314 75 562 Q75 694 114 802.5 Q153 911 220 981 Q287 1051 374.5 1088.5 Q462 1126 561 1126 Q782 1126 890 965 L908 1099 L1142 1099 L1142 78 Q1142 -4 1134 -69.5 Q1126 -135 1106 -195.5 Q1086 -256 1053.5 -301 Q1021 -346 972 -383 Q923 -420 856.5 -443.5 Q790 -467 702 -479.5 Q614 -492 504 -492 L353 -492 Z M616 183 Q887 183 890 546 L890 584 Q888 747 822 836 Q756 925 629 926 Q485 926 411 827.5 Q337 729 337 562 Q337 401 411.5 292 Q486 183 616 183 Z "/>
        <glyph glyph-name="Gbreve" unicode="&#x11e;" horiz-adv-x="1466"
               d="M927.5 1672 Q848 1608 716 1608 Q584 1608 504.5 1672 Q425 1736 425 1860 L592 1860 Q592 1809 621.5 1786.5 Q651 1764 716 1764 Q781 1764 810.5 1786.5 Q840 1809 840 1860 L1007 1860 Q1007 1736 927.5 1672 Z M812 -21 Q477 -21 288.5 181 Q100 383 100 734 Q100 957 188 1126.5 Q276 1296 447 1391 Q618 1486 851 1486 Q1118 1486 1309 1371 L1221 1169 Q1039 1267 856 1267 Q634 1267 507 1123 Q380 979 380 731 Q380 485 493 342 Q606 199 824 199 Q964 199 1078 243 L1078 583 L771 583 L773 796 L1333 796 L1333 89 Q1197 33 1075.5 6 Q954 -21 812 -21 Z "/>
        <glyph glyph-name="gbreve" unicode="&#x11f;" horiz-adv-x="1267"
               d="M819.5 1312 Q740 1248 608 1248 Q476 1248 396.5 1312 Q317 1376 317 1500 L484 1500 Q484 1449 513.5 1426.5 Q543 1404 608 1404 Q673 1404 702.5 1426.5 Q732 1449 732 1500 L899 1500 Q899 1376 819.5 1312 Z M353 -492 L338 -280 L471 -280 Q702 -280 794 -218.5 Q886 -157 886 7 Q886 74 880 152 Q854 116 830.5 92.5 Q807 69 771.5 46 Q736 23 686.5 11.5 Q637 0 574 0 Q356 0 215.5 157 Q75 314 75 562 Q75 694 114 802.5 Q153 911 220 981 Q287 1051 374.5 1088.5 Q462 1126 561 1126 Q782 1126 890 965 L908 1099 L1142 1099 L1142 78 Q1142 -4 1134 -69.5 Q1126 -135 1106 -195.5 Q1086 -256 1053.5 -301 Q1021 -346 972 -383 Q923 -420 856.5 -443.5 Q790 -467 702 -479.5 Q614 -492 504 -492 L353 -492 Z M616 183 Q887 183 890 546 L890 584 Q888 747 822 836 Q756 925 629 926 Q485 926 411 827.5 Q337 729 337 562 Q337 401 411.5 292 Q486 183 616 183 Z "/>
        <glyph glyph-name="Gdotaccent" unicode="&#x120;" horiz-adv-x="1466"
               d="M616 1608 L616 1824 L817 1824 L817 1608 L616 1608 Z M812 -21 Q477 -21 288.5 181 Q100 383 100 734 Q100 957 188 1126.5 Q276 1296 447 1391 Q618 1486 851 1486 Q1118 1486 1309 1371 L1221 1169 Q1039 1267 856 1267 Q634 1267 507 1123 Q380 979 380 731 Q380 485 493 342 Q606 199 824 199 Q964 199 1078 243 L1078 583 L771 583 L773 796 L1333 796 L1333 89 Q1197 33 1075.5 6 Q954 -21 812 -21 Z "/>
        <glyph glyph-name="gdotaccent" unicode="&#x121;" horiz-adv-x="1267"
               d="M508 1248 L508 1464 L709 1464 L709 1248 L508 1248 Z M353 -492 L338 -280 L471 -280 Q702 -280 794 -218.5 Q886 -157 886 7 Q886 74 880 152 Q854 116 830.5 92.5 Q807 69 771.5 46 Q736 23 686.5 11.5 Q637 0 574 0 Q356 0 215.5 157 Q75 314 75 562 Q75 694 114 802.5 Q153 911 220 981 Q287 1051 374.5 1088.5 Q462 1126 561 1126 Q782 1126 890 965 L908 1099 L1142 1099 L1142 78 Q1142 -4 1134 -69.5 Q1126 -135 1106 -195.5 Q1086 -256 1053.5 -301 Q1021 -346 972 -383 Q923 -420 856.5 -443.5 Q790 -467 702 -479.5 Q614 -492 504 -492 L353 -492 Z M616 183 Q887 183 890 546 L890 584 Q888 747 822 836 Q756 925 629 926 Q485 926 411 827.5 Q337 729 337 562 Q337 401 411.5 292 Q486 183 616 183 Z "/>
        <glyph glyph-name="uni0122" unicode="&#x122;" horiz-adv-x="1466"
               d="M576 -641 L671 -143 L856 -143 L712 -641 L576 -641 Z M812 -21 Q477 -21 288.5 181 Q100 383 100 734 Q100 957 188 1126.5 Q276 1296 447 1391 Q618 1486 851 1486 Q1118 1486 1309 1371 L1221 1169 Q1039 1267 856 1267 Q634 1267 507 1123 Q380 979 380 731 Q380 485 493 342 Q606 199 824 199 Q964 199 1078 243 L1078 583 L771 583 L773 796 L1333 796 L1333 89 Q1197 33 1075.5 6 Q954 -21 812 -21 Z "/>
        <glyph glyph-name="uni0123" unicode="&#x123;" horiz-adv-x="1268"
               d="M353 -492 L338 -280 L471 -280 Q702 -280 794 -218.5 Q886 -157 886 7 Q886 74 880 152 Q854 116 830.5 92.5 Q807 69 771.5 46 Q736 23 686.5 11.5 Q637 0 574 0 Q356 0 215.5 157 Q75 314 75 562 Q75 694 114 802.5 Q153 911 220 981 Q287 1051 374.5 1088.5 Q462 1126 561 1126 Q782 1126 890 965 L908 1099 L1142 1099 L1142 78 Q1142 -4 1134 -69.5 Q1126 -135 1106 -195.5 Q1086 -256 1053.5 -301 Q1021 -346 972 -383 Q923 -420 856.5 -443.5 Q790 -467 702 -479.5 Q614 -492 504 -492 L353 -492 Z M616 183 Q887 183 890 546 L890 584 Q888 747 822 836 Q756 925 629 926 Q485 926 411 827.5 Q337 729 337 562 Q337 401 411.5 292 Q486 183 616 183 Z M445 1213 L610 1730 L775 1730 L666 1213 L445 1213 Z "/>
        <glyph glyph-name="Hcircumflex" unicode="&#x124;" horiz-adv-x="1520"
               d="M405 1608 L655 1991 L863 1991 L1114 1608 L930 1608 L756 1826 L584 1608 L405 1608 Z M158 0 L158 1465 L429 1465 L429 866 L1091 866 L1091 1465 L1362 1465 L1362 0 L1091 0 L1091 652 L429 652 L429 0 L158 0 Z "/>
        <glyph glyph-name="hcircumflex" unicode="&#x125;" horiz-adv-x="1253"
               d="M276 1643 L526 2026 L734 2026 L985 1643 L801 1643 L627 1861 L455 1643 L276 1643 Z M133 0 L133 1504 L395 1521 L395 1204 Q395 1181 392 1076.5 Q389 972 389 970 Q520 1126 741 1126 Q925 1126 1026.5 1020.5 Q1128 915 1128 696 L1128 0 L866 0 L866 667 Q866 802 823 865 Q780 928 677 928 Q589 928 521 883.5 Q453 839 419 769 Q395 677 395 529 L395 0 L133 0 Z "/>
        <glyph glyph-name="Hbar" unicode="&#x126;" horiz-adv-x="1491"
               d="M131 0 L131 1178 L45 1178 L45 1310 L131 1310 L131 1458 L398 1458 L398 1310 L1095 1310 L1095 1458 L1363 1458 L1363 1310 L1449 1310 L1449 1178 L1363 1178 L1363 0 L1095 0 L1095 658 L398 658 L398 0 L131 0 Z M398 853 L1095 853 L1095 1178 L398 1178 L398 853 Z "/>
        <glyph glyph-name="hbar" unicode="&#x127;" horiz-adv-x="1189"
               d="M107 0 L107 1225 L5 1225 L5 1361 L107 1361 L107 1496 L361 1515 L361 1361 L659 1361 L659 1225 L361 1225 L361 973 Q500 1120 721 1120 Q803 1120 869 1095.5 Q935 1071 986.5 1019 Q1038 967 1066 878 Q1094 789 1094 667 L1094 0 L840 0 L840 654 Q840 801 803 864 Q766 927 660 927 Q564 927 482 874 Q400 821 361 745 L361 0 L107 0 Z "/>
        <glyph glyph-name="Itilde" unicode="&#x128;" horiz-adv-x="602"
               d="M-43 1608 Q-43 1644 -40.5 1673 Q-38 1702 -27.5 1736 Q-17 1770 1 1793 Q19 1816 51.5 1831.5 Q84 1847 129 1847 Q187 1847 258 1826 Q329 1805 382 1784 Q435 1763 450 1763 Q497 1763 497 1847 L644 1847 Q644 1812 642 1785 Q640 1758 630 1722.5 Q620 1687 603.5 1664 Q587 1641 554.5 1624.5 Q522 1608 478 1608 Q419 1608 300 1653 Q181 1698 151 1698 Q102 1698 101 1608 L-43 1608 Z M165 0 L165 1465 L436 1465 L436 0 L165 0 Z "/>
        <glyph glyph-name="itilde" unicode="&#x129;" horiz-adv-x="548"
               d="M-87 1248 Q-87 1284 -84.5 1313 Q-82 1342 -71.5 1376 Q-61 1410 -43 1433 Q-25 1456 7.5 1471.5 Q40 1487 85 1487 Q143 1487 214 1466 Q285 1445 338 1424 Q391 1403 406 1403 Q453 1403 453 1487 L600 1487 Q600 1452 598 1425 Q596 1398 586 1362.5 Q576 1327 559.5 1304 Q543 1281 510.5 1264.5 Q478 1248 434 1248 Q375 1248 256 1293 Q137 1338 107 1338 Q58 1338 57 1248 L-87 1248 Z M129 0 L129 1098 L384 1098 L384 0 L129 0 Z "/>
        <glyph glyph-name="Imacron" unicode="&#x12a;" horiz-adv-x="602"
               d="M-42 1608 L-42 1761 L644 1761 L644 1608 L-42 1608 Z M165 0 L165 1465 L436 1465 L436 0 L165 0 Z "/>
        <glyph glyph-name="imacron" unicode="&#x12b;" horiz-adv-x="548"
               d="M-86 1248 L-86 1401 L600 1401 L600 1248 L-86 1248 Z M129 0 L129 1098 L384 1098 L384 0 L129 0 Z "/>
        <glyph glyph-name="Ibreve" unicode="&#x12c;" horiz-adv-x="602"
               d="M511.5 1672 Q432 1608 300 1608 Q168 1608 88.5 1672 Q9 1736 9 1860 L176 1860 Q176 1809 205.5 1786.5 Q235 1764 300 1764 Q365 1764 394.5 1786.5 Q424 1809 424 1860 L591 1860 Q591 1736 511.5 1672 Z M165 0 L165 1465 L436 1465 L436 0 L165 0 Z "/>
        <glyph glyph-name="ibreve" unicode="&#x12d;" horiz-adv-x="548"
               d="M467.5 1312 Q388 1248 256 1248 Q124 1248 44.5 1312 Q-35 1376 -35 1500 L132 1500 Q132 1449 161.5 1426.5 Q191 1404 256 1404 Q321 1404 350.5 1426.5 Q380 1449 380 1500 L547 1500 Q547 1376 467.5 1312 Z M129 0 L129 1098 L384 1098 L384 0 L129 0 Z "/>
        <glyph glyph-name="Iogonek" unicode="&#x12e;" horiz-adv-x="602"
               d="M263 -412 Q173 -412 114.5 -368 Q56 -324 56 -240 Q56 -94 247 14 L355 14 Q231 -78 231 -185 Q231 -219 253.5 -245.5 Q276 -272 313 -272 Q327 -272 343.5 -269.5 Q360 -267 373.5 -263.5 Q387 -260 402 -255 Q417 -250 426 -246.5 Q435 -243 444.5 -239 Q454 -235 455 -235 L455 -375 Q360 -412 263 -412 Z M165 0 L165 1465 L436 1465 L436 0 L165 0 Z "/>
        <glyph glyph-name="iogonek" unicode="&#x12f;" horiz-adv-x="541"
               d="M233 -412 Q143 -412 84.5 -368 Q26 -324 26 -240 Q26 -94 217 14 L325 14 Q201 -78 201 -185 Q201 -219 223.5 -245.5 Q246 -272 283 -272 Q297 -272 313.5 -269.5 Q330 -267 343.5 -263.5 Q357 -260 372 -255 Q387 -250 396 -246.5 Q405 -243 414.5 -239 Q424 -235 425 -235 L425 -375 Q330 -412 233 -412 Z M139 0 L139 1099 L401 1099 L401 0 L139 0 Z M139 1259 L139 1483 L402 1483 L402 1259 L139 1259 Z "/>
        <glyph glyph-name="Idotaccent" unicode="&#x130;" horiz-adv-x="602"
               d="M200 1588 L200 1804 L401 1804 L401 1588 L200 1588 Z M165 0 L165 1465 L436 1465 L436 0 L165 0 Z "/>
        <glyph glyph-name="dotlessi" unicode="&#x131;" horiz-adv-x="548"
               d="M129 0 L129 1098 L384 1098 L384 0 L129 0 Z "/>
        <glyph glyph-name="IJ" unicode="&#x132;" horiz-adv-x="1235"
               d="M529 -321 L518 -108 Q566 -116 623 -116 Q734 -116 773 -59 Q812 -2 812 129 L812 1469 L1084 1469 L1084 147 Q1084 21 1061.5 -65.5 Q1039 -152 985.5 -212.5 Q932 -273 843.5 -301 Q755 -329 624 -329 Q569 -329 529 -321 Z M165 0 L165 1465 L436 1465 L436 0 L165 0 Z "/>
        <glyph glyph-name="ij" unicode="&#x133;" horiz-adv-x="1060"
               d="M485 -427 L456 -233 L514 -233 Q564 -233 596 -225.5 Q628 -218 649 -204.5 Q670 -191 680 -163 Q690 -135 693.5 -102.5 Q697 -70 697 -16 L697 1099 L959 1099 L959 26 Q959 -56 952.5 -115 Q946 -174 929 -227.5 Q912 -281 882.5 -316 Q853 -351 807 -377.5 Q761 -404 696 -415.5 Q631 -427 544 -427 L485 -427 Z M697 1259 L697 1483 L959 1483 L959 1259 L697 1259 Z M139 0 L139 1099 L401 1099 L401 0 L139 0 Z M139 1259 L139 1483 L402 1483 L402 1259 L139 1259 Z "/>
        <glyph glyph-name="Jcircumflex" unicode="&#x134;" horiz-adv-x="633"
               d="M-9 1608 L241 1991 L449 1991 L700 1608 L516 1608 L342 1826 L170 1608 L-9 1608 Z M-73 -321 L-84 -108 Q-36 -116 21 -116 Q132 -116 171 -59 Q210 -2 210 129 L210 1469 L482 1469 L482 147 Q482 21 459.5 -65.5 Q437 -152 383.5 -212.5 Q330 -273 241.5 -301 Q153 -329 22 -329 Q-33 -329 -73 -321 Z "/>
        <glyph glyph-name="jcircumflex" unicode="&#x135;" horiz-adv-x="527"
               d="M-75 1248 L175 1631 L383 1631 L634 1248 L450 1248 L276 1466 L104 1248 L-75 1248 Z M-38 -364 L-43 -167 L-8 -167 Q54 -167 89.5 -157 Q125 -147 144 -118 Q163 -89 168 -52 Q173 -15 173 55 L173 1089 L410 1089 L410 98 Q410 -27 393 -108.5 Q376 -190 331.5 -250 Q287 -310 206.5 -337 Q126 -364 2 -364 L-38 -364 Z "/>
        <glyph glyph-name="uni0136" unicode="&#x136;" horiz-adv-x="1348"
               d="M617 -620 L712 -122 L897 -122 L753 -620 L617 -620 Z M157 0 L157 1465 L429 1465 L429 805 Q500 899 719.5 1156 Q939 1413 981 1465 L1302 1465 L748 806 L1337 0 L1019 0 L541 657 L429 563 L429 0 L157 0 Z "/>
        <glyph glyph-name="uni0137" unicode="&#x137;" horiz-adv-x="1173"
               d="M528 -620 L623 -122 L808 -122 L664 -620 L528 -620 Z M133 0 L133 1504 L395 1521 L395 846 L389 624 Q390 625 409.5 644 Q429 663 431 665 Q486 730 550.5 799 Q615 868 713.5 968 Q812 1068 842 1099 L1154 1099 L702 631 L1183 0 L866 0 L504 499 L395 413 L395 0 L133 0 Z "/>
        <glyph glyph-name="kgreenlandic" unicode="&#x138;" horiz-adv-x="1124"
               d="M115 0 L115 1100 L364 1100 L364 634 L793 1100 L1106 1100 L647 596 Q676 569 911 287 Q1146 5 1151 0 L836 0 L428 494 L364 458 L364 0 L115 0 Z "/>
        <glyph glyph-name="Lacute" unicode="&#x139;" horiz-adv-x="1071"
               d="M523 1608 L694 1991 L993 1991 L678 1608 L523 1608 Z M158 0 L158 1465 L429 1465 L429 216 L1042 216 L1034 0 L158 0 Z "/>
        <glyph glyph-name="lacute" unicode="&#x13a;" horiz-adv-x="700"
               d="M342 1643 L513 2026 L812 2026 L497 1643 L342 1643 Z M518 -15 Q405 -15 330.5 11.5 Q256 38 213 96 Q170 154 153 234 Q136 314 136 433 L136 1504 L398 1521 L398 438 Q398 290 433 237.5 Q468 185 569 185 Q619 185 696 196 L703 9 Q702 9 678.5 4 Q655 -1 633.5 -4.5 Q612 -8 579 -11.5 Q546 -15 518 -15 Z "/>
        <glyph glyph-name="uni013B" unicode="&#x13b;" horiz-adv-x="1071"
               d="M470 -620 L565 -122 L750 -122 L606 -620 L470 -620 Z M158 0 L158 1465 L429 1465 L429 216 L1042 216 L1034 0 L158 0 Z "/>
        <glyph glyph-name="uni013C" unicode="&#x13c;" horiz-adv-x="700"
               d="M290 -635 L385 -137 L570 -137 L426 -635 L290 -635 Z M518 -15 Q405 -15 330.5 11.5 Q256 38 213 96 Q170 154 153 234 Q136 314 136 433 L136 1504 L398 1521 L398 438 Q398 290 433 237.5 Q468 185 569 185 Q619 185 696 196 L703 9 Q702 9 678.5 4 Q655 -1 633.5 -4.5 Q612 -8 579 -11.5 Q546 -15 518 -15 Z "/>
        <glyph glyph-name="Ldot" unicode="&#x13f;" horiz-adv-x="1071"
               d="M768 719 L768 917 L936 917 L936 719 L768 719 Z M158 0 L158 1465 L429 1465 L429 216 L1042 216 L1034 0 L158 0 Z "/>
        <glyph glyph-name="Lslash" unicode="&#x141;" horiz-adv-x="1012"
               d="M131 0 L131 589 L-20 500 L-20 685 L131 774 L131 1463 L399 1463 L399 932 L722 1116 L722 930 L399 746 L399 202 L1018 202 L1003 0 L131 0 Z "/>
        <glyph glyph-name="lslash" unicode="&#x142;" horiz-adv-x="679"
               d="M516 -15 Q437 -15 378 -3 Q319 9 277.5 36.5 Q236 64 209.5 100 Q183 136 168 192.5 Q153 249 147.5 311 Q142 373 142 459 L142 692 L30 625 L30 808 L142 876 L142 1495 L397 1515 L397 1028 L555 1125 L555 943 L397 846 L397 438 Q397 382 398.5 350.5 Q400 319 405 285 Q410 251 420.5 235 Q431 219 449.5 204.5 Q468 190 495 185.5 Q522 181 562 181 Q581 181 665 188 L681 -1 Q590 -15 516 -15 Z "/>
        <glyph glyph-name="Nacute" unicode="&#x143;" horiz-adv-x="1554"
               d="M700 1608 L871 1991 L1170 1991 L855 1608 L700 1608 Z M158 0 L158 1465 L446 1465 Q524 1343 763 973 Q1002 603 1054 523 Q1069 500 1105.5 445.5 Q1142 391 1157 368 Q1150 711 1150 724 L1150 1465 L1397 1465 L1397 0 L1105 0 L444 1030 L396 1109 Q404 845 404 738 L404 0 L158 0 Z "/>
        <glyph glyph-name="nacute" unicode="&#x144;" horiz-adv-x="1254"
               d="M553 1248 L724 1631 L1023 1631 L708 1248 L553 1248 Z M133 0 L133 1099 L344 1099 L373 960 Q541 1126 746 1126 Q938 1126 1033.5 1015.5 Q1129 905 1129 695 L1129 0 L866 0 L866 663 Q865 796 823 862 Q781 928 672 928 Q587 928 516.5 884.5 Q446 841 414 775 Q395 697 395 535 L395 0 L133 0 Z "/>
        <glyph glyph-name="uni0145" unicode="&#x145;" horiz-adv-x="1554"
               d="M648 -620 L743 -122 L928 -122 L784 -620 L648 -620 Z M158 0 L158 1465 L446 1465 Q524 1343 763 973 Q1002 603 1054 523 Q1069 500 1105.5 445.5 Q1142 391 1157 368 Q1150 711 1150 724 L1150 1465 L1397 1465 L1397 0 L1105 0 L444 1030 L396 1109 Q404 845 404 738 L404 0 L158 0 Z "/>
        <glyph glyph-name="uni0146" unicode="&#x146;" horiz-adv-x="1254"
               d="M501 -620 L596 -122 L781 -122 L637 -620 L501 -620 Z M133 0 L133 1099 L344 1099 L373 960 Q541 1126 746 1126 Q938 1126 1033.5 1015.5 Q1129 905 1129 695 L1129 0 L866 0 L866 663 Q865 796 823 862 Q781 928 672 928 Q587 928 516.5 884.5 Q446 841 414 775 Q395 697 395 535 L395 0 L133 0 Z "/>
        <glyph glyph-name="Ncaron" unicode="&#x147;" horiz-adv-x="1554"
               d="M676 1608 L414 1961 L612 1961 L773 1765 L937 1961 L1140 1961 L878 1608 L676 1608 Z M158 0 L158 1465 L446 1465 Q524 1343 763 973 Q1002 603 1054 523 Q1069 500 1105.5 445.5 Q1142 391 1157 368 Q1150 711 1150 724 L1150 1465 L1397 1465 L1397 0 L1105 0 L444 1030 L396 1109 Q404 845 404 738 L404 0 L158 0 Z "/>
        <glyph glyph-name="ncaron" unicode="&#x148;" horiz-adv-x="1254"
               d="M530 1248 L268 1601 L466 1601 L627 1405 L791 1601 L994 1601 L732 1248 L530 1248 Z M133 0 L133 1099 L344 1099 L373 960 Q541 1126 746 1126 Q938 1126 1033.5 1015.5 Q1129 905 1129 695 L1129 0 L866 0 L866 663 Q865 796 823 862 Q781 928 672 928 Q587 928 516.5 884.5 Q446 841 414 775 Q395 697 395 535 L395 0 L133 0 Z "/>
        <glyph glyph-name="Omacron" unicode="&#x14c;" horiz-adv-x="1626"
               d="M470 1608 L470 1761 L1156 1761 L1156 1608 L470 1608 Z M492 339 Q601 200 814 200 Q1027 200 1135.5 338.5 Q1244 477 1244 730 Q1244 986 1135.5 1127 Q1027 1268 815 1268 Q602 1268 492.5 1126.5 Q383 985 383 730 Q383 478 492 339 Z M813 -21 Q482 -21 290.5 179.5 Q99 380 99 733 Q99 1088 291 1287 Q483 1486 814 1486 Q1145 1486 1336 1286.5 Q1527 1087 1527 732 Q1527 381 1335 180 Q1143 -21 813 -21 Z "/>
        <glyph glyph-name="omacron" unicode="&#x14d;" horiz-adv-x="1222"
               d="M268 1248 L268 1401 L954 1401 L954 1248 L268 1248 Z M612 178 Q745 178 812 275 Q879 372 879 553 Q879 736 812 832 Q745 928 610 928 Q477 928 409.5 831.5 Q342 735 342 552 Q342 372 410 275 Q478 178 612 178 Z M605 -21 Q361 -21 221 137 Q81 295 81 553 Q81 819 221 972.5 Q361 1126 616 1126 Q862 1126 1001.5 969.5 Q1141 813 1141 553 Q1141 290 1000 134.5 Q859 -21 605 -21 Z "/>
        <glyph glyph-name="Obreve" unicode="&#x14e;" horiz-adv-x="1626"
               d="M1024.5 1672 Q945 1608 813 1608 Q681 1608 601.5 1672 Q522 1736 522 1860 L689 1860 Q689 1809 718.5 1786.5 Q748 1764 813 1764 Q878 1764 907.5 1786.5 Q937 1809 937 1860 L1104 1860 Q1104 1736 1024.5 1672 Z M492 339 Q601 200 814 200 Q1027 200 1135.5 338.5 Q1244 477 1244 730 Q1244 986 1135.5 1127 Q1027 1268 815 1268 Q602 1268 492.5 1126.5 Q383 985 383 730 Q383 478 492 339 Z M813 -21 Q482 -21 290.5 179.5 Q99 380 99 733 Q99 1088 291 1287 Q483 1486 814 1486 Q1145 1486 1336 1286.5 Q1527 1087 1527 732 Q1527 381 1335 180 Q1143 -21 813 -21 Z "/>
        <glyph glyph-name="obreve" unicode="&#x14f;" horiz-adv-x="1222"
               d="M822.5 1312 Q743 1248 611 1248 Q479 1248 399.5 1312 Q320 1376 320 1500 L487 1500 Q487 1449 516.5 1426.5 Q546 1404 611 1404 Q676 1404 705.5 1426.5 Q735 1449 735 1500 L902 1500 Q902 1376 822.5 1312 Z M612 178 Q745 178 812 275 Q879 372 879 553 Q879 736 812 832 Q745 928 610 928 Q477 928 409.5 831.5 Q342 735 342 552 Q342 372 410 275 Q478 178 612 178 Z M605 -21 Q361 -21 221 137 Q81 295 81 553 Q81 819 221 972.5 Q361 1126 616 1126 Q862 1126 1001.5 969.5 Q1141 813 1141 553 Q1141 290 1000 134.5 Q859 -21 605 -21 Z "/>
        <glyph glyph-name="Ohungarumlaut" unicode="&#x150;" horiz-adv-x="1626"
               d="M590 1608 L836 1969 L1062 1969 L724 1608 L590 1608 Z M901 1608 L1148 1969 L1373 1969 L1035 1608 L901 1608 Z M492 339 Q601 200 814 200 Q1027 200 1135.5 338.5 Q1244 477 1244 730 Q1244 986 1135.5 1127 Q1027 1268 815 1268 Q602 1268 492.5 1126.5 Q383 985 383 730 Q383 478 492 339 Z M813 -21 Q482 -21 290.5 179.5 Q99 380 99 733 Q99 1088 291 1287 Q483 1486 814 1486 Q1145 1486 1336 1286.5 Q1527 1087 1527 732 Q1527 381 1335 180 Q1143 -21 813 -21 Z "/>
        <glyph glyph-name="ohungarumlaut" unicode="&#x151;" horiz-adv-x="1222"
               d="M388 1248 L634 1609 L860 1609 L522 1248 L388 1248 Z M699 1248 L946 1609 L1171 1609 L833 1248 L699 1248 Z M612 178 Q745 178 812 275 Q879 372 879 553 Q879 736 812 832 Q745 928 610 928 Q477 928 409.5 831.5 Q342 735 342 552 Q342 372 410 275 Q478 178 612 178 Z M605 -21 Q361 -21 221 137 Q81 295 81 553 Q81 819 221 972.5 Q361 1126 616 1126 Q862 1126 1001.5 969.5 Q1141 813 1141 553 Q1141 290 1000 134.5 Q859 -21 605 -21 Z "/>
        <glyph glyph-name="OE" unicode="&#x152;" horiz-adv-x="2176"
               d="M815 -19 Q602 -19 434 78 Q266 175 173.5 347.5 Q81 520 81 738 Q82 952 177 1124.5 Q272 1297 438 1393.5 Q604 1490 809 1490 Q1012 1490 1168 1384 L1168 1461 L2101 1461 L2083 1256 L1425 1256 L1425 863 L2052 863 L2052 661 L1425 661 L1425 209 L2130 209 L2113 4 L1168 4 L1168 85 Q1101 38 1007.5 9.5 Q914 -19 815 -19 Z M813 188 Q926 188 1019.5 221.5 Q1113 255 1168 305 L1168 1153 Q1038 1283 811 1283 Q722 1283 646 1253.5 Q570 1224 515 1172.5 Q460 1121 421 1051.5 Q382 982 363 901.5 Q344 821 343 735 Q343 625 372 528 Q401 431 457.5 354.5 Q514 278 605.5 233 Q697 188 813 188 Z "/>
        <glyph glyph-name="oe" unicode="&#x153;" horiz-adv-x="1880"
               d="M595 -21 Q465 -21 362.5 24.5 Q260 70 197 149 Q134 228 101.5 330.5 Q69 433 69 552 Q69 675 101.5 777 Q134 879 197.5 956.5 Q261 1034 363 1077 Q465 1120 596 1120 Q733 1120 833 1069 Q933 1018 992 927 Q1104 1117 1380 1120 Q1472 1120 1546.5 1093 Q1621 1066 1671.5 1018.5 Q1722 971 1756 904 Q1790 837 1805.5 758 Q1821 679 1821 587 Q1821 576 1820.5 555.5 Q1820 535 1819.5 518.5 Q1819 502 1819 500 L1110 500 Q1113 337 1193.5 247.5 Q1274 158 1417 158 Q1587 158 1722 261 L1794 106 Q1715 45 1625.5 12 Q1536 -21 1410 -21 Q1106 -21 990 177 Q935 86 833 32.5 Q731 -21 595 -21 Z M391.5 263.5 Q467 157 595 157 Q723 157 799 263 Q875 369 875 552 Q875 740 800.5 841 Q726 942 594 942 Q464 942 390 838.5 Q316 735 316 551 Q316 370 391.5 263.5 Z M1113 646 L1588 646 L1588 656 Q1587 942 1364 942 Q1319 942 1279 926.5 Q1239 911 1203 878.5 Q1167 846 1143 786 Q1119 726 1113 646 Z "/>
        <glyph glyph-name="Racute" unicode="&#x154;" horiz-adv-x="1394"
               d="M671 1608 L842 1991 L1141 1991 L826 1608 L671 1608 Z M151 0 L151 1469 L694 1469 Q805 1469 886.5 1459 Q968 1449 1041.5 1422.5 Q1115 1396 1160.5 1351 Q1206 1306 1232.5 1233.5 Q1259 1161 1259 1062 Q1259 770 994 678 Q1048 617 1128 452 L1346 0 L1050 0 L879 383 Q782 589 759 627 Q742 628 646 628 L419 630 L419 0 L151 0 Z M718 824 Q874 824 942 879.5 Q1010 935 1010 1058 Q1010 1166 941 1217 Q872 1268 730 1268 L419 1268 L419 825 Q434 825 568 824.5 Q702 824 718 824 Z "/>
        <glyph glyph-name="racute" unicode="&#x155;" horiz-adv-x="798"
               d="M375 1248 L546 1631 L845 1631 L530 1248 L375 1248 Z M134 0 L134 1099 L354 1099 L388 931 Q496 1104 701 1104 Q744 1104 771 1100 L767 881 Q727 887 684 887 Q539 887 467.5 810 Q396 733 396 596 L396 0 L134 0 Z "/>
        <glyph glyph-name="uni0156" unicode="&#x156;" horiz-adv-x="1394"
               d="M618 -620 L713 -122 L898 -122 L754 -620 L618 -620 Z M151 0 L151 1469 L694 1469 Q805 1469 886.5 1459 Q968 1449 1041.5 1422.5 Q1115 1396 1160.5 1351 Q1206 1306 1232.5 1233.5 Q1259 1161 1259 1062 Q1259 770 994 678 Q1048 617 1128 452 L1346 0 L1050 0 L879 383 Q782 589 759 627 Q742 628 646 628 L419 630 L419 0 L151 0 Z M718 824 Q874 824 942 879.5 Q1010 935 1010 1058 Q1010 1166 941 1217 Q872 1268 730 1268 L419 1268 L419 825 Q434 825 568 824.5 Q702 824 718 824 Z "/>
        <glyph glyph-name="uni0157" unicode="&#x157;" horiz-adv-x="798"
               d="M322 -620 L417 -122 L602 -122 L458 -620 L322 -620 Z M134 0 L134 1099 L354 1099 L388 931 Q496 1104 701 1104 Q744 1104 771 1100 L767 881 Q727 887 684 887 Q539 887 467.5 810 Q396 733 396 596 L396 0 L134 0 Z "/>
        <glyph glyph-name="Rcaron" unicode="&#x158;" horiz-adv-x="1394"
               d="M648 1608 L386 1961 L584 1961 L745 1765 L909 1961 L1112 1961 L850 1608 L648 1608 Z M151 0 L151 1469 L694 1469 Q805 1469 886.5 1459 Q968 1449 1041.5 1422.5 Q1115 1396 1160.5 1351 Q1206 1306 1232.5 1233.5 Q1259 1161 1259 1062 Q1259 770 994 678 Q1048 617 1128 452 L1346 0 L1050 0 L879 383 Q782 589 759 627 Q742 628 646 628 L419 630 L419 0 L151 0 Z M718 824 Q874 824 942 879.5 Q1010 935 1010 1058 Q1010 1166 941 1217 Q872 1268 730 1268 L419 1268 L419 825 Q434 825 568 824.5 Q702 824 718 824 Z "/>
        <glyph glyph-name="rcaron" unicode="&#x159;" horiz-adv-x="798"
               d="M352 1248 L90 1601 L288 1601 L449 1405 L613 1601 L816 1601 L554 1248 L352 1248 Z M134 0 L134 1099 L354 1099 L388 931 Q496 1104 701 1104 Q744 1104 771 1100 L767 881 Q727 887 684 887 Q539 887 467.5 810 Q396 733 396 596 L396 0 L134 0 Z "/>
        <glyph glyph-name="Sacute" unicode="&#x15a;" horiz-adv-x="1189"
               d="M527 1613 L698 1996 L997 1996 L682 1613 L527 1613 Z M569 -20 Q304 -20 94 102 L160 317 Q254 265 364.5 233 Q475 201 580 201 Q709 201 775 256.5 Q841 312 841 416 Q841 554 657 607 Q644 611 584 628.5 Q524 646 471.5 662.5 Q419 679 396 688 Q101 792 101 1076 Q101 1275 242.5 1383 Q384 1491 618 1491 Q883 1491 1075 1382 L993 1184 Q797 1272 629 1272 Q508 1272 446.5 1229.5 Q385 1187 381 1088 Q381 966 502 929 Q526 920 620 890 Q714 860 742 851 Q943 785 1029.5 687 Q1116 589 1116 414 Q1116 205 968 92.5 Q820 -20 569 -20 Z "/>
        <glyph glyph-name="sacute" unicode="&#x15b;" horiz-adv-x="985"
               d="M425 1248 L596 1631 L895 1631 L580 1248 L425 1248 Z M484 -20 Q241 -20 95 63 L122 260 Q188 224 290 195.5 Q392 167 476 167 Q563 167 611.5 199.5 Q660 232 661 295 Q661 352 615.5 385 Q570 418 442 467 Q398 483 385 488 Q233 547 166 619.5 Q99 692 99 816 Q99 966 207.5 1046 Q316 1126 510 1126 Q720 1126 879 1047 L814 866 Q657 939 515 939 Q436 939 391.5 912.5 Q347 886 347 832 Q347 781 390 752.5 Q433 724 558 678 Q562 677 584 669 Q606 661 618 656 Q769 601 840 524.5 Q911 448 911 325 Q910 160 799 70 Q688 -20 484 -20 Z "/>
        <glyph glyph-name="scircumflex" unicode="&#x15d;" horiz-adv-x="985"
               d="M149 1248 L399 1631 L607 1631 L858 1248 L674 1248 L500 1466 L328 1248 L149 1248 Z M484 -20 Q241 -20 95 63 L122 260 Q188 224 290 195.5 Q392 167 476 167 Q563 167 611.5 199.5 Q660 232 661 295 Q661 352 615.5 385 Q570 418 442 467 Q398 483 385 488 Q233 547 166 619.5 Q99 692 99 816 Q99 966 207.5 1046 Q316 1126 510 1126 Q720 1126 879 1047 L814 866 Q657 939 515 939 Q436 939 391.5 912.5 Q347 886 347 832 Q347 781 390 752.5 Q433 724 558 678 Q562 677 584 669 Q606 661 618 656 Q769 601 840 524.5 Q911 448 911 325 Q910 160 799 70 Q688 -20 484 -20 Z "/>
        <glyph glyph-name="Scedilla" unicode="&#x15e;" horiz-adv-x="1189"
               d="M410 -388 L533 -7 L677 -7 L619 -388 L410 -388 Z M569 -20 Q304 -20 94 102 L160 317 Q254 265 364.5 233 Q475 201 580 201 Q709 201 775 256.5 Q841 312 841 416 Q841 554 657 607 Q644 611 584 628.5 Q524 646 471.5 662.5 Q419 679 396 688 Q101 792 101 1076 Q101 1275 242.5 1383 Q384 1491 618 1491 Q883 1491 1075 1382 L993 1184 Q797 1272 629 1272 Q508 1272 446.5 1229.5 Q385 1187 381 1088 Q381 966 502 929 Q526 920 620 890 Q714 860 742 851 Q943 785 1029.5 687 Q1116 589 1116 414 Q1116 205 968 92.5 Q820 -20 569 -20 Z "/>
        <glyph glyph-name="scedilla" unicode="&#x15f;" horiz-adv-x="985"
               d="M308 -388 L431 -7 L575 -7 L517 -388 L308 -388 Z M484 -20 Q241 -20 95 63 L122 260 Q188 224 290 195.5 Q392 167 476 167 Q563 167 611.5 199.5 Q660 232 661 295 Q661 352 615.5 385 Q570 418 442 467 Q398 483 385 488 Q233 547 166 619.5 Q99 692 99 816 Q99 966 207.5 1046 Q316 1126 510 1126 Q720 1126 879 1047 L814 866 Q657 939 515 939 Q436 939 391.5 912.5 Q347 886 347 832 Q347 781 390 752.5 Q433 724 558 678 Q562 677 584 669 Q606 661 618 656 Q769 601 840 524.5 Q911 448 911 325 Q910 160 799 70 Q688 -20 484 -20 Z "/>
        <glyph glyph-name="Scaron" unicode="&#x160;" horiz-adv-x="1189"
               d="M504 1613 L242 1966 L440 1966 L601 1770 L765 1966 L968 1966 L706 1613 L504 1613 Z M569 -20 Q304 -20 94 102 L160 317 Q254 265 364.5 233 Q475 201 580 201 Q709 201 775 256.5 Q841 312 841 416 Q841 554 657 607 Q644 611 584 628.5 Q524 646 471.5 662.5 Q419 679 396 688 Q101 792 101 1076 Q101 1275 242.5 1383 Q384 1491 618 1491 Q883 1491 1075 1382 L993 1184 Q797 1272 629 1272 Q508 1272 446.5 1229.5 Q385 1187 381 1088 Q381 966 502 929 Q526 920 620 890 Q714 860 742 851 Q943 785 1029.5 687 Q1116 589 1116 414 Q1116 205 968 92.5 Q820 -20 569 -20 Z "/>
        <glyph glyph-name="scaron" unicode="&#x161;" horiz-adv-x="985"
               d="M402 1248 L140 1601 L338 1601 L499 1405 L663 1601 L866 1601 L604 1248 L402 1248 Z M484 -20 Q241 -20 95 63 L122 260 Q188 224 290 195.5 Q392 167 476 167 Q563 167 611.5 199.5 Q660 232 661 295 Q661 352 615.5 385 Q570 418 442 467 Q398 483 385 488 Q233 547 166 619.5 Q99 692 99 816 Q99 966 207.5 1046 Q316 1126 510 1126 Q720 1126 879 1047 L814 866 Q657 939 515 939 Q436 939 391.5 912.5 Q347 886 347 832 Q347 781 390 752.5 Q433 724 558 678 Q562 677 584 669 Q606 661 618 656 Q769 601 840 524.5 Q911 448 911 325 Q910 160 799 70 Q688 -20 484 -20 Z "/>
        <glyph glyph-name="Tcaron" unicode="&#x164;" horiz-adv-x="1152"
               d="M475 1608 L213 1961 L411 1961 L572 1765 L736 1961 L939 1961 L677 1608 L475 1608 Z M441 0 L441 1248 L14 1248 L14 1465 L1138 1465 L1138 1248 L713 1248 L713 0 L441 0 Z "/>
        <glyph glyph-name="tcaron" unicode="&#x165;" horiz-adv-x="803"
               d="M935 883 Q992 1160 1029 1398 L1273 1398 L1270 1349 Q1205 1123 1112 883 L935 883 Z M572 -15 Q460 -15 385.5 11.5 Q311 38 269 95 Q227 152 209.5 229.5 Q192 307 192 421 L192 940 L12 940 L22 1082 L210 1099 L294 1397 L454 1398 L454 1099 L727 1099 L727 940 L454 940 L454 416 Q454 291 490 238 Q526 185 623 185 Q680 185 745 195 L752 7 Q750 7 727.5 2.5 Q705 -2 684.5 -5.5 Q664 -9 632 -12 Q600 -15 572 -15 Z "/>
        <glyph glyph-name="Utilde" unicode="&#x168;" horiz-adv-x="1468"
               d="M390 1608 Q390 1644 392.5 1673 Q395 1702 405.5 1736 Q416 1770 434 1793 Q452 1816 484.5 1831.5 Q517 1847 562 1847 Q620 1847 691 1826 Q762 1805 815 1784 Q868 1763 883 1763 Q930 1763 930 1847 L1077 1847 Q1077 1812 1075 1785 Q1073 1758 1063 1722.5 Q1053 1687 1036.5 1664 Q1020 1641 987.5 1624.5 Q955 1608 911 1608 Q852 1608 733 1653 Q614 1698 584 1698 Q535 1698 534 1608 L390 1608 Z M730 -21 Q442 -21 293 122.5 Q144 266 144 527 L144 1465 L416 1465 L416 550 Q416 367 490.5 283 Q565 199 735 199 Q902 199 977 283.5 Q1052 368 1052 551 L1052 1465 L1323 1465 L1323 525 Q1323 266 1171 122.5 Q1019 -21 730 -21 Z "/>
        <glyph glyph-name="utilde" unicode="&#x169;" horiz-adv-x="1163"
               d="M238 1248 Q238 1284 240.5 1313 Q243 1342 253.5 1376 Q264 1410 282 1433 Q300 1456 332.5 1471.5 Q365 1487 410 1487 Q468 1487 539 1466 Q610 1445 663 1424 Q716 1403 731 1403 Q778 1403 778 1487 L925 1487 Q925 1452 923 1425 Q921 1398 911 1362.5 Q901 1327 884.5 1304 Q868 1281 835.5 1264.5 Q803 1248 759 1248 Q700 1248 581 1293 Q462 1338 432 1338 Q383 1338 382 1248 L238 1248 Z M926 86.5 Q795 -21 581 -21 Q367 -21 236.5 86 Q106 193 106 400 L106 1099 L369 1099 L369 410 Q369 287 420.5 232 Q472 177 584 177 Q694 177 744.5 231.5 Q795 286 795 410 L795 1099 L1057 1099 L1057 400 Q1057 194 926 86.5 Z "/>
        <glyph glyph-name="Umacron" unicode="&#x16a;" horiz-adv-x="1468"
               d="M390 1608 L390 1761 L1076 1761 L1076 1608 L390 1608 Z M730 -21 Q442 -21 293 122.5 Q144 266 144 527 L144 1465 L416 1465 L416 550 Q416 367 490.5 283 Q565 199 735 199 Q902 199 977 283.5 Q1052 368 1052 551 L1052 1465 L1323 1465 L1323 525 Q1323 266 1171 122.5 Q1019 -21 730 -21 Z "/>
        <glyph glyph-name="umacron" unicode="&#x16b;" horiz-adv-x="1163"
               d="M238 1248 L238 1401 L924 1401 L924 1248 L238 1248 Z M926 86.5 Q795 -21 581 -21 Q367 -21 236.5 86 Q106 193 106 400 L106 1099 L369 1099 L369 410 Q369 287 420.5 232 Q472 177 584 177 Q694 177 744.5 231.5 Q795 286 795 410 L795 1099 L1057 1099 L1057 400 Q1057 194 926 86.5 Z "/>
        <glyph glyph-name="Ubreve" unicode="&#x16c;" horiz-adv-x="1468"
               d="M945.5 1672 Q866 1608 734 1608 Q602 1608 522.5 1672 Q443 1736 443 1860 L610 1860 Q610 1809 639.5 1786.5 Q669 1764 734 1764 Q799 1764 828.5 1786.5 Q858 1809 858 1860 L1025 1860 Q1025 1736 945.5 1672 Z M730 -21 Q442 -21 293 122.5 Q144 266 144 527 L144 1465 L416 1465 L416 550 Q416 367 490.5 283 Q565 199 735 199 Q902 199 977 283.5 Q1052 368 1052 551 L1052 1465 L1323 1465 L1323 525 Q1323 266 1171 122.5 Q1019 -21 730 -21 Z "/>
        <glyph glyph-name="ubreve" unicode="&#x16d;" horiz-adv-x="1163"
               d="M793.5 1312 Q714 1248 582 1248 Q450 1248 370.5 1312 Q291 1376 291 1500 L458 1500 Q458 1449 487.5 1426.5 Q517 1404 582 1404 Q647 1404 676.5 1426.5 Q706 1449 706 1500 L873 1500 Q873 1376 793.5 1312 Z M926 86.5 Q795 -21 581 -21 Q367 -21 236.5 86 Q106 193 106 400 L106 1099 L369 1099 L369 410 Q369 287 420.5 232 Q472 177 584 177 Q694 177 744.5 231.5 Q795 286 795 410 L795 1099 L1057 1099 L1057 400 Q1057 194 926 86.5 Z "/>
        <glyph glyph-name="Uring" unicode="&#x16e;" horiz-adv-x="1468"
               d="M655 1733 Q683 1701 734 1701 Q785 1701 812.5 1733 Q840 1765 840 1811 Q840 1856 812 1889.5 Q784 1923 734 1923 Q683 1923 655 1890.5 Q627 1858 627 1811 Q627 1765 655 1733 Z M894 1668 Q834 1608 734 1608 Q634 1608 573.5 1668 Q513 1728 513 1812 Q513 1895 572.5 1953.5 Q632 2012 734 2012 Q835 2012 894.5 1953.5 Q954 1895 954 1812 Q954 1728 894 1668 Z M730 -21 Q442 -21 293 122.5 Q144 266 144 527 L144 1465 L416 1465 L416 550 Q416 367 490.5 283 Q565 199 735 199 Q902 199 977 283.5 Q1052 368 1052 551 L1052 1465 L1323 1465 L1323 525 Q1323 266 1171 122.5 Q1019 -21 730 -21 Z "/>
        <glyph glyph-name="uring" unicode="&#x16f;" horiz-adv-x="1163"
               d="M503 1373 Q531 1341 582 1341 Q633 1341 660.5 1373 Q688 1405 688 1451 Q688 1496 660 1529.5 Q632 1563 582 1563 Q531 1563 503 1530.5 Q475 1498 475 1451 Q475 1405 503 1373 Z M742 1308 Q682 1248 582 1248 Q482 1248 421.5 1308 Q361 1368 361 1452 Q361 1535 420.5 1593.5 Q480 1652 582 1652 Q683 1652 742.5 1593.5 Q802 1535 802 1452 Q802 1368 742 1308 Z M926 86.5 Q795 -21 581 -21 Q367 -21 236.5 86 Q106 193 106 400 L106 1099 L369 1099 L369 410 Q369 287 420.5 232 Q472 177 584 177 Q694 177 744.5 231.5 Q795 286 795 410 L795 1099 L1057 1099 L1057 400 Q1057 194 926 86.5 Z "/>
        <glyph glyph-name="Uhungarumlaut" unicode="&#x170;" horiz-adv-x="1468"
               d="M511 1608 L757 1969 L983 1969 L645 1608 L511 1608 Z M822 1608 L1069 1969 L1294 1969 L956 1608 L822 1608 Z M730 -21 Q442 -21 293 122.5 Q144 266 144 527 L144 1465 L416 1465 L416 550 Q416 367 490.5 283 Q565 199 735 199 Q902 199 977 283.5 Q1052 368 1052 551 L1052 1465 L1323 1465 L1323 525 Q1323 266 1171 122.5 Q1019 -21 730 -21 Z "/>
        <glyph glyph-name="uhungarumlaut" unicode="&#x171;" horiz-adv-x="1163"
               d="M359 1248 L605 1609 L831 1609 L493 1248 L359 1248 Z M670 1248 L917 1609 L1142 1609 L804 1248 L670 1248 Z M926 86.5 Q795 -21 581 -21 Q367 -21 236.5 86 Q106 193 106 400 L106 1099 L369 1099 L369 410 Q369 287 420.5 232 Q472 177 584 177 Q694 177 744.5 231.5 Q795 286 795 410 L795 1099 L1057 1099 L1057 400 Q1057 194 926 86.5 Z "/>
        <glyph glyph-name="Uogonek" unicode="&#x172;" horiz-adv-x="1468"
               d="M695 -433 Q605 -433 546.5 -389 Q488 -345 488 -261 Q488 -115 679 -7 L787 -7 Q663 -99 663 -206 Q663 -240 685.5 -266.5 Q708 -293 745 -293 Q759 -293 775.5 -290.5 Q792 -288 805.5 -284.5 Q819 -281 834 -276 Q849 -271 858 -267.5 Q867 -264 876.5 -260 Q886 -256 887 -256 L887 -396 Q792 -433 695 -433 Z M730 -21 Q442 -21 293 122.5 Q144 266 144 527 L144 1465 L416 1465 L416 550 Q416 367 490.5 283 Q565 199 735 199 Q902 199 977 283.5 Q1052 368 1052 551 L1052 1465 L1323 1465 L1323 525 Q1323 266 1171 122.5 Q1019 -21 730 -21 Z "/>
        <glyph glyph-name="uogonek" unicode="&#x173;" horiz-adv-x="1163"
               d="M580 -433 Q490 -433 431.5 -389 Q373 -345 373 -261 Q373 -115 564 -7 L672 -7 Q548 -99 548 -206 Q548 -240 570.5 -266.5 Q593 -293 630 -293 Q644 -293 660.5 -290.5 Q677 -288 690.5 -284.5 Q704 -281 719 -276 Q734 -271 743 -267.5 Q752 -264 761.5 -260 Q771 -256 772 -256 L772 -396 Q677 -433 580 -433 Z M926 86.5 Q795 -21 581 -21 Q367 -21 236.5 86 Q106 193 106 400 L106 1099 L369 1099 L369 410 Q369 287 420.5 232 Q472 177 584 177 Q694 177 744.5 231.5 Q795 286 795 410 L795 1099 L1057 1099 L1057 400 Q1057 194 926 86.5 Z "/>
        <glyph glyph-name="Wcircumflex" unicode="&#x174;" horiz-adv-x="2051"
               d="M667 1608 L917 1991 L1125 1991 L1376 1608 L1192 1608 L1018 1826 L846 1608 L667 1608 Z M408 0 L10 1465 L280 1465 L564 325 L898 1458 L1157 1458 L1474 321 L1764 1465 L2034 1465 L1624 0 L1343 0 L1030 1073 L687 0 L408 0 Z "/>
        <glyph glyph-name="wcircumflex" unicode="&#x175;" horiz-adv-x="1713"
               d="M502 1248 L752 1631 L960 1631 L1211 1248 L1027 1248 L853 1466 L681 1248 L502 1248 Z M346 0 L13 1099 L280 1099 L491 293 Q498 316 605 686 Q712 1056 726 1099 L995 1099 Q1008 1057 1110 690 Q1212 323 1220 296 L1437 1099 L1700 1099 L1356 0 L1095 0 Q1082 43 973.5 435 Q865 827 856 858 Q836 785 728.5 418 Q621 51 604 0 L346 0 Z "/>
        <glyph glyph-name="Ycircumflex" unicode="&#x176;" horiz-adv-x="1256"
               d="M273 1608 L523 1991 L731 1991 L982 1608 L798 1608 L624 1826 L452 1608 L273 1608 Z M492 0 L492 581 L-15 1465 L279 1465 L628 831 L979 1465 L1269 1465 L764 586 L764 0 L492 0 Z "/>
        <glyph glyph-name="ycircumflex" unicode="&#x177;" horiz-adv-x="1116"
               d="M197 1248 L447 1631 L655 1631 L906 1248 L722 1248 L548 1466 L376 1248 L197 1248 Z M191 -463 Q127 -463 55 -455 L42 -252 Q88 -257 159 -257 Q250 -257 305 -221 Q360 -185 396 -93 Q400 -83 436 20 L-6 1099 L274 1099 L563 302 Q595 421 706.5 744 Q818 1067 829 1099 L1109 1099 Q652 -109 648 -119 Q577 -304 469 -383.5 Q361 -463 191 -463 Z "/>
        <glyph glyph-name="Ydieresis" unicode="&#x178;" horiz-adv-x="1256"
               d="M318 1608 L318 1862 L513 1862 L513 1608 L318 1608 Z M739 1608 L739 1862 L935 1862 L935 1608 L739 1608 Z M492 0 L492 581 L-15 1465 L279 1465 L628 831 L979 1465 L1269 1465 L764 586 L764 0 L492 0 Z "/>
        <glyph glyph-name="Zacute" unicode="&#x179;" horiz-adv-x="1209"
               d="M533 1608 L704 1991 L1003 1991 L688 1608 L533 1608 Z M62 0 L62 174 L835 1249 L89 1249 L89 1465 L1155 1465 L1155 1268 L396 216 L1160 216 L1159 0 L62 0 Z "/>
        <glyph glyph-name="zacute" unicode="&#x17a;" horiz-adv-x="977"
               d="M413 1248 L584 1631 L883 1631 L568 1248 L413 1248 Z M65 0 L65 159 L609 917 L91 917 L91 1099 L899 1099 L899 920 L384 191 L917 191 L917 0 L65 0 Z "/>
        <glyph glyph-name="Zdotaccent" unicode="&#x17b;" horiz-adv-x="1209"
               d="M511 1608 L511 1824 L712 1824 L712 1608 L511 1608 Z M62 0 L62 174 L835 1249 L89 1249 L89 1465 L1155 1465 L1155 1268 L396 216 L1160 216 L1159 0 L62 0 Z "/>
        <glyph glyph-name="zdotaccent" unicode="&#x17c;" horiz-adv-x="977"
               d="M391 1248 L391 1464 L592 1464 L592 1248 L391 1248 Z M65 0 L65 159 L609 917 L91 917 L91 1099 L899 1099 L899 920 L384 191 L917 191 L917 0 L65 0 Z "/>
        <glyph glyph-name="Zcaron" unicode="&#x17d;" horiz-adv-x="1209"
               d="M510 1608 L248 1961 L446 1961 L607 1765 L771 1961 L974 1961 L712 1608 L510 1608 Z M62 0 L62 174 L835 1249 L89 1249 L89 1465 L1155 1465 L1155 1268 L396 216 L1160 216 L1159 0 L62 0 Z "/>
        <glyph glyph-name="zcaron" unicode="&#x17e;" horiz-adv-x="977"
               d="M390 1248 L128 1601 L326 1601 L487 1405 L651 1601 L854 1601 L592 1248 L390 1248 Z M65 0 L65 159 L609 917 L91 917 L91 1099 L899 1099 L899 920 L384 191 L917 191 L917 0 L65 0 Z "/>
        <glyph glyph-name="florin" unicode="&#x192;" horiz-adv-x="1055"
               d="M157 -336 Q132 -336 33 -314 L50 -125 Q137 -150 145 -150 Q202 -150 232 -102.5 Q262 -55 284 32 Q312 138 338 265.5 Q364 393 393 552.5 Q422 712 439 795 L282 795 L295 968 L473 968 L492 1098 Q545 1468 851 1468 Q884 1468 940 1458 Q996 1448 1012 1443 L1001 1242 Q987 1248 942 1261.5 Q897 1275 875 1275 Q805 1275 775 1243 Q745 1211 731 1136 L699 968 L893 968 L880 793 L667 793 L537 128 Q526 72 517 34 Q508 -4 491 -57 Q474 -110 456 -145.5 Q438 -181 409 -220 Q380 -259 345.5 -282.5 Q311 -306 262.5 -321 Q214 -336 157 -336 Z "/>
        <glyph glyph-name="uni01C4" unicode="&#x1c4;" horiz-adv-x="2723"
               d="M2024 1608 L1762 1961 L1960 1961 L2121 1765 L2285 1961 L2488 1961 L2226 1608 L2024 1608 Z M1576 0 L1576 174 L2349 1249 L1603 1249 L1603 1465 L2669 1465 L2669 1268 L1910 216 L2674 216 L2673 0 L1576 0 Z M430 217 L624 217 Q875 217 1006 348.5 Q1137 480 1137 732 Q1137 1002 1002 1124.5 Q867 1247 595 1247 L430 1247 L430 217 Z M159 0 L159 1465 L583 1465 Q775 1465 927 1421 Q1079 1377 1188.5 1288.5 Q1298 1200 1356.5 1060.5 Q1415 921 1415 738 Q1415 383 1201 191.5 Q987 0 608 0 L159 0 Z "/>
        <glyph glyph-name="uni01C5" unicode="&#x1c5;" horiz-adv-x="2491"
               d="M1904 1248 L1642 1601 L1840 1601 L2001 1405 L2165 1601 L2368 1601 L2106 1248 L1904 1248 Z M1579 0 L1579 159 L2123 917 L1605 917 L1605 1099 L2413 1099 L2413 920 L1898 191 L2431 191 L2431 0 L1579 0 Z M430 217 L624 217 Q875 217 1006 348.5 Q1137 480 1137 732 Q1137 1002 1002 1124.5 Q867 1247 595 1247 L430 1247 L430 217 Z M159 0 L159 1465 L583 1465 Q775 1465 927 1421 Q1079 1377 1188.5 1288.5 Q1298 1200 1356.5 1060.5 Q1415 921 1415 738 Q1415 383 1201 191.5 Q987 0 608 0 L159 0 Z "/>
        <glyph glyph-name="uni01C6" unicode="&#x1c6;" horiz-adv-x="2236"
               d="M1649 1248 L1387 1601 L1585 1601 L1746 1405 L1910 1601 L2113 1601 L1851 1248 L1649 1248 Z M1324 0 L1324 159 L1868 917 L1350 917 L1350 1099 L2158 1099 L2158 920 L1643 191 L2176 191 L2176 0 L1324 0 Z M542 -21 Q327 -21 204 137 Q81 295 81 559 Q81 815 203.5 970.5 Q326 1126 541 1126 Q775 1126 872 960 Q862 1058 862 1149 L862 1504 L1124 1521 L1124 0 L897 0 L868 150 Q851 123 836.5 103.5 Q822 84 794 58.5 Q766 33 733.5 17.5 Q701 2 651.5 -9.5 Q602 -21 542 -21 Z M604 178 Q868 178 872 537 Q872 740 804 833 Q736 926 601 926 Q483 926 412.5 831.5 Q342 737 342 553 Q342 370 412.5 274 Q483 178 604 178 Z "/>
        <glyph glyph-name="uni01C7" unicode="&#x1c7;" horiz-adv-x="1704"
               d="M998 -321 L987 -108 Q1035 -116 1092 -116 Q1203 -116 1242 -59 Q1281 -2 1281 129 L1281 1469 L1553 1469 L1553 147 Q1553 21 1530.5 -65.5 Q1508 -152 1454.5 -212.5 Q1401 -273 1312.5 -301 Q1224 -329 1093 -329 Q1038 -329 998 -321 Z M158 0 L158 1465 L429 1465 L429 216 L1042 216 L1034 0 L158 0 Z "/>
        <glyph glyph-name="uni01C8" unicode="&#x1c8;" horiz-adv-x="1598"
               d="M1023 -427 L994 -233 L1052 -233 Q1102 -233 1134 -225.5 Q1166 -218 1187 -204.5 Q1208 -191 1218 -163 Q1228 -135 1231.5 -102.5 Q1235 -70 1235 -16 L1235 1099 L1497 1099 L1497 26 Q1497 -56 1490.5 -115 Q1484 -174 1467 -227.5 Q1450 -281 1420.5 -316 Q1391 -351 1345 -377.5 Q1299 -404 1234 -415.5 Q1169 -427 1082 -427 L1023 -427 Z M1235 1259 L1235 1483 L1497 1483 L1497 1259 L1235 1259 Z M158 0 L158 1465 L429 1465 L429 216 L1042 216 L1034 0 L158 0 Z "/>
        <glyph glyph-name="uni01C9" unicode="&#x1c9;" horiz-adv-x="1227"
               d="M652 -427 L623 -233 L681 -233 Q731 -233 763 -225.5 Q795 -218 816 -204.5 Q837 -191 847 -163 Q857 -135 860.5 -102.5 Q864 -70 864 -16 L864 1099 L1126 1099 L1126 26 Q1126 -56 1119.5 -115 Q1113 -174 1096 -227.5 Q1079 -281 1049.5 -316 Q1020 -351 974 -377.5 Q928 -404 863 -415.5 Q798 -427 711 -427 L652 -427 Z M864 1259 L864 1483 L1126 1483 L1126 1259 L864 1259 Z M518 -15 Q405 -15 330.5 11.5 Q256 38 213 96 Q170 154 153 234 Q136 314 136 433 L136 1504 L398 1521 L398 438 Q398 290 433 237.5 Q468 185 569 185 Q619 185 696 196 L703 9 Q702 9 678.5 4 Q655 -1 633.5 -4.5 Q612 -8 579 -11.5 Q546 -15 518 -15 Z "/>
        <glyph glyph-name="uni01CA" unicode="&#x1ca;" horiz-adv-x="2187"
               d="M1481 -321 L1470 -108 Q1518 -116 1575 -116 Q1686 -116 1725 -59 Q1764 -2 1764 129 L1764 1469 L2036 1469 L2036 147 Q2036 21 2013.5 -65.5 Q1991 -152 1937.5 -212.5 Q1884 -273 1795.5 -301 Q1707 -329 1576 -329 Q1521 -329 1481 -321 Z M158 0 L158 1465 L446 1465 Q524 1343 763 973 Q1002 603 1054 523 Q1069 500 1105.5 445.5 Q1142 391 1157 368 Q1150 711 1150 724 L1150 1465 L1397 1465 L1397 0 L1105 0 L444 1030 L396 1109 Q404 845 404 738 L404 0 L158 0 Z "/>
        <glyph glyph-name="uni01CB" unicode="&#x1cb;" horiz-adv-x="2081"
               d="M1506 -427 L1477 -233 L1535 -233 Q1585 -233 1617 -225.5 Q1649 -218 1670 -204.5 Q1691 -191 1701 -163 Q1711 -135 1714.5 -102.5 Q1718 -70 1718 -16 L1718 1099 L1980 1099 L1980 26 Q1980 -56 1973.5 -115 Q1967 -174 1950 -227.5 Q1933 -281 1903.5 -316 Q1874 -351 1828 -377.5 Q1782 -404 1717 -415.5 Q1652 -427 1565 -427 L1506 -427 Z M1718 1259 L1718 1483 L1980 1483 L1980 1259 L1718 1259 Z M158 0 L158 1465 L446 1465 Q524 1343 763 973 Q1002 603 1054 523 Q1069 500 1105.5 445.5 Q1142 391 1157 368 Q1150 711 1150 724 L1150 1465 L1397 1465 L1397 0 L1105 0 L444 1030 L396 1109 Q404 845 404 738 L404 0 L158 0 Z "/>
        <glyph glyph-name="uni01CC" unicode="&#x1cc;" horiz-adv-x="1781"
               d="M1206 -427 L1177 -233 L1235 -233 Q1285 -233 1317 -225.5 Q1349 -218 1370 -204.5 Q1391 -191 1401 -163 Q1411 -135 1414.5 -102.5 Q1418 -70 1418 -16 L1418 1099 L1680 1099 L1680 26 Q1680 -56 1673.5 -115 Q1667 -174 1650 -227.5 Q1633 -281 1603.5 -316 Q1574 -351 1528 -377.5 Q1482 -404 1417 -415.5 Q1352 -427 1265 -427 L1206 -427 Z M1418 1259 L1418 1483 L1680 1483 L1680 1259 L1418 1259 Z M133 0 L133 1099 L344 1099 L373 960 Q541 1126 746 1126 Q938 1126 1033.5 1015.5 Q1129 905 1129 695 L1129 0 L866 0 L866 663 Q865 796 823 862 Q781 928 672 928 Q587 928 516.5 884.5 Q446 841 414 775 Q395 697 395 535 L395 0 L133 0 Z "/>
        <glyph glyph-name="uni01F1" unicode="&#x1f1;" horiz-adv-x="2723"
               d="M1576 0 L1576 174 L2349 1249 L1603 1249 L1603 1465 L2669 1465 L2669 1268 L1910 216 L2674 216 L2673 0 L1576 0 Z M430 217 L624 217 Q875 217 1006 348.5 Q1137 480 1137 732 Q1137 1002 1002 1124.5 Q867 1247 595 1247 L430 1247 L430 217 Z M159 0 L159 1465 L583 1465 Q775 1465 927 1421 Q1079 1377 1188.5 1288.5 Q1298 1200 1356.5 1060.5 Q1415 921 1415 738 Q1415 383 1201 191.5 Q987 0 608 0 L159 0 Z "/>
        <glyph glyph-name="uni01F2" unicode="&#x1f2;" horiz-adv-x="2491"
               d="M1579 0 L1579 159 L2123 917 L1605 917 L1605 1099 L2413 1099 L2413 920 L1898 191 L2431 191 L2431 0 L1579 0 Z M430 217 L624 217 Q875 217 1006 348.5 Q1137 480 1137 732 Q1137 1002 1002 1124.5 Q867 1247 595 1247 L430 1247 L430 217 Z M159 0 L159 1465 L583 1465 Q775 1465 927 1421 Q1079 1377 1188.5 1288.5 Q1298 1200 1356.5 1060.5 Q1415 921 1415 738 Q1415 383 1201 191.5 Q987 0 608 0 L159 0 Z "/>
        <glyph glyph-name="uni01F3" unicode="&#x1f3;" horiz-adv-x="2236"
               d="M1324 0 L1324 159 L1868 917 L1350 917 L1350 1099 L2158 1099 L2158 920 L1643 191 L2176 191 L2176 0 L1324 0 Z M542 -21 Q327 -21 204 137 Q81 295 81 559 Q81 815 203.5 970.5 Q326 1126 541 1126 Q775 1126 872 960 Q862 1058 862 1149 L862 1504 L1124 1521 L1124 0 L897 0 L868 150 Q851 123 836.5 103.5 Q822 84 794 58.5 Q766 33 733.5 17.5 Q701 2 651.5 -9.5 Q602 -21 542 -21 Z M604 178 Q868 178 872 537 Q872 740 804 833 Q736 926 601 926 Q483 926 412.5 831.5 Q342 737 342 553 Q342 370 412.5 274 Q483 178 604 178 Z "/>
        <glyph glyph-name="uni01F4" unicode="&#x1f4;" horiz-adv-x="1466"
               d="M639 1608 L810 1991 L1109 1991 L794 1608 L639 1608 Z M812 -21 Q477 -21 288.5 181 Q100 383 100 734 Q100 957 188 1126.5 Q276 1296 447 1391 Q618 1486 851 1486 Q1118 1486 1309 1371 L1221 1169 Q1039 1267 856 1267 Q634 1267 507 1123 Q380 979 380 731 Q380 485 493 342 Q606 199 824 199 Q964 199 1078 243 L1078 583 L771 583 L773 796 L1333 796 L1333 89 Q1197 33 1075.5 6 Q954 -21 812 -21 Z "/>
        <glyph glyph-name="uni01F5" unicode="&#x1f5;" horiz-adv-x="1267"
               d="M531 1248 L702 1631 L1001 1631 L686 1248 L531 1248 Z M353 -492 L338 -280 L471 -280 Q702 -280 794 -218.5 Q886 -157 886 7 Q886 74 880 152 Q854 116 830.5 92.5 Q807 69 771.5 46 Q736 23 686.5 11.5 Q637 0 574 0 Q356 0 215.5 157 Q75 314 75 562 Q75 694 114 802.5 Q153 911 220 981 Q287 1051 374.5 1088.5 Q462 1126 561 1126 Q782 1126 890 965 L908 1099 L1142 1099 L1142 78 Q1142 -4 1134 -69.5 Q1126 -135 1106 -195.5 Q1086 -256 1053.5 -301 Q1021 -346 972 -383 Q923 -420 856.5 -443.5 Q790 -467 702 -479.5 Q614 -492 504 -492 L353 -492 Z M616 183 Q887 183 890 546 L890 584 Q888 747 822 836 Q756 925 629 926 Q485 926 411 827.5 Q337 729 337 562 Q337 401 411.5 292 Q486 183 616 183 Z "/>
        <glyph glyph-name="uni0200" unicode="&#x200;" horiz-adv-x="1359"
               d="M404 1608 L89 1947 L364 1947 L575 1608 L404 1608 Z M768 1608 L471 1947 L729 1947 L956 1608 L768 1608 Z M-3 0 L536 1466 L831 1466 L1362 0 L1084 0 L939 414 L426 414 L280 0 L-3 0 Z M494 616 L870 616 Q690 1193 685 1212 L494 616 Z "/>
        <glyph glyph-name="uni0201" unicode="&#x201;" horiz-adv-x="1142"
               d="M270 1248 L-45 1587 L230 1587 L441 1248 L270 1248 Z M634 1248 L337 1587 L595 1587 L822 1248 L634 1248 Z M423 -21 Q270 -21 175.5 63.5 Q81 148 81 307 Q81 478 193 560.5 Q305 643 531 665 Q562 669 598 673 Q634 677 679 681 Q724 685 750 688 L750 746 Q750 846 704 891.5 Q658 937 564 937 Q430 937 233 862 Q232 865 200 953 Q168 1041 167 1043 Q361 1126 587 1126 Q809 1126 910 1029.5 Q1011 933 1011 717 L1011 0 L817 0 Q816 4 795 67 Q774 130 774 134 Q692 54 613.5 16.5 Q535 -21 423 -21 Z M494 165 Q585 165 652.5 208.5 Q720 252 749 314 L749 526 Q746 526 696.5 522 Q647 518 643 518 Q484 504 410 458 Q336 412 336 310 Q336 240 377 202.5 Q418 165 494 165 Z "/>
        <glyph glyph-name="uni0202" unicode="&#x202;" horiz-adv-x="1359"
               d="M389 1608 Q389 1721 476 1784.5 Q563 1848 682 1848 Q757 1848 821 1822.5 Q885 1797 927.5 1741 Q970 1685 970 1608 L803 1608 Q803 1660 765.5 1688 Q728 1716 678 1716 Q628 1716 592 1687.5 Q556 1659 556 1608 L389 1608 Z M-3 0 L536 1466 L831 1466 L1362 0 L1084 0 L939 414 L426 414 L280 0 L-3 0 Z M494 616 L870 616 Q690 1193 685 1212 L494 616 Z "/>
        <glyph glyph-name="uni0203" unicode="&#x203;" horiz-adv-x="1142"
               d="M255 1248 Q255 1361 342 1424.5 Q429 1488 548 1488 Q623 1488 687 1462.5 Q751 1437 793.5 1381 Q836 1325 836 1248 L669 1248 Q669 1300 631.5 1328 Q594 1356 544 1356 Q494 1356 458 1327.5 Q422 1299 422 1248 L255 1248 Z M423 -21 Q270 -21 175.5 63.5 Q81 148 81 307 Q81 478 193 560.5 Q305 643 531 665 Q562 669 598 673 Q634 677 679 681 Q724 685 750 688 L750 746 Q750 846 704 891.5 Q658 937 564 937 Q430 937 233 862 Q232 865 200 953 Q168 1041 167 1043 Q361 1126 587 1126 Q809 1126 910 1029.5 Q1011 933 1011 717 L1011 0 L817 0 Q816 4 795 67 Q774 130 774 134 Q692 54 613.5 16.5 Q535 -21 423 -21 Z M494 165 Q585 165 652.5 208.5 Q720 252 749 314 L749 526 Q746 526 696.5 522 Q647 518 643 518 Q484 504 410 458 Q336 412 336 310 Q336 240 377 202.5 Q418 165 494 165 Z "/>
        <glyph glyph-name="uni0204" unicode="&#x204;" horiz-adv-x="1152"
               d="M332 1608 L17 1947 L292 1947 L503 1608 L332 1608 Z M696 1608 L399 1947 L657 1947 L884 1608 L696 1608 Z M158 0 L158 1465 L1046 1465 L1035 1250 L429 1250 L429 872 L1005 872 L1005 657 L429 657 L429 216 L1057 216 L1048 0 L158 0 Z "/>
        <glyph glyph-name="uni0205" unicode="&#x205;" horiz-adv-x="1157"
               d="M303 1248 L-12 1587 L263 1587 L474 1248 L303 1248 Z M667 1248 L370 1587 L628 1587 L855 1248 L667 1248 Z M641 -21 Q376 -21 228.5 131.5 Q81 284 81 553 Q81 815 220 970 Q359 1125 599 1126 Q826 1126 951.5 984 Q1077 842 1077 607 Q1077 590 1076.5 552 Q1076 514 1076 496 L345 496 Q349 342 429.5 257.5 Q510 173 651 173 Q831 173 997 267 L1034 81 Q869 -21 641 -21 Z M350 661 L830 661 Q830 795 769 867 Q708 939 600 939 Q499 939 429.5 869 Q360 799 350 661 Z "/>
        <glyph glyph-name="uni0206" unicode="&#x206;" horiz-adv-x="1152"
               d="M317 1608 Q317 1721 404 1784.5 Q491 1848 610 1848 Q685 1848 749 1822.5 Q813 1797 855.5 1741 Q898 1685 898 1608 L731 1608 Q731 1660 693.5 1688 Q656 1716 606 1716 Q556 1716 520 1687.5 Q484 1659 484 1608 L317 1608 Z M158 0 L158 1465 L1046 1465 L1035 1250 L429 1250 L429 872 L1005 872 L1005 657 L429 657 L429 216 L1057 216 L1048 0 L158 0 Z "/>
        <glyph glyph-name="uni0207" unicode="&#x207;" horiz-adv-x="1157"
               d="M289 1248 Q289 1361 376 1424.5 Q463 1488 582 1488 Q657 1488 721 1462.5 Q785 1437 827.5 1381 Q870 1325 870 1248 L703 1248 Q703 1300 665.5 1328 Q628 1356 578 1356 Q528 1356 492 1327.5 Q456 1299 456 1248 L289 1248 Z M641 -21 Q376 -21 228.5 131.5 Q81 284 81 553 Q81 815 220 970 Q359 1125 599 1126 Q826 1126 951.5 984 Q1077 842 1077 607 Q1077 590 1076.5 552 Q1076 514 1076 496 L345 496 Q349 342 429.5 257.5 Q510 173 651 173 Q831 173 997 267 L1034 81 Q869 -21 641 -21 Z M350 661 L830 661 Q830 795 769 867 Q708 939 600 939 Q499 939 429.5 869 Q360 799 350 661 Z "/>
        <glyph glyph-name="uni0208" unicode="&#x208;" horiz-adv-x="602"
               d="M24 1608 L-291 1947 L-16 1947 L195 1608 L24 1608 Z M388 1608 L91 1947 L349 1947 L576 1608 L388 1608 Z M165 0 L165 1465 L436 1465 L436 0 L165 0 Z "/>
        <glyph glyph-name="uni0209" unicode="&#x209;" horiz-adv-x="548"
               d="M-20 1248 L-335 1587 L-60 1587 L151 1248 L-20 1248 Z M344 1248 L47 1587 L305 1587 L532 1248 L344 1248 Z M129 0 L129 1098 L384 1098 L384 0 L129 0 Z "/>
        <glyph glyph-name="uni020A" unicode="&#x20a;" horiz-adv-x="602"
               d="M10 1608 Q10 1721 97 1784.5 Q184 1848 303 1848 Q378 1848 442 1822.5 Q506 1797 548.5 1741 Q591 1685 591 1608 L424 1608 Q424 1660 386.5 1688 Q349 1716 299 1716 Q249 1716 213 1687.5 Q177 1659 177 1608 L10 1608 Z M165 0 L165 1465 L436 1465 L436 0 L165 0 Z "/>
        <glyph glyph-name="uni020B" unicode="&#x20b;" horiz-adv-x="548"
               d="M-34 1248 Q-34 1361 53 1424.5 Q140 1488 259 1488 Q334 1488 398 1462.5 Q462 1437 504.5 1381 Q547 1325 547 1248 L380 1248 Q380 1300 342.5 1328 Q305 1356 255 1356 Q205 1356 169 1327.5 Q133 1299 133 1248 L-34 1248 Z M129 0 L129 1098 L384 1098 L384 0 L129 0 Z "/>
        <glyph glyph-name="uni020C" unicode="&#x20c;" horiz-adv-x="1626"
               d="M537 1608 L222 1947 L497 1947 L708 1608 L537 1608 Z M901 1608 L604 1947 L862 1947 L1089 1608 L901 1608 Z M492 339 Q601 200 814 200 Q1027 200 1135.5 338.5 Q1244 477 1244 730 Q1244 986 1135.5 1127 Q1027 1268 815 1268 Q602 1268 492.5 1126.5 Q383 985 383 730 Q383 478 492 339 Z M813 -21 Q482 -21 290.5 179.5 Q99 380 99 733 Q99 1088 291 1287 Q483 1486 814 1486 Q1145 1486 1336 1286.5 Q1527 1087 1527 732 Q1527 381 1335 180 Q1143 -21 813 -21 Z "/>
        <glyph glyph-name="uni020D" unicode="&#x20d;" horiz-adv-x="1222"
               d="M335 1248 L20 1587 L295 1587 L506 1248 L335 1248 Z M699 1248 L402 1587 L660 1587 L887 1248 L699 1248 Z M612 178 Q745 178 812 275 Q879 372 879 553 Q879 736 812 832 Q745 928 610 928 Q477 928 409.5 831.5 Q342 735 342 552 Q342 372 410 275 Q478 178 612 178 Z M605 -21 Q361 -21 221 137 Q81 295 81 553 Q81 819 221 972.5 Q361 1126 616 1126 Q862 1126 1001.5 969.5 Q1141 813 1141 553 Q1141 290 1000 134.5 Q859 -21 605 -21 Z "/>
        <glyph glyph-name="uni020E" unicode="&#x20e;" horiz-adv-x="1626"
               d="M523 1608 Q523 1721 610 1784.5 Q697 1848 816 1848 Q891 1848 955 1822.5 Q1019 1797 1061.5 1741 Q1104 1685 1104 1608 L937 1608 Q937 1660 899.5 1688 Q862 1716 812 1716 Q762 1716 726 1687.5 Q690 1659 690 1608 L523 1608 Z M492 339 Q601 200 814 200 Q1027 200 1135.5 338.5 Q1244 477 1244 730 Q1244 986 1135.5 1127 Q1027 1268 815 1268 Q602 1268 492.5 1126.5 Q383 985 383 730 Q383 478 492 339 Z M813 -21 Q482 -21 290.5 179.5 Q99 380 99 733 Q99 1088 291 1287 Q483 1486 814 1486 Q1145 1486 1336 1286.5 Q1527 1087 1527 732 Q1527 381 1335 180 Q1143 -21 813 -21 Z "/>
        <glyph glyph-name="uni020F" unicode="&#x20f;" horiz-adv-x="1222"
               d="M321 1248 Q321 1361 408 1424.5 Q495 1488 614 1488 Q689 1488 753 1462.5 Q817 1437 859.5 1381 Q902 1325 902 1248 L735 1248 Q735 1300 697.5 1328 Q660 1356 610 1356 Q560 1356 524 1327.5 Q488 1299 488 1248 L321 1248 Z M612 178 Q745 178 812 275 Q879 372 879 553 Q879 736 812 832 Q745 928 610 928 Q477 928 409.5 831.5 Q342 735 342 552 Q342 372 410 275 Q478 178 612 178 Z M605 -21 Q361 -21 221 137 Q81 295 81 553 Q81 819 221 972.5 Q361 1126 616 1126 Q862 1126 1001.5 969.5 Q1141 813 1141 553 Q1141 290 1000 134.5 Q859 -21 605 -21 Z "/>
        <glyph glyph-name="uni0210" unicode="&#x210;" horiz-adv-x="1394"
               d="M472 1608 L157 1947 L432 1947 L643 1608 L472 1608 Z M836 1608 L539 1947 L797 1947 L1024 1608 L836 1608 Z M151 0 L151 1469 L694 1469 Q805 1469 886.5 1459 Q968 1449 1041.5 1422.5 Q1115 1396 1160.5 1351 Q1206 1306 1232.5 1233.5 Q1259 1161 1259 1062 Q1259 770 994 678 Q1048 617 1128 452 L1346 0 L1050 0 L879 383 Q782 589 759 627 Q742 628 646 628 L419 630 L419 0 L151 0 Z M718 824 Q874 824 942 879.5 Q1010 935 1010 1058 Q1010 1166 941 1217 Q872 1268 730 1268 L419 1268 L419 825 Q434 825 568 824.5 Q702 824 718 824 Z "/>
        <glyph glyph-name="uni0211" unicode="&#x211;" horiz-adv-x="798"
               d="M176 1248 L-139 1587 L136 1587 L347 1248 L176 1248 Z M540 1248 L243 1587 L501 1587 L728 1248 L540 1248 Z M134 0 L134 1099 L354 1099 L388 931 Q496 1104 701 1104 Q744 1104 771 1100 L767 881 Q727 887 684 887 Q539 887 467.5 810 Q396 733 396 596 L396 0 L134 0 Z "/>
        <glyph glyph-name="uni0212" unicode="&#x212;" horiz-adv-x="1394"
               d="M458 1608 Q458 1721 545 1784.5 Q632 1848 751 1848 Q826 1848 890 1822.5 Q954 1797 996.5 1741 Q1039 1685 1039 1608 L872 1608 Q872 1660 834.5 1688 Q797 1716 747 1716 Q697 1716 661 1687.5 Q625 1659 625 1608 L458 1608 Z M151 0 L151 1469 L694 1469 Q805 1469 886.5 1459 Q968 1449 1041.5 1422.5 Q1115 1396 1160.5 1351 Q1206 1306 1232.5 1233.5 Q1259 1161 1259 1062 Q1259 770 994 678 Q1048 617 1128 452 L1346 0 L1050 0 L879 383 Q782 589 759 627 Q742 628 646 628 L419 630 L419 0 L151 0 Z M718 824 Q874 824 942 879.5 Q1010 935 1010 1058 Q1010 1166 941 1217 Q872 1268 730 1268 L419 1268 L419 825 Q434 825 568 824.5 Q702 824 718 824 Z "/>
        <glyph glyph-name="uni0213" unicode="&#x213;" horiz-adv-x="798"
               d="M162 1248 Q162 1361 249 1424.5 Q336 1488 455 1488 Q530 1488 594 1462.5 Q658 1437 700.5 1381 Q743 1325 743 1248 L576 1248 Q576 1300 538.5 1328 Q501 1356 451 1356 Q401 1356 365 1327.5 Q329 1299 329 1248 L162 1248 Z M134 0 L134 1099 L354 1099 L388 931 Q496 1104 701 1104 Q744 1104 771 1100 L767 881 Q727 887 684 887 Q539 887 467.5 810 Q396 733 396 596 L396 0 L134 0 Z "/>
        <glyph glyph-name="uni0214" unicode="&#x214;" horiz-adv-x="1468"
               d="M458 1608 L143 1947 L418 1947 L629 1608 L458 1608 Z M822 1608 L525 1947 L783 1947 L1010 1608 L822 1608 Z M730 -21 Q442 -21 293 122.5 Q144 266 144 527 L144 1465 L416 1465 L416 550 Q416 367 490.5 283 Q565 199 735 199 Q902 199 977 283.5 Q1052 368 1052 551 L1052 1465 L1323 1465 L1323 525 Q1323 266 1171 122.5 Q1019 -21 730 -21 Z "/>
        <glyph glyph-name="uni0215" unicode="&#x215;" horiz-adv-x="1163"
               d="M306 1248 L-9 1587 L266 1587 L477 1248 L306 1248 Z M670 1248 L373 1587 L631 1587 L858 1248 L670 1248 Z M926 86.5 Q795 -21 581 -21 Q367 -21 236.5 86 Q106 193 106 400 L106 1099 L369 1099 L369 410 Q369 287 420.5 232 Q472 177 584 177 Q694 177 744.5 231.5 Q795 286 795 410 L795 1099 L1057 1099 L1057 400 Q1057 194 926 86.5 Z "/>
        <glyph glyph-name="uni0216" unicode="&#x216;" horiz-adv-x="1468"
               d="M443 1608 Q443 1721 530 1784.5 Q617 1848 736 1848 Q811 1848 875 1822.5 Q939 1797 981.5 1741 Q1024 1685 1024 1608 L857 1608 Q857 1660 819.5 1688 Q782 1716 732 1716 Q682 1716 646 1687.5 Q610 1659 610 1608 L443 1608 Z M730 -21 Q442 -21 293 122.5 Q144 266 144 527 L144 1465 L416 1465 L416 550 Q416 367 490.5 283 Q565 199 735 199 Q902 199 977 283.5 Q1052 368 1052 551 L1052 1465 L1323 1465 L1323 525 Q1323 266 1171 122.5 Q1019 -21 730 -21 Z "/>
        <glyph glyph-name="uni0217" unicode="&#x217;" horiz-adv-x="1163"
               d="M291 1248 Q291 1361 378 1424.5 Q465 1488 584 1488 Q659 1488 723 1462.5 Q787 1437 829.5 1381 Q872 1325 872 1248 L705 1248 Q705 1300 667.5 1328 Q630 1356 580 1356 Q530 1356 494 1327.5 Q458 1299 458 1248 L291 1248 Z M926 86.5 Q795 -21 581 -21 Q367 -21 236.5 86 Q106 193 106 400 L106 1099 L369 1099 L369 410 Q369 287 420.5 232 Q472 177 584 177 Q694 177 744.5 231.5 Q795 286 795 410 L795 1099 L1057 1099 L1057 400 Q1057 194 926 86.5 Z "/>
        <glyph glyph-name="uni0218" unicode="&#x218;" horiz-adv-x="1189"
               d="M465 -640 L560 -142 L745 -142 L601 -640 L465 -640 Z M569 -20 Q304 -20 94 102 L160 317 Q254 265 364.5 233 Q475 201 580 201 Q709 201 775 256.5 Q841 312 841 416 Q841 554 657 607 Q644 611 584 628.5 Q524 646 471.5 662.5 Q419 679 396 688 Q101 792 101 1076 Q101 1275 242.5 1383 Q384 1491 618 1491 Q883 1491 1075 1382 L993 1184 Q797 1272 629 1272 Q508 1272 446.5 1229.5 Q385 1187 381 1088 Q381 966 502 929 Q526 920 620 890 Q714 860 742 851 Q943 785 1029.5 687 Q1116 589 1116 414 Q1116 205 968 92.5 Q820 -20 569 -20 Z "/>
        <glyph glyph-name="uni0219" unicode="&#x219;" horiz-adv-x="985"
               d="M363 -640 L458 -142 L643 -142 L499 -640 L363 -640 Z M484 -20 Q241 -20 95 63 L122 260 Q188 224 290 195.5 Q392 167 476 167 Q563 167 611.5 199.5 Q660 232 661 295 Q661 352 615.5 385 Q570 418 442 467 Q398 483 385 488 Q233 547 166 619.5 Q99 692 99 816 Q99 966 207.5 1046 Q316 1126 510 1126 Q720 1126 879 1047 L814 866 Q657 939 515 939 Q436 939 391.5 912.5 Q347 886 347 832 Q347 781 390 752.5 Q433 724 558 678 Q562 677 584 669 Q606 661 618 656 Q769 601 840 524.5 Q911 448 911 325 Q910 160 799 70 Q688 -20 484 -20 Z "/>
        <glyph glyph-name="uni021A" unicode="&#x21a;" horiz-adv-x="1152"
               d="M436 -620 L531 -122 L716 -122 L572 -620 L436 -620 Z M441 0 L441 1248 L14 1248 L14 1465 L1138 1465 L1138 1248 L713 1248 L713 0 L441 0 Z "/>
        <glyph glyph-name="uni021B" unicode="&#x21b;" horiz-adv-x="803"
               d="M242 -635 L337 -137 L522 -137 L378 -635 L242 -635 Z M572 -15 Q460 -15 385.5 11.5 Q311 38 269 95 Q227 152 209.5 229.5 Q192 307 192 421 L192 940 L12 940 L22 1082 L210 1099 L294 1397 L454 1398 L454 1099 L727 1099 L727 940 L454 940 L454 416 Q454 291 490 238 Q526 185 623 185 Q680 185 745 195 L752 7 Q750 7 727.5 2.5 Q705 -2 684.5 -5.5 Q664 -9 632 -12 Q600 -15 572 -15 Z "/>
        <glyph glyph-name="uni0237" unicode="&#x237;" horiz-adv-x="527"
               d="M-38 -364 L-43 -167 L-8 -167 Q54 -167 89.5 -157 Q125 -147 144 -118 Q163 -89 168 -52 Q173 -15 173 55 L173 1089 L410 1089 L410 98 Q410 -27 393 -108.5 Q376 -190 331.5 -250 Q287 -310 206.5 -337 Q126 -364 2 -364 L-38 -364 Z "/>
        <glyph glyph-name="circumflex" unicode="&#x2c6;" horiz-adv-x="775"
               d="M47 1163 L297 1546 L505 1546 L756 1163 L572 1163 L398 1381 L226 1163 L47 1163 Z "/>
        <glyph glyph-name="caron" unicode="&#x2c7;" horiz-adv-x="772"
               d="M302 1193 L40 1546 L238 1546 L399 1350 L563 1546 L766 1546 L504 1193 L302 1193 Z "/>
        <glyph glyph-name="breve" unicode="&#x2d8;" horiz-adv-x="710"
               d="M563.5 1293 Q484 1229 352 1229 Q220 1229 140.5 1293 Q61 1357 61 1481 L228 1481 Q228 1430 257.5 1407.5 Q287 1385 352 1385 Q417 1385 446.5 1407.5 Q476 1430 476 1481 L643 1481 Q643 1357 563.5 1293 Z "/>
        <glyph glyph-name="dotaccent" unicode="&#x2d9;" horiz-adv-x="539"
               d="M157 1249 L157 1465 L358 1465 L358 1249 L157 1249 Z "/>
        <glyph glyph-name="ring" unicode="&#x2da;" horiz-adv-x="662"
               d="M251 1283 Q279 1251 330 1251 Q381 1251 408.5 1283 Q436 1315 436 1361 Q436 1406 408 1439.5 Q380 1473 330 1473 Q279 1473 251 1440.5 Q223 1408 223 1361 Q223 1315 251 1283 Z M490 1218 Q430 1158 330 1158 Q230 1158 169.5 1218 Q109 1278 109 1362 Q109 1445 168.5 1503.5 Q228 1562 330 1562 Q431 1562 490.5 1503.5 Q550 1445 550 1362 Q550 1278 490 1218 Z "/>
        <glyph glyph-name="ogonek" unicode="&#x2db;" horiz-adv-x="577"
               d="M321 -392 Q231 -392 172.5 -348 Q114 -304 114 -220 Q114 -74 305 34 L413 34 Q289 -58 289 -165 Q289 -199 311.5 -225.5 Q334 -252 371 -252 Q385 -252 401.5 -249.5 Q418 -247 431.5 -243.5 Q445 -240 460 -235 Q475 -230 484 -226.5 Q493 -223 502.5 -219 Q512 -215 513 -215 L513 -355 Q418 -392 321 -392 Z "/>
        <glyph glyph-name="tilde" unicode="&#x2dc;" horiz-adv-x="786"
               d="M46 1230 Q46 1266 48.5 1295 Q51 1324 61.5 1358 Q72 1392 90 1415 Q108 1438 140.5 1453.5 Q173 1469 218 1469 Q276 1469 347 1448 Q418 1427 471 1406 Q524 1385 539 1385 Q586 1385 586 1469 L733 1469 Q733 1434 731 1407 Q729 1380 719 1344.5 Q709 1309 692.5 1286 Q676 1263 643.5 1246.5 Q611 1230 567 1230 Q508 1230 389 1275 Q270 1320 240 1320 Q191 1320 190 1230 L46 1230 Z "/>
        <glyph glyph-name="hungarumlaut" unicode="&#x2dd;" horiz-adv-x="982"
               d="M150 1155 L396 1516 L622 1516 L284 1155 L150 1155 Z M461 1155 L708 1516 L933 1516 L595 1155 L461 1155 Z "/>
        <glyph glyph-name="uni0307" unicode="&#x307;" horiz-adv-x="515"
               d="M157 1222 L157 1438 L358 1438 L358 1222 L157 1222 Z "/>
        <glyph glyph-name="uni030F" unicode="&#x30f;" horiz-adv-x="982"
               d="M316 1197 L1 1536 L276 1536 L487 1197 L316 1197 Z M680 1197 L383 1536 L641 1536 L868 1197 L680 1197 Z "/>
        <glyph glyph-name="uni0311" unicode="&#x311;" horiz-adv-x="713"
               d="M63 1229 Q63 1342 150 1405.5 Q237 1469 356 1469 Q431 1469 495 1443.5 Q559 1418 601.5 1362 Q644 1306 644 1229 L477 1229 Q477 1281 439.5 1309 Q402 1337 352 1337 Q302 1337 266 1308.5 Q230 1280 230 1229 L63 1229 Z "/>
        <glyph glyph-name="uni0326" unicode="&#x326;" horiz-adv-x="632"
               d="M109 -658 L219 -141 L444 -141 L277 -658 L109 -658 Z "/>
        <glyph glyph-name="pi" unicode="&#x3c0;" horiz-adv-x="1421"
               d="M1154 -7 Q1098 -7 1056 8.5 Q1014 24 988 51 Q962 78 946.5 119.5 Q931 161 925 206.5 Q919 252 919 312 L921 929 L566 929 Q538 243 409 1 L195 1 Q243 98 279.5 322.5 Q316 547 329.5 705 Q343 863 345 934 Q261 930 203 912 Q145 894 84 858 L58 1033 Q121 1079 201 1093 Q281 1107 426 1107 L1321 1107 L1321 927 L1125 927 L1125 321 Q1125 253 1138.5 223 Q1152 193 1196 193 Q1226 193 1300 216 L1286 7 Q1207 -7 1154 -7 Z "/>
        <glyph glyph-name="uni1E02" unicode="&#x1e02;" horiz-adv-x="1333"
               d="M605 1588 L605 1804 L806 1804 L806 1588 L605 1588 Z M158 0 L158 1465 L615 1465 Q906 1465 1049 1380 Q1192 1295 1192 1097 Q1192 1065 1188 1034 Q1184 1003 1170 963.5 Q1156 924 1133 892 Q1110 860 1069 829.5 Q1028 799 973 782 Q1109 749 1181 655.5 Q1253 562 1253 425 Q1253 218 1106.5 109 Q960 0 701 0 L158 0 Z M429 196 L664 196 Q976 196 976 440 Q976 563 898 617 Q820 671 657 671 L429 671 L429 196 Z M429 860 L661 860 Q930 860 930 1065 Q930 1180 852.5 1223 Q775 1266 606 1266 L429 1266 L429 860 Z "/>
        <glyph glyph-name="uni1E03" unicode="&#x1e03;" horiz-adv-x="1258"
               d="M555 1643 L555 1859 L756 1859 L756 1643 L555 1643 Z M722 -21 Q610 -21 518.5 28.5 Q427 78 386 141 L360 1 L133 1 L133 1504 L395 1521 L395 1181 Q395 1082 389 956 Q519 1126 728 1126 Q938 1126 1057.5 970 Q1177 814 1177 562 Q1177 300 1053.5 139.5 Q930 -21 722 -21 Z M659 178 Q776 178 846 277 Q916 376 916 558 Q916 741 847.5 835 Q779 929 662 929 Q396 929 393 570 Q393 368 460 273 Q527 178 659 178 Z "/>
        <glyph glyph-name="uni1E0A" unicode="&#x1e0a;" horiz-adv-x="1514"
               d="M687 1608 L687 1824 L888 1824 L888 1608 L687 1608 Z M430 217 L624 217 Q875 217 1006 348.5 Q1137 480 1137 732 Q1137 1002 1002 1124.5 Q867 1247 595 1247 L430 1247 L430 217 Z M159 0 L159 1465 L583 1465 Q775 1465 927 1421 Q1079 1377 1188.5 1288.5 Q1298 1200 1356.5 1060.5 Q1415 921 1415 738 Q1415 383 1201 191.5 Q987 0 608 0 L159 0 Z "/>
        <glyph glyph-name="uni1E0B" unicode="&#x1e0b;" horiz-adv-x="1259"
               d="M502 1643 L502 1859 L703 1859 L703 1643 L502 1643 Z M542 -21 Q327 -21 204 137 Q81 295 81 559 Q81 815 203.5 970.5 Q326 1126 541 1126 Q775 1126 872 960 Q862 1058 862 1149 L862 1504 L1124 1521 L1124 0 L897 0 L868 150 Q851 123 836.5 103.5 Q822 84 794 58.5 Q766 33 733.5 17.5 Q701 2 651.5 -9.5 Q602 -21 542 -21 Z M604 178 Q868 178 872 537 Q872 740 804 833 Q736 926 601 926 Q483 926 412.5 831.5 Q342 737 342 553 Q342 370 412.5 274 Q483 178 604 178 Z "/>
        <glyph glyph-name="uni1E1E" unicode="&#x1e1e;" horiz-adv-x="1103"
               d="M491 1608 L491 1824 L692 1824 L692 1608 L491 1608 Z M158 0 L158 1465 L1025 1465 L1015 1250 L427 1250 L427 834 L986 834 L986 621 L427 621 L427 0 L158 0 Z "/>
        <glyph glyph-name="uni1E1F" unicode="&#x1e1f;" horiz-adv-x="760"
               d="M300 1674 L300 1890 L501 1890 L501 1674 L300 1674 Z M203 0 L203 925 L29 925 L46 1079 L203 1099 L203 1160 Q203 1260 221.5 1331 Q240 1402 282 1452.5 Q324 1503 394.5 1527.5 Q465 1552 568 1552 Q668 1552 772 1533 L749 1338 Q667 1349 620 1349 Q536 1349 500.5 1308.5 Q465 1268 465 1174 L465 1099 L723 1099 L723 925 L465 925 L465 0 L203 0 Z "/>
        <glyph glyph-name="uni1E40" unicode="&#x1e40;" horiz-adv-x="1841"
               d="M820 1608 L820 1824 L1021 1824 L1021 1608 L820 1608 Z M158 0 L158 1465 L478 1465 L921 407 L1367 1465 L1683 1465 L1683 0 L1433 0 L1433 724 L1441 1139 L1404 1029 L1029 100 L797 100 L430 1034 L393 1144 L402 720 L402 0 L158 0 Z "/>
        <glyph glyph-name="uni1E41" unicode="&#x1e41;" horiz-adv-x="1911"
               d="M859 1248 L859 1464 L1060 1464 L1060 1248 L859 1248 Z M133 0 L133 1099 L345 1099 L375 959 Q395 984 413.5 1003.5 Q432 1023 464.5 1047.5 Q497 1072 533.5 1088 Q570 1104 623.5 1115 Q677 1126 738 1126 Q869 1126 947.5 1073 Q1026 1020 1058 949 Q1117 1034 1211 1080 Q1305 1126 1420 1126 Q1609 1126 1697.5 1019 Q1786 912 1786 702 L1786 0 L1523 0 L1523 624 Q1523 785 1487.5 856.5 Q1452 928 1352 928 Q1199 928 1132 790 Q1104 729 1094 643 L1094 0 L832 0 L832 636 Q832 783 793 855 Q754 927 652 927 Q569 927 509 885 Q449 843 418 775 Q395 674 395 533 L395 0 L133 0 Z "/>
        <glyph glyph-name="uni1E56" unicode="&#x1e56;" horiz-adv-x="1245"
               d="M575 1608 L575 1824 L776 1824 L776 1608 L575 1608 Z M151 0 L151 1469 L639 1469 Q812 1469 935 1424.5 Q1058 1380 1129.5 1280 Q1201 1180 1201 1029 Q1201 924 1174 842.5 Q1147 761 1085 694.5 Q1023 628 910.5 592 Q798 556 639 556 Q503 556 418 564 L418 0 L151 0 Z M610 752 Q693 752 754.5 768 Q816 784 850.5 809 Q885 834 905.5 871 Q926 908 932.5 942.5 Q939 977 939 1020 Q939 1141 861 1204 Q783 1267 641 1267 L418 1267 L418 754 Q430 752 610 752 Z "/>
        <glyph glyph-name="uni1E57" unicode="&#x1e57;" horiz-adv-x="1256"
               d="M553 1249 L553 1465 L754 1465 L754 1249 L553 1249 Z M133 -457 L133 1099 L358 1099 L386 945 Q440 1032 529.5 1079.5 Q619 1127 729 1127 Q864 1127 966.5 1052 Q1069 977 1122 847.5 Q1175 718 1175 555 Q1175 300 1051.5 139.5 Q928 -21 717 -21 Q613 -21 528.5 20.5 Q444 62 387 133 Q395 -11 395 -29 L395 -444 L133 -457 Z M661 179 Q778 179 845.5 277 Q913 375 913 557 Q913 742 845 835 Q777 928 656 928 Q396 928 393 574 Q393 370 460.5 274.5 Q528 179 661 179 Z "/>
        <glyph glyph-name="uni1E60" unicode="&#x1e60;" horiz-adv-x="1189"
               d="M505 1613 L505 1829 L706 1829 L706 1613 L505 1613 Z M569 -20 Q304 -20 94 102 L160 317 Q254 265 364.5 233 Q475 201 580 201 Q709 201 775 256.5 Q841 312 841 416 Q841 554 657 607 Q644 611 584 628.5 Q524 646 471.5 662.5 Q419 679 396 688 Q101 792 101 1076 Q101 1275 242.5 1383 Q384 1491 618 1491 Q883 1491 1075 1382 L993 1184 Q797 1272 629 1272 Q508 1272 446.5 1229.5 Q385 1187 381 1088 Q381 966 502 929 Q526 920 620 890 Q714 860 742 851 Q943 785 1029.5 687 Q1116 589 1116 414 Q1116 205 968 92.5 Q820 -20 569 -20 Z "/>
        <glyph glyph-name="uni1E61" unicode="&#x1e61;" horiz-adv-x="985"
               d="M403 1248 L403 1464 L604 1464 L604 1248 L403 1248 Z M484 -20 Q241 -20 95 63 L122 260 Q188 224 290 195.5 Q392 167 476 167 Q563 167 611.5 199.5 Q660 232 661 295 Q661 352 615.5 385 Q570 418 442 467 Q398 483 385 488 Q233 547 166 619.5 Q99 692 99 816 Q99 966 207.5 1046 Q316 1126 510 1126 Q720 1126 879 1047 L814 866 Q657 939 515 939 Q436 939 391.5 912.5 Q347 886 347 832 Q347 781 390 752.5 Q433 724 558 678 Q562 677 584 669 Q606 661 618 656 Q769 601 840 524.5 Q911 448 911 325 Q910 160 799 70 Q688 -20 484 -20 Z "/>
        <glyph glyph-name="uni1E6A" unicode="&#x1e6a;" horiz-adv-x="1152"
               d="M475 1608 L475 1824 L676 1824 L676 1608 L475 1608 Z M441 0 L441 1248 L14 1248 L14 1465 L1138 1465 L1138 1248 L713 1248 L713 0 L441 0 Z "/>
        <glyph glyph-name="uni1E6B" unicode="&#x1e6b;" horiz-adv-x="803"
               d="M281 1520 L281 1736 L482 1736 L482 1520 L281 1520 Z M572 -15 Q460 -15 385.5 11.5 Q311 38 269 95 Q227 152 209.5 229.5 Q192 307 192 421 L192 940 L12 940 L22 1082 L210 1099 L294 1397 L454 1398 L454 1099 L727 1099 L727 940 L454 940 L454 416 Q454 291 490 238 Q526 185 623 185 Q680 185 745 195 L752 7 Q750 7 727.5 2.5 Q705 -2 684.5 -5.5 Q664 -9 632 -12 Q600 -15 572 -15 Z "/>
        <glyph glyph-name="Wgrave" unicode="&#x1e80;" horiz-adv-x="2051"
               d="M941 1608 L610 1991 L916 1991 L1104 1608 L941 1608 Z M408 0 L10 1465 L280 1465 L564 325 L898 1458 L1157 1458 L1474 321 L1764 1465 L2034 1465 L1624 0 L1343 0 L1030 1073 L687 0 L408 0 Z "/>
        <glyph glyph-name="wgrave" unicode="&#x1e81;" horiz-adv-x="1713"
               d="M775 1248 L444 1631 L750 1631 L938 1248 L775 1248 Z M346 0 L13 1099 L280 1099 L491 293 Q498 316 605 686 Q712 1056 726 1099 L995 1099 Q1008 1057 1110 690 Q1212 323 1220 296 L1437 1099 L1700 1099 L1356 0 L1095 0 Q1082 43 973.5 435 Q865 827 856 858 Q836 785 728.5 418 Q621 51 604 0 L346 0 Z "/>
        <glyph glyph-name="Wacute" unicode="&#x1e82;" horiz-adv-x="2051"
               d="M945 1608 L1116 1991 L1415 1991 L1100 1608 L945 1608 Z M408 0 L10 1465 L280 1465 L564 325 L898 1458 L1157 1458 L1474 321 L1764 1465 L2034 1465 L1624 0 L1343 0 L1030 1073 L687 0 L408 0 Z "/>
        <glyph glyph-name="wacute" unicode="&#x1e83;" horiz-adv-x="1713"
               d="M779 1248 L950 1631 L1249 1631 L934 1248 L779 1248 Z M346 0 L13 1099 L280 1099 L491 293 Q498 316 605 686 Q712 1056 726 1099 L995 1099 Q1008 1057 1110 690 Q1212 323 1220 296 L1437 1099 L1700 1099 L1356 0 L1095 0 Q1082 43 973.5 435 Q865 827 856 858 Q836 785 728.5 418 Q621 51 604 0 L346 0 Z "/>
        <glyph glyph-name="Wdieresis" unicode="&#x1e84;" horiz-adv-x="2051"
               d="M714 1608 L714 1862 L909 1862 L909 1608 L714 1608 Z M1135 1608 L1135 1862 L1331 1862 L1331 1608 L1135 1608 Z M408 0 L10 1465 L280 1465 L564 325 L898 1458 L1157 1458 L1474 321 L1764 1465 L2034 1465 L1624 0 L1343 0 L1030 1073 L687 0 L408 0 Z "/>
        <glyph glyph-name="wdieresis" unicode="&#x1e85;" horiz-adv-x="1713"
               d="M548 1248 L548 1502 L743 1502 L743 1248 L548 1248 Z M969 1248 L969 1502 L1165 1502 L1165 1248 L969 1248 Z M346 0 L13 1099 L280 1099 L491 293 Q498 316 605 686 Q712 1056 726 1099 L995 1099 Q1008 1057 1110 690 Q1212 323 1220 296 L1437 1099 L1700 1099 L1356 0 L1095 0 Q1082 43 973.5 435 Q865 827 856 858 Q836 785 728.5 418 Q621 51 604 0 L346 0 Z "/>
        <glyph glyph-name="Ygrave" unicode="&#x1ef2;" horiz-adv-x="1256"
               d="M545 1608 L214 1991 L520 1991 L708 1608 L545 1608 Z M492 0 L492 581 L-15 1465 L279 1465 L628 831 L979 1465 L1269 1465 L764 586 L764 0 L492 0 Z "/>
        <glyph glyph-name="ygrave" unicode="&#x1ef3;" horiz-adv-x="1116"
               d="M470 1248 L139 1631 L445 1631 L633 1248 L470 1248 Z M191 -463 Q127 -463 55 -455 L42 -252 Q88 -257 159 -257 Q250 -257 305 -221 Q360 -185 396 -93 Q400 -83 436 20 L-6 1099 L274 1099 L563 302 Q595 421 706.5 744 Q818 1067 829 1099 L1109 1099 Q652 -109 648 -119 Q577 -304 469 -383.5 Q361 -463 191 -463 Z "/>
        <glyph glyph-name="endash" unicode="&#x2013;" horiz-adv-x="1271"
               d="M89 461 L89 646 L1188 646 L1188 461 L89 461 Z "/>
        <glyph glyph-name="emdash" unicode="&#x2014;" horiz-adv-x="2151"
               d="M30 461 L30 646 L2116 646 L2116 461 L30 461 Z "/>
        <glyph glyph-name="quoteleft" unicode="&#x2018;" horiz-adv-x="442"
               d="M386 1466 L278 973 L60 973 L219 1466 L386 1466 Z "/>
        <glyph glyph-name="quoteright" unicode="&#x2019;" horiz-adv-x="442"
               d="M60 973 L168 1466 L386 1466 L227 973 L60 973 Z "/>
        <glyph glyph-name="quotesinglbase" unicode="&#x201a;" horiz-adv-x="557"
               d="M116 -280 L224 212 L444 212 L285 -280 L116 -280 Z "/>
        <glyph glyph-name="quotedblleft" unicode="&#x201c;" horiz-adv-x="953"
               d="M795 1466 L687 973 L477 973 L625 1466 L795 1466 Z M495 1466 L395 973 L176 973 L336 1466 L495 1466 Z "/>
        <glyph glyph-name="quotedblright" unicode="&#x201d;" horiz-adv-x="953"
               d="M176 973 L284 1466 L494 1466 L346 973 L176 973 Z M476 973 L576 1466 L795 1466 L635 973 L476 973 Z "/>
        <glyph glyph-name="quotedblbase" unicode="&#x201e;" horiz-adv-x="1005"
               d="M158 -280 L269 212 L500 212 L331 -280 L158 -280 Z M512 -280 L630 212 L855 212 L692 -280 L512 -280 Z "/>
        <glyph glyph-name="dagger" unicode="&#x2020;" horiz-adv-x="979"
               d="M384 115 L384 970 L67 970 L67 1139 L384 1139 L384 1486 L582 1486 L582 1139 L916 1139 L916 970 L572 970 L572 115 L384 115 Z "/>
        <glyph glyph-name="daggerdbl" unicode="&#x2021;" horiz-adv-x="996"
               d="M403 -27 L403 367 L126 367 L126 529 L403 529 L402 960 L129 960 L129 1123 L402 1123 L402 1477 L602 1477 L602 1123 L879 1123 L879 960 L602 960 L603 529 L875 529 L875 367 L603 367 L603 -27 L403 -27 Z "/>
        <glyph glyph-name="bullet" unicode="&#x2022;" horiz-adv-x="995"
               d="M753.5 453.5 Q651 355 497 355 Q343 355 243 451 Q143 547 143 692 Q143 838 246.5 937.5 Q350 1037 503 1037 Q655 1037 755.5 940.5 Q856 844 856 699 Q856 552 753.5 453.5 Z "/>
        <glyph glyph-name="guilsinglleft" unicode="&#x2039;" horiz-adv-x="584"
               d="M321 174 L55 568 L327 965 L529 965 L268 568 L522 174 L321 174 Z "/>
        <glyph glyph-name="guilsinglright" unicode="&#x203a;" horiz-adv-x="584"
               d="M56 174 L316 569 L63 965 L263 965 L531 569 L257 174 L56 174 Z "/>
        <glyph glyph-name="fraction" unicode="&#x2044;" horiz-adv-x="1179"
               d="M41 0 L941 1471 L1137 1471 L239 0 L41 0 Z "/>
        <glyph glyph-name="uni2074" unicode="&#x2074;" horiz-adv-x="867"
               d="M436 627 L436 800 L84 800 L84 919 L435 1446 L595 1446 L595 953 L697 953 L711 800 L594 800 L593 627 L436 627 Z M284 953 L434 953 L434 1197 L284 953 Z "/>
        <glyph glyph-name="Euro" unicode="&#x20ac;" horiz-adv-x="1210"
               d="M773 -20 Q646 -20 545.5 23 Q445 66 380 142.5 Q315 219 275 311.5 Q235 404 217 515 L81 515 L104 667 L197 667 Q197 669 197.5 698.5 Q198 728 198 730 Q198 735 199 770.5 Q200 806 200 811 L78 811 L105 957 L223 957 Q245 1067 290.5 1158.5 Q336 1250 405.5 1322 Q475 1394 576 1434.5 Q677 1475 800 1475 Q1003 1475 1131 1347 L1084 1152 Q1032 1225 959.5 1263 Q887 1301 808 1301 Q671 1301 570.5 1206.5 Q470 1112 451 958 L1019 958 L993 811 L426 811 Q426 806 425 769.5 Q424 733 424 700 L423 667 L984 667 L963 515 L446 515 Q475 354 570 263 Q665 172 802 172 Q963 172 1114 294 L1113 86 Q962 -20 773 -20 Z "/>
        <glyph glyph-name="trademark" unicode="&#x2122;" horiz-adv-x="1822"
               d="M801 667 L801 1470 L1017 1470 L1235 923 L1463 1470 L1663 1470 L1663 667 L1502 667 L1502 1216 L1280 685 L1175 685 L965 1210 L965 667 L801 667 Z M322 667 L322 1324 L71 1324 L70 1470 L735 1470 L735 1324 L489 1324 L489 667 L322 667 Z "/>
        <glyph glyph-name="partialdiff" unicode="&#x2202;" horiz-adv-x="1174"
               d="M499 -25 Q365 -25 270 37.5 Q175 100 130.5 203.5 Q86 307 86 442 Q86 538 108.5 628 Q131 718 174.5 794 Q218 870 278.5 926.5 Q339 983 419 1015 Q499 1047 590 1047 Q683 1047 760 1004 Q837 961 871 917 Q871 919 870.5 935 Q870 951 870 955 Q868 1050 850.5 1127.5 Q833 1205 798 1264.5 Q763 1324 705.5 1356.5 Q648 1389 572 1389 Q518 1389 462 1369.5 Q406 1350 371 1328.5 Q336 1307 288 1273 L273 1466 Q353 1515 428.5 1542.5 Q504 1570 596 1570 Q702 1570 785 1534.5 Q868 1499 923 1437.5 Q978 1376 1013.5 1286.5 Q1049 1197 1064.5 1094.5 Q1080 992 1080 870 Q1080 738 1059.5 613 Q1039 488 993.5 371 Q948 254 881.5 167 Q815 80 716.5 27.5 Q618 -25 499 -25 Z M504 158 Q583 158 647 204 Q711 250 752 327.5 Q793 405 818 492 Q843 579 854 674 Q826 759 765.5 813 Q705 867 614 867 Q518 867 443.5 806 Q369 745 331 648.5 Q293 552 293 440 Q293 312 347 235 Q401 158 504 158 Z "/>
        <glyph glyph-name="Delta" unicode="&#x2206;" horiz-adv-x="1277"
               d="M97 168 L97 288 L569 1495 L719 1495 L1187 289 L1186 168 L97 168 Z M281 329 L1002 328 L644 1296 L281 329 Z "/>
        <glyph glyph-name="product" unicode="&#x220f;" horiz-adv-x="1529"
               d="M220 -247 L220 1450 L1327 1450 L1327 -247 L1107 -247 L1107 1257 L438 1257 L438 -247 L220 -247 Z "/>
        <glyph glyph-name="summation" unicode="&#x2211;" horiz-adv-x="1269"
               d="M60 -336 L60 -216 L671 567 L81 1333 L81 1458 L1181 1458 L1181 1268 L382 1268 L921 575 L354 -140 L1224 -140 L1224 -336 L60 -336 Z "/>
        <glyph glyph-name="radical" unicode="&#x221a;" horiz-adv-x="1288"
               d="M592 -156 L271 682 L102 654 L76 811 L396 871 L627 236 L659 134 Q677 209 1040 1634 L1214 1634 L753 -156 L592 -156 Z "/>
        <glyph glyph-name="infinity" unicode="&#x221e;" horiz-adv-x="1695"
               d="M470 241 Q306 241 203.5 356.5 Q101 472 101 641 Q101 796 208 895.5 Q315 995 487 995 Q546 995 599.5 975 Q653 955 699 916 Q745 877 778 840 Q811 803 850 750 Q889 804 923 842 Q957 880 1004 918.5 Q1051 957 1108 976.5 Q1165 996 1230 996 Q1395 996 1495 893 Q1595 790 1595 624 Q1595 459 1490.5 350 Q1386 241 1229 241 Q1112 241 1024 305.5 Q936 370 850 488 Q810 434 775.5 395.5 Q741 357 693.5 319 Q646 281 589.5 261 Q533 241 470 241 Z M1232 407 Q1287 407 1326 429.5 Q1365 452 1384 490 Q1403 528 1411 566.5 Q1419 605 1419 647 Q1416 731 1364.5 783 Q1313 835 1229 835 Q1183 835 1140.5 817 Q1098 799 1061.5 765 Q1025 731 998.5 698.5 Q972 666 942 621 Q981 568 1006 537.5 Q1031 507 1068.5 472.5 Q1106 438 1146 422.5 Q1186 407 1232 407 Z M469 407 Q515 407 557 424.5 Q599 442 635.5 475.5 Q672 509 698.5 541 Q725 573 756 618 Q691 719 622.5 777 Q554 835 461 835 Q370 835 318.5 775 Q267 715 267 621 Q267 530 323 468.5 Q379 407 469 407 Z "/>
        <glyph glyph-name="integral" unicode="&#x222b;" horiz-adv-x="760"
               d="M251 -407 Q190 -407 100 -380 L97 -197 Q105 -201 154 -212.5 Q203 -224 225 -224 Q306 -224 331.5 -180.5 Q357 -137 357 -29 L357 1272 Q357 1340 368 1398 Q379 1456 404 1507 Q429 1558 468 1593.5 Q507 1629 565.5 1649.5 Q624 1670 698 1670 Q765 1670 848 1645 L851 1461 Q837 1466 790.5 1477 Q744 1488 722 1488 Q641 1488 614.5 1444.5 Q588 1401 588 1294 L588 -9 Q588 -95 570.5 -164.5 Q553 -234 515 -290 Q477 -346 410 -376.5 Q343 -407 251 -407 Z "/>
        <glyph glyph-name="approxequal" unicode="&#x2248;" horiz-adv-x="1312"
               d="M223 102 L134 229 Q221 443 426 443 Q536 443 693 372 Q835 305 906 305 Q967 305 1019 338 Q1071 371 1133 447 L1215 328 Q1176 240 1087.5 177 Q999 114 890 114 Q822 114 762 133.5 Q702 153 614 197 Q555 227 512 241 Q469 255 418 255 Q294 255 223 102 Z M223 516 L134 642 Q219 856 426 856 Q539 856 694 784 Q827 719 906 719 Q967 719 1019 751.5 Q1071 784 1133 860 L1214 742 Q1176 654 1087 591 Q998 528 889 528 Q821 528 761 547.5 Q701 567 613 611 Q556 640 512 654.5 Q468 669 417 669 Q293 669 223 516 Z "/>
        <glyph glyph-name="notequal" unicode="&#x2260;" horiz-adv-x="1313"
               d="M462 44 L299 68 L421 313 L154 313 L144 480 L503 480 L624 723 L154 723 L142 892 L702 892 L839 1152 Q1002 1130 1004 1130 L885 891 L1166 891 L1180 722 L805 722 L682 479 L1167 479 L1180 312 L601 312 L462 44 Z "/>
        <glyph glyph-name="lessequal" unicode="&#x2264;" horiz-adv-x="1224"
               d="M1082 225 L145 685 L145 801 L1082 1273 L1082 1083 L385 744 L1082 415 L1082 225 Z M138 2 L138 157 L1089 158 L1089 2 L138 2 Z "/>
        <glyph glyph-name="greaterequal" unicode="&#x2265;" horiz-adv-x="1224"
               d="M151 225 L151 415 L850 743 L152 1084 L152 1274 L1090 801 L1090 686 L151 225 Z M145 2 L145 158 L1094 157 L1094 2 L145 2 Z "/>
        <glyph glyph-name="lozenge" unicode="&#x25ca;" horiz-adv-x="1228"
               d="M547 -47 L98 728 L554 1505 L684 1505 L1135 729 L675 -47 L547 -47 Z M611 150 Q669 257 780 451 Q891 645 937 729 Q887 821 781 1014 Q675 1207 621 1307 Q562 1198 450.5 1003 Q339 808 295 730 Q431 477 611 150 Z "/>
        <glyph glyph-name="f_f" unicode="&#xfb00;" horiz-adv-x="1485"
               d="M203 0 L203 925 L29 925 L46 1079 L203 1099 L203 1160 Q203 1260 221.5 1331 Q240 1402 282 1452.5 Q324 1503 394.5 1527.5 Q465 1552 568 1552 Q668 1552 772 1533 L749 1338 Q667 1349 620 1349 Q536 1349 500.5 1308.5 Q465 1268 465 1174 L465 1099 L944 1099 L944 1160 Q944 1362 1026.5 1457 Q1109 1552 1309 1552 Q1407 1552 1513 1533 L1490 1338 Q1407 1349 1361 1349 Q1276 1349 1241 1308.5 Q1206 1268 1206 1174 L1206 1099 L1463 1099 L1463 925 L1206 925 L1206 0 L944 0 L944 925 L465 925 L465 0 L203 0 Z "/>
        <glyph glyph-name="fi" unicode="&#xfb01;" horiz-adv-x="1183"
               d="M183 0 L183 942 L10 942 L10 1098 L183 1098 L183 1131 Q184 1206 189.5 1258 Q195 1310 210 1360 Q225 1410 252 1441.5 Q279 1473 322.5 1497.5 Q366 1522 429 1533 Q492 1544 577 1544 L645 1544 L667 1354 L597 1354 Q544 1354 512.5 1344.5 Q481 1335 464.5 1310.5 Q448 1286 443 1254 Q438 1222 438 1166 L438 1098 L1063 1098 L1063 0 L809 0 L809 942 L438 942 L438 0 L183 0 Z M809 1259 L809 1483 L1064 1483 L1064 1259 L809 1259 Z "/>
        <glyph glyph-name="fl" unicode="&#xfb02;" horiz-adv-x="1395"
               d="M1234 -13 Q1168 -13 1116 -1.5 Q1064 10 1027 29.5 Q990 49 963.5 82 Q937 115 920.5 151.5 Q904 188 895 240.5 Q886 293 882.5 344 Q879 395 879 464 L879 1337 Q869 1338 821 1342.5 Q773 1347 731 1349.5 Q689 1352 650 1352 Q526 1352 482.5 1311 Q439 1270 438 1166 L438 1098 L675 1098 L675 942 L438 942 L438 0 L183 0 L183 942 L10 942 L10 1098 L183 1098 L183 1144 Q185 1351 284.5 1445.5 Q384 1540 609 1540 Q715 1540 921 1518 Q1127 1496 1134 1496 L1134 424 Q1134 373 1135.5 342.5 Q1137 312 1143 281 Q1149 250 1159.5 234 Q1170 218 1189 204.5 Q1208 191 1235.5 186 Q1263 181 1302 181 Q1314 181 1366 185 L1379 1 Q1377 1 1350.5 -3.5 Q1324 -8 1296 -10.5 Q1268 -13 1234 -13 Z "/>
    </font>
</svg>
