<?xml version="1.0" encoding="UTF-8"?>
<svg xmlns="http://www.w3.org/2000/svg" version="1.2">
    <font id="Oxygen Light">
        <font-face font-family="Oxygen" units-per-em="2048" ascent="2103" descent="-483" font-style="normal"
                   font-weight="300" font-stretch="normal" cap-height="1536" x-height="1024" underline-position="0"
                   underline-thickness="0"/>
        <missing-glyph horiz-adv-x="748"
                       d="M68 0 L68 1365 L612 1365 L612 0 L68 0 Z M136 68 L544 68 L544 1297 L136 1297 L136 68 Z "/>
        <glyph glyph-name="space" unicode="&#x20;" horiz-adv-x="463" d=""/>
        <glyph glyph-name="exclam" unicode="&#x21;" horiz-adv-x="650"
               d="M292 419 L233 1425 L233 1514 L410 1514 L410 1425 L358 419 L292 419 Z M325 -8 Q264 -8 233 27.5 Q202 63 202 111 Q202 158 233 193 Q264 228 325 228 Q387 228 418 193 Q449 158 449 111 Q449 63 418 27.5 Q387 -8 325 -8 Z "/>
        <glyph glyph-name="quotedbl" unicode="&#x22;" horiz-adv-x="676"
               d="M168 1034 L153 1514 L271 1514 L239 1034 L168 1034 Z M427 1034 L412 1514 L530 1514 L498 1034 L427 1034 Z "/>
        <glyph glyph-name="numbersign" unicode="&#x23;" horiz-adv-x="1108"
               d="M180 -28 L254 414 L109 414 L119 505 L270 505 L348 951 L185 951 L195 1041 L363 1041 L437 1464 L541 1464 L467 1041 L737 1041 L811 1464 L915 1464 L841 1041 L984 1041 L969 952 L826 952 L747 505 L902 505 L892 414 L732 414 L655 -28 L550 -28 L628 414 L358 414 L281 -28 L180 -28 Z M374 505 L644 505 L721 952 L452 952 L374 505 Z "/>
        <glyph glyph-name="dollar" unicode="&#x24;" horiz-adv-x="1247"
               d="M679 -23 L679 -213 L592 -213 L592 -22 Q426 -14 298.5 24 Q171 62 99 105 L147 196 Q332 96 592 84 L592 737 L499 756 Q298 796 197.5 882 Q97 968 97 1127 Q97 1223 132 1295.5 Q167 1368 233.5 1413.5 Q300 1459 389 1483.5 Q478 1508 592 1513 L592 1741 L679 1741 L679 1514 Q799 1510 912 1480 Q1025 1450 1098 1413 L1065 1315 Q1010 1345 903 1374 Q796 1403 679 1407 L679 838 L761 821 Q861 800 930.5 771 Q1000 742 1053.5 696 Q1107 650 1133 581.5 Q1159 513 1159 419 Q1159 282 1097.5 182.5 Q1036 83 929 32 Q822 -19 679 -23 Z M592 856 L592 1406 Q410 1396 319 1325.5 Q228 1255 228 1114 Q228 1019 295 961.5 Q362 904 493 876 L592 856 Z M679 720 L679 82 Q846 85 935.5 173.5 Q1025 262 1025 422 Q1025 482 1014 523 Q1003 564 973 601.5 Q943 639 885.5 664.5 Q828 690 739 708 L679 720 Z "/>
        <glyph glyph-name="ampersand" unicode="&#x26;" horiz-adv-x="1496"
               d="M638 -22 Q505 -22 406.5 9.5 Q308 41 251 97 Q194 153 167.5 223.5 Q141 294 141 380 Q141 463 164.5 532.5 Q188 602 235 658.5 Q282 715 342.5 760 Q403 805 487 849 Q450 893 433 914.5 Q416 936 389.5 971.5 Q363 1007 351.5 1030.5 Q340 1054 326 1085.5 Q312 1117 307 1148 Q302 1179 302 1213 Q302 1346 400.5 1430 Q499 1514 678 1514 Q830 1514 928.5 1432 Q1027 1350 1027 1205 Q1027 1143 1000.5 1087.5 Q974 1032 922 985 Q870 938 807.5 899.5 Q745 861 659 821 L1168 288 Q1238 363 1284 471 L1356 414 Q1314 315 1235 216 L1390 62 L1315 -6 L1161 147 Q1055 67 928.5 22.5 Q802 -22 638 -22 Z M626 74 Q758 74 886 113.5 Q1014 153 1089 219 L564 773 Q262 608 262 376 Q262 298 291.5 238.5 Q321 179 372.5 144 Q424 109 488 91.5 Q552 74 626 74 Z M601 891 Q637 909 656.5 919 Q676 929 708 947 Q740 965 758 977 Q776 989 801.5 1007.5 Q827 1026 841.5 1041.5 Q856 1057 873 1078 Q890 1099 898.5 1119.5 Q907 1140 913 1165 Q919 1190 919 1217 Q919 1311 853 1362.5 Q787 1414 690 1414 Q543 1414 478 1360 Q413 1306 413 1214 Q413 1139 471 1047.5 Q529 956 601 891 Z "/>
        <glyph glyph-name="quotesingle" unicode="&#x27;" horiz-adv-x="415"
               d="M152 1020 L137 1514 L267 1514 L247 1020 L152 1020 Z "/>
        <glyph glyph-name="parenleft" unicode="&#x28;" horiz-adv-x="590"
               d="M379 -239 Q252 -63 180 166 Q108 395 108 627 Q108 1111 376 1514 L495 1514 Q355 1277 298.5 1070 Q242 863 242 633 Q242 182 495 -239 L379 -239 Z "/>
        <glyph glyph-name="parenright" unicode="&#x29;" horiz-adv-x="590"
               d="M95 -239 Q348 183 348 633 Q348 862 291 1069.5 Q234 1277 94 1514 L212 1514 Q482 1104 482 627 Q482 394 409.5 166.5 Q337 -61 210 -239 L95 -239 Z "/>
        <glyph glyph-name="asterisk" unicode="&#x2a;" horiz-adv-x="1106"
               d="M352 573 L218 655 L468 1005 L99 1092 L143 1240 L506 1077 L468 1514 L635 1514 L598 1077 L962 1240 L1007 1093 L633 1005 Q652 976 738.5 862.5 Q825 749 888 655 Q853 630 821 614 Q789 598 756 574 L548 961 L352 573 Z "/>
        <glyph glyph-name="plus" unicode="&#x2b;" horiz-adv-x="1101"
               d="M500 157 L500 600 L108 600 L108 700 L502 700 L502 1135 L610 1135 L610 700 L992 700 L992 600 L610 600 L610 157 L500 157 Z "/>
        <glyph glyph-name="comma" unicode="&#x2c;" horiz-adv-x="504"
               d="M130 -275 L210 235 L339 235 L339 194 Q298 16 202 -275 L130 -275 Z "/>
        <glyph glyph-name="hyphen" unicode="&#x2d;" horiz-adv-x="670" d="M93 531 L93 641 L577 641 L577 531 L93 531 Z "/>
        <glyph glyph-name="period" unicode="&#x2e;" horiz-adv-x="517"
               d="M290 -8 Q237 -8 210 23 Q183 54 183 96 Q183 137 210 168 Q237 199 290 199 Q345 199 372 168 Q399 137 399 96 Q399 54 372 23 Q345 -8 290 -8 Z "/>
        <glyph glyph-name="slash" unicode="&#x2f;" horiz-adv-x="953"
               d="M49 -174 L750 1514 L863 1514 L161 -174 L49 -174 Z "/>
        <glyph glyph-name="zero" unicode="0" horiz-adv-x="1216"
               d="M608 91 Q761 91 855 274.5 Q949 458 949 768 Q949 1072 855 1252.5 Q761 1433 609 1433 Q456 1433 362 1252 Q268 1071 269 766 Q269 456 362.5 273.5 Q456 91 608 91 Z M830 33 Q735 -24 609 -24 Q483 -24 387 33 Q291 90 231.5 195.5 Q172 301 142.5 443 Q113 585 113 763 Q113 1138 240.5 1343 Q368 1548 609 1548 Q850 1548 975.5 1343.5 Q1101 1139 1101 763 Q1101 585 1072 443 Q1043 301 984 195.5 Q925 90 830 33 Z "/>
        <glyph glyph-name="one" unicode="1" horiz-adv-x="599"
               d="M274 0 L274 1356 Q242 1333 172.5 1299 Q103 1265 34 1241 L34 1349 Q244 1446 297 1488 L402 1488 L402 0 L274 0 Z "/>
        <glyph glyph-name="two" unicode="2" horiz-adv-x="1144"
               d="M132 0 L102 127 L621 731 Q723 852 773 941.5 Q823 1031 823 1116 Q823 1258 756 1333.5 Q689 1409 556 1409 Q461 1409 369.5 1380.5 Q278 1352 220 1297 L173 1394 Q298 1514 561 1514 Q752 1514 862.5 1409 Q973 1304 973 1133 Q973 1018 914.5 906.5 Q856 795 722 640 L272 123 L985 123 L977 0 L132 0 Z "/>
        <glyph glyph-name="three" unicode="3" horiz-adv-x="1115"
               d="M532 -23 Q401 -23 298 13 Q195 49 156 86 L203 189 Q339 83 520 83 Q679 83 772.5 166.5 Q866 250 866 404 Q866 483 843 542.5 Q820 602 781.5 638.5 Q743 675 684.5 699 Q626 723 564.5 732.5 Q503 742 424 745 L366 745 L366 857 L410 857 Q466 859 511.5 864.5 Q557 870 607.5 881.5 Q658 893 695 914 Q732 935 763 965.5 Q794 996 810 1042 Q826 1088 826 1147 Q826 1409 534 1409 Q434 1409 346 1380.5 Q258 1352 203 1302 L157 1406 Q285 1516 569 1516 Q641 1516 707.5 1494.5 Q774 1473 828.5 1432 Q883 1391 915.5 1322 Q948 1253 948 1166 Q948 883 687 804 Q990 726 995 410 Q998 217 869.5 97 Q741 -23 532 -23 Z "/>
        <glyph glyph-name="four" unicode="4" horiz-adv-x="1192"
               d="M798 0 L798 402 L116 402 L116 538 L802 1521 L922 1521 L922 512 L1108 512 L1093 402 L922 402 L922 0 L798 0 Z M253 512 L798 512 L798 1314 L253 512 Z "/>
        <glyph glyph-name="five" unicode="5" horiz-adv-x="1195"
               d="M563 -23 Q296 -23 129 111 L174 207 Q330 82 569 82 Q732 82 830 191.5 Q928 301 928 478 Q928 626 843.5 724.5 Q759 823 634 823 Q543 823 479.5 798 Q416 773 335 711 L210 720 L244 1488 L1005 1488 L992 1377 L353 1377 L323 832 Q450 928 610 931 Q747 933 853 870.5 Q959 808 1013 706 Q1067 604 1067 483 Q1067 253 930.5 115 Q794 -23 563 -23 Z "/>
        <glyph glyph-name="six" unicode="6" horiz-adv-x="1196"
               d="M604 -23 Q493 -23 400 18.5 Q307 60 247 129.5 Q187 199 154 288 Q121 377 121 473 Q121 517 126 554 Q131 591 138 623 Q145 655 165.5 696 Q186 737 202.5 768 Q219 799 259 856 Q299 913 329.5 955 Q360 997 423 1081 Q474 1145 562 1246.5 Q650 1348 712 1418 L775 1488 L912 1488 L387 849 Q447 884 508 900 Q569 916 646 916 Q732 916 812 879.5 Q892 843 952 781 Q1012 719 1048 630.5 Q1084 542 1084 444 Q1084 251 948 114 Q812 -23 604 -23 Z M602 88 Q758 88 856.5 194.5 Q955 301 955 443 Q955 542 915 625 Q875 708 794.5 760.5 Q714 813 607 813 Q521 813 452.5 783.5 Q384 754 341 703.5 Q298 653 275.5 587.5 Q253 522 253 448 Q253 381 277.5 316.5 Q302 252 345.5 201 Q389 150 456 119 Q523 88 602 88 Z "/>
        <glyph glyph-name="seven" unicode="7" horiz-adv-x="1059"
               d="M276 0 L817 1377 L116 1377 L131 1488 L926 1488 L942 1365 L414 0 L276 0 Z "/>
        <glyph glyph-name="eight" unicode="8" horiz-adv-x="1196"
               d="M601 -23 Q468 -23 360.5 22.5 Q253 68 187 162 Q121 256 121 384 Q121 531 212 644.5 Q303 758 466 803 Q316 844 234.5 930.5 Q153 1017 153 1144 Q153 1314 277 1414 Q401 1514 602 1514 Q800 1514 921.5 1414.5 Q1043 1315 1043 1144 Q1043 1017 965 930.5 Q887 844 747 803 Q900 758 988 644.5 Q1076 531 1076 384 Q1076 288 1038.5 209.5 Q1001 131 936.5 81 Q872 31 786 4 Q700 -23 601 -23 Z M601 82 Q747 82 844 163 Q941 244 941 378 Q941 522 849 616.5 Q757 711 601 750 Q445 710 350.5 615.5 Q256 521 256 379 Q256 245 355 163.5 Q454 82 601 82 Z M601 856 Q912 917 912 1146 Q912 1271 821 1339 Q730 1407 601 1407 Q471 1407 378.5 1338.5 Q286 1270 286 1146 Q286 919 601 856 Z "/>
        <glyph glyph-name="nine" unicode="9" horiz-adv-x="1142"
               d="M265 0 L824 677 Q768 641 696.5 618.5 Q625 596 557 596 Q436 596 331 649.5 Q226 703 159.5 807.5 Q93 912 93 1046 Q93 1141 127 1226 Q161 1311 223 1375 Q285 1439 377.5 1476.5 Q470 1514 581 1514 Q697 1514 789 1474.5 Q881 1435 938.5 1367.5 Q996 1300 1026 1213.5 Q1056 1127 1056 1030 Q1056 883 1011.5 782 Q967 681 824 478 L725 358 Q626 239 527 119.5 Q428 0 428 0 L265 0 Z M577 704 Q666 704 735.5 733 Q805 762 847 811 Q889 860 910.5 921 Q932 982 932 1050 Q932 1120 909.5 1183.5 Q887 1247 844.5 1297 Q802 1347 734.5 1377 Q667 1407 584 1407 Q474 1407 389 1354 Q304 1301 261.5 1220 Q219 1139 219 1047 Q219 898 317 801 Q415 704 577 704 Z "/>
        <glyph glyph-name="colon" unicode="&#x3a;" horiz-adv-x="510"
               d="M167 -37 L167 174 L346 174 L346 -37 L167 -37 Z M167 927 L167 1136 L346 1136 L346 927 L167 927 Z "/>
        <glyph glyph-name="semicolon" unicode="&#x3b;" horiz-adv-x="550"
               d="M152 -302 L208 165 L370 165 L245 -302 L152 -302 Z M197 928 L197 1136 L376 1136 L376 928 L197 928 Z "/>
        <glyph glyph-name="less" unicode="&#x3c;" horiz-adv-x="1165"
               d="M1052 113 L98 579 L98 658 L1054 1158 L1054 1032 L247 622 L1052 240 L1052 113 Z "/>
        <glyph glyph-name="equal" unicode="&#x3d;" horiz-adv-x="1240"
               d="M150 390 L150 500 L1090 500 L1090 390 L150 390 Z M149 829 L149 941 L1091 941 L1091 829 L149 829 Z "/>
        <glyph glyph-name="greater" unicode="&#x3e;" horiz-adv-x="1167"
               d="M113 122 L113 250 L919 622 L116 1042 L116 1165 L1070 656 L1070 577 L113 122 Z "/>
        <glyph glyph-name="question" unicode="&#x3f;" horiz-adv-x="855"
               d="M314 395 Q309 449 337.5 525 Q366 601 410.5 681 Q455 761 500 843 Q545 925 577 1013.5 Q609 1102 609 1174 Q608 1281 545.5 1345.5 Q483 1410 382 1410 Q308 1410 236 1384.5 Q164 1359 117 1330 L83 1426 Q143 1468 233 1492.5 Q323 1517 394 1517 Q556 1517 649 1419 Q742 1321 742 1173 Q742 1105 719 1035 Q696 965 656 894 Q616 823 571.5 753.5 Q527 684 472.5 586.5 Q418 489 379 395 L314 395 Z M363 -1 Q313 -1 287.5 28 Q262 57 262 96 Q262 134 287.5 163 Q313 192 363 192 Q414 192 439 163.5 Q464 135 464 96 Q464 57 439 28 Q414 -1 363 -1 Z "/>
        <glyph glyph-name="at" unicode="&#x40;" horiz-adv-x="1867"
               d="M882 -82 Q656 -82 487 7.5 Q318 97 224.5 270.5 Q131 444 131 682 Q131 857 193.5 1010 Q256 1163 366 1274.5 Q476 1386 634.5 1450 Q793 1514 978 1514 Q1194 1514 1365 1433.5 Q1536 1353 1635.5 1198.5 Q1735 1044 1735 839 Q1735 747 1709.5 664.5 Q1684 582 1640 521 Q1596 460 1538.5 415.5 Q1481 371 1415 348.5 Q1349 326 1281 326 Q1204 326 1151 373.5 Q1098 421 1084 494 Q1045 423 968.5 377.5 Q892 332 784 332 Q714 332 664.5 368.5 Q615 405 593 463.5 Q571 522 571 598 Q571 669 591 745 Q611 821 651.5 892 Q692 963 747.5 1019 Q803 1075 879.5 1109 Q956 1143 1042 1143 Q1104 1143 1187.5 1129 Q1271 1115 1332 1095 Q1317 1048 1286 957 Q1255 866 1238 815 Q1221 764 1206.5 701.5 Q1192 639 1192 599 Q1192 522 1218 469 Q1244 416 1292 416 Q1348 416 1405 446 Q1462 476 1509.5 529.5 Q1557 583 1586.5 666.5 Q1616 750 1616 848 Q1616 1021 1534.5 1149 Q1453 1277 1311.5 1342 Q1170 1407 987 1407 Q867 1407 759.5 1379.5 Q652 1352 558.5 1293 Q465 1234 397 1148.5 Q329 1063 290 940.5 Q251 818 251 670 Q251 366 420 191.5 Q589 17 885 17 Q1099 17 1305 102 L1331 5 Q1243 -34 1122.5 -58 Q1002 -82 882 -82 Z M806 423 Q876 423 925.5 445 Q975 467 1009 520.5 Q1043 574 1058 610 Q1073 646 1099 727 Q1104 741 1106 748 Q1148 878 1193 1034 Q1138 1060 1036 1060 Q971 1060 914 1031.5 Q857 1003 817 956 Q777 909 748 849.5 Q719 790 705 728.5 Q691 667 691 610 Q691 527 720.5 475 Q750 423 806 423 Z "/>
        <glyph glyph-name="A" unicode="A" horiz-adv-x="1276"
               d="M6 0 L587 1488 L710 1488 L1270 0 L1138 0 L948 505 L331 505 L133 0 L6 0 Z M380 599 L902 599 Q677 1245 647 1359 Q635 1315 568 1125 Q501 935 440 767 L380 599 Z "/>
        <glyph glyph-name="B" unicode="B" horiz-adv-x="1265"
               d="M182 0 L182 1488 L588 1488 Q865 1488 992.5 1396 Q1120 1304 1120 1116 Q1120 1094 1119.5 1083 Q1119 1072 1115 1039.5 Q1111 1007 1102.5 985 Q1094 963 1076 930.5 Q1058 898 1032.5 874 Q1007 850 966 825.5 Q925 801 873 785 Q1029 762 1112 660 Q1195 558 1195 419 Q1195 222 1070 111 Q945 0 686 0 L182 0 Z M310 100 L653 100 Q1058 100 1058 419 Q1058 592 946 659.5 Q834 727 595 727 L310 727 L310 100 Z M310 825 L651 825 Q730 825 787 837 Q844 849 890.5 879.5 Q937 910 960.5 966.5 Q984 1023 984 1107 Q984 1263 887.5 1323.5 Q791 1384 582 1384 L310 1384 L310 825 Z "/>
        <glyph glyph-name="C" unicode="C" horiz-adv-x="1286"
               d="M813 -23 Q642 -23 508 35.5 Q374 94 289.5 198 Q205 302 161.5 442 Q118 582 118 749 Q118 971 199.5 1142.5 Q281 1314 443 1414 Q605 1514 826 1514 Q1069 1514 1240 1412 L1179 1313 Q1023 1407 827 1407 Q690 1407 581 1355.5 Q472 1304 402.5 1213 Q333 1122 296.5 1002 Q260 882 260 742 Q260 605 293.5 488.5 Q327 372 394.5 280.5 Q462 189 574 136.5 Q686 84 832 84 Q989 84 1182 171 L1208 68 Q1062 -23 813 -23 Z "/>
        <glyph glyph-name="D" unicode="D" horiz-adv-x="1498"
               d="M310 107 L602 107 Q912 107 1074.5 265.5 Q1237 424 1237 738 Q1237 910 1191.5 1035 Q1146 1160 1058 1235.5 Q970 1311 850 1346.5 Q730 1382 573 1382 L310 1382 L310 107 Z M182 0 L182 1488 L585 1488 Q767 1488 910.5 1445 Q1054 1402 1160 1313.5 Q1266 1225 1323 1080.5 Q1380 936 1380 743 Q1380 378 1179 189 Q978 0 616 0 L182 0 Z "/>
        <glyph glyph-name="E" unicode="E" horiz-adv-x="1142"
               d="M182 0 L182 1488 L1011 1488 L1006 1382 L310 1382 L310 822 L972 822 L972 713 L310 713 L310 107 L1028 107 L1017 0 L182 0 Z "/>
        <glyph glyph-name="F" unicode="F" horiz-adv-x="1025"
               d="M182 0 L182 1488 L982 1488 L976 1377 L311 1377 L311 789 L946 789 L946 686 L311 686 L311 0 L182 0 Z "/>
        <glyph glyph-name="G" unicode="G" horiz-adv-x="1469"
               d="M821 -23 Q685 -23 570.5 15.5 Q456 54 373 123 Q290 192 232.5 287.5 Q175 383 146.5 497.5 Q118 612 118 740 Q118 965 202 1138.5 Q286 1312 452.5 1413 Q619 1514 847 1514 Q1097 1514 1291 1399 L1234 1296 Q1152 1346 1048.5 1376.5 Q945 1407 848 1407 Q702 1407 587.5 1355 Q473 1303 402 1211.5 Q331 1120 294.5 1001 Q258 882 258 742 Q258 593 295 473 Q332 353 406 265.5 Q480 178 596 130.5 Q712 83 864 83 Q1021 83 1210 158 L1210 634 L841 634 L849 745 L1329 745 L1329 89 Q1207 26 1092.5 1.5 Q978 -23 821 -23 Z "/>
        <glyph glyph-name="H" unicode="H" horiz-adv-x="1474"
               d="M182 0 L182 1488 L310 1488 L310 830 L1164 830 L1164 1488 L1292 1488 L1292 0 L1164 0 L1164 718 L310 718 L310 0 L182 0 Z "/>
        <glyph glyph-name="I" unicode="I" horiz-adv-x="514" d="M193 0 L193 1488 L321 1488 L321 0 L193 0 Z "/>
        <glyph glyph-name="J" unicode="J" horiz-adv-x="512"
               d="M1 -138 L-20 -46 L40 -43 Q72 -43 98 -38 Q124 -33 143 -26.5 Q162 -20 176.5 -6 Q191 8 200.5 19 Q210 30 217 51.5 Q224 73 227 87 Q230 101 232 128 Q234 155 234 170.5 Q234 186 234 216 L234 1514 L367 1514 L367 303 Q367 240 366.5 209 Q366 178 363 128.5 Q360 79 353.5 56 Q347 33 335.5 -2 Q324 -37 306 -52.5 Q288 -68 261.5 -88.5 Q235 -109 200 -117.5 Q165 -126 118.5 -132 Q72 -138 13 -138 L1 -138 Z "/>
        <glyph glyph-name="K" unicode="K" horiz-adv-x="1224"
               d="M182 0 L182 1488 L311 1488 L311 719 Q355 768 427 847.5 Q499 927 651.5 1095.5 Q804 1264 905 1376 L1006 1488 L1175 1488 L554 817 L1226 0 L1063 0 L456 739 L311 603 L311 0 L182 0 Z "/>
        <glyph glyph-name="L" unicode="L" horiz-adv-x="998"
               d="M182 0 L182 1488 L311 1488 L311 113 L980 113 L974 0 L182 0 Z "/>
        <glyph glyph-name="M" unicode="M" horiz-adv-x="1804"
               d="M182 0 L182 1488 L362 1488 L913 231 L1449 1488 L1622 1488 L1622 0 L1495 0 L1495 1001 L1502 1339 L1465 1219 L976 85 L836 85 L341 1222 L302 1342 L309 996 L309 0 L182 0 Z "/>
        <glyph glyph-name="N" unicode="N" horiz-adv-x="1499"
               d="M182 0 L182 1488 L331 1488 L1150 233 L1203 160 Q1196 468 1196 543 L1196 1488 L1317 1488 L1317 0 L1165 0 L348 1253 L297 1326 Q305 1101 305 938 L305 0 L182 0 Z "/>
        <glyph glyph-name="O" unicode="O" horiz-adv-x="1627"
               d="M815 82 Q999 82 1124.5 166 Q1250 250 1308.5 396.5 Q1367 543 1367 745 Q1367 1061 1227 1234 Q1087 1407 816 1407 Q543 1407 400.5 1234.5 Q258 1062 258 745 Q258 438 399.5 260 Q541 82 815 82 Z M815 -23 Q645 -23 511.5 33.5 Q378 90 292.5 192.5 Q207 295 162.5 435 Q118 575 118 744 Q118 1098 300.5 1306 Q483 1514 816 1514 Q1143 1514 1326 1304.5 Q1509 1095 1509 743 Q1509 578 1464 438.5 Q1419 299 1333.5 196 Q1248 93 1115 35 Q982 -23 815 -23 Z "/>
        <glyph glyph-name="P" unicode="P" horiz-adv-x="1167"
               d="M182 0 L182 1488 L637 1488 Q733 1488 812 1467.5 Q891 1447 954.5 1404 Q1018 1361 1053 1287.5 Q1088 1214 1088 1116 Q1088 1059 1082.5 1013.5 Q1077 968 1062 920 Q1047 872 1021.5 836 Q996 800 954.5 767 Q913 734 856.5 713 Q800 692 721 680 Q642 668 543 668 Q437 668 311 681 L311 0 L182 0 Z M556 779 Q672 779 753 802 Q834 825 874 854 Q914 883 935 936 Q956 989 958.5 1021 Q961 1053 961 1111 Q961 1115 961 1117 Q961 1248 872 1312 Q783 1376 642 1376 L311 1376 L311 791 Q399 779 556 779 Z "/>
        <glyph glyph-name="Q" unicode="Q" horiz-adv-x="1612"
               d="M1253 -470 Q1252 -468 1228.5 -438 Q1205 -408 1168.5 -359 Q1132 -310 1092 -253 Q1052 -196 1011.5 -130.5 Q971 -65 947 -12 Q878 -23 807 -23 Q635 -23 502.5 33.5 Q370 90 286.5 193 Q203 296 160.5 435.5 Q118 575 118 746 Q118 1103 295.5 1308.5 Q473 1514 809 1514 Q1138 1514 1316 1306.5 Q1494 1099 1494 745 Q1494 482 1388 290 Q1282 98 1069 17 Q1087 -15 1117.5 -65 Q1148 -115 1223 -224 Q1298 -333 1351 -386 L1253 -470 Z M399.5 264.5 Q537 91 807 91 Q1077 91 1212 264 Q1347 437 1347 747 Q1347 1066 1211 1233 Q1075 1400 808 1400 Q540 1400 401 1233 Q262 1066 262 747 Q262 438 399.5 264.5 Z "/>
        <glyph glyph-name="R" unicode="R" horiz-adv-x="1333"
               d="M182 0 L182 1488 L606 1488 Q687 1488 746.5 1485 Q806 1482 868 1472 Q930 1462 973.5 1445.5 Q1017 1429 1056.5 1401 Q1096 1373 1120 1333.5 Q1144 1294 1157.5 1239 Q1171 1184 1171 1114 Q1171 977 1104 879 Q1037 781 899 746 Q959 623 989 559 L1233 0 L1084 0 L874 509 Q853 559 780 725 Q760 722 632 722 L310 728 L310 0 L182 0 Z M687 828 Q886 828 965 897.5 Q1044 967 1044 1112 Q1044 1242 972.5 1311.5 Q901 1381 729 1381 L310 1381 L310 831 Q545 828 687 828 Z "/>
        <glyph glyph-name="S" unicode="S" horiz-adv-x="1247"
               d="M658 -23 Q469 -23 324 17 Q179 57 99 105 L147 196 Q358 82 669 82 Q840 82 932.5 171 Q1025 260 1025 422 Q1025 482 1014 523 Q1003 564 973 601.5 Q943 639 885.5 664.5 Q828 690 739 708 L499 756 Q298 796 197.5 882 Q97 968 97 1127 Q97 1230 137 1305.5 Q177 1381 252.5 1426 Q328 1471 427.5 1492.5 Q527 1514 654 1514 Q780 1514 900.5 1483 Q1021 1452 1098 1413 L1065 1315 Q1006 1348 890.5 1377.5 Q775 1407 651 1407 Q440 1407 334 1336.5 Q228 1266 228 1114 Q228 1019 295 961.5 Q362 904 493 876 L761 821 Q861 800 930.5 771 Q1000 742 1053.5 696 Q1107 650 1133 581.5 Q1159 513 1159 419 Q1159 209 1021.5 93 Q884 -23 658 -23 Z "/>
        <glyph glyph-name="T" unicode="T" horiz-adv-x="1082"
               d="M476 0 L476 1378 L8 1378 L8 1488 L1074 1488 L1074 1378 L606 1378 L606 0 L476 0 Z "/>
        <glyph glyph-name="U" unicode="U" horiz-adv-x="1408"
               d="M699 -23 Q555 -23 449 16 Q343 55 280 128 Q217 201 187 297.5 Q157 394 157 517 L157 1488 L285 1488 L285 497 Q285 284 390 181.5 Q495 79 707 79 Q1123 79 1123 498 L1123 1488 L1251 1488 L1251 515 Q1251 417 1231.5 336 Q1212 255 1170 188 Q1128 121 1064 74.5 Q1000 28 907.5 2.5 Q815 -23 699 -23 Z "/>
        <glyph glyph-name="V" unicode="V" horiz-adv-x="1206"
               d="M531 0 L-5 1488 L137 1488 L475 529 Q495 464 519.5 394.5 Q544 325 562 269 Q580 213 599 137 Q606 173 619.5 215 Q633 257 664.5 349.5 Q696 442 726 535 Q799 767 900 1025 Q1001 1283 1067 1488 L1211 1488 L668 0 L531 0 Z "/>
        <glyph glyph-name="W" unicode="W" horiz-adv-x="1995"
               d="M464 0 L2 1488 L143 1488 L539 142 L919 1448 L1087 1448 L1458 143 L1853 1488 L1993 1488 L1532 0 L1389 0 L1006 1321 L606 0 L464 0 Z "/>
        <glyph glyph-name="X" unicode="X" horiz-adv-x="1196"
               d="M18 0 L521 786 L49 1488 L202 1488 L603 851 L1021 1488 L1158 1488 L686 794 L1178 0 L1032 0 L600 706 L156 0 L18 0 Z "/>
        <glyph glyph-name="Y" unicode="Y" horiz-adv-x="1166"
               d="M501 0 L501 589 L5 1488 L144 1488 L575 703 L1020 1488 L1161 1488 L632 593 L632 0 L501 0 Z "/>
        <glyph glyph-name="Z" unicode="Z" horiz-adv-x="1173"
               d="M97 0 L97 111 L923 1376 L127 1376 L127 1488 L1091 1488 L1091 1384 L259 113 L1099 113 L1091 0 L97 0 Z "/>
        <glyph glyph-name="bracketleft" unicode="&#x5b;" horiz-adv-x="688"
               d="M147 -264 L147 1514 L595 1514 L595 1414 L283 1414 L283 -164 L595 -164 L595 -264 L147 -264 Z "/>
        <glyph glyph-name="backslash" unicode="&#x5c;" horiz-adv-x="816"
               d="M652 -11 L62 1514 L184 1514 L774 -11 L652 -11 Z "/>
        <glyph glyph-name="bracketright" unicode="&#x5d;" horiz-adv-x="688"
               d="M93 -264 L93 -164 L405 -164 L405 1414 L93 1414 L93 1514 L541 1514 L541 -264 L93 -264 Z "/>
        <glyph glyph-name="asciicircum" unicode="&#x5e;" horiz-adv-x="1158"
               d="M84 558 L521 1488 L611 1488 L1071 558 L958 558 L565 1356 L200 558 L84 558 Z "/>
        <glyph glyph-name="underscore" unicode="&#x5f;" horiz-adv-x="1053"
               d="M73 -108 L73 0 L978 0 L978 -108 L73 -108 Z "/>
        <glyph glyph-name="grave" unicode="&#x60;" horiz-adv-x="702"
               d="M460 1287 L184 1674 L342 1674 L533 1287 L460 1287 Z "/>
        <glyph glyph-name="a" unicode="a" horiz-adv-x="1077"
               d="M440 -24 Q285 -24 192 54 Q99 132 99 277 Q99 363 136 426.5 Q173 490 243.5 529.5 Q314 569 404.5 591 Q495 613 615 622 Q743 630 805 635 L805 757 Q805 883 747.5 946.5 Q690 1010 563 1010 Q389 1010 238 927 Q234 937 219.5 970.5 Q205 1004 199 1022 Q261 1062 361 1089 Q461 1116 557 1116 Q754 1116 840 1031.5 Q926 947 926 732 L926 0 L829 0 Q824 23 814.5 91 Q805 159 805 161 Q676 -24 440 -24 Z M444 75 Q572 75 671.5 150.5 Q771 226 802 360 L802 547 Q658 535 657 535 Q413 513 318 455 Q223 397 223 275 Q223 175 283.5 125 Q344 75 444 75 Z "/>
        <glyph glyph-name="b" unicode="b" horiz-adv-x="1187"
               d="M619 -24 Q396 -24 264 159 L251 0 L147 0 L147 1521 L270 1532 L270 1163 Q270 994 267 930 Q328 1024 422.5 1070 Q517 1116 619 1116 Q841 1116 965.5 957.5 Q1090 799 1090 549 Q1090 381 1038.5 253.5 Q987 126 879 51 Q771 -24 619 -24 Z M625 75 Q717 75 784.5 114.5 Q852 154 888.5 222.5 Q925 291 941.5 370.5 Q958 450 958 543 Q958 617 948.5 682.5 Q939 748 914.5 810.5 Q890 873 853.5 917 Q817 961 758.5 988 Q700 1015 625 1015 Q452 1015 360.5 890.5 Q269 766 270 537 Q270 432 289.5 349.5 Q309 267 350.5 204.5 Q392 142 461 108.5 Q530 75 625 75 Z "/>
        <glyph glyph-name="c" unicode="c" horiz-adv-x="965"
               d="M604 -24 Q445 -24 328 54 Q211 132 154 257.5 Q97 383 97 537 Q97 655 131 759 Q165 863 227.5 943 Q290 1023 388.5 1069.5 Q487 1116 608 1116 Q687 1116 765.5 1095 Q844 1074 882 1045 L843 952 Q740 1010 599 1010 Q428 1010 328 880.5 Q228 751 228 537 Q228 332 327.5 205.5 Q427 79 599 79 Q719 79 857 139 L876 50 Q829 15 754 -4.5 Q679 -24 604 -24 Z "/>
        <glyph glyph-name="d" unicode="d" horiz-adv-x="1183"
               d="M561 -23 Q342 -23 219.5 129 Q97 281 97 549 Q97 801 223.5 958.5 Q350 1116 557 1116 Q659 1116 761 1072 Q863 1028 916 935 L916 968 L916 1521 L1036 1532 L1036 0 L933 0 L915 165 Q858 72 760.5 24.5 Q663 -23 561 -23 Z M558 75 Q651 75 721 109 Q791 143 833 205 Q875 267 895.5 347.5 Q916 428 916 526 Q916 1015 556 1015 Q471 1015 406 974.5 Q341 934 303.5 865.5 Q266 797 248 716.5 Q230 636 230 547 Q230 470 241 402.5 Q252 335 277 274 Q302 213 339 169.5 Q376 126 432 100.5 Q488 75 558 75 Z "/>
        <glyph glyph-name="e" unicode="e" horiz-adv-x="1093"
               d="M591 -24 Q364 -24 230.5 128 Q97 280 97 540 Q97 791 227.5 951 Q358 1111 565 1116 Q758 1116 875 978 Q992 840 992 608 Q992 599 991.5 571.5 Q991 544 991 533 L228 533 Q230 322 330 198.5 Q430 75 594 75 Q701 75 780 100 Q859 125 945 171 L966 78 Q800 -24 591 -24 Z M233 633 L857 633 Q857 816 778 913.5 Q699 1011 561 1011 Q421 1011 335 907 Q249 803 233 633 Z "/>
        <glyph glyph-name="f" unicode="f" horiz-adv-x="638"
               d="M216 0 L216 1005 L36 1005 L44 1082 L216 1096 L216 1137 Q216 1353 291.5 1451 Q367 1549 523 1549 Q568 1549 676 1534 L667 1452 Q571 1463 537 1463 Q423 1463 381.5 1389.5 Q340 1316 340 1131 L340 1096 L607 1096 L607 1005 L340 1005 L340 0 L216 0 Z "/>
        <glyph glyph-name="g" unicode="g" horiz-adv-x="1173"
               d="M316 -509 L301 -398 L533 -398 Q610 -398 669 -384.5 Q728 -371 768.5 -349.5 Q809 -328 837.5 -289.5 Q866 -251 882 -213 Q898 -175 906.5 -114.5 Q915 -54 917 -3.5 Q919 47 919 124 Q919 113 917 129 Q912 198 912 198 Q849 103 763 51.5 Q677 0 553 0 Q455 0 374.5 35 Q294 70 242.5 126 Q191 182 156 254 Q121 326 106 397.5 Q91 469 91 539 Q91 627 105.5 706.5 Q120 786 156 862 Q192 938 246 993.5 Q300 1049 385 1082.5 Q470 1116 577 1116 Q682 1116 762.5 1074.5 Q843 1033 912 942 L924 1096 L1034 1096 L1034 80 Q1034 14 1032.5 -26.5 Q1031 -67 1020.5 -136.5 Q1010 -206 991.5 -250.5 Q973 -295 935 -349 Q897 -403 843.5 -434 Q790 -465 706.5 -487 Q623 -509 517 -509 L316 -509 Z M569 101 Q642 101 701 124.5 Q760 148 798.5 186.5 Q837 225 863.5 277 Q890 329 901 384.5 Q912 440 912 499 L912 613 Q912 691 893 760 Q874 829 834.5 887.5 Q795 946 726 980 Q657 1014 566 1014 Q492 1014 432.5 985.5 Q373 957 335 910 Q297 863 271 800 Q245 737 234.5 671.5 Q224 606 224 537 Q224 476 233.5 418.5 Q243 361 267.5 302 Q292 243 330 199.5 Q368 156 429.5 128.5 Q491 101 569 101 Z "/>
        <glyph glyph-name="h" unicode="h" horiz-adv-x="1149"
               d="M147 0 L147 1521 L271 1532 L271 1009 Q271 988 271 980 Q271 972 270.5 971 Q270 970 269.5 960 Q269 950 268 930 Q402 1116 652 1116 Q1009 1116 1009 685 L1009 0 L886 0 L886 661 Q886 846 829 928.5 Q772 1011 628 1011 Q485 1011 390 935.5 Q295 860 273 741 Q271 701 271 622 L271 0 L147 0 Z "/>
        <glyph glyph-name="i" unicode="i" horiz-adv-x="445"
               d="M160 0 L160 1096 L285 1096 L285 0 L160 0 Z M160 1320 L160 1488 L284 1488 L284 1320 L160 1320 Z "/>
        <glyph glyph-name="j" unicode="j" horiz-adv-x="408"
               d="M-58 -550 L-77 -450 L-28 -450 Q42 -450 81 -439.5 Q120 -429 137.5 -394.5 Q155 -360 158 -328.5 Q161 -297 161 -222 Q161 -220 161 -219 L161 1096 L286 1096 L286 -247 Q286 -341 273.5 -397 Q261 -453 226.5 -488.5 Q192 -524 137.5 -537 Q83 -550 -9 -550 L-58 -550 Z M161 1321 L161 1488 L286 1488 L286 1321 L161 1321 Z "/>
        <glyph glyph-name="k" unicode="k" horiz-adv-x="986"
               d="M149 0 L149 1522 L272 1532 L272 663 L272 568 Q281 579 336 639 Q391 699 398 707 L777 1096 L944 1096 L485 638 L976 0 L819 0 L400 568 L272 450 L272 0 L149 0 Z "/>
        <glyph glyph-name="l" unicode="l" horiz-adv-x="581"
               d="M423 -23 Q285 -23 221 39.5 Q157 102 157 243 L157 1522 L279 1532 L279 250 Q279 150 315.5 112 Q352 74 426 74 Q486 74 576 97 L581 1 Q483 -23 423 -23 Z "/>
        <glyph glyph-name="m" unicode="m" horiz-adv-x="1805"
               d="M150 0 Q147 994 147 1096 L255 1096 L271 928 Q319 1010 414.5 1063 Q510 1116 617 1116 Q880 1116 947 909 Q1064 1116 1316 1116 Q1496 1116 1580.5 1013.5 Q1665 911 1665 708 L1665 0 L1541 0 L1541 536 Q1541 612 1539 663 Q1537 714 1529.5 774 Q1522 834 1506.5 872 Q1491 910 1466 944 Q1441 978 1402 994 Q1363 1010 1310 1010 Q1184 1010 1096.5 935.5 Q1009 861 975 726 Q977 624 980 568 L980 0 L857 0 L857 558 Q857 643 852 705.5 Q847 768 832 828 Q817 888 791.5 926 Q766 964 723.5 987 Q681 1010 622 1010 Q486 1010 394.5 937.5 Q303 865 276 740 Q274 699 274 623 L274 0 L150 0 Z "/>
        <glyph glyph-name="n" unicode="n" horiz-adv-x="1152"
               d="M147 0 L147 1096 L255 1096 L272 927 Q331 1015 430.5 1065.5 Q530 1116 645 1116 Q834 1116 923 1012 Q1012 908 1012 680 L1012 0 L887 0 L887 736 Q882 882 825 946 Q768 1010 638 1010 Q489 1010 394.5 935 Q300 860 276 741 Q272 694 272 643 L272 0 L147 0 Z "/>
        <glyph glyph-name="o" unicode="o" horiz-adv-x="1190"
               d="M601 75 Q721 75 803.5 138.5 Q886 202 923.5 306 Q961 410 961 545 Q961 757 871 886 Q781 1015 597 1015 Q477 1015 392.5 950.5 Q308 886 269 781.5 Q230 677 230 542 Q230 337 325.5 206 Q421 75 601 75 Z M592 -24 Q443 -24 329.5 51 Q216 126 156.5 254.5 Q97 383 97 545 Q97 667 131.5 771.5 Q166 876 230 952.5 Q294 1029 389 1072.5 Q484 1116 600 1116 Q754 1116 867 1040.5 Q980 965 1036.5 837.5 Q1093 710 1093 547 Q1093 383 1035 255 Q977 127 862 51.5 Q747 -24 592 -24 Z "/>
        <glyph glyph-name="p" unicode="p" horiz-adv-x="1175"
               d="M147 -488 L147 1096 L258 1096 L269 940 Q346 1028 425.5 1072 Q505 1116 611 1116 Q845 1116 961.5 960.5 Q1078 805 1078 535 Q1078 289 955 132.5 Q832 -24 622 -24 Q514 -24 418 27 Q322 78 266 161 Q271 38 271 -81 L271 -479 L147 -488 Z M614 78 Q699 78 765 119 Q831 160 870 228 Q909 296 928.5 376.5 Q948 457 948 544 Q948 632 929 712 Q910 792 871.5 860.5 Q833 929 766 970 Q699 1011 613 1011 Q520 1011 452.5 977.5 Q385 944 345.5 882 Q306 820 288 741 Q270 662 270 563 Q270 449 287 364 Q304 279 342.5 212.5 Q381 146 449 112 Q517 78 614 78 Z "/>
        <glyph glyph-name="q" unicode="q" horiz-adv-x="1179"
               d="M908 -488 L908 13 Q908 97 913 165 Q855 72 754.5 24 Q654 -24 554 -24 Q410 -24 305 49 Q200 122 148.5 246.5 Q97 371 97 532 Q97 705 148.5 835 Q200 965 306.5 1040.5 Q413 1116 562 1116 Q767 1116 913 931 L921 1096 L1032 1096 L1032 -481 L908 -488 Z M554 84 Q900 84 905 525 Q905 637 886.5 723 Q868 809 828 874.5 Q788 940 719 974.5 Q650 1009 553 1009 Q482 1009 425.5 982 Q369 955 333 910 Q297 865 272.5 804 Q248 743 238 678.5 Q228 614 228 544 Q228 451 245 372 Q262 293 298.5 226.5 Q335 160 400.5 122 Q466 84 554 84 Z "/>
        <glyph glyph-name="r" unicode="r" horiz-adv-x="715"
               d="M149 0 Q147 965 147 1096 L249 1096 L257 880 Q316 978 407 1040 Q498 1102 597 1102 Q638 1102 685 1095 L676 992 Q640 998 600 998 Q461 998 366.5 888.5 Q272 779 272 629 L272 0 L149 0 Z "/>
        <glyph glyph-name="s" unicode="s" horiz-adv-x="944"
               d="M467 -25 Q361 -25 268 1 Q175 27 121 63 L139 167 Q304 81 455 81 Q726 81 736 282 Q736 366 681.5 414 Q627 462 463 514 Q377 544 368 547 Q111 625 109 824 Q109 939 210.5 1027.5 Q312 1116 485 1116 Q658 1116 810 1048 L768 956 Q614 1014 482 1014 Q366 1014 299.5 962 Q233 910 233 822 Q233 748 276.5 708.5 Q320 669 449 633 Q463 629 500.5 615 Q538 601 542 600 Q715 547 783.5 474.5 Q852 402 852 277 Q849 133 744.5 54 Q640 -25 467 -25 Z "/>
        <glyph glyph-name="t" unicode="t" horiz-adv-x="676"
               d="M456 -23 Q318 -23 254 39.5 Q190 102 190 243 L190 1005 L35 1005 L44 1080 L192 1094 L225 1345 L312 1351 L312 1096 L632 1096 L632 1005 L312 1005 L312 269 Q312 153 350 113.5 Q388 74 484 74 Q546 74 638 97 L643 1 Q522 -23 456 -23 Z "/>
        <glyph glyph-name="u" unicode="u" horiz-adv-x="1106"
               d="M555 -27 Q469 -27 395.5 -7.5 Q322 12 259 53.5 Q196 95 159.5 171 Q123 247 123 350 L123 1096 L247 1096 L247 347 Q247 269 271 215 Q295 161 340 133.5 Q385 106 436 95 Q487 84 555 84 Q622 84 673 95.5 Q724 107 768 135 Q812 163 835.5 216.5 Q859 270 859 347 L859 1096 L983 1096 L983 350 Q983 266 959 200 Q935 134 895 92 Q855 50 798.5 22.5 Q742 -5 682.5 -16 Q623 -27 555 -27 Z "/>
        <glyph glyph-name="v" unicode="v" horiz-adv-x="989"
               d="M419 0 L1 1096 L134 1096 L388 405 Q408 340 435.5 266.5 Q463 193 480 152 L497 111 Q516 175 546.5 248.5 Q577 322 602 402 Q629 488 700 661.5 Q771 835 855 1096 L988 1096 L563 0 L419 0 Z "/>
        <glyph glyph-name="w" unicode="w" horiz-adv-x="1557"
               d="M328 0 L22 1096 L152 1096 L405 117 Q678 995 710 1096 L862 1096 Q1161 120 1164 120 L1406 1096 L1535 1096 L1234 0 L1090 0 Q1087 -1 949 461 Q811 923 789 1004 Q777 950 698 699.5 Q619 449 546 224 Q473 -1 472 0 L328 0 Z "/>
        <glyph glyph-name="x" unicode="x" horiz-adv-x="1012"
               d="M37 0 L446 555 L50 1096 L188 1096 L508 644 L826 1096 L967 1096 L572 551 L975 0 L842 0 L509 465 L177 0 L37 0 Z "/>
        <glyph glyph-name="y" unicode="y" horiz-adv-x="981"
               d="M98 -520 Q56 -520 13 -512 L4 -410 Q7 -410 33.5 -411.5 Q60 -413 73 -413 Q199 -413 262 -370 Q325 -327 374 -202 Q380 -185 405.5 -116 Q431 -47 445 -7 L7 1096 L137 1096 L510 110 Q510 110 555 248 Q830 1107 837 1106 Q838 1106 836 1096 L966 1096 Q528 -135 508 -192 Q439 -358 346 -439 Q253 -520 98 -520 Z "/>
        <glyph glyph-name="z" unicode="z" horiz-adv-x="882"
               d="M89 0 L89 104 L668 997 L99 997 L99 1096 L798 1096 L798 979 L217 93 L816 93 L816 0 L89 0 Z "/>
        <glyph glyph-name="braceleft" unicode="&#x7b;" horiz-adv-x="709"
               d="M613 -277 Q443 -276 368.5 -181 Q294 -86 294 95 L294 255 Q294 317 290.5 360 Q287 403 275 450 Q263 497 241 525 Q219 553 180 571.5 Q141 590 86 590 L86 689 Q121 690 148.5 694.5 Q176 699 196.5 707.5 Q217 716 233 728 Q249 740 259.5 755.5 Q270 771 277 790 Q284 809 287 831 Q290 853 292 878.5 Q294 904 294 932 Q294 960 294 991 Q294 1013 294 1025 L294 1236 Q294 1384 378 1470.5 Q462 1557 613 1557 L613 1461 Q503 1460 461.5 1400.5 Q420 1341 420 1197 L420 934 Q420 769 247 637 Q294 618 329 584 Q364 550 383 508.5 Q402 467 411 426 Q420 385 420 342 L420 82 Q420 -65 461.5 -122.5 Q503 -180 613 -181 L613 -277 Z "/>
        <glyph glyph-name="bar" unicode="&#x7c;" horiz-adv-x="817"
               d="M349 -413 L349 1606 L468 1606 L468 -413 L349 -413 Z "/>
        <glyph glyph-name="braceright" unicode="&#x7d;" horiz-adv-x="716"
               d="M99 -277 L99 -181 Q208 -180 250.5 -122 Q293 -64 293 82 L293 342 Q293 431 326.5 491 Q360 551 464 646 Q418 660 383 692.5 Q348 725 329 766 Q310 807 301.5 849.5 Q293 892 293 934 L293 1197 Q293 1340 250.5 1400 Q208 1460 99 1461 L99 1557 Q418 1557 418 1184 L418 1025 Q418 972 420 936.5 Q422 901 428.5 858.5 Q435 816 449 789 Q463 762 485.5 738 Q508 714 544 702 Q580 690 628 689 L628 590 Q572 590 532.5 571.5 Q493 553 471 524.5 Q449 496 437 449 Q425 402 421.5 359.5 Q418 317 418 255 L418 42 Q418 -104 335.5 -190 Q253 -276 99 -277 Z "/>
        <glyph glyph-name="asciitilde" unicode="&#x7e;" horiz-adv-x="1236"
               d="M156 524 L116 603 Q151 693 219 748 Q287 803 379 803 Q436 803 485.5 788.5 Q535 774 618 735 Q637 727 674.5 709 Q712 691 731 683 Q750 675 777 664.5 Q804 654 824 649.5 Q844 645 861 645 Q920 645 976.5 696.5 Q1033 748 1057 814 L1106 744 Q1068 638 1010 587.5 Q952 537 861 537 Q777 537 640 598 Q564 634 532.5 648.5 Q501 663 455.5 677.5 Q410 692 377 692 Q313 692 253 644.5 Q193 597 156 524 Z "/>
        <glyph glyph-name="exclamdown" unicode="&#xa1;" horiz-adv-x="650"
               d="M235 -402 L235 -312 L285 694 L351 694 L412 -312 L412 -402 L235 -402 Z M325 892 Q263 892 232.5 927 Q202 962 202 1009 Q202 1056 232.5 1091.5 Q263 1127 325 1127 Q386 1127 417.5 1091.5 Q449 1056 449 1009 Q449 962 417.5 927 Q386 892 325 892 Z "/>
        <glyph glyph-name="cent" unicode="&#xa2;" horiz-adv-x="985"
               d="M567 -162 L567 -28 Q476 -19 397.5 18.5 Q319 56 265 112.5 Q211 169 172.5 240 Q134 311 115.5 386.5 Q97 462 97 537 Q98 613 116.5 691 Q135 769 174 843 Q213 917 267.5 976.5 Q322 1036 399.5 1076.5 Q477 1117 567 1126 L567 1281 L644 1281 L644 1127 Q729 1123 800.5 1098 Q872 1073 911 1033 L870 950 Q774 1014 644 1023 L644 75 Q765 87 870 156 L908 73 Q865 30 792.5 4 Q720 -22 644 -28 L644 -162 L567 -162 Z M567 77 L567 1022 Q472 1008 395 937.5 Q318 867 275.5 760.5 Q233 654 233 535 Q233 422 273.5 323.5 Q314 225 391 158.5 Q468 92 567 77 Z "/>
        <glyph glyph-name="sterling" unicode="&#xa3;" horiz-adv-x="1124"
               d="M101 0 L92 105 Q277 169 277 436 L277 696 L91 696 L91 800 L277 800 L277 890 Q277 961 280.5 1019.5 Q284 1078 295 1144.5 Q306 1211 324 1262.5 Q342 1314 374 1363 Q406 1412 448.5 1444 Q491 1476 553.5 1495.5 Q616 1515 693 1515 Q889 1515 1037 1390 L971 1303 Q841 1407 690 1407 Q533 1407 469 1296.5 Q405 1186 405 977 L405 800 L832 800 L832 695 L405 695 L405 526 Q405 461 402.5 416 Q400 371 391.5 319.5 Q383 268 367.5 231.5 Q352 195 324.5 159 Q297 123 257 96 Q307 99 376.5 106.5 Q446 114 516 114 L1041 114 L1055 0 L101 0 Z "/>
        <glyph glyph-name="currency" unicode="&#xa4;" horiz-adv-x="1146"
               d="M1027 234 L840 412 Q723 314 574 314 Q419 314 306 412 L121 235 L58 294 L243 474 Q157 590 157 732 Q157 872 243 989 L57 1171 L121 1230 L306 1053 Q419 1151 574 1151 Q725 1151 840 1053 L1027 1230 L1088 1168 L904 989 Q990 865 990 732 Q990 585 905 474 L1087 295 L1027 234 Z M574 402 Q707 402 801.5 499 Q896 596 896 732 Q896 868 801.5 965.5 Q707 1063 574 1063 Q440 1063 346 966 Q252 869 252 732 Q252 595 346 498.5 Q440 402 574 402 Z "/>
        <glyph glyph-name="yen" unicode="&#xa5;" horiz-adv-x="1166"
               d="M501 0 L501 338 L96 338 L96 448 L501 448 L501 629 L95 629 L95 741 L430 741 L5 1488 L144 1488 L575 705 L1020 1488 L1161 1488 L719 741 L1037 741 L1037 629 L632 629 L632 448 L1036 448 L1036 338 L632 338 L632 0 L501 0 Z "/>
        <glyph glyph-name="brokenbar" unicode="&#xa6;" horiz-adv-x="775"
               d="M329 -200 L329 502 L449 502 L449 -200 L329 -200 Z M329 850 L329 1549 L449 1549 L449 850 L329 850 Z "/>
        <glyph glyph-name="dieresis" unicode="&#xa8;" horiz-adv-x="769"
               d="M136 1266 L136 1443 L272 1443 L272 1266 L136 1266 Z M512 1266 L512 1443 L649 1443 L649 1266 L512 1266 Z "/>
        <glyph glyph-name="copyright" unicode="&#xa9;" horiz-adv-x="1886"
               d="M930 174 Q793 174 682.5 243.5 Q572 313 511 434.5 Q450 556 450 707 Q450 861 510.5 981 Q571 1101 684 1169 Q797 1237 946 1237 Q1120 1237 1254 1142 L1230 1032 Q1186 1073 1103 1101.5 Q1020 1130 940 1130 Q869 1130 809 1107.5 Q749 1085 707.5 1046 Q666 1007 637 953.5 Q608 900 595 840 Q582 780 582 714 Q582 621 605 543 Q628 465 673 405.5 Q718 346 791.5 313 Q865 280 960 280 Q1028 280 1105.5 305 Q1183 330 1222 359 L1258 257 Q1205 225 1112 199.5 Q1019 174 930 174 Z M927 -24 Q1032 -24 1131 4.5 Q1230 33 1318 92 Q1406 151 1472 234.5 Q1538 318 1576 436.5 Q1614 555 1614 694 Q1614 834 1574.5 954.5 Q1535 1075 1467.5 1160 Q1400 1245 1311 1305.5 Q1222 1366 1121 1395 Q1020 1424 915 1424 Q812 1424 715 1396 Q618 1368 531.5 1309 Q445 1250 380.5 1166.5 Q316 1083 278.5 963 Q241 843 241 701 Q241 583 268 479.5 Q295 376 343 297.5 Q391 219 455.5 157 Q520 95 597 56 Q674 17 757 -3.5 Q840 -24 927 -24 Z M924 -116 Q803 -116 688.5 -84 Q574 -52 472 14.5 Q370 81 294 175.5 Q218 270 173.5 405 Q129 540 129 698 Q129 858 173 993 Q217 1128 292.5 1222.5 Q368 1317 469 1384 Q570 1451 683.5 1482.5 Q797 1514 918 1514 Q1040 1514 1156.5 1481.5 Q1273 1449 1376.5 1381.5 Q1480 1314 1557.5 1219 Q1635 1124 1680.5 989.5 Q1726 855 1726 698 Q1726 540 1681 406 Q1636 272 1559 177 Q1482 82 1379.5 15 Q1277 -52 1161.5 -84 Q1046 -116 924 -116 Z "/>
        <glyph glyph-name="ordfeminine" unicode="&#xaa;" horiz-adv-x="830"
               d="M358 892 Q305 892 255.5 912 Q206 932 169.5 978 Q133 1024 133 1088 Q133 1141 155.5 1180 Q178 1219 213 1243 Q248 1267 307 1284.5 Q366 1302 422 1310.5 Q478 1319 560 1326 L560 1349 Q560 1449 529.5 1498 Q499 1547 424 1547 Q364 1547 291 1528 Q218 1509 178 1481 L141 1554 Q259 1624 428 1624 Q529 1624 592.5 1564 Q656 1504 656 1371 L656 1027 L656 902 L595 902 L572 1010 Q544 951 486.5 921.5 Q429 892 358 892 Z M363 968 L369 968 Q459 970 511 1036.5 Q563 1103 563 1217 L563 1256 Q529 1254 511 1252.5 Q493 1251 453 1246 Q413 1241 388 1234.5 Q363 1228 330 1216 Q297 1204 278.5 1189 Q260 1174 246 1151.5 Q232 1129 232 1101 L232 1098 Q235 968 363 968 Z M144 720 L144 798 L682 798 L682 720 L144 720 Z "/>
        <glyph glyph-name="guillemotleft" unicode="&#xab;" horiz-adv-x="962"
               d="M391 157 L141 503 L107 553 L394 959 L508 935 L237 561 L503 182 L391 157 Z M752 157 L460 573 L754 959 L849 935 L597 561 L846 182 L752 157 Z "/>
        <glyph glyph-name="logicalnot" unicode="&#xac;" horiz-adv-x="1197"
               d="M967 268 L967 707 L99 707 L99 817 L1076 817 L1076 268 L967 268 Z "/>
        <glyph glyph-name="uni00AD" unicode="&#xad;" horiz-adv-x="1038"
               d="M123 140 L123 255 L922 255 L922 140 L123 140 Z "/>
        <glyph glyph-name="registered" unicode="&#xae;" horiz-adv-x="1865"
               d="M623 212 L623 1202 L966 1202 Q1138 1202 1220 1132.5 Q1302 1063 1302 936 Q1302 891 1289.5 850.5 Q1277 810 1250.5 772 Q1224 734 1174.5 709 Q1125 684 1058 678 Q1077 652 1096 623 Q1115 594 1144.5 547 Q1174 500 1195 465.5 Q1216 431 1266 348.5 Q1316 266 1349 212 L1214 212 Q1021 544 941 658 L735 658 L735 212 L623 212 Z M736 754 L941 754 Q1071 754 1130.5 790.5 Q1190 827 1190 924 Q1190 1034 1134 1070.5 Q1078 1107 931 1107 L736 1107 L736 754 Z M927 -24 Q1032 -24 1131 4.5 Q1230 33 1318 92 Q1406 151 1472 234.5 Q1538 318 1576 436.5 Q1614 555 1614 694 Q1614 834 1574.5 954.5 Q1535 1075 1467.5 1160 Q1400 1245 1311 1305.5 Q1222 1366 1121 1395 Q1020 1424 915 1424 Q812 1424 715 1396 Q618 1368 531.5 1309 Q445 1250 380.5 1166.5 Q316 1083 278.5 963 Q241 843 241 701 Q241 583 268 479.5 Q295 376 343 297.5 Q391 219 455.5 157 Q520 95 597 56 Q674 17 757 -3.5 Q840 -24 927 -24 Z M924 -116 Q803 -116 688.5 -84 Q574 -52 472 14.5 Q370 81 294 175.5 Q218 270 173.5 405 Q129 540 129 698 Q129 858 173 993 Q217 1128 292.5 1222.5 Q368 1317 469 1384 Q570 1451 683.5 1482.5 Q797 1514 918 1514 Q1040 1514 1156.5 1481.5 Q1273 1449 1376.5 1381.5 Q1480 1314 1557.5 1219 Q1635 1124 1680.5 989.5 Q1726 855 1726 698 Q1726 540 1681 406 Q1636 272 1559 177 Q1482 82 1379.5 15 Q1277 -52 1161.5 -84 Q1046 -116 924 -116 Z "/>
        <glyph glyph-name="macron" unicode="&#xaf;" horiz-adv-x="1131"
               d="M256 1270 L256 1376 L874 1376 L874 1270 L256 1270 Z "/>
        <glyph glyph-name="degree" unicode="&#xb0;" horiz-adv-x="844"
               d="M324.5 1034.5 Q370 1011 422.5 1011 Q475 1011 520.5 1034.5 Q566 1058 596.5 1109.5 Q627 1161 627 1231 Q627 1302 596.5 1354 Q566 1406 520.5 1430 Q475 1454 422 1454 Q369 1454 324 1430 Q279 1406 249 1354 Q219 1302 219 1231 Q219 1161 249 1109.5 Q279 1058 324.5 1034.5 Z M418 932 Q359 932 305 951 Q251 970 207.5 1006 Q164 1042 138 1100 Q112 1158 112 1231 Q112 1304 138.5 1363 Q165 1422 209.5 1458 Q254 1494 308.5 1513.5 Q363 1533 422.5 1533 Q482 1533 536.5 1514 Q591 1495 635 1458.5 Q679 1422 705.5 1363 Q732 1304 732 1231 Q732 1160 705 1101.5 Q678 1043 633.5 1007 Q589 971 533.5 951.5 Q478 932 418 932 Z "/>
        <glyph glyph-name="plusminus" unicode="&#xb1;" horiz-adv-x="1163"
               d="M526 215 L526 654 L95 654 L95 765 L525 765 L525 1213 L632 1213 L632 765 L1067 765 L1067 654 L635 654 L635 215 L526 215 Z M95 0 L95 121 L1070 121 L1070 0 L95 0 Z "/>
        <glyph glyph-name="acute" unicode="&#xb4;" horiz-adv-x="648"
               d="M126 1287 L320 1674 L474 1674 L201 1287 L126 1287 Z "/>
        <glyph glyph-name="paragraph" unicode="&#xb6;" horiz-adv-x="1007"
               d="M494 0 Q492 863 491 863 Q394 863 314.5 892 Q235 921 184.5 969.5 Q134 1018 107 1077.5 Q80 1137 80 1201 Q80 1262 105 1317 Q130 1372 178.5 1416.5 Q227 1461 307 1487.5 Q387 1514 487 1514 L925 1514 L925 1417 L853 1417 L853 0 L761 0 L761 1417 L588 1417 L588 0 L494 0 Z "/>
        <glyph glyph-name="periodcentered" unicode="&#xb7;" horiz-adv-x="489"
               d="M169 610 L169 772 L319 772 L319 610 L169 610 Z "/>
        <glyph glyph-name="cedilla" unicode="&#xb8;" horiz-adv-x="599"
               d="M138 -410 L245 11 L304 11 L267 -410 L138 -410 Z "/>
        <glyph glyph-name="onesuperior" unicode="&#xb9;" horiz-adv-x="656"
               d="M181 681 L181 747 L285 747 L285 1416 Q256 1394 171 1344 L171 1425 Q265 1479 293 1514 L378 1514 L378 747 L485 747 L485 681 L181 681 Z "/>
        <glyph glyph-name="guillemotright" unicode="&#xbb;" horiz-adv-x="941"
               d="M192 157 L97 182 L349 562 L99 935 L192 959 L486 547 L192 157 Z M564 157 L455 182 L721 562 L460 935 L567 959 L844 547 L564 157 Z "/>
        <glyph glyph-name="onequarter" unicode="&#xbc;" horiz-adv-x="1553"
               d="M149 681 L149 747 L253 747 L253 1416 Q224 1394 139 1344 L139 1425 Q233 1479 261 1514 L346 1514 L346 747 L453 747 L453 681 L149 681 Z M1270 0 L1270 218 L895 218 L895 289 L1270 861 L1363 861 L1363 300 L1455 300 L1463 218 L1363 218 L1363 0 L1270 0 Z M281 0 L1169 1514 L1262 1514 L381 0 L281 0 Z M995 300 L1270 300 Q1269 685 1270 727 L995 300 Z "/>
        <glyph glyph-name="onehalf" unicode="&#xbd;" horiz-adv-x="1493"
               d="M149 681 L149 747 L253 747 L253 1416 Q224 1394 139 1344 L139 1425 Q233 1479 261 1514 L346 1514 L346 747 L453 747 L453 681 L149 681 Z M892 0 L892 77 Q1175 380 1262 492 Q1349 604 1349 679 Q1349 749 1301.5 790.5 Q1254 832 1192 832 Q1134 832 1085 804 Q1036 776 991 704 L909 735 Q946 824 1022.5 872 Q1099 920 1189 920 Q1298 920 1375 853 Q1452 786 1452 671 Q1452 627 1435.5 581.5 Q1419 536 1397.5 499 Q1376 462 1328.5 407 Q1281 352 1245.5 314.5 Q1210 277 1138 203.5 Q1066 130 1021 82 L1435 82 L1443 0 L892 0 Z M270 0 L1158 1514 L1251 1514 L370 0 L270 0 Z "/>
        <glyph glyph-name="threequarters" unicode="&#xbe;" horiz-adv-x="1606"
               d="M359 625 Q293 625 230 645 Q167 665 129 703 L167 771 Q223 728 265 715.5 Q307 703 355 703 Q419 703 468.5 748.5 Q518 794 518 863 Q518 1035 325 1035 L236 1035 L236 1109 L316 1109 Q396 1109 443.5 1147 Q491 1185 487 1271 Q484 1331 443 1369.5 Q402 1408 336 1408 Q292 1408 244.5 1393 Q197 1378 174 1358 L133 1429 Q165 1452 221.5 1468 Q278 1484 335 1484 Q384 1484 427.5 1472.5 Q471 1461 507 1437 Q543 1413 564 1371 Q585 1329 585 1273 Q585 1237 576 1207 Q567 1177 557 1159.5 Q547 1142 525 1123.5 Q503 1105 491 1098 Q479 1091 452 1076 Q605 1033 605 870 Q605 754 535.5 689.5 Q466 625 359 625 Z M1340 0 L1340 218 L965 218 L965 289 L1340 861 L1433 861 L1433 300 L1525 300 L1533 218 L1433 218 L1433 0 L1340 0 Z M351 0 L1239 1514 L1332 1514 L451 0 L351 0 Z M1065 300 L1340 300 Q1339 685 1340 727 L1065 300 Z "/>
        <glyph glyph-name="questiondown" unicode="&#xbf;" horiz-adv-x="794"
               d="M527 731 Q532 677 503.5 601 Q475 525 430.5 445 Q386 365 341 283 Q296 201 264 112.5 Q232 24 232 -48 Q233 -155 295.5 -219.5 Q358 -284 459 -284 Q533 -284 605 -258.5 Q677 -233 724 -204 L758 -300 Q698 -342 608 -366.5 Q518 -391 447 -391 Q285 -391 192 -293 Q99 -195 99 -47 Q99 21 122 91 Q145 161 185 232 Q225 303 269.5 372.5 Q314 442 368.5 539.5 Q423 637 462 731 L527 731 Z M478 1127 Q528 1127 553.5 1098 Q579 1069 579 1030 Q579 992 553.5 963 Q528 934 478 934 Q427 934 402 962.5 Q377 991 377 1030 Q377 1069 402 1098 Q427 1127 478 1127 Z "/>
        <glyph glyph-name="Agrave" unicode="&#xc0;" horiz-adv-x="1276"
               d="M602 1616 L326 2003 L484 2003 L675 1616 L602 1616 Z M6 0 L587 1488 L710 1488 L1270 0 L1138 0 L948 505 L331 505 L133 0 L6 0 Z M380 599 L902 599 Q677 1245 647 1359 Q635 1315 568 1125 Q501 935 440 767 L380 599 Z "/>
        <glyph glyph-name="Aacute" unicode="&#xc1;" horiz-adv-x="1276"
               d="M600 1616 L794 2003 L948 2003 L675 1616 L600 1616 Z M6 0 L587 1488 L710 1488 L1270 0 L1138 0 L948 505 L331 505 L133 0 L6 0 Z M380 599 L902 599 Q677 1245 647 1359 Q635 1315 568 1125 Q501 935 440 767 L380 599 Z "/>
        <glyph glyph-name="Acircumflex" unicode="&#xc2;" horiz-adv-x="1276"
               d="M372 1616 L540 1975 L732 1975 L903 1616 L812 1616 L637 1911 L461 1616 L372 1616 Z M6 0 L587 1488 L710 1488 L1270 0 L1138 0 L948 505 L331 505 L133 0 L6 0 Z M380 599 L902 599 Q677 1245 647 1359 Q635 1315 568 1125 Q501 935 440 767 L380 599 Z "/>
        <glyph glyph-name="Atilde" unicode="&#xc3;" horiz-adv-x="1276"
               d="M353 1616 Q356 1723 397.5 1762.5 Q439 1802 512 1802 Q558 1802 655 1754 Q752 1706 776 1706 Q792 1706 803 1715 Q814 1724 820 1742 Q826 1760 828 1771 Q830 1782 832 1802 L923 1802 Q919 1701 883.5 1658.5 Q848 1616 782 1616 Q738 1616 632.5 1667.5 Q527 1719 504 1719 Q451 1719 443 1616 L353 1616 Z M6 0 L587 1488 L710 1488 L1270 0 L1138 0 L948 505 L331 505 L133 0 L6 0 Z M380 599 L902 599 Q677 1245 647 1359 Q635 1315 568 1125 Q501 935 440 767 L380 599 Z "/>
        <glyph glyph-name="Adieresis" unicode="&#xc4;" horiz-adv-x="1276"
               d="M382 1616 L382 1793 L518 1793 L518 1616 L382 1616 Z M758 1616 L758 1793 L895 1793 L895 1616 L758 1616 Z M6 0 L587 1488 L710 1488 L1270 0 L1138 0 L948 505 L331 505 L133 0 L6 0 Z M380 599 L902 599 Q677 1245 647 1359 Q635 1315 568 1125 Q501 935 440 767 L380 599 Z "/>
        <glyph glyph-name="Aring" unicode="&#xc5;" horiz-adv-x="1276"
               d="M574 1601 Q602 1573 640 1573 Q678 1573 705.5 1601 Q733 1629 733 1680 Q732 1730 704.5 1758.5 Q677 1787 639 1787 Q601 1787 573.5 1758.5 Q546 1730 546 1679 Q546 1629 574 1601 Z M641 1502 Q566 1502 510.5 1549.5 Q455 1597 455 1680 Q455 1764 509 1811 Q563 1858 638 1858 Q712 1858 766.5 1810.5 Q821 1763 821 1680 Q821 1595 767.5 1548.5 Q714 1502 641 1502 Z M6 0 L587 1488 L710 1488 L1270 0 L1138 0 L948 505 L331 505 L133 0 L6 0 Z M380 599 L902 599 Q677 1245 647 1359 Q635 1315 568 1125 Q501 935 440 767 L380 599 Z "/>
        <glyph glyph-name="AE" unicode="&#xc6;" horiz-adv-x="1915"
               d="M6 0 L892 1488 L1786 1488 L1779 1377 L1060 1377 L1101 822 L1744 822 L1744 713 L1109 713 L1158 111 L1801 111 L1790 0 L1053 0 L1014 505 L441 505 L148 0 L6 0 Z M495 600 L1006 600 L950 1378 L495 600 Z "/>
        <glyph glyph-name="Ccedilla" unicode="&#xc7;" horiz-adv-x="1286"
               d="M542 -430 L649 -9 L708 -9 L671 -430 L542 -430 Z M813 -23 Q642 -23 508 35.5 Q374 94 289.5 198 Q205 302 161.5 442 Q118 582 118 749 Q118 971 199.5 1142.5 Q281 1314 443 1414 Q605 1514 826 1514 Q1069 1514 1240 1412 L1179 1313 Q1023 1407 827 1407 Q690 1407 581 1355.5 Q472 1304 402.5 1213 Q333 1122 296.5 1002 Q260 882 260 742 Q260 605 293.5 488.5 Q327 372 394.5 280.5 Q462 189 574 136.5 Q686 84 832 84 Q989 84 1182 171 L1208 68 Q1062 -23 813 -23 Z "/>
        <glyph glyph-name="Egrave" unicode="&#xc8;" horiz-adv-x="1142"
               d="M568 1616 L292 2003 L450 2003 L641 1616 L568 1616 Z M182 0 L182 1488 L1011 1488 L1006 1382 L310 1382 L310 822 L972 822 L972 713 L310 713 L310 107 L1028 107 L1017 0 L182 0 Z "/>
        <glyph glyph-name="Eacute" unicode="&#xc9;" horiz-adv-x="1142"
               d="M568 1616 L762 2003 L916 2003 L643 1616 L568 1616 Z M182 0 L182 1488 L1011 1488 L1006 1382 L310 1382 L310 822 L972 822 L972 713 L310 713 L310 107 L1028 107 L1017 0 L182 0 Z "/>
        <glyph glyph-name="Ecircumflex" unicode="&#xca;" horiz-adv-x="1142"
               d="M340 1616 L508 1975 L700 1975 L871 1616 L780 1616 L605 1911 L429 1616 L340 1616 Z M182 0 L182 1488 L1011 1488 L1006 1382 L310 1382 L310 822 L972 822 L972 713 L310 713 L310 107 L1028 107 L1017 0 L182 0 Z "/>
        <glyph glyph-name="Edieresis" unicode="&#xcb;" horiz-adv-x="1142"
               d="M348 1616 L348 1793 L484 1793 L484 1616 L348 1616 Z M724 1616 L724 1793 L861 1793 L861 1616 L724 1616 Z M182 0 L182 1488 L1011 1488 L1006 1382 L310 1382 L310 822 L972 822 L972 713 L310 713 L310 107 L1028 107 L1017 0 L182 0 Z "/>
        <glyph glyph-name="Igrave" unicode="&#xcc;" horiz-adv-x="514"
               d="M220 1616 L-56 2003 L102 2003 L293 1616 L220 1616 Z M193 0 L193 1488 L321 1488 L321 0 L193 0 Z "/>
        <glyph glyph-name="Iacute" unicode="&#xcd;" horiz-adv-x="514"
               d="M220 1616 L414 2003 L568 2003 L295 1616 L220 1616 Z M193 0 L193 1488 L321 1488 L321 0 L193 0 Z "/>
        <glyph glyph-name="Icircumflex" unicode="&#xce;" horiz-adv-x="514"
               d="M-8 1616 L160 1975 L352 1975 L523 1616 L432 1616 L257 1911 L81 1616 L-8 1616 Z M193 0 L193 1488 L321 1488 L321 0 L193 0 Z "/>
        <glyph glyph-name="Idieresis" unicode="&#xcf;" horiz-adv-x="514"
               d="M0 1616 L0 1793 L136 1793 L136 1616 L0 1616 Z M376 1616 L376 1793 L513 1793 L513 1616 L376 1616 Z M193 0 L193 1488 L321 1488 L321 0 L193 0 Z "/>
        <glyph glyph-name="&amp;#xd0;" unicode="&#xd0;" horiz-adv-x="1498"
               d="M310 107 L602 107 Q912 107 1074.5 265.5 Q1237 424 1237 738 Q1237 910 1191.5 1035 Q1146 1160 1058 1235.5 Q970 1311 850 1346.5 Q730 1382 573 1382 L310 1382 L310 833 L552 833 L552 737 L310 737 L310 107 Z M182 0 L182 737 L40 737 L40 833 L182 833 L182 1488 L585 1488 Q767 1488 910.5 1445 Q1054 1402 1160 1313.5 Q1266 1225 1323 1080.5 Q1380 936 1380 743 Q1380 378 1179 189 Q978 0 616 0 L182 0 Z "/>
        <glyph glyph-name="&amp;#x110;" unicode="&#x110;" horiz-adv-x="1498"
               d="M310 107 L602 107 Q912 107 1074.5 265.5 Q1237 424 1237 738 Q1237 910 1191.5 1035 Q1146 1160 1058 1235.5 Q970 1311 850 1346.5 Q730 1382 573 1382 L310 1382 L310 833 L552 833 L552 737 L310 737 L310 107 Z M182 0 L182 737 L40 737 L40 833 L182 833 L182 1488 L585 1488 Q767 1488 910.5 1445 Q1054 1402 1160 1313.5 Q1266 1225 1323 1080.5 Q1380 936 1380 743 Q1380 378 1179 189 Q978 0 616 0 L182 0 Z "/>
        <glyph glyph-name="Ntilde" unicode="&#xd1;" horiz-adv-x="1499"
               d="M464 1616 Q467 1723 508.5 1762.5 Q550 1802 623 1802 Q669 1802 766 1754 Q863 1706 887 1706 Q903 1706 914 1715 Q925 1724 931 1742 Q937 1760 939 1771 Q941 1782 943 1802 L1034 1802 Q1030 1701 994.5 1658.5 Q959 1616 893 1616 Q849 1616 743.5 1667.5 Q638 1719 615 1719 Q562 1719 554 1616 L464 1616 Z M182 0 L182 1488 L331 1488 L1150 233 L1203 160 Q1196 468 1196 543 L1196 1488 L1317 1488 L1317 0 L1165 0 L348 1253 L297 1326 Q305 1101 305 938 L305 0 L182 0 Z "/>
        <glyph glyph-name="Ograve" unicode="&#xd2;" horiz-adv-x="1627"
               d="M777 1616 L501 2003 L659 2003 L850 1616 L777 1616 Z M815 82 Q999 82 1124.5 166 Q1250 250 1308.5 396.5 Q1367 543 1367 745 Q1367 1061 1227 1234 Q1087 1407 816 1407 Q543 1407 400.5 1234.5 Q258 1062 258 745 Q258 438 399.5 260 Q541 82 815 82 Z M815 -23 Q645 -23 511.5 33.5 Q378 90 292.5 192.5 Q207 295 162.5 435 Q118 575 118 744 Q118 1098 300.5 1306 Q483 1514 816 1514 Q1143 1514 1326 1304.5 Q1509 1095 1509 743 Q1509 578 1464 438.5 Q1419 299 1333.5 196 Q1248 93 1115 35 Q982 -23 815 -23 Z "/>
        <glyph glyph-name="Oacute" unicode="&#xd3;" horiz-adv-x="1627"
               d="M776 1616 L970 2003 L1124 2003 L851 1616 L776 1616 Z M815 82 Q999 82 1124.5 166 Q1250 250 1308.5 396.5 Q1367 543 1367 745 Q1367 1061 1227 1234 Q1087 1407 816 1407 Q543 1407 400.5 1234.5 Q258 1062 258 745 Q258 438 399.5 260 Q541 82 815 82 Z M815 -23 Q645 -23 511.5 33.5 Q378 90 292.5 192.5 Q207 295 162.5 435 Q118 575 118 744 Q118 1098 300.5 1306 Q483 1514 816 1514 Q1143 1514 1326 1304.5 Q1509 1095 1509 743 Q1509 578 1464 438.5 Q1419 299 1333.5 196 Q1248 93 1115 35 Q982 -23 815 -23 Z "/>
        <glyph glyph-name="Ocircumflex" unicode="&#xd4;" horiz-adv-x="1627"
               d="M548 1616 L716 1975 L908 1975 L1079 1616 L988 1616 L813 1911 L637 1616 L548 1616 Z M815 82 Q999 82 1124.5 166 Q1250 250 1308.5 396.5 Q1367 543 1367 745 Q1367 1061 1227 1234 Q1087 1407 816 1407 Q543 1407 400.5 1234.5 Q258 1062 258 745 Q258 438 399.5 260 Q541 82 815 82 Z M815 -23 Q645 -23 511.5 33.5 Q378 90 292.5 192.5 Q207 295 162.5 435 Q118 575 118 744 Q118 1098 300.5 1306 Q483 1514 816 1514 Q1143 1514 1326 1304.5 Q1509 1095 1509 743 Q1509 578 1464 438.5 Q1419 299 1333.5 196 Q1248 93 1115 35 Q982 -23 815 -23 Z "/>
        <glyph glyph-name="Otilde" unicode="&#xd5;" horiz-adv-x="1627"
               d="M528 1616 Q531 1723 572.5 1762.5 Q614 1802 687 1802 Q733 1802 830 1754 Q927 1706 951 1706 Q967 1706 978 1715 Q989 1724 995 1742 Q1001 1760 1003 1771 Q1005 1782 1007 1802 L1098 1802 Q1094 1701 1058.5 1658.5 Q1023 1616 957 1616 Q913 1616 807.5 1667.5 Q702 1719 679 1719 Q626 1719 618 1616 L528 1616 Z M815 82 Q999 82 1124.5 166 Q1250 250 1308.5 396.5 Q1367 543 1367 745 Q1367 1061 1227 1234 Q1087 1407 816 1407 Q543 1407 400.5 1234.5 Q258 1062 258 745 Q258 438 399.5 260 Q541 82 815 82 Z M815 -23 Q645 -23 511.5 33.5 Q378 90 292.5 192.5 Q207 295 162.5 435 Q118 575 118 744 Q118 1098 300.5 1306 Q483 1514 816 1514 Q1143 1514 1326 1304.5 Q1509 1095 1509 743 Q1509 578 1464 438.5 Q1419 299 1333.5 196 Q1248 93 1115 35 Q982 -23 815 -23 Z "/>
        <glyph glyph-name="Odieresis" unicode="&#xd6;" horiz-adv-x="1627"
               d="M557 1616 L557 1793 L693 1793 L693 1616 L557 1616 Z M933 1616 L933 1793 L1070 1793 L1070 1616 L933 1616 Z M815 82 Q999 82 1124.5 166 Q1250 250 1308.5 396.5 Q1367 543 1367 745 Q1367 1061 1227 1234 Q1087 1407 816 1407 Q543 1407 400.5 1234.5 Q258 1062 258 745 Q258 438 399.5 260 Q541 82 815 82 Z M815 -23 Q645 -23 511.5 33.5 Q378 90 292.5 192.5 Q207 295 162.5 435 Q118 575 118 744 Q118 1098 300.5 1306 Q483 1514 816 1514 Q1143 1514 1326 1304.5 Q1509 1095 1509 743 Q1509 578 1464 438.5 Q1419 299 1333.5 196 Q1248 93 1115 35 Q982 -23 815 -23 Z "/>
        <glyph glyph-name="multiply" unicode="&#xd7;" horiz-adv-x="1101"
               d="M864 261 L557 569 L249 262 L172 339 L480 646 L173 954 L250 1031 L557 723 L865 1030 L942 953 L634 646 L941 338 L864 261 Z "/>
        <glyph glyph-name="Oslash" unicode="&#xd8;" horiz-adv-x="1627"
               d="M480 -229 L391 -192 L487 44 Q306 130 212 312.5 Q118 495 118 744 Q118 977 197.5 1150 Q277 1323 435.5 1420 Q594 1517 816 1517 Q953 1517 1070 1477 L1163 1706 L1257 1673 L1161 1437 Q1329 1347 1419 1167 Q1509 987 1509 743 Q1509 578 1464 438.5 Q1419 299 1333.5 196 Q1248 93 1115 35 Q982 -23 815 -23 Q684 -23 578 10 L480 -229 Z M530 150 L1029 1376 Q932 1410 816 1410 Q544 1410 401 1236 Q258 1062 258 745 Q258 533 326.5 379.5 Q395 226 530 150 Z M815 82 Q999 82 1124.5 166 Q1250 250 1308.5 396.5 Q1367 543 1367 745 Q1367 1176 1118 1332 L619 111 Q708 82 815 82 Z "/>
        <glyph glyph-name="Ugrave" unicode="&#xd9;" horiz-adv-x="1408"
               d="M668 1616 L392 2003 L550 2003 L741 1616 L668 1616 Z M699 -23 Q555 -23 449 16 Q343 55 280 128 Q217 201 187 297.5 Q157 394 157 517 L157 1488 L285 1488 L285 497 Q285 284 390 181.5 Q495 79 707 79 Q1123 79 1123 498 L1123 1488 L1251 1488 L1251 515 Q1251 417 1231.5 336 Q1212 255 1170 188 Q1128 121 1064 74.5 Q1000 28 907.5 2.5 Q815 -23 699 -23 Z "/>
        <glyph glyph-name="Uacute" unicode="&#xda;" horiz-adv-x="1408"
               d="M666 1616 L860 2003 L1014 2003 L741 1616 L666 1616 Z M699 -23 Q555 -23 449 16 Q343 55 280 128 Q217 201 187 297.5 Q157 394 157 517 L157 1488 L285 1488 L285 497 Q285 284 390 181.5 Q495 79 707 79 Q1123 79 1123 498 L1123 1488 L1251 1488 L1251 515 Q1251 417 1231.5 336 Q1212 255 1170 188 Q1128 121 1064 74.5 Q1000 28 907.5 2.5 Q815 -23 699 -23 Z "/>
        <glyph glyph-name="Ucircumflex" unicode="&#xdb;" horiz-adv-x="1408"
               d="M438 1616 L606 1975 L798 1975 L969 1616 L878 1616 L703 1911 L527 1616 L438 1616 Z M699 -23 Q555 -23 449 16 Q343 55 280 128 Q217 201 187 297.5 Q157 394 157 517 L157 1488 L285 1488 L285 497 Q285 284 390 181.5 Q495 79 707 79 Q1123 79 1123 498 L1123 1488 L1251 1488 L1251 515 Q1251 417 1231.5 336 Q1212 255 1170 188 Q1128 121 1064 74.5 Q1000 28 907.5 2.5 Q815 -23 699 -23 Z "/>
        <glyph glyph-name="Udieresis" unicode="&#xdc;" horiz-adv-x="1408"
               d="M448 1616 L448 1793 L584 1793 L584 1616 L448 1616 Z M824 1616 L824 1793 L961 1793 L961 1616 L824 1616 Z M699 -23 Q555 -23 449 16 Q343 55 280 128 Q217 201 187 297.5 Q157 394 157 517 L157 1488 L285 1488 L285 497 Q285 284 390 181.5 Q495 79 707 79 Q1123 79 1123 498 L1123 1488 L1251 1488 L1251 515 Q1251 417 1231.5 336 Q1212 255 1170 188 Q1128 121 1064 74.5 Q1000 28 907.5 2.5 Q815 -23 699 -23 Z "/>
        <glyph glyph-name="Yacute" unicode="&#xdd;" horiz-adv-x="1166"
               d="M546 1616 L740 2003 L894 2003 L621 1616 L546 1616 Z M501 0 L501 589 L5 1488 L144 1488 L575 703 L1020 1488 L1161 1488 L632 593 L632 0 L501 0 Z "/>
        <glyph glyph-name="Thorn" unicode="&#xde;" horiz-adv-x="1275"
               d="M182 0 L182 1488 L310 1488 L310 1191 L679 1191 Q960 1191 1088 1095.5 Q1216 1000 1216 765 Q1216 694 1202.5 635 Q1189 576 1155 523 Q1121 470 1068 434 Q1015 398 931 377 Q847 356 738 356 L310 356 L310 0 L182 0 Z M310 458 L744 458 Q823 458 883 474.5 Q943 491 981 519 Q1019 547 1042.5 588.5 Q1066 630 1075.5 675 Q1085 720 1085 775 Q1085 884 1050.5 949.5 Q1016 1015 929.5 1050 Q843 1085 695 1085 L310 1085 L310 458 Z "/>
        <glyph glyph-name="germandbls" unicode="&#xdf;" horiz-adv-x="1205"
               d="M123 0 L123 1060 Q123 1293 230 1420.5 Q337 1548 561 1548 Q748 1548 852 1455 Q956 1362 956 1205 Q956 1157 943.5 1118 Q931 1079 914 1053 Q897 1027 863.5 999.5 Q830 972 803.5 956 Q777 940 728.5 911.5 Q680 883 650 864 Q691 830 753 790 Q815 750 865.5 719.5 Q916 689 971 647.5 Q1026 606 1063.5 566 Q1101 526 1125.5 470 Q1150 414 1150 351 Q1150 0 783 0 L416 0 L428 108 L807 108 Q909 108 967.5 175.5 Q1026 243 1026 347 Q1026 396 995 446 Q964 496 908 542 Q852 588 802.5 622 Q753 656 686 697 Q619 738 595 755 Q586 761 571.5 771.5 Q557 782 550.5 786.5 Q544 791 535 799.5 Q526 808 522 814 Q518 820 515 828 Q512 836 512 846 Q512 905 576 945 Q601 961 643.5 985.5 Q686 1010 707.5 1023 Q729 1036 758 1058.5 Q787 1081 801 1101.5 Q815 1122 825.5 1152 Q836 1182 836 1218 Q836 1323 767 1386 Q698 1449 567 1449 Q481 1449 418.5 1420.5 Q356 1392 320 1340.5 Q284 1289 267.5 1225 Q251 1161 251 1082 L251 0 L123 0 Z "/>
        <glyph glyph-name="agrave" unicode="&#xe0;" horiz-adv-x="1077"
               d="M476 1218 L200 1605 L358 1605 L549 1218 L476 1218 Z M440 -24 Q285 -24 192 54 Q99 132 99 277 Q99 363 136 426.5 Q173 490 243.5 529.5 Q314 569 404.5 591 Q495 613 615 622 Q743 630 805 635 L805 757 Q805 883 747.5 946.5 Q690 1010 563 1010 Q389 1010 238 927 Q234 937 219.5 970.5 Q205 1004 199 1022 Q261 1062 361 1089 Q461 1116 557 1116 Q754 1116 840 1031.5 Q926 947 926 732 L926 0 L829 0 Q824 23 814.5 91 Q805 159 805 161 Q676 -24 440 -24 Z M444 75 Q572 75 671.5 150.5 Q771 226 802 360 L802 547 Q658 535 657 535 Q413 513 318 455 Q223 397 223 275 Q223 175 283.5 125 Q344 75 444 75 Z "/>
        <glyph glyph-name="aacute" unicode="&#xe1;" horiz-adv-x="1077"
               d="M475 1218 L669 1605 L823 1605 L550 1218 L475 1218 Z M440 -24 Q285 -24 192 54 Q99 132 99 277 Q99 363 136 426.5 Q173 490 243.5 529.5 Q314 569 404.5 591 Q495 613 615 622 Q743 630 805 635 L805 757 Q805 883 747.5 946.5 Q690 1010 563 1010 Q389 1010 238 927 Q234 937 219.5 970.5 Q205 1004 199 1022 Q261 1062 361 1089 Q461 1116 557 1116 Q754 1116 840 1031.5 Q926 947 926 732 L926 0 L829 0 Q824 23 814.5 91 Q805 159 805 161 Q676 -24 440 -24 Z M444 75 Q572 75 671.5 150.5 Q771 226 802 360 L802 547 Q658 535 657 535 Q413 513 318 455 Q223 397 223 275 Q223 175 283.5 125 Q344 75 444 75 Z "/>
        <glyph glyph-name="acircumflex" unicode="&#xe2;" horiz-adv-x="1077"
               d="M247 1218 L415 1577 L607 1577 L778 1218 L687 1218 L512 1513 L336 1218 L247 1218 Z M440 -24 Q285 -24 192 54 Q99 132 99 277 Q99 363 136 426.5 Q173 490 243.5 529.5 Q314 569 404.5 591 Q495 613 615 622 Q743 630 805 635 L805 757 Q805 883 747.5 946.5 Q690 1010 563 1010 Q389 1010 238 927 Q234 937 219.5 970.5 Q205 1004 199 1022 Q261 1062 361 1089 Q461 1116 557 1116 Q754 1116 840 1031.5 Q926 947 926 732 L926 0 L829 0 Q824 23 814.5 91 Q805 159 805 161 Q676 -24 440 -24 Z M444 75 Q572 75 671.5 150.5 Q771 226 802 360 L802 547 Q658 535 657 535 Q413 513 318 455 Q223 397 223 275 Q223 175 283.5 125 Q344 75 444 75 Z "/>
        <glyph glyph-name="atilde" unicode="&#xe3;" horiz-adv-x="1077"
               d="M228 1218 Q231 1325 272.5 1364.5 Q314 1404 387 1404 Q433 1404 530 1356 Q627 1308 651 1308 Q667 1308 678 1317 Q689 1326 695 1344 Q701 1362 703 1373 Q705 1384 707 1404 L798 1404 Q794 1303 758.5 1260.5 Q723 1218 657 1218 Q613 1218 507.5 1269.5 Q402 1321 379 1321 Q326 1321 318 1218 L228 1218 Z M440 -24 Q285 -24 192 54 Q99 132 99 277 Q99 363 136 426.5 Q173 490 243.5 529.5 Q314 569 404.5 591 Q495 613 615 622 Q743 630 805 635 L805 757 Q805 883 747.5 946.5 Q690 1010 563 1010 Q389 1010 238 927 Q234 937 219.5 970.5 Q205 1004 199 1022 Q261 1062 361 1089 Q461 1116 557 1116 Q754 1116 840 1031.5 Q926 947 926 732 L926 0 L829 0 Q824 23 814.5 91 Q805 159 805 161 Q676 -24 440 -24 Z M444 75 Q572 75 671.5 150.5 Q771 226 802 360 L802 547 Q658 535 657 535 Q413 513 318 455 Q223 397 223 275 Q223 175 283.5 125 Q344 75 444 75 Z "/>
        <glyph glyph-name="adieresis" unicode="&#xe4;" horiz-adv-x="1077"
               d="M256 1218 L256 1395 L392 1395 L392 1218 L256 1218 Z M632 1218 L632 1395 L769 1395 L769 1218 L632 1218 Z M440 -24 Q285 -24 192 54 Q99 132 99 277 Q99 363 136 426.5 Q173 490 243.5 529.5 Q314 569 404.5 591 Q495 613 615 622 Q743 630 805 635 L805 757 Q805 883 747.5 946.5 Q690 1010 563 1010 Q389 1010 238 927 Q234 937 219.5 970.5 Q205 1004 199 1022 Q261 1062 361 1089 Q461 1116 557 1116 Q754 1116 840 1031.5 Q926 947 926 732 L926 0 L829 0 Q824 23 814.5 91 Q805 159 805 161 Q676 -24 440 -24 Z M444 75 Q572 75 671.5 150.5 Q771 226 802 360 L802 547 Q658 535 657 535 Q413 513 318 455 Q223 397 223 275 Q223 175 283.5 125 Q344 75 444 75 Z "/>
        <glyph glyph-name="aring" unicode="&#xe5;" horiz-adv-x="1077"
               d="M448 1317 Q476 1289 514 1289 Q552 1289 579.5 1317 Q607 1345 607 1396 Q606 1446 578.5 1474.5 Q551 1503 513 1503 Q475 1503 447.5 1474.5 Q420 1446 420 1395 Q420 1345 448 1317 Z M515 1218 Q440 1218 384.5 1265.5 Q329 1313 329 1396 Q329 1480 383 1527 Q437 1574 512 1574 Q586 1574 640.5 1526.5 Q695 1479 695 1396 Q695 1311 641.5 1264.5 Q588 1218 515 1218 Z M440 -24 Q285 -24 192 54 Q99 132 99 277 Q99 363 136 426.5 Q173 490 243.5 529.5 Q314 569 404.5 591 Q495 613 615 622 Q743 630 805 635 L805 757 Q805 883 747.5 946.5 Q690 1010 563 1010 Q389 1010 238 927 Q234 937 219.5 970.5 Q205 1004 199 1022 Q261 1062 361 1089 Q461 1116 557 1116 Q754 1116 840 1031.5 Q926 947 926 732 L926 0 L829 0 Q824 23 814.5 91 Q805 159 805 161 Q676 -24 440 -24 Z M444 75 Q572 75 671.5 150.5 Q771 226 802 360 L802 547 Q658 535 657 535 Q413 513 318 455 Q223 397 223 275 Q223 175 283.5 125 Q344 75 444 75 Z "/>
        <glyph glyph-name="ae" unicode="&#xe6;" horiz-adv-x="1650"
               d="M436 -24 Q372 -24 315.5 -8.5 Q259 7 208.5 40.5 Q158 74 128.5 138 Q99 202 99 289 Q99 347 117 394 Q135 441 164.5 473 Q194 505 239.5 529 Q285 553 332.5 567 Q380 581 443 590 Q506 599 561 602.5 Q616 606 686 607 L739 607 L739 803 Q739 1009 550 1009 Q347 1009 189 913 L146 1019 Q203 1056 315.5 1086.5 Q428 1117 527 1117 Q574 1117 623.5 1104 Q673 1091 720.5 1065 Q768 1039 800 993 Q832 947 837 889 Q873 971 934 1023.5 Q995 1076 1060 1096.5 Q1125 1117 1199 1117 Q1277 1117 1339 1090 Q1401 1063 1439 1020.5 Q1477 978 1502 922.5 Q1527 867 1536.5 814 Q1546 761 1546 708 Q1546 620 1488.5 575.5 Q1431 531 1293 530 Q924 513 869 513 L865 513 Q872 309 951.5 192 Q1031 75 1191 75 Q1293 75 1367 99.5 Q1441 124 1535 175 L1556 75 Q1419 -24 1183 -24 Q996 -24 880 95 Q777 43 656.5 9.5 Q536 -24 436 -24 Z M446 75 Q596 75 822 165 Q777 254 757.5 332 Q738 410 732 515 Q601 515 507.5 503 Q414 491 359 472 Q304 453 273 421.5 Q242 390 232.5 358.5 Q223 327 223 282 Q223 173 285 124 Q347 75 446 75 Z M868 607 Q1273 619 1293 621 Q1376 627 1400.5 646.5 Q1425 666 1425 713 Q1425 852 1365 931.5 Q1305 1011 1196 1011 Q1127 1011 1071 987 Q1015 963 979 924 Q943 885 918 831 Q893 777 882 722 Q871 667 868 607 Z "/>
        <glyph glyph-name="ccedilla" unicode="&#xe7;" horiz-adv-x="965"
               d="M353 -431 L460 -10 L519 -10 L482 -431 L353 -431 Z M604 -24 Q445 -24 328 54 Q211 132 154 257.5 Q97 383 97 537 Q97 655 131 759 Q165 863 227.5 943 Q290 1023 388.5 1069.5 Q487 1116 608 1116 Q687 1116 765.5 1095 Q844 1074 882 1045 L843 952 Q740 1010 599 1010 Q428 1010 328 880.5 Q228 751 228 537 Q228 332 327.5 205.5 Q427 79 599 79 Q719 79 857 139 L876 50 Q829 15 754 -4.5 Q679 -24 604 -24 Z "/>
        <glyph glyph-name="egrave" unicode="&#xe8;" horiz-adv-x="1093"
               d="M508 1218 L232 1605 L390 1605 L581 1218 L508 1218 Z M591 -24 Q364 -24 230.5 128 Q97 280 97 540 Q97 791 227.5 951 Q358 1111 565 1116 Q758 1116 875 978 Q992 840 992 608 Q992 599 991.5 571.5 Q991 544 991 533 L228 533 Q230 322 330 198.5 Q430 75 594 75 Q701 75 780 100 Q859 125 945 171 L966 78 Q800 -24 591 -24 Z M233 633 L857 633 Q857 816 778 913.5 Q699 1011 561 1011 Q421 1011 335 907 Q249 803 233 633 Z "/>
        <glyph glyph-name="eacute" unicode="&#xe9;" horiz-adv-x="1093"
               d="M507 1218 L701 1605 L855 1605 L582 1218 L507 1218 Z M591 -24 Q364 -24 230.5 128 Q97 280 97 540 Q97 791 227.5 951 Q358 1111 565 1116 Q758 1116 875 978 Q992 840 992 608 Q992 599 991.5 571.5 Q991 544 991 533 L228 533 Q230 322 330 198.5 Q430 75 594 75 Q701 75 780 100 Q859 125 945 171 L966 78 Q800 -24 591 -24 Z M233 633 L857 633 Q857 816 778 913.5 Q699 1011 561 1011 Q421 1011 335 907 Q249 803 233 633 Z "/>
        <glyph glyph-name="ecircumflex" unicode="&#xea;" horiz-adv-x="1093"
               d="M279 1218 L447 1577 L639 1577 L810 1218 L719 1218 L544 1513 L368 1218 L279 1218 Z M591 -24 Q364 -24 230.5 128 Q97 280 97 540 Q97 791 227.5 951 Q358 1111 565 1116 Q758 1116 875 978 Q992 840 992 608 Q992 599 991.5 571.5 Q991 544 991 533 L228 533 Q230 322 330 198.5 Q430 75 594 75 Q701 75 780 100 Q859 125 945 171 L966 78 Q800 -24 591 -24 Z M233 633 L857 633 Q857 816 778 913.5 Q699 1011 561 1011 Q421 1011 335 907 Q249 803 233 633 Z "/>
        <glyph glyph-name="edieresis" unicode="&#xeb;" horiz-adv-x="1093"
               d="M288 1218 L288 1395 L424 1395 L424 1218 L288 1218 Z M664 1218 L664 1395 L801 1395 L801 1218 L664 1218 Z M591 -24 Q364 -24 230.5 128 Q97 280 97 540 Q97 791 227.5 951 Q358 1111 565 1116 Q758 1116 875 978 Q992 840 992 608 Q992 599 991.5 571.5 Q991 544 991 533 L228 533 Q230 322 330 198.5 Q430 75 594 75 Q701 75 780 100 Q859 125 945 171 L966 78 Q800 -24 591 -24 Z M233 633 L857 633 Q857 816 778 913.5 Q699 1011 561 1011 Q421 1011 335 907 Q249 803 233 633 Z "/>
        <glyph glyph-name="igrave" unicode="&#xec;" horiz-adv-x="376"
               d="M164 1218 L-112 1605 L46 1605 L237 1218 L164 1218 Z M138 0 L138 1096 L263 1096 L263 0 L138 0 Z "/>
        <glyph glyph-name="iacute" unicode="&#xed;" horiz-adv-x="376"
               d="M163 1218 L357 1605 L511 1605 L238 1218 L163 1218 Z M138 0 L138 1096 L263 1096 L263 0 L138 0 Z "/>
        <glyph glyph-name="icircumflex" unicode="&#xee;" horiz-adv-x="376"
               d="M-65 1218 L103 1577 L295 1577 L466 1218 L375 1218 L200 1513 L24 1218 L-65 1218 Z M138 0 L138 1096 L263 1096 L263 0 L138 0 Z "/>
        <glyph glyph-name="idieresis" unicode="&#xef;" horiz-adv-x="376"
               d="M-56 1218 L-56 1395 L80 1395 L80 1218 L-56 1218 Z M320 1218 L320 1395 L457 1395 L457 1218 L320 1218 Z M138 0 L138 1096 L263 1096 L263 0 L138 0 Z "/>
        <glyph glyph-name="eth" unicode="&#xf0;" horiz-adv-x="1194"
               d="M593 -28 Q498 -28 416.5 0.5 Q335 29 278 78.5 Q221 128 180.5 194 Q140 260 120.5 334 Q101 408 101 487 Q101 703 234.5 836.5 Q368 970 586 970 Q636 970 681.5 960 Q727 950 757.5 937.5 Q788 925 824.5 900.5 Q861 876 878 861 Q895 846 929 816 Q883 900 771.5 1026.5 Q660 1153 554 1252 L272 1133 L246 1229 L483 1324 L232 1546 L390 1546 L579 1374 L868 1500 L897 1408 L649 1299 Q674 1273 715 1230.5 Q756 1188 781 1162 Q806 1136 843 1096 Q880 1056 903 1027 Q926 998 955.5 956.5 Q985 915 1003 879.5 Q1021 844 1041 798 Q1061 752 1071.5 707.5 Q1082 663 1089 609.5 Q1096 556 1096 499 Q1096 496 1096 492 Q1096 386 1065 293.5 Q1034 201 974 128.5 Q914 56 816 14 Q718 -28 593 -28 Z M598 72 Q773 72 873 186.5 Q973 301 973 472 Q973 543 948 612.5 Q923 682 876.5 740.5 Q830 799 756 835.5 Q682 872 592 872 Q482 872 398.5 817 Q315 762 273.5 676 Q232 590 232 490 Q232 412 254.5 339 Q277 266 320.5 205.5 Q364 145 436 108.5 Q508 72 598 72 Z "/>
        <glyph glyph-name="ntilde" unicode="&#xf1;" horiz-adv-x="1152"
               d="M294 1218 Q297 1325 338.5 1364.5 Q380 1404 453 1404 Q499 1404 596 1356 Q693 1308 717 1308 Q733 1308 744 1317 Q755 1326 761 1344 Q767 1362 769 1373 Q771 1384 773 1404 L864 1404 Q860 1303 824.5 1260.5 Q789 1218 723 1218 Q679 1218 573.5 1269.5 Q468 1321 445 1321 Q392 1321 384 1218 L294 1218 Z M147 0 L147 1096 L255 1096 L272 927 Q331 1015 430.5 1065.5 Q530 1116 645 1116 Q834 1116 923 1012 Q1012 908 1012 680 L1012 0 L887 0 L887 736 Q882 882 825 946 Q768 1010 638 1010 Q489 1010 394.5 935 Q300 860 276 741 Q272 694 272 643 L272 0 L147 0 Z "/>
        <glyph glyph-name="ograve" unicode="&#xf2;" horiz-adv-x="1190"
               d="M558 1218 L282 1605 L440 1605 L631 1218 L558 1218 Z M601 75 Q721 75 803.5 138.5 Q886 202 923.5 306 Q961 410 961 545 Q961 757 871 886 Q781 1015 597 1015 Q477 1015 392.5 950.5 Q308 886 269 781.5 Q230 677 230 542 Q230 337 325.5 206 Q421 75 601 75 Z M592 -24 Q443 -24 329.5 51 Q216 126 156.5 254.5 Q97 383 97 545 Q97 667 131.5 771.5 Q166 876 230 952.5 Q294 1029 389 1072.5 Q484 1116 600 1116 Q754 1116 867 1040.5 Q980 965 1036.5 837.5 Q1093 710 1093 547 Q1093 383 1035 255 Q977 127 862 51.5 Q747 -24 592 -24 Z "/>
        <glyph glyph-name="oacute" unicode="&#xf3;" horiz-adv-x="1190"
               d="M558 1218 L752 1605 L906 1605 L633 1218 L558 1218 Z M601 75 Q721 75 803.5 138.5 Q886 202 923.5 306 Q961 410 961 545 Q961 757 871 886 Q781 1015 597 1015 Q477 1015 392.5 950.5 Q308 886 269 781.5 Q230 677 230 542 Q230 337 325.5 206 Q421 75 601 75 Z M592 -24 Q443 -24 329.5 51 Q216 126 156.5 254.5 Q97 383 97 545 Q97 667 131.5 771.5 Q166 876 230 952.5 Q294 1029 389 1072.5 Q484 1116 600 1116 Q754 1116 867 1040.5 Q980 965 1036.5 837.5 Q1093 710 1093 547 Q1093 383 1035 255 Q977 127 862 51.5 Q747 -24 592 -24 Z "/>
        <glyph glyph-name="ocircumflex" unicode="&#xf4;" horiz-adv-x="1190"
               d="M330 1218 L498 1577 L690 1577 L861 1218 L770 1218 L595 1513 L419 1218 L330 1218 Z M601 75 Q721 75 803.5 138.5 Q886 202 923.5 306 Q961 410 961 545 Q961 757 871 886 Q781 1015 597 1015 Q477 1015 392.5 950.5 Q308 886 269 781.5 Q230 677 230 542 Q230 337 325.5 206 Q421 75 601 75 Z M592 -24 Q443 -24 329.5 51 Q216 126 156.5 254.5 Q97 383 97 545 Q97 667 131.5 771.5 Q166 876 230 952.5 Q294 1029 389 1072.5 Q484 1116 600 1116 Q754 1116 867 1040.5 Q980 965 1036.5 837.5 Q1093 710 1093 547 Q1093 383 1035 255 Q977 127 862 51.5 Q747 -24 592 -24 Z "/>
        <glyph glyph-name="otilde" unicode="&#xf5;" horiz-adv-x="1190"
               d="M310 1218 Q313 1325 354.5 1364.5 Q396 1404 469 1404 Q515 1404 612 1356 Q709 1308 733 1308 Q749 1308 760 1317 Q771 1326 777 1344 Q783 1362 785 1373 Q787 1384 789 1404 L880 1404 Q876 1303 840.5 1260.5 Q805 1218 739 1218 Q695 1218 589.5 1269.5 Q484 1321 461 1321 Q408 1321 400 1218 L310 1218 Z M601 75 Q721 75 803.5 138.5 Q886 202 923.5 306 Q961 410 961 545 Q961 757 871 886 Q781 1015 597 1015 Q477 1015 392.5 950.5 Q308 886 269 781.5 Q230 677 230 542 Q230 337 325.5 206 Q421 75 601 75 Z M592 -24 Q443 -24 329.5 51 Q216 126 156.5 254.5 Q97 383 97 545 Q97 667 131.5 771.5 Q166 876 230 952.5 Q294 1029 389 1072.5 Q484 1116 600 1116 Q754 1116 867 1040.5 Q980 965 1036.5 837.5 Q1093 710 1093 547 Q1093 383 1035 255 Q977 127 862 51.5 Q747 -24 592 -24 Z "/>
        <glyph glyph-name="odieresis" unicode="&#xf6;" horiz-adv-x="1190"
               d="M338 1218 L338 1395 L474 1395 L474 1218 L338 1218 Z M714 1218 L714 1395 L851 1395 L851 1218 L714 1218 Z M601 75 Q721 75 803.5 138.5 Q886 202 923.5 306 Q961 410 961 545 Q961 757 871 886 Q781 1015 597 1015 Q477 1015 392.5 950.5 Q308 886 269 781.5 Q230 677 230 542 Q230 337 325.5 206 Q421 75 601 75 Z M592 -24 Q443 -24 329.5 51 Q216 126 156.5 254.5 Q97 383 97 545 Q97 667 131.5 771.5 Q166 876 230 952.5 Q294 1029 389 1072.5 Q484 1116 600 1116 Q754 1116 867 1040.5 Q980 965 1036.5 837.5 Q1093 710 1093 547 Q1093 383 1035 255 Q977 127 862 51.5 Q747 -24 592 -24 Z "/>
        <glyph glyph-name="divide" unicode="&#xf7;" horiz-adv-x="1099"
               d="M446 82 L446 284 L637 284 L637 82 L446 82 Z M60 554 L60 675 L1017 675 L1017 554 L60 554 Z M446 913 L446 1115 L637 1115 L637 913 L446 913 Z "/>
        <glyph glyph-name="oslash" unicode="&#xf8;" horiz-adv-x="1190"
               d="M284 -311 L220 -283 L351 38 Q231 107 164 241 Q97 375 97 545 Q97 667 131.5 771.5 Q166 876 230 952.5 Q294 1029 389 1072.5 Q484 1116 600 1116 Q694 1116 778 1086 L910 1410 L979 1386 L844 1055 Q963 987 1028 852.5 Q1093 718 1093 547 Q1093 383 1035 255 Q977 127 862 51.5 Q747 -24 592 -24 Q498 -24 414 7 L284 -311 Z M392 139 L739 990 Q675 1015 597 1015 Q477 1015 392.5 950.5 Q308 886 269 781.5 Q230 677 230 542 Q230 410 271 304 Q312 198 392 139 Z M601 75 Q721 75 803.5 138.5 Q886 202 923.5 306 Q961 410 961 545 Q961 840 802 955 L454 104 Q520 75 601 75 Z "/>
        <glyph glyph-name="ugrave" unicode="&#xf9;" horiz-adv-x="1106"
               d="M512 1218 L236 1605 L394 1605 L585 1218 L512 1218 Z M555 -27 Q469 -27 395.5 -7.5 Q322 12 259 53.5 Q196 95 159.5 171 Q123 247 123 350 L123 1096 L247 1096 L247 347 Q247 269 271 215 Q295 161 340 133.5 Q385 106 436 95 Q487 84 555 84 Q622 84 673 95.5 Q724 107 768 135 Q812 163 835.5 216.5 Q859 270 859 347 L859 1096 L983 1096 L983 350 Q983 266 959 200 Q935 134 895 92 Q855 50 798.5 22.5 Q742 -5 682.5 -16 Q623 -27 555 -27 Z "/>
        <glyph glyph-name="uacute" unicode="&#xfa;" horiz-adv-x="1106"
               d="M510 1218 L704 1605 L858 1605 L585 1218 L510 1218 Z M555 -27 Q469 -27 395.5 -7.5 Q322 12 259 53.5 Q196 95 159.5 171 Q123 247 123 350 L123 1096 L247 1096 L247 347 Q247 269 271 215 Q295 161 340 133.5 Q385 106 436 95 Q487 84 555 84 Q622 84 673 95.5 Q724 107 768 135 Q812 163 835.5 216.5 Q859 270 859 347 L859 1096 L983 1096 L983 350 Q983 266 959 200 Q935 134 895 92 Q855 50 798.5 22.5 Q742 -5 682.5 -16 Q623 -27 555 -27 Z "/>
        <glyph glyph-name="ucircumflex" unicode="&#xfb;" horiz-adv-x="1106"
               d="M282 1218 L450 1577 L642 1577 L813 1218 L722 1218 L547 1513 L371 1218 L282 1218 Z M555 -27 Q469 -27 395.5 -7.5 Q322 12 259 53.5 Q196 95 159.5 171 Q123 247 123 350 L123 1096 L247 1096 L247 347 Q247 269 271 215 Q295 161 340 133.5 Q385 106 436 95 Q487 84 555 84 Q622 84 673 95.5 Q724 107 768 135 Q812 163 835.5 216.5 Q859 270 859 347 L859 1096 L983 1096 L983 350 Q983 266 959 200 Q935 134 895 92 Q855 50 798.5 22.5 Q742 -5 682.5 -16 Q623 -27 555 -27 Z "/>
        <glyph glyph-name="udieresis" unicode="&#xfc;" horiz-adv-x="1106"
               d="M292 1218 L292 1395 L428 1395 L428 1218 L292 1218 Z M668 1218 L668 1395 L805 1395 L805 1218 L668 1218 Z M555 -27 Q469 -27 395.5 -7.5 Q322 12 259 53.5 Q196 95 159.5 171 Q123 247 123 350 L123 1096 L247 1096 L247 347 Q247 269 271 215 Q295 161 340 133.5 Q385 106 436 95 Q487 84 555 84 Q622 84 673 95.5 Q724 107 768 135 Q812 163 835.5 216.5 Q859 270 859 347 L859 1096 L983 1096 L983 350 Q983 266 959 200 Q935 134 895 92 Q855 50 798.5 22.5 Q742 -5 682.5 -16 Q623 -27 555 -27 Z "/>
        <glyph glyph-name="yacute" unicode="&#xfd;" horiz-adv-x="981"
               d="M448 1218 L642 1605 L796 1605 L523 1218 L448 1218 Z M98 -520 Q56 -520 13 -512 L4 -410 Q7 -410 33.5 -411.5 Q60 -413 73 -413 Q199 -413 262 -370 Q325 -327 374 -202 Q380 -185 405.5 -116 Q431 -47 445 -7 L7 1096 L137 1096 L510 110 Q510 110 555 248 Q830 1107 837 1106 Q838 1106 836 1096 L966 1096 Q528 -135 508 -192 Q439 -358 346 -439 Q253 -520 98 -520 Z "/>
        <glyph glyph-name="thorn" unicode="&#xfe;" horiz-adv-x="1175"
               d="M147 -488 L147 1514 L271 1514 L271 907 Q311 986 400 1050.5 Q489 1115 611 1116 Q833 1116 955.5 966 Q1078 816 1078 560 Q1078 395 1029 265.5 Q980 136 876 56.5 Q772 -23 625 -23 Q558 -23 493.5 -3 Q429 17 367.5 65 Q306 113 271 183 L271 -479 L147 -488 Z M621 78 Q683 78 734.5 100.5 Q786 123 821 162 Q856 201 881.5 249.5 Q907 298 921 354 Q935 410 941.5 461.5 Q948 513 948 564 Q948 622 938.5 679.5 Q929 737 904.5 798.5 Q880 860 842 906 Q804 952 741.5 981.5 Q679 1011 599 1011 Q513 1011 447.5 973.5 Q382 936 344.5 871.5 Q307 807 288.5 730 Q270 653 270 564 Q270 487 280.5 419 Q291 351 316.5 287.5 Q342 224 381 178.5 Q420 133 481.5 105.5 Q543 78 621 78 Z "/>
        <glyph glyph-name="ydieresis" unicode="&#xff;" horiz-adv-x="981"
               d="M228 1218 L228 1395 L364 1395 L364 1218 L228 1218 Z M604 1218 L604 1395 L741 1395 L741 1218 L604 1218 Z M98 -520 Q56 -520 13 -512 L4 -410 Q7 -410 33.5 -411.5 Q60 -413 73 -413 Q199 -413 262 -370 Q325 -327 374 -202 Q380 -185 405.5 -116 Q431 -47 445 -7 L7 1096 L137 1096 L510 110 Q510 110 555 248 Q830 1107 837 1106 Q838 1106 836 1096 L966 1096 Q528 -135 508 -192 Q439 -358 346 -439 Q253 -520 98 -520 Z "/>
        <glyph glyph-name="Amacron" unicode="&#x100;" horiz-adv-x="1276"
               d="M328 1616 L328 1722 L946 1722 L946 1616 L328 1616 Z M6 0 L587 1488 L710 1488 L1270 0 L1138 0 L948 505 L331 505 L133 0 L6 0 Z M380 599 L902 599 Q677 1245 647 1359 Q635 1315 568 1125 Q501 935 440 767 L380 599 Z "/>
        <glyph glyph-name="amacron" unicode="&#x101;" horiz-adv-x="1077"
               d="M203 1218 L203 1324 L821 1324 L821 1218 L203 1218 Z M440 -24 Q285 -24 192 54 Q99 132 99 277 Q99 363 136 426.5 Q173 490 243.5 529.5 Q314 569 404.5 591 Q495 613 615 622 Q743 630 805 635 L805 757 Q805 883 747.5 946.5 Q690 1010 563 1010 Q389 1010 238 927 Q234 937 219.5 970.5 Q205 1004 199 1022 Q261 1062 361 1089 Q461 1116 557 1116 Q754 1116 840 1031.5 Q926 947 926 732 L926 0 L829 0 Q824 23 814.5 91 Q805 159 805 161 Q676 -24 440 -24 Z M444 75 Q572 75 671.5 150.5 Q771 226 802 360 L802 547 Q658 535 657 535 Q413 513 318 455 Q223 397 223 275 Q223 175 283.5 125 Q344 75 444 75 Z "/>
        <glyph glyph-name="Abreve" unicode="&#x102;" horiz-adv-x="1276"
               d="M635 1616 Q538 1616 471.5 1682.5 Q405 1749 405 1868 L497 1868 Q497 1781 532.5 1737.5 Q568 1694 635 1694 Q701 1694 738.5 1738 Q776 1782 776 1868 L870 1868 Q870 1750 802 1683 Q734 1616 635 1616 Z M6 0 L587 1488 L710 1488 L1270 0 L1138 0 L948 505 L331 505 L133 0 L6 0 Z M380 599 L902 599 Q677 1245 647 1359 Q635 1315 568 1125 Q501 935 440 767 L380 599 Z "/>
        <glyph glyph-name="abreve" unicode="&#x103;" horiz-adv-x="1077"
               d="M510 1218 Q413 1218 346.5 1284.5 Q280 1351 280 1470 L372 1470 Q372 1383 407.5 1339.5 Q443 1296 510 1296 Q576 1296 613.5 1340 Q651 1384 651 1470 L745 1470 Q745 1352 677 1285 Q609 1218 510 1218 Z M440 -24 Q285 -24 192 54 Q99 132 99 277 Q99 363 136 426.5 Q173 490 243.5 529.5 Q314 569 404.5 591 Q495 613 615 622 Q743 630 805 635 L805 757 Q805 883 747.5 946.5 Q690 1010 563 1010 Q389 1010 238 927 Q234 937 219.5 970.5 Q205 1004 199 1022 Q261 1062 361 1089 Q461 1116 557 1116 Q754 1116 840 1031.5 Q926 947 926 732 L926 0 L829 0 Q824 23 814.5 91 Q805 159 805 161 Q676 -24 440 -24 Z M444 75 Q572 75 671.5 150.5 Q771 226 802 360 L802 547 Q658 535 657 535 Q413 513 318 455 Q223 397 223 275 Q223 175 283.5 125 Q344 75 444 75 Z "/>
        <glyph glyph-name="Aogonek" unicode="&#x104;" horiz-adv-x="1276"
               d="M634 -409 Q552 -409 499.5 -360.5 Q447 -312 447 -230 Q447 -103 638 14 L755 14 Q651 -65 600 -117.5 Q549 -170 549 -218 Q549 -260 578.5 -284.5 Q608 -309 640 -309 Q671 -309 683.5 -308 Q696 -307 718.5 -300.5 Q741 -294 774 -279 L774 -380 Q700 -409 634 -409 Z M6 0 L587 1488 L710 1488 L1270 0 L1138 0 L948 505 L331 505 L133 0 L6 0 Z M380 599 L902 599 Q677 1245 647 1359 Q635 1315 568 1125 Q501 935 440 767 L380 599 Z "/>
        <glyph glyph-name="aogonek" unicode="&#x105;" horiz-adv-x="1077"
               d="M509 -433 Q427 -433 374.5 -384.5 Q322 -336 322 -254 Q322 -127 513 -10 L630 -10 Q526 -89 475 -141.5 Q424 -194 424 -242 Q424 -284 453.5 -308.5 Q483 -333 515 -333 Q546 -333 558.5 -332 Q571 -331 593.5 -324.5 Q616 -318 649 -303 L649 -404 Q575 -433 509 -433 Z M440 -24 Q285 -24 192 54 Q99 132 99 277 Q99 363 136 426.5 Q173 490 243.5 529.5 Q314 569 404.5 591 Q495 613 615 622 Q743 630 805 635 L805 757 Q805 883 747.5 946.5 Q690 1010 563 1010 Q389 1010 238 927 Q234 937 219.5 970.5 Q205 1004 199 1022 Q261 1062 361 1089 Q461 1116 557 1116 Q754 1116 840 1031.5 Q926 947 926 732 L926 0 L829 0 Q824 23 814.5 91 Q805 159 805 161 Q676 -24 440 -24 Z M444 75 Q572 75 671.5 150.5 Q771 226 802 360 L802 547 Q658 535 657 535 Q413 513 318 455 Q223 397 223 275 Q223 175 283.5 125 Q344 75 444 75 Z "/>
        <glyph glyph-name="Cacute" unicode="&#x106;" horiz-adv-x="1286"
               d="M642 1616 L836 2003 L990 2003 L717 1616 L642 1616 Z M813 -23 Q642 -23 508 35.5 Q374 94 289.5 198 Q205 302 161.5 442 Q118 582 118 749 Q118 971 199.5 1142.5 Q281 1314 443 1414 Q605 1514 826 1514 Q1069 1514 1240 1412 L1179 1313 Q1023 1407 827 1407 Q690 1407 581 1355.5 Q472 1304 402.5 1213 Q333 1122 296.5 1002 Q260 882 260 742 Q260 605 293.5 488.5 Q327 372 394.5 280.5 Q462 189 574 136.5 Q686 84 832 84 Q989 84 1182 171 L1208 68 Q1062 -23 813 -23 Z "/>
        <glyph glyph-name="cacute" unicode="&#x107;" horiz-adv-x="965"
               d="M452 1218 L646 1605 L800 1605 L527 1218 L452 1218 Z M604 -24 Q445 -24 328 54 Q211 132 154 257.5 Q97 383 97 537 Q97 655 131 759 Q165 863 227.5 943 Q290 1023 388.5 1069.5 Q487 1116 608 1116 Q687 1116 765.5 1095 Q844 1074 882 1045 L843 952 Q740 1010 599 1010 Q428 1010 328 880.5 Q228 751 228 537 Q228 332 327.5 205.5 Q427 79 599 79 Q719 79 857 139 L876 50 Q829 15 754 -4.5 Q679 -24 604 -24 Z "/>
        <glyph glyph-name="Ccircumflex" unicode="&#x108;" horiz-adv-x="1286"
               d="M414 1616 L582 1975 L774 1975 L945 1616 L854 1616 L679 1911 L503 1616 L414 1616 Z M813 -23 Q642 -23 508 35.5 Q374 94 289.5 198 Q205 302 161.5 442 Q118 582 118 749 Q118 971 199.5 1142.5 Q281 1314 443 1414 Q605 1514 826 1514 Q1069 1514 1240 1412 L1179 1313 Q1023 1407 827 1407 Q690 1407 581 1355.5 Q472 1304 402.5 1213 Q333 1122 296.5 1002 Q260 882 260 742 Q260 605 293.5 488.5 Q327 372 394.5 280.5 Q462 189 574 136.5 Q686 84 832 84 Q989 84 1182 171 L1208 68 Q1062 -23 813 -23 Z "/>
        <glyph glyph-name="ccircumflex" unicode="&#x109;" horiz-adv-x="965"
               d="M224 1218 L392 1577 L584 1577 L755 1218 L664 1218 L489 1513 L313 1218 L224 1218 Z M604 -24 Q445 -24 328 54 Q211 132 154 257.5 Q97 383 97 537 Q97 655 131 759 Q165 863 227.5 943 Q290 1023 388.5 1069.5 Q487 1116 608 1116 Q687 1116 765.5 1095 Q844 1074 882 1045 L843 952 Q740 1010 599 1010 Q428 1010 328 880.5 Q228 751 228 537 Q228 332 327.5 205.5 Q427 79 599 79 Q719 79 857 139 L876 50 Q829 15 754 -4.5 Q679 -24 604 -24 Z "/>
        <glyph glyph-name="Cdotaccent" unicode="&#x10a;" horiz-adv-x="1286"
               d="M602 1616 L602 1801 L755 1801 L755 1616 L602 1616 Z M813 -23 Q642 -23 508 35.5 Q374 94 289.5 198 Q205 302 161.5 442 Q118 582 118 749 Q118 971 199.5 1142.5 Q281 1314 443 1414 Q605 1514 826 1514 Q1069 1514 1240 1412 L1179 1313 Q1023 1407 827 1407 Q690 1407 581 1355.5 Q472 1304 402.5 1213 Q333 1122 296.5 1002 Q260 882 260 742 Q260 605 293.5 488.5 Q327 372 394.5 280.5 Q462 189 574 136.5 Q686 84 832 84 Q989 84 1182 171 L1208 68 Q1062 -23 813 -23 Z "/>
        <glyph glyph-name="cdotaccent" unicode="&#x10b;" horiz-adv-x="965"
               d="M413 1218 L413 1403 L566 1403 L566 1218 L413 1218 Z M604 -24 Q445 -24 328 54 Q211 132 154 257.5 Q97 383 97 537 Q97 655 131 759 Q165 863 227.5 943 Q290 1023 388.5 1069.5 Q487 1116 608 1116 Q687 1116 765.5 1095 Q844 1074 882 1045 L843 952 Q740 1010 599 1010 Q428 1010 328 880.5 Q228 751 228 537 Q228 332 327.5 205.5 Q427 79 599 79 Q719 79 857 139 L876 50 Q829 15 754 -4.5 Q679 -24 604 -24 Z "/>
        <glyph glyph-name="Ccaron" unicode="&#x10c;" horiz-adv-x="1286"
               d="M585 1616 L414 1975 L505 1975 L680 1680 L856 1975 L945 1975 L777 1616 L585 1616 Z M813 -23 Q642 -23 508 35.5 Q374 94 289.5 198 Q205 302 161.5 442 Q118 582 118 749 Q118 971 199.5 1142.5 Q281 1314 443 1414 Q605 1514 826 1514 Q1069 1514 1240 1412 L1179 1313 Q1023 1407 827 1407 Q690 1407 581 1355.5 Q472 1304 402.5 1213 Q333 1122 296.5 1002 Q260 882 260 742 Q260 605 293.5 488.5 Q327 372 394.5 280.5 Q462 189 574 136.5 Q686 84 832 84 Q989 84 1182 171 L1208 68 Q1062 -23 813 -23 Z "/>
        <glyph glyph-name="ccaron" unicode="&#x10d;" horiz-adv-x="965"
               d="M395 1218 L224 1577 L315 1577 L490 1282 L666 1577 L755 1577 L587 1218 L395 1218 Z M604 -24 Q445 -24 328 54 Q211 132 154 257.5 Q97 383 97 537 Q97 655 131 759 Q165 863 227.5 943 Q290 1023 388.5 1069.5 Q487 1116 608 1116 Q687 1116 765.5 1095 Q844 1074 882 1045 L843 952 Q740 1010 599 1010 Q428 1010 328 880.5 Q228 751 228 537 Q228 332 327.5 205.5 Q427 79 599 79 Q719 79 857 139 L876 50 Q829 15 754 -4.5 Q679 -24 604 -24 Z "/>
        <glyph glyph-name="Dcaron" unicode="&#x10e;" horiz-adv-x="1498"
               d="M687 1616 L516 1975 L607 1975 L782 1680 L958 1975 L1047 1975 L879 1616 L687 1616 Z M310 107 L602 107 Q912 107 1074.5 265.5 Q1237 424 1237 738 Q1237 910 1191.5 1035 Q1146 1160 1058 1235.5 Q970 1311 850 1346.5 Q730 1382 573 1382 L310 1382 L310 107 Z M182 0 L182 1488 L585 1488 Q767 1488 910.5 1445 Q1054 1402 1160 1313.5 Q1266 1225 1323 1080.5 Q1380 936 1380 743 Q1380 378 1179 189 Q978 0 616 0 L182 0 Z "/>
        <glyph glyph-name="dcaron" unicode="&#x10f;" horiz-adv-x="1183"
               d="M1189 1082 L1327 1532 L1463 1532 L1293 1082 L1189 1082 Z M561 -23 Q342 -23 219.5 129 Q97 281 97 549 Q97 801 223.5 958.5 Q350 1116 557 1116 Q659 1116 761 1072 Q863 1028 916 935 L916 968 L916 1521 L1036 1532 L1036 0 L933 0 L915 165 Q858 72 760.5 24.5 Q663 -23 561 -23 Z M558 75 Q651 75 721 109 Q791 143 833 205 Q875 267 895.5 347.5 Q916 428 916 526 Q916 1015 556 1015 Q471 1015 406 974.5 Q341 934 303.5 865.5 Q266 797 248 716.5 Q230 636 230 547 Q230 470 241 402.5 Q252 335 277 274 Q302 213 339 169.5 Q376 126 432 100.5 Q488 75 558 75 Z "/>
        <glyph glyph-name="dcroat" unicode="&#x111;" horiz-adv-x="1183"
               d="M659 1254 L659 1335 L1138 1335 L1138 1254 L659 1254 Z M561 -23 Q342 -23 219.5 129 Q97 281 97 549 Q97 801 223.5 958.5 Q350 1116 557 1116 Q659 1116 761 1072 Q863 1028 916 935 L916 968 L916 1521 L1036 1532 L1036 0 L933 0 L915 165 Q858 72 760.5 24.5 Q663 -23 561 -23 Z M558 75 Q651 75 721 109 Q791 143 833 205 Q875 267 895.5 347.5 Q916 428 916 526 Q916 1015 556 1015 Q471 1015 406 974.5 Q341 934 303.5 865.5 Q266 797 248 716.5 Q230 636 230 547 Q230 470 241 402.5 Q252 335 277 274 Q302 213 339 169.5 Q376 126 432 100.5 Q488 75 558 75 Z "/>
        <glyph glyph-name="Emacron" unicode="&#x112;" horiz-adv-x="1142"
               d="M296 1616 L296 1722 L914 1722 L914 1616 L296 1616 Z M182 0 L182 1488 L1011 1488 L1006 1382 L310 1382 L310 822 L972 822 L972 713 L310 713 L310 107 L1028 107 L1017 0 L182 0 Z "/>
        <glyph glyph-name="emacron" unicode="&#x113;" horiz-adv-x="1093"
               d="M235 1218 L235 1324 L853 1324 L853 1218 L235 1218 Z M591 -24 Q364 -24 230.5 128 Q97 280 97 540 Q97 791 227.5 951 Q358 1111 565 1116 Q758 1116 875 978 Q992 840 992 608 Q992 599 991.5 571.5 Q991 544 991 533 L228 533 Q230 322 330 198.5 Q430 75 594 75 Q701 75 780 100 Q859 125 945 171 L966 78 Q800 -24 591 -24 Z M233 633 L857 633 Q857 816 778 913.5 Q699 1011 561 1011 Q421 1011 335 907 Q249 803 233 633 Z "/>
        <glyph glyph-name="ebreve" unicode="&#x115;" horiz-adv-x="1093"
               d="M542 1218 Q445 1218 378.5 1284.5 Q312 1351 312 1470 L404 1470 Q404 1383 439.5 1339.5 Q475 1296 542 1296 Q608 1296 645.5 1340 Q683 1384 683 1470 L777 1470 Q777 1352 709 1285 Q641 1218 542 1218 Z M591 -24 Q364 -24 230.5 128 Q97 280 97 540 Q97 791 227.5 951 Q358 1111 565 1116 Q758 1116 875 978 Q992 840 992 608 Q992 599 991.5 571.5 Q991 544 991 533 L228 533 Q230 322 330 198.5 Q430 75 594 75 Q701 75 780 100 Q859 125 945 171 L966 78 Q800 -24 591 -24 Z M233 633 L857 633 Q857 816 778 913.5 Q699 1011 561 1011 Q421 1011 335 907 Q249 803 233 633 Z "/>
        <glyph glyph-name="Edotaccent" unicode="&#x116;" horiz-adv-x="1142"
               d="M528 1616 L528 1801 L681 1801 L681 1616 L528 1616 Z M182 0 L182 1488 L1011 1488 L1006 1382 L310 1382 L310 822 L972 822 L972 713 L310 713 L310 107 L1028 107 L1017 0 L182 0 Z "/>
        <glyph glyph-name="edotaccent" unicode="&#x117;" horiz-adv-x="1093"
               d="M468 1218 L468 1403 L621 1403 L621 1218 L468 1218 Z M591 -24 Q364 -24 230.5 128 Q97 280 97 540 Q97 791 227.5 951 Q358 1111 565 1116 Q758 1116 875 978 Q992 840 992 608 Q992 599 991.5 571.5 Q991 544 991 533 L228 533 Q230 322 330 198.5 Q430 75 594 75 Q701 75 780 100 Q859 125 945 171 L966 78 Q800 -24 591 -24 Z M233 633 L857 633 Q857 816 778 913.5 Q699 1011 561 1011 Q421 1011 335 907 Q249 803 233 633 Z "/>
        <glyph glyph-name="Eogonek" unicode="&#x118;" horiz-adv-x="1142"
               d="M601 -409 Q519 -409 466.5 -360.5 Q414 -312 414 -230 Q414 -103 605 14 L722 14 Q618 -65 567 -117.5 Q516 -170 516 -218 Q516 -260 545.5 -284.5 Q575 -309 607 -309 Q638 -309 650.5 -308 Q663 -307 685.5 -300.5 Q708 -294 741 -279 L741 -380 Q667 -409 601 -409 Z M182 0 L182 1488 L1011 1488 L1006 1382 L310 1382 L310 822 L972 822 L972 713 L310 713 L310 107 L1028 107 L1017 0 L182 0 Z "/>
        <glyph glyph-name="eogonek" unicode="&#x119;" horiz-adv-x="1093"
               d="M482 -433 Q400 -433 347.5 -384.5 Q295 -336 295 -254 Q295 -127 486 -10 L603 -10 Q499 -89 448 -141.5 Q397 -194 397 -242 Q397 -284 426.5 -308.5 Q456 -333 488 -333 Q519 -333 531.5 -332 Q544 -331 566.5 -324.5 Q589 -318 622 -303 L622 -404 Q548 -433 482 -433 Z M591 -24 Q364 -24 230.5 128 Q97 280 97 540 Q97 791 227.5 951 Q358 1111 565 1116 Q758 1116 875 978 Q992 840 992 608 Q992 599 991.5 571.5 Q991 544 991 533 L228 533 Q230 322 330 198.5 Q430 75 594 75 Q701 75 780 100 Q859 125 945 171 L966 78 Q800 -24 591 -24 Z M233 633 L857 633 Q857 816 778 913.5 Q699 1011 561 1011 Q421 1011 335 907 Q249 803 233 633 Z "/>
        <glyph glyph-name="Ecaron" unicode="&#x11a;" horiz-adv-x="1142"
               d="M511 1616 L340 1975 L431 1975 L606 1680 L782 1975 L871 1975 L703 1616 L511 1616 Z M182 0 L182 1488 L1011 1488 L1006 1382 L310 1382 L310 822 L972 822 L972 713 L310 713 L310 107 L1028 107 L1017 0 L182 0 Z "/>
        <glyph glyph-name="ecaron" unicode="&#x11b;" horiz-adv-x="1093"
               d="M450 1218 L279 1577 L370 1577 L545 1282 L721 1577 L810 1577 L642 1218 L450 1218 Z M591 -24 Q364 -24 230.5 128 Q97 280 97 540 Q97 791 227.5 951 Q358 1111 565 1116 Q758 1116 875 978 Q992 840 992 608 Q992 599 991.5 571.5 Q991 544 991 533 L228 533 Q230 322 330 198.5 Q430 75 594 75 Q701 75 780 100 Q859 125 945 171 L966 78 Q800 -24 591 -24 Z M233 633 L857 633 Q857 816 778 913.5 Q699 1011 561 1011 Q421 1011 335 907 Q249 803 233 633 Z "/>
        <glyph glyph-name="Gcircumflex" unicode="&#x11c;" horiz-adv-x="1469"
               d="M458 1616 L626 1975 L818 1975 L989 1616 L898 1616 L723 1911 L547 1616 L458 1616 Z M821 -23 Q685 -23 570.5 15.5 Q456 54 373 123 Q290 192 232.5 287.5 Q175 383 146.5 497.5 Q118 612 118 740 Q118 965 202 1138.5 Q286 1312 452.5 1413 Q619 1514 847 1514 Q1097 1514 1291 1399 L1234 1296 Q1152 1346 1048.5 1376.5 Q945 1407 848 1407 Q702 1407 587.5 1355 Q473 1303 402 1211.5 Q331 1120 294.5 1001 Q258 882 258 742 Q258 593 295 473 Q332 353 406 265.5 Q480 178 596 130.5 Q712 83 864 83 Q1021 83 1210 158 L1210 634 L841 634 L849 745 L1329 745 L1329 89 Q1207 26 1092.5 1.5 Q978 -23 821 -23 Z "/>
        <glyph glyph-name="gcircumflex" unicode="&#x11d;" horiz-adv-x="1173"
               d="M297 1218 L465 1577 L657 1577 L828 1218 L737 1218 L562 1513 L386 1218 L297 1218 Z M316 -509 L301 -398 L533 -398 Q610 -398 669 -384.5 Q728 -371 768.5 -349.5 Q809 -328 837.5 -289.5 Q866 -251 882 -213 Q898 -175 906.5 -114.5 Q915 -54 917 -3.5 Q919 47 919 124 Q919 113 917 129 Q912 198 912 198 Q849 103 763 51.5 Q677 0 553 0 Q455 0 374.5 35 Q294 70 242.5 126 Q191 182 156 254 Q121 326 106 397.5 Q91 469 91 539 Q91 627 105.5 706.5 Q120 786 156 862 Q192 938 246 993.5 Q300 1049 385 1082.5 Q470 1116 577 1116 Q682 1116 762.5 1074.5 Q843 1033 912 942 L924 1096 L1034 1096 L1034 80 Q1034 14 1032.5 -26.5 Q1031 -67 1020.5 -136.5 Q1010 -206 991.5 -250.5 Q973 -295 935 -349 Q897 -403 843.5 -434 Q790 -465 706.5 -487 Q623 -509 517 -509 L316 -509 Z M569 101 Q642 101 701 124.5 Q760 148 798.5 186.5 Q837 225 863.5 277 Q890 329 901 384.5 Q912 440 912 499 L912 613 Q912 691 893 760 Q874 829 834.5 887.5 Q795 946 726 980 Q657 1014 566 1014 Q492 1014 432.5 985.5 Q373 957 335 910 Q297 863 271 800 Q245 737 234.5 671.5 Q224 606 224 537 Q224 476 233.5 418.5 Q243 361 267.5 302 Q292 243 330 199.5 Q368 156 429.5 128.5 Q491 101 569 101 Z "/>
        <glyph glyph-name="Gbreve" unicode="&#x11e;" horiz-adv-x="1469"
               d="M721 1616 Q624 1616 557.5 1682.5 Q491 1749 491 1868 L583 1868 Q583 1781 618.5 1737.5 Q654 1694 721 1694 Q787 1694 824.5 1738 Q862 1782 862 1868 L956 1868 Q956 1750 888 1683 Q820 1616 721 1616 Z M821 -23 Q685 -23 570.5 15.5 Q456 54 373 123 Q290 192 232.5 287.5 Q175 383 146.5 497.5 Q118 612 118 740 Q118 965 202 1138.5 Q286 1312 452.5 1413 Q619 1514 847 1514 Q1097 1514 1291 1399 L1234 1296 Q1152 1346 1048.5 1376.5 Q945 1407 848 1407 Q702 1407 587.5 1355 Q473 1303 402 1211.5 Q331 1120 294.5 1001 Q258 882 258 742 Q258 593 295 473 Q332 353 406 265.5 Q480 178 596 130.5 Q712 83 864 83 Q1021 83 1210 158 L1210 634 L841 634 L849 745 L1329 745 L1329 89 Q1207 26 1092.5 1.5 Q978 -23 821 -23 Z "/>
        <glyph glyph-name="gbreve" unicode="&#x11f;" horiz-adv-x="1173"
               d="M560 1218 Q463 1218 396.5 1284.5 Q330 1351 330 1470 L422 1470 Q422 1383 457.5 1339.5 Q493 1296 560 1296 Q626 1296 663.5 1340 Q701 1384 701 1470 L795 1470 Q795 1352 727 1285 Q659 1218 560 1218 Z M316 -509 L301 -398 L533 -398 Q610 -398 669 -384.5 Q728 -371 768.5 -349.5 Q809 -328 837.5 -289.5 Q866 -251 882 -213 Q898 -175 906.5 -114.5 Q915 -54 917 -3.5 Q919 47 919 124 Q919 113 917 129 Q912 198 912 198 Q849 103 763 51.5 Q677 0 553 0 Q455 0 374.5 35 Q294 70 242.5 126 Q191 182 156 254 Q121 326 106 397.5 Q91 469 91 539 Q91 627 105.5 706.5 Q120 786 156 862 Q192 938 246 993.5 Q300 1049 385 1082.5 Q470 1116 577 1116 Q682 1116 762.5 1074.5 Q843 1033 912 942 L924 1096 L1034 1096 L1034 80 Q1034 14 1032.5 -26.5 Q1031 -67 1020.5 -136.5 Q1010 -206 991.5 -250.5 Q973 -295 935 -349 Q897 -403 843.5 -434 Q790 -465 706.5 -487 Q623 -509 517 -509 L316 -509 Z M569 101 Q642 101 701 124.5 Q760 148 798.5 186.5 Q837 225 863.5 277 Q890 329 901 384.5 Q912 440 912 499 L912 613 Q912 691 893 760 Q874 829 834.5 887.5 Q795 946 726 980 Q657 1014 566 1014 Q492 1014 432.5 985.5 Q373 957 335 910 Q297 863 271 800 Q245 737 234.5 671.5 Q224 606 224 537 Q224 476 233.5 418.5 Q243 361 267.5 302 Q292 243 330 199.5 Q368 156 429.5 128.5 Q491 101 569 101 Z "/>
        <glyph glyph-name="Gdotaccent" unicode="&#x120;" horiz-adv-x="1469"
               d="M647 1616 L647 1801 L800 1801 L800 1616 L647 1616 Z M821 -23 Q685 -23 570.5 15.5 Q456 54 373 123 Q290 192 232.5 287.5 Q175 383 146.5 497.5 Q118 612 118 740 Q118 965 202 1138.5 Q286 1312 452.5 1413 Q619 1514 847 1514 Q1097 1514 1291 1399 L1234 1296 Q1152 1346 1048.5 1376.5 Q945 1407 848 1407 Q702 1407 587.5 1355 Q473 1303 402 1211.5 Q331 1120 294.5 1001 Q258 882 258 742 Q258 593 295 473 Q332 353 406 265.5 Q480 178 596 130.5 Q712 83 864 83 Q1021 83 1210 158 L1210 634 L841 634 L849 745 L1329 745 L1329 89 Q1207 26 1092.5 1.5 Q978 -23 821 -23 Z "/>
        <glyph glyph-name="gdotaccent" unicode="&#x121;" horiz-adv-x="1173"
               d="M486 1218 L486 1403 L639 1403 L639 1218 L486 1218 Z M316 -509 L301 -398 L533 -398 Q610 -398 669 -384.5 Q728 -371 768.5 -349.5 Q809 -328 837.5 -289.5 Q866 -251 882 -213 Q898 -175 906.5 -114.5 Q915 -54 917 -3.5 Q919 47 919 124 Q919 113 917 129 Q912 198 912 198 Q849 103 763 51.5 Q677 0 553 0 Q455 0 374.5 35 Q294 70 242.5 126 Q191 182 156 254 Q121 326 106 397.5 Q91 469 91 539 Q91 627 105.5 706.5 Q120 786 156 862 Q192 938 246 993.5 Q300 1049 385 1082.5 Q470 1116 577 1116 Q682 1116 762.5 1074.5 Q843 1033 912 942 L924 1096 L1034 1096 L1034 80 Q1034 14 1032.5 -26.5 Q1031 -67 1020.5 -136.5 Q1010 -206 991.5 -250.5 Q973 -295 935 -349 Q897 -403 843.5 -434 Q790 -465 706.5 -487 Q623 -509 517 -509 L316 -509 Z M569 101 Q642 101 701 124.5 Q760 148 798.5 186.5 Q837 225 863.5 277 Q890 329 901 384.5 Q912 440 912 499 L912 613 Q912 691 893 760 Q874 829 834.5 887.5 Q795 946 726 980 Q657 1014 566 1014 Q492 1014 432.5 985.5 Q373 957 335 910 Q297 863 271 800 Q245 737 234.5 671.5 Q224 606 224 537 Q224 476 233.5 418.5 Q243 361 267.5 302 Q292 243 330 199.5 Q368 156 429.5 128.5 Q491 101 569 101 Z "/>
        <glyph glyph-name="uni0122" unicode="&#x122;" horiz-adv-x="1469"
               d="M604 -628 L681 -628 L844 -125 L703 -125 L604 -628 Z M821 -23 Q685 -23 570.5 15.5 Q456 54 373 123 Q290 192 232.5 287.5 Q175 383 146.5 497.5 Q118 612 118 740 Q118 965 202 1138.5 Q286 1312 452.5 1413 Q619 1514 847 1514 Q1097 1514 1291 1399 L1234 1296 Q1152 1346 1048.5 1376.5 Q945 1407 848 1407 Q702 1407 587.5 1355 Q473 1303 402 1211.5 Q331 1120 294.5 1001 Q258 882 258 742 Q258 593 295 473 Q332 353 406 265.5 Q480 178 596 130.5 Q712 83 864 83 Q1021 83 1210 158 L1210 634 L841 634 L849 745 L1329 745 L1329 89 Q1207 26 1092.5 1.5 Q978 -23 821 -23 Z "/>
        <glyph glyph-name="uni0123" unicode="&#x123;" horiz-adv-x="1150"
               d="M508 1275 L673 1762 L771 1762 L661 1275 L508 1275 Z M316 -509 L301 -398 L533 -398 Q610 -398 669 -384.5 Q728 -371 768.5 -349.5 Q809 -328 837.5 -289.5 Q866 -251 882 -213 Q898 -175 906.5 -114.5 Q915 -54 917 -3.5 Q919 47 919 124 Q919 113 917 129 Q912 198 912 198 Q849 103 763 51.5 Q677 0 553 0 Q455 0 374.5 35 Q294 70 242.5 126 Q191 182 156 254 Q121 326 106 397.5 Q91 469 91 539 Q91 627 105.5 706.5 Q120 786 156 862 Q192 938 246 993.5 Q300 1049 385 1082.5 Q470 1116 577 1116 Q682 1116 762.5 1074.5 Q843 1033 912 942 L924 1096 L1034 1096 L1034 80 Q1034 14 1032.5 -26.5 Q1031 -67 1020.5 -136.5 Q1010 -206 991.5 -250.5 Q973 -295 935 -349 Q897 -403 843.5 -434 Q790 -465 706.5 -487 Q623 -509 517 -509 L316 -509 Z M569 101 Q642 101 701 124.5 Q760 148 798.5 186.5 Q837 225 863.5 277 Q890 329 901 384.5 Q912 440 912 499 L912 613 Q912 691 893 760 Q874 829 834.5 887.5 Q795 946 726 980 Q657 1014 566 1014 Q492 1014 432.5 985.5 Q373 957 335 910 Q297 863 271 800 Q245 737 234.5 671.5 Q224 606 224 537 Q224 476 233.5 418.5 Q243 361 267.5 302 Q292 243 330 199.5 Q368 156 429.5 128.5 Q491 101 569 101 Z "/>
        <glyph glyph-name="Hcircumflex" unicode="&#x124;" horiz-adv-x="1474"
               d="M472 1616 L640 1975 L832 1975 L1003 1616 L912 1616 L737 1911 L561 1616 L472 1616 Z M182 0 L182 1488 L310 1488 L310 830 L1164 830 L1164 1488 L1292 1488 L1292 0 L1164 0 L1164 718 L310 718 L310 0 L182 0 Z "/>
        <glyph glyph-name="hcircumflex" unicode="&#x125;" horiz-adv-x="1149"
               d="M312 1634 L480 1993 L672 1993 L843 1634 L752 1634 L577 1929 L401 1634 L312 1634 Z M147 0 L147 1521 L271 1532 L271 1009 Q271 988 271 980 Q271 972 270.5 971 Q270 970 269.5 960 Q269 950 268 930 Q402 1116 652 1116 Q1009 1116 1009 685 L1009 0 L886 0 L886 661 Q886 846 829 928.5 Q772 1011 628 1011 Q485 1011 390 935.5 Q295 860 273 741 Q271 701 271 622 L271 0 L147 0 Z "/>
        <glyph glyph-name="Hbar" unicode="&#x126;" horiz-adv-x="1450"
               d="M155 0 L155 1125 L62 1125 L62 1212 L155 1212 L155 1521 L290 1521 L290 1212 L1162 1212 L1162 1521 L1297 1521 L1297 1212 L1389 1212 L1389 1125 L1297 1125 L1297 0 L1162 0 L1162 721 L290 721 L290 0 L155 0 Z M290 845 L1162 845 L1162 1125 L290 1125 L290 845 Z "/>
        <glyph glyph-name="hbar" unicode="&#x127;" horiz-adv-x="1077"
               d="M117 0 L117 1300 L28 1300 L28 1403 L117 1403 L117 1486 L246 1507 L246 1403 L512 1403 L512 1300 L246 1300 L246 933 Q394 1127 652 1127 Q738 1127 801 1091.5 Q864 1056 899.5 990.5 Q935 925 951 844 Q967 763 967 662 L967 0 L839 0 L839 593 Q839 686 834 749 Q829 812 814 866 Q799 920 772.5 950.5 Q746 981 703.5 998 Q661 1015 600 1015 Q533 1015 468.5 989 Q404 963 358.5 923.5 Q313 884 282.5 837.5 Q252 791 246 750 L246 0 L117 0 Z "/>
        <glyph glyph-name="Itilde" unicode="&#x128;" horiz-adv-x="514"
               d="M-28 1616 Q-25 1723 16.5 1762.5 Q58 1802 131 1802 Q177 1802 274 1754 Q371 1706 395 1706 Q411 1706 422 1715 Q433 1724 439 1742 Q445 1760 447 1771 Q449 1782 451 1802 L542 1802 Q538 1701 502.5 1658.5 Q467 1616 401 1616 Q357 1616 251.5 1667.5 Q146 1719 123 1719 Q70 1719 62 1616 L-28 1616 Z M193 0 L193 1488 L321 1488 L321 0 L193 0 Z "/>
        <glyph glyph-name="itilde" unicode="&#x129;" horiz-adv-x="376"
               d="M-84 1218 Q-81 1325 -39.5 1364.5 Q2 1404 75 1404 Q121 1404 218 1356 Q315 1308 339 1308 Q355 1308 366 1317 Q377 1326 383 1344 Q389 1362 391 1373 Q393 1384 395 1404 L486 1404 Q482 1303 446.5 1260.5 Q411 1218 345 1218 Q301 1218 195.5 1269.5 Q90 1321 67 1321 Q14 1321 6 1218 L-84 1218 Z M138 0 L138 1096 L263 1096 L263 0 L138 0 Z "/>
        <glyph glyph-name="Imacron" unicode="&#x12a;" horiz-adv-x="514"
               d="M-52 1616 L-52 1722 L566 1722 L566 1616 L-52 1616 Z M193 0 L193 1488 L321 1488 L321 0 L193 0 Z "/>
        <glyph glyph-name="imacron" unicode="&#x12b;" horiz-adv-x="376"
               d="M-109 1218 L-109 1324 L509 1324 L509 1218 L-109 1218 Z M138 0 L138 1096 L263 1096 L263 0 L138 0 Z "/>
        <glyph glyph-name="Ibreve" unicode="&#x12c;" horiz-adv-x="514"
               d="M255 1616 Q158 1616 91.5 1682.5 Q25 1749 25 1868 L117 1868 Q117 1781 152.5 1737.5 Q188 1694 255 1694 Q321 1694 358.5 1738 Q396 1782 396 1868 L490 1868 Q490 1750 422 1683 Q354 1616 255 1616 Z M193 0 L193 1488 L321 1488 L321 0 L193 0 Z "/>
        <glyph glyph-name="ibreve" unicode="&#x12d;" horiz-adv-x="376"
               d="M198 1218 Q101 1218 34.5 1284.5 Q-32 1351 -32 1470 L60 1470 Q60 1383 95.5 1339.5 Q131 1296 198 1296 Q264 1296 301.5 1340 Q339 1384 339 1470 L433 1470 Q433 1352 365 1285 Q297 1218 198 1218 Z M138 0 L138 1096 L263 1096 L263 0 L138 0 Z "/>
        <glyph glyph-name="Iogonek" unicode="&#x12e;" horiz-adv-x="514"
               d="M195 -409 Q113 -409 60.5 -360.5 Q8 -312 8 -230 Q8 -103 199 14 L316 14 Q212 -65 161 -117.5 Q110 -170 110 -218 Q110 -260 139.5 -284.5 Q169 -309 201 -309 Q232 -309 244.5 -308 Q257 -307 279.5 -300.5 Q302 -294 335 -279 L335 -380 Q261 -409 195 -409 Z M193 0 L193 1488 L321 1488 L321 0 L193 0 Z "/>
        <glyph glyph-name="iogonek" unicode="&#x12f;" horiz-adv-x="445"
               d="M169 -409 Q87 -409 34.5 -360.5 Q-18 -312 -18 -230 Q-18 -103 173 14 L290 14 Q186 -65 135 -117.5 Q84 -170 84 -218 Q84 -260 113.5 -284.5 Q143 -309 175 -309 Q206 -309 218.5 -308 Q231 -307 253.5 -300.5 Q276 -294 309 -279 L309 -380 Q235 -409 169 -409 Z M160 0 L160 1096 L285 1096 L285 0 L160 0 Z M160 1320 L160 1488 L284 1488 L284 1320 L160 1320 Z "/>
        <glyph glyph-name="Idotaccent" unicode="&#x130;" horiz-adv-x="514"
               d="M180 1616 L180 1801 L333 1801 L333 1616 L180 1616 Z M193 0 L193 1488 L321 1488 L321 0 L193 0 Z "/>
        <glyph glyph-name="dotlessi" unicode="&#x131;" horiz-adv-x="376"
               d="M138 0 L138 1096 L263 1096 L263 0 L138 0 Z "/>
        <glyph glyph-name="IJ" unicode="&#x132;" horiz-adv-x="1026"
               d="M193 0 L193 1488 L321 1488 L321 0 L193 0 Z M515 -138 L494 -46 L554 -43 Q586 -43 612 -38 Q638 -33 657 -26.5 Q676 -20 690.5 -6 Q705 8 714.5 19 Q724 30 731 51.5 Q738 73 741 87 Q744 101 746 128 Q748 155 748 170.5 Q748 186 748 216 L748 1514 L881 1514 L881 303 Q881 240 880.5 209 Q880 178 877 128.5 Q874 79 867.5 56 Q861 33 849.5 -2 Q838 -37 820 -52.5 Q802 -68 775.5 -88.5 Q749 -109 714 -117.5 Q679 -126 632.5 -132 Q586 -138 527 -138 L515 -138 Z "/>
        <glyph glyph-name="ij" unicode="&#x133;" horiz-adv-x="853"
               d="M160 0 L160 1096 L285 1096 L285 0 L160 0 Z M160 1320 L160 1488 L284 1488 L284 1320 L160 1320 Z M387 -550 L368 -450 L417 -450 Q487 -450 526 -439.5 Q565 -429 582.5 -394.5 Q600 -360 603 -328.5 Q606 -297 606 -222 Q606 -220 606 -219 L606 1096 L731 1096 L731 -247 Q731 -341 718.5 -397 Q706 -453 671.5 -488.5 Q637 -524 582.5 -537 Q528 -550 436 -550 L387 -550 Z M606 1321 L606 1488 L731 1488 L731 1321 L606 1321 Z "/>
        <glyph glyph-name="Jcircumflex" unicode="&#x134;" horiz-adv-x="512"
               d="M-92 1616 L76 1975 L268 1975 L439 1616 L348 1616 L173 1911 L-3 1616 L-92 1616 Z M1 -138 L-20 -46 L40 -43 Q72 -43 98 -38 Q124 -33 143 -26.5 Q162 -20 176.5 -6 Q191 8 200.5 19 Q210 30 217 51.5 Q224 73 227 87 Q230 101 232 128 Q234 155 234 170.5 Q234 186 234 216 L234 1514 L367 1514 L367 303 Q367 240 366.5 209 Q366 178 363 128.5 Q360 79 353.5 56 Q347 33 335.5 -2 Q324 -37 306 -52.5 Q288 -68 261.5 -88.5 Q235 -109 200 -117.5 Q165 -126 118.5 -132 Q72 -138 13 -138 L1 -138 Z "/>
        <glyph glyph-name="jcircumflex" unicode="&#x135;" horiz-adv-x="406"
               d="M-164 1218 L4 1577 L196 1577 L367 1218 L276 1218 L101 1513 L-75 1218 L-164 1218 Z M-63 -594 L-92 -473 L-33 -473 Q-1 -473 23.5 -470 Q48 -467 67.5 -462.5 Q87 -458 101 -447.5 Q115 -437 124.5 -429 Q134 -421 140.5 -402 Q147 -383 150 -371 Q153 -359 154.5 -332 Q156 -305 156.5 -288.5 Q157 -272 157 -237 L157 1104 L294 1104 L294 -296 Q294 -389 282 -443.5 Q270 -498 235.5 -533.5 Q201 -569 145.5 -581.5 Q90 -594 -5 -594 L-63 -594 Z "/>
        <glyph glyph-name="uni0136" unicode="&#x136;" horiz-adv-x="1224"
               d="M584 -605 L661 -605 L824 -102 L683 -102 L584 -605 Z M182 0 L182 1488 L311 1488 L311 719 Q355 768 427 847.5 Q499 927 651.5 1095.5 Q804 1264 905 1376 L1006 1488 L1175 1488 L554 817 L1226 0 L1063 0 L456 739 L311 603 L311 0 L182 0 Z "/>
        <glyph glyph-name="uni0137" unicode="&#x137;" horiz-adv-x="986"
               d="M442 -605 L519 -605 L682 -102 L541 -102 L442 -605 Z M149 0 L149 1522 L272 1532 L272 663 L272 568 Q281 579 336 639 Q391 699 398 707 L777 1096 L944 1096 L485 638 L976 0 L819 0 L400 568 L272 450 L272 0 L149 0 Z "/>
        <glyph glyph-name="kgreenlandic" unicode="&#x138;" horiz-adv-x="986"
               d="M149 0 L149 1096 L272 1096 L272 541 Q281 552 336 612 Q391 672 398 680 L777 1096 L944 1096 L485 611 L976 0 L819 0 L400 541 L272 423 L272 0 L149 0 Z "/>
        <glyph glyph-name="Lacute" unicode="&#x139;" horiz-adv-x="998"
               d="M544 1616 L738 2003 L892 2003 L619 1616 L544 1616 Z M182 0 L182 1488 L311 1488 L311 113 L980 113 L974 0 L182 0 Z "/>
        <glyph glyph-name="lacute" unicode="&#x13a;" horiz-adv-x="581"
               d="M332 1634 L526 2021 L680 2021 L407 1634 L332 1634 Z M423 -23 Q285 -23 221 39.5 Q157 102 157 243 L157 1522 L279 1532 L279 250 Q279 150 315.5 112 Q352 74 426 74 Q486 74 576 97 L581 1 Q483 -23 423 -23 Z "/>
        <glyph glyph-name="uni013B" unicode="&#x13b;" horiz-adv-x="998"
               d="M461 -605 L538 -605 L701 -102 L560 -102 L461 -605 Z M182 0 L182 1488 L311 1488 L311 113 L980 113 L974 0 L182 0 Z "/>
        <glyph glyph-name="uni013C" unicode="&#x13c;" horiz-adv-x="581"
               d="M249 -628 L326 -628 L489 -125 L348 -125 L249 -628 Z M423 -23 Q285 -23 221 39.5 Q157 102 157 243 L157 1522 L279 1532 L279 250 Q279 150 315.5 112 Q352 74 426 74 Q486 74 576 97 L581 1 Q483 -23 423 -23 Z "/>
        <glyph glyph-name="Lcaron" unicode="&#x13d;" horiz-adv-x="998"
               d="M1133 1064 L1271 1514 L1407 1514 L1237 1064 L1133 1064 Z M182 0 L182 1488 L311 1488 L311 113 L980 113 L974 0 L182 0 Z "/>
        <glyph glyph-name="lcaron" unicode="&#x13e;" horiz-adv-x="581"
               d="M734 1082 L872 1532 L1008 1532 L838 1082 L734 1082 Z M423 -23 Q285 -23 221 39.5 Q157 102 157 243 L157 1522 L279 1532 L279 250 Q279 150 315.5 112 Q352 74 426 74 Q486 74 576 97 L581 1 Q483 -23 423 -23 Z "/>
        <glyph glyph-name="Ldot" unicode="&#x13f;" horiz-adv-x="998"
               d="M497 658 L665 658 L665 856 L497 856 L497 658 Z M182 0 L182 1488 L311 1488 L311 113 L980 113 L974 0 L182 0 Z "/>
        <glyph glyph-name="ldot" unicode="&#x140;" horiz-adv-x="1045"
               d="M727 561 L895 561 L895 759 L727 759 L727 561 Z M423 -23 Q285 -23 221 39.5 Q157 102 157 243 L157 1522 L279 1532 L279 250 Q279 150 315.5 112 Q352 74 426 74 Q486 74 576 97 L581 1 Q483 -23 423 -23 Z "/>
        <glyph glyph-name="Lslash" unicode="&#x141;" horiz-adv-x="936"
               d="M156 0 L156 618 L9 545 L9 669 L156 744 L156 1518 L291 1518 L291 801 L653 998 L653 862 L291 672 L291 124 L966 124 L955 0 L156 0 Z "/>
        <glyph glyph-name="lslash" unicode="&#x142;" horiz-adv-x="548"
               d="M395 -25 Q358 -25 328.5 -22 Q299 -19 275 -9.5 Q251 0 233 9.5 Q215 19 201 40 Q187 61 177.5 79 Q168 97 161.5 132 Q155 167 151.5 195 Q148 223 146 274 Q144 325 143.5 365.5 Q143 406 143 474 L143 493 L31 394 L31 514 L143 613 L143 1487 L272 1507 L272 729 L456 892 L456 770 L272 608 L272 427 Q272 378 272 351.5 Q272 325 273 288 Q274 251 276 232.5 Q278 214 281.5 188 Q285 162 290 150.5 Q295 139 303 123 Q311 107 320.5 100.5 Q330 94 343.5 87 Q357 80 373.5 78 Q390 76 411 76 Q434 76 564 88 L579 -12 Q470 -25 395 -25 Z "/>
        <glyph glyph-name="Nacute" unicode="&#x143;" horiz-adv-x="1499"
               d="M712 1616 L906 2003 L1060 2003 L787 1616 L712 1616 Z M182 0 L182 1488 L331 1488 L1150 233 L1203 160 Q1196 468 1196 543 L1196 1488 L1317 1488 L1317 0 L1165 0 L348 1253 L297 1326 Q305 1101 305 938 L305 0 L182 0 Z "/>
        <glyph glyph-name="nacute" unicode="&#x144;" horiz-adv-x="1152"
               d="M542 1218 L736 1605 L890 1605 L617 1218 L542 1218 Z M147 0 L147 1096 L255 1096 L272 927 Q331 1015 430.5 1065.5 Q530 1116 645 1116 Q834 1116 923 1012 Q1012 908 1012 680 L1012 0 L887 0 L887 736 Q882 882 825 946 Q768 1010 638 1010 Q489 1010 394.5 935 Q300 860 276 741 Q272 694 272 643 L272 0 L147 0 Z "/>
        <glyph glyph-name="uni0145" unicode="&#x145;" horiz-adv-x="1499"
               d="M630 -605 L707 -605 L870 -102 L729 -102 L630 -605 Z M182 0 L182 1488 L331 1488 L1150 233 L1203 160 Q1196 468 1196 543 L1196 1488 L1317 1488 L1317 0 L1165 0 L348 1253 L297 1326 Q305 1101 305 938 L305 0 L182 0 Z "/>
        <glyph glyph-name="uni0146" unicode="&#x146;" horiz-adv-x="1152"
               d="M460 -605 L537 -605 L700 -102 L559 -102 L460 -605 Z M147 0 L147 1096 L255 1096 L272 927 Q331 1015 430.5 1065.5 Q530 1116 645 1116 Q834 1116 923 1012 Q1012 908 1012 680 L1012 0 L887 0 L887 736 Q882 882 825 946 Q768 1010 638 1010 Q489 1010 394.5 935 Q300 860 276 741 Q272 694 272 643 L272 0 L147 0 Z "/>
        <glyph glyph-name="Ncaron" unicode="&#x147;" horiz-adv-x="1499"
               d="M655 1616 L484 1975 L575 1975 L750 1680 L926 1975 L1015 1975 L847 1616 L655 1616 Z M182 0 L182 1488 L331 1488 L1150 233 L1203 160 Q1196 468 1196 543 L1196 1488 L1317 1488 L1317 0 L1165 0 L348 1253 L297 1326 Q305 1101 305 938 L305 0 L182 0 Z "/>
        <glyph glyph-name="ncaron" unicode="&#x148;" horiz-adv-x="1152"
               d="M485 1218 L314 1577 L405 1577 L580 1282 L756 1577 L845 1577 L677 1218 L485 1218 Z M147 0 L147 1096 L255 1096 L272 927 Q331 1015 430.5 1065.5 Q530 1116 645 1116 Q834 1116 923 1012 Q1012 908 1012 680 L1012 0 L887 0 L887 736 Q882 882 825 946 Q768 1010 638 1010 Q489 1010 394.5 935 Q300 860 276 741 Q272 694 272 643 L272 0 L147 0 Z "/>
        <glyph glyph-name="Omacron" unicode="&#x14c;" horiz-adv-x="1627"
               d="M504 1616 L504 1722 L1122 1722 L1122 1616 L504 1616 Z M815 82 Q999 82 1124.5 166 Q1250 250 1308.5 396.5 Q1367 543 1367 745 Q1367 1061 1227 1234 Q1087 1407 816 1407 Q543 1407 400.5 1234.5 Q258 1062 258 745 Q258 438 399.5 260 Q541 82 815 82 Z M815 -23 Q645 -23 511.5 33.5 Q378 90 292.5 192.5 Q207 295 162.5 435 Q118 575 118 744 Q118 1098 300.5 1306 Q483 1514 816 1514 Q1143 1514 1326 1304.5 Q1509 1095 1509 743 Q1509 578 1464 438.5 Q1419 299 1333.5 196 Q1248 93 1115 35 Q982 -23 815 -23 Z "/>
        <glyph glyph-name="omacron" unicode="&#x14d;" horiz-adv-x="1190"
               d="M286 1218 L286 1324 L904 1324 L904 1218 L286 1218 Z M601 75 Q721 75 803.5 138.5 Q886 202 923.5 306 Q961 410 961 545 Q961 757 871 886 Q781 1015 597 1015 Q477 1015 392.5 950.5 Q308 886 269 781.5 Q230 677 230 542 Q230 337 325.5 206 Q421 75 601 75 Z M592 -24 Q443 -24 329.5 51 Q216 126 156.5 254.5 Q97 383 97 545 Q97 667 131.5 771.5 Q166 876 230 952.5 Q294 1029 389 1072.5 Q484 1116 600 1116 Q754 1116 867 1040.5 Q980 965 1036.5 837.5 Q1093 710 1093 547 Q1093 383 1035 255 Q977 127 862 51.5 Q747 -24 592 -24 Z "/>
        <glyph glyph-name="Obreve" unicode="&#x14e;" horiz-adv-x="1627"
               d="M811 1616 Q714 1616 647.5 1682.5 Q581 1749 581 1868 L673 1868 Q673 1781 708.5 1737.5 Q744 1694 811 1694 Q877 1694 914.5 1738 Q952 1782 952 1868 L1046 1868 Q1046 1750 978 1683 Q910 1616 811 1616 Z M815 82 Q999 82 1124.5 166 Q1250 250 1308.5 396.5 Q1367 543 1367 745 Q1367 1061 1227 1234 Q1087 1407 816 1407 Q543 1407 400.5 1234.5 Q258 1062 258 745 Q258 438 399.5 260 Q541 82 815 82 Z M815 -23 Q645 -23 511.5 33.5 Q378 90 292.5 192.5 Q207 295 162.5 435 Q118 575 118 744 Q118 1098 300.5 1306 Q483 1514 816 1514 Q1143 1514 1326 1304.5 Q1509 1095 1509 743 Q1509 578 1464 438.5 Q1419 299 1333.5 196 Q1248 93 1115 35 Q982 -23 815 -23 Z "/>
        <glyph glyph-name="obreve" unicode="&#x14f;" horiz-adv-x="1190"
               d="M593 1218 Q496 1218 429.5 1284.5 Q363 1351 363 1470 L455 1470 Q455 1383 490.5 1339.5 Q526 1296 593 1296 Q659 1296 696.5 1340 Q734 1384 734 1470 L828 1470 Q828 1352 760 1285 Q692 1218 593 1218 Z M601 75 Q721 75 803.5 138.5 Q886 202 923.5 306 Q961 410 961 545 Q961 757 871 886 Q781 1015 597 1015 Q477 1015 392.5 950.5 Q308 886 269 781.5 Q230 677 230 542 Q230 337 325.5 206 Q421 75 601 75 Z M592 -24 Q443 -24 329.5 51 Q216 126 156.5 254.5 Q97 383 97 545 Q97 667 131.5 771.5 Q166 876 230 952.5 Q294 1029 389 1072.5 Q484 1116 600 1116 Q754 1116 867 1040.5 Q980 965 1036.5 837.5 Q1093 710 1093 547 Q1093 383 1035 255 Q977 127 862 51.5 Q747 -24 592 -24 Z "/>
        <glyph glyph-name="Ohungarumlaut" unicode="&#x150;" horiz-adv-x="1627"
               d="M671 1616 L847 1934 L967 1934 L754 1616 L671 1616 Z M868 1616 L1050 1934 L1165 1934 L956 1616 L868 1616 Z M815 82 Q999 82 1124.5 166 Q1250 250 1308.5 396.5 Q1367 543 1367 745 Q1367 1061 1227 1234 Q1087 1407 816 1407 Q543 1407 400.5 1234.5 Q258 1062 258 745 Q258 438 399.5 260 Q541 82 815 82 Z M815 -23 Q645 -23 511.5 33.5 Q378 90 292.5 192.5 Q207 295 162.5 435 Q118 575 118 744 Q118 1098 300.5 1306 Q483 1514 816 1514 Q1143 1514 1326 1304.5 Q1509 1095 1509 743 Q1509 578 1464 438.5 Q1419 299 1333.5 196 Q1248 93 1115 35 Q982 -23 815 -23 Z "/>
        <glyph glyph-name="ohungarumlaut" unicode="&#x151;" horiz-adv-x="1190"
               d="M452 1218 L628 1536 L748 1536 L535 1218 L452 1218 Z M649 1218 L831 1536 L946 1536 L737 1218 L649 1218 Z M601 75 Q721 75 803.5 138.5 Q886 202 923.5 306 Q961 410 961 545 Q961 757 871 886 Q781 1015 597 1015 Q477 1015 392.5 950.5 Q308 886 269 781.5 Q230 677 230 542 Q230 337 325.5 206 Q421 75 601 75 Z M592 -24 Q443 -24 329.5 51 Q216 126 156.5 254.5 Q97 383 97 545 Q97 667 131.5 771.5 Q166 876 230 952.5 Q294 1029 389 1072.5 Q484 1116 600 1116 Q754 1116 867 1040.5 Q980 965 1036.5 837.5 Q1093 710 1093 547 Q1093 383 1035 255 Q977 127 862 51.5 Q747 -24 592 -24 Z "/>
        <glyph glyph-name="OE" unicode="&#x152;" horiz-adv-x="1949"
               d="M817 -23 Q640 -23 505.5 34 Q371 91 286.5 198 Q202 305 160 452.5 Q118 600 118 785 Q118 949 169.5 1086 Q221 1223 311 1316.5 Q401 1410 527 1462 Q653 1514 799 1514 Q907 1514 997.5 1492 Q1088 1470 1139 1435 L1139 1488 L1813 1488 L1797 1382 L1267 1382 L1267 822 L1758 822 L1758 713 L1267 713 L1267 107 L1835 107 L1821 0 L1139 0 L1139 60 Q1120 37 1008.5 7 Q897 -23 817 -23 Z M819 82 Q872 82 921.5 90.5 Q971 99 1000.5 107 Q1030 115 1065 132.5 Q1100 150 1108 155 Q1116 160 1139 175 L1139 1318 Q1003 1407 807 1407 Q553 1407 405.5 1242 Q258 1077 258 771 Q258 655 274 557.5 Q290 460 330 370.5 Q370 281 432.5 218.5 Q495 156 593.5 119 Q692 82 819 82 Z "/>
        <glyph glyph-name="oe" unicode="&#x153;" horiz-adv-x="1930"
               d="M586 -24 Q437 -24 325 51 Q213 126 155 254.5 Q97 383 97 545 Q97 709 154.5 837 Q212 965 326 1040.5 Q440 1116 594 1116 Q750 1116 858 1039.5 Q966 963 1020 828 Q1073 962 1176 1037.5 Q1279 1113 1419 1116 Q1611 1116 1723.5 978.5 Q1836 841 1836 608 Q1836 599 1835.5 571.5 Q1835 544 1835 533 L1082 533 Q1084 322 1184 198.5 Q1284 75 1448 75 Q1496 75 1536 80 Q1576 85 1615 99 Q1654 113 1673 120.5 Q1692 128 1735 150.5 Q1778 173 1789 179 L1810 78 Q1725 26 1641.5 1 Q1558 -24 1445 -24 Q1290 -24 1181 51 Q1072 126 1019 264 Q964 129 853.5 52.5 Q743 -24 586 -24 Z M595 75 Q685 75 754.5 111 Q824 147 866.5 211.5 Q909 276 930 360 Q951 444 951 545 Q951 648 930.5 731.5 Q910 815 868 879.5 Q826 944 755.5 979.5 Q685 1015 591 1015 Q471 1015 388 950.5 Q305 886 267.5 782 Q230 678 230 542 Q230 443 252 359.5 Q274 276 318 211.5 Q362 147 432.5 111 Q503 75 595 75 Z M1087 633 L1701 633 Q1701 639 1701 644 Q1699 823 1624 917 Q1549 1011 1415 1011 Q1275 1011 1189 907 Q1103 803 1087 633 Z "/>
        <glyph glyph-name="Racute" unicode="&#x154;" horiz-adv-x="1333"
               d="M670 1616 L864 2003 L1018 2003 L745 1616 L670 1616 Z M182 0 L182 1488 L606 1488 Q687 1488 746.5 1485 Q806 1482 868 1472 Q930 1462 973.5 1445.5 Q1017 1429 1056.5 1401 Q1096 1373 1120 1333.5 Q1144 1294 1157.5 1239 Q1171 1184 1171 1114 Q1171 977 1104 879 Q1037 781 899 746 Q959 623 989 559 L1233 0 L1084 0 L874 509 Q853 559 780 725 Q760 722 632 722 L310 728 L310 0 L182 0 Z M687 828 Q886 828 965 897.5 Q1044 967 1044 1112 Q1044 1242 972.5 1311.5 Q901 1381 729 1381 L310 1381 L310 831 Q545 828 687 828 Z "/>
        <glyph glyph-name="racute" unicode="&#x155;" horiz-adv-x="715"
               d="M378 1218 L572 1605 L726 1605 L453 1218 L378 1218 Z M149 0 Q147 965 147 1096 L249 1096 L257 880 Q316 978 407 1040 Q498 1102 597 1102 Q638 1102 685 1095 L676 992 Q640 998 600 998 Q461 998 366.5 888.5 Q272 779 272 629 L272 0 L149 0 Z "/>
        <glyph glyph-name="uni0156" unicode="&#x156;" horiz-adv-x="1333"
               d="M588 -605 L665 -605 L828 -102 L687 -102 L588 -605 Z M182 0 L182 1488 L606 1488 Q687 1488 746.5 1485 Q806 1482 868 1472 Q930 1462 973.5 1445.5 Q1017 1429 1056.5 1401 Q1096 1373 1120 1333.5 Q1144 1294 1157.5 1239 Q1171 1184 1171 1114 Q1171 977 1104 879 Q1037 781 899 746 Q959 623 989 559 L1233 0 L1084 0 L874 509 Q853 559 780 725 Q760 722 632 722 L310 728 L310 0 L182 0 Z M687 828 Q886 828 965 897.5 Q1044 967 1044 1112 Q1044 1242 972.5 1311.5 Q901 1381 729 1381 L310 1381 L310 831 Q545 828 687 828 Z "/>
        <glyph glyph-name="uni0157" unicode="&#x157;" horiz-adv-x="715"
               d="M296 -605 L373 -605 L536 -102 L395 -102 L296 -605 Z M149 0 Q147 965 147 1096 L249 1096 L257 880 Q316 978 407 1040 Q498 1102 597 1102 Q638 1102 685 1095 L676 992 Q640 998 600 998 Q461 998 366.5 888.5 Q272 779 272 629 L272 0 L149 0 Z "/>
        <glyph glyph-name="Rcaron" unicode="&#x158;" horiz-adv-x="1333"
               d="M613 1616 L442 1975 L533 1975 L708 1680 L884 1975 L973 1975 L805 1616 L613 1616 Z M182 0 L182 1488 L606 1488 Q687 1488 746.5 1485 Q806 1482 868 1472 Q930 1462 973.5 1445.5 Q1017 1429 1056.5 1401 Q1096 1373 1120 1333.5 Q1144 1294 1157.5 1239 Q1171 1184 1171 1114 Q1171 977 1104 879 Q1037 781 899 746 Q959 623 989 559 L1233 0 L1084 0 L874 509 Q853 559 780 725 Q760 722 632 722 L310 728 L310 0 L182 0 Z M687 828 Q886 828 965 897.5 Q1044 967 1044 1112 Q1044 1242 972.5 1311.5 Q901 1381 729 1381 L310 1381 L310 831 Q545 828 687 828 Z "/>
        <glyph glyph-name="rcaron" unicode="&#x159;" horiz-adv-x="715"
               d="M321 1218 L150 1577 L241 1577 L416 1282 L592 1577 L681 1577 L513 1218 L321 1218 Z M149 0 Q147 965 147 1096 L249 1096 L257 880 Q316 978 407 1040 Q498 1102 597 1102 Q638 1102 685 1095 L676 992 Q640 998 600 998 Q461 998 366.5 888.5 Q272 779 272 629 L272 0 L149 0 Z "/>
        <glyph glyph-name="Sacute" unicode="&#x15a;" horiz-adv-x="1247"
               d="M590 1616 L784 2003 L938 2003 L665 1616 L590 1616 Z M658 -23 Q469 -23 324 17 Q179 57 99 105 L147 196 Q358 82 669 82 Q840 82 932.5 171 Q1025 260 1025 422 Q1025 482 1014 523 Q1003 564 973 601.5 Q943 639 885.5 664.5 Q828 690 739 708 L499 756 Q298 796 197.5 882 Q97 968 97 1127 Q97 1230 137 1305.5 Q177 1381 252.5 1426 Q328 1471 427.5 1492.5 Q527 1514 654 1514 Q780 1514 900.5 1483 Q1021 1452 1098 1413 L1065 1315 Q1006 1348 890.5 1377.5 Q775 1407 651 1407 Q440 1407 334 1336.5 Q228 1266 228 1114 Q228 1019 295 961.5 Q362 904 493 876 L761 821 Q861 800 930.5 771 Q1000 742 1053.5 696 Q1107 650 1133 581.5 Q1159 513 1159 419 Q1159 209 1021.5 93 Q884 -23 658 -23 Z "/>
        <glyph glyph-name="sacute" unicode="&#x15b;" horiz-adv-x="944"
               d="M443 1218 L637 1605 L791 1605 L518 1218 L443 1218 Z M467 -25 Q361 -25 268 1 Q175 27 121 63 L139 167 Q304 81 455 81 Q726 81 736 282 Q736 366 681.5 414 Q627 462 463 514 Q377 544 368 547 Q111 625 109 824 Q109 939 210.5 1027.5 Q312 1116 485 1116 Q658 1116 810 1048 L768 956 Q614 1014 482 1014 Q366 1014 299.5 962 Q233 910 233 822 Q233 748 276.5 708.5 Q320 669 449 633 Q463 629 500.5 615 Q538 601 542 600 Q715 547 783.5 474.5 Q852 402 852 277 Q849 133 744.5 54 Q640 -25 467 -25 Z "/>
        <glyph glyph-name="scircumflex" unicode="&#x15d;" horiz-adv-x="944"
               d="M215 1218 L383 1577 L575 1577 L746 1218 L655 1218 L480 1513 L304 1218 L215 1218 Z M467 -25 Q361 -25 268 1 Q175 27 121 63 L139 167 Q304 81 455 81 Q726 81 736 282 Q736 366 681.5 414 Q627 462 463 514 Q377 544 368 547 Q111 625 109 824 Q109 939 210.5 1027.5 Q312 1116 485 1116 Q658 1116 810 1048 L768 956 Q614 1014 482 1014 Q366 1014 299.5 962 Q233 910 233 822 Q233 748 276.5 708.5 Q320 669 449 633 Q463 629 500.5 615 Q538 601 542 600 Q715 547 783.5 474.5 Q852 402 852 277 Q849 133 744.5 54 Q640 -25 467 -25 Z "/>
        <glyph glyph-name="Scedilla" unicode="&#x15e;" horiz-adv-x="1247"
               d="M492 -430 L599 -9 L658 -9 L621 -430 L492 -430 Z M658 -23 Q469 -23 324 17 Q179 57 99 105 L147 196 Q358 82 669 82 Q840 82 932.5 171 Q1025 260 1025 422 Q1025 482 1014 523 Q1003 564 973 601.5 Q943 639 885.5 664.5 Q828 690 739 708 L499 756 Q298 796 197.5 882 Q97 968 97 1127 Q97 1230 137 1305.5 Q177 1381 252.5 1426 Q328 1471 427.5 1492.5 Q527 1514 654 1514 Q780 1514 900.5 1483 Q1021 1452 1098 1413 L1065 1315 Q1006 1348 890.5 1377.5 Q775 1407 651 1407 Q440 1407 334 1336.5 Q228 1266 228 1114 Q228 1019 295 961.5 Q362 904 493 876 L761 821 Q861 800 930.5 771 Q1000 742 1053.5 696 Q1107 650 1133 581.5 Q1159 513 1159 419 Q1159 209 1021.5 93 Q884 -23 658 -23 Z "/>
        <glyph glyph-name="scedilla" unicode="&#x15f;" horiz-adv-x="944"
               d="M344 -432 L451 -11 L510 -11 L473 -432 L344 -432 Z M467 -25 Q361 -25 268 1 Q175 27 121 63 L139 167 Q304 81 455 81 Q726 81 736 282 Q736 366 681.5 414 Q627 462 463 514 Q377 544 368 547 Q111 625 109 824 Q109 939 210.5 1027.5 Q312 1116 485 1116 Q658 1116 810 1048 L768 956 Q614 1014 482 1014 Q366 1014 299.5 962 Q233 910 233 822 Q233 748 276.5 708.5 Q320 669 449 633 Q463 629 500.5 615 Q538 601 542 600 Q715 547 783.5 474.5 Q852 402 852 277 Q849 133 744.5 54 Q640 -25 467 -25 Z "/>
        <glyph glyph-name="Scaron" unicode="&#x160;" horiz-adv-x="1247"
               d="M533 1616 L362 1975 L453 1975 L628 1680 L804 1975 L893 1975 L725 1616 L533 1616 Z M658 -23 Q469 -23 324 17 Q179 57 99 105 L147 196 Q358 82 669 82 Q840 82 932.5 171 Q1025 260 1025 422 Q1025 482 1014 523 Q1003 564 973 601.5 Q943 639 885.5 664.5 Q828 690 739 708 L499 756 Q298 796 197.5 882 Q97 968 97 1127 Q97 1230 137 1305.5 Q177 1381 252.5 1426 Q328 1471 427.5 1492.5 Q527 1514 654 1514 Q780 1514 900.5 1483 Q1021 1452 1098 1413 L1065 1315 Q1006 1348 890.5 1377.5 Q775 1407 651 1407 Q440 1407 334 1336.5 Q228 1266 228 1114 Q228 1019 295 961.5 Q362 904 493 876 L761 821 Q861 800 930.5 771 Q1000 742 1053.5 696 Q1107 650 1133 581.5 Q1159 513 1159 419 Q1159 209 1021.5 93 Q884 -23 658 -23 Z "/>
        <glyph glyph-name="scaron" unicode="&#x161;" horiz-adv-x="944"
               d="M386 1218 L215 1577 L306 1577 L481 1282 L657 1577 L746 1577 L578 1218 L386 1218 Z M467 -25 Q361 -25 268 1 Q175 27 121 63 L139 167 Q304 81 455 81 Q726 81 736 282 Q736 366 681.5 414 Q627 462 463 514 Q377 544 368 547 Q111 625 109 824 Q109 939 210.5 1027.5 Q312 1116 485 1116 Q658 1116 810 1048 L768 956 Q614 1014 482 1014 Q366 1014 299.5 962 Q233 910 233 822 Q233 748 276.5 708.5 Q320 669 449 633 Q463 629 500.5 615 Q538 601 542 600 Q715 547 783.5 474.5 Q852 402 852 277 Q849 133 744.5 54 Q640 -25 467 -25 Z "/>
        <glyph glyph-name="Tcaron" unicode="&#x164;" horiz-adv-x="1082"
               d="M447 1616 L276 1975 L367 1975 L542 1680 L718 1975 L807 1975 L639 1616 L447 1616 Z M476 0 L476 1378 L8 1378 L8 1488 L1074 1488 L1074 1378 L606 1378 L606 0 L476 0 Z "/>
        <glyph glyph-name="tcaron" unicode="&#x165;" horiz-adv-x="676"
               d="M796 901 L934 1351 L1070 1351 L900 901 L796 901 Z M456 -23 Q318 -23 254 39.5 Q190 102 190 243 L190 1005 L35 1005 L44 1080 L192 1094 L225 1345 L312 1351 L312 1096 L632 1096 L632 1005 L312 1005 L312 269 Q312 153 350 113.5 Q388 74 484 74 Q546 74 638 97 L643 1 Q522 -23 456 -23 Z "/>
        <glyph glyph-name="Utilde" unicode="&#x168;" horiz-adv-x="1408"
               d="M419 1616 Q422 1723 463.5 1762.5 Q505 1802 578 1802 Q624 1802 721 1754 Q818 1706 842 1706 Q858 1706 869 1715 Q880 1724 886 1742 Q892 1760 894 1771 Q896 1782 898 1802 L989 1802 Q985 1701 949.5 1658.5 Q914 1616 848 1616 Q804 1616 698.5 1667.5 Q593 1719 570 1719 Q517 1719 509 1616 L419 1616 Z M699 -23 Q555 -23 449 16 Q343 55 280 128 Q217 201 187 297.5 Q157 394 157 517 L157 1488 L285 1488 L285 497 Q285 284 390 181.5 Q495 79 707 79 Q1123 79 1123 498 L1123 1488 L1251 1488 L1251 515 Q1251 417 1231.5 336 Q1212 255 1170 188 Q1128 121 1064 74.5 Q1000 28 907.5 2.5 Q815 -23 699 -23 Z "/>
        <glyph glyph-name="utilde" unicode="&#x169;" horiz-adv-x="1106"
               d="M263 1218 Q266 1325 307.5 1364.5 Q349 1404 422 1404 Q468 1404 565 1356 Q662 1308 686 1308 Q702 1308 713 1317 Q724 1326 730 1344 Q736 1362 738 1373 Q740 1384 742 1404 L833 1404 Q829 1303 793.5 1260.5 Q758 1218 692 1218 Q648 1218 542.5 1269.5 Q437 1321 414 1321 Q361 1321 353 1218 L263 1218 Z M555 -27 Q469 -27 395.5 -7.5 Q322 12 259 53.5 Q196 95 159.5 171 Q123 247 123 350 L123 1096 L247 1096 L247 347 Q247 269 271 215 Q295 161 340 133.5 Q385 106 436 95 Q487 84 555 84 Q622 84 673 95.5 Q724 107 768 135 Q812 163 835.5 216.5 Q859 270 859 347 L859 1096 L983 1096 L983 350 Q983 266 959 200 Q935 134 895 92 Q855 50 798.5 22.5 Q742 -5 682.5 -16 Q623 -27 555 -27 Z "/>
        <glyph glyph-name="Umacron" unicode="&#x16a;" horiz-adv-x="1408"
               d="M394 1616 L394 1722 L1012 1722 L1012 1616 L394 1616 Z M699 -23 Q555 -23 449 16 Q343 55 280 128 Q217 201 187 297.5 Q157 394 157 517 L157 1488 L285 1488 L285 497 Q285 284 390 181.5 Q495 79 707 79 Q1123 79 1123 498 L1123 1488 L1251 1488 L1251 515 Q1251 417 1231.5 336 Q1212 255 1170 188 Q1128 121 1064 74.5 Q1000 28 907.5 2.5 Q815 -23 699 -23 Z "/>
        <glyph glyph-name="umacron" unicode="&#x16b;" horiz-adv-x="1106"
               d="M238 1218 L238 1324 L856 1324 L856 1218 L238 1218 Z M555 -27 Q469 -27 395.5 -7.5 Q322 12 259 53.5 Q196 95 159.5 171 Q123 247 123 350 L123 1096 L247 1096 L247 347 Q247 269 271 215 Q295 161 340 133.5 Q385 106 436 95 Q487 84 555 84 Q622 84 673 95.5 Q724 107 768 135 Q812 163 835.5 216.5 Q859 270 859 347 L859 1096 L983 1096 L983 350 Q983 266 959 200 Q935 134 895 92 Q855 50 798.5 22.5 Q742 -5 682.5 -16 Q623 -27 555 -27 Z "/>
        <glyph glyph-name="Ubreve" unicode="&#x16c;" horiz-adv-x="1408"
               d="M701 1616 Q604 1616 537.5 1682.5 Q471 1749 471 1868 L563 1868 Q563 1781 598.5 1737.5 Q634 1694 701 1694 Q767 1694 804.5 1738 Q842 1782 842 1868 L936 1868 Q936 1750 868 1683 Q800 1616 701 1616 Z M699 -23 Q555 -23 449 16 Q343 55 280 128 Q217 201 187 297.5 Q157 394 157 517 L157 1488 L285 1488 L285 497 Q285 284 390 181.5 Q495 79 707 79 Q1123 79 1123 498 L1123 1488 L1251 1488 L1251 515 Q1251 417 1231.5 336 Q1212 255 1170 188 Q1128 121 1064 74.5 Q1000 28 907.5 2.5 Q815 -23 699 -23 Z "/>
        <glyph glyph-name="ubreve" unicode="&#x16d;" horiz-adv-x="1106"
               d="M545 1218 Q448 1218 381.5 1284.5 Q315 1351 315 1470 L407 1470 Q407 1383 442.5 1339.5 Q478 1296 545 1296 Q611 1296 648.5 1340 Q686 1384 686 1470 L780 1470 Q780 1352 712 1285 Q644 1218 545 1218 Z M555 -27 Q469 -27 395.5 -7.5 Q322 12 259 53.5 Q196 95 159.5 171 Q123 247 123 350 L123 1096 L247 1096 L247 347 Q247 269 271 215 Q295 161 340 133.5 Q385 106 436 95 Q487 84 555 84 Q622 84 673 95.5 Q724 107 768 135 Q812 163 835.5 216.5 Q859 270 859 347 L859 1096 L983 1096 L983 350 Q983 266 959 200 Q935 134 895 92 Q855 50 798.5 22.5 Q742 -5 682.5 -16 Q623 -27 555 -27 Z "/>
        <glyph glyph-name="Uring" unicode="&#x16e;" horiz-adv-x="1408"
               d="M640 1715 Q668 1687 706 1687 Q744 1687 771.5 1715 Q799 1743 799 1794 Q798 1844 770.5 1872.5 Q743 1901 705 1901 Q667 1901 639.5 1872.5 Q612 1844 612 1793 Q612 1743 640 1715 Z M707 1616 Q632 1616 576.5 1663.5 Q521 1711 521 1794 Q521 1878 575 1925 Q629 1972 704 1972 Q778 1972 832.5 1924.5 Q887 1877 887 1794 Q887 1709 833.5 1662.5 Q780 1616 707 1616 Z M699 -23 Q555 -23 449 16 Q343 55 280 128 Q217 201 187 297.5 Q157 394 157 517 L157 1488 L285 1488 L285 497 Q285 284 390 181.5 Q495 79 707 79 Q1123 79 1123 498 L1123 1488 L1251 1488 L1251 515 Q1251 417 1231.5 336 Q1212 255 1170 188 Q1128 121 1064 74.5 Q1000 28 907.5 2.5 Q815 -23 699 -23 Z "/>
        <glyph glyph-name="uring" unicode="&#x16f;" horiz-adv-x="1106"
               d="M484 1317 Q512 1289 550 1289 Q588 1289 615.5 1317 Q643 1345 643 1396 Q642 1446 614.5 1474.5 Q587 1503 549 1503 Q511 1503 483.5 1474.5 Q456 1446 456 1395 Q456 1345 484 1317 Z M551 1218 Q476 1218 420.5 1265.5 Q365 1313 365 1396 Q365 1480 419 1527 Q473 1574 548 1574 Q622 1574 676.5 1526.5 Q731 1479 731 1396 Q731 1311 677.5 1264.5 Q624 1218 551 1218 Z M555 -27 Q469 -27 395.5 -7.5 Q322 12 259 53.5 Q196 95 159.5 171 Q123 247 123 350 L123 1096 L247 1096 L247 347 Q247 269 271 215 Q295 161 340 133.5 Q385 106 436 95 Q487 84 555 84 Q622 84 673 95.5 Q724 107 768 135 Q812 163 835.5 216.5 Q859 270 859 347 L859 1096 L983 1096 L983 350 Q983 266 959 200 Q935 134 895 92 Q855 50 798.5 22.5 Q742 -5 682.5 -16 Q623 -27 555 -27 Z "/>
        <glyph glyph-name="Uhungarumlaut" unicode="&#x170;" horiz-adv-x="1408"
               d="M562 1616 L738 1934 L858 1934 L645 1616 L562 1616 Z M759 1616 L941 1934 L1056 1934 L847 1616 L759 1616 Z M699 -23 Q555 -23 449 16 Q343 55 280 128 Q217 201 187 297.5 Q157 394 157 517 L157 1488 L285 1488 L285 497 Q285 284 390 181.5 Q495 79 707 79 Q1123 79 1123 498 L1123 1488 L1251 1488 L1251 515 Q1251 417 1231.5 336 Q1212 255 1170 188 Q1128 121 1064 74.5 Q1000 28 907.5 2.5 Q815 -23 699 -23 Z "/>
        <glyph glyph-name="uhungarumlaut" unicode="&#x171;" horiz-adv-x="1106"
               d="M406 1218 L582 1536 L702 1536 L489 1218 L406 1218 Z M603 1218 L785 1536 L900 1536 L691 1218 L603 1218 Z M555 -27 Q469 -27 395.5 -7.5 Q322 12 259 53.5 Q196 95 159.5 171 Q123 247 123 350 L123 1096 L247 1096 L247 347 Q247 269 271 215 Q295 161 340 133.5 Q385 106 436 95 Q487 84 555 84 Q622 84 673 95.5 Q724 107 768 135 Q812 163 835.5 216.5 Q859 270 859 347 L859 1096 L983 1096 L983 350 Q983 266 959 200 Q935 134 895 92 Q855 50 798.5 22.5 Q742 -5 682.5 -16 Q623 -27 555 -27 Z "/>
        <glyph glyph-name="Uogonek" unicode="&#x172;" horiz-adv-x="1408"
               d="M641 -432 Q559 -432 506.5 -383.5 Q454 -335 454 -253 Q454 -126 645 -9 L762 -9 Q658 -88 607 -140.5 Q556 -193 556 -241 Q556 -283 585.5 -307.5 Q615 -332 647 -332 Q678 -332 690.5 -331 Q703 -330 725.5 -323.5 Q748 -317 781 -302 L781 -403 Q707 -432 641 -432 Z M699 -23 Q555 -23 449 16 Q343 55 280 128 Q217 201 187 297.5 Q157 394 157 517 L157 1488 L285 1488 L285 497 Q285 284 390 181.5 Q495 79 707 79 Q1123 79 1123 498 L1123 1488 L1251 1488 L1251 515 Q1251 417 1231.5 336 Q1212 255 1170 188 Q1128 121 1064 74.5 Q1000 28 907.5 2.5 Q815 -23 699 -23 Z "/>
        <glyph glyph-name="uogonek" unicode="&#x173;" horiz-adv-x="1106"
               d="M544 -436 Q462 -436 409.5 -387.5 Q357 -339 357 -257 Q357 -130 548 -13 L665 -13 Q561 -92 510 -144.5 Q459 -197 459 -245 Q459 -287 488.5 -311.5 Q518 -336 550 -336 Q581 -336 593.5 -335 Q606 -334 628.5 -327.5 Q651 -321 684 -306 L684 -407 Q610 -436 544 -436 Z M555 -27 Q469 -27 395.5 -7.5 Q322 12 259 53.5 Q196 95 159.5 171 Q123 247 123 350 L123 1096 L247 1096 L247 347 Q247 269 271 215 Q295 161 340 133.5 Q385 106 436 95 Q487 84 555 84 Q622 84 673 95.5 Q724 107 768 135 Q812 163 835.5 216.5 Q859 270 859 347 L859 1096 L983 1096 L983 350 Q983 266 959 200 Q935 134 895 92 Q855 50 798.5 22.5 Q742 -5 682.5 -16 Q623 -27 555 -27 Z "/>
        <glyph glyph-name="Ydieresis" unicode="&#x178;" horiz-adv-x="1166"
               d="M326 1616 L326 1793 L462 1793 L462 1616 L326 1616 Z M702 1616 L702 1793 L839 1793 L839 1616 L702 1616 Z M501 0 L501 589 L5 1488 L144 1488 L575 703 L1020 1488 L1161 1488 L632 593 L632 0 L501 0 Z "/>
        <glyph glyph-name="Zacute" unicode="&#x179;" horiz-adv-x="1173"
               d="M560 1616 L754 2003 L908 2003 L635 1616 L560 1616 Z M97 0 L97 111 L923 1376 L127 1376 L127 1488 L1091 1488 L1091 1384 L259 113 L1099 113 L1091 0 L97 0 Z "/>
        <glyph glyph-name="zacute" unicode="&#x17a;" horiz-adv-x="882"
               d="M415 1218 L609 1605 L763 1605 L490 1218 L415 1218 Z M89 0 L89 104 L668 997 L99 997 L99 1096 L798 1096 L798 979 L217 93 L816 93 L816 0 L89 0 Z "/>
        <glyph glyph-name="Zdotaccent" unicode="&#x17b;" horiz-adv-x="1173"
               d="M522 1616 L522 1801 L675 1801 L675 1616 L522 1616 Z M97 0 L97 111 L923 1376 L127 1376 L127 1488 L1091 1488 L1091 1384 L259 113 L1099 113 L1091 0 L97 0 Z "/>
        <glyph glyph-name="zdotaccent" unicode="&#x17c;" horiz-adv-x="882"
               d="M376 1218 L376 1403 L529 1403 L529 1218 L376 1218 Z M89 0 L89 104 L668 997 L99 997 L99 1096 L798 1096 L798 979 L217 93 L816 93 L816 0 L89 0 Z "/>
        <glyph glyph-name="Zcaron" unicode="&#x17d;" horiz-adv-x="1173"
               d="M503 1616 L332 1975 L423 1975 L598 1680 L774 1975 L863 1975 L695 1616 L503 1616 Z M97 0 L97 111 L923 1376 L127 1376 L127 1488 L1091 1488 L1091 1384 L259 113 L1099 113 L1091 0 L97 0 Z "/>
        <glyph glyph-name="zcaron" unicode="&#x17e;" horiz-adv-x="882"
               d="M358 1218 L187 1577 L278 1577 L453 1282 L629 1577 L718 1577 L550 1218 L358 1218 Z M89 0 L89 104 L668 997 L99 997 L99 1096 L798 1096 L798 979 L217 93 L816 93 L816 0 L89 0 Z "/>
        <glyph glyph-name="florin" unicode="&#x192;" horiz-adv-x="943"
               d="M101 -359 Q52 -359 11 -335 L34 -247 Q63 -260 96 -260 Q202 -260 250 -11 Q253 5 293 246.5 Q333 488 371.5 721.5 Q410 955 410 955 L242 955 L251 1046 L432 1046 L460 1231 Q472 1310 489 1366 Q506 1422 538 1476.5 Q570 1531 623.5 1559.5 Q677 1588 752 1588 Q801 1588 865 1568 L858 1471 Q807 1491 764 1491 Q693 1491 650 1435 Q607 1379 593 1287 L556 1046 L759 1046 L749 956 L538 956 L393 84 Q383 24 375.5 -15.5 Q368 -55 357 -102 Q346 -149 334.5 -179 Q323 -209 307 -241.5 Q291 -274 272 -293 Q253 -312 227.5 -328.5 Q202 -345 170.5 -352 Q139 -359 101 -359 Z "/>
        <glyph glyph-name="uni01C4" unicode="&#x1c4;" horiz-adv-x="2671"
               d="M310 107 L602 107 Q912 107 1074.5 265.5 Q1237 424 1237 738 Q1237 910 1191.5 1035 Q1146 1160 1058 1235.5 Q970 1311 850 1346.5 Q730 1382 573 1382 L310 1382 L310 107 Z M182 0 L182 1488 L585 1488 Q767 1488 910.5 1445 Q1054 1402 1160 1313.5 Q1266 1225 1323 1080.5 Q1380 936 1380 743 Q1380 378 1179 189 Q978 0 616 0 L182 0 Z M2001 1616 L1830 1975 L1921 1975 L2096 1680 L2272 1975 L2361 1975 L2193 1616 L2001 1616 Z M1595 0 L1595 111 L2421 1376 L1625 1376 L1625 1488 L2589 1488 L2589 1384 L1757 113 L2597 113 L2589 0 L1595 0 Z "/>
        <glyph glyph-name="uni01C5" unicode="&#x1c5;" horiz-adv-x="2380"
               d="M310 107 L602 107 Q912 107 1074.5 265.5 Q1237 424 1237 738 Q1237 910 1191.5 1035 Q1146 1160 1058 1235.5 Q970 1311 850 1346.5 Q730 1382 573 1382 L310 1382 L310 107 Z M182 0 L182 1488 L585 1488 Q767 1488 910.5 1445 Q1054 1402 1160 1313.5 Q1266 1225 1323 1080.5 Q1380 936 1380 743 Q1380 378 1179 189 Q978 0 616 0 L182 0 Z M1856 1218 L1685 1577 L1776 1577 L1951 1282 L2127 1577 L2216 1577 L2048 1218 L1856 1218 Z M1587 0 L1587 104 L2166 997 L1597 997 L1597 1096 L2296 1096 L2296 979 L1715 93 L2314 93 L2314 0 L1587 0 Z "/>
        <glyph glyph-name="uni01C6" unicode="&#x1c6;" horiz-adv-x="2065"
               d="M561 -23 Q342 -23 219.5 129 Q97 281 97 549 Q97 801 223.5 958.5 Q350 1116 557 1116 Q659 1116 761 1072 Q863 1028 916 935 L916 968 L916 1521 L1036 1532 L1036 0 L933 0 L915 165 Q858 72 760.5 24.5 Q663 -23 561 -23 Z M558 75 Q651 75 721 109 Q791 143 833 205 Q875 267 895.5 347.5 Q916 428 916 526 Q916 1015 556 1015 Q471 1015 406 974.5 Q341 934 303.5 865.5 Q266 797 248 716.5 Q230 636 230 547 Q230 470 241 402.5 Q252 335 277 274 Q302 213 339 169.5 Q376 126 432 100.5 Q488 75 558 75 Z M1541 1218 L1370 1577 L1461 1577 L1636 1282 L1812 1577 L1901 1577 L1733 1218 L1541 1218 Z M1272 0 L1272 104 L1851 997 L1282 997 L1282 1096 L1981 1096 L1981 979 L1400 93 L1999 93 L1999 0 L1272 0 Z "/>
        <glyph glyph-name="uni01C7" unicode="&#x1c7;" horiz-adv-x="1510"
               d="M182 0 L182 1488 L311 1488 L311 113 L980 113 L974 0 L182 0 Z M999 -138 L978 -46 L1038 -43 Q1070 -43 1096 -38 Q1122 -33 1141 -26.5 Q1160 -20 1174.5 -6 Q1189 8 1198.5 19 Q1208 30 1215 51.5 Q1222 73 1225 87 Q1228 101 1230 128 Q1232 155 1232 170.5 Q1232 186 1232 216 L1232 1514 L1365 1514 L1365 303 Q1365 240 1364.5 209 Q1364 178 1361 128.5 Q1358 79 1351.5 56 Q1345 33 1333.5 -2 Q1322 -37 1304 -52.5 Q1286 -68 1259.5 -88.5 Q1233 -109 1198 -117.5 Q1163 -126 1116.5 -132 Q1070 -138 1011 -138 L999 -138 Z "/>
        <glyph glyph-name="uni01C8" unicode="&#x1c8;" horiz-adv-x="1406"
               d="M182 0 L182 1488 L311 1488 L311 113 L980 113 L974 0 L182 0 Z M940 -550 L921 -450 L970 -450 Q1040 -450 1079 -439.5 Q1118 -429 1135.5 -394.5 Q1153 -360 1156 -328.5 Q1159 -297 1159 -222 Q1159 -220 1159 -219 L1159 1096 L1284 1096 L1284 -247 Q1284 -341 1271.5 -397 Q1259 -453 1224.5 -488.5 Q1190 -524 1135.5 -537 Q1081 -550 989 -550 L940 -550 Z M1159 1321 L1159 1488 L1284 1488 L1284 1321 L1159 1321 Z "/>
        <glyph glyph-name="uni01C9" unicode="&#x1c9;" horiz-adv-x="936"
               d="M423 -23 Q285 -23 221 39.5 Q157 102 157 243 L157 1522 L279 1532 L279 250 Q279 150 315.5 112 Q352 74 426 74 Q486 74 576 97 L581 1 Q483 -23 423 -23 Z M470 -550 L451 -450 L500 -450 Q570 -450 609 -439.5 Q648 -429 665.5 -394.5 Q683 -360 686 -328.5 Q689 -297 689 -222 Q689 -220 689 -219 L689 1096 L814 1096 L814 -247 Q814 -341 801.5 -397 Q789 -453 754.5 -488.5 Q720 -524 665.5 -537 Q611 -550 519 -550 L470 -550 Z M689 1321 L689 1488 L814 1488 L814 1321 L689 1321 Z "/>
        <glyph glyph-name="uni01CA" unicode="&#x1ca;" horiz-adv-x="2011"
               d="M182 0 L182 1488 L331 1488 L1150 233 L1203 160 Q1196 468 1196 543 L1196 1488 L1317 1488 L1317 0 L1165 0 L348 1253 L297 1326 Q305 1101 305 938 L305 0 L182 0 Z M1500 -138 L1479 -46 L1539 -43 Q1571 -43 1597 -38 Q1623 -33 1642 -26.5 Q1661 -20 1675.5 -6 Q1690 8 1699.5 19 Q1709 30 1716 51.5 Q1723 73 1726 87 Q1729 101 1731 128 Q1733 155 1733 170.5 Q1733 186 1733 216 L1733 1514 L1866 1514 L1866 303 Q1866 240 1865.5 209 Q1865 178 1862 128.5 Q1859 79 1852.5 56 Q1846 33 1834.5 -2 Q1823 -37 1805 -52.5 Q1787 -68 1760.5 -88.5 Q1734 -109 1699 -117.5 Q1664 -126 1617.5 -132 Q1571 -138 1512 -138 L1500 -138 Z "/>
        <glyph glyph-name="uni01CB" unicode="&#x1cb;" horiz-adv-x="1907"
               d="M182 0 L182 1488 L331 1488 L1150 233 L1203 160 Q1196 468 1196 543 L1196 1488 L1317 1488 L1317 0 L1165 0 L348 1253 L297 1326 Q305 1101 305 938 L305 0 L182 0 Z M1441 -550 L1422 -450 L1471 -450 Q1541 -450 1580 -439.5 Q1619 -429 1636.5 -394.5 Q1654 -360 1657 -328.5 Q1660 -297 1660 -222 Q1660 -220 1660 -219 L1660 1096 L1785 1096 L1785 -247 Q1785 -341 1772.5 -397 Q1760 -453 1725.5 -488.5 Q1691 -524 1636.5 -537 Q1582 -550 1490 -550 L1441 -550 Z M1660 1321 L1660 1488 L1785 1488 L1785 1321 L1660 1321 Z "/>
        <glyph glyph-name="uni01CC" unicode="&#x1cc;" horiz-adv-x="1560"
               d="M147 0 L147 1096 L255 1096 L272 927 Q331 1015 430.5 1065.5 Q530 1116 645 1116 Q834 1116 923 1012 Q1012 908 1012 680 L1012 0 L887 0 L887 736 Q882 882 825 946 Q768 1010 638 1010 Q489 1010 394.5 935 Q300 860 276 741 Q272 694 272 643 L272 0 L147 0 Z M1094 -550 L1075 -450 L1124 -450 Q1194 -450 1233 -439.5 Q1272 -429 1289.5 -394.5 Q1307 -360 1310 -328.5 Q1313 -297 1313 -222 Q1313 -220 1313 -219 L1313 1096 L1438 1096 L1438 -247 Q1438 -341 1425.5 -397 Q1413 -453 1378.5 -488.5 Q1344 -524 1289.5 -537 Q1235 -550 1143 -550 L1094 -550 Z M1313 1321 L1313 1488 L1438 1488 L1438 1321 L1313 1321 Z "/>
        <glyph glyph-name="uni01F1" unicode="&#x1f1;" horiz-adv-x="2671"
               d="M310 107 L602 107 Q912 107 1074.5 265.5 Q1237 424 1237 738 Q1237 910 1191.5 1035 Q1146 1160 1058 1235.5 Q970 1311 850 1346.5 Q730 1382 573 1382 L310 1382 L310 107 Z M182 0 L182 1488 L585 1488 Q767 1488 910.5 1445 Q1054 1402 1160 1313.5 Q1266 1225 1323 1080.5 Q1380 936 1380 743 Q1380 378 1179 189 Q978 0 616 0 L182 0 Z M1595 0 L1595 111 L2421 1376 L1625 1376 L1625 1488 L2589 1488 L2589 1384 L1757 113 L2597 113 L2589 0 L1595 0 Z "/>
        <glyph glyph-name="uni01F2" unicode="&#x1f2;" horiz-adv-x="2380"
               d="M310 107 L602 107 Q912 107 1074.5 265.5 Q1237 424 1237 738 Q1237 910 1191.5 1035 Q1146 1160 1058 1235.5 Q970 1311 850 1346.5 Q730 1382 573 1382 L310 1382 L310 107 Z M182 0 L182 1488 L585 1488 Q767 1488 910.5 1445 Q1054 1402 1160 1313.5 Q1266 1225 1323 1080.5 Q1380 936 1380 743 Q1380 378 1179 189 Q978 0 616 0 L182 0 Z M1587 0 L1587 104 L2166 997 L1597 997 L1597 1096 L2296 1096 L2296 979 L1715 93 L2314 93 L2314 0 L1587 0 Z "/>
        <glyph glyph-name="uni01F3" unicode="&#x1f3;" horiz-adv-x="2065"
               d="M561 -23 Q342 -23 219.5 129 Q97 281 97 549 Q97 801 223.5 958.5 Q350 1116 557 1116 Q659 1116 761 1072 Q863 1028 916 935 L916 968 L916 1521 L1036 1532 L1036 0 L933 0 L915 165 Q858 72 760.5 24.5 Q663 -23 561 -23 Z M558 75 Q651 75 721 109 Q791 143 833 205 Q875 267 895.5 347.5 Q916 428 916 526 Q916 1015 556 1015 Q471 1015 406 974.5 Q341 934 303.5 865.5 Q266 797 248 716.5 Q230 636 230 547 Q230 470 241 402.5 Q252 335 277 274 Q302 213 339 169.5 Q376 126 432 100.5 Q488 75 558 75 Z M1272 0 L1272 104 L1851 997 L1282 997 L1282 1096 L1981 1096 L1981 979 L1400 93 L1999 93 L1999 0 L1272 0 Z "/>
        <glyph glyph-name="uni01F4" unicode="&#x1f4;" horiz-adv-x="1469"
               d="M686 1616 L880 2003 L1034 2003 L761 1616 L686 1616 Z M821 -23 Q685 -23 570.5 15.5 Q456 54 373 123 Q290 192 232.5 287.5 Q175 383 146.5 497.5 Q118 612 118 740 Q118 965 202 1138.5 Q286 1312 452.5 1413 Q619 1514 847 1514 Q1097 1514 1291 1399 L1234 1296 Q1152 1346 1048.5 1376.5 Q945 1407 848 1407 Q702 1407 587.5 1355 Q473 1303 402 1211.5 Q331 1120 294.5 1001 Q258 882 258 742 Q258 593 295 473 Q332 353 406 265.5 Q480 178 596 130.5 Q712 83 864 83 Q1021 83 1210 158 L1210 634 L841 634 L849 745 L1329 745 L1329 89 Q1207 26 1092.5 1.5 Q978 -23 821 -23 Z "/>
        <glyph glyph-name="uni01F5" unicode="&#x1f5;" horiz-adv-x="1173"
               d="M525 1218 L719 1605 L873 1605 L600 1218 L525 1218 Z M316 -509 L301 -398 L533 -398 Q610 -398 669 -384.5 Q728 -371 768.5 -349.5 Q809 -328 837.5 -289.5 Q866 -251 882 -213 Q898 -175 906.5 -114.5 Q915 -54 917 -3.5 Q919 47 919 124 Q919 113 917 129 Q912 198 912 198 Q849 103 763 51.5 Q677 0 553 0 Q455 0 374.5 35 Q294 70 242.5 126 Q191 182 156 254 Q121 326 106 397.5 Q91 469 91 539 Q91 627 105.5 706.5 Q120 786 156 862 Q192 938 246 993.5 Q300 1049 385 1082.5 Q470 1116 577 1116 Q682 1116 762.5 1074.5 Q843 1033 912 942 L924 1096 L1034 1096 L1034 80 Q1034 14 1032.5 -26.5 Q1031 -67 1020.5 -136.5 Q1010 -206 991.5 -250.5 Q973 -295 935 -349 Q897 -403 843.5 -434 Q790 -465 706.5 -487 Q623 -509 517 -509 L316 -509 Z M569 101 Q642 101 701 124.5 Q760 148 798.5 186.5 Q837 225 863.5 277 Q890 329 901 384.5 Q912 440 912 499 L912 613 Q912 691 893 760 Q874 829 834.5 887.5 Q795 946 726 980 Q657 1014 566 1014 Q492 1014 432.5 985.5 Q373 957 335 910 Q297 863 271 800 Q245 737 234.5 671.5 Q224 606 224 537 Q224 476 233.5 418.5 Q243 361 267.5 302 Q292 243 330 199.5 Q368 156 429.5 128.5 Q491 101 569 101 Z "/>
        <glyph glyph-name="uni0200" unicode="&#x200;" horiz-adv-x="1276"
               d="M495 1616 L274 1949 L367 1949 L565 1616 L495 1616 Z M719 1616 L495 1949 L597 1949 L781 1616 L719 1616 Z M6 0 L587 1488 L710 1488 L1270 0 L1138 0 L948 505 L331 505 L133 0 L6 0 Z M380 599 L902 599 Q677 1245 647 1359 Q635 1315 568 1125 Q501 935 440 767 L380 599 Z "/>
        <glyph glyph-name="uni0201" unicode="&#x201;" horiz-adv-x="1077"
               d="M369 1218 L148 1551 L241 1551 L439 1218 L369 1218 Z M593 1218 L369 1551 L471 1551 L655 1218 L593 1218 Z M440 -24 Q285 -24 192 54 Q99 132 99 277 Q99 363 136 426.5 Q173 490 243.5 529.5 Q314 569 404.5 591 Q495 613 615 622 Q743 630 805 635 L805 757 Q805 883 747.5 946.5 Q690 1010 563 1010 Q389 1010 238 927 Q234 937 219.5 970.5 Q205 1004 199 1022 Q261 1062 361 1089 Q461 1116 557 1116 Q754 1116 840 1031.5 Q926 947 926 732 L926 0 L829 0 Q824 23 814.5 91 Q805 159 805 161 Q676 -24 440 -24 Z M444 75 Q572 75 671.5 150.5 Q771 226 802 360 L802 547 Q658 535 657 535 Q413 513 318 455 Q223 397 223 275 Q223 175 283.5 125 Q344 75 444 75 Z "/>
        <glyph glyph-name="uni0202" unicode="&#x202;" horiz-adv-x="1276"
               d="M405 1616 Q405 1690 439.5 1744 Q474 1798 525 1823 Q576 1848 636 1848 Q697 1848 749 1823 Q801 1798 835.5 1744 Q870 1690 870 1616 L776 1616 Q776 1684 734.5 1722.5 Q693 1761 636.5 1761 Q580 1761 538.5 1722.5 Q497 1684 497 1616 L405 1616 Z M6 0 L587 1488 L710 1488 L1270 0 L1138 0 L948 505 L331 505 L133 0 L6 0 Z M380 599 L902 599 Q677 1245 647 1359 Q635 1315 568 1125 Q501 935 440 767 L380 599 Z "/>
        <glyph glyph-name="uni0203" unicode="&#x203;" horiz-adv-x="1077"
               d="M280 1218 Q280 1292 314.5 1346 Q349 1400 400 1425 Q451 1450 511 1450 Q572 1450 624 1425 Q676 1400 710.5 1346 Q745 1292 745 1218 L651 1218 Q651 1286 609.5 1324.5 Q568 1363 511.5 1363 Q455 1363 413.5 1324.5 Q372 1286 372 1218 L280 1218 Z M440 -24 Q285 -24 192 54 Q99 132 99 277 Q99 363 136 426.5 Q173 490 243.5 529.5 Q314 569 404.5 591 Q495 613 615 622 Q743 630 805 635 L805 757 Q805 883 747.5 946.5 Q690 1010 563 1010 Q389 1010 238 927 Q234 937 219.5 970.5 Q205 1004 199 1022 Q261 1062 361 1089 Q461 1116 557 1116 Q754 1116 840 1031.5 Q926 947 926 732 L926 0 L829 0 Q824 23 814.5 91 Q805 159 805 161 Q676 -24 440 -24 Z M444 75 Q572 75 671.5 150.5 Q771 226 802 360 L802 547 Q658 535 657 535 Q413 513 318 455 Q223 397 223 275 Q223 175 283.5 125 Q344 75 444 75 Z "/>
        <glyph glyph-name="uni0204" unicode="&#x204;" horiz-adv-x="1142"
               d="M462 1616 L241 1949 L334 1949 L532 1616 L462 1616 Z M686 1616 L462 1949 L564 1949 L748 1616 L686 1616 Z M182 0 L182 1488 L1011 1488 L1006 1382 L310 1382 L310 822 L972 822 L972 713 L310 713 L310 107 L1028 107 L1017 0 L182 0 Z "/>
        <glyph glyph-name="uni0205" unicode="&#x205;" horiz-adv-x="1093"
               d="M401 1218 L180 1551 L273 1551 L471 1218 L401 1218 Z M625 1218 L401 1551 L503 1551 L687 1218 L625 1218 Z M591 -24 Q364 -24 230.5 128 Q97 280 97 540 Q97 791 227.5 951 Q358 1111 565 1116 Q758 1116 875 978 Q992 840 992 608 Q992 599 991.5 571.5 Q991 544 991 533 L228 533 Q230 322 330 198.5 Q430 75 594 75 Q701 75 780 100 Q859 125 945 171 L966 78 Q800 -24 591 -24 Z M233 633 L857 633 Q857 816 778 913.5 Q699 1011 561 1011 Q421 1011 335 907 Q249 803 233 633 Z "/>
        <glyph glyph-name="uni0206" unicode="&#x206;" horiz-adv-x="1142"
               d="M373 1616 Q373 1690 407.5 1744 Q442 1798 493 1823 Q544 1848 604 1848 Q665 1848 717 1823 Q769 1798 803.5 1744 Q838 1690 838 1616 L744 1616 Q744 1684 702.5 1722.5 Q661 1761 604.5 1761 Q548 1761 506.5 1722.5 Q465 1684 465 1616 L373 1616 Z M182 0 L182 1488 L1011 1488 L1006 1382 L310 1382 L310 822 L972 822 L972 713 L310 713 L310 107 L1028 107 L1017 0 L182 0 Z "/>
        <glyph glyph-name="uni0207" unicode="&#x207;" horiz-adv-x="1093"
               d="M312 1218 Q312 1292 346.5 1346 Q381 1400 432 1425 Q483 1450 543 1450 Q604 1450 656 1425 Q708 1400 742.5 1346 Q777 1292 777 1218 L683 1218 Q683 1286 641.5 1324.5 Q600 1363 543.5 1363 Q487 1363 445.5 1324.5 Q404 1286 404 1218 L312 1218 Z M591 -24 Q364 -24 230.5 128 Q97 280 97 540 Q97 791 227.5 951 Q358 1111 565 1116 Q758 1116 875 978 Q992 840 992 608 Q992 599 991.5 571.5 Q991 544 991 533 L228 533 Q230 322 330 198.5 Q430 75 594 75 Q701 75 780 100 Q859 125 945 171 L966 78 Q800 -24 591 -24 Z M233 633 L857 633 Q857 816 778 913.5 Q699 1011 561 1011 Q421 1011 335 907 Q249 803 233 633 Z "/>
        <glyph glyph-name="uni0208" unicode="&#x208;" horiz-adv-x="514"
               d="M114 1616 L-107 1949 L-14 1949 L184 1616 L114 1616 Z M338 1616 L114 1949 L216 1949 L400 1616 L338 1616 Z M193 0 L193 1488 L321 1488 L321 0 L193 0 Z "/>
        <glyph glyph-name="uni0209" unicode="&#x209;" horiz-adv-x="376"
               d="M57 1218 L-164 1551 L-71 1551 L127 1218 L57 1218 Z M281 1218 L57 1551 L159 1551 L343 1218 L281 1218 Z M138 0 L138 1096 L263 1096 L263 0 L138 0 Z "/>
        <glyph glyph-name="uni020A" unicode="&#x20a;" horiz-adv-x="514"
               d="M25 1616 Q25 1690 59.5 1744 Q94 1798 145 1823 Q196 1848 256 1848 Q317 1848 369 1823 Q421 1798 455.5 1744 Q490 1690 490 1616 L396 1616 Q396 1684 354.5 1722.5 Q313 1761 256.5 1761 Q200 1761 158.5 1722.5 Q117 1684 117 1616 L25 1616 Z M193 0 L193 1488 L321 1488 L321 0 L193 0 Z "/>
        <glyph glyph-name="uni020B" unicode="&#x20b;" horiz-adv-x="376"
               d="M-32 1218 Q-32 1292 2.5 1346 Q37 1400 88 1425 Q139 1450 199 1450 Q260 1450 312 1425 Q364 1400 398.5 1346 Q433 1292 433 1218 L339 1218 Q339 1286 297.5 1324.5 Q256 1363 199.5 1363 Q143 1363 101.5 1324.5 Q60 1286 60 1218 L-32 1218 Z M138 0 L138 1096 L263 1096 L263 0 L138 0 Z "/>
        <glyph glyph-name="uni020C" unicode="&#x20c;" horiz-adv-x="1627"
               d="M671 1616 L450 1949 L543 1949 L741 1616 L671 1616 Z M895 1616 L671 1949 L773 1949 L957 1616 L895 1616 Z M815 82 Q999 82 1124.5 166 Q1250 250 1308.5 396.5 Q1367 543 1367 745 Q1367 1061 1227 1234 Q1087 1407 816 1407 Q543 1407 400.5 1234.5 Q258 1062 258 745 Q258 438 399.5 260 Q541 82 815 82 Z M815 -23 Q645 -23 511.5 33.5 Q378 90 292.5 192.5 Q207 295 162.5 435 Q118 575 118 744 Q118 1098 300.5 1306 Q483 1514 816 1514 Q1143 1514 1326 1304.5 Q1509 1095 1509 743 Q1509 578 1464 438.5 Q1419 299 1333.5 196 Q1248 93 1115 35 Q982 -23 815 -23 Z "/>
        <glyph glyph-name="uni020D" unicode="&#x20d;" horiz-adv-x="1190"
               d="M452 1218 L231 1551 L324 1551 L522 1218 L452 1218 Z M676 1218 L452 1551 L554 1551 L738 1218 L676 1218 Z M601 75 Q721 75 803.5 138.5 Q886 202 923.5 306 Q961 410 961 545 Q961 757 871 886 Q781 1015 597 1015 Q477 1015 392.5 950.5 Q308 886 269 781.5 Q230 677 230 542 Q230 337 325.5 206 Q421 75 601 75 Z M592 -24 Q443 -24 329.5 51 Q216 126 156.5 254.5 Q97 383 97 545 Q97 667 131.5 771.5 Q166 876 230 952.5 Q294 1029 389 1072.5 Q484 1116 600 1116 Q754 1116 867 1040.5 Q980 965 1036.5 837.5 Q1093 710 1093 547 Q1093 383 1035 255 Q977 127 862 51.5 Q747 -24 592 -24 Z "/>
        <glyph glyph-name="uni020E" unicode="&#x20e;" horiz-adv-x="1627"
               d="M581 1616 Q581 1690 615.5 1744 Q650 1798 701 1823 Q752 1848 812 1848 Q873 1848 925 1823 Q977 1798 1011.5 1744 Q1046 1690 1046 1616 L952 1616 Q952 1684 910.5 1722.5 Q869 1761 812.5 1761 Q756 1761 714.5 1722.5 Q673 1684 673 1616 L581 1616 Z M815 82 Q999 82 1124.5 166 Q1250 250 1308.5 396.5 Q1367 543 1367 745 Q1367 1061 1227 1234 Q1087 1407 816 1407 Q543 1407 400.5 1234.5 Q258 1062 258 745 Q258 438 399.5 260 Q541 82 815 82 Z M815 -23 Q645 -23 511.5 33.5 Q378 90 292.5 192.5 Q207 295 162.5 435 Q118 575 118 744 Q118 1098 300.5 1306 Q483 1514 816 1514 Q1143 1514 1326 1304.5 Q1509 1095 1509 743 Q1509 578 1464 438.5 Q1419 299 1333.5 196 Q1248 93 1115 35 Q982 -23 815 -23 Z "/>
        <glyph glyph-name="uni020F" unicode="&#x20f;" horiz-adv-x="1190"
               d="M363 1218 Q363 1292 397.5 1346 Q432 1400 483 1425 Q534 1450 594 1450 Q655 1450 707 1425 Q759 1400 793.5 1346 Q828 1292 828 1218 L734 1218 Q734 1286 692.5 1324.5 Q651 1363 594.5 1363 Q538 1363 496.5 1324.5 Q455 1286 455 1218 L363 1218 Z M601 75 Q721 75 803.5 138.5 Q886 202 923.5 306 Q961 410 961 545 Q961 757 871 886 Q781 1015 597 1015 Q477 1015 392.5 950.5 Q308 886 269 781.5 Q230 677 230 542 Q230 337 325.5 206 Q421 75 601 75 Z M592 -24 Q443 -24 329.5 51 Q216 126 156.5 254.5 Q97 383 97 545 Q97 667 131.5 771.5 Q166 876 230 952.5 Q294 1029 389 1072.5 Q484 1116 600 1116 Q754 1116 867 1040.5 Q980 965 1036.5 837.5 Q1093 710 1093 547 Q1093 383 1035 255 Q977 127 862 51.5 Q747 -24 592 -24 Z "/>
        <glyph glyph-name="uni0210" unicode="&#x210;" horiz-adv-x="1333"
               d="M565 1616 L344 1949 L437 1949 L635 1616 L565 1616 Z M789 1616 L565 1949 L667 1949 L851 1616 L789 1616 Z M182 0 L182 1488 L606 1488 Q687 1488 746.5 1485 Q806 1482 868 1472 Q930 1462 973.5 1445.5 Q1017 1429 1056.5 1401 Q1096 1373 1120 1333.5 Q1144 1294 1157.5 1239 Q1171 1184 1171 1114 Q1171 977 1104 879 Q1037 781 899 746 Q959 623 989 559 L1233 0 L1084 0 L874 509 Q853 559 780 725 Q760 722 632 722 L310 728 L310 0 L182 0 Z M687 828 Q886 828 965 897.5 Q1044 967 1044 1112 Q1044 1242 972.5 1311.5 Q901 1381 729 1381 L310 1381 L310 831 Q545 828 687 828 Z "/>
        <glyph glyph-name="uni0211" unicode="&#x211;" horiz-adv-x="715"
               d="M273 1218 L52 1551 L145 1551 L343 1218 L273 1218 Z M497 1218 L273 1551 L375 1551 L559 1218 L497 1218 Z M149 0 Q147 965 147 1096 L249 1096 L257 880 Q316 978 407 1040 Q498 1102 597 1102 Q638 1102 685 1095 L676 992 Q640 998 600 998 Q461 998 366.5 888.5 Q272 779 272 629 L272 0 L149 0 Z "/>
        <glyph glyph-name="uni0212" unicode="&#x212;" horiz-adv-x="1333"
               d="M475 1616 Q475 1690 509.5 1744 Q544 1798 595 1823 Q646 1848 706 1848 Q767 1848 819 1823 Q871 1798 905.5 1744 Q940 1690 940 1616 L846 1616 Q846 1684 804.5 1722.5 Q763 1761 706.5 1761 Q650 1761 608.5 1722.5 Q567 1684 567 1616 L475 1616 Z M182 0 L182 1488 L606 1488 Q687 1488 746.5 1485 Q806 1482 868 1472 Q930 1462 973.5 1445.5 Q1017 1429 1056.5 1401 Q1096 1373 1120 1333.5 Q1144 1294 1157.5 1239 Q1171 1184 1171 1114 Q1171 977 1104 879 Q1037 781 899 746 Q959 623 989 559 L1233 0 L1084 0 L874 509 Q853 559 780 725 Q760 722 632 722 L310 728 L310 0 L182 0 Z M687 828 Q886 828 965 897.5 Q1044 967 1044 1112 Q1044 1242 972.5 1311.5 Q901 1381 729 1381 L310 1381 L310 831 Q545 828 687 828 Z "/>
        <glyph glyph-name="uni0213" unicode="&#x213;" horiz-adv-x="715"
               d="M183 1218 Q183 1292 217.5 1346 Q252 1400 303 1425 Q354 1450 414 1450 Q475 1450 527 1425 Q579 1400 613.5 1346 Q648 1292 648 1218 L554 1218 Q554 1286 512.5 1324.5 Q471 1363 414.5 1363 Q358 1363 316.5 1324.5 Q275 1286 275 1218 L183 1218 Z M149 0 Q147 965 147 1096 L249 1096 L257 880 Q316 978 407 1040 Q498 1102 597 1102 Q638 1102 685 1095 L676 992 Q640 998 600 998 Q461 998 366.5 888.5 Q272 779 272 629 L272 0 L149 0 Z "/>
        <glyph glyph-name="uni0214" unicode="&#x214;" horiz-adv-x="1408"
               d="M561 1616 L340 1949 L433 1949 L631 1616 L561 1616 Z M785 1616 L561 1949 L663 1949 L847 1616 L785 1616 Z M699 -23 Q555 -23 449 16 Q343 55 280 128 Q217 201 187 297.5 Q157 394 157 517 L157 1488 L285 1488 L285 497 Q285 284 390 181.5 Q495 79 707 79 Q1123 79 1123 498 L1123 1488 L1251 1488 L1251 515 Q1251 417 1231.5 336 Q1212 255 1170 188 Q1128 121 1064 74.5 Q1000 28 907.5 2.5 Q815 -23 699 -23 Z "/>
        <glyph glyph-name="uni0215" unicode="&#x215;" horiz-adv-x="1106"
               d="M405 1218 L184 1551 L277 1551 L475 1218 L405 1218 Z M629 1218 L405 1551 L507 1551 L691 1218 L629 1218 Z M555 -27 Q469 -27 395.5 -7.5 Q322 12 259 53.5 Q196 95 159.5 171 Q123 247 123 350 L123 1096 L247 1096 L247 347 Q247 269 271 215 Q295 161 340 133.5 Q385 106 436 95 Q487 84 555 84 Q622 84 673 95.5 Q724 107 768 135 Q812 163 835.5 216.5 Q859 270 859 347 L859 1096 L983 1096 L983 350 Q983 266 959 200 Q935 134 895 92 Q855 50 798.5 22.5 Q742 -5 682.5 -16 Q623 -27 555 -27 Z "/>
        <glyph glyph-name="uni0216" unicode="&#x216;" horiz-adv-x="1408"
               d="M471 1616 Q471 1690 505.5 1744 Q540 1798 591 1823 Q642 1848 702 1848 Q763 1848 815 1823 Q867 1798 901.5 1744 Q936 1690 936 1616 L842 1616 Q842 1684 800.5 1722.5 Q759 1761 702.5 1761 Q646 1761 604.5 1722.5 Q563 1684 563 1616 L471 1616 Z M699 -23 Q555 -23 449 16 Q343 55 280 128 Q217 201 187 297.5 Q157 394 157 517 L157 1488 L285 1488 L285 497 Q285 284 390 181.5 Q495 79 707 79 Q1123 79 1123 498 L1123 1488 L1251 1488 L1251 515 Q1251 417 1231.5 336 Q1212 255 1170 188 Q1128 121 1064 74.5 Q1000 28 907.5 2.5 Q815 -23 699 -23 Z "/>
        <glyph glyph-name="uni0217" unicode="&#x217;" horiz-adv-x="1106"
               d="M315 1218 Q315 1292 349.5 1346 Q384 1400 435 1425 Q486 1450 546 1450 Q607 1450 659 1425 Q711 1400 745.5 1346 Q780 1292 780 1218 L686 1218 Q686 1286 644.5 1324.5 Q603 1363 546.5 1363 Q490 1363 448.5 1324.5 Q407 1286 407 1218 L315 1218 Z M555 -27 Q469 -27 395.5 -7.5 Q322 12 259 53.5 Q196 95 159.5 171 Q123 247 123 350 L123 1096 L247 1096 L247 347 Q247 269 271 215 Q295 161 340 133.5 Q385 106 436 95 Q487 84 555 84 Q622 84 673 95.5 Q724 107 768 135 Q812 163 835.5 216.5 Q859 270 859 347 L859 1096 L983 1096 L983 350 Q983 266 959 200 Q935 134 895 92 Q855 50 798.5 22.5 Q742 -5 682.5 -16 Q623 -27 555 -27 Z "/>
        <glyph glyph-name="uni0218" unicode="&#x218;" horiz-adv-x="1247"
               d="M508 -628 L585 -628 L748 -125 L607 -125 L508 -628 Z M658 -23 Q469 -23 324 17 Q179 57 99 105 L147 196 Q358 82 669 82 Q840 82 932.5 171 Q1025 260 1025 422 Q1025 482 1014 523 Q1003 564 973 601.5 Q943 639 885.5 664.5 Q828 690 739 708 L499 756 Q298 796 197.5 882 Q97 968 97 1127 Q97 1230 137 1305.5 Q177 1381 252.5 1426 Q328 1471 427.5 1492.5 Q527 1514 654 1514 Q780 1514 900.5 1483 Q1021 1452 1098 1413 L1065 1315 Q1006 1348 890.5 1377.5 Q775 1407 651 1407 Q440 1407 334 1336.5 Q228 1266 228 1114 Q228 1019 295 961.5 Q362 904 493 876 L761 821 Q861 800 930.5 771 Q1000 742 1053.5 696 Q1107 650 1133 581.5 Q1159 513 1159 419 Q1159 209 1021.5 93 Q884 -23 658 -23 Z "/>
        <glyph glyph-name="uni0219" unicode="&#x219;" horiz-adv-x="944"
               d="M360 -630 L437 -630 L600 -127 L459 -127 L360 -630 Z M467 -25 Q361 -25 268 1 Q175 27 121 63 L139 167 Q304 81 455 81 Q726 81 736 282 Q736 366 681.5 414 Q627 462 463 514 Q377 544 368 547 Q111 625 109 824 Q109 939 210.5 1027.5 Q312 1116 485 1116 Q658 1116 810 1048 L768 956 Q614 1014 482 1014 Q366 1014 299.5 962 Q233 910 233 822 Q233 748 276.5 708.5 Q320 669 449 633 Q463 629 500.5 615 Q538 601 542 600 Q715 547 783.5 474.5 Q852 402 852 277 Q849 133 744.5 54 Q640 -25 467 -25 Z "/>
        <glyph glyph-name="uni021A" unicode="&#x21a;" horiz-adv-x="1082"
               d="M421 -605 L498 -605 L661 -102 L520 -102 L421 -605 Z M476 0 L476 1378 L8 1378 L8 1488 L1074 1488 L1074 1378 L606 1378 L606 0 L476 0 Z "/>
        <glyph glyph-name="uni021B" unicode="&#x21b;" horiz-adv-x="676"
               d="M219 -628 L296 -628 L459 -125 L318 -125 L219 -628 Z M456 -23 Q318 -23 254 39.5 Q190 102 190 243 L190 1005 L35 1005 L44 1080 L192 1094 L225 1345 L312 1351 L312 1096 L632 1096 L632 1005 L312 1005 L312 269 Q312 153 350 113.5 Q388 74 484 74 Q546 74 638 97 L643 1 Q522 -23 456 -23 Z "/>
        <glyph glyph-name="uni0237" unicode="&#x237;" horiz-adv-x="406"
               d="M-63 -594 L-92 -473 L-33 -473 Q-1 -473 23.5 -470 Q48 -467 67.5 -462.5 Q87 -458 101 -447.5 Q115 -437 124.5 -429 Q134 -421 140.5 -402 Q147 -383 150 -371 Q153 -359 154.5 -332 Q156 -305 156.5 -288.5 Q157 -272 157 -237 L157 1104 L294 1104 L294 -296 Q294 -389 282 -443.5 Q270 -498 235.5 -533.5 Q201 -569 145.5 -581.5 Q90 -594 -5 -594 L-63 -594 Z "/>
        <glyph glyph-name="circumflex" unicode="&#x2c6;" horiz-adv-x="812"
               d="M136 1310 L304 1669 L496 1669 L667 1310 L576 1310 L401 1605 L225 1310 L136 1310 Z "/>
        <glyph glyph-name="caron" unicode="&#x2c7;" horiz-adv-x="812"
               d="M307 1310 L136 1669 L227 1669 L402 1374 L578 1669 L667 1669 L499 1310 L307 1310 Z "/>
        <glyph glyph-name="breve" unicode="&#x2d8;" horiz-adv-x="774"
               d="M389 1356 Q292 1356 225.5 1422.5 Q159 1489 159 1608 L251 1608 Q251 1521 286.5 1477.5 Q322 1434 389 1434 Q455 1434 492.5 1478 Q530 1522 530 1608 L624 1608 Q624 1490 556 1423 Q488 1356 389 1356 Z "/>
        <glyph glyph-name="dotaccent" unicode="&#x2d9;" horiz-adv-x="352"
               d="M106 1331 L106 1516 L259 1516 L259 1331 L106 1331 Z "/>
        <glyph glyph-name="ring" unicode="&#x2da;" horiz-adv-x="621"
               d="M248 1416 Q276 1388 314 1388 Q352 1388 379.5 1416 Q407 1444 407 1495 Q406 1545 378.5 1573.5 Q351 1602 313 1602 Q275 1602 247.5 1573.5 Q220 1545 220 1494 Q220 1444 248 1416 Z M315 1317 Q240 1317 184.5 1364.5 Q129 1412 129 1495 Q129 1579 183 1626 Q237 1673 312 1673 Q386 1673 440.5 1625.5 Q495 1578 495 1495 Q495 1410 441.5 1363.5 Q388 1317 315 1317 Z "/>
        <glyph glyph-name="ogonek" unicode="&#x2db;" horiz-adv-x="596"
               d="M307 -437 Q225 -437 172.5 -388.5 Q120 -340 120 -258 Q120 -131 311 -14 L428 -14 Q324 -93 273 -145.5 Q222 -198 222 -246 Q222 -288 251.5 -312.5 Q281 -337 313 -337 Q344 -337 356.5 -336 Q369 -335 391.5 -328.5 Q414 -322 447 -307 L447 -408 Q373 -437 307 -437 Z "/>
        <glyph glyph-name="tilde" unicode="&#x2dc;" horiz-adv-x="930"
               d="M150 1336 Q153 1443 194.5 1482.5 Q236 1522 309 1522 Q355 1522 452 1474 Q549 1426 573 1426 Q589 1426 600 1435 Q611 1444 617 1462 Q623 1480 625 1491 Q627 1502 629 1522 L720 1522 Q716 1421 680.5 1378.5 Q645 1336 579 1336 Q535 1336 429.5 1387.5 Q324 1439 301 1439 Q248 1439 240 1336 L150 1336 Z "/>
        <glyph glyph-name="hungarumlaut" unicode="&#x2dd;" horiz-adv-x="741"
               d="M118 1328 L294 1646 L414 1646 L201 1328 L118 1328 Z M315 1328 L497 1646 L612 1646 L403 1328 L315 1328 Z "/>
        <glyph glyph-name="uni0307" unicode="&#x307;" horiz-adv-x="364"
               d="M115 1357 L115 1525 L282 1525 L282 1357 L115 1357 Z "/>
        <glyph glyph-name="uni030F" unicode="&#x30f;" horiz-adv-x="797"
               d="M379 1300 L158 1633 L251 1633 L449 1300 L379 1300 Z M603 1300 L379 1633 L481 1633 L665 1300 L603 1300 Z "/>
        <glyph glyph-name="uni0311" unicode="&#x311;" horiz-adv-x="792"
               d="M167 1345 Q167 1419 201.5 1473 Q236 1527 287 1552 Q338 1577 398 1577 Q459 1577 511 1552 Q563 1527 597.5 1473 Q632 1419 632 1345 L538 1345 Q538 1413 496.5 1451.5 Q455 1490 398.5 1490 Q342 1490 300.5 1451.5 Q259 1413 259 1345 L167 1345 Z "/>
        <glyph glyph-name="uni0326" unicode="&#x326;" horiz-adv-x="552"
               d="M170 -671 L257 -185 L396 -185 L264 -671 L170 -671 Z "/>
        <glyph glyph-name="quoteleft" unicode="&#x2018;" horiz-adv-x="541"
               d="M104 1161 L344 1619 L420 1619 L258 1161 L104 1161 Z "/>
        <glyph glyph-name="quoteright" unicode="&#x2019;" horiz-adv-x="532"
               d="M166 1161 L252 1619 L382 1619 L259 1161 L166 1161 Z "/>
        <glyph glyph-name="quotesinglbase" unicode="&#x201a;" horiz-adv-x="480"
               d="M130 -240 L215 218 L349 218 L227 -240 L130 -240 Z "/>
        <glyph glyph-name="quotedblleft" unicode="&#x201c;" horiz-adv-x="854"
               d="M104 1161 L341 1619 L420 1619 L259 1161 L104 1161 Z M419 1161 L653 1619 L732 1619 L573 1161 L419 1161 Z "/>
        <glyph glyph-name="quotedblright" unicode="&#x201d;" horiz-adv-x="723"
               d="M113 1161 L200 1619 L335 1619 L206 1161 L113 1161 Z M394 1161 L481 1619 L619 1619 L492 1161 L394 1161 Z "/>
        <glyph glyph-name="quotedblbase" unicode="&#x201e;" horiz-adv-x="734"
               d="M111 -240 L192 218 L321 218 L204 -240 L111 -240 Z M409 -240 L487 218 L621 218 L498 -240 L409 -240 Z "/>
        <glyph glyph-name="dagger" unicode="&#x2020;" horiz-adv-x="829"
               d="M362 125 L362 1098 L73 1098 L73 1155 L362 1155 L362 1611 L461 1611 L461 1155 L756 1155 L756 1098 L466 1098 L466 125 L362 125 Z "/>
        <glyph glyph-name="daggerdbl" unicode="&#x2021;" horiz-adv-x="929"
               d="M418 218 L418 534 L98 534 L98 654 L418 654 L418 1125 L104 1125 L104 1249 L418 1249 L418 1615 L516 1615 L516 1249 L837 1249 L837 1125 L516 1125 L516 654 L828 654 L828 534 L516 534 L516 218 L418 218 Z "/>
        <glyph glyph-name="bullet" unicode="&#x2022;" horiz-adv-x="808"
               d="M403 535 Q340 535 289 556 Q238 577 207 612 Q176 647 160 690.5 Q144 734 144 782 Q144 831 161 876 Q178 921 209.5 958 Q241 995 291 1017 Q341 1039 403 1039 Q466 1039 516.5 1017.5 Q567 996 598 960 Q629 924 645.5 880 Q662 836 662 787.5 Q662 739 645.5 694.5 Q629 650 598 614 Q567 578 516 556.5 Q465 535 403 535 Z "/>
        <glyph glyph-name="guilsinglleft" unicode="&#x2039;" horiz-adv-x="636"
               d="M372 187 L150 593 L377 993 L488 993 L270 593 L483 187 L372 187 Z "/>
        <glyph glyph-name="guilsinglright" unicode="&#x203a;" horiz-adv-x="632"
               d="M155 187 L373 595 L161 993 L272 993 L493 595 L267 187 L155 187 Z "/>
        <glyph glyph-name="fraction" unicode="&#x2044;" horiz-adv-x="1115"
               d="M69 0 L934 1597 L1033 1597 L169 0 L69 0 Z "/>
        <glyph glyph-name="uni2074" unicode="&#x2074;" horiz-adv-x="705"
               d="M455 684 L455 908 L134 908 L134 992 Q149 1019 285 1276 L444 1573 Q443 1572 441 1567 L541 1567 L541 994 L631 994 L639 908 L539 908 L539 684 L455 684 Z M218 994 L454 994 Q454 1391 456 1433 L218 994 Z "/>
        <glyph glyph-name="trademark" unicode="&#x2122;" horiz-adv-x="1808"
               d="M871 571 L871 1513 L1001 1513 L1292 758 L1597 1513 L1723 1513 L1723 571 L1630 571 L1630 1438 L1324 677 L1246 677 L958 1442 L958 571 L871 571 Z M361 571 L361 1441 L99 1441 L99 1513 L724 1513 L724 1441 L451 1441 L451 571 L361 571 Z "/>
        <glyph glyph-name="minus" unicode="&#x2212;" horiz-adv-x="1212"
               d="M123 578 L123 701 L1098 701 L1098 578 L123 578 Z "/>
        <glyph glyph-name="approxequal" unicode="&#x2248;" horiz-adv-x="1315"
               d="M140 367 Q159 521 234 603.5 Q309 686 429 686 Q473 686 522 669 Q571 652 601.5 635 Q632 618 684 585 Q695 578 727.5 556.5 Q760 535 775 526.5 Q790 518 814.5 505 Q839 492 858 486.5 Q877 481 894 481 Q1021 481 1056 684 L1161 711 Q1141 548 1083.5 471 Q1026 394 897 394 Q788 394 616 510 Q498 594 431 594 Q356 594 312.5 545 Q269 496 246 398 L140 367 Z M137 758 Q155 910 231.5 993 Q308 1076 428 1076 Q489 1076 546 1049.5 Q603 1023 687 966 Q762 914 807 892.5 Q852 871 892 871 Q1019 871 1052 1073 L1158 1103 Q1139 942 1079.5 865 Q1020 788 893 788 Q778 788 613 904 Q496 987 427 987 Q352 987 308.5 939.5 Q265 892 246 796 L137 758 Z "/>
        <glyph glyph-name="notequal" unicode="&#x2260;" horiz-adv-x="1135"
               d="M337 50 L247 68 L364 378 L106 378 L100 479 L420 479 L586 823 L106 823 L98 930 L636 930 L779 1243 L871 1231 L755 931 L1032 931 L1039 823 L706 823 L535 479 L1034 479 L1039 378 L484 378 L337 50 Z "/>
        <glyph glyph-name="lessequal" unicode="&#x2264;" horiz-adv-x="1164"
               d="M1022 237 L124 736 L124 809 L1022 1338 L1022 1214 L239 780 L1022 362 L1022 237 Z M84 12 L84 131 L1056 130 L1056 12 L84 12 Z "/>
        <glyph glyph-name="greaterequal" unicode="&#x2265;" horiz-adv-x="1164"
               d="M144 240 L144 365 L935 774 L149 1217 L149 1341 L1051 809 L1051 741 L144 240 Z M109 12 L109 130 L1073 131 L1073 12 L109 12 Z "/>
        <glyph glyph-name="lozenge" unicode="&#x25ca;" horiz-adv-x="1103"
               d="M496 -49 L82 791 L503 1635 L605 1635 L1019 794 L596 -49 L496 -49 Z M544 77 Q642 263 916 791 Q902 819 764.5 1089 Q627 1359 557 1502 Q482 1365 343 1097.5 Q204 830 184 793 Q224 714 348.5 462.5 Q473 211 544 77 Z "/>
        <glyph glyph-name="fi" unicode="&#xfb01;" horiz-adv-x="1044"
               d="M180 0 L180 1005 L24 1005 L24 1098 L180 1098 Q180 1123 181 1143 Q183 1229 193 1292 Q203 1355 223.5 1397.5 Q244 1440 269.5 1466.5 Q295 1493 335.5 1507 Q376 1521 418 1526 Q460 1531 521 1531 L597 1531 L616 1444 L511 1444 Q475 1444 448.5 1440.5 Q422 1437 401 1427.5 Q380 1418 365.5 1406 Q351 1394 340.5 1372.5 Q330 1351 324 1329 Q318 1307 314.5 1271 Q311 1235 310 1201 Q309 1167 309 1115 L309 1107 L308 1098 L907 1098 L907 0 L778 0 L778 1005 L308 1005 L308 0 L180 0 Z M778 1324 L778 1505 L907 1505 L907 1324 L778 1324 Z "/>
        <glyph glyph-name="fl" unicode="&#xfb02;" horiz-adv-x="1165"
               d="M1029 -12 Q981 -12 945.5 -8 Q910 -4 882.5 12.5 Q855 29 837.5 42 Q820 55 807.5 93.5 Q795 132 788.5 158.5 Q782 185 779 251 Q776 317 775.5 361.5 Q775 406 775 502 L775 1402 Q507 1420 514 1404 Q408 1404 361.5 1341.5 Q315 1279 309 1115 L309 1107 L308 1098 L563 1098 L563 1005 L308 1005 L308 0 L180 0 L180 1005 L24 1005 L24 1098 L180 1098 L180 1117 Q184 1233 210 1310 Q236 1387 284 1426 Q332 1465 388 1479.5 Q444 1494 523 1494 Q483 1494 483 1499 Q484 1513 904 1486 L904 467 Q904 460 904 447 Q904 364 904.5 328 Q905 292 909.5 240.5 Q914 189 923 170 Q932 151 949 128.5 Q966 106 992 99.5 Q1018 93 1057 93 Q1087 93 1134 97 L1145 1 Q1126 -1 1029 -12 Z "/>
        <glyph glyph-name="f_f" unicode="&#xfb00;" horiz-adv-x="1171"
               d="M749 0 L749 1005 L340 1005 L340 0 L216 0 L216 1005 L36 1005 L44 1082 L216 1096 L216 1137 Q216 1353 291.5 1451 Q367 1549 523 1549 Q568 1549 676 1534 L667 1452 Q571 1463 537 1463 Q423 1463 381.5 1389.5 Q340 1316 340 1131 L340 1096 L749 1096 L749 1137 Q749 1353 824.5 1451 Q900 1549 1056 1549 Q1101 1549 1209 1534 L1200 1452 Q1104 1463 1070 1463 Q956 1463 914.5 1389.5 Q873 1316 873 1131 L873 1096 L1140 1096 L1140 1005 L873 1005 L873 0 L749 0 Z "/>
        <glyph glyph-name="uni00A0" unicode="&#xa0;" horiz-adv-x="463" d=""/>
    </font>
</svg>
