<svg id="Calque_1" data-name="Calque 1" xmlns="http://www.w3.org/2000/svg" xmlns:xlink="http://www.w3.org/1999/xlink" viewBox="0 0 384.91 384.89"><defs><style>.cls-1{fill:none;}.cls-2{clip-path:url(#clip-path);}.cls-3{fill:#252525;}</style><clipPath id="clip-path" transform="translate(-107 -108.07)"><rect class="cls-1" x="107" y="108" width="384.96" height="385.92"/></clipPath></defs><title>customer-service</title><g class="cls-2"><path class="cls-3" d="M335.2,391.35c-9.76-9.68-22-9.68-31.76,0-7.44,7.36-14.88,14.72-22.16,22.24-2,2.08-3.68,2.48-6.16,1.12-4.8-2.64-9.92-4.72-14.56-7.6-21.52-13.52-39.6-31-55.6-50.64-7.92-9.76-15-20.16-19.92-31.92-1-2.4-.88-3.92,1.12-5.84,7.44-7.2,14.72-14.56,22-21.92,10.16-10.24,10.16-22.24-.08-32.56-5.76-5.84-11.6-11.68-17.44-17.44-6-6-11.92-12-18-18-9.84-9.6-22-9.68-31.84,0-7.44,7.36-14.72,15-22.24,22.16a36.27,36.27,0,0,0-11.36,24.48c-1.12,15.52,2.64,30.24,8,44.56,11,29.6,27.76,55.84,48,80a296.48,296.48,0,0,0,98.48,77c17.2,8.4,35.12,14.8,54.56,15.84,13.36.72,25-2.64,34.32-13,6.4-7.12,13.52-13.6,20.32-20.4,10-10.08,10.08-22.32.16-32.32-12-12-23.92-23.84-35.84-35.76Zm0,0" transform="translate(-107 -108.07)"/><path class="cls-3" d="M456.4,143.59a121.23,121.23,0,0,0-176.56,166l1.2,1c-4.56,9.92-12.48,22.08-25,28.24a4.7,4.7,0,0,0,1.36,8.88c13.68,2.16,33.28-.24,51.52-14.08l.24.24A121.29,121.29,0,0,0,456.4,143.59Zm-80.56,10.88a19.71,19.71,0,0,1,19.52,20c-.08,11-9,19.84-19.6,19.76a20,20,0,0,1-19.84-20.08,19.77,19.77,0,0,1,19.92-19.68Zm28.08,133.2a11.24,11.24,0,0,1-2.72,4.72c-7.2,7.28-15.76,11.6-26.08,11.76a86.33,86.33,0,0,1-14.4-.8c-7.92-1.12-17.92-10.88-16.48-21.36,1-7.12,2.08-14.24,3.28-21.36,2.08-12.32,4.32-24.72,6.48-37a12.39,12.39,0,0,0,.16-2.4c0-5.2-1.6-7-6.72-7.68a34.11,34.11,0,0,1-6.48-1.2,4.6,4.6,0,0,1-3.44-5c.24-2.16,1.6-3.52,4.4-4.08a20.77,20.77,0,0,1,4.48-.32h37.44c4.64,0,7.36,2.16,7.52,6.8a56.61,56.61,0,0,1-1.28,11.52c-2.48,14.08-5.12,28.16-7.68,42.32-.88,4.64-1.84,9.36-2.32,14a19.47,19.47,0,0,0,.64,6.8,5.19,5.19,0,0,0,5.92,4.24,35,35,0,0,0,7.36-2.08c1.92-.72,3.6-2.08,5.6-2.8,2.64-1,5,1,4.32,3.92Zm0,0" transform="translate(-107 -108.07)"/></g></svg>