<?xml version="1.0" encoding="utf-8"?>
<!-- Generator: Adobe Illustrator 22.1.0, SVG Export Plug-In . SVG Version: 6.00 Build 0)  -->
<svg version="1.1" id="Capa_1" xmlns="http://www.w3.org/2000/svg" xmlns:xlink="http://www.w3.org/1999/xlink" x="0px" y="0px"
	 viewBox="0 0 512 512" style="enable-background:new 0 0 512 512;" xml:space="preserve">
<style type="text/css">
	.st0{fill:#FFFFFF;}
</style>
<path class="st0" d="M256,0C114.8,0,0,114.8,0,256s114.8,256,256,256s256-114.8,256-256S397.2,0,256,0z M256,490
	C127,490,22,385,22,256S127,22,256,22s234,105,234,234S385,490,256,490z M207.1,239.7h104.6V256c0,57.7-46.9,104.6-104.6,104.6
	S102.5,313.7,102.5,256s46.9-104.6,104.6-104.6c23.3,0,45.3,7.5,63.8,21.7L251,198.9c-12.7-9.7-27.8-14.9-43.9-14.9
	c-39.7,0-72,32.3-72,72s32.3,72,72,72c34.1,0,62.7-23.8,70.1-55.6h-70.1V239.7z M402.5,239.7H431v32.7h-28.5v28.5h-32.7v-28.5h-28.5
	v-32.7h28.5v-28.5h32.7V239.7z"/>
</svg>
